<svg xmlns="http://www.w3.org/2000/svg" width="180" height="60" fill="none" viewBox="0 0 180 60"><path id="Spacinfo" fill="#FF5252" d="M18.8867 46.3906C17.4544 46.3906 16.1719 46.2604 15.0391 46C13.9193 45.7396 12.9232 45.362 12.0508 44.8672V40.5703C13.0534 41.1042 14.1146 41.5534 15.2344 41.918C16.3672 42.2695 17.5977 42.4453 18.9258 42.4453C19.707 42.4453 20.4427 42.3672 21.1328 42.2109C21.8229 42.0417 22.4349 41.7812 22.9688 41.4297C23.5026 41.0781 23.9193 40.6354 24.2188 40.1016C24.5182 39.5547 24.668 38.9102 24.668 38.168C24.668 37.4128 24.5117 36.7617 24.1992 36.2148C23.8867 35.668 23.4245 35.1536 22.8125 34.6719C22.2005 34.1771 21.4323 33.6432 20.5078 33.0703C19.6224 32.4974 18.7956 31.8659 18.0273 31.1758C17.2591 30.4857 16.6406 29.6849 16.1719 28.7734C15.7031 27.849 15.4688 26.7552 15.4688 25.4922C15.4688 24.1901 15.7031 23.0182 16.1719 21.9766C16.6536 20.9349 17.3242 20.0495 18.1836 19.3203C19.056 18.5781 20.0716 18.0117 21.2305 17.6211C22.4023 17.2305 23.6719 17.0352 25.0391 17.0352C26.5234 17.0352 27.8581 17.1914 29.043 17.5039C30.2279 17.8034 31.3737 18.2461 32.4805 18.832L30.7812 22.5039C29.9089 22.0742 28.9844 21.7227 28.0078 21.4492C27.0443 21.1628 26.0547 21.0195 25.0391 21.0195C24.362 21.0195 23.7305 21.1107 23.1445 21.293C22.5716 21.4753 22.0703 21.7422 21.6406 22.0938C21.2109 22.4453 20.8724 22.8815 20.625 23.4023C20.3906 23.9102 20.2734 24.4961 20.2734 25.1602C20.2734 25.9154 20.4232 26.5534 20.7227 27.0742C21.0221 27.5951 21.4583 28.0768 22.0312 28.5195C22.6042 28.9492 23.3008 29.418 24.1211 29.9258C25.2279 30.6159 26.1784 31.3255 26.9727 32.0547C27.7669 32.7839 28.3724 33.5977 28.7891 34.4961C29.2057 35.3945 29.4141 36.4557 29.4141 37.6797C29.4141 39.151 29.1471 40.4336 28.6133 41.5273C28.0924 42.6081 27.3503 43.513 26.3867 44.2422C25.4362 44.9583 24.3229 45.4987 23.0469 45.8633C21.7708 46.2148 20.3841 46.3906 18.8867 46.3906ZM30.8789 55.5898L37.5 24.3789H41.0742L40.6445 28.1094H40.8008C41.3346 27.3932 41.9336 26.7227 42.5977 26.0977C43.2617 25.4727 44.0039 24.9648 44.8242 24.5742C45.6576 24.1836 46.569 23.9883 47.5586 23.9883C48.6654 23.9883 49.668 24.2617 50.5664 24.8086C51.4779 25.3424 52.2005 26.1758 52.7344 27.3086C53.2812 28.4284 53.5547 29.8737 53.5547 31.6445C53.5547 33.1289 53.3984 34.5872 53.0859 36.0195C52.7865 37.4388 52.3438 38.7734 51.7578 40.0234C51.1719 41.2734 50.4557 42.3802 49.6094 43.3438C48.776 44.2943 47.8255 45.043 46.7578 45.5898C45.6901 46.1237 44.5182 46.3906 43.2422 46.3906C42.3047 46.3906 41.4974 46.2344 40.8203 45.9219C40.1562 45.5964 39.5964 45.1667 39.1406 44.6328C38.6849 44.099 38.3008 43.513 37.9883 42.875H37.8125C37.7474 43.6432 37.6562 44.444 37.5391 45.2773C37.4219 46.1107 37.2786 46.9049 37.1094 47.6602L35.4297 55.5898H30.8789ZM42.6367 42.6602C43.3789 42.6602 44.069 42.4583 44.707 42.0547C45.3451 41.638 45.9245 41.0716 46.4453 40.3555C46.9661 39.6393 47.4089 38.8125 47.7734 37.875C48.138 36.9375 48.418 35.9479 48.6133 34.9062C48.8086 33.8516 48.9062 32.7904 48.9062 31.7227C48.9062 30.3945 48.6458 29.3984 48.125 28.7344C47.6172 28.0573 46.849 27.7188 45.8203 27.7188C45.1953 27.7188 44.5964 27.8815 44.0234 28.207C43.4505 28.5195 42.9167 28.9492 42.4219 29.4961C41.9271 30.043 41.4779 30.681 41.0742 31.4102C40.6706 32.1263 40.3255 32.8945 40.0391 33.7148C39.7526 34.5352 39.5312 35.3685 39.375 36.2148C39.2318 37.0612 39.1602 37.8815 39.1602 38.6758C39.1602 39.8737 39.4531 40.8372 40.0391 41.5664C40.638 42.2956 41.5039 42.6602 42.6367 42.6602ZM63.2812 46.3906C62.1745 46.3906 61.1654 46.1237 60.2539 45.5898C59.3555 45.043 58.6393 44.2096 58.1055 43.0898C57.5716 41.957 57.3047 40.5182 57.3047 38.7734C57.3047 37.263 57.4609 35.7917 57.7734 34.3594C58.099 32.9271 58.5547 31.5859 59.1406 30.3359C59.7396 29.0859 60.4622 27.9857 61.3086 27.0352C62.1549 26.0716 63.112 25.3229 64.1797 24.7891C65.2474 24.2422 66.3997 23.9688 67.6367 23.9688C68.5742 23.9688 69.3945 24.1315 70.0977 24.457C70.8008 24.7695 71.3932 25.1927 71.875 25.7266C72.3568 26.2604 72.7474 26.8529 73.0469 27.5039H73.2227L74.3945 24.3789H77.9102L73.3203 46H69.8242L70.2539 42.5039H70.0977C69.5378 43.2201 68.9128 43.8711 68.2227 44.457C67.5456 45.043 66.7969 45.5117 65.9766 45.8633C65.1562 46.2148 64.2578 46.3906 63.2812 46.3906ZM64.9609 42.6602C65.8724 42.6602 66.7448 42.3216 67.5781 41.6445C68.4115 40.9544 69.1471 40.043 69.7852 38.9102C70.4362 37.7773 70.918 36.5339 71.2305 35.1797C71.3867 34.5286 71.4909 33.9102 71.543 33.3242C71.6081 32.7383 71.6406 32.1523 71.6406 31.5664C71.6406 30.4336 71.3411 29.5091 70.7422 28.793C70.1432 28.0768 69.3229 27.7188 68.2812 27.7188C67.5651 27.7188 66.8815 27.9206 66.2305 28.3242C65.5924 28.7279 65.013 29.2878 64.4922 30.0039C63.9714 30.707 63.5156 31.5208 63.125 32.4453C62.7474 33.3698 62.4544 34.3659 62.2461 35.4336C62.0508 36.4883 61.9531 37.5625 61.9531 38.6562C61.9531 39.9714 62.2135 40.9674 62.7344 41.6445C63.2682 42.3216 64.0104 42.6602 64.9609 42.6602ZM88.5352 46.3906C86.9857 46.3906 85.6055 46.1042 84.3945 45.5312C83.1836 44.9583 82.2331 44.0794 81.543 42.8945C80.8529 41.7096 80.5078 40.1992 80.5078 38.3633C80.5078 36.8138 80.6706 35.3294 80.9961 33.9102C81.3346 32.4779 81.8229 31.1628 82.4609 29.9648C83.099 28.7539 83.8802 27.7057 84.8047 26.8203C85.7292 25.9219 86.7839 25.2253 87.9688 24.7305C89.1536 24.2227 90.4622 23.9688 91.8945 23.9688C93.0143 23.9688 94.0625 24.0794 95.0391 24.3008C96.0156 24.5091 96.9141 24.8021 97.7344 25.1797L96.3672 28.793C95.7422 28.5065 95.0716 28.2591 94.3555 28.0508C93.6523 27.8294 92.8776 27.7188 92.0312 27.7188C90.9766 27.7188 90.026 28.0052 89.1797 28.5781C88.3333 29.138 87.6107 29.9128 87.0117 30.9023C86.4128 31.8789 85.9505 32.9857 85.625 34.2227C85.3125 35.4596 85.1562 36.7552 85.1562 38.1094C85.1562 39.0729 85.319 39.8932 85.6445 40.5703C85.9701 41.2474 86.4388 41.7682 87.0508 42.1328C87.6758 42.4844 88.4245 42.6602 89.2969 42.6602C90.2604 42.6602 91.1654 42.5234 92.0117 42.25C92.8581 41.9635 93.7044 41.612 94.5508 41.1953V44.9844C93.7435 45.4141 92.8451 45.7526 91.8555 46C90.8659 46.2604 89.7591 46.3906 88.5352 46.3906ZM98.3398 46L102.93 24.3789H107.5L102.91 46H98.3398ZM106.23 21.1367C105.553 21.1367 104.987 20.974 104.531 20.6484C104.076 20.3099 103.848 19.7826 103.848 19.0664C103.848 18.4674 103.958 17.9466 104.18 17.5039C104.414 17.0612 104.746 16.7227 105.176 16.4883C105.618 16.2409 106.146 16.1172 106.758 16.1172C107.435 16.1172 107.988 16.2799 108.418 16.6055C108.848 16.918 109.062 17.4258 109.062 18.1289C109.062 19.0404 108.809 19.7695 108.301 20.3164C107.793 20.8633 107.103 21.1367 106.23 21.1367ZM109.277 46L113.887 24.3203H117.578L117.109 28.4023H117.227C117.747 27.6341 118.353 26.9115 119.043 26.2344C119.733 25.5443 120.514 24.9844 121.387 24.5547C122.272 24.125 123.262 23.9102 124.355 23.9102C125.553 23.9102 126.569 24.1445 127.402 24.6133C128.236 25.082 128.867 25.7526 129.297 26.625C129.727 27.4974 129.941 28.5391 129.941 29.75C129.941 30.2839 129.896 30.8568 129.805 31.4688C129.727 32.0677 129.622 32.6536 129.492 33.2266L126.777 46H122.109L124.883 32.8555C125 32.3477 125.085 31.8919 125.137 31.4883C125.202 31.0846 125.234 30.707 125.234 30.3555C125.234 29.4961 125.02 28.8516 124.59 28.4219C124.173 27.9922 123.548 27.7773 122.715 27.7773C121.803 27.7773 120.905 28.1289 120.02 28.832C119.134 29.5352 118.333 30.5573 117.617 31.8984C116.901 33.2396 116.335 34.8607 115.918 36.7617L113.965 46H109.277ZM130.605 55.6094C130.046 55.6094 129.505 55.5638 128.984 55.4727C128.451 55.3815 128.001 55.2773 127.637 55.1602V51.4102C128.027 51.5534 128.405 51.6576 128.77 51.7227C129.121 51.8008 129.492 51.8398 129.883 51.8398C130.768 51.8398 131.491 51.5143 132.051 50.8633C132.624 50.2253 133.053 49.2487 133.34 47.9336L137.578 27.8555H134.121L134.551 25.7461L138.32 24.3203L138.73 22.4648C139.017 21.1367 139.382 20.0234 139.824 19.125C140.28 18.2135 140.814 17.4844 141.426 16.9375C142.051 16.3906 142.767 16 143.574 15.7656C144.395 15.5182 145.319 15.3945 146.348 15.3945C147.129 15.3945 147.878 15.4727 148.594 15.6289C149.323 15.7852 149.954 15.987 150.488 16.2344L149.277 19.6719C148.9 19.5156 148.496 19.3789 148.066 19.2617C147.637 19.1445 147.161 19.0859 146.641 19.0859C145.716 19.0859 144.98 19.3724 144.434 19.9453C143.887 20.5182 143.483 21.4362 143.223 22.6992L142.871 24.3789H147.305L146.602 27.8555H142.129L137.754 48.5586C137.454 49.9388 137.018 51.1562 136.445 52.2109C135.885 53.2786 135.13 54.112 134.18 54.7109C133.229 55.3099 132.038 55.6094 130.605 55.6094ZM155.762 46.3516C154.121 46.3516 152.689 46.013 151.465 45.3359C150.241 44.6589 149.29 43.7018 148.613 42.4648C147.949 41.2148 147.617 39.737 147.617 38.0312C147.617 36.5859 147.767 35.1797 148.066 33.8125C148.379 32.4453 148.835 31.1693 149.434 29.9844C150.033 28.7995 150.781 27.7643 151.68 26.8789C152.578 25.9805 153.62 25.2839 154.805 24.7891C155.99 24.2812 157.318 24.0273 158.789 24.0273C160.469 24.0273 161.914 24.3659 163.125 25.043C164.336 25.7201 165.267 26.6901 165.918 27.9531C166.569 29.2161 166.895 30.7266 166.895 32.4844C166.895 33.8906 166.745 35.2643 166.445 36.6055C166.159 37.9466 165.723 39.2096 165.137 40.3945C164.551 41.5664 163.809 42.6016 162.91 43.5C162.025 44.3854 160.983 45.082 159.785 45.5898C158.6 46.0977 157.259 46.3516 155.762 46.3516ZM156.094 42.6016C156.823 42.6016 157.5 42.4388 158.125 42.1133C158.763 41.7747 159.336 41.2995 159.844 40.6875C160.352 40.0625 160.781 39.3268 161.133 38.4805C161.497 37.6211 161.777 36.6706 161.973 35.6289C162.168 34.5872 162.266 33.474 162.266 32.2891C162.266 31.4948 162.148 30.7591 161.914 30.082C161.68 29.3919 161.289 28.8385 160.742 28.4219C160.208 27.9922 159.492 27.7773 158.594 27.7773C157.786 27.7773 157.044 27.9727 156.367 28.3633C155.703 28.7409 155.111 29.2682 154.59 29.9453C154.082 30.6224 153.652 31.4036 153.301 32.2891C152.949 33.1615 152.682 34.099 152.5 35.1016C152.318 36.0911 152.227 37.0938 152.227 38.1094C152.227 39.5547 152.552 40.668 153.203 41.4492C153.867 42.2174 154.831 42.6016 156.094 42.6016Z"/></svg>