<?xml version="1.0" standalone="no"?>
<!DOCTYPE svg PUBLIC "-//W3C//DTD SVG 20010904//EN"
 "http://www.w3.org/TR/2001/REC-SVG-20010904/DTD/svg10.dtd">
<svg version="1.0" xmlns="http://www.w3.org/2000/svg"
 width="512.000000pt" height="512.000000pt" viewBox="0 0 512.000000 512.000000"
 preserveAspectRatio="xMidYMid meet">

<g transform="translate(0.000000,512.000000) scale(0.100000,-0.100000)"
fill="#000000" stroke="none">
<path d="M2323 5110 c-1014 -99 -1868 -775 -2188 -1733 -50 -150 -85 -297
-112 -467 -24 -161 -24 -539 0 -700 69 -448 234 -849 486 -1184 417 -552 998
-894 1701 -1003 161 -24 539 -24 700 0 703 109 1284 451 1701 1003 252 335
417 736 486 1184 24 161 24 539 0 700 -56 361 -172 690 -345 974 -403 662
-1054 1093 -1832 1211 -125 19 -468 27 -597 15z m1035 -1565 c108 -32 183
-120 202 -235 14 -89 13 -1413 -1 -1500 -17 -107 -70 -179 -164 -222 l-50 -23
-785 0 -785 0 -48 25 c-27 13 -66 44 -88 68 -79 85 -74 23 -72 897 l3 780 30
62 c36 72 89 119 164 145 47 16 111 17 797 18 640 0 753 -2 797 -15z"/>
</g>
</svg>
