<?xml version="1.0" encoding="utf-8"?>
<svg id="master-artboard" viewBox="0 0 40 60" version="1.1" xmlns="http://www.w3.org/2000/svg" x="0px" y="0px" style="enable-background:new 0 0 1400 980;" width="40px" height="60px"><rect id="ee-background" x="0" y="0" width="40" height="60" style="fill: white; fill-opacity: 0; pointer-events: none;"/><g transform="matrix(0.31746032124473844, 0, 0, 0.3333333432674408, -1.62261962890625, 0)"><path d="M 0 0 H 0 V 0 H 0 V 0 Z" id="backgroundrect" fill="none" stroke="none"/><g class="currentLayer" style=""><title>Layer 1</title><g transform="translate(0,184) scale(0.10000000149011612,-0.10000000149011612) " fill="#ffffff" stroke="none" id="svg_1" class="" fill-opacity="1">
<path d="M313 1518 l-273 -271 0 -588 c0 -521 2 -589 16 -603 14 -14 81 -16 594 -16 l579 0 15 22 c14 20 16 92 16 589 0 536 -1 567 -18 582 -16 15 -51 17 -290 17 -233 0 -273 2 -286 16 -14 13 -16 50 -16 254 0 204 -2 241 -16 254 -8 9 -23 16 -32 16 -9 0 -140 -122 -289 -272z m689 -515 c17 -15 18 -40 18 -359 l0 -343 -22 -15 c-19 -14 -67 -16 -320 -16 -285 0 -299 1 -318 20 -11 11 -20 25 -20 32 0 6 70 82 155 168 l155 157 0 168 c0 143 3 171 17 187 14 16 33 18 166 18 126 0 153 -3 169 -17z" id="svg_2" fill="#ffffff" fill-opacity="1"/>
</g></g></g></svg>