<svg height="469pt" viewBox="0 -31 469.536 469" width="469pt" xmlns="http://www.w3.org/2000/svg"><path d="m185.246094 87.210938h103.441406v86.550781h-103.441406zm0 0" fill="#db785a"/><path d="m288.6875 177.769531h-103.441406c-2.207032 0-4-1.789062-4-4v-86.558593c0-2.207032 1.792968-4 4-4h103.441406c2.207031 0 4 1.792968 4 4v86.550781c0 2.21875-1.792969 4.007812-4 4.007812zm-99.441406-8h95.441406v-78.550781h-95.441406zm0 0" fill="#63312d"/><path d="m178.238281 156.964844h117.457031v16.804687h-117.457031zm0 0" fill="#d1d1d1"/><path d="m295.695312 177.769531h-117.457031c-2.207031 0-4-1.789062-4-4v-16.804687c0-2.210938 1.792969-4 4-4h117.457031c2.207032 0 4 1.789062 4 4v16.804687c0 2.210938-1.792968 4-4 4zm-113.457031-8h109.457031v-8.804687h-109.457031zm0 0" fill="#63312d"/><path d="m178.238281 87.210938h117.457031v16.800781h-117.457031zm0 0" fill="#d1d1d1"/><path d="m295.695312 108.011719h-117.457031c-2.207031 0-4-1.792969-4-4v-16.800781c0-2.207032 1.792969-4 4-4h117.457031c2.207032 0 4 1.792968 4 4v16.800781c0 2.207031-1.792968 4-4 4zm-113.457031-8h109.457031v-8.800781h-109.457031zm0 0" fill="#63312d"/><path d="m260.617188 123.621094h8v76.511718h-8zm0 0" fill="#63312d"/><path d="m264.207031 147.613281c-4.398437 0-8-3.601562-8-8v-17.386719c0-4.398437 3.601563-8 8-8h.808594c4.398437 0 8 3.601563 8 8v17.386719c0 4.398438-3.601563 8-8 8zm0 0" fill="#f8f3f3"/><path d="m265.015625 151.613281h-.808594c-6.613281 0-12-5.386719-12-12v-17.386719c0-6.613281 5.386719-12 12-12h.808594c6.617187 0 12 5.386719 12 12v17.386719c0 6.613281-5.382813 12-12 12zm-.808594-33.386719c-2.207031 0-4 1.792969-4 4v17.386719c0 2.207031 1.792969 4 4 4h.808594c2.207031 0 4-1.792969 4-4v-17.386719c0-2.207031-1.792969-4-4-4zm0 0" fill="#63312d"/><path d="m137.246094 87.210938h103.441406v86.550781h-103.441406zm0 0" fill="#f9a287"/><path d="m137.246094 87.210938h16v86.550781h-16zm0 0" fill="#ffc8bb"/><path d="m240.6875 177.769531h-103.441406c-2.207032 0-4-1.789062-4-4v-86.558593c0-2.207032 1.792968-4 4-4h103.441406c2.207031 0 4 1.792968 4 4v86.550781c0 2.21875-1.792969 4.007812-4 4.007812zm-99.441406-8h95.441406v-78.550781h-95.441406zm0 0" fill="#63312d"/><path d="m130.238281 156.964844h117.457031v16.804687h-117.457031zm0 0" fill="#f8f3f3"/><path d="m247.695312 177.769531h-117.457031c-2.207031 0-4-1.789062-4-4v-16.804687c0-2.210938 1.792969-4 4-4h117.457031c2.207032 0 4 1.789062 4 4v16.804687c0 2.210938-1.792968 4-4 4zm-113.457031-8h109.457031v-8.804687h-109.457031zm0 0" fill="#63312d"/><path d="m130.238281 87.210938h117.457031v16.800781h-117.457031zm0 0" fill="#f8f3f3"/><path d="m247.695312 108.011719h-117.457031c-2.207031 0-4-1.792969-4-4v-16.800781c0-2.207032 1.792969-4 4-4h117.457031c2.207032 0 4 1.792968 4 4v16.800781c0 2.207031-1.792968 4-4 4zm-113.457031-8h109.457031v-8.800781h-109.457031zm0 0" fill="#63312d"/><path d="m60.40625 191.730469h117.832031v145.167969h-117.832031zm0 0" fill="#db785a"/><path d="m178.238281 340.890625h-117.832031c-2.207031 0-4-1.792969-4-4v-145.160156c0-2.207031 1.792969-4 4-4h117.832031c2.210938 0 4 1.792969 4 4v145.167969c0 2.207031-1.789062 3.992187-4 3.992187zm-113.832031-8h109.832031v-137.160156h-109.832031zm0 0" fill="#63312d"/><path d="m12.40625 191.730469h117.832031v145.167969h-117.832031zm0 0" fill="#f9a287"/><path d="m12.40625 191.730469h16v145.167969h-16zm0 0" fill="#ffc8bb"/><path d="m52.425781 320.089844h133.804688v16.808594h-133.804688zm0 0" fill="#d1d1d1"/><path d="m52.425781 191.730469h133.804688v16.808593h-133.804688zm0 0" fill="#d1d1d1"/><g fill="#63312d"><path d="m186.222656 340.890625h-133.796875c-2.210937 0-4-1.792969-4-4v-16.808594c0-2.207031 1.789063-4 4-4h133.804688c2.210937 0 4 1.792969 4 4v16.808594c-.007813 2.214844-1.796875 4-4.007813 4zm-129.796875-8h125.804688v-8.808594h-125.804688zm0 0"/><path d="m186.222656 212.53125h-133.796875c-2.210937 0-4-1.792969-4-4v-16.808594c0-2.207031 1.789063-4 4-4h133.804688c2.210937 0 4 1.792969 4 4v16.808594c-.007813 2.214844-1.796875 4-4.007813 4zm-129.796875-8h125.804688v-8.808594h-125.804688zm0 0"/><path d="m130.238281 340.890625h-117.832031c-2.207031 0-4-1.792969-4-4v-145.160156c0-2.207031 1.792969-4 4-4h117.832031c2.210938 0 4 1.792969 4 4v145.167969c0 2.207031-1.789062 3.992187-4 3.992187zm-113.832031-8h109.832031v-137.160156h-109.832031zm0 0"/><path d="m126.238281 264.308594h8v127.992187h-8zm0 0"/></g><path d="m129.839844 403.066406c-4.398438 0-8-3.597656-8-8v-5.527344c0-4.398437 3.601562-8 8-8h.800781c4.398437 0 8 3.601563 8 8v5.527344c0 4.402344-3.601563 8-8 8zm0 0" fill="#f8f3f3"/><path d="m129.839844 288.300781c-4.398438 0-8-3.601562-8-8v-17.386719c0-4.398437 3.601562-8 8-8h.800781c4.398437 0 8 3.601563 8 8v17.386719c0 4.398438-3.601563 8-8 8zm0 0" fill="#f8f3f3"/><path d="m130.640625 407.066406h-.800781c-6.617188 0-12-5.382812-12-12v-5.527344c0-6.617187 5.382812-12 12-12 7.417968 0 12.800781 5.382813 12.800781 12v5.527344c0 6.617188-5.382813 12-12 12zm0-21.535156c-3 0-4.800781 1.792969-4.800781 4v5.527344c0 2.207031 1.792968 4 4 4h.800781c2.207031 0 4-1.792969 4-4v-5.527344c0-2.199219-1.792969-4-4-4zm0 0" fill="#63312d"/><path d="m130.640625 292.300781h-.800781c-6.617188 0-12-5.386719-12-12v-17.386719c0-6.613281 5.382812-12 12-12 7.417968 0 12.800781 5.386719 12.800781 12v17.386719c0 6.613281-5.382813 12-12 12zm0-33.386719c-3 0-4.800781 1.792969-4.800781 4v17.386719c0 2.207031 1.792968 4 4 4h.800781c2.207031 0 4-1.792969 4-4v-17.386719c0-2.207031-1.792969-4-4-4zm0 0" fill="#63312d"/><path d="m8.40625 264.308594h8v127.992187h-8zm0 0" fill="#63312d"/><path d="m12.007812 288.300781c-4.398437 0-8-3.601562-8-8v-17.386719c0-4.398437 3.601563-8 8-8h.800782c4.398437 0 8 3.601563 8 8v17.386719c0 4.398438-3.601563 8-8 8zm0 0" fill="#f8f3f3"/><path d="m12.800781 292.300781h-.800781c-6.617188 0-12-5.386719-12-12v-17.386719c0-6.613281 5.382812-12 12-12 7.414062 0 12.800781 5.386719 12.800781 12v17.386719c0 6.613281-5.375 12-12 12zm0-33.386719c-3 0-4.800781 1.792969-4.800781 4v17.386719c0 2.207031 1.792969 4 4 4h.800781c2.207031 0 4-1.792969 4-4v-17.386719c0-2.207031-1.792969-4-4-4zm0 0" fill="#63312d"/><path d="m67.320312 264.308594h8v127.992187h-8zm0 0" fill="#63312d"/><path d="m70.921875 288.300781c-4.402344 0-8-3.601562-8-8v-17.386719c0-4.398437 3.597656-8 8-8h.796875c4.402344 0 8 3.601563 8 8v17.386719c0 4.398438-3.597656 8-8 8zm0 0" fill="#f8f3f3"/><path d="m71.71875 292.300781h-.796875c-6.617187 0-12-5.386719-12-12v-17.386719c0-6.613281 5.382813-12 12-12 7.414063 0 12.796875 5.386719 12.796875 12v17.386719c0 6.613281-5.382812 12-12 12zm0-33.386719c-3 0-4.796875 1.792969-4.796875 4v17.386719c0 2.207031 1.789063 4 4 4h.796875c2.210938 0 4-1.792969 4-4v-17.386719c0-2.207031-1.789062-4-4-4zm0 0" fill="#63312d"/><path d="m4.425781 320.089844h133.804688v16.808594h-133.804688zm0 0" fill="#f8f3f3"/><path d="m138.222656 340.890625h-133.796875c-2.210937 0-4-1.792969-4-4v-16.808594c0-2.207031 1.789063-4 4-4h133.804688c2.210937 0 4 1.792969 4 4v16.808594c-.007813 2.214844-1.796875 4-4.007813 4zm-129.796875-8h125.804688v-8.808594h-125.804688zm0 0" fill="#63312d"/><path d="m4.425781 191.730469h133.804688v16.808593h-133.804688zm0 0" fill="#f8f3f3"/><path d="m138.222656 212.53125h-133.796875c-2.210937 0-4-1.792969-4-4v-16.808594c0-2.207031 1.789063-4 4-4h133.804688c2.210937 0 4 1.792969 4 4v16.808594c-.007813 2.214844-1.796875 4-4.007813 4zm-129.796875-8h125.804688v-8.808594h-125.804688zm0 0" fill="#63312d"/><path d="m165.671875 264.308594h8v127.992187h-8zm0 0" fill="#63312d"/><path d="m169.265625 403.066406c-4.402344 0-8-3.597656-8-8v-5.527344c0-4.398437 3.597656-8 8-8h.804687c4.402344 0 8 3.601563 8 8v5.527344c0 4.402344-3.597656 8-8 8zm0 0" fill="#f8f3f3"/><path d="m169.265625 288.300781c-4.402344 0-8-3.601562-8-8v-17.386719c0-4.398437 3.597656-8 8-8h.804687c4.402344 0 8 3.601563 8 8v17.386719c0 4.398438-3.597656 8-8 8zm0 0" fill="#f8f3f3"/><path d="m170.070312 407.066406h-.804687c-6.617187 0-12-5.382812-12-12v-5.527344c0-6.617187 5.382813-12 12-12h.804687c6.617188 0 12 5.382813 12 12v5.527344c0 6.617188-5.382812 12-12 12zm-.804687-21.535156c-2.210937 0-4 1.792969-4 4v5.527344c0 2.207031 1.789063 4 4 4h.804687c2.210938 0 4-1.792969 4-4v-5.527344c0-2.207031-1.789062-4-4-4zm0 0" fill="#63312d"/><path d="m170.070312 292.300781h-.804687c-6.617187 0-12-5.386719-12-12v-17.386719c0-6.613281 5.382813-12 12-12h.804687c6.617188 0 12 5.386719 12 12v17.386719c0 6.613281-5.382812 12-12 12zm-.804687-33.386719c-2.210937 0-4 1.792969-4 4v17.386719c0 2.207031 1.789063 4 4 4h.804687c2.210938 0 4-1.792969 4-4v-17.386719c0-2.207031-1.789062-4-4-4zm0 0" fill="#63312d"/><path d="m278.535156 197.394531h-48v172h48c47.503906 0 86-38.503906 86-86.007812 0-47.496094-38.496094-85.992188-86-85.992188zm0 0" fill="#db785a"/><path d="m278.535156 373.394531h-48c-2.207031 0-4-1.792969-4-4v-172c0-2.207031 1.792969-4 4-4h48c49.625 0 90 40.367188 90 89.992188s-40.375 90.007812-90 90.007812zm-44-8h44c45.21875 0 82-36.792969 82-82.007812 0-45.207031-36.78125-81.992188-82-81.992188h-44zm0 0" fill="#63312d"/><path d="m144.535156 283.386719c0 47.503906 38.503906 86.007812 86 86.007812s86-38.503906 86-86.007812c0-47.496094-38.503906-85.992188-86-85.992188-47.488281 0-86 38.496094-86 85.992188zm0 0" fill="#f9a287"/><path d="m160.535156 283.386719c0-44.792969 34.265625-81.550781 78-85.589844-2.640625-.242187-5.296875-.402344-8-.402344-47.496094 0-86 38.503907-86 85.992188 0 47.503906 38.503906 86.007812 86 86.007812 2.703125 0 5.359375-.160156 8-.398437-43.734375-4.046875-78-40.808594-78-85.609375zm0 0" fill="#ffc8bb"/><path d="m230.535156 373.394531c-49.625 0-90-40.375-90-90.007812 0-49.625 40.375-89.992188 90-89.992188s90 40.367188 90 89.992188-40.375 90.007812-90 90.007812zm0-172c-45.214844 0-82 36.785157-82 81.992188 0 45.214843 36.785156 82.007812 82 82.007812 45.21875 0 82-36.792969 82-82.007812 0-45.214844-36.78125-81.992188-82-81.992188zm0 0" fill="#63312d"/><path d="m178.070312 283.386719c0 28.976562 23.488282 52.488281 52.472657 52.488281s52.472656-23.503906 52.472656-52.488281c0-28.96875-23.496094-52.472657-52.472656-52.472657-28.976563 0-52.472657 23.503907-52.472657 52.472657zm0 0" fill="#f9dd9d"/><path d="m194.070312 283.386719c0-26.238281 19.304688-47.933594 44.472657-51.800781-2.613281-.398438-5.269531-.671876-8-.671876-28.976563 0-52.472657 23.503907-52.472657 52.472657 0 28.976562 23.488282 52.488281 52.472657 52.488281 2.730469 0 5.386719-.273438 8-.671875-25.175781-3.871094-44.472657-25.566406-44.472657-51.816406zm0 0" fill="#ffeecf"/><path d="m230.535156 339.867188c-31.136718 0-56.472656-25.335938-56.472656-56.488282 0-31.136718 25.335938-56.472656 56.472656-56.472656 31.136719 0 56.472656 25.335938 56.472656 56.472656 0 31.152344-25.335937 56.488282-56.472656 56.488282zm0-104.953126c-26.726562 0-48.472656 21.746094-48.472656 48.472657 0 26.738281 21.746094 48.488281 48.472656 48.488281 26.730469 0 48.472656-21.75 48.472656-48.488281 0-26.726563-21.742187-48.472657-48.472656-48.472657zm0 0" fill="#63312d"/><path d="m378.71875 188.996094h81.3125v54.414062h-81.3125zm0 0" fill="#db785a"/><path d="m460.03125 247.410156h-81.3125c-2.207031 0-4-1.789062-4-4v-54.414062c0-2.207032 1.792969-4 4-4h81.3125c2.207031 0 4 1.792968 4 4v54.414062c0 2.210938-1.792969 4-4 4zm-77.3125-8h73.3125v-46.414062h-73.3125zm0 0" fill="#63312d"/><path d="m373.199219 226.601562h92.335937v16.808594h-92.335937zm0 0" fill="#d1d1d1"/><path d="m465.535156 247.410156h-92.335937c-2.207031 0-4-1.789062-4-4v-16.808594c0-2.207031 1.792969-4 4-4h92.335937c2.207032 0 4 1.792969 4 4v16.808594c0 2.210938-1.78125 4-4 4zm-88.335937-8h84.335937v-8.808594h-84.335937zm0 0" fill="#63312d"/><path d="m373.199219 188.996094h92.335937v16.800781h-92.335937zm0 0" fill="#d1d1d1"/><path d="m465.535156 209.796875h-92.335937c-2.207031 0-4-1.792969-4-4v-16.800781c0-2.207032 1.792969-4 4-4h92.335937c2.207032 0 4 1.792968 4 4v16.800781c0 2.207031-1.78125 4-4 4zm-88.335937-8h84.335937v-8.800781h-84.335937zm0 0" fill="#63312d"/><path d="m330.71875 188.996094h81.3125v54.414062h-81.3125zm0 0" fill="#f9a287"/><path d="m330.71875 188.996094h16v54.414062h-16zm0 0" fill="#ffc8bb"/><path d="m412.03125 247.410156h-81.3125c-2.207031 0-4-1.789062-4-4v-54.414062c0-2.207032 1.792969-4 4-4h81.3125c2.207031 0 4 1.792968 4 4v54.414062c0 2.210938-1.792969 4-4 4zm-77.3125-8h73.3125v-46.414062h-73.3125zm0 0" fill="#63312d"/><path d="m325.199219 226.601562h92.335937v16.808594h-92.335937zm0 0" fill="#f8f3f3"/><path d="m417.535156 247.410156h-92.335937c-2.207031 0-4-1.789062-4-4v-16.808594c0-2.207031 1.792969-4 4-4h92.335937c2.207032 0 4 1.792969 4 4v16.808594c0 2.210938-1.78125 4-4 4zm-88.335937-8h84.335937v-8.808594h-84.335937zm0 0" fill="#63312d"/><path d="m325.199219 188.996094h92.335937v16.800781h-92.335937zm0 0" fill="#f8f3f3"/><path d="m417.535156 209.796875h-92.335937c-2.207031 0-4-1.792969-4-4v-16.800781c0-2.207032 1.792969-4 4-4h92.335937c2.207032 0 4 1.792968 4 4v16.800781c0 2.207031-1.78125 4-4 4zm-88.335937-8h84.335937v-8.800781h-84.335937zm0 0" fill="#63312d"/><path d="m337.34375 264.308594h8v127.992187h-8zm0 0" fill="#63312d"/><path d="m340.9375 403.066406c-4.402344 0-8-3.597656-8-8v-5.527344c0-4.398437 3.597656-8 8-8h.804688c4.402343 0 8 3.601563 8 8v5.527344c0 4.402344-3.597657 8-8 8zm0 0" fill="#f8f3f3"/><path d="m340.9375 288.300781c-4.402344 0-8-3.601562-8-8v-17.386719c0-4.398437 3.597656-8 8-8h.804688c4.402343 0 8 3.601563 8 8v17.386719c0 4.398438-3.597657 8-8 8zm0 0" fill="#f8f3f3"/><path d="m341.742188 407.066406h-.804688c-6.617188 0-12-5.382812-12-12v-5.527344c0-6.617187 5.382812-12 12-12h.804688c6.617187 0 12 5.382813 12 12v5.527344c0 6.617188-5.382813 12-12 12zm-.804688-21.535156c-2.210938 0-4 1.792969-4 4v5.527344c0 2.207031 1.789062 4 4 4h.804688c2.210937 0 4-1.792969 4-4v-5.527344c0-2.207031-1.789063-4-4-4zm0 0" fill="#63312d"/><path d="m341.742188 292.300781h-.804688c-6.617188 0-12-5.386719-12-12v-17.386719c0-6.613281 5.382812-12 12-12h.804688c6.617187 0 12 5.386719 12 12v17.386719c0 6.613281-5.382813 12-12 12zm-.804688-33.386719c-2.210938 0-4 1.792969-4 4v17.386719c0 2.207031 1.789062 4 4 4h.804688c2.210937 0 4-1.792969 4-4v-17.386719c0-2.207031-1.789063-4-4-4zm0 0" fill="#63312d"/><path d="m395.433594 294.921875c-1.167969 0-2.273438-.503906-3.035156-1.390625l-40.886719-47.511719 6.0625-5.214843 37.859375 43.992187 37.75-43.984375 6.074218 5.207031-40.785156 47.511719c-.769531.878906-1.871094 1.390625-3.039062 1.390625zm0 0" fill="#63312d"/><path d="m15.960938 395.066406-6.617188-4.496094 29.351562-43.261718c.746094-1.097656 1.984376-1.753906 3.3125-1.753906 1.328126 0 2.566407.664062 3.3125 1.761718l29.265626 43.261719-6.625 4.488281-25.960938-38.375zm0 0" fill="#63312d"/><path d="m12.007812 403.066406c-4.398437 0-8-3.597656-8-8v-5.527344c0-4.398437 3.601563-8 8-8h.800782c4.398437 0 8 3.601563 8 8v5.527344c0 4.402344-3.601563 8-8 8zm0 0" fill="#f8f3f3"/><path d="m12.800781 407.066406h-.800781c-6.617188 0-12-5.382812-12-12v-5.527344c0-6.617187 5.382812-12 12-12 7.414062 0 12.800781 5.382813 12.800781 12v5.527344c0 6.617188-5.375 12-12 12zm0-21.535156c-3 0-4.800781 1.792969-4.800781 4v5.527344c0 2.207031 1.792969 4 4 4h.800781c2.207031 0 4-1.792969 4-4v-5.527344c0-2.199219-1.792969-4-4-4zm0 0" fill="#63312d"/><path d="m70.921875 403.066406c-4.402344 0-8-3.597656-8-8v-5.527344c0-4.398437 3.597656-8 8-8h.796875c4.402344 0 8 3.601563 8 8v5.527344c0 4.402344-3.597656 8-8 8zm0 0" fill="#f8f3f3"/><path d="m71.71875 407.066406h-.796875c-6.617187 0-12-5.382812-12-12v-5.527344c0-6.617187 5.382813-12 12-12 7.414063 0 12.796875 5.382813 12.796875 12v5.527344c0 6.617188-5.382812 12-12 12zm0-21.535156c-3 0-4.796875 1.792969-4.796875 4v5.527344c0 2.207031 1.789063 4 4 4h.796875c2.210938 0 4-1.792969 4-4v-5.527344c0-2.199219-1.789062-4-4-4zm0 0" fill="#63312d"/><path d="m38.089844 133.117188h8v217.367187h-8zm0 0" fill="#63312d"/><path d="m38.289062 131.640625 49.035157-125.429687 7.449219 2.914062-49.035157 125.429688zm0 0" fill="#63312d"/><path d="m138.886719 46.277344-42.964844-16.449219c-1.082031-4.832031-4.464844-9.039063-9.425781-10.953125-4.960938-1.902344-10.296875-1.023438-14.328125 1.847656l-42.960938-16.457031-6.015625 15.699219 109.6875 42zm0 0" fill="#f9dd9d"/><path d="m132.878906 65.964844c-.488281 0-.96875-.089844-1.429687-.265625l-109.679688-42.007813c-1-.375-1.800781-1.136718-2.226562-2.105468-.429688-.964844-.464844-2.070313-.078125-3.0625l6.015625-15.6875c.792969-2.066407 3.121093-3.089844 5.167969-2.304688l41.09375 15.746094c4.953124-2.738282 10.859374-3.179688 16.195312-1.136719 5.335938 2.046875 9.429688 6.328125 11.277344 11.664063l41.105468 15.734374c.992188.375 1.792969 1.136719 2.222657 2.105469.433593.96875.464843 2.070313.082031 3.054688l-6.007812 15.6875c-.378907.992187-1.136719 1.792969-2.105469 2.226562-.519531.230469-1.078125.351563-1.632813.351563zm-104.519531-48.304688 102.214844 39.144532 3.152343-8.21875-39.230468-15.015626c-1.257813-.480468-2.183594-1.550781-2.472656-2.863281-.832032-3.703125-3.429688-6.726562-6.953126-8.085937-3.519531-1.34375-7.46875-.832032-10.566406 1.367187-1.097656.773438-2.511718.96875-3.75.480469l-39.242187-15.035156zm0 0" fill="#63312d"/><path d="m41.742188 361.25c-4.398438 0-8-3.597656-8-8v-5.535156c0-4.398438 3.601562-8 8-8h.800781c4.402343 0 8 3.601562 8 8v5.535156c0 4.402344-3.597657 8-8 8zm0 0" fill="#f8f3f3"/><path d="m41.742188 145.171875c-4.398438 0-8-3.601563-8-8v-7.984375c0-4.398438 3.601562-8 8-8h.800781c4.402343 0 8 3.601562 8 8v7.992188c0 4.398437-3.597657 8-8 8h-.800781zm0 0" fill="#f8f3f3"/><path d="m42.535156 365.25h-.800781c-6.613281 0-12-5.382812-12-12v-5.535156c0-6.617188 5.386719-12 12-12 7.417969 0 12.800781 5.382812 12.800781 12v5.535156c0 6.617188-5.382812 12-12 12zm0-21.535156c-3 0-4.800781 1.792968-4.800781 4v5.535156c0 2.210938 1.792969 4 4 4h.800781c2.207032 0 4-1.789062 4-4v-5.535156c0-2.207032-1.792968-4-4-4zm0 0" fill="#63312d"/><path d="m42.535156 149.171875h-.800781c-6.613281 0-12-5.382813-12-12v-7.992187c0-6.617188 5.386719-12 12-12 7.417969 0 12.800781 5.382812 12.800781 12v7.992187c0 6.625-5.382812 12-12 12zm0-23.992187c-3 0-4.800781 1.792968-4.800781 4v7.992187c0 2.207031 1.792969 4 4 4h.800781c2.207032 0 4-1.792969 4-4v-7.992187c0-2.199219-1.792968-4-4-4zm0 0" fill="#63312d"/><path d="m369.574219 395.066406-6.613281-4.496094 29.351562-43.261718c.742188-1.097656 1.984375-1.753906 3.3125-1.753906s2.566406.664062 3.3125 1.761718l29.261719 43.261719-6.625 4.488281-25.957031-38.375zm0 0" fill="#63312d"/><path d="m365.617188 403.066406c-4.402344 0-8-3.597656-8-8v-5.527344c0-4.398437 3.597656-8 8-8h.796874c4.402344 0 8 3.601563 8 8v5.527344c0 4.402344-3.597656 8-8 8zm0 0" fill="#f8f3f3"/><path d="m366.414062 407.066406h-.796874c-6.617188 0-12-5.382812-12-12v-5.527344c0-6.617187 5.382812-12 12-12 7.414062 0 12.796874 5.382813 12.796874 12v5.527344c0 6.617188-5.382812 12-12 12zm0-21.535156c-3 0-4.796874 1.792969-4.796874 4v5.527344c0 2.207031 1.789062 4 4 4h.796874c2.210938 0 4-1.792969 4-4v-5.527344c0-2.199219-1.796874-4-4-4zm0 0" fill="#63312d"/><path d="m424.527344 403.066406c-4.398438 0-8-3.597656-8-8v-5.527344c0-4.398437 3.601562-8 8-8h.800781c4.398437 0 8 3.601563 8 8v5.527344c0 4.402344-3.601563 8-8 8zm0 0" fill="#f8f3f3"/><path d="m425.328125 407.066406h-.800781c-6.617188 0-12-5.382812-12-12v-5.527344c0-6.617187 5.382812-12 12-12 7.417968 0 12.800781 5.382813 12.800781 12v5.527344c0 6.617188-5.382813 12-12 12zm0-21.535156c-3 0-4.800781 1.792969-4.800781 4v5.527344c0 2.207031 1.792968 4 4 4h.800781c2.207031 0 4-1.792969 4-4v-5.527344c0-2.199219-1.792969-4-4-4zm0 0" fill="#63312d"/><path d="m391.695312 117.578125h8v230.289063h-8zm0 0" fill="#63312d"/><path d="m395.351562 361.25c-4.398437 0-8-3.597656-8-8v-10.789062c0-4.402344 3.601563-8 8-8h.800782c4.398437 0 8 3.597656 8 8v10.789062c0 4.402344-3.601563 8-8 8zm0 0" fill="#f8f3f3"/><path d="m395.351562 288.683594c-4.398437 0-8-3.601563-8-8v-13.847656c0-4.402344 3.601563-8 8-8h.800782c4.398437 0 8 3.597656 8 8v13.847656c0 4.398437-3.601563 8-8 8zm0 0" fill="#f8f3f3"/><path d="m396.144531 365.25h-.800781c-6.617188 0-12-5.382812-12-12v-10.789062c0-6.617188 5.382812-12 12-12 7.417969 0 12.800781 5.382812 12.800781 12v10.789062c0 6.617188-5.375 12-12 12zm0-26.789062c-3 0-4.800781 1.789062-4.800781 4v10.789062c0 2.210938 1.792969 4 4 4h.800781c2.207031 0 4-1.789062 4-4v-10.789062c0-2.210938-1.792969-4-4-4zm0 0" fill="#63312d"/><path d="m396.144531 292.683594h-.800781c-6.617188 0-12-5.382813-12-12v-13.847656c0-6.617188 5.382812-12 12-12 7.417969 0 12.800781 5.382812 12.800781 12v13.847656c0 6.625-5.375 12-12 12zm0-29.847656c-3 0-4.800781 1.792968-4.800781 4v13.847656c0 2.207031 1.792969 4 4 4h.800781c2.207031 0 4-1.792969 4-4v-13.847656c0-2.199219-1.792969-4-4-4zm0 0" fill="#63312d"/><path d="m454.472656 136.78125h-46.007812c-2.738282-4.128906-7.402344-6.859375-12.722656-6.859375-5.308594 0-9.980469 2.730469-12.710938 6.859375h-46.015625v16.796875h46.015625c2.730469 4.128906 7.402344 6.847656 12.710938 6.847656 5.320312 0 9.984374-2.726562 12.722656-6.847656h46.007812zm0 0" fill="#f9dd9d"/><path d="m395.753906 164.425781c-5.722656 0-11.074218-2.527343-14.707031-6.847656h-44.015625c-2.207031 0-4-1.789063-4-4v-16.796875c0-2.210938 1.792969-4 4-4h44.015625c3.640625-4.328125 8.992187-6.851562 14.707031-6.851562 5.710938 0 11.070313 2.53125 14.710938 6.851562h44.007812c2.207032 0 4 1.789062 4 4v16.796875c0 2.210937-1.792968 4-4 4h-44.007812c-3.648438 4.320313-9 6.847656-14.710938 6.847656zm-54.730468-14.855469h42.015624c1.34375 0 2.601563.671876 3.335938 1.792969 4.183594 6.335938 14.5625 6.335938 18.761719 0 .742187-1.121093 2-1.792969 3.335937-1.792969h42.007813v-8.800781h-42.007813c-1.335937 0-2.59375-.671875-3.335937-1.789062-4.191407-6.34375-14.570313-6.335938-18.761719 0-.734375 1.117187-1.992188 1.789062-3.335938 1.789062h-42.015624zm0 0" fill="#63312d"/></svg>