
<svg height="512pt" viewBox="0 0 512 512" width="512pt" xmlns="http://www.w3.org/2000/svg"><path d="m256 7.5c-137.242188 0-248.5 111.257812-248.5 248.5s111.257812 248.5 248.5 248.5 248.5-111.257812 248.5-248.5-111.257812-248.5-248.5-248.5zm0 0" fill="#395f80"/><path d="m256 7.5c-8.5625 0-17.023438.433594-25.359375 1.277344 125.328125 12.707031 223.140625 118.542968 223.140625 247.222656s-97.8125 234.515625-223.140625 247.222656c8.339844.84375 16.796875 1.277344 25.359375 1.277344 137.242188 0 248.5-111.257812 248.5-248.5s-111.257812-248.5-248.5-248.5zm0 0" fill="#1d4859"/><path d="m256 456.5c-110.734375 0-200.5-89.765625-200.5-200.5s89.765625-200.5 200.5-200.5 200.5 89.765625 200.5 200.5-89.765625 200.5-200.5 200.5zm0 0" fill="#e1effb"/><path d="m256 55.5c-8.523438 0-16.921875.535156-25.167969 1.570312 98.855469 12.378907 175.335938 96.71875 175.335938 198.929688s-76.480469 186.550781-175.332031 198.929688c8.242187 1.035156 16.640624 1.570312 25.164062 1.570312 110.734375 0 200.5-89.765625 200.5-200.5s-89.765625-200.5-200.5-200.5zm0 0" fill="#baced8"/><path d="m282.914062 145.09375c0 12.597656-11.832031 24.050781-26.722656 24.050781-15.273437 0-27.105468-11.453125-27.105468-24.050781 0-12.980469 11.832031-24.054688 27.105468-24.054688 14.890625 0 26.722656 11.074219 26.722656 24.054688zm-1.90625 79.792969v150.417969c0 7.636718-11.074218 15.65625-24.816406 15.65625-14.125 0-24.433594-8.019532-24.433594-15.65625v-150.417969c0-9.164063 10.308594-15.273438 24.433594-15.273438 13.742188 0 24.816406 6.109375 24.816406 15.273438zm0 0" fill="#f9644b"/><path d="m437.019531 74.980469c-48.351562-48.351563-112.640625-74.980469-181.019531-74.980469s-132.667969 26.628906-181.019531 74.980469c-48.351563 48.351562-74.980469 112.640625-74.980469 181.019531s26.628906 132.667969 74.980469 181.019531c48.351562 48.351563 112.640625 74.980469 181.019531 74.980469s132.667969-26.628906 181.019531-74.980469c48.351563-48.351562 74.980469-112.640625 74.980469-181.019531s-26.628906-132.667969-74.980469-181.019531zm-10.605469 351.433593c-45.519531 45.519532-106.039062 70.585938-170.414062 70.585938s-124.894531-25.066406-170.414062-70.585938c-45.519532-45.519531-70.585938-106.039062-70.585938-170.414062s25.066406-124.894531 70.585938-170.414062c45.519531-45.519532 106.039062-70.585938 170.414062-70.585938s124.894531 25.066406 170.414062 70.585938c45.519532 45.519531 70.585938 106.039062 70.585938 170.414062s-25.066406 124.894531-70.585938 170.414062zm0 0"/><path d="m55.605469 246.023438c4.125.355468 7.757812-2.699219 8.113281-6.828126 4.132812-47.933593 25.96875-92.367187 61.484375-125.117187 35.722656-32.9375 82.171875-51.078125 130.796875-51.078125s95.074219 18.140625 130.796875 51.078125c35.515625 32.75 57.351563 77.183594 61.480469 125.117187.339844 3.90625 3.613281 6.855469 7.464844 6.855469.214843 0 .433593-.007812.652343-.027343 4.128907-.355469 7.183594-3.988282 6.828125-8.117188-4.453125-51.671875-27.984375-99.5625-66.257812-134.855469-38.5-35.5-88.5625-55.050781-140.964844-55.050781s-102.464844 19.550781-140.964844 55.050781c-38.273437 35.292969-61.804687 83.183594-66.257812 134.855469-.355469 4.128906 2.699218 7.761719 6.828125 8.117188zm0 0"/><path d="m456.394531 265.976562c-4.117187-.347656-7.757812 2.703126-8.113281 6.828126-4.132812 47.933593-25.96875 92.367187-61.484375 125.117187-35.722656 32.9375-82.171875 51.078125-130.796875 51.078125s-95.074219-18.140625-130.796875-51.078125c-35.515625-32.75-57.351563-77.183594-61.480469-125.117187-.359375-4.125-3.980468-7.175782-8.117187-6.828126-4.128907.355469-7.183594 3.988282-6.828125 8.117188 4.453125 51.671875 27.984375 99.5625 66.257812 134.855469 38.5 35.5 88.5625 55.050781 140.964844 55.050781s102.464844-19.550781 140.964844-55.050781c38.273437-35.292969 61.804687-83.183594 66.257812-134.855469.355469-4.128906-2.699218-7.761719-6.828125-8.117188zm0 0"/><path d="m224.257812 224.886719v150.417969c0 12.769531 14.324219 23.15625 31.933594 23.15625 17.515625 0 32.316406-10.605469 32.316406-23.15625v-150.417969c0-13.195313-13.59375-22.773438-32.316406-22.773438-18.800781 0-31.933594 9.363281-31.933594 22.773438zm49.25 0v150.417969c0 1.96875-6.332031 8.15625-17.316406 8.15625-11 0-16.933594-5.789063-16.933594-8.15625v-150.417969c0-4.359375 7.4375-7.773438 16.933594-7.773438 10.355469 0 17.316406 4.019531 17.316406 7.773438zm0 0"/><path d="m256.191406 113.539062c-19.082031 0-34.605468 14.15625-34.605468 31.554688 0 17.101562 15.847656 31.550781 34.605468 31.550781 18.550782 0 34.222656-14.449219 34.222656-31.550781 0-17.398438-15.351562-31.554688-34.222656-31.554688zm0 48.105469c-11.730468 0-19.605468-8.558593-19.605468-16.550781 0-9.128906 8.792968-16.554688 19.605468-16.554688 10.421875 0 19.222656 7.582032 19.222656 16.554688 0 8.816406-8.980468 16.550781-19.222656 16.550781zm0 0"/></svg>