<svg xmlns="http://www.w3.org/2000/svg" viewBox="0 0 48 48">
  <g id="icon-js" fill="none" fill-rule="evenodd" stroke-linecap="square">
    <g id="Group" stroke="#F6F4F2" transform="translate(10 12)">
      <path id="Oval" stroke-width="1.5" d="M12.5 0a4 4 0 0 0-4 4v4a4 4 0 0 1-4 4 4 4 0 0 1 4 4v4a4 4 0 0 0 4 4"/>
      <path id="Oval-Copy" stroke-width="1.5" d="M16 0a4 4 0 0 1 4 4v4a4 4 0 0 0 4 4 4 4 0 0 0-4 4v4a4 4 0 0 1-4 4"/>
      <path id="Path-10" stroke-width="3" d="M5 0a5 5 0 0 0-5 5v14a5 5 0 0 0 5 5"/>
      <path id="Path-10-Copy" stroke-width="3" d="M23 0a5 5 0 0 1 5 5v14a5 5 0 0 1-5 5"/>
    </g>
  </g>
</svg>
