<svg xmlns="http://www.w3.org/2000/svg" viewBox="0 0 240 136">
  <g id="icon-download" fill="none" fill-rule="evenodd">
    <polygon stroke="currentColor" stroke-width="2" points="1 1 239 1 239 135 1 135"/>
    <polygon stroke="currentColor" points="48 32 192 32 192 40 48 40"/>
    <polygon stroke="currentColor" points="48 56 192 56 192 64 48 64"/>
    <path stroke="currentColor" d="M0 16h240"/>
    <polygon stroke="currentColor" points="48 40 192 40 192 48 48 48"/>
    <polygon stroke="currentColor" points="48 64 192 64 192 72 48 72"/>
    <polygon stroke="currentColor" points="48 48 192 48 192 56 48 56"/>
    <polygon stroke="currentColor" points="48 72 192 72 192 80 48 80"/>
    <polygon stroke="currentColor" points="48 96 192 96 192 135 48 135"/>
  </g>
</svg>
