<svg xmlns="http://www.w3.org/2000/svg" viewBox="0 0 48 48">
  <g id="icon-twitter" fill="none" fill-rule="evenodd">
    <path id="Shape" fill="#F6F4F2" fill-rule="nonzero" d="M18.063 37.002c12.076 0 18.68-10.005 18.68-18.68 0-.285 0-.567-.019-.85A13.358 13.358 0 0 0 40 14.076c-1.198.53-2.47.879-3.77 1.032a6.588 6.588 0 0 0 2.886-3.63 13.157 13.157 0 0 1-4.17 1.593 6.572 6.572 0 0 0-11.188 5.988 18.64 18.64 0 0 1-13.53-6.86 6.57 6.57 0 0 0 2.032 8.764 6.516 6.516 0 0 1-2.98-.822v.084a6.568 6.568 0 0 0 5.267 6.435 6.555 6.555 0 0 1-2.964.113 6.573 6.573 0 0 0 6.133 4.56A13.174 13.174 0 0 1 8 34.051a18.587 18.587 0 0 0 10.063 2.945"/>
  </g>
</svg>
