<svg xmlns="http://www.w3.org/2000/svg" viewBox="0 0 48 48">
  <g id="icon-easing-cubic" fill="none" fill-rule="evenodd">
    <g id="Group-11" stroke="#F6F4F2" transform="translate(8 8)">
      <polyline id="Rectangle-41-Copy" points="32 0 32 32 0 32" opacity=".4"/>
      <polyline id="Shape" fill-rule="nonzero" stroke-width="3" points=".516 31.484 .826 31.484 1.135 31.484 1.445 31.484 1.755 31.484 2.065 31.484 2.374 31.484 2.684 31.484 2.994 31.484 3.303 31.484 3.613 31.484 3.923 31.432 4.232 31.432 4.542 31.432 4.852 31.381 5.161 31.381 5.471 31.329 5.781 31.277 6.09 31.226 6.4 31.174 6.71 31.071 7.019 31.019 7.329 30.916 7.639 30.813 7.948 30.658 8.258 30.503 8.568 30.348 8.877 30.142 9.187 29.935 9.497 29.729 9.806 29.471 10.116 29.213 10.426 28.903 10.735 28.542 11.045 28.181 11.355 27.768 11.665 27.303 11.974 26.839 12.284 26.323 12.594 25.755 12.903 25.135 13.213 24.465 13.523 23.794 13.832 23.019 14.142 22.194 14.452 21.316 14.761 20.387 15.071 19.406 15.381 18.323 15.69 17.187 16 16 16.31 14.813 16.619 13.677 16.929 12.594 17.239 11.613 17.548 10.684 17.858 9.806 18.168 8.981 18.477 8.206 18.787 7.535 19.097 6.865 19.406 6.245 19.716 5.677 20.026 5.161 20.335 4.697 20.645 4.232 20.955 3.819 21.265 3.458 21.574 3.097 21.884 2.787 22.194 2.529 22.503 2.271 22.813 2.065 23.123 1.858 23.432 1.652 23.742 1.497 24.052 1.342 24.361 1.187 24.671 1.084 24.981 .981 25.29 .929 25.6 .826 25.91 .774 26.219 .723 26.529 .671 26.839 .619 27.148 .619 27.458 .568 27.768 .568 28.077 .568 28.387 .516 28.697 .516 29.006 .516 29.316 .516 29.626 .516 29.935 .516 30.245 .516 30.555 .516 30.865 .516 31.174 .516 31.484 .516"/>
    </g>
  </g>
</svg>
