<svg xmlns="http://www.w3.org/2000/svg" viewBox="0 0 48 48">
  <g id="icon-codepen" fill="none" fill-rule="evenodd">
    <g id="Group-4" fill="#F6F4F2" transform="translate(8 8)">
      <path id="Fill-1" d="M16 29.372C8.627 29.372 2.628 23.373 2.628 16S8.627 2.628 16 2.628 29.372 8.627 29.372 16 23.373 29.372 16 29.372M16 0C7.163 0 0 7.163 0 16s7.163 16 16 16 16-7.163 16-16S24.837 0 16 0"/>
      <path id="Fill-3" d="M24.112 17.409l-2.106-1.41 2.106-1.408v2.818zm-7.27 5.972v-3.927l3.65-2.441 2.946 1.97-6.596 4.398zM16 17.99L13.022 16 16 14.008 18.978 16 16 17.992zm-.842 5.39l-6.596-4.398 2.946-1.97 3.65 2.441v3.927zm-7.27-8.79L9.994 16l-2.106 1.409V14.59zm7.27-5.972v3.927l-3.65 2.441-2.946-1.97 6.596-4.398zm1.684 0l6.596 4.397-2.946 1.971-3.65-2.441V8.619zm8.946 4.286c-.001-.012-.005-.024-.007-.036a.824.824 0 0 0-.014-.07l-.013-.041-.022-.062a.815.815 0 0 0-.047-.097l-.024-.039a.75.75 0 0 0-.107-.133l-.033-.033a.962.962 0 0 0-.048-.04l-.038-.029-.014-.01-8.954-5.97a.842.842 0 0 0-.934 0l-8.954 5.97-.014.01-.038.029a.763.763 0 0 0-.047.04c-.012.01-.023.022-.034.033a.73.73 0 0 0-.13.172.784.784 0 0 0-.03.056l-.018.041-.022.062-.013.04c-.006.023-.01.047-.015.07l-.006.037a.81.81 0 0 0-.008.11v5.97c0 .037.003.073.008.11l.006.036c.005.024.009.047.015.07l.013.041.022.062.019.04a.997.997 0 0 0 .053.096.77.77 0 0 0 .106.133l.034.032a.72.72 0 0 0 .085.07l.014.01 8.954 5.97a.842.842 0 0 0 .934 0l8.954-5.97.014-.01a.939.939 0 0 0 .086-.07l.033-.032a.807.807 0 0 0 .042-.046l.029-.036a.75.75 0 0 0 .036-.051l.024-.04a.757.757 0 0 0 .028-.055l.019-.041.022-.062c.004-.013.01-.027.013-.04a.83.83 0 0 0 .014-.071c.002-.012.006-.024.007-.036a.871.871 0 0 0 .008-.11v-5.97a.856.856 0 0 0-.008-.11z"/>
    </g>
  </g>
</svg>
