<?xml version="1.0" encoding="iso-8859-1"?>
<!-- Generator: Adobe Illustrator 19.0.0, SVG Export Plug-In . SVG Version: 6.00 Build 0)  -->
<svg version="1.1" id="Capa_1" xmlns="http://www.w3.org/2000/svg" xmlns:xlink="http://www.w3.org/1999/xlink" x="0px" y="0px"
	 viewBox="0 0 512 512" style="enable-background:new 0 0 512 512;" xml:space="preserve">
<circle style="fill:#FF525D;" cx="256" cy="256" r="256"/>
<path style="fill:#FFDC8D;" d="M456.234,415.504c-20.522,25.736-45.902,47.428-74.762,63.687
	c-18.725,10.553-38.902,18.808-60.155,24.398h-10.7c-21.337,0-42.339-5.141-61.252-14.994l-111.731-58.264l-24.607-13.531
	l-26.823-14.754l135.314-6.269c15.287,0,11.494-37.491,11.494-52.767l73.153-126.872l90.885,90.885
	c12.413,12.413,22.121,27.052,28.714,42.977c6.593,15.924,10.083,33.134,10.083,50.698L456.234,415.504z"/>
<g>
	<path style="fill:#F2CE86;" d="M381.471,479.19c-18.725,10.553-38.902,18.808-60.155,24.398h-10.7
		c-21.337,0-42.339-5.141-61.252-14.994l-111.731-58.264l-24.607-13.531l156.682,11.818c0,0,30.313,50.573,111.741,50.573
		C381.461,479.19,381.461,479.19,381.471,479.19z"/>
	<path style="fill:#F2CE86;" d="M86.727,165.064H71.428c-0.757-0.047-1.513-0.084-2.258-0.084c-8.023,0-16.033,3.063-22.158,9.188
		c-12.238,12.237-12.238,32.077,0,44.315l17.246,17.258c-6.749,0.793-13.283,3.771-18.459,8.947
		c-12.238,12.238-12.238,32.09,0,44.328l9.055,9.055c2.619,2.619,5.585,4.684,8.768,6.173c0.208-0.147,0.425-0.274,0.636-0.414
		v0.689c-0.211-0.094-0.427-0.176-0.636-0.275c-1.526,1.032-2.979,2.234-4.335,3.591c-12.238,12.249-12.238,32.09,0,44.328
		l9.055,9.056c0.985,0.973,2.018,1.872,3.087,2.69v-24.035h15.298V165.064z"/>
</g>
<path style="fill:#5C5E70;" d="M278.504,0.001H99.105c-15.287,0-27.681,12.379-27.681,27.667v373.293
	c0,15.273,12.395,27.653,27.681,27.653h170.604c-14.837-18.379-18.888-42.559-12.181-64.129l37.562-106.122l11.081,11.081V27.668
	C306.17,12.38,293.791,0.001,278.504,0.001"/>
<path style="fill:#F9EED7;" d="M214.047,226.367c-6.781,6.771-10.167,15.632-10.167,24.513c0,8.882,3.385,17.753,10.167,24.534
	l39.936,39.936c10.491,10.491,13.563,26.488,7.178,39.863c-1.442,3.009-2.654,6.123-3.636,9.268H82.516v-307.9H295.1v201.791
	l-32.005-32.005C249.553,212.814,227.589,212.814,214.047,226.367z"/>
<path style="fill:#494B5B;" d="M210.704,397.396c0,8.129-4.42,15.224-11.003,18.986c1.849-3.208,2.905-6.917,2.905-10.888
	c0-12.1-9.801-21.911-21.901-21.911c-3.971,0-7.69,1.055-10.898,2.915c3.762-6.583,10.867-11.013,18.996-11.013
	C200.903,375.484,210.704,385.296,210.704,397.396z"/>
<path style="fill:#F2CE86;" d="M347.529,294.198l-27.44-27.44v-36.697l-13.919-13.92v53.299l33.058,33.058
	c3.698,3.697,10.02,1.079,10.02-4.15C349.248,296.792,348.629,295.299,347.529,294.198z"/>
<path style="fill:#FFFFFF;" d="M260.776,273.413v-13.538h13.537v13.538H260.776 M209.749,249.459v-13.537h13.537v13.537v13.538
	h-13.537V249.459 M247.239,249.459v-13.537h13.538v13.537H247.239 M241.886,216.36v3.009h-13.537v-1.633
	c-5.235,1.609-10.164,4.485-14.307,8.627c-1.748,1.748-3.272,3.636-4.568,5.628v3.659h-2.076c-2.344,4.79-3.515,10.009-3.515,15.237
	c0,8.875,3.387,17.751,10.16,24.525l39.944,39.943c10.485,10.484,13.559,26.482,7.17,39.861c-1.442,3.015-2.654,6.125-3.627,9.271
	h-30.649v0.001h30.646c-6.705,21.57-2.654,45.749,12.181,64.129h5.878c16.812,0,30.456-13.566,30.582-30.348V269.443l-11.08-11.077
	l-20.777-20.779v11.875h-13.537v-13.537h11.875l-9.561-9.561C257.167,220.433,249.627,217.098,241.886,216.36 M295.09,56.577
	H179.866v0.003H295.09V56.577"/>
<g>
	<rect x="128.345" y="127.446" style="fill:#5C5E70;" width="13.537" height="13.538"/>
	<rect x="128.345" y="234.82" style="fill:#5C5E70;" width="13.537" height="13.537"/>
	<path style="fill:#5C5E70;" d="M210.662,102.385v63.652h63.651v-63.652H210.662z M258.7,150.424h-32.426v-32.426H258.7V150.424z"/>
	<rect x="235.719" y="127.446" style="fill:#5C5E70;" width="13.538" height="13.537"/>
	<polygon style="fill:#5C5E70;" points="195.567,208.204 195.567,194.668 182.031,194.668 182.031,208.204 182.031,221.741 
		195.567,221.741 195.567,222.112 195.567,235.649 209.105,235.649 209.105,222.112 209.105,208.574 195.567,208.574 	"/>
	<polygon style="fill:#5C5E70;" points="247.239,177.445 247.239,190.982 260.776,190.982 274.313,190.982 274.313,177.445 
		260.776,177.445 	"/>
	<rect x="182.397" y="235.917" style="fill:#5C5E70;" width="13.537" height="13.537"/>
	<rect x="168.49" y="181.133" style="fill:#5C5E70;" width="13.538" height="13.538"/>
	<rect x="260.493" y="206.681" style="fill:#5C5E70;" width="13.538" height="13.538"/>
	<polygon style="fill:#5C5E70;" points="228.35,178.757 214.812,178.757 201.276,178.757 201.276,192.294 214.812,192.294 
		214.812,205.831 228.35,205.831 228.35,219.368 241.886,219.368 241.886,205.831 241.886,192.294 228.35,192.294 	"/>
	<path style="fill:#5C5E70;" d="M134.511,181.13v13.538h13.537V181.13v-15.094h18.889v-63.651h-63.651v63.652h31.226V181.13z
		 M118.898,117.997h32.426v32.426h-32.426V117.997z"/>
	<path style="fill:#5C5E70;" d="M116.823,181.13h-13.538v28.631v5.77v57.882h63.651v-63.652h-50.114V181.13H116.823z
		 M118.898,225.373h32.426v32.426h-32.426V225.373z"/>
	<polygon style="fill:#5C5E70;" points="195.567,154.516 195.567,140.979 195.567,127.442 182.031,127.442 182.031,140.979 
		182.031,154.516 182.031,168.053 195.567,168.053 	"/>
</g>
<path style="fill:#FFDC8D;" d="M295.097,258.368l-32.005-32.006c-13.535-13.546-35.5-13.546-49.048,0
	c-6.773,6.774-10.161,15.637-10.161,24.524c0,8.875,3.387,17.75,10.161,24.524l39.944,39.944
	c10.485,10.484,13.559,26.481,7.17,39.86c-1.441,3.015-2.654,6.125-3.627,9.271c-6.713,21.57-2.654,45.745,12.178,64.132
	l13.457,14.703c15.288,0,40.751-19.205,40.751-34.482L306.17,269.44L295.097,258.368z"/>
<path style="fill:#F9EED7;" d="M255.284,236.829c-8.17-8.17-21.416-8.17-29.586,0c-8.17,8.17-8.17,21.416,0,29.586
	s15.225,1.978,23.395-6.192C257.262,252.054,263.454,244.999,255.284,236.829z"/>
<circle style="fill:#FCF8F2;" cx="247.296" cy="244.088" r="4.877"/>
<g>
</g>
<g>
</g>
<g>
</g>
<g>
</g>
<g>
</g>
<g>
</g>
<g>
</g>
<g>
</g>
<g>
</g>
<g>
</g>
<g>
</g>
<g>
</g>
<g>
</g>
<g>
</g>
<g>
</g>
</svg>
