<svg xmlns="http://www.w3.org/2000/svg" xmlns:xlink="http://www.w3.org/1999/xlink" width="60" height="60" version="1.1" viewBox="0 0 7097 4125" xml:space="preserve" style="shape-rendering:geometricPrecision;text-rendering:geometricPrecision;image-rendering:optimizeQuality;fill-rule:evenodd;clip-rule:evenodd"><defs><style type="text/css">.fil0,.fil1{fill-rule:nonzero}.fil1{fill:#282828}.fil0{fill:#fefefe}</style></defs><g id="Layer_x0020_1"><metadata id="CorelCorpID_0Corel-Layer"/><path d="M3451 -11l3459 0c0,1151 0,2303 0,3454 -1153,0 -2306,0 -3459,0l0 -3454z" class="fil0"/><path d="M0 -11l3455 0c0,1151 0,2303 0,3454 -1152,0 -2303,0 -3455,0l0 -3454z" class="fil1"/><path d="M1664 182c155,-17 312,-9 464,22 277,55 538,189 744,382 115,107 215,231 292,368 -286,163 -573,326 -858,491 -56,-98 -142,-179 -245,-227 -95,-45 -202,-63 -306,-49 -125,15 -243,75 -330,165 -88,90 -143,211 -153,336 -19,195 76,396 239,505 142,100 333,125 496,66 126,-43 233,-135 300,-250 285,165 572,327 858,492 -101,180 -241,337 -404,463 -170,130 -368,225 -576,274 -239,57 -493,56 -732,-3 -203,-50 -396,-143 -563,-270 -180,-137 -329,-314 -434,-514 -171,-324 -219,-711 -135,-1068 66,-284 215,-548 423,-751 246,-243 576,-399 920,-433z" class="fil0"/><path d="M3703 237c329,0 657,0 986,0 330,411 658,824 988,1235 1,-412 0,-823 0,-1235 329,0 657,0 986,0 0,987 0,1974 0,2960 -10,0 -20,0 -29,0 -85,-1 -170,1 -255,0 -150,1 -300,0 -450,0 -85,0 -170,0 -254,0 -328,-411 -657,-821 -985,-1232 -1,411 0,822 -1,1233 -51,1 -102,0 -153,0 -7,0 -15,0 -22,0 -266,1 -531,0 -797,0 -4,0 -11,0 -15,0 0,-987 0,-1974 0,-2960z" class="fil1"/><path d="M207 3725c54,-38 125,-50 188,-31 54,15 100,53 130,101 -38,22 -75,44 -114,65 -20,-28 -53,-47 -88,-42 -35,3 -65,30 -74,63 -17,51 26,112 81,111 33,3 63,-17 81,-43 38,22 76,44 114,66 -38,62 -104,104 -177,110l-28 0c-79,-6 -154,-56 -187,-129 -19,-39 -22,-84 -17,-127 9,-58 43,-111 91,-145z" class="fil1"/><path d="M2152 3825c36,-1 72,25 80,62 15,52 -35,107 -88,98 -36,-4 -66,-35 -69,-71 -5,-35 19,-72 52,-84 8,-3 16,-5 25,-5zm-6 -139c-56,0 -111,26 -150,66 -39,40 -61,95 -62,150 0,51 17,102 50,141 36,45 90,73 147,81l46 0c57,-8 113,-36 149,-82 37,-45 54,-105 47,-162 -9,-107 -107,-198 -215,-195 -4,0 -8,0 -11,0z" class="fil1"/><path d="M2630 3825c41,0 81,36 79,78 5,50 -49,94 -97,80 -42,-8 -72,-56 -60,-97 7,-29 31,-52 60,-59 6,-1 12,-2 17,-2zm-2 -139c-13,0 -26,1 -39,3 -56,10 -106,43 -139,89 -35,49 -48,114 -35,173 12,56 46,106 94,137 29,20 64,30 99,36l44 0c60,-8 118,-39 154,-88 39,-51 52,-120 38,-183 -14,-58 -52,-110 -104,-139 -34,-20 -73,-29 -112,-28z" class="fil1"/><path d="M5677 3825c39,-1 78,27 83,67 11,51 -39,101 -90,92 -39,-5 -71,-42 -69,-81 -1,-31 21,-60 49,-72 8,-4 17,-6 26,-6zm4 -140c-83,0 -165,50 -199,127 -31,66 -26,149 14,211 36,58 100,95 167,102l39 0c51,-7 100,-28 136,-65 34,-35 56,-81 62,-129 7,-50 -6,-102 -33,-144 -35,-55 -95,-93 -160,-100 -9,-1 -17,-2 -26,-2z" class="fil1"/><path d="M770 3810c14,43 27,87 38,131 -25,0 -50,0 -75,0 12,-44 25,-87 37,-131zm106 -116c-70,0 -141,0 -211,0 -43,141 -87,281 -132,422 50,0 100,0 150,0 7,-24 13,-47 20,-71 45,0 90,-2 135,1 9,23 13,47 21,70 49,0 99,0 148,0 -44,-140 -88,-281 -132,-422z" class="fil1"/><path d="M1235 3817c15,0 30,0 45,0 19,-1 38,18 35,37 0,18 -17,34 -35,34 -30,0 -60,0 -90,0 0,-24 0,-47 0,-71 15,0 30,0 45,0zm-184 -123l0 422c47,0 93,0 140,0 0,-41 0,-82 0,-123 15,0 30,0 45,0 21,41 42,82 63,123 52,0 104,0 155,0 -26,-47 -55,-92 -81,-138 6,-6 14,-10 21,-16 40,-28 65,-76 61,-125 0,-76 -68,-140 -143,-143 -87,-2 -174,0 -261,-1z" class="fil1"/><path d="M1493 3817c1,-41 0,-82 0,-123 141,0 282,0 422,0 0,41 0,82 0,123 -44,0 -89,0 -133,0 0,100 0,199 0,299 -52,0 -105,0 -157,0 0,-100 0,-199 0,-299 -44,0 -88,0 -132,0z" class="fil1"/><path d="M2893 3694c47,0 93,0 140,0 48,58 94,118 142,176 1,-58 0,-117 1,-175 47,0 93,0 140,0 0,141 -1,281 0,422 -47,0 -93,0 -140,0 -48,-58 -94,-118 -142,-176 -2,58 -1,117 -1,176 -47,0 -93,0 -139,0 0,-141 0,-281 0,-422z" class="fil1"/><path d="M3600 3694c47,0 94,0 141,0 47,59 93,118 141,176 1,-59 0,-117 0,-176 46,0 92,0 139,0 0,141 0,281 0,422 -47,0 -93,0 -139,0 -48,-58 -94,-118 -142,-176 0,59 0,118 0,176 -46,0 -93,0 -139,0 0,-141 0,-281 0,-422z" class="fil1"/><path d="M4082 3694c123,1 246,0 368,0 0,30 0,59 0,89 0,11 -1,22 -2,34 -76,0 -152,0 -228,0 0,13 1,25 2,38 64,0 128,0 192,0 0,35 0,69 0,104 -64,0 -129,0 -193,0 0,15 0,29 0,44 76,1 153,0 229,0 0,17 0,34 0,51 0,20 0,41 0,61 -123,0 -246,0 -368,0 0,-141 0,-281 0,-422z" class="fil1"/><path d="M4498 3694c141,0 282,0 423,0 0,41 0,82 -1,123 -44,0 -88,0 -132,0 0,100 0,199 0,299 -52,0 -105,0 -157,0 0,-100 0,-199 0,-299 -44,-1 -89,2 -133,-1 0,-40 0,-81 0,-121z" class="fil1"/><path d="M4955 3694c47,0 95,0 142,0 11,62 22,124 36,185 24,-57 47,-113 70,-170 24,56 45,114 71,170 13,-61 23,-123 36,-185 47,0 94,0 141,0 -27,140 -54,281 -80,421 -39,0 -78,0 -117,0 -16,-38 -33,-76 -50,-114 -18,38 -33,76 -51,114 -38,0 -77,0 -115,0 -29,-140 -53,-281 -82,-422z" class="fil1"/><path d="M6084 3817c30,0 60,0 90,0 22,-1 42,27 31,47 -5,13 -18,23 -32,23 -30,1 -60,0 -90,0 0,-24 0,-47 0,-71zm-15 -123c-42,0 -84,0 -126,0 0,141 0,281 0,422 47,0 94,0 141,0 0,-41 0,-83 0,-124 15,0 30,0 45,0 20,42 41,82 61,124 52,0 105,0 157,0 -28,-47 -57,-93 -83,-140 44,-23 75,-67 83,-116 0,-11 0,-22 0,-33 -5,-30 -17,-59 -38,-82 -29,-32 -72,-51 -115,-50 -42,-1 -84,-1 -126,-1z" class="fil1"/><path d="M6393 4116c0,-141 0,-281 0,-422 47,0 94,0 141,0 0,45 -1,91 0,136 36,-45 69,-92 105,-137 60,1 120,0 180,0 -55,67 -108,134 -163,201 52,75 110,147 163,221 -60,0 -120,0 -180,0 -35,-52 -70,-105 -105,-157 -2,52 0,105 -1,157 -47,0 -94,0 -141,0z" class="fil1"/><path d="M6885 4003c31,0 62,0 93,0 0,6 0,12 0,18 -11,0 -23,0 -34,0 -4,32 -2,64 -2,96 -8,0 -15,0 -22,0 0,-32 0,-64 0,-96 -11,0 -23,0 -34,0 0,-6 0,-12 -1,-18z" class="fil1"/><path d="M6993 4003c11,0 23,0 34,0 8,30 14,61 23,91 7,-30 13,-61 21,-91 11,0 23,0 34,0l0 114c-5,0 -15,0 -20,0 0,-32 1,-63 -1,-95 -11,31 -16,63 -24,94 -6,0 -17,0 -22,0 -8,-31 -14,-63 -22,-94 -3,31 -1,62 -1,94 -7,0 -14,0 -21,0 0,-38 0,-76 0,-114z" class="fil1"/></g></svg>