<svg xmlns="http://www.w3.org/2000/svg" xmlns:xlink="http://www.w3.org/1999/xlink" width="60" height="60" version="1.1" viewBox="0 0 2917 1889" xml:space="preserve" style="shape-rendering:geometricPrecision;text-rendering:geometricPrecision;image-rendering:optimizeQuality;fill-rule:evenodd;clip-rule:evenodd"><defs><style type="text/css">.fil1{fill:#282828}.fil0{fill:#39478e}.fil3{fill:#fafcfa}.fil2{fill:#fefefe}</style></defs><g id="Layer_x0020_1"><metadata id="CorelCorpID_0Corel-Layer"/><polygon points="1257 -7 1516 400 2568 383 2646 1604 1470 1452 1380 1333 443 1501" class="fil0"/><polygon points="208 387 1265 -11 1540 1103 439 1510" class="fil1"/><polygon points="1507 387 1343 1456 2535 1452 2568 383" class="fil2"/><path d="M1049 1888c50,0 91,-40 91,-89 0,-49 -41,-89 -91,-89 -50,0 -91,40 -91,89 0,49 41,89 91,89l0 0z" class="fil1"/><polygon points="323 1887 387 1887 279 1707 172 1887 236 1887 247 1869 312 1869 323 1887" class="fil1"/><polygon points="748 1704 577 1704 577 1755 627 1755 627 1889 698 1889 698 1755 748 1755" class="fil1"/><path d="M846 1888c50,0 91,-40 91,-89 0,-49 -41,-89 -91,-89 -50,0 -91,40 -91,89 0,49 41,89 91,89l0 0z" class="fil1"/><path d="M126 1818c-7,13 -20,21 -35,21 -22,0 -40,-18 -40,-40 0,-22 18,-40 40,-40 15,0 29,9 35,21l0 0 47 -20 0 0c-15,-30 -46,-51 -82,-51 -50,0 -91,40 -91,89 0,49 41,89 91,89 36,0 68,-21 82,-51l0 0 -47 -20 0 0z" class="fil1"/><polygon points="1328 1705 1328 1885 1217 1821 1217 1887 1152 1887 1152 1707 1263 1771 1263 1705 1328 1705" class="fil1"/><path d="M491 1843l-36 0 0 43 -56 0 0 -179c0,0 56,0 88,0 9,0 16,0 19,0 66,10 60,84 28,107l0 0 45 72 -66 0 -22 -43 0 0z" class="fil1"/><path d="M1009 1800c0,-22 18,-40 40,-40 22,0 40,18 40,40 0,22 -18,40 -40,40 -22,0 -40,-18 -40,-40l0 0z" class="fil2"/><polygon points="250 1826 257 1815 264 1826 250 1826" class="fil2"/><path d="M806 1800c0,-22 18,-40 40,-40 22,0 40,18 40,40 0,22 -18,40 -40,40 -22,0 -40,-18 -40,-40l0 0z" class="fil3"/><path d="M456 1748l0 48c0,0 14,0 21,0 7,0 25,-4 25,-25 0,-21 -20,-23 -25,-23 -6,0 -21,0 -21,0l0 0z" class="fil2"/><path d="M2401 1885c50,0 91,-40 91,-89 0,-49 -41,-89 -91,-89 -50,0 -91,40 -91,89 0,49 41,89 91,89l0 0z" class="fil1"/><polygon points="2073 1704 1903 1704 1903 1755 1953 1755 1953 1889 2024 1889 2024 1755 2073 1755" class="fil1"/><polygon points="1707 1704 1707 1884 1597 1820 1597 1886 1532 1886 1532 1706 1642 1770 1642 1704 1707 1704" class="fil1"/><polygon points="2921 1886 2854 1792 2908 1704 2834 1704 2798 1751 2798 1704 2727 1704 2727 1886 2798 1886 2798 1838 2840 1886 2921 1886" class="fil1"/><polygon points="1748 1707 1748 1882 1877 1882 1877 1842 1808 1842 1808 1825 1877 1825 1877 1774 1808 1774 1808 1755 1877 1755 1877 1707 1748 1707" class="fil1"/><polygon points="2251 1707 2226 1775 2200 1729 2174 1775 2149 1707 2093 1707 2156 1877 2200 1831 2244 1877 2308 1707 2251 1707" class="fil1"/><path d="M2614 1842l-36 0 0 43 -56 0 0 -179c0,0 56,0 88,0 9,0 16,0 19,0 66,10 60,84 28,107l0 0 45 72 -66 0 -22 -43 0 0z" class="fil1"/><path d="M2361 1796c0,-22 18,-40 40,-40 22,0 40,18 40,40 0,22 -18,40 -40,40 -22,0 -40,-18 -40,-40l0 0z" class="fil2"/><path d="M2579 1747l0 48c0,0 14,0 21,0 7,0 25,-4 25,-25 0,-21 -20,-23 -25,-23 -5,0 -21,0 -21,0l0 0z" class="fil2"/><path d="M1103 765c-8,73 -57,140 -133,172 -109,46 -232,1 -274,-100 -43,-101 11,-220 119,-266 76,-32 158,-20 216,25l0 0 195 -189 0 0c-131,-108 -326,-138 -506,-62 -249,105 -374,374 -278,600 95,226 375,324 624,219 180,-76 295,-237 309,-406l0 0 -271 7 0 0z" class="fil2"/><polygon points="2418 544 2360 1323 1879 1007 1858 1293 1562 1271 1620 492 2102 808 2123 522 2418 544" class="fil1"/></g></svg>