<svg xmlns="http://www.w3.org/2000/svg" xmlns:xlink="http://www.w3.org/1999/xlink" width="60" height="60" version="1.1" viewBox="0 0 2972 3417" xml:space="preserve" style="shape-rendering:geometricPrecision;text-rendering:geometricPrecision;image-rendering:optimizeQuality;fill-rule:evenodd;clip-rule:evenodd"><defs><style type="text/css">.fil0{fill:#282828;fill-rule:nonzero}.fil2{fill:#313030}.fil2,.fil4,.fil5{fill-rule:nonzero}.fil4{fill:#ee3538}.fil5{fill:#ee3737}.fil1{fill:#f4d6b5}.fil1,.fil3,.fil6{fill-rule:nonzero}.fil6{fill:#f5c02f}.fil3{fill:#fefefe}</style></defs><g id="Layer_x0020_1"><metadata id="CorelCorpID_0Corel-Layer"/><path d="M657 1364c-28,-40 -73,-64 -125,-56 0,-60 -64,-101 -113,-125 -20,-16 0,-44 4,-60 85,73 222,101 322,44 52,-20 97,-73 121,-117 20,169 157,330 314,391 -173,-24 -355,-36 -524,-77zm492 -1370l-7 0c-50,0 -84,8 -84,8 -55,16 -104,48 -143,97 -69,81 -64,214 -24,302 40,81 125,121 197,145 -93,60 -165,157 -206,250 -20,-101 -113,-201 -214,-222 -117,-20 -234,24 -298,129 -44,73 -48,177 -20,258 -36,8 -73,16 -101,52 -36,56 -28,137 -4,197 24,60 -28,109 -48,161 -53,110 -181,195 -197,321l0 54c8,16 16,28 16,28 0,0 -24,69 -4,101 16,24 36,40 64,40 24,0 36,-16 36,-16 0,0 36,40 69,32 40,0 60,-24 85,-48 77,-105 173,-193 274,-258l4 4c44,8 85,-16 113,-52 222,8 427,28 641,48 69,52 129,121 157,193 -48,65 -60,149 -56,234 -93,44 -181,105 -258,173 -193,177 -395,423 -617,467 -69,12 -141,-4 -189,-52 32,60 97,77 169,69 64,-8 113,-32 165,-56 181,-97 326,-266 488,-407 73,-60 153,-129 242,-149 -32,93 -113,161 -177,238l0 32c-73,113 -173,206 -250,318 -44,8 -89,20 -125,52 -20,20 -28,44 -28,72 -121,61 -214,181 -222,314 -8,105 77,193 165,242 197,85 471,64 633,-81 68,-61 85,-153 64,-238 -24,-113 -141,-157 -230,-217 16,-12 20,-32 20,-56 0,-32 -24,-64 -56,-81l189 -210 97 0c81,-20 201,-16 218,-117 36,-12 68,-32 105,-24 28,24 -4,56 -8,84 12,24 32,24 52,36 -28,64 -69,129 -101,189 -44,12 -109,44 -121,81 -12,32 -4,48 -4,48 0,0 -65,44 -85,89 -28,48 -40,101 -20,165 28,109 302,217 544,193 238,-32 383,-141 423,-294 12,-81 4,-141 -44,-206 -93,-121 -306,-60 -439,-20 -16,-28 -28,-40 -52,-52l97 -202c44,-16 85,-28 125,-52 8,-60 4,-185 4,-185 0,0 24,-40 28,-48 28,-69 44,-117 44,-157 -4,-282 -202,-330 -339,-447 125,-24 246,-48 367,-73 20,12 36,28 60,36 52,8 73,-8 101,-32 72,89 173,64 262,133 40,36 93,125 161,109 20,-4 44,-24 52,-48 0,0 4,4 16,0 20,-4 28,-12 32,-20 28,-32 4,-89 4,-89 0,0 4,-12 8,-20 24,-44 -20,-137 -113,-214 -16,-16 -81,-77 -81,-77 0,0 -60,-101 -105,-137 16,-20 28,-40 40,-60 8,-44 8,-69 -12,-101 -20,-28 -44,-52 -77,-65 -32,-12 -64,-12 -93,12 -48,44 -8,117 -8,169 4,32 -32,32 -56,44 -52,12 -101,56 -105,109 -20,-8 -40,-4 -69,4 -40,16 -60,60 -73,97 -117,20 -230,44 -346,52l56 -48c60,-64 113,-153 77,-242 4,-32 32,-60 36,-93 12,-68 8,-125 -44,-161 -20,-16 -40,-16 -64,-8 -60,36 -69,105 -73,169l-24 0c12,-72 0,-157 -24,-222 -65,-181 -242,-298 -423,-318 77,-81 101,-214 52,-310 -36,-85 -128,-146 -210,-161 -30,-5 -59,-7 -84,-8z" class="fil0"/><path d="M1668 739l0 -113c12,16 48,36 28,60 0,8 -4,16 4,16l16 -24c85,89 109,214 97,334l-20 8c12,-56 16,-129 -8,-189 -12,-20 -20,-44 -40,-56 -24,-8 -36,16 -36,32 4,85 -12,177 28,242 -32,32 -73,65 -89,109 61,-65 125,-121 218,-117 4,32 28,64 56,81 24,4 48,4 65,-8 24,64 -8,129 -40,181 -97,101 -214,161 -359,133 -153,-36 -290,-189 -326,-343 0,0 -8,-16 0,-20 20,-8 48,16 64,36 -8,-24 -8,-24 -16,-32 -16,-24 -56,-40 -97,-28 -16,12 -32,24 -44,48 20,-8 36,-24 60,-24 93,125 -56,371 141,427 60,0 97,-73 161,-60l56 16 -32 16 -8 -12c-77,40 -165,137 -258,60 -60,-44 -60,-117 -101,-173 0,24 4,52 12,77 -121,-44 -234,-149 -278,-274 -16,-85 20,-161 89,-214 93,-52 210,-40 290,24 32,24 60,52 93,69 -77,-125 -137,-314 -44,-459 20,-24 56,-44 77,-44 113,12 201,121 242,222l0 0z" class="fil1"/><path d="M1539 615c-20,-24 -32,-32 -52,-20 -24,12 -36,40 -28,89 -16,-28 -4,-77 12,-97 12,-16 32,-12 48,-4 8,8 16,20 20,32l0 0z" class="fil2"/><path d="M1769 921c-4,-8 -20,-12 -28,-8 0,0 -16,8 -12,12 0,0 -24,-141 0,-133 28,-4 36,28 44,44 12,52 24,85 12,149 0,-24 -4,-44 -16,-64l0 0z" class="fil3"/><path d="M1974 933c0,48 -28,105 -48,105 -20,-4 -20,-69 -12,-101 4,-20 12,-36 36,-36 0,0 24,0 24,32l0 0z" class="fil3"/><path d="M2680 1352c-28,-48 -56,-52 -121,-60 -40,0 -85,16 -101,36 8,-32 73,-52 97,-52 56,4 97,20 125,77l0 0z" class="fil2"/><path d="M1342 1348c20,24 0,69 8,93 12,-16 12,-40 12,-60 20,0 36,16 44,32 12,16 12,40 -4,56 -12,12 -40,8 -56,0 -56,-36 -77,-101 -65,-169 28,0 52,24 60,48l0 0z" class="fil4"/><path d="M2950 1614c12,40 -32,60 -40,40 -4,-12 -8,-24 -16,-36 -24,-52 -113,-137 -113,-137l4 -40 0 -40c72,36 141,101 165,214l0 0z" class="fil3"/><path d="M197 1703c-52,40 -101,109 -89,181 -12,12 -32,8 -44,4 -28,-12 -36,-36 -36,-65 0,-44 56,-133 64,-133 8,-4 28,-73 89,-125 8,36 20,73 40,109 -8,8 -12,20 -24,28l0 0z" class="fil3"/><path d="M2168 1831c60,133 56,234 -16,363 -24,36 -32,52 -64,84l-24 20c28,-16 56,-28 77,-52 12,44 16,101 0,145 -89,48 -206,89 -310,40 -32,-24 24,-56 0,-89 24,-4 44,4 68,8 -16,-16 -36,-16 -52,-24 56,-4 117,4 161,-28 -77,28 -198,-12 -294,36 8,-40 28,-81 73,-97 -65,4 -93,84 -113,141 -105,-113 -290,-77 -423,-44 65,-73 161,-161 173,-270 -8,-137 36,-262 157,-334 133,-56 310,-125 455,-40 52,36 105,85 133,141l0 0z" class="fil5"/><path d="M1926 1815c28,52 24,137 -8,185 -16,24 -44,36 -69,24 -64,-40 -77,-121 -60,-189 12,-32 28,-76 68,-76 32,0 56,32 68,56l0 0z" class="fil2"/><path d="M2160 1908c4,24 4,52 -8,81 -8,12 -12,24 -36,20 -40,-20 -64,-101 -64,-145 -4,-44 8,-81 32,-89 40,-8 69,73 77,133l0 0z" class="fil2"/><path d="M1922 1831c20,52 16,125 -16,169 -12,12 -32,24 -48,16 -56,-40 -56,-117 -48,-177 8,-24 28,-65 48,-65 32,0 52,28 64,56l0 0z" class="fil3"/><path d="M2152 1916c4,16 4,28 0,44 -4,8 -4,28 -20,36 -32,12 -64,-93 -68,-141 -4,-32 8,-73 24,-73 32,0 56,77 64,133l0 0z" class="fil3"/><path d="M1656 2388c12,28 -24,36 -40,44 -69,20 -133,36 -210,28l109 -129c52,0 109,12 141,56l0 0z" class="fil5"/><path d="M2422 2754c44,48 44,133 28,193 -65,177 -250,242 -423,254 -234,16 -419,-89 -467,-149 -24,-32 -36,-77 -24,-121 16,-77 93,-121 93,-121 0,0 8,28 64,52 32,16 65,8 65,8 0,0 -89,-32 -101,-81 -8,-24 0,-52 16,-73 16,-16 40,-28 60,-36l-16 40c-4,16 -8,4 -12,-8 -4,20 4,28 8,40 28,32 101,44 145,32 20,-8 44,-24 52,-40l-12 4 36 -68c24,8 40,28 44,52 8,24 -4,56 -12,73 -24,52 -121,69 -121,69 0,0 56,16 117,-24 32,-32 48,-64 44,-121 129,-32 310,-109 415,24l0 0z" class="fil6"/><path d="M1169 2734c8,-16 16,-24 28,-12 24,20 32,49 24,77 -20,56 -81,64 -121,84 36,4 73,-12 109,-28 89,44 214,97 230,214 8,85 -16,169 -93,218 -153,101 -383,125 -556,56 -77,-36 -173,-125 -165,-222 12,-117 77,-226 197,-286 36,60 105,69 169,60l8 -4c-56,-8 -129,-8 -153,-73 -4,-28 4,-52 24,-69 20,-16 44,-28 73,-32l-20 36 -8 -12c-4,24 8,36 28,48 161,44 234,-44 234,-44 0,0 -16,4 -8,-12l0 0z" class="fil6"/><path d="M1269 2952c-40,-20 -101,-28 -157,-24 -101,8 -193,32 -278,81 64,-69 157,-81 250,-93 69,-4 133,4 185,36l0 0z" class="fil2"/><path d="M1571 1070c40,0 76,-77 72,-173 0,-97 -36,-173 -81,-169 -44,0 -77,77 -77,173 4,93 40,169 85,169l0 0z" class="fil2"/><path d="M1608 784c24,64 28,157 4,222 -4,-40 -16,-93 -56,-97 -28,4 -40,16 -48,32 -4,-73 -4,-177 48,-202 28,-4 40,28 52,44l0 0z" class="fil3"/><path d="M2756 1485c-4,-8 -24,-20 -24,-20l16 4c0,0 4,0 8,4 8,-36 8,-60 8,-60 -4,-77 -24,-97 -40,-133 32,28 44,64 61,101 77,48 121,81 165,181 0,0 8,-8 8,-16 4,-44 -20,-81 -36,-105 -16,-28 -101,-113 -161,-161 -40,-40 -48,-113 -105,-129 -12,0 -20,20 -20,20 0,0 4,-20 8,-28 28,-36 81,-77 40,-141 -16,-28 -44,-60 -77,-73 -24,-12 -56,-8 -77,20 -24,44 12,101 12,145 -8,20 -16,28 -40,44 -40,24 -89,32 -109,85 -28,48 48,32 52,105 -24,-52 -77,-73 -133,-60 -24,12 -52,28 -56,69 8,-4 16,-8 24,-8 32,-12 60,12 77,36 8,28 8,56 0,85 -12,24 -32,32 -56,40 32,20 77,16 105,4 40,-24 56,-68 64,-105 12,32 -4,64 -20,93 81,85 197,73 282,153 36,32 73,97 125,85 8,-8 20,-12 24,-24 28,-52 -36,-129 -109,-201 -8,20 -24,56 -40,60 16,-20 24,-44 24,-69l0 0z" class="fil3"/><path d="M177 1545l0 0c-52,52 -68,89 -89,121 -4,8 -32,36 -56,93 -24,-85 32,-157 77,-226 73,-85 125,-177 165,-274 -4,-77 -56,-169 0,-238 36,-36 109,-48 137,0 20,68 -56,125 0,181 48,28 105,77 97,141 -77,-16 -141,40 -181,105 -8,12 -12,32 -20,48 48,-56 109,-157 201,-133 40,20 68,52 81,97 8,-52 -32,-89 -60,-121 12,-16 36,-12 52,-4 24,8 89,52 85,125 0,52 -8,109 -60,141 -16,4 -32,8 -52,8 24,-40 64,-81 44,-129 -24,125 -141,173 -234,254 -68,60 -137,201 -210,173 -24,-16 -32,-32 -28,-68 4,-40 32,-85 69,-113 24,-16 28,-24 40,-40 12,8 20,20 32,20 0,0 -8,-8 -16,-16 -4,-4 -8,-8 -8,-12 0,0 -4,-4 0,-8l4 -12c-4,8 -8,4 -12,8 -60,-85 -44,-165 -40,-177 4,-12 12,-44 24,-64 8,-12 -8,8 -12,16 -24,48 -28,77 -28,105l0 0z" class="fil3"/></g></svg>