<svg xmlns="http://www.w3.org/2000/svg" xmlns:xlink="http://www.w3.org/1999/xlink" width="60" height="60" version="1.1" viewBox="0 0 2681 2681" xml:space="preserve" style="shape-rendering:geometricPrecision;text-rendering:geometricPrecision;image-rendering:optimizeQuality;fill-rule:evenodd;clip-rule:evenodd"><defs><style type="text/css">.fil9{fill:#a22b30}.fil7{fill:#b1142b}.fil6{fill:#c79308}.fil5{fill:#ed122b}.fil2{fill:#f7c8ab}.fil3{fill:#fb7f80}.fil4{fill:#fcc80f}.fil1{fill:#373435}.fil8{fill:#d8d9db}.fil0{fill:#fefefe}</style></defs><g id="Layer_x0020_1"><metadata id="CorelCorpID_0Corel-Layer"/><polygon points="0 2681 2677 2681 2677 3 0 3" class="fil0"/><path d="M1257 616c122,-20 238,15 322,107 -24,-231 240,-274 330,-85 87,184 -107,371 -266,241 18,81 7,189 -50,253 -15,74 -124,153 -252,148 -18,23 -14,58 0,80 48,65 165,94 215,133 -22,-120 106,-276 331,-276 225,0 313,123 332,226 145,-9 312,64 360,117 -135,-93 -301,-109 -357,-104 9,69 -19,142 -86,182 -67,40 -156,33 -292,9 -26,20 -65,27 -86,28 -9,33 -41,70 -77,86 -37,14 -120,-6 -176,-16 -27,7 -58,14 -80,20 -33,30 -49,68 -73,103 -19,24 -101,5 -111,0 -50,38 -101,106 -118,136 10,30 15,99 -50,122 -28,86 -78,124 -163,117 -70,-6 -163,-56 -241,-171 -63,-93 -132,-265 -34,-411 140,-207 416,-44 364,234 4,2 9,1 14,2 24,-29 55,-58 85,-81 -19,-12 -58,-33 -53,-58 4,-15 30,-35 104,-65 -58,-66 -98,-144 -106,-225 -56,28 -141,40 -209,18 -14,9 -34,12 -51,7 -122,89 -363,-58 -294,-211 -6,-52 -2,-111 43,-147 0,-117 179,-121 225,-5 92,1 176,97 117,210 3,7 4,17 5,24 15,3 53,6 84,2 22,-8 51,-23 72,-34 3,-12 14,-35 21,-47 -43,-102 -257,-393 -304,-443 -17,-3 -34,-9 -49,-21 -72,7 -159,-25 -203,-37 -45,-12 -134,-26 -175,-44 -71,7 -110,-65 -33,-109 3,-36 42,-56 71,-67 150,-52 292,-56 397,-120 -19,-58 31,-137 110,-135 35,1 52,15 58,35 7,29 -22,69 -33,89 -21,35 -35,78 -28,120 11,32 9,87 -5,115 15,21 20,48 15,73 19,59 57,131 101,190 3,-9 12,-25 18,-30 5,-89 85,-188 135,-222 -150,12 -253,-194 -108,-333 177,-169 418,81 234,270z" class="fil1"/><path d="M916 341c7,28 -14,54 -24,72 -23,35 -40,80 -36,117 -3,-6 -8,-13 -15,-14 34,60 20,144 -13,199 13,-9 25,-27 29,-35 44,66 -60,194 -139,140 34,-5 88,-46 98,-82 -37,53 -96,80 -162,69 -63,-7 -120,-31 -181,-44 -56,-11 -105,-22 -129,-27 -28,-6 -48,-46 19,-69 44,-14 95,-15 140,-3 -1,11 0,30 5,38 6,-58 36,-115 66,-157 -12,6 -24,21 -31,29 -73,15 -178,14 -242,52 14,-27 30,-36 98,-59 71,-24 259,-47 365,-112 3,3 5,10 8,9 -24,-53 12,-155 117,-141 14,2 25,11 28,20z" class="fil0"/><path d="M815 706c12,-108 -68,-140 -161,-130 105,-38 197,48 161,130z" class="fil1"/><path d="M536 582c-12,20 -27,54 -31,72 -55,-16 -125,-16 -175,12 -38,23 -24,58 -14,64 -80,-5 -89,-95 85,-127 41,-8 93,-12 135,-21z" class="fil0"/><path d="M1415 701c21,-24 72,-53 131,7 68,68 56,243 -62,303 62,4 112,72 91,133 -23,70 -146,139 -261,124 7,-4 33,-17 32,-24 -168,96 -196,16 -246,-81 -3,6 3,21 6,27 -72,-55 -120,-129 -125,-217 -2,-83 81,-122 159,-75 -50,-155 76,-283 197,-278 71,3 75,67 77,82z" class="fil2"/><path d="M1301 924c8,1 34,8 42,13 15,-78 74,-188 114,-170 35,15 13,138 -69,198 8,10 21,23 24,37 -56,-72 -150,-78 -208,-69 8,-9 31,-9 47,-12 -26,-80 42,-207 89,-195 42,11 -2,153 -40,199z" class="fil1"/><path d="M1315 883c13,-67 -63,-22 -48,37 -2,0 -6,-1 -8,0 -24,-74 45,-199 79,-188 33,11 -10,140 -22,152z" class="fil0"/><path d="M1454 773c25,9 4,136 -71,186 -2,-1 -4,-3 -6,-5 54,-66 8,-99 -16,-52 10,-43 65,-140 93,-130z" class="fil0"/><path d="M1120 949c-13,4 -30,4 -43,9 10,147 223,286 428,143 -11,-16 -25,-24 -39,-34 35,2 73,49 62,77 -4,-10 -9,-27 -20,-38 -31,25 -66,41 -103,55 -62,44 -123,119 -198,103 -87,-19 -90,-165 -102,-201 -18,-31 -31,-64 -36,-100 -17,7 -26,16 -39,23 5,-23 55,-50 90,-35z" class="fil1"/><path d="M1311 957c125,41 76,152 -38,120 -129,-36 -89,-161 38,-120z" class="fil1"/><path d="M745 1129c-4,1 -9,1 -13,2 -12,-11 -24,-24 -37,-31 6,20 39,48 70,61 -9,-8 -18,-16 -25,-23 115,6 165,96 127,192 -39,-65 -125,-46 -150,22 -26,69 22,129 56,138 -143,67 -318,-78 -280,-182 4,11 9,24 19,29 -24,-59 -15,-146 19,-185 3,16 14,50 29,65 -11,-55 -34,-90 4,-133 32,-36 141,-38 182,46z" class="fil0"/><path d="M1229 1202c0,0 -23,9 -29,21 59,-32 99,4 102,6 -47,38 -129,45 -156,-44 8,-10 60,-25 84,17z" class="fil3"/><path d="M1063 1267c4,-26 24,-49 46,-63 -18,19 -34,41 -46,63z" class="fil0"/><path d="M2202 1455c15,117 -62,160 -86,175 -76,37 -185,17 -260,7 15,-14 29,-35 17,-69 34,-51 -29,-121 -110,-126 -49,-3 -116,26 -110,82 -9,0 -24,4 -35,9 -7,-2 -19,-7 -29,-9 -5,-7 -13,-16 -19,-21 -24,-116 98,-264 305,-269 207,-5 312,107 326,221z" class="fil4"/><path d="M703 1333c-32,-14 -86,-88 -78,-93 7,-6 28,44 78,93z" class="fil1"/><path d="M1153 1265c-37,14 -70,42 -105,61 27,-25 83,-60 105,-61z" class="fil0"/><path d="M868 1362c-28,-4 -65,-18 -85,11 -16,21 -14,55 0,76 9,14 23,26 37,33 -53,22 -122,-52 -93,-128 30,-77 131,-65 140,8z" class="fil0"/><path d="M691 1384c-67,2 -135,-51 -131,-59 3,-7 72,52 131,59z" class="fil1"/><path d="M1271 1339c-37,11 -72,31 -104,54 12,3 32,-1 66,-13 -21,15 -50,21 -74,18 -31,23 -65,46 -100,63 61,-38 157,-121 211,-122z" class="fil0"/><path d="M1899 1575c5,-53 0,-148 -20,-213 28,47 41,187 20,213z" class="fil1"/><path d="M1601 1558c1,-4 -1,-16 -4,-20 19,6 41,12 63,13 -7,-6 -19,-11 -30,-14 132,-30 162,158 42,212 -43,16 -153,-24 -231,-16 11,4 26,6 38,8 -57,9 -110,29 -162,50 10,2 61,-13 84,-19 -21,16 -36,57 -56,84 -88,-30 -257,-112 -288,-105 20,-17 65,-35 98,-51 11,12 28,23 44,30 -12,-12 -25,-24 -35,-37 7,4 23,10 30,6 28,-16 -58,-126 -85,-113 -7,4 -7,18 -4,27 -19,-33 -39,-73 -44,-111 73,68 183,6 272,-133 56,85 226,103 267,189z" class="fil5"/><path d="M948 1370c3,0 5,0 8,0 -14,7 -28,13 -43,18 11,-4 25,-13 35,-17z" class="fil0"/><path d="M691 1431c-27,13 -106,3 -104,-21 0,-5 33,23 104,21z" class="fil1"/><path d="M1869 1557c-24,-42 -134,-100 -170,-23 -8,-5 -24,-8 -37,-9 -4,-37 37,-71 95,-71 72,0 126,56 112,104z" class="fil4"/><path d="M1726 1552c14,-3 31,-7 49,-18 -1,8 -33,22 -49,18z" class="fil0"/><path d="M1335 1586c92,89 34,165 -69,67 -86,-82 -34,-167 69,-67z" class="fil1"/><path d="M1331 1596c76,80 39,138 -56,49 -83,-78 -36,-146 56,-49z" class="fil0"/><path d="M953 1684c61,104 35,238 23,271 5,-2 16,-28 19,-40 2,17 4,39 1,59 6,-3 8,-14 9,-21 46,26 69,105 68,126 -1,24 -28,80 -39,98 -17,28 -46,49 -82,50 16,-5 29,-29 29,-53 -1,-33 -25,-66 -52,-133 -27,-67 -59,-184 -81,-279 -28,-113 -135,-144 -196,-103 56,-94 214,-123 300,24z" class="fil4"/><path d="M1190 1693c-8,6 -30,-11 -36,-15 -8,-9 -18,-20 -25,-31 -11,-16 -24,-51 -16,-55 15,-9 92,91 77,101z" class="fil0"/><path d="M822 1729c21,40 57,238 107,338 -47,28 -168,21 -273,-43 -53,-96 -84,-235 -21,-336 23,-37 130,-68 187,41z" class="fil6"/><path d="M1142 1786c-12,7 -24,16 -37,23 -33,-14 -58,-39 -52,-47 6,-8 53,8 89,24z" class="fil7"/><path d="M1339 1866c-15,7 -63,2 -92,-7 7,-6 19,-16 24,-21 22,10 72,25 68,27z" class="fil7"/><path d="M1109 2008c8,30 11,85 -33,105 22,-50 -17,-137 -70,-169 0,-14 0,-26 -5,-38 51,6 92,58 107,103z" class="fil4"/><path d="M932 2073c11,28 31,63 36,82 5,19 5,69 -48,73 -53,3 -173,-50 -250,-182 61,34 197,70 262,27z" class="fil6"/><path d="M1835 2363c0,31 -187,20 -357,21 -181,1 -350,0 -299,-23 -43,-2 -132,-1 -131,-17 0,-25 278,-19 375,-18 96,1 413,4 413,38z" class="fil1"/><path d="M1829 2363c0,20 -231,17 -358,15 -128,-2 -374,5 -269,-23 -29,-2 -148,-3 -148,-12 1,-13 191,-12 381,-11 116,1 393,7 394,31z" class="fil8"/><path d="M1120 1081c0,0 27,45 103,70 0,0 51,32 152,14 0,0 -37,30 -68,56 0,0 -22,-20 -70,-22 0,0 -20,-50 -93,-24 0,0 -22,-64 -23,-93z" class="fil9"/></g></svg>