<svg xmlns="http://www.w3.org/2000/svg" xmlns:xlink="http://www.w3.org/1999/xlink" width="60" height="60" version="1.1" viewBox="0 0 2681 2681" xml:space="preserve" style="shape-rendering:geometricPrecision;text-rendering:geometricPrecision;image-rendering:optimizeQuality;fill-rule:evenodd;clip-rule:evenodd"><defs><style type="text/css">.fil4{fill:#ed122b}.fil2{fill:#f7c8ab}.fil3{fill:#fb7f80}.fil5{fill:#fcc80f}.fil1{fill:#373435}.fil0{fill:#fefefe}</style></defs><g id="Layer_x0020_1"><metadata id="CorelCorpID_0Corel-Layer"/><polygon points="0 2681 2677 2681 2677 3 0 3" class="fil0"/><path d="M1962 169c228,146 74,478 -152,405 34,45 60,135 61,213 132,-223 464,-143 403,145 -58,272 -398,269 -437,11 0,-1 -1,0 -2,0 -46,105 -169,215 -316,227 45,77 145,158 206,190 30,-8 91,-18 109,25 36,-1 72,0 105,10 12,-5 22,-11 33,-16 51,-44 105,-146 159,-112 76,48 67,222 -70,239 -2,2 -6,5 -10,6 -1,89 -21,191 -38,251 -5,149 -43,237 -93,240 -38,93 -101,85 -134,39 -68,-3 -68,-153 -107,-238 -30,-70 -53,-149 -43,-229 -21,-20 -32,-51 -27,-82 -79,-47 -142,-128 -195,-209 -180,183 28,633 46,682 42,10 98,36 98,89 98,71 217,86 307,152 121,48 364,-19 395,-237 7,178 -216,297 -361,266 79,69 123,244 -129,312 -262,71 -506,-99 -560,-286 -186,118 -532,58 -649,-116 -35,-54 -49,-121 -6,-186 47,-72 156,-94 250,-74 58,10 111,30 166,45 4,-14 10,-30 22,-39 -16,-48 -28,-99 -36,-149 -48,-22 -92,-63 -120,-106 16,-21 49,-104 58,-151 -12,-77 11,-162 46,-213 -16,4 -33,6 -49,8 -8,17 -29,37 -52,42 -23,59 -57,118 -109,155 -141,103 -166,202 -203,217 -21,9 -71,7 -87,-52 -42,-43 -41,-114 -34,-171 -39,-88 62,-225 72,-241 7,-56 55,-146 118,-191 0,-85 16,-210 136,-217 41,0 67,36 70,61 5,38 -37,76 -40,158 21,17 42,37 57,57 20,11 37,29 47,47 70,4 213,-18 257,-37 17,-11 36,-17 54,-27 -9,-7 -20,-25 -29,-34 -117,-36 -210,-159 -170,-264 -133,-195 141,-314 132,-77 6,1 13,3 19,5 22,-150 219,-376 499,-264 -102,-179 93,-433 335,-279zm-868 1591c15,45 31,94 50,134 36,12 81,41 87,83 9,5 18,14 28,20 7,-15 26,-28 44,-33 -20,-44 -41,-95 -55,-136 -57,-5 -113,-30 -153,-67z" class="fil1"/><path d="M1417 851c138,-81 350,-46 339,120 -8,129 -182,179 -239,187 10,-16 16,-25 23,-60 -95,185 -218,90 -260,50 -15,-16 -36,-40 -54,-49 2,6 7,9 10,14 -27,-14 -50,-32 -68,-57 20,6 40,9 59,15 52,42 105,125 189,102 100,-30 88,-144 130,-219 7,-9 13,-21 23,-26 25,6 48,16 68,33 -6,-52 -126,-70 -161,-43 19,0 50,0 66,4 -242,286 -611,52 -556,-125 56,47 124,3 121,-77 46,6 84,39 106,78 1,-20 -14,-37 -24,-48 7,-7 16,-21 23,-38 16,-41 40,-108 19,-118 -26,-13 -73,60 -80,127 -4,0 -8,-4 -13,-5 15,-109 99,-204 191,-253 2,9 2,27 -2,37 46,-36 105,-84 170,-63 126,41 -12,320 -83,414z" class="fil2"/><path d="M1349 572c40,20 -17,127 -30,155 -3,13 -25,46 -38,53 -7,8 -24,6 -31,1 -55,-40 45,-236 100,-209z" class="fil1"/><path d="M1316 709c-14,-39 -67,25 -57,67 -28,-2 -16,-75 8,-121 23,-46 60,-84 78,-74 26,15 -17,106 -29,128z" class="fil0"/><path d="M1208 701c-9,-37 -36,11 -34,33 -4,-3 -9,-6 -12,-8 3,-43 44,-130 67,-125 16,3 -10,70 -20,100z" class="fil0"/><path d="M729 837c19,-1 55,12 57,51 1,28 -31,68 -37,146 -15,-9 -37,-16 -52,-11 42,13 72,38 98,68 -88,-7 -118,69 -115,101 -113,-13 -147,142 -139,159 9,-55 65,-161 139,-151 5,47 31,94 74,114 21,9 44,16 69,12 -35,92 -101,133 -165,189 -52,44 -84,100 -121,152 -12,17 -31,22 -47,16 -46,-17 -66,-116 8,-236 7,16 16,40 27,45 -27,-67 -44,-144 -37,-223 -8,4 -9,31 -11,48 -30,29 -53,79 -66,126 -11,-83 77,-208 98,-242 -7,2 -12,6 -16,9 26,-74 71,-135 132,-182 0,-4 -13,1 -14,3 -10,-71 28,-185 118,-192z" class="fil0"/><path d="M1501 1049c-31,124 -126,144 -195,77 19,-32 59,-42 95,-38 -11,13 -18,28 -18,41 11,-14 48,-72 118,-80z" class="fil3"/><path d="M850 1145c-11,2 -38,2 -52,2 -62,6 -43,106 11,132 14,6 43,6 63,4 -55,70 -172,14 -179,-78 -7,-92 103,-137 156,-59z" class="fil0"/><path d="M996 1211c24,-36 64,-69 108,-87 -39,23 -74,55 -108,87z" class="fil0"/><path d="M1340 1371c-42,148 -2,305 36,417 -72,-31 -261,-114 -291,-70 -11,-27 -16,-65 -30,-92 -5,16 3,33 4,45 -24,-6 -47,-21 -71,-31 16,20 47,35 73,43 5,20 7,48 22,67 -126,14 -222,-90 -234,-113 25,-37 36,-80 49,-124 6,16 11,30 20,43 -7,-42 -55,-205 77,-332 172,-69 310,60 346,146z" class="fil4"/><path d="M1400 1262c2,3 6,10 8,13 -5,-1 -18,-20 -34,-35 9,5 19,12 26,22z" class="fil0"/><path d="M946 1435c-52,-23 19,-192 66,-174 43,16 -29,191 -66,174z" class="fil1"/><path d="M947 1427c-35,-14 26,-175 63,-159 32,14 -39,169 -63,159z" class="fil0"/><path d="M1176 1383c-14,46 -42,86 -69,79 -68,-18 -14,-205 47,-192 34,7 37,63 22,113z" class="fil1"/><path d="M2131 1284c72,76 23,214 -110,212 4,4 14,7 20,7 -8,4 -28,7 -40,11 6,4 24,5 36,2 -11,175 -34,215 -38,255 -8,75 -24,199 -73,219 21,-60 46,-187 34,-229 4,-3 11,-10 13,-16 -35,21 -113,43 -156,53 9,5 19,4 27,3 36,92 -5,231 -54,224 -49,-7 -48,-92 -66,-141 -29,-104 -94,-199 -76,-316 23,-106 105,-210 342,-157 -12,-8 -23,-12 -31,-15 14,-5 63,-33 71,-46 -8,1 -14,5 -18,5 27,-28 81,-114 120,-73z" class="fil0"/><path d="M1167 1376c-14,43 -41,83 -58,78 -15,-5 -31,-49 -17,-96 13,-42 39,-83 62,-78 25,5 27,53 13,96z" class="fil0"/><path d="M496 1440c-44,41 -62,106 -62,168 -38,-81 -9,-208 42,-277 2,37 7,75 19,109z" class="fil0"/><path d="M1823 1386c-95,14 -166,80 -186,167 -40,-49 -3,-107 34,-142 36,-34 122,-71 152,-25z" class="fil0"/><path d="M1858 1677c32,-66 35,-180 -54,-245 44,3 134,136 54,245z" class="fil1"/><path d="M1217 1739c8,25 21,58 25,74 -62,-6 -143,-53 -149,-82 -6,-28 100,-3 124,8z" class="fil4"/><path d="M1801 2040c80,-25 81,-196 54,-240 25,-6 65,-18 94,-33 5,67 -45,380 -148,273z" class="fil0"/><path d="M967 1942c1,108 246,162 264,52 8,4 16,11 22,17 -4,11 -3,25 0,36 -64,42 -63,126 -51,197 -57,47 -283,95 -452,20 -202,-89 -258,-224 -156,-322 102,-97 304,-17 373,0z" class="fil5"/><path d="M1011 1938c45,46 142,60 152,6 -2,-10 -6,-21 -11,-32 58,29 71,57 68,78 -14,86 -225,51 -238,-48 -2,-13 3,-27 14,-40 5,11 10,25 16,34z" class="fil5"/><path d="M1061 2103c-47,-70 -126,-117 -147,-147 42,12 140,108 147,147z" class="fil1"/><path d="M1330 2014c24,28 133,55 147,1 -3,-13 -7,-25 -12,-37 40,11 106,47 65,99 -48,63 -246,50 -268,-50 -4,-16 13,-42 43,-53 8,13 13,26 24,40z" class="fil5"/><path d="M1450 2131c41,-6 87,-24 101,-64 91,65 220,85 304,153 149,116 107,278 -153,314 -245,33 -433,-128 -480,-285 -17,-65 -21,-148 36,-191 41,58 117,80 192,73z" class="fil5"/><path d="M1689 2156c-116,-16 -258,9 -363,55 55,-55 253,-86 363,-55z" class="fil1"/></g></svg>