<svg xmlns="http://www.w3.org/2000/svg" xmlns:xlink="http://www.w3.org/1999/xlink" width="60" height="60" version="1.1" viewBox="0 0 3958 4528" xml:space="preserve" style="shape-rendering:geometricPrecision;text-rendering:geometricPrecision;image-rendering:optimizeQuality;fill-rule:evenodd;clip-rule:evenodd"><defs><style type="text/css">.fil0{fill:#373435}.fil3{fill:#ed3237}.fil5{fill:#f5b198}.fil4{fill:#f7e6d6}.fil1{fill:#fae337}.fil2{fill:#fefefe}</style></defs><g id="Layer_x0020_1"><metadata id="CorelCorpID_0Corel-Layer"/><path d="M1619 735c-334,-39 -533,169 -603,274 16,-244 -137,-415 -348,-422 -427,-9 -561,777 -65,853 111,16 186,-12 269,-65 -26,167 26,369 141,526 -2,160 158,220 253,255 -169,65 -369,192 -415,415 -79,19 -132,72 -135,174 -128,93 -186,285 -165,390 35,165 93,262 241,267 95,56 188,70 237,58 93,79 223,77 299,9 46,-39 72,-123 65,-230 109,-65 135,-232 109,-311 -37,-130 -179,-199 -264,-230 -23,-35 -39,-67 -72,-93 44,-190 278,-278 443,-292 257,295 28,986 -167,1299 -93,-2 -206,74 -223,135 -186,-42 -666,-141 -840,237 -49,-14 -559,-109 -223,-448 -369,306 65,450 209,489 -39,239 248,501 675,499 276,-2 617,-153 740,-318 155,111 466,176 717,165 297,-16 601,-162 601,-394 2,-241 -336,-429 -833,-276 7,-35 -2,-93 -77,-90 63,-132 121,-288 144,-376 213,-88 269,-128 283,-169 12,-37 -74,-269 -74,-308 -2,-121 12,-234 -19,-348 -28,-111 -102,-262 -306,-401 225,-137 517,-406 622,-575 86,9 135,-26 181,-70 42,-5 223,21 380,46 151,26 350,130 422,30 155,-9 165,-172 51,-311 60,-132 -172,-262 -336,-334 -160,-72 -343,-169 -364,-209 79,-79 65,-162 0,-288 -53,-102 -204,-132 -257,-95 -77,49 14,264 -12,357 -121,104 -190,276 -195,427 -77,32 -102,104 -93,209 -88,118 -209,288 -343,445 35,-125 46,-239 -14,-313 -26,-264 -301,-468 -373,-513 239,-56 325,-230 318,-427 -5,-174 -188,-383 -415,-385 -304,0 -638,383 -169,731zm253 2609c-30,88 -70,174 -116,267 51,-30 95,-49 165,-51 30,-79 100,-186 123,-250 -37,21 -107,28 -172,35z" class="fil0"/><path d="M1781 3820c-5,5 -7,12 -9,16 81,83 132,204 21,348 199,137 436,162 656,162 304,-2 603,-128 624,-392 7,-95 -125,-281 -478,-288 -88,-2 -199,9 -332,58 0,9 0,19 -9,30 35,-12 74,-16 104,-21 -104,56 -274,151 -353,230 7,-35 42,-70 79,-100 -125,16 -218,0 -304,-44zm125 -234c-56,-5 -125,35 -155,56 60,51 58,114 37,167 86,44 276,53 334,30 74,-32 109,-53 121,-139 5,-39 -19,-67 -67,-63 14,42 -83,97 -151,86 -93,-12 -204,-23 -118,-137zm-693 186c-128,-32 -278,-46 -408,-32 -176,21 -406,130 -404,346 2,206 269,399 638,413 301,9 744,-220 793,-462 5,-30 -12,-137 -79,-188 -70,67 -128,79 -274,81 30,16 44,32 58,53 -137,-72 -297,-148 -434,-186 39,-7 72,-2 130,23 -14,-21 -19,-35 -21,-49zm223 -125c-77,-21 -234,88 -176,183 37,16 132,51 181,79 84,5 188,-2 253,-42 88,-51 116,-132 44,-211 -26,35 -53,74 -95,90 -139,51 -276,23 -274,-5 2,-21 44,-65 67,-95z" class="fil1"/><path d="M2069 2315c42,-14 100,56 135,158 37,100 37,195 -5,209 -39,16 -100,-56 -137,-158 -37,-100 -35,-195 7,-209zm278 -30c32,-9 83,63 111,139 23,79 23,146 -12,158 -35,12 -77,-35 -102,-132 -26,-95 -32,-151 2,-165z" class="fil2"/><path d="M1725 2477c0,53 95,253 -100,809 165,-46 424,-183 587,-116 9,-83 19,-169 23,-253 19,12 19,58 19,86 42,-12 88,-51 116,-74 -21,46 -67,79 -121,107 -5,46 -7,86 -12,132 86,-12 262,-190 364,-132 -26,-93 -60,-206 -77,-274 -14,-44 21,-267 -32,-401 -16,-32 -46,-135 -104,-155 -274,-83 -531,0 -663,271zm336 -183c46,-14 107,51 158,172 46,121 30,220 -14,234 -46,16 -121,-58 -160,-172 -39,-111 -30,-216 16,-234zm276 -28c35,-14 102,65 132,151 28,83 23,169 -14,183 -37,12 -97,-42 -128,-146 -30,-104 -30,-174 9,-188z" class="fil3"/><path d="M2361 3131c-2,23 -5,53 -7,79 139,-65 260,-121 239,-155 -19,-28 -104,-16 -232,77z" class="fil3"/><path d="M1916 3210c-12,37 -23,74 -35,114 160,-9 339,-90 336,-125 -2,-32 -186,-46 -301,12z" class="fil3"/><path d="M2711 1009c-123,88 -70,246 5,320 88,88 160,121 274,28 -130,-30 -276,-195 -278,-348zm313 332c-158,-26 -283,-188 -285,-334 -7,-197 100,-348 195,-450 -5,-70 -12,-125 -23,-195 -7,-56 -19,-123 23,-141 46,-19 135,-2 174,35 81,74 144,262 30,332 28,46 100,90 155,118 162,86 371,160 489,262 42,35 104,90 72,141 -130,-114 -255,-186 -429,-241 192,97 443,220 492,399 26,86 -14,158 -95,144 46,-104 -206,-269 -369,-276 230,77 292,146 334,213 26,44 21,90 -37,109 -51,16 -304,-67 -413,-81 -104,-12 -209,-19 -313,-35zm-174 -346c26,-70 102,-123 195,-125 102,0 202,86 237,153 -188,-132 -276,-160 -431,-28zm-2110 1737c0,-114 114,-155 241,-169 139,-12 165,51 223,128 -176,-39 -304,-37 -464,42zm199 -42c-86,14 -160,37 -218,84 -102,81 -172,248 -146,355 35,160 107,248 204,255 -35,-32 -67,-63 -65,-100 88,116 192,169 295,158 -44,-32 -70,-63 -86,-100 114,95 183,174 299,158 137,-21 158,-141 158,-257 -9,0 -21,-2 -26,-9 -9,14 -21,26 -35,37 44,-79 51,-155 56,-234 14,21 14,58 14,81 12,-2 28,-12 49,-26 -16,35 -42,53 -53,56 0,9 -7,26 -5,32 0,12 -5,35 2,46 35,-7 51,-42 72,-74 30,-46 44,-97 35,-188 -7,-86 -77,-165 -223,-232 -46,-21 -153,-67 -327,-42zm-132 74c-19,-9 -114,135 -109,225 42,-132 125,-220 109,-225zm70 -30c-16,-2 -44,88 -53,151 -9,58 -7,104 7,160 2,-51 7,-116 19,-174 14,-72 35,-137 28,-137zm79 -5c-19,5 -9,70 -2,107 5,42 19,81 39,130 -16,-128 -21,-244 -37,-237z" class="fil2"/><path d="M1897 1354c-32,-167 -67,-311 -160,-436 -144,-197 -448,-204 -480,46 -290,-195 -383,524 -95,775 -118,30 -174,209 -51,301 135,102 244,118 540,125 -28,-14 -67,-35 -79,-51 130,46 267,56 336,-2 60,-49 100,-162 114,-253 2,49 9,83 -14,144 137,-130 239,-297 262,-482 28,-216 -165,-334 -373,-167z" class="fil4"/><path d="M1707 1533c-37,-60 -179,-23 -250,21 -72,44 -116,109 -86,186 26,63 169,56 237,19 111,-58 137,-167 100,-225z" class="fil0"/><path d="M2110 1487c-23,-19 -51,-37 -97,-46 -32,-5 -93,19 -111,39 35,-12 70,-16 100,-12 -26,218 -130,332 -264,420 -137,90 -353,93 -515,26 2,-23 23,-53 46,-70 -28,5 -58,32 -70,60 -14,30 -12,56 2,88 5,-30 5,-51 14,-65 79,32 204,56 271,65 121,104 285,144 369,70 70,-58 121,-130 114,-366 21,-79 42,-148 51,-227 28,2 56,5 90,19z" class="fil0"/><path d="M1946 1814c-63,5 -148,49 -148,165 -12,-14 -14,-37 -12,-49 -79,-2 -160,65 -167,121 65,37 153,46 206,12 93,-65 121,-148 121,-248z" class="fil5"/><path d="M1688 1445c-121,2 -290,95 -353,183 0,-26 14,-46 19,-56 -70,-53 -114,-109 -139,-174 -37,-90 -37,-192 2,-216 42,-21 153,37 211,329 26,-14 63,-35 93,-46 -72,-58 -195,-339 -100,-399 65,-42 211,160 202,357 19,2 49,14 65,21z" class="fil0"/><path d="M1422 1088c-46,74 30,297 109,371 12,-2 26,-9 35,-12 -63,-86 -46,-176 32,-130 -28,-137 -144,-276 -176,-230z" class="fil2"/><path d="M1364 1558c-93,-53 -209,-274 -137,-353 30,-35 125,86 160,199 -107,-26 -56,130 5,135 -9,5 -16,12 -28,19z" class="fil2"/></g></svg>