<svg xmlns="http://www.w3.org/2000/svg" xmlns:xlink="http://www.w3.org/1999/xlink" width="60" height="60" version="1.1" viewBox="0 0 6264 5889" xml:space="preserve" style="shape-rendering:geometricPrecision;text-rendering:geometricPrecision;image-rendering:optimizeQuality;fill-rule:evenodd;clip-rule:evenodd"><defs><style type="text/css">.str1,.str4{stroke:#373435;stroke-width:3}.str4{stroke-width:13}.str0{stroke-width:39}.str0,.str2,.str3{stroke:#373435;stroke-linecap:round;stroke-linejoin:round}.str2{stroke-width:44}.str3{stroke-width:48}.fil1{fill:none;fill-rule:nonzero}.fil3{fill:#373435}.fil3,.fil4,.fil5{fill-rule:nonzero}.fil4{fill:#a45e4d}.fil5{fill:#ed3237}.fil0,.fil2,.fil6{fill-rule:nonzero}.fil2{fill:#f1d225}.fil6{fill:#fefefe}.fil0{fill:#fff212}</style></defs><g id="Layer_x0020_1"><metadata id="CorelCorpID_0Corel-Layer"/><path d="M2230 4443l-651 -245 209 -279c0,0 -721,-232 -895,-302l593 -1210 -1256 -116 -210 -1071 2513 605 -861 1513 675 302 -373 465 419 280 -163 58z" class="fil0"/><path d="M2230 4443l-651 -245 209 -279c0,0 -721,-232 -895,-302l593 -1210 -1256 -116 -210 -1071 2513 605 -861 1513 675 302 -373 465 419 280 -163 58z" class="fil1 str0"/><polygon points="1591 4195 1801 3915 1790 3912 1789 3911 1786 3910 1782 3909 1777 3908 1772 3906 1765 3904 1758 3902 1750 3899 1742 3896 1732 3893 1722 3890 1712 3886 1699 3882 1687 3878 1674 3874 1661 3870 1647 3865 1632 3860 1617 3855 1602 3850 1585 3845 1568 3840 1551 3834 1534 3829 1518 3823 1500 3817 1481 3811 1463 3805 1443 3798 1411 3787 1407 3777 1629 3831 1536 3655 1772 3688 1720 3517 1953 3591 1907 3452 2334 3643 1963 4107 2376 4382 2230 4434" class="fil2"/><path d="M2660 5325c0,0 -301,305 -356,480 -55,176 527,-30 897,-349 371,-321 -541,-131 -541,-131z" class="fil2"/><path d="M2660 5325c0,0 -301,305 -356,480 -55,176 527,-30 897,-349 371,-321 -541,-131 -541,-131" class="fil1 str0"/><path d="M4664 5325c0,0 301,305 356,480 55,176 -526,-30 -897,-349 -371,-321 541,-131 541,-131z" class="fil2"/><path d="M4664 5325c0,0 301,305 356,480 55,176 -526,-30 -897,-349 -371,-321 541,-131 541,-131" class="fil1 str0"/><path d="M2491 2753c-175,-183 -290,-502 -251,-706 43,-221 129,-439 144,-559 14,-120 97,-374 101,-372 -233,-75 -521,-212 -715,-396 -194,-183 -639,-589 -593,-679 48,-93 655,107 959,205 305,98 662,396 659,402 2,5 492,-236 948,-226 455,9 733,125 883,221 -3,-1 354,-299 658,-397 304,-98 911,-298 959,-205 46,90 -399,496 -593,679 -194,184 -446,321 -679,396 4,-2 85,154 110,310 24,156 70,385 126,603 45,177 -32,541 -223,738 -25,35 407,1000 347,1534 -61,534 -185,917 -517,1085 -328,166 -1717,70 -2064,-21 -315,-83 -570,-457 -690,-1021 -120,-564 439,-1569 431,-1591z" class="fil0"/><path d="M2491 2753c-175,-183 -290,-502 -251,-706 43,-221 129,-439 144,-559 14,-120 97,-374 101,-372 -233,-75 -521,-212 -715,-396 -194,-183 -639,-589 -593,-679 48,-93 655,107 959,205 305,98 662,396 659,402 2,5 492,-236 948,-226 455,9 733,125 883,221 -3,-1 354,-299 658,-397 304,-98 911,-298 959,-205 46,90 -399,496 -593,679 -194,184 -446,321 -679,396 4,-2 85,154 110,310 24,156 70,385 126,603 45,177 -32,541 -223,738 -25,35 407,1000 347,1534 -61,534 -185,917 -517,1085 -328,166 -1717,70 -2064,-21 -315,-83 -570,-457 -690,-1021 -120,-564 439,-1569 431,-1591" class="fil1 str0"/><path d="M4578 1326c138,0 250,100 250,223 0,123 -112,223 -250,223 -137,0 -250,-100 -250,-223 0,-123 113,-223 250,-223z" class="fil3"/><path d="M2908 1342c137,0 250,100 250,223 0,122 -113,222 -250,222 -138,0 -250,-100 -250,-222 0,-123 112,-223 250,-223z" class="fil3"/><path d="M3614 1840l67 70c8,8 17,8 26,-1l76 -71c5,-8 2,-12 -7,-11l-150 0c-15,1 -17,6 -12,13z" class="fil3"/><path d="M3440 2238c192,-37 260,-104 260,-104 0,0 51,63 218,102 -211,756 -478,20 -478,2z" class="fil4"/><path d="M3440 2238c192,-37 260,-104 260,-104 0,0 51,63 218,102 -211,756 -478,20 -478,2z" class="fil1 str0"/><path d="M5681 692c206,-194 606,-565 562,-651 -27,-54 -241,-10 -476,56 -7,37 44,174 -19,371 -22,70 -46,148 -67,224z" class="fil3"/><path d="M5681 692c206,-194 606,-565 562,-651 -27,-54 -241,-10 -476,56 -7,37 44,174 -19,371 -22,70 -46,148 -67,224" class="fil1 str1"/><path d="M1734 120c-264,-77 -526,-139 -557,-79 -46,90 399,496 593,679 32,30 67,60 106,90 -25,-122 -72,-281 -114,-412 -37,-117 -35,-212 -28,-278z" class="fil3"/><path d="M1734 120c-264,-77 -526,-139 -557,-79 -46,90 399,496 593,679 32,30 67,60 106,90 -25,-122 -72,-281 -114,-412 -37,-117 -35,-212 -28,-278" class="fil1 str1"/><path d="M4821 2029c122,0 222,104 222,231 0,127 -100,231 -222,231 -122,0 -222,-104 -222,-231 0,-127 100,-231 222,-231z" class="fil5"/><path d="M4821 2029c122,0 222,104 222,231 0,127 -100,231 -222,231 -122,0 -222,-104 -222,-231 0,-127 100,-231 222,-231z" class="fil1 str0"/><path d="M2620 1959c122,0 222,104 222,231 0,127 -100,230 -222,230 -122,0 -222,-103 -222,-230 0,-127 100,-231 222,-231z" class="fil5"/><path d="M2620 1959c122,0 222,104 222,231 0,127 -100,230 -222,230 -122,0 -222,-103 -222,-230 0,-127 100,-231 222,-231z" class="fil1 str0"/><path d="M3889 2330c-157,455 -336,172 -411,5 54,-53 127,-86 208,-86 77,0 149,31 203,81z" class="fil5"/><path d="M3889 2330c-157,455 -336,172 -411,5 54,-53 127,-86 208,-86 77,0 149,31 203,81z" class="fil1 str0"/><path d="M3700 2131c98,87 358,188 446,11" class="fil1 str0"/><path d="M3700 2131c-100,80 -359,188 -447,11" class="fil1 str0"/><path d="M3710 1839c23,0 41,6 41,13 0,8 -18,14 -41,14 -22,0 -40,-6 -40,-14 0,-7 18,-13 40,-13z" class="fil6"/><path d="M3154 3206c0,0 106,71 206,446 61,231 157,283 184,343 27,61 60,147 -19,100 -79,-47 -103,-42 -72,22 32,64 15,104 -98,21 -84,-61 -83,7 -59,42 24,35 23,132 -76,46 -98,-85 -128,-50 -99,11 29,60 52,136 -98,31 -45,-31 -112,-166 -178,-239 -156,-173 -337,-340 -400,-588" class="fil1 str2"/><path d="M4283 3368c0,0 -89,83 -107,433 -12,216 -95,280 -109,338 -14,59 -28,141 40,85 67,-56 91,-57 74,6 -17,62 8,94 101,-1 69,-69 82,-9 66,26 -16,36 6,121 84,27 78,-94 115,-69 99,-10 -16,59 -22,130 103,10 37,-36 75,-168 124,-245 116,-183 258,-364 267,-596" class="fil1 str3"/><line x1="2307" x2="2475" y1="5850" y2="5665" class="fil1 str4"/><line x1="5017" x2="4848" y1="5850" y2="5665" class="fil1 str4"/><line x1="2359" x2="2579" y1="5863" y2="5714" class="fil1 str4"/><line x1="4966" x2="4746" y1="5863" y2="5714" class="fil1 str4"/><path d="M5628 731c-191,174 -434,304 -659,376l-1 0c-57,-109 -117,-252 -163,-267 362,49 637,-23 823,-109z" class="fil2"/><path d="M1883 806c208,146 403,240 608,301 58,-109 112,-208 158,-264 -362,49 -580,49 -766,-37z" class="fil2"/><path d="M3360 3039c27,32 472,130 727,-2 -382,530 -746,6 -727,2z" class="fil2"/><path d="M4663 1379c40,0 72,32 72,70 0,39 -32,70 -72,70 -39,0 -71,-31 -71,-70 0,-38 32,-70 71,-70z" class="fil6"/><path d="M2993 1395c39,0 71,31 71,70 0,39 -32,70 -71,70 -40,0 -72,-31 -72,-70 0,-39 32,-70 72,-70z" class="fil6"/><path d="M2442 3460c-20,117 -32,213 146,497 177,284 399,297 399,297 0,0 -94,-144 -132,-195 -38,-51 -136,-142 -201,-222 -41,-44 -161,-194 -212,-377z" class="fil2"/><path d="M4987 5251c-50,49 -107,91 -173,124 -328,166 -1717,69 -2064,-22 -174,-45 -329,-180 -454,-386 182,112 447,258 594,273 241,23 528,-71 733,-65 205,6 480,123 790,123 199,0 393,-7 574,-47z" class="fil2"/><path d="M5007 3610c0,0 -32,77 -60,137 -27,60 -90,157 -115,190 -25,32 -67,97 -82,127 -28,57 -49,122 -82,175 0,0 57,-52 90,-97 32,-45 119,-138 169,-220 50,-82 80,-312 80,-312z" class="fil2"/></g></svg>