<svg xmlns="http://www.w3.org/2000/svg" id="master-artboard" width="60" height="60" x="0" y="0" version="1.1" viewBox="0 0 60 60" style="enable-background:new 0 0 336 235.2"><rect id="ee-background" width="60" height="60" x="0" y="0" style="fill:#fff;fill-opacity:0;pointer-events:none"/><g transform="matrix(0.3734282851219177, 0, 0, 0.41247135400772095, -73.48537826538086, -58.71944046020508)"><metadata id="metadata60"/><g id="g4"><path id="path6" d="m 196.9092,167.5083 c 18.1128,-8.646 36.2186,-5.1078 54.3288,-2.0557 12.2548,-6.5738 30.604,-2.5226 34.2834,-1.1687 -1.2135,-5.004 -1.6841,-10.0948 -1.6024,-15.099 8.3225,0.3067 15.9865,1.1468 23.987,3.0934 10.8828,-5.5091 22.3112,-10.0908 33.1949,-9.7319 -0.309,1.2985 -4.3249,7.7346 -13.1684,14.3716 5.8983,1.9715 17.6581,4.9899 29.6501,12.3531 -8.2273,11.0586 -16.1402,22.3535 -23.739,33.8843 -10.2475,-5.0791 -20.626,-9.7957 -30.6638,-15.0846 2.7448,6.656 5.3847,12.7128 7.8171,19.6824 -1.8998,1.1687 -3.3301,2.4939 -4.2911,3.9761 5.4641,2.4976 10.1943,5.2404 14.7192,8.0521 1.1061,0.7138 2.2961,0.6744 3.524,0.2937 -0.2344,1.0366 0.5352,1.4046 1.7621,1.4683 -0.5979,0.5264 -0.8918,1.1138 -0.8811,1.762 0.264,0.552 0.9803,1.0432 1.8533,1.1092 -0.6049,0.525 -1.1488,0.9363 -1.2659,1.8275 0.4008,0.6636 1.3368,1.2204 2.3493,1.7621 -1.5647,0.4118 -3.168,0.8073 -4.1113,1.4683 0,0.9788 -0.5298,1.8386 -0.5298,2.8176 -5.8147,0.3266 -10.7042,1.01 -16.5186,2.1272 -0.1579,1.2781 -0.7113,1.5281 -0.8689,2.8063 -1.8289,2.8924 -3.6578,5.7849 -5.4867,8.6774 1.3861,9.9258 9.8833,23.9748 0.7914,32.0269 5.1597,4.1052 5.8641,7.325 6.2204,9.6911 -3.6048,2.2496 -19.984,-6.4204 -15.6711,-6.6342 -15.1251,-1.6444 -28.8122,-1.4748 -41.9414,-0.1202 -13.2463,8.2783 -15.8995,7.0365 -19.9497,6.7879 -2.2977,-1.1248 -0.8909,-3.8398 3.7979,-7.9625 -6.5004,-4.9774 -7.7193,-17.7866 1.0862,-49.4241 -8.8117,-11.7045 -14.5355,-24.8062 -14.9385,-39.687 -0.8811,-0.881 -1.4185,-2.2201 -2.2995,-3.1011 0.5873,-0.0981 1.1747,-0.1959 1.762,-0.2937 0.1307,-1.0556 0.0329,-2.0347 -0.2937,-2.9367 0.7849,-0.006 1.7042,-0.4152 2.6431,-0.881 0.0354,-0.881 -0.0247,-1.7623 -0.2937,-2.643 0.6854,0.2129 1.37,0.3869 2.0557,0.2937 0.5009,-0.7282 1.04,-1.5523 0.9309,-2.5858 0.9453,0.9785 1.7767,1.8998 3.1804,2.8794 0.783,-0.2936 1.5662,-0.5873 2.3494,-0.881 1.4451,3.8648 5.4677,6.6807 8.3798,9.5692 0.2418,-4.1686 1.7433,-8.5663 3.0733,-12.5059 -16.8177,0.6985 -32.7813,-0.5774 -45.2251,-9.9847 z" style="fill:#000200;fill-rule:evenodd;stroke:#000;stroke-width:.2;stroke-dasharray:none"/><path id="path8" d="m 238.7546,192.507 -0.4652,-2.459 c -0.0584,-0.3096 -4.9425,-4.868 -6.6473,-6.9713 -0.1513,-0.6559 -0.953,-1.5287 -1.1043,-2.1846 -0.656,0.3418 -1.5288,0.358 -2.1847,0.8625 -1.0091,-1.11 -1.8556,-1.3521 -2.8647,-2.4621 -0.2018,0.6055 -0.4036,1.2109 -0.6055,1.8164 -0.7061,0.2171 -1.629,0.163 -2.3357,-0.0541 0.2625,0.9893 0.2327,1.7781 -0.0862,2.476 -0.4541,0.0627 -1.9372,1.3187 -2.3916,0.9445 0.1123,0.9085 0.8385,1.7632 0.6613,2.6711 -0.7064,0.3532 -1.3586,0.1094 -2.065,0.4626 0.7569,0.9587 1.4054,1.8091 2.1623,2.7678 0.3999,16.3346 6.764,27.847 14.7481,38.1767 0.4541,-1.0596 0.9082,-2.1192 1.3623,-3.1788 -0.3532,1.9174 -0.7064,3.8347 -1.0596,5.7521 -1.766,8.9308 -3.532,17.8617 -5.2979,26.7925 -0.923,8.7622 -0.7563,16.9702 5.6006,22.1 -2.1001,1.4916 -3.8863,3.1408 -5.0638,5.095 -1.4703,2.4415 -0.3336,1.5551 1.431,0.6432 1.6647,-0.8609 3.3301,-1.8779 4.9952,-3.0135 -1.1413,0.8323 -2.3037,1.654 -3.2553,2.5812 -2.2649,2.2054 -1.0857,1.8706 1.2364,1.3632 4.3526,-0.9507 8.9039,-3.1439 13.3716,-5.6129 -2.0588,-0.0878 -3.2136,-0.1596 -4.2383,-0.4507 16.8063,-2.0134 31.987,-1.9893 50.4062,0 -0.8073,0.2523 -1.6146,0.5046 -2.4219,0.7569 4.6372,2.8922 7.9018,5.754 14.8898,6.0786 -0.9677,-3.9926 -2.9149,-6.3621 -5.959,-9.106 6.7411,-9.3348 1.6297,-21.1913 -1.0516,-32.8473 -1.5531,-6.0044 -2.1668,-12.0087 -2.1272,-18.0131 0.2365,1.0406 0.3569,2.0931 0.5891,3.1218 0.9944,4.4053 1.8898,2.8834 6.393,2.8959 5.2829,0.0147 11.7708,-1.5375 18.4819,-1.8184 0.0935,-0.6194 0.1513,-0.8416 0.2451,-1.4607 0.0794,-0.3561 0.1588,-0.7121 0.2382,-1.0681 0.9181,-0.4933 2.5732,-0.7852 3.4917,-1.2782 -0.5278,-0.4631 -1.1449,-1.1721 -1.6725,-1.635 0.1985,-0.5989 0.5307,-1.22 1.042,-1.6843 -0.5487,-0.1826 -1.2761,-0.6106 -1.5868,-1.0608 -0.1403,-0.6111 0.1043,-1.3643 0.6903,-1.7671 -1.2025,-0.4371 -1.8207,-0.8813 -1.6762,-1.421 -0.6358,0.4091 -1.7716,0.4655 -2.5222,0.0241 -7.5566,-4.8141 -15.1379,-8.6156 -21.0776,-11.0134 -1.9809,3.8588 -5.523,6.9842 -9.5352,9.5904 6.0548,-4.1496 11.2808,-9.9575 9.4414,-22.0524 0.7452,-7.0591 1.5746,-17.0507 -2.8491,-22.5371 14.9519,-3.7551 16.9211,-8.6947 23.3926,-13.2222 2.0276,-5.1582 3.7497,-10.3167 4.7985,-15.4758 -14.0035,2.7012 -26.3424,11.7099 -37.7646,20.1478 0.8005,0.396 1.9415,0.7807 2.2258,1.4882 -9.3045,-5.6253 -27.6387,-7.3757 -39.5116,-1.4267 -22.9581,-4.0337 -32.7481,-3.9268 -38.4639,-2.6302 1.7595,5.8371 4.8311,10.8604 11.1376,13.659 5.8561,0.4088 13.9604,0.8583 18.6271,0.1877 0.1913,-0.7991 1.527,-2.7151 2.0253,-3.6295 -6.9559,15.5171 -6.1327,23.7141 -5.2483,31.8529 1.3626,4.8342 5.25,10.5738 10.1208,14.9451 -4.7483,-3.2139 -8.0201,-8.5828 -10.2487,-13.7934 -5.0799,-5.881 -2.5404,-10.4777 -0.4237,-13.9255 z" style="fill:#fee200;fill-rule:evenodd"/><g id="g10"><path id="path12" d="m 253.6168,177.2629 a 4.5863,5.2994 42.0299 0 1 4.1661,4.9923 4.5863,5.2994 42.0299 1 1 -4.1661,-4.9923 z" style="fill:#1b1918;fill-rule:evenodd"/><path id="path14" d="m 254.9536,178.4477 a 2.3536,2.7195 42.0299 0 1 2.1379,2.562 2.3536,2.7195 42.0299 1 1 -2.1379,-2.562 z" style="fill:#fff;fill-rule:evenodd"/></g><g id="g16"><path id="path18" d="m 289.8526,180.1412 a 4.5863,5.2994 -26.5409 0 0 -5.348,3.6985 4.5863,5.2994 -26.5409 1 0 5.348,-3.6985 z" style="fill:#1b1918;fill-rule:evenodd"/><path id="path20" d="m 288.248,180.926 a 2.3536,2.7195 -26.5409 0 0 -2.7445,1.898 2.3536,2.7195 -26.5409 1 0 2.7445,-1.898 z" style="fill:#fff;fill-rule:evenodd"/></g><path id="path22" d="m 270.6554,187.4177 a 1.3822,0.5409 0 0 1 1.3821,0.5409 1.3822,0.5409 0 1 1 -1.3821,-0.5409 z" style="fill:#1b1918;fill-rule:evenodd"/><g id="g24"><path id="path26" d="m 243.2026,191.0234 a 6.6208,7.9325 0 0 1 6.6208,7.9324 6.6208,7.9325 0 1 1 -6.6208,-7.9324 z" style="fill:#1b1918;fill-rule:evenodd"/><path id="path28" d="m 243.2026,191.3839 a 6.3199,7.5719 0 0 1 6.3199,7.5719 6.3199,7.5719 0 1 1 -6.3199,-7.5719 z" style="fill:#e30016;fill-rule:evenodd"/></g><g id="g30"><path id="path32" d="m 296.2947,196.4329 a 6.6386,8.0306 10.0124 0 1 6.2331,7.992 6.6386,8.0306 10.0124 1 1 -6.2331,-7.992 z" style="fill:#1b1918;fill-rule:evenodd"/><path id="path34" d="m 296.2749,196.7961 a 6.3368,7.6656 10.0124 0 1 5.9497,7.6288 6.3368,7.6656 10.0124 1 1 -5.9497,-7.6288 z" style="fill:#e30016;fill-rule:evenodd"/></g><path id="path36" d="m 257.0338,194.0729 c 3.761,3.4095 8.2074,2.2717 12.776,-1.4709 4.3373,3.8211 9.1213,5.9423 14.8317,3.6771 -1.3096,1.6787 -3.4305,1.7736 -5.1313,2.2765 -1.089,6.5571 -4.7931,12.5668 -10.9485,16.2558 -3.9336,-4.1227 -7.3307,-9.2046 -8.5173,-18.2381 -1.4195,-0.4172 -2.3745,-1.2997 -3.0106,-2.5004 z" style="fill:#1b1918;fill-rule:evenodd;stroke:#000;stroke-width:.2;stroke-dasharray:none"/><path id="path38" d="m 261.3423,201.108 c 1.5981,5.7424 4.1456,10.6457 7.3443,12.9851 4.7459,-2.552 7.4256,-7.2285 9.3744,-12.5826 -5.2083,-4.5924 -11.036,-5.1693 -16.7187,-0.4025 z" style="fill:#f5b1b5;fill-rule:evenodd"/><path id="path40" d="m 260.6621,196.5898 0.6832,4.5156 c 5.6418,-4.7299 11.493,-3.9983 16.7462,0.3597 l 0.7642,-3.5022 c -3.3573,-0.7254 -6.4188,-2.1022 -9.1213,-4.2665 -2.842,1.9378 -5.8385,3.0487 -9.0723,2.8934 z m 0.6883,4.5473 0.0473,0.3076 0.0394,8e-4 -0.0867,-0.3084 z" style="fill:#e30016;fill-rule:evenodd"/><path id="path42" d="m 284.2991,149.7081 c 8.1388,-0.2429 15.8902,1.3488 23.1466,2.8933 -3.6304,1.9939 -7.4648,4.3314 -10.1092,6.3261 -3.9697,-3.6501 -8.104,-7.107 -13.0374,-9.2194 z" style="fill:#fee200;fill-rule:evenodd"/><path id="path44" d="m 284.3481,149.61 c 4.7276,2.0455 9.1418,5.2824 13.3098,9.156 -3.3474,2.4332 -6.9758,4.4974 -9.4464,6.7183 -0.7124,-0.2593 -1.3607,-0.5465 -2.3432,-0.9663 -1.0714,-5.0026 -1.7572,-9.9062 -1.5202,-14.908 z" style="fill:#f19818;fill-rule:evenodd"/><path id="path46" d="m 298.8317,174.6737 c 2.3364,2.6776 2.89,7.5325 3.2865,12.1584 l 31.5545,15.457 1.6217,-2.6456 c -7.7979,-9.8957 -15.5957,-19.7912 -23.3932,-29.6866 -4.0519,1.737 -8.6548,3.5254 -13.0695,4.7168 z" style="fill:#f19818;fill-rule:evenodd"/><path id="path48" d="m 327.257,157.663 c 10.1364,2.5617 19.906,6.7745 29.5095,11.738 -8.1416,10.4941 -15.3451,20.9548 -22.153,31.4498 -7.7522,-10.2022 -15.4012,-20.37 -23.1534,-30.5722 4.9912,-3.4135 10.1727,-7.4557 15.7969,-12.6156 z" style="fill:#fee200;fill-rule:evenodd"/><path id="path50" d="m 301.9334,188.0501 8.1218,19.1795 c -1.5205,1.2387 -3.041,2.4778 -4.5615,3.7168 -1.3515,-0.6477 -2.7031,-1.2954 -4.0546,-1.9429 2.0052,-3.2258 1.8708,-6.7189 0.2721,-10.3952 -0.2886,-2.9894 -0.3237,-7.5546 0.2222,-10.5582 z" style="fill:#f19818;fill-rule:evenodd"/><path id="path52" d="m 306.1871,234.2588 c 0.1823,0.3447 0.3648,0.6894 0.5474,1.0341 -1.6334,3.6167 -3.5785,6.6115 -5.5591,9.5366 -0.6485,-3.1839 -1.2971,-6.3678 -1.9457,-9.5516 0.0394,-0.1769 -0.3951,-2.6374 -0.356,-2.8143 0.9442,2.9393 5.0338,1.6566 7.3134,1.7952 z" style="fill:#522d23;fill-rule:evenodd"/><path id="path54" d="m 263.1254,226.283 c 6.0353,4.1096 6.3114,3.9146 12.4124,0.6054 -4.4927,0.2597 -8.1295,0.5296 -12.4124,-0.6054 z" style="fill:#f19818;fill-rule:evenodd"/></g></g></svg>