<svg xmlns="http://www.w3.org/2000/svg" id="master-artboard" width="60" height="60" x="0" y="0" version="1.1" viewBox="0 0 60 60" style="enable-background:new 0 0 336 235.2"><rect id="ee-background" width="60" height="60" x="0" y="0" style="fill:#fff;fill-opacity:0;pointer-events:none"/><g transform="matrix(0.01424342766404152, 0, 0, 0.01569286547601223, -29.022168159484863, -60.51323699951172)"><g id="__x0023_Layer_x0020_1"><metadata id="CorelCorpID_0Corel-Layer"/><g id="_301741320"><path d="M4970 4617c-2,7 -9,7 -13,10 -156,87 -326,137 -499,178 -16,4 -32,7 -49,11 1,3 2,5 3,7 56,94 87,196 102,304 20,145 34,291 52,437 16,126 43,251 64,377 36,218 98,430 144,646 9,43 19,85 25,128 0,3 2,6 3,10 47,-24 93,-48 139,-71 10,-5 3,-11 1,-15 -30,-62 -60,-124 -90,-186 -10,-20 -10,-20 10,-30 59,-28 118,-56 177,-83 11,-5 12,-9 8,-20 -42,-103 -84,-205 -125,-308 -9,-21 -8,-22 14,-31 98,-38 196,-75 296,-108 0,-6 -4,-10 -7,-14 -141,-206 -283,-413 -424,-619 -13,-19 -13,-19 6,-32 238,-162 482,-316 729,-465 112,-68 224,-134 339,-195 11,-6 18,-6 24,6 112,216 225,432 318,657 10,24 18,48 27,71 5,12 2,18 -10,22 -137,51 -274,102 -414,146 -140,45 -281,89 -423,128 -13,4 -14,8 -11,21 39,123 78,247 116,370 6,20 6,21 -14,28 -93,32 -185,65 -278,96 -11,4 -13,8 -10,19 27,93 53,186 80,278 5,16 1,23 -14,29 -80,34 -159,70 -239,104 -12,5 -12,10 -7,20 24,56 48,112 72,168 7,17 7,19 -11,25 -86,30 -171,60 -257,89 -8,3 -14,4 -14,16 6,165 -61,304 -155,434 -23,32 -50,62 -79,89 -28,26 -60,45 -96,59 -8,3 -14,8 -20,15 -60,81 -137,141 -221,195 -15,10 -32,19 -49,22 -20,4 -40,5 -61,6 -2,0 -7,-1 -7,-2 -4,-17 -17,-12 -29,-13 -13,-1 -12,-12 -10,-21 7,-53 21,-103 49,-149 3,-5 10,-12 -4,-13 -88,-9 -175,-29 -262,-47 -65,-14 -130,-26 -196,-32 -23,-2 -46,6 -69,10 -114,17 -228,28 -343,18 -11,-1 -18,2 -25,11 -28,35 -65,61 -102,87 -44,31 -90,59 -138,82 -12,5 -24,13 -36,0 -1,-1 -5,-1 -8,0 -14,2 -20,-5 -30,-17 -22,-26 -9,-48 -2,-72 20,-61 52,-113 101,-157 -48,-32 -88,-71 -122,-117 -58,-81 -66,-169 -41,-262 7,-27 18,-53 32,-78 29,-51 51,-105 74,-159 4,-10 3,-17 -4,-25 -64,-80 -114,-167 -136,-267 -39,-182 -13,-355 85,-515 11,-18 21,-36 35,-51 7,-8 5,-11 -1,-18 -45,-47 -89,-94 -128,-146 -34,-45 -62,-93 -84,-144 -25,-58 -26,-113 8,-169 48,-80 65,-169 71,-262 6,-98 21,-195 56,-288 10,-25 21,-49 34,-72 3,-6 6,-9 -3,-13 -189,-91 -347,-225 -493,-373 -8,-8 -15,-16 -23,-24 -1,-7 4,-6 8,-6 6,1 10,5 13,10 6,15 9,4 13,-1 9,0 10,7 12,13 4,14 12,24 22,34 85,84 175,162 274,229 55,39 112,75 173,103 8,4 14,4 19,-4 7,-12 16,-22 24,-34 15,-20 33,-37 52,-53 2,-2 4,-4 6,-5 4,-2 8,-4 12,-1 5,5 1,9 -2,13 -13,16 -29,30 -42,45 -52,59 -85,128 -106,203 -19,69 -29,140 -36,212 -4,45 -5,90 -15,134 -4,20 -12,39 -18,58 -2,7 -3,14 3,19 32,26 44,63 53,101 14,63 12,126 -9,187 -5,15 -12,28 -23,40 -8,8 -7,14 -1,22 29,39 61,76 93,113 64,73 140,132 216,190 2,1 4,2 5,4 5,5 15,9 9,17 -6,7 -14,0 -20,-4 -49,-34 -95,-71 -140,-110 -18,-16 -20,-17 -34,4 -50,74 -87,153 -106,241 -11,48 -17,97 -16,147 1,142 42,270 128,383 20,27 40,53 65,77 9,9 15,19 17,32 2,13 8,15 19,8 13,-8 26,-9 39,1 7,6 13,3 20,-3 17,-16 18,-16 37,-5 11,7 16,6 21,-7 5,-15 10,-17 27,-13 25,6 27,12 32,-23 3,-22 5,-25 26,-30 9,-2 13,-6 10,-15 -2,-7 -2,-15 -1,-22 7,-69 9,-138 9,-207 0,-108 -26,-210 -72,-308 -4,-9 -8,-18 -12,-28 -2,-5 -6,-11 1,-14 6,-3 10,3 12,7 11,18 21,36 29,55 32,72 54,147 59,226 3,50 6,99 2,149 -4,42 -7,84 -8,125 0,8 2,16 4,23 4,15 1,20 -14,24 -25,7 -25,7 -28,32 -1,5 -2,10 -3,16 -3,11 -10,16 -21,14 -5,-1 -10,-1 -14,-3 -12,-4 -19,-2 -25,11 -8,18 -16,20 -33,10 -12,-8 -22,-9 -32,3 -8,10 -19,11 -30,3 -11,-8 -21,-8 -33,-2 -25,13 -32,10 -38,-18 -4,-18 -14,-30 -27,-42 -7,-7 -11,-6 -15,3 -9,21 -18,42 -26,63 -19,45 -46,86 -64,132 -29,72 -29,145 -4,218 9,27 26,49 42,71 25,35 58,63 91,90 11,9 24,16 37,21 5,2 12,5 10,12 -2,7 -9,4 -14,2 -8,-3 -14,0 -20,6 -53,50 -84,111 -100,181 6,-16 14,-31 22,-46 9,-15 18,-30 30,-43 2,-2 3,-4 5,-6 4,-4 9,-7 14,-3 6,5 1,10 -2,14 -14,17 -25,36 -35,55 -8,14 -14,30 -18,46 -1,5 -4,12 4,14 7,2 11,-2 13,-9 8,-25 25,-44 41,-64 6,-7 12,-14 19,-19 4,-3 9,-6 13,-1 5,4 0,9 -2,13 -10,13 -21,25 -31,39 -8,12 -17,23 -21,37 -2,8 0,11 9,8 17,-6 32,-16 48,-25 34,-18 65,-40 97,-61 26,-21 55,-40 78,-65 3,-3 9,-6 8,-11 -2,-6 -9,-4 -14,-5 -28,-3 -55,-8 -81,-16 -7,-2 -19,-4 -17,-13 3,-11 14,-7 22,-5 55,12 111,17 167,21 82,5 163,-2 244,-12 20,-3 40,-3 61,-5 -25,3 -50,4 -75,3 -6,0 -14,0 -14,-7 -1,-9 8,-8 14,-8 73,-8 146,-3 219,8 74,11 146,28 219,43 95,19 191,37 289,32 88,-4 174,-17 254,-57 42,-21 74,-54 106,-88 10,-11 19,-22 28,-33 62,-82 111,-171 140,-270 13,-44 17,-90 19,-135 1,-20 0,-21 -19,-24 -23,-4 -45,-9 -67,-14 -45,-11 -84,-32 -121,-59 -28,-20 -27,-38 3,-56 22,-13 44,-25 68,-35 31,-12 61,-25 92,-37 19,-7 20,-8 16,-28 -14,-68 -30,-135 -46,-202 -10,-45 -23,-90 -33,-135 -4,-15 -11,-22 -26,-25 -61,-10 -121,-25 -176,-55 -14,-8 -27,-17 -38,-28 -11,-12 -12,-25 -2,-39 6,-8 13,-13 22,-19 44,-27 93,-41 142,-54 30,-8 27,-6 22,-35 -28,-155 -60,-310 -81,-466 -9,-64 -13,-128 -21,-192 -13,-106 -23,-213 -44,-319 -7,-36 -20,-71 -31,-105 -13,-38 -31,-73 -51,-108 -6,-10 -13,-13 -25,-11 -17,3 -33,5 -50,5 -6,-1 -11,-3 -9,-10 4,-5 10,-6 15,-7 95,-16 188,-40 281,-65 79,-23 157,-48 232,-84 15,-7 31,-14 46,-21 21,-11 44,-20 56,-42 1,-2 4,-4 6,-4 4,0 7,1 6,5 -3,10 5,12 10,16z" class="fil0" style="fill:#211613"/><path d="M2412 4367c-2,6 2,14 -6,16 -6,1 -9,-5 -10,-11 4,-7 -1,-12 -3,-18 -28,-80 -43,-162 -48,-246 -3,-44 -5,-89 3,-133 2,-13 -6,-17 -15,-21 -29,-13 -58,-27 -87,-39 -56,-24 -113,-44 -172,-58 -5,-1 -10,-3 -17,-2 -1,9 4,16 7,23 61,134 137,259 232,372 26,30 50,62 78,91 6,6 14,12 13,23 -4,0 -8,0 -10,4 -55,-60 -107,-123 -156,-189 -34,-45 -65,-92 -93,-141 -33,-58 -67,-117 -90,-181 -2,-6 -7,-14 -2,-17 4,-3 13,-3 19,-1 38,10 75,20 112,32 61,21 120,48 178,76 294,142 539,346 750,593 8,9 12,25 23,26 10,1 20,-11 31,-15 90,-40 183,-67 280,-81 83,-12 166,-20 249,-16 140,6 277,27 408,79 28,11 55,23 79,41 8,6 13,6 21,0 96,-76 202,-137 312,-191 142,-70 288,-129 444,-163 74,-16 149,-30 225,-38 43,-4 86,-10 129,-9 15,-3 31,1 46,-2 18,0 35,-1 53,-1 34,-2 69,-2 103,0 2,17 -12,25 -21,37 -37,52 -81,99 -128,142 -5,2 -9,7 -13,10 -3,3 -6,6 -11,2 0,-9 7,-14 13,-19 43,-41 83,-85 119,-132 5,-7 11,-14 16,-22 -5,-6 -10,-4 -15,-4 -59,-2 -118,1 -177,4 -47,2 -94,7 -141,12 -11,1 -15,6 -15,17 0,70 -23,134 -51,196 -30,66 -64,129 -104,193 106,-57 205,-120 295,-197 12,-10 23,-20 34,-31 6,-6 12,-13 23,-13 4,6 -2,9 -3,14 -10,15 -25,25 -39,36 -51,43 -104,84 -161,120 -48,30 -95,60 -145,85 -2,1 -4,1 -6,1 -18,3 -14,-10 -14,-19 -1,-4 1,-7 3,-10 21,-32 38,-66 57,-99 21,-37 37,-76 54,-115 20,-48 34,-98 38,-151 1,-17 -2,-20 -19,-17 -92,16 -184,33 -273,62 -190,61 -369,147 -536,256 -33,21 -64,46 -95,70 -4,3 -8,7 -13,9 -8,3 -15,3 -14,-8 1,-10 -6,-14 -13,-18 -23,-14 -48,-25 -74,-34 -85,-32 -173,-53 -263,-64 -59,-7 -118,-13 -178,-12 -155,4 -307,27 -451,86 -25,10 -49,23 -73,36 -4,2 -8,5 -13,6 -4,1 -8,1 -10,-3 -2,-3 0,-6 2,-9 4,-5 12,-7 11,-14 -1,-8 -8,-13 -12,-18 -58,-70 -121,-136 -186,-199 -128,-122 -267,-228 -419,-318 -32,-19 -65,-37 -97,-54 -12,-7 -15,-5 -19,9 -1,3 -1,6 -1,9 -4,109 6,215 38,320 4,12 7,24 12,36 2,5 4,10 0,15z" class="fil0" style="fill:#211613"/><path d="M5498 4167c-34,0 -68,0 -103,0 33,-4 66,-2 100,-2 1,0 2,2 3,3z" class="fil1" style="fill:#2a2423"/><path d="M5326 4359c10,0 13,-13 23,-13 -9,11 -19,20 -29,29 1,-4 2,-9 3,-13 -1,-3 0,-4 3,-3z" class="fil0" style="fill:#211613"/><path d="M5342 4168c-15,6 -31,2 -46,2 15,-4 31,-3 46,-2z" class="fil1" style="fill:#2a2423"/><path d="M2412 4367c-8,-26 -16,-51 -23,-77 -12,-39 -19,-80 -25,-120 -7,-51 -8,-103 -6,-154 0,-11 -1,-22 2,-34 4,-17 9,-15 21,-9 126,66 245,143 356,231 128,102 246,216 351,342 1,1 1,2 2,2 17,21 17,21 -3,37 -1,1 -2,3 -3,5 6,5 10,0 13,-2 102,-58 212,-89 326,-108 60,-10 121,-17 182,-17 169,-2 334,19 491,84 21,9 40,19 59,31 5,3 14,6 4,15 -2,2 -2,5 1,7 2,2 5,1 7,0 4,-3 9,-6 13,-10 215,-164 455,-278 715,-350 65,-18 132,-28 198,-40 13,-2 19,1 18,16 -3,57 -19,111 -40,163 -12,30 -24,61 -40,89 -25,43 -45,90 -75,130 -15,26 -40,38 -65,50 -86,43 -176,75 -268,102 -2,1 -5,1 -8,1 -59,15 -119,20 -179,17 -30,-1 -60,-4 -91,-3 -23,0 -24,2 -23,25 1,10 7,22 -4,31 -1,8 6,5 9,7 4,1 6,4 7,8 15,33 40,59 66,83 11,10 25,16 39,19 5,1 11,0 15,4 26,63 39,129 48,196 20,146 33,292 52,438 15,120 39,239 62,358 7,37 13,74 21,111 3,12 -2,15 -12,17 -50,12 -100,25 -145,50 -8,5 -17,10 -24,15 -22,16 -23,34 -1,50 39,30 84,47 131,60 27,7 55,12 83,17 10,2 16,5 19,17 31,118 57,237 84,356 3,11 -1,15 -11,19 -54,21 -110,40 -161,69 -40,23 -40,35 -2,61 56,39 119,56 184,66 14,2 16,8 16,20 1,115 -37,218 -93,315 -20,35 -40,69 -67,99 -34,29 -76,40 -117,52 -48,15 -97,17 -146,19 -39,1 -78,0 -116,0 -89,1 -177,-12 -263,-37 -96,-27 -190,-62 -284,-95 -73,-26 -147,-49 -225,-55 -68,-5 -134,6 -196,33 -42,18 -84,37 -128,48 -81,20 -159,14 -233,-27 -23,-12 -43,-27 -57,-50 -23,-59 -26,-120 -11,-181 9,-37 25,-71 44,-104 25,-45 44,-92 63,-139 4,-10 6,-11 14,-3 17,17 33,34 35,60 1,13 10,17 21,10 4,-2 8,-3 11,-6 12,-9 22,-8 33,2 11,11 21,8 29,-4 8,-13 17,-13 28,-4 3,2 6,4 9,6 11,7 18,4 23,-9 8,-21 8,-21 30,-15 5,1 9,2 14,3 10,2 15,-2 17,-12 2,-11 4,-22 5,-33 1,-11 5,-15 16,-15 2,0 3,-1 5,-1 25,-5 25,-5 17,-29 -5,-15 -1,-31 1,-46 8,-89 12,-178 2,-267 -10,-93 -41,-179 -86,-260 -1,-2 -2,-3 -4,-5 -1,-1 -2,0 -4,-1 -4,6 2,11 4,15 34,73 64,147 76,227 11,73 11,147 6,221 -2,32 -5,65 -7,97 0,5 -2,11 0,14 12,20 -2,23 -16,23 -14,0 -18,8 -19,20 -1,13 1,29 -8,36 -8,7 -23,-3 -34,-6 -12,-4 -15,4 -18,12 -8,20 -9,22 -27,9 -15,-11 -24,-8 -34,6 -4,6 -9,14 -19,5 -14,-14 -27,-11 -43,-1 -16,10 -17,9 -20,-10 -2,-14 -9,-24 -18,-34 -91,-98 -159,-207 -181,-341 -31,-184 6,-355 111,-510 18,-26 18,-25 41,-5 44,38 89,74 136,107 3,2 6,5 9,6 3,2 7,7 11,2 3,-5 -3,-7 -6,-9 -49,-37 -97,-74 -143,-115 -68,-61 -128,-129 -181,-203 -3,-4 -10,-8 -2,-15 29,-24 36,-59 42,-94 11,-58 5,-116 -14,-171 -9,-26 -21,-52 -46,-66 -5,-3 -5,-6 -3,-11 33,-75 31,-157 40,-236 7,-65 18,-129 36,-192 26,-88 72,-165 138,-229 4,-4 11,-7 11,-18 -15,9 -26,20 -37,31 -11,11 -21,23 -31,34 -14,7 -27,2 -40,-1 -63,-14 -124,-32 -180,-66 -74,-48 -141,-105 -206,-164 -9,-9 -19,-17 -28,-26 -27,-27 -59,-50 -71,-89z" class="fil2" style="fill:#fdd623"/><path d="M5040 6279c-36,-89 -72,-179 -109,-268 -5,-12 -3,-16 9,-20 94,-36 188,-72 284,-104 25,-8 25,-9 10,-31 -141,-206 -281,-411 -423,-616 -8,-12 -9,-18 4,-27 338,-226 681,-443 1036,-642 32,-18 33,-18 50,15 101,195 202,390 288,593 15,35 29,69 41,105 1,8 -5,8 -10,9 -5,1 -10,2 -16,2 -57,0 -114,-1 -170,3 -49,3 -98,6 -148,10 -97,8 -194,20 -291,34 -132,19 -265,41 -394,74 -12,3 -24,6 -35,10 -17,6 -18,8 -11,24 21,47 40,95 60,143 46,112 92,224 138,336 9,23 8,26 -16,32 -83,20 -167,33 -251,41 -22,2 -44,5 -67,7 -15,2 -17,4 -13,20 16,56 33,112 49,168 3,9 5,17 5,26 0,4 0,9 -1,13 -3,11 -4,22 -8,32 -2,5 -2,12 -11,9z" class="fil2" style="fill:#fdd623"/><path d="M5056 6225c-5,-34 -17,-65 -26,-98 -10,-36 -21,-72 -32,-108 -2,-8 -2,-11 7,-12 24,-3 48,-6 72,-9 74,-7 148,-17 220,-34 15,-3 30,-7 45,-10 11,-2 13,-5 9,-17 -23,-53 -44,-107 -66,-160 -46,-112 -93,-224 -140,-336 -4,-11 -2,-13 8,-17 62,-21 127,-33 191,-46 66,-14 133,-24 200,-34 57,-9 114,-15 171,-23 64,-9 129,-14 194,-19 51,-4 101,-7 152,-10 51,-3 102,-1 153,-2 6,0 13,1 16,-7 6,11 -4,10 -9,12 -113,43 -227,85 -341,123 -163,53 -326,105 -491,151 -23,6 -23,7 -16,29 39,123 77,246 116,369 4,14 1,18 -12,22 -93,32 -185,64 -278,96 -13,5 -17,10 -13,24 10,32 18,64 27,96 3,15 1,29 0,44 0,5 -3,10 -8,11 -6,1 -8,-4 -11,-7 -8,-14 -17,-28 -24,-46 -1,17 -2,32 -4,47 -1,5 -1,10 -7,12 -6,2 -9,-3 -13,-7 -7,-8 -13,-18 -20,-28 -2,13 -3,25 -7,36 -3,11 -10,14 -19,6 -16,-15 -33,-29 -44,-47z" class="fil3" style="fill:#e4aa2f"/><path d="M2871 7165c30,29 64,53 104,66 77,25 154,20 230,-7 48,-18 94,-42 144,-55 49,-12 99,-15 149,-11 97,8 186,44 276,76 104,37 209,74 317,96 43,9 87,13 131,14 53,1 106,1 159,0 83,-2 163,-18 237,-57 6,-3 13,-7 20,-10 -63,92 -150,145 -259,166 -115,22 -229,20 -343,-2 -92,-17 -183,-37 -275,-54 -82,-15 -165,-20 -249,-11 -1,0 -3,1 -4,4 31,0 62,0 94,0 0,1 0,3 0,4 -44,5 -88,12 -132,16 -63,6 -127,8 -191,4 -54,-3 -108,-8 -161,-21 -3,-1 -5,-1 -8,-2 -3,0 -7,-1 -8,3 -1,4 3,5 6,6 20,5 40,10 61,14 18,3 36,5 58,8 -29,37 -65,62 -100,87 -5,-5 -4,-11 -4,-16 -3,-23 -9,-45 -19,-65 -14,-26 -35,-42 -64,-48 -7,-1 -15,-1 -21,-6 8,-17 23,-3 34,-6 0,-5 -3,-5 -5,-6 -80,-39 -135,-103 -175,-181 -1,-1 -1,-3 -1,-5z" class="fil3" style="fill:#e4aa2f"/><path d="M5056 6225c17,12 29,29 44,42 3,3 5,8 10,7 5,-2 5,-7 6,-12 2,-13 3,-26 8,-40 10,13 18,25 27,37 2,2 3,5 6,5 4,-1 4,-4 4,-8 3,-18 2,-37 7,-57 10,18 18,34 27,49 2,4 3,11 9,9 5,-1 4,-8 5,-13 1,-13 2,-26 4,-39 19,64 37,128 56,192 2,8 -3,9 -7,11 -71,31 -142,62 -213,93 -10,4 -20,9 -31,13 -18,8 -20,10 -12,29 23,53 45,106 68,159 9,21 9,21 -12,28 -80,28 -159,55 -239,83 -13,5 -17,2 -16,-12 0,-17 0,-34 -4,-51 -3,-12 2,-17 12,-22 44,-22 87,-45 131,-66 14,-7 15,-13 9,-27 -31,-62 -61,-125 -92,-187 -4,-8 -5,-14 5,-19 43,-20 85,-40 128,-60 25,-3 50,-6 76,-8 12,-1 15,-5 12,-16 -7,-27 -15,-54 -23,-81 -3,-10 -5,-19 -5,-30 0,-4 1,-8 1,-12z" class="fil4" style="fill:#973d0c"/><path d="M2386 4362c-37,-44 -74,-87 -110,-131 -48,-59 -92,-121 -130,-187 -32,-55 -62,-110 -87,-168 -4,-9 -7,-18 -10,-28 25,1 47,10 70,16 67,18 130,46 192,75 4,2 9,4 13,6 30,11 27,11 26,43 -2,44 -3,89 1,134 4,38 8,76 15,113 8,43 20,86 35,127 2,4 7,11 -4,11 -2,-4 -5,-7 -10,-10z" class="fil1" style="fill:#2a2423"/><path d="M3017 7363c44,1 75,21 93,61 10,24 18,48 16,75 -45,33 -93,61 -143,86 -4,2 -10,7 -15,3 -4,-4 -1,-10 1,-15 6,-23 23,-41 37,-59 7,-9 15,-18 23,-27 -9,-4 -13,2 -16,6 -23,24 -45,48 -55,81 -3,11 -13,11 -21,9 -10,-2 -7,-10 -5,-17 9,-37 28,-69 50,-99 4,-5 10,-8 8,-17 -35,29 -53,68 -69,111 -11,-42 45,-153 99,-198z" class="fil2" style="fill:#fdd623"/><path d="M4332 7552c-43,34 -85,69 -136,91 -7,3 -17,11 -23,5 -6,-7 2,-16 6,-23 13,-27 29,-52 47,-76 3,-4 9,-8 7,-15 -5,-3 -7,2 -9,4 -26,30 -48,63 -63,101 -4,10 -19,17 -29,15 -8,-2 -5,-9 -4,-13 6,-34 18,-66 36,-96 4,-7 9,-15 12,-22 2,-4 9,-9 3,-14 -6,-4 -9,4 -11,8 -21,32 -38,66 -46,104 -3,13 -10,16 -20,18 -7,1 -10,-2 -9,-9 7,-55 23,-108 53,-155 4,-6 8,-5 14,-4 25,3 51,-1 76,3 4,1 9,0 13,1 33,13 61,34 82,63 4,5 5,10 2,16z" class="fil2" style="fill:#fdd623"/><path d="M2836 5513c0,40 -5,77 -20,113 -4,11 -10,20 -18,28 -5,5 -9,7 -13,-1 -28,-49 -58,-97 -65,-154 -4,-29 4,-56 17,-81 11,-22 23,-43 33,-65 5,-11 10,-9 16,-3 17,16 27,37 35,58 12,35 17,71 16,106z" class="fil5" style="fill:#e84f23"/><path d="M4669 6243c-69,-11 -136,-27 -196,-65 -32,-20 -31,-29 0,-49 49,-30 104,-44 159,-57 7,-2 10,1 11,9 11,51 22,102 33,153 2,9 -1,11 -8,9z" class="fil6" style="fill:#c66e28"/><path d="M4796 6819c0,15 0,15 -19,12 -62,-10 -122,-26 -175,-63 -29,-20 -29,-24 1,-42 51,-29 107,-48 162,-70 7,-3 10,-1 12,7 10,51 15,102 19,157z" class="fil6" style="fill:#c66e28"/><path d="M4332 7552c-4,-21 -21,-32 -35,-45 -31,-29 -69,-38 -111,-35 -9,0 -18,3 -26,-3 47,0 93,2 140,-3 44,-5 88,-12 131,-24 4,-1 7,-3 12,-1 -33,41 -68,80 -111,111z" class="fil3" style="fill:#e4aa2f"/><path d="M4319 4821c5,-13 0,-25 -2,-37 -2,-19 0,-23 20,-24 45,-2 90,4 135,4 44,0 87,-5 131,-12 4,-1 8,0 13,-1 -59,20 -120,34 -181,48 -38,8 -77,15 -115,23z" class="fil3" style="fill:#e4aa2f"/><path d="M4455 4942c-25,1 -45,-9 -62,-26 -27,-26 -51,-53 -65,-89 19,-3 39,-4 58,-8 7,-1 11,1 14,6 22,37 42,75 55,116z" class="fil3" style="fill:#e4aa2f"/><path d="M2717 4646c26,11 51,22 78,32 46,17 93,32 142,35 -6,8 -11,15 -17,23 -15,21 -15,21 -39,9 -58,-27 -113,-61 -164,-99z" class="fil3" style="fill:#e4aa2f"/><path d="M5055 6237c14,39 23,80 34,120 2,7 -1,10 -7,11 -27,2 -53,5 -80,7 -3,0 -5,-1 -7,-3 18,-9 36,-18 54,-26 12,-5 14,-12 9,-23 -7,-14 -12,-29 -18,-44 9,-6 7,-16 9,-24 1,-6 4,-12 6,-17z" class="fil7" style="fill:#c46d28"/><path d="M5326 4359c-1,1 -2,2 -3,3 -41,32 -78,68 -119,99 -42,31 -85,59 -129,87 -35,22 -71,43 -113,62 14,-23 26,-43 38,-64 49,-88 97,-177 117,-277 4,-19 6,-39 5,-58 -1,-14 6,-18 18,-18 40,-3 80,-7 120,-10 68,-5 135,-6 203,-6 6,0 15,-3 18,3 3,5 -4,11 -8,16 -38,50 -79,97 -124,140 -8,7 -14,15 -22,23z" class="fil1" style="fill:#2a2423"/><path d="M4093 5213c-1,42 -15,88 -61,112 -113,60 -226,-11 -236,-121 -7,-73 22,-124 81,-149 101,-43 222,41 216,157z" class="fil8" style="fill:#1f1613"/><path d="M3126 5173c-1,40 -6,79 -36,111 -50,53 -137,43 -173,-20 -33,-58 -22,-150 26,-197 29,-29 66,-38 106,-31 35,6 52,33 64,63 10,24 13,49 13,75z" class="fil8" style="fill:#1f1613"/><path d="M3287 6041c52,15 105,17 157,16 42,-1 85,0 127,-3 16,-1 32,-3 47,-3 8,0 13,2 7,11 -35,53 -79,95 -138,120 -17,8 -35,3 -51,-4 -65,-29 -113,-77 -150,-137z" class="fil3" style="fill:#e4aa2f"/><path d="M4203 6645c14,-28 32,-54 48,-80 23,-38 45,-77 66,-116 21,-40 42,-80 63,-120 2,-5 5,-11 11,-11 7,0 9,7 11,12 10,22 13,46 17,69 5,27 3,54 3,81 1,21 -8,37 -21,51 -31,34 -69,56 -108,77 -21,11 -41,26 -66,31 6,-18 22,-29 34,-43 42,-46 115,-167 131,-216 -44,90 -96,181 -172,255 -5,5 -8,13 -18,10z" class="fil3" style="fill:#e4aa2f"/><path d="M4203 6645c37,-32 69,-69 96,-110 35,-53 68,-106 92,-165 1,-3 3,-5 5,-8 6,3 4,7 2,11 -6,18 -14,36 -22,53 -40,78 -87,151 -149,213 -53,48 -109,93 -171,130 -17,10 -33,22 -51,29 -43,17 -81,40 -112,75 -14,15 -21,14 -30,-4 -8,-16 -15,-19 -31,-10 -18,11 -19,9 -28,-10 -1,-1 -2,-3 -2,-4 -10,-20 -11,-21 -32,-14 -13,4 -22,3 -24,-13 -2,-16 -9,-25 -27,-19 -12,4 -18,-3 -17,-15 0,-4 -1,-8 0,-11 2,-14 -3,-19 -17,-19 -21,-1 -23,-5 -12,-21 21,-29 20,-61 22,-94 8,-155 57,-297 144,-426 44,-65 101,-119 164,-166 2,-2 5,-5 10,-3 0,7 -7,10 -11,13 -65,54 -123,112 -168,184 -67,108 -112,225 -123,353 -1,16 -4,32 -5,48 -2,34 1,70 -29,101 35,-4 40,14 37,38 -1,8 4,8 10,7 24,-3 24,-3 31,21 2,9 3,14 15,10 27,-8 28,-8 40,18 6,13 11,16 24,9 24,-13 20,-14 34,10 9,16 11,17 23,3 28,-32 63,-50 100,-68 78,-38 148,-88 211,-147z" class="fil9" style="fill:#211813"/><path d="M3967 5590c0,-101 81,-182 182,-182 101,0 184,81 184,181 1,100 -83,183 -184,182 -106,-1 -186,-86 -182,-181z" class="fil10" style="fill:#231813"/><path d="M3475 5590c-18,0 -33,-7 -48,-15 -27,-14 -55,-28 -82,-43 -9,-5 -16,-5 -25,0 -26,13 -52,24 -78,35 -23,9 -42,6 -60,-11 -7,-7 -15,-13 -23,-20 -3,-3 -9,-7 -4,-12 5,-5 8,1 12,3 10,8 20,17 31,25 10,8 21,9 33,5 30,-9 57,-22 85,-36 13,-7 24,-7 37,1 27,15 56,29 83,44 26,14 52,17 78,0 13,-8 26,-16 40,-23 3,-2 7,-4 10,0 2,3 0,6 -2,8 -13,13 -68,39 -84,39z" class="fil10" style="fill:#231813"/><path d="M3344 5364c12,0 23,-1 35,0 10,1 12,6 5,14 -12,13 -27,22 -44,28 -9,3 -44,-21 -45,-31 -1,-8 5,-11 12,-12 12,-1 24,0 37,0 0,0 0,0 0,0z" class="fil0" style="fill:#211613"/><path d="M3894 5198c-32,0 -50,-19 -50,-52 0,-35 26,-62 61,-63 28,0 51,23 51,52 0,38 -24,63 -61,63z" class="fil11" style="fill:#fdfdfd"/><path d="M3085 5127c1,15 -7,27 -17,36 -18,17 -41,14 -54,-7 -12,-19 -9,-51 6,-69 19,-22 47,-18 59,9 4,10 5,20 6,31z" class="fil11" style="fill:#fdfdfd"/><path d="M4148 5760c-92,0 -174,-74 -170,-176 3,-91 81,-165 175,-164 96,1 171,78 170,174 -1,93 -79,167 -174,166z" class="fil5" style="fill:#e84f23"/></g></g></g></svg>