<svg xmlns="http://www.w3.org/2000/svg" id="master-artboard" width="60" height="60" x="0" y="0" version="1.1" viewBox="0 0 60 60" style="enable-background:new 0 0 336 235.2"><rect id="ee-background" width="60" height="60" x="0" y="0" style="fill:#fff;fill-opacity:0;pointer-events:none"/><g transform="matrix(0.1152530238032341, 0, 0, 0.1259998232126236, -1.4800347089767456, -9.80532693862915)"><metadata id="metadata78"/><g id="g4"><path id="path6" d="m 154.3972,514.3895 c -5.1894,5.7113 -18.4158,39.1088 0.7818,34.399 11.336,-10.5542 22.2812,-21.1084 31.6627,-31.6627 l -32.4445,-2.7363 z" style="fill:#ffec00;fill-rule:evenodd;stroke:#1b1918;stroke-width:1.00010002;stroke-linecap:butt;stroke-linejoin:miter;stroke-dasharray:none"/><g id="g8"><path id="path10" d="m 291.9932,527.2892 c 4.2636,4.5793 41.6304,39.3828 38.6988,14.4632 -3.518,-8.2089 -5.4725,-16.4177 -10.5542,-24.6266 l -28.1446,10.1634 z" style="fill:#ffec00;fill-rule:evenodd;stroke:#1b1918;stroke-width:1.00010002;stroke-linecap:butt;stroke-linejoin:miter;stroke-dasharray:none"/><path id="path12" d="m 328.0822,550.0939 c -3.7857,-4.0799 -6.469,-8.7112 -11.3576,-12.2397" style="fill:#1b1918;fill-rule:evenodd;stroke:#1b1918;stroke-width:1.00010002;stroke-linecap:butt;stroke-linejoin:miter;stroke-dasharray:none"/><path id="path14" d="m 330.9491,547.5577 c -3.0875,-4.3004 -4.962,-8.8214 -9.2625,-12.9013" style="fill:#1b1918;fill-rule:evenodd;stroke:#1b1918;stroke-width:1.00010002;stroke-linecap:butt;stroke-linejoin:miter;stroke-dasharray:none"/></g><path id="path16" d="m 306.3458,539.3727 c 1.6512,1.3005 3.625,2.7867 5.3266,3.9866 0.0485,-7.5379 2.4486,-14.0127 12.1054,-19.3277 -0.7368,-1.6362 -1.5461,-3.2718 -2.4633,-4.9076 l -28.26,7.7819 -0.5772,0.2084 c 3.9339,4.0983 8.5873,7.9985 13.8685,12.2584 z" style="fill:#f07c00;fill-rule:evenodd"/><path id="path18" d="m 150.1605,522.7265 c 8.3552,2.0784 14.8221,3.0538 22.1415,9.2013 l 11.6073,-11.9892 -29.3432,-7.8925 -1.4439,4.3277 -2.9617,6.3527 z" style="fill:#f07c00;fill-rule:evenodd"/><path id="path20" d="m 415.7425,182.0965 c 23.6211,-6.2989 48.3057,-13.0739 71.2,-28.2764 -14.8391,-5.3904 -28.0726,-8.8733 -45.6369,-11.1751 l -25.5631,39.4515 z" style="fill:#1b1918;fill-rule:evenodd;stroke:#1b1918;stroke-width:1.00010002;stroke-linecap:butt;stroke-linejoin:miter;stroke-dasharray:none"/><path id="path22" d="M 65.2615,135.6143 C 45.4771,116.3628 24.2416,98.5153 9.8529,74.4676 24.012,77.1693 38.0242,79.2428 53.123,83.8828 l 12.1385,51.7315 z" style="fill:#1b1918;fill-rule:evenodd;stroke:#1b1918;stroke-width:1.00010002;stroke-linecap:butt;stroke-linejoin:miter;stroke-dasharray:none"/><path id="path24" d="m 147.8035,547.8741 c 1.9145,-5.9131 1.802,-11.8262 5.7442,-17.7392" style="fill:#1b1918;fill-rule:evenodd;stroke:#1b1918;stroke-width:1.00010002;stroke-linecap:butt;stroke-linejoin:miter;stroke-dasharray:none"/><path id="path26" d="m 152.8719,549.0567 c 2.1963,-5.9692 1.6894,-11.7697 6.5888,-17.9082" style="fill:#1b1918;fill-rule:evenodd;stroke:#1b1918;stroke-width:1.00010002;stroke-linecap:butt;stroke-linejoin:miter;stroke-dasharray:none"/><path id="path28" d="m 344.5997,404.5076 15.9037,1.8176 -18.6301,-45.8938 32.2619,1.3632 -17.2669,-97.2402 c 56.9506,-10.9055 114.3555,-14.995 173.5784,-20.4478 l -17.267,104.965 -110.353,-20.3448 9.0232,57.1507 -35.8971,0.4544 12.723,39.9866 -29.0812,-4.5439 6.816,22.2653 -10.4511,3.6351 -14.0862,-43.1674 2.7264,0 z" style="fill:#ffec00;fill-rule:evenodd;stroke:#1b1918;stroke-width:1.00010002;stroke-linecap:butt;stroke-linejoin:miter;stroke-dasharray:none"/><g id="g30"><path id="path32" d="m 360.5034,406.3252 -16.7989,-41.3827 44.5169,8.212 -13.6318,-68.1591 c 48.6202,11.0571 89.5156,20.7507 133.5918,42.713 l 0.3756,0.5071 -105.795,-19.5916 9.0879,57.2536 -35.8971,0.4544 4.9159,15.4494 -3.8639,3.3332 -4.7362,-8.0886 -2.988,7.2184 -3.6499,-9.7668 -2.8295,7.8747 -3.2153,-7.941 -0.927,7.3701 1.8445,4.5439 z" style="fill:#f07c00;fill-rule:evenodd"/><path id="path34" d="m 344.5997,404.5076 15.9037,1.8176 -1.8445,-4.5439 0.927,-7.3701 3.2153,7.941 2.8295,-7.8747 3.6499,9.7668 2.988,-7.2184 4.7362,8.0886 3.8639,-3.3332 7.8071,24.5372 -29.0812,-4.5439 6.816,22.2653 -10.4511,3.6351 -14.0862,-43.1674 2.7264,0 z" style="fill:#84756f;fill-rule:evenodd"/></g><path id="path36" d="m 118.8255,470.2181 c 9.6421,27.6233 22.4113,46.6469 47.6895,52.3803 27.3909,4.0391 78.2609,-12.8322 116.3597,4.8265 3.0747,1.4245 4.8359,1.9948 8.2119,2.1796 54.4255,2.9917 63.2486,-45.0281 65.4047,-72.6769 -3.3455,-44.1088 -18.7489,-103.0323 -25.6771,-144.212 L 140.7739,311.906 119.2164,419.0105 c -2.0849,16.6785 -4.1698,34.1385 -0.3909,51.2076 z" style="fill:#ffec00;fill-rule:evenodd;stroke:#1b1918;stroke-width:1.00010002;stroke-linecap:butt;stroke-linejoin:miter;stroke-dasharray:none"/><path id="path38" d="m 308.4109,430.7374 24.2356,-44.1714 1.5636,28.5355 -25.7992,15.6359 z" style="fill:#f07c00;fill-rule:evenodd"/><path id="path40" d="m 127.8162,397.5111 -0.3909,23.4539 24.2356,13.2905 -23.8447,-36.7444 z" style="fill:#f07c00;fill-rule:evenodd"/><path id="path42" d="m 164.9514,344.3491 c 21.369,25.5384 38.0472,49.9045 44.1715,83.6521 l 5.4725,5.8634 -3.9089,2.3454 1.5635,8.5998 -5.8634,0 0,6.6452 -7.0362,0 0,3.1272 -6.2543,0.7818 -0.3909,4.6908 -5.4726,-4.6908 c -23.7146,-9.2514 -41.9562,-26.7114 -58.2437,-51.2076" style="fill:#fff;fill-rule:evenodd;stroke:#1b1918;stroke-width:1.00010002;stroke-linecap:butt;stroke-linejoin:miter;stroke-dasharray:none"/><path id="path44" d="m 288.866,349.0398 c -20.8477,25.5385 -34.2686,46.7774 -35.5717,82.4794 l -5.4726,8.2089 7.0362,0.7818 -0.7818,5.8635 5.0817,0 1.1727,5.4725 7.0361,-1.1727 1.1727,4.2999 5.8635,-1.5636 0.3909,4.2999 3.518,-3.5181 c 18.3722,-11.9877 42.217,-27.4932 53.9439,-59.4164" style="fill:none;stroke:#1b1918;stroke-width:1.00010002;stroke-linecap:butt;stroke-linejoin:miter;stroke-dasharray:none"/><path id="path46" d="m 207.5593,349.0398 51.2076,0 c -22.8331,24.1388 -29.403,18.8975 -51.2076,0 z" style="fill:#f07c00;fill-rule:evenodd"/><path id="path48" d="m 161.4334,334.1857 c -34.92,-35.1808 -45.6047,-49.2531 -33.2263,-80.9158 3.7788,-19.9358 6.3847,-60.5891 25.4083,-83.2612 -4.2999,2.4758 -5.4726,7.297 -8.2088,10.9452 C 118.2654,170.9348 92.1436,158.0783 66.0543,136.3915 57.585,118.4102 55.7609,100.8198 52.3729,83.6203 c 42.217,16.5481 83.6521,37.0052 117.2693,73.0979 l -4.6908,2.3454 c 45.7351,-20.7176 93.8155,-25.7993 141.1141,2.3454 -0.2608,-1.1727 -4.6792,-2.0945 -4.9397,-3.2672 43.6502,-14.4632 85.5947,-20.9685 140.5812,-15.4959 -3.1272,11.5968 -10.5543,24.366 -25.7993,39.4807 -30.3599,5.4725 -57.5923,3.9089 -86.3884,5.8634 -1.5636,-3.3877 -3.518,-6.3845 -5.0816,-9.7724 11.1929,18.1553 12.619,43.8449 16.0554,72.0779 0.7098,5.8337 2.0044,10.5001 3.5067,16.1062 10.8023,40.3092 -25.6172,54.1009 -37.9343,72.0839 l -144.6321,-4.2999 z" style="fill:#ffec00;fill-rule:evenodd;stroke:#1b1918;stroke-width:1.00010002;stroke-linecap:butt;stroke-linejoin:round;stroke-dasharray:none"/><path id="path50" d="m 345.3514,272.776 c 2.3848,15.2824 -2.4214,26.4415 -9.5967,35.5532 -3.2822,1.4003 -6.8689,1.9917 -10.4828,1.5534 -11.2382,-1.3615 -18.4773,-12.1583 -16.1651,-24.1106 2.3128,-11.9523 13.3027,-20.5387 24.5398,-19.177 4.7602,0.5769 8.8016,2.848 11.7048,6.181 z" style="fill:#e30016;fill-rule:evenodd;stroke:#1b1918;stroke-width:1.00010002;stroke-linecap:butt;stroke-linejoin:round;stroke-dasharray:none"/><path id="path52" d="m 138.3313,309.4262 c -11.6433,-14.1616 -16.4917,-25.3148 -14.7263,-39.3131 3.7794,-3.4846 8.1816,-6.4956 13.0742,-7.469 14.4063,-2.8655 26.4076,9.7396 26.4076,22.9379 0,12.6414 -10.927,22.9927 -24.7555,23.8442 z" style="fill:#e30016;fill-rule:evenodd;stroke:#1b1918;stroke-width:1.00010002;stroke-linecap:butt;stroke-linejoin:round;stroke-dasharray:none"/><path id="path54" d="m 212.0468,280.1849 c 6.7346,9.4252 18.6449,-0.0737 27.3713,-0.3855 9.6469,3.0968 21.6037,7.7958 26.6004,3.4696" style="fill:#1b1918;fill-rule:evenodd;stroke:#1b1918;stroke-width:1.00010002;stroke-linecap:butt;stroke-linejoin:miter;stroke-dasharray:none"/><path id="path56" d="m 232.4789,256.4759 7.132,5.5899 7.5175,-5.9754 -14.6495,0.3855 z" style="fill:#1b1918;fill-rule:evenodd;stroke:#1b1918;stroke-width:1.00010002;stroke-linecap:butt;stroke-linejoin:miter;stroke-dasharray:none"/><path id="path58" d="m 170.3151,216.5754 a 17.8299,18.2154 0 0 1 17.83,18.2155 17.8299,18.2154 0 1 1 -17.83,-18.2155 z" style="fill:#1b1918;fill-rule:evenodd"/><path id="path60" d="m 175.4232,220.045 a 9.2523,9.0595 0 0 1 9.2523,9.0596 9.2523,9.0595 0 1 1 -9.2523,-9.0596 z" style="fill:#fff;fill-rule:evenodd;stroke:#000;stroke-width:.2;stroke-dasharray:none"/><path id="path62" d="m 299.0761,218.503 a 18.0227,18.0227 0 0 1 18.0227,18.0227 18.0227,18.0227 0 1 1 -18.0227,-18.0227 z" style="fill:#1b1918;fill-rule:evenodd"/><path id="path64" d="m 294.45,221.7798 a 7.9994,7.9994 0 0 1 7.9993,7.9994 7.9994,7.9994 0 1 1 -7.9993,-7.9994 z" style="fill:#fff;fill-rule:evenodd;stroke:#000;stroke-width:.2;stroke-dasharray:none"/><path id="path66" d="m 161.2403,327.1034 0,15.3445 144.9859,0 0,-15.3445 -144.9859,0 z" style="fill:#ffec00;fill-rule:evenodd"/><path id="path68" d="m 151.3882,172.7671 c -1.8788,1.474 -5.2614,5.3564 -5.4981,8.0357 l -17.784,-7.1436 -11.6793,-5.4012 -12.1952,-6.1698 c 6.903,-1.3805 49.0354,9.2049 47.1566,10.6789 z" style="fill:#f07c00;fill-rule:evenodd"/><path id="path70" d="m 325.7237,179.532 c 12.2009,1.616 24.2666,4.0946 36.603,6.6175 l -32.4454,1.2237 -4.1576,-7.8412 z" style="fill:#f07c00;fill-rule:evenodd"/><path id="path72" d="m 130.9422,495.4963 c 22.9326,16.9388 37.2665,11.7267 52.7723,8.7299 35.4413,-24.366 76.7461,-19.0239 101.6334,-2.7363 30.2292,13.9419 44.5632,5.9939 64.2385,-10.9451 -14.8553,40.6514 -46.9078,39.8727 -62.6749,38.308 -31.8509,-15.5152 -65.7099,-9.2795 -96.421,-6.6442 -18.2058,1.6796 -28.9114,1.4871 -44.3999,-9.3634 -6.2544,-4.3818 -10.1977,-9.6888 -15.1484,-17.3489 z" style="fill:#f07c00;fill-rule:evenodd"/></g></g></svg>