<svg xmlns="http://www.w3.org/2000/svg" xmlns:svg="http://www.w3.org/2000/svg" id="svg2" width="60" height="60" version="1.1" viewBox="0 0 595.276 841.89"><metadata id="metadata50"/><g id="g4"><path id="path6" d="m 171.0427,553.8087 c -4.8202,-1.3614 -8.0241,-1.4859 -12.4624,0.1731 -17.6581,6.5992 -32.7119,4.3347 -44.8301,-3.4618 -11.3322,-7.2901 -14.0426,-20.2296 -9.0007,-36.5218 3.5441,-11.4517 14.6556,-25.9624 33.4063,-44.6571 3.2892,-3.2306 3.6993,-5.3747 1.5578,-6.9235 -1.6223,-1.173 -1.5742,-2.949 0.3461,-3.9811 1.2573,-0.6755 1.3848,-1.3847 0,-3.1156 -9.8943,-10.8615 -14.5538,-22.7838 -10.2122,-35.8295 5.4401,-16.3463 16.3701,-23.3011 30.6368,-18.1744 5.0563,1.8172 8.4536,3.7227 10.7315,0.5193 2.9996,-2.1921 6.078,-2.8706 9.0007,-3.6349 3.9651,-1.037 5.5805,-4.3376 6.0581,-10.3853 0.5788,-7.3357 -1.9114,-23.0883 0.7687,-25.893 2.7342,-2.8602 1.9576,-3.6765 -1.6342,-4.2246 -12.139,-1.8519 -19.0433,-9.2193 -18.5205,-18.1743 1.4278,-24.4518 31.5866,-26.3944 51.4075,-20.2515 4.9338,1.5291 8.0271,0.9453 12.8086,-1.3847 18.5816,-9.0542 46.7917,-8.6877 68.5434,1.2116 2.7471,1.2503 3.5481,1.7433 3.6349,-1.2116 0.3883,-13.1781 2.6573,-23.1741 8.6544,-29.2521 5.8513,-5.9302 14.1958,-5.6792 23.5402,-0.8654 12.9127,6.6527 16.249,17.9194 11.9431,34.7909 -1.1605,4.547 -2.3989,9.3473 -6.0581,14.0202 -1.5578,2.1351 -0.8129,2.9426 2.2502,2.9426 9.809,-5e-4 19.6161,2.885 29.4251,6.7504 -3.5198,-18.5205 -0.7637,-32.1812 7.4429,-41.7145 11.964,-13.8977 23.7177,-23.3085 36.3487,-24.2325 14.5782,-1.0663 27.4523,5.523 32.0216,19.7322 4.5578,14.172 -4.3104,26.7361 -20.0784,37.2142 -1.8797,1.2493 -2.4719,4.0505 -1.0385,6.2312 9.2337,14.051 18.7065,27.6169 25.7903,42.2338 8.3038,17.1329 7.9616,34.6189 0.8654,51.5806 5.2954,1.0624 9.4163,4.3506 9.693,15.5781 0.0481,1.9649 0.5927,3.7454 2.9425,5.3657 15.1416,10.4385 24.0952,26.1544 25.7903,46.9072 1.1323,13.8611 -4.3897,27.9106 -21.2899,35.8295 -16.5834,7.7702 -36.4832,7.2678 -56.6002,8.4814 -11.5727,0.6983 -23.4841,0.1532 -34.6179,5.885 -15.6331,8.0489 -29.6449,9.1142 -42.0607,-1.0385 -6.0001,-4.907 -6.8958,-13.125 -6.4043,-21.8093 -17.5688,-0.3818 -32.1197,2.4947 -44.1378,8.1352 -13.5986,6.382 -26.373,4.8723 -38.4258,-1.0385 -6.6081,-3.2401 -14.2345,-6.4122 -23.0209,-6.2312 -12.2313,0.2519 -23.5654,4.78 -31.6753,13.3279 -5.0628,5.3365 -11.903,10.3833 -23.5402,7.0966 z" style="fill:#1b1918;fill-rule:evenodd"/><path id="path8" d="m 221.4583,323.9947 c -11.0132,8.5494 -20.8629,18.1546 -29.1682,29.7525 -17.243,5.4204 -31.2801,-16.4072 -15.9337,-27.9913 11.1963,-8.4526 34.7473,-6.8447 45.1019,-1.7612 z" style="fill:#fbc116;fill-rule:evenodd"/><path id="path10" d="m 306.9744,321.6806 c -0.3115,-12.7188 0.9314,-23.2163 5.6033,-28.8171 6.446,-7.7281 14.2816,-6.7262 23.8809,-1.0673 9.2258,5.4391 12.138,16.2366 7.6045,32.4192 -2.4431,8.721 -8.1159,14.4299 -14.2752,19.078 -3.6914,-9.8725 -11.2959,-17.0768 -22.8135,-21.6128 z" style="fill:#fbc116;fill-rule:evenodd"/><path id="path12" d="m 339.8326,341.4167 c -6.1534,-0.5901 -9.2893,3.2992 -8.7735,9.0761 0.4652,5.209 1.3465,10.8813 3.3279,16.9419 2.3057,7.054 11.8995,10.6894 17.8495,16.0343 17.4443,2.8294 29.6925,6.3294 36.0016,10.8912 4.9159,3.5546 5.6226,8.8638 3.6304,15.1268 4.4824,4.969 8.6177,10.1101 11.7988,15.7317 0.5897,2.2071 3.5322,2.9708 7.2608,3.938 8.0336,2.0835 14.7221,5.0652 20.2698,8.1634 0.9339,-23.5228 -5.7635,-49.0934 -33.2787,-72.3057 -14.8912,-12.5626 -34.0376,-21.291 -58.0866,-23.5977 z" style="fill:#fbc116;fill-rule:evenodd"/><path id="path14" d="m 435.979,438.0789 c 2.5393,1.7458 9.205,-2.3806 14.2836,-1.4283 7.8787,-18.1977 7.6075,-36.2129 -2.3806,-54.5951 -6.7277,-12.3821 -14.0957,-24.6793 -22.219,-36.6612 -2.1271,3.2074 -8.1763,4.8674 -4.7611,1.111 l 3.1741,-3.4916 c 2.4183,-3.1974 0.4974,-3.7663 -1.4284,-2.5393 -1.7214,1.0971 -4.5142,2.9163 -9.205,3.9677 -2.1524,0.0337 -2.9628,-1.1556 -1.2696,-2.0632 12.1405,-6.5085 22.577,-12.3275 28.2498,-20.3144 12.5829,-17.7142 4.9367,-29.7287 -13.1727,-37.9309 7.9175,8.8846 0.6909,20.9666 -21.959,35.7526 -13.1161,8.5617 -24.0932,11.0643 -30.5728,3.6066 -1.7007,6.2188 -0.1389,12.4193 0.9522,19.5209 0.6517,4.242 2.4793,5.6435 9.8398,9.205 17.9383,8.6798 29.2427,22.6911 36.5967,37.4042 1.4274,2.8562 7.7355,6.2401 11.3327,9.4142 l 4.7612,4.2851 c 2.142,1.9273 -0.2991,3.5035 -2.8568,1.2697 -3.2148,-2.8077 -5.8185,-5.2403 -8.7288,-6.3483 5.6613,12.2209 8.7824,25.4997 9.3637,39.8353 z" style="fill:#fbc116;fill-rule:evenodd"/><path id="path16" d="m 423.1684,487.3365 c 3.7876,-11.9486 10.608,-23.6314 23.1642,-34.4592 2.3389,-2.017 4.7374,-1.8633 7.2747,-0.3829 17.1959,10.0328 30.2286,24.112 34.2677,44.0312 5.0593,24.9496 -6.9637,41.0231 -35.6078,46.3284 l -49.9658,3.2545 c -9.0705,0.5902 -17.596,4.4026 -26.0358,8.0405 -13.9746,5.1683 -25.9152,5.6648 -33.5019,-1.3401 -11.0242,-10.1791 -10.7509,-23.0983 3.2545,-35.9907 9.2719,-8.5344 22.324,-13.0586 39.8194,-15.6981 18.6887,-2.82 41.6451,-9.7817 57.8148,-18.9525 4.2757,-2.6802 4.1418,-5.0479 0.5744,-3.4459 -7.363,3.3065 -13.7847,7.2747 -21.0584,8.6148 z" style="fill:#fbc116;fill-rule:evenodd"/><path id="path18" d="m 144.5437,404.57 c -13.7028,7.4687 -15.584,21.048 -12.3211,35.6753 1.7423,7.8093 12.2284,16.2932 26.0517,24.8852 1.774,1.103 0.429,2.9846 -1.5553,2.3329 -5.0643,-1.6644 -9.5274,-4.5687 -13.4147,-8.1654 -1.2959,5.5731 3.2401,8.8132 4.8604,13.2202 1.1015,2.7858 -0.5505,4.0456 -2.9162,1.361 -1.3029,-1.479 -1.4249,-3.3711 -3.3051,-4.2772 -15.2061,16.2044 -29.1346,31.5038 -33.4395,43.7435 -5.1822,14.7329 -3.4285,28.5672 9.332,35.9669 13.5376,7.8505 31.3396,4.6595 53.2698,-3.8883 8.2726,-3.2243 17.2936,-7.6065 17.6918,-17.303 -0.1622,-10.1756 -1.5885,-18.6649 -4.8604,-24.6908 l -8.3598,14.97 c -2.0354,3.6458 -4.4329,1.713 -2.333,-2.5274 10.0059,-20.2063 19.6389,-37.8227 20.2192,-49.9648 0.6145,-12.8572 -11.3654,-21.4586 -16.3552,-36.4286 -5.833,-23.8496 -18.6202,-32.509 -32.5646,-24.9095 z" style="fill:#fbc116;fill-rule:evenodd"/><path id="path20" d="m 258.0372,314.8096 c 25.4188,0.0987 71.3728,10.9676 70.4062,38.9912 -0.3105,9.0036 2.8701,18.7289 11.0866,24.6094 12.9674,9.2804 22.0394,17.0248 22.4649,28.9749 -0.2846,14.3937 -0.9314,12.8354 -4.4011,17.908 -17.6095,25.7467 -26.8923,59.4892 -45.2254,77.3992 -11.9764,11.7007 -26.2332,21.0133 -42.7972,27.0139 -12.4823,4.5211 -31.473,-14.8961 -38.6996,-23.2198 4.8554,3.9483 9.6796,8.1069 15.4799,9.5611 2.0532,0.5143 -0.4469,-1.4194 -2.955,-3.0353 -19.0378,-12.2655 -35.7595,-24.7889 -46.6716,-36.8784 -1.3668,-1.5147 -2.3369,-2.9267 -1.8211,-5.9188 1.5702,-9.1107 -0.6755,-17.914 -7.4364,-26.1032 -9.6172,-11.6476 -6.7064,-19.574 -11.9893,-28.3797 l -3.6423,-6.0706 c -1.3733,-2.2893 -1.1328,-3.2376 0.3035,-4.8564 8.1709,-6.9811 15.5428,-4.2255 23.068,0 1.6614,0.9324 2.6196,-0.2995 1.2141,-2.1247 -1.4715,-1.9099 -4.1968,-3.126 -7.2846,-4.0976 -3.6919,-1.161 -3.9905,-2.0691 -0.6071,-2.8835 2.5304,-0.609 2.5621,-1.1184 0,-1.9729 1.2275,-7.8862 0.616,-15.4967 -0.4553,-23.068 -2.0622,-14.5742 30.9136,-41.7338 41.5831,-47.8054 8.6411,-4.9174 18.1754,-8.0831 28.3797,-8.0434 z" style="fill:#fbc116;fill-rule:evenodd"/><path id="path22" d="m 254.081,409.7225 c 0.7568,6.8076 5.6251,13.4514 15.9792,13.75 6.5358,0.1884 10.0268,-5.704 11.7126,-11.656 2.4064,-8.4958 -4.4607,-10.9805 -11.961,-10.7911 -7.2693,0.1835 -16.3835,2.828 -15.7308,8.6971 z" style="fill:#1b1918;fill-rule:evenodd"/><path id="path24" d="m 242.546,401.5928 c 15.8061,-14.0088 32.0155,-15.7516 48.5954,-6.2317 2.95,1.6947 3.7678,2.0314 0.069,0.5639 -16.198,-6.4361 -32.2695,-4.4815 -48.2136,5.8607 -2.511,1.6288 -3.1707,2.217 -0.4508,-0.1929 z" style="fill:#1b1918;fill-rule:evenodd"/><path id="path26" d="m 222.7116,352.1483 c 1.3148,-3.2233 3.5238,0.1795 1.5697,3.6527 -1.654,2.9395 -5.9113,3.5283 -9.9836,4.597 -4.1611,1.0921 -7.5415,4.6978 -10.7504,8.839 -1.6049,2.0721 -0.862,0.7415 -0.3288,-0.859 0.8595,-2.5775 2.0508,-5.1406 4.4234,-7.2241 2.4744,-2.1723 5.5498,-3.313 8.7279,-3.9677 4.2757,-0.8813 5.5542,-3.1072 6.3418,-5.0379 z" style="fill:#1b1918;fill-rule:evenodd"/><path id="path28" d="m 301.5049,336.0296 c -2.9797,0.3204 -2.8785,2.8364 0.2842,3.1261 6.2585,0.5733 11.7413,5.0136 16.5154,14.3004 1.5668,3.0497 1.3138,2.6028 0.6106,-0.4568 -2.8444,-12.3617 -9.0171,-17.8718 -17.4102,-16.9697 z" style="fill:#1b1918;fill-rule:evenodd"/><path id="path30" d="m 216.964,401.5764 c 2.9658,-8.1049 12.5284,-4.7026 7.3005,4.2851 0.6874,1.6396 4.3113,3.0417 2.0632,4.9199 -4.8907,-4.788 -10.1865,-7.4071 -15.712,-8.8082 -0.6938,-1.3034 1.7532,-0.9989 6.3483,-0.3968 z" style="fill:#1b1918;fill-rule:evenodd"/><path id="path32" d="m 303.956,386.4497 c 2.9975,-3.8327 9.0577,-1.0777 8.2606,5.5146 3.0641,-1.1953 6.1698,-1.8837 9.3841,-1.6526 3.1672,0.2277 2.4381,1.168 -0.8853,1.7706 -5.5374,1.0043 -9.6345,2.0448 -13.5154,5.1347 -3.0139,-2.4372 -5.0057,-8.5146 -3.244,-10.7673 z" style="fill:#1b1918;fill-rule:evenodd"/><path id="path34" d="m 264.1187,482.2812 c 2.142,3.371 5.8116,5.215 11.0072,5.5324 2.9708,0.1805 3.8556,0.3457 0.4831,-0.6373 -4.4631,-1.3029 -8.1352,-3.255 -11.0132,-5.8548 -2.4694,-2.2288 -2.0791,-1.5628 -0.4771,0.9597 z" style="fill:#1b1918;fill-rule:evenodd"/><path id="path36" d="m 206.1238,438.126 c 2.5993,-1.896 16.6082,-2.8711 18.7269,-0.4513 0.556,0.6349 1.222,2.6053 -3.8551,1.717 8.094,7.9631 16.9598,16.5849 29.269,23.8898 9.3289,5.5364 19.9667,7.7881 29.1107,3.7971 18.0335,-7.8704 28.8811,-23.4772 33.6989,-43.0333 -3.8457,-0.0173 -6.4336,-4.2052 -3.9553,-3.797 4.4706,0.736 9.1584,3.1141 11.8658,6.012 0.8664,0.9274 -0.2773,2.1157 -1.5821,1.4239 l -2.8478,-1.8986 c -5.5161,15.3856 -12.941,26.1271 -20.3516,33.6622 -19.1053,19.4266 -42.0052,14.2692 -65.469,-6.7302 -3.8387,-3.436 -8.4645,-6.8353 -12.27,-11.1109 -1.6813,-1.8891 -4.3371,-2.5864 -8.3707,-2.4451 -3.5769,0.125 -4.7176,-0.2594 -3.9697,-1.0356 z" style="fill:#1b1918;fill-rule:evenodd"/><path id="path38" d="m 354.7609,385.5818 c 10.8659,1.8023 20.3923,4.7706 28.3291,8.7264 8.2027,4.0877 10.0288,9.2169 4.5068,15.7933 l -21.8331,27.5856 21.4998,-23.2703 c 0.9274,-1.3555 1.9442,-1.9744 2.7823,-1.3912 4.231,2.9435 7.9096,7.2544 11.1293,13.0264 1.0564,1.893 0.427,2.7029 -1.7705,3.0352 -10.5421,1.595 -16.4609,6.0889 -19.8557,11.7617 5.7471,-6.5358 13.124,-9.9504 22.1321,-10.2441 l 20.6145,6.197 c 5.9872,0.9478 8.6431,2.1763 4.6794,5.0588 -0.2624,0.191 0.2579,1.1338 0.5837,1.1343 l 1.3133,0.004 19.3498,-3.794 c 9.8373,-1.9288 13.8585,3.5084 13.9116,14.038 l -6.9558,-3.6676 c -6.0284,-2.9157 -12.2293,1.4185 -17.9586,8.2205 -7.1379,8.475 -12.6569,17.9106 -16.0616,28.5821 -0.7296,2.2878 -2.2194,3.5679 -5.4382,4.6794 -7.1413,2.4664 -17.9279,7.4006 -23.3968,3.0352 -7.6517,-6.1072 -13.8253,-11.7388 -20.741,-19.2233 -0.422,2.761 1.8966,6.3443 8.2205,11.1293 l 11.7617,9.2322 c -0.2113,1.9392 -2.1629,2.156 -5.6912,2.7824 -25.7784,4.5772 -41.1962,12.1757 -47.4259,23.7762 l -3.6676,6.8293 c -1.1804,1.8123 -3.8804,2.1609 -8.0941,2.4029 l -17.5792,1.0118 c 3.4152,-1.1387 6.6612,-2.6142 9.7381,-4.4264 -9.316,1.9808 -18.4625,5.5289 -27.9497,9.4852 -10.0887,4.2077 -20.5644,6.2099 -30.732,3.9205 -14.0832,-3.1716 -27.8232,-13.49 -41.4819,-29.8467 -2.4451,-1.0961 -2.8885,-0.3284 -0.7588,1.7705 l 17.8321,17.5793 c 1.476,2.1078 1.0897,2.8899 -1.1382,2.2764 -9.5755,-2.637 -18.9168,-1.3683 -28.7085,3.2882 -6.3398,3.0154 -12.2462,7.7345 -17.7057,13.4058 -3.0467,3.1652 -11.0817,2.4326 -19.4763,1.2646 4.9641,-2.3081 9.9207,-4.8559 14.4175,-8.3469 19.2883,-14.9755 -4.4021,-37.6452 5.1853,-50.0819 1.4437,-1.6783 3.6576,-0.4721 6.4499,2.9088 3.8367,6.871 6.9836,3.8983 0.3794,-3.1617 l -3.6676,-3.9205 c -2.0235,-2.2765 0.3348,-4.8034 0.3794,-7.2088 0.0813,-4.3416 2.0176,-2.5309 8.5999,2.6559 12.5274,9.8725 23.2733,18.4114 30.3526,27.0644 6.205,7.5837 15.347,14.0718 26.0527,19.9821 5.8384,3.2233 13.2193,2.2512 20.9939,-1.3911 20.3923,-9.5527 36.7128,-21.4581 46.7936,-37.8143 16.4748,-26.7302 28.5935,-63.0998 52.3583,-84.608 -2.4456,0.4945 -4.8911,1.9491 -7.3352,4.8059 -3.437,2.7615 -5.5696,1.1188 -5.1853,-2.5294 0.926,-8.7815 -3.3234,-16.2109 -9.7381,-23.5233 z" style="fill:#e30016;fill-rule:evenodd"/><path id="path40" d="m 378.1354,435.0685 c -10.8907,14.4725 -13.3011,31.278 -9.9092,49.6801 -1.2657,-17.791 1.892,-34.3897 9.9092,-49.6801 z" style="fill:#1b1918;fill-rule:evenodd"/><path id="path42" d="m 366.7532,445.2455 c -18.0817,18.2245 -27.3144,41.8073 -41.2439,63.071 16.56,-17.4081 22.5413,-41.2439 41.2439,-63.071 z" style="fill:#1b1918;fill-rule:evenodd"/><path id="path44" d="m 377.2516,316.7974 c -1.6124,4.0584 -1.5583,8.2552 3.4548,8.5731 7.7186,0.49 21.044,-4.9164 31.9224,-13.4558 12.3295,-9.6776 21.2642,-22.9073 10.6874,-27.4905 -17.0302,-7.3803 -40.2594,17.7628 -46.0646,32.3732 z" style="fill:#ec8117;fill-rule:evenodd"/></g></svg>