<svg xmlns="http://www.w3.org/2000/svg" xmlns:xlink="http://www.w3.org/1999/xlink" width="60" height="60" version="1.1" viewBox="0 0 3958 3111" xml:space="preserve" style="shape-rendering:geometricPrecision;text-rendering:geometricPrecision;image-rendering:optimizeQuality;fill-rule:evenodd;clip-rule:evenodd"><defs><style type="text/css">.fil1{fill:#00ace6}.fil0{fill:#373435}.fil8{fill:#70c176}.fil5{fill:#bf503e}.fil3{fill:#ee3050}.fil4{fill:#f59898}.fil6{fill:#f79741}.fil7{fill:#fccfb8}.fil9{fill:#fefefe}.fil2{fill:#ffdd21}</style></defs><g id="Layer_x0020_1"><metadata id="CorelCorpID_0Corel-Layer"/><path d="M3909 1255l0 0c-42,-79 -100,-126 -173,-142 -39,-8 -76,-8 -113,-2 15,-55 18,-113 13,-169 61,29 129,53 174,84 92,61 110,142 110,142 10,-40 48,-192 18,-348 -35,-179 -192,-368 -392,-263 -27,18 -50,50 -63,89 -147,-132 -373,-181 -593,-110 -129,40 -240,119 -318,219 -73,-56 -165,-76 -263,-13 -68,50 -94,198 -10,303 35,45 100,71 166,95 3,26 8,50 16,74 26,79 73,150 135,206 -23,15 -44,32 -61,52 -48,58 -65,132 -50,219l0 2c10,40 34,69 69,81 40,13 87,0 123,-31 31,-27 42,-58 52,-90 8,-26 18,-52 39,-82 8,-13 18,-26 27,-37 90,29 190,35 289,21 8,37 8,87 -5,156 -24,13 -44,32 -58,56 -15,26 -23,55 -26,85 0,2 0,2 0,3l0 0c0,19 2,40 6,60 0,3 0,6 2,10 2,6 3,11 5,18 24,66 74,115 131,127 5,2 11,2 18,3 15,2 31,0 47,-3 16,-5 31,-11 44,-21 0,18 -2,37 -3,56l0 37c0,3 0,6 0,10 0,26 0,61 8,95 11,52 35,90 85,100 2,2 6,2 10,3l2 0 0 0 0 0c5,0 8,0 13,-2 29,-2 53,-16 74,-42 0,-2 0,-2 0,-2 0,0 0,0 2,0 2,-3 3,-5 5,-8 2,0 2,-2 3,-3 2,-2 3,-5 5,-8 0,-2 2,-3 3,-6 2,-2 3,-5 5,-8 2,-3 3,-6 5,-11 2,0 2,-2 2,-3 15,-34 26,-74 32,-118l5 -24 -2 0c11,-98 3,-211 -19,-300 -35,-139 -94,-271 -137,-358 63,-40 118,-92 161,-147 26,2 56,8 87,19 34,11 58,27 79,42 29,19 55,37 97,40 47,3 92,-16 115,-50 23,-31 24,-68 6,-106l0 -2z" class="fil0"/><path d="M1722 1162c15,-29 26,-58 35,-89 2,-3 2,-8 3,-13 29,-16 89,-34 147,-34 35,0 63,10 87,18 32,10 66,21 108,8 44,-13 77,-48 92,-92 13,-42 3,-87 -26,-124l0 -2 -2 0c-63,-71 -134,-103 -208,-95 -68,8 -129,47 -177,94 -6,-52 -19,-100 -39,-147 45,-2 111,-8 163,-26 69,-26 106,-71 92,-113 -8,-27 -35,-27 -63,-27 -35,-2 -90,-3 -148,-45 -68,-50 -142,-148 -200,-226 -32,-42 -60,-79 -79,-98 -123,-123 -298,-206 -429,-77 -39,39 -56,84 -65,127 -48,3 -137,27 -211,65 -26,-19 -56,-34 -92,-42l0 0c-87,-19 -160,-5 -210,42 -39,35 -60,84 -61,137 -2,65 27,135 77,189 18,18 37,32 56,44 -21,24 -40,50 -58,76 -32,-24 -74,-56 -116,-90l-53 -45c-102,-87 -206,-177 -289,-110 -27,23 -44,55 -45,92 -3,81 58,189 164,285 18,18 39,34 60,48 55,35 118,63 174,81 -19,119 -2,237 53,339 65,124 176,213 308,260 169,60 374,52 566,-37 47,44 129,140 200,234 -10,50 5,106 39,155l0 0c2,2 3,3 3,5 3,5 6,8 10,11 2,3 5,6 6,8 2,2 3,3 5,5 5,5 8,10 13,13 5,5 10,8 15,11 39,29 82,47 127,50 6,0 15,0 21,0 3,0 5,-2 8,-2l37 65 11 -5c2,0 56,-23 142,-52 15,23 37,52 63,76 40,39 87,60 137,40 3,-2 5,-3 8,-3 0,-2 2,-2 2,-2l2 0 2 -2c3,-2 6,-5 11,-8 24,-19 37,-48 40,-84 0,-2 0,-2 0,-2l0 0c2,-3 2,-6 2,-11 0,-2 0,-2 0,-3 0,-3 0,-6 0,-11 0,-2 0,-5 -2,-8 0,-3 0,-6 0,-10 0,-5 -2,-10 -2,-15 0,0 0,-2 -2,-3 -2,-10 -3,-19 -6,-29 56,-15 116,-27 173,-37l19 -3 -10 -16c-127,-237 -510,-610 -690,-739z" class="fil0"/><path d="M1751 2975c0,-2 0,-3 0,-5 -2,-3 -2,-5 -2,-6 0,-5 -2,-8 -2,-13l0 -2c-2,-5 -3,-10 -3,-15 0,0 -2,0 -2,-2 -8,-32 -24,-68 -45,-102l-11 -23 -2 2c-50,-77 -119,-153 -189,-203 -106,-77 -224,-137 -306,-176 23,-47 39,-97 48,-145 24,-16 69,-34 118,-39 32,-3 55,2 77,6 27,6 56,11 90,-3 35,-15 61,-47 69,-84 6,-37 -5,-74 -32,-103l-2 0 0 0c-60,-55 -121,-76 -184,-63 -27,6 -52,18 -74,34 0,-8 0,-16 0,-23 -2,-110 -48,-184 -48,-184 0,0 -21,65 -105,77 -42,-50 -94,-85 -152,-111 -119,-73 -323,-121 -613,66 -289,197 -281,418 -248,527 -2,27 0,53 3,79 -24,31 -68,71 -116,60 26,90 197,253 340,255 44,21 92,35 142,44 -10,13 -18,29 -23,45 -19,61 -6,124 42,189l0 2c27,31 61,47 100,44 37,-3 73,-26 90,-60 19,-32 16,-61 13,-90 -3,-23 -5,-45 2,-76 5,-27 16,-53 27,-76 85,-26 171,-69 247,-134l0 0c40,37 90,87 137,137 -3,42 11,89 45,126 0,0 0,0 0,2 0,0 0,0 2,0 3,5 8,10 13,15 2,2 2,2 3,3 5,5 11,8 16,13l0 0 0 0c79,58 181,52 229,-13 8,-13 15,-26 18,-40 11,13 21,27 32,42l-2 0 23 27c13,18 37,48 68,71 2,0 2,2 3,2l0 0c35,27 74,40 115,19 2,0 3,-2 5,-3 2,0 2,0 3,-2l2 0 0 0c3,-3 6,-5 10,-8 18,-18 27,-44 27,-74 0,0 0,0 0,-2l0 0c0,-3 0,-5 0,-8z" class="fil0"/><path d="M3514 854c-19,-27 -32,-58 -39,-89 -2,-2 -5,-3 -6,-5 -131,16 -245,11 -340,-3 -65,44 -111,113 -129,192 5,139 71,260 165,321 -52,-47 -85,-119 -85,-202 0,-142 105,-258 234,-258 131,0 235,116 235,258 0,23 -3,45 -8,66 5,-2 10,-3 15,-5 16,-45 23,-90 23,-137 0,-29 -2,-58 -8,-87 -23,-15 -42,-32 -55,-52z" class="fil1"/><polygon points="3327 1846 3327 1846" class="fil1"/><path d="M3406 1667c-2,0 -2,2 -3,2 -27,15 -77,37 -121,45 -15,3 -29,5 -42,8 24,15 45,37 61,63l0 0c0,2 2,2 2,2 0,2 2,3 3,5 2,5 5,10 6,15 0,0 2,2 2,3 2,5 5,10 6,16 0,0 0,2 2,2 2,6 3,13 5,19 3,11 5,21 6,31 50,3 100,-16 126,-27 2,0 2,-2 3,-2 -3,-10 -5,-19 -5,-19 -15,-55 -32,-110 -52,-161z" class="fil1"/><path d="M3356 1547c-11,-24 -21,-47 -31,-66 -2,0 -2,0 -3,2 -35,19 -73,35 -113,48 -19,5 -39,11 -58,15 -2,0 -3,2 -3,2 3,16 5,34 6,53l2 0c16,0 40,0 73,-3 53,-6 102,-26 124,-48 2,0 2,-2 3,-2z" class="fil1"/><path d="M2678 860c-5,3 -8,6 -13,10 -15,10 -29,19 -44,29 -29,16 -56,29 -79,37 -13,42 -21,84 -23,126 26,-69 69,-118 121,-124 5,0 8,0 11,0 18,0 34,5 50,13 27,16 52,45 69,82 0,0 0,-2 0,-3 -23,-66 -55,-124 -94,-169z" class="fil1"/><path d="M3540 1134c-2,10 -5,19 -8,29 -5,11 -10,23 -15,34 -13,23 -29,45 -47,63 -3,3 -5,6 -8,8 0,2 -2,2 -2,2 5,-3 10,-6 15,-10 10,-8 19,-16 29,-24 0,-2 0,-2 0,-2 10,-15 18,-29 24,-44 6,-10 11,-21 16,-32 3,-10 6,-19 10,-29 -5,2 -10,3 -15,5z" class="fil1"/><path d="M3204 575l0 0c-8,-2 -16,-3 -24,-5 -6,0 -15,-2 -21,-2l0 0c-81,-10 -166,-2 -252,24 -111,37 -208,103 -277,189 -3,3 -5,6 -8,10 -2,3 -5,5 -6,8l-2 2c-11,15 -21,31 -29,45 -5,8 -10,16 -13,24 -6,11 -11,21 -16,32 16,-6 34,-16 52,-26 15,-10 29,-19 45,-31 2,-2 5,-3 6,-5 5,-3 8,-6 11,-8 3,-3 6,-6 10,-8 48,-42 100,-98 144,-176l6 -11 11 6c2,0 68,37 185,66l0 0c5,2 10,2 13,3 5,2 10,2 15,3l0 0c34,6 71,13 111,18 77,10 166,13 264,3 15,-2 27,-3 42,-5 0,-5 0,-8 0,-13 -68,-74 -163,-124 -268,-145z" class="fil2"/><path d="M2349 776c-24,18 -81,73 -39,177 31,74 90,114 150,137 -3,-84 16,-169 56,-248 6,-15 15,-27 23,-39 -58,-47 -129,-66 -190,-27z" class="fil2"/><path d="M3880 809c-26,-131 -169,-279 -295,-216 -18,11 -55,40 -61,94 -2,16 -2,32 2,52 0,0 0,0 0,2 2,3 2,8 3,11 2,5 2,10 5,15 2,10 6,18 10,26 3,5 5,10 6,15 10,16 21,31 34,44 13,13 27,24 42,34 39,27 82,44 119,55 73,24 145,97 145,97 8,-29 13,-111 -10,-226z" class="fil2"/><path d="M751 294c-15,-8 -32,-16 -52,-21 -48,-10 -116,-15 -163,31 -27,26 -44,60 -44,100 -2,50 21,108 63,152 18,18 37,31 56,39 29,-29 60,-56 94,-82 -15,-18 -34,-47 -37,-84 -2,-32 8,-63 32,-90 15,-16 31,-31 50,-44z" class="fil3"/><path d="M1009 254c-35,5 -105,23 -166,50 -8,3 -16,8 -24,11 -8,5 -16,10 -24,15 -21,13 -40,26 -53,42 -13,16 -19,31 -19,48 0,2 0,3 0,5 2,24 16,45 27,58 21,-15 42,-26 65,-39 8,-3 15,-6 23,-11 8,-3 18,-8 26,-11 8,-3 16,-8 26,-11 47,-19 94,-34 142,-44 -2,-5 -3,-10 -5,-16 -11,-34 -15,-71 -16,-97z" class="fil3"/><path d="M1935 572c-40,-2 -108,-3 -179,-55 -74,-55 -150,-155 -211,-237 -31,-40 -56,-74 -74,-92 -37,-37 -223,-210 -353,-77 -42,40 -53,92 -53,139 0,39 8,76 16,102 2,2 2,5 3,8l0 0c106,-15 213,-8 311,23 140,44 255,134 323,252 69,0 131,-8 169,-23 34,-13 52,-27 60,-39 -5,0 -8,0 -11,0z" class="fil3"/><path d="M1950 1610c-48,-44 -103,-85 -155,-121 0,0 0,2 0,3 3,31 -5,92 -85,155 24,2 48,8 71,18l0 0c2,2 3,2 5,3 3,2 6,3 10,5 3,2 5,2 6,3 3,2 8,5 11,6 2,2 5,3 8,6 2,2 5,3 6,5 5,3 11,8 15,11 2,0 2,0 2,2 8,6 16,15 24,24 47,-29 81,-77 97,-103l2 -2c-8,-8 -16,-16 -16,-16z" class="fil4"/><path d="M1632 1384l0 -2c-16,-10 -32,-18 -45,-26 -2,2 -2,2 -3,3 -31,32 -66,63 -105,90 -3,3 -6,5 -11,8 -3,2 -6,5 -11,8 -21,15 -45,29 -69,42 0,0 -2,2 -3,2 15,15 31,31 47,48l2 0c2,0 2,0 3,0 6,-2 34,-5 68,-16 3,0 8,-2 13,-3 3,-2 8,-3 13,-5 11,-5 23,-11 34,-18 61,-34 76,-89 69,-129 0,-2 0,-3 0,-3z" class="fil4"/><path d="M627 854c-23,19 -47,42 -73,66 -24,23 -48,45 -69,68 -6,6 -13,13 -19,19 -10,97 6,192 50,276 6,11 13,23 19,34 -2,-10 -5,-21 -6,-32 -32,-165 18,-314 110,-331 35,-8 71,5 103,32 -32,-52 -71,-98 -115,-132z" class="fil4"/><path d="M1724 936c2,-15 2,-29 2,-45 0,-71 -16,-142 -48,-205 0,-3 -2,-6 -3,-10 -3,-5 -6,-11 -10,-16 -5,-10 -11,-18 -16,-27 -16,-21 -32,-42 -52,-61 -77,-2 -218,2 -311,6l-6 0 -5 -6c-8,-10 -16,-19 -26,-29 -8,3 -16,8 -24,11 -6,3 -13,6 -18,10 13,15 21,24 21,24l-8 2 -16 2c0,2 -5,2 -13,3 -11,2 -27,5 -45,10 -85,68 -140,168 -140,281 0,40 6,81 21,118 52,147 202,253 379,253 34,0 68,-3 98,-11 10,-2 19,-5 27,-8 11,-3 21,-6 32,-10 29,-13 58,-29 84,-47 2,-3 3,-6 5,-8 3,-6 6,-11 10,-18 2,-3 3,-8 6,-11 2,-5 3,-8 5,-13 11,-24 21,-48 29,-73 0,-3 2,-5 2,-8 3,-8 5,-18 8,-27 6,-29 11,-56 13,-85zm-331 282c-156,0 -284,-126 -284,-284 0,-108 61,-203 153,-252 19,-10 42,-18 65,-23 21,-6 44,-8 66,-8 23,0 44,2 66,8 24,5 47,15 68,26 89,48 148,142 148,248 0,10 0,18 0,27 -2,18 -6,37 -11,55 -34,116 -144,202 -271,202z" class="fil4"/><path d="M1127 1323c0,0 -55,29 -24,139 113,8 47,-134 24,-139z" class="fil5"/><path d="M2380 1897c-139,-242 -506,-590 -671,-710 -24,47 -55,90 -89,132 94,53 237,142 363,255 74,66 150,165 200,260l0 0 11 26c11,24 21,47 29,69 16,-3 34,-8 52,-11l-52 -118 92 108c21,-5 44,-8 65,-11z" class="fil6"/><path d="M1945 1981c-11,-18 -23,-35 -32,-53 -6,16 -15,32 -27,45 -19,23 -44,37 -73,45 13,19 19,32 21,35 19,-8 65,-24 127,-45l-18 -27 2 0z" class="fil6"/><path d="M1104 489c-3,-3 -6,-6 -10,-10 -2,-3 -5,-6 -8,-10 -15,-18 -27,-32 -35,-40 -2,-3 -3,-5 -5,-5 -55,10 -108,27 -160,52 -11,3 -21,8 -31,13 -5,3 -10,5 -15,8 -6,3 -15,8 -21,11 -13,6 -24,15 -35,21 -32,21 -63,44 -92,68 -11,10 -21,19 -32,31 -8,8 -16,16 -24,24 -27,29 -52,60 -73,92 -5,8 -10,16 -15,23 0,2 -2,5 -3,6l0 2c-3,3 -5,6 -6,10 -2,2 -2,3 -3,5 -2,3 -2,5 -3,8 -19,34 -34,69 -45,106 -3,10 -6,19 -8,31 -3,8 -5,16 -6,26l0 0 0 0c19,-19 40,-39 60,-58 16,-15 32,-29 47,-44 10,-8 18,-15 26,-23 3,-2 6,-5 10,-8 3,-3 6,-5 8,-8 2,0 2,-2 3,-2 35,-31 63,-53 73,-63 2,-15 8,-58 32,-113 5,-13 11,-24 18,-37 10,-18 19,-35 32,-53 3,-3 5,-6 8,-10l13 -18 5 -6 2 5 0 3 5 21c0,3 2,6 3,10 2,8 5,16 10,26 13,27 31,63 44,85 32,-21 76,-39 121,-53 6,-2 11,-3 18,-6 5,-2 11,-3 18,-5 56,-16 111,-27 144,-34 2,0 3,0 5,0 -8,-10 -23,-26 -40,-45 -10,-11 -19,-23 -31,-35z" class="fil6"/><path d="M1206 410c-8,0 -18,0 -26,0 -8,0 -18,0 -26,0 -13,2 -26,2 -39,3 -10,2 -19,2 -31,3 -5,2 -11,2 -16,3 -5,0 -8,2 -13,2 -2,2 -3,2 -5,2l6 2 3 0 19 3c2,0 6,0 15,2 6,2 16,3 26,6 5,2 10,3 15,5 2,2 2,2 3,2 3,2 8,3 13,5 37,16 84,42 124,85 5,6 10,11 15,18 37,-2 174,-6 273,-6 2,0 3,0 6,0 -53,-47 -119,-84 -192,-106 -55,-16 -113,-26 -171,-27z" class="fil6"/><path d="M3865 1276c-34,-65 -81,-103 -140,-116 -39,-8 -79,-5 -118,3 -13,35 -31,71 -52,103 24,5 48,10 71,18 42,15 68,32 92,48 26,18 44,31 73,32 29,3 58,-10 73,-29 6,-10 10,-19 10,-29 0,-10 -3,-19 -8,-31z" class="fil7"/><path d="M2656 1454c-23,13 -45,31 -63,52 -29,35 -44,79 -44,129 0,16 2,32 3,48 6,24 19,40 37,45 24,8 55,0 76,-19 21,-19 29,-40 39,-69 8,-27 19,-58 44,-95 6,-10 13,-19 19,-27 -13,-6 -26,-13 -39,-19 -26,-13 -50,-27 -73,-44z" class="fil7"/><path d="M3312 1343l0 0 0 0c-3,0 -6,0 -10,0 -2,0 -3,0 -3,0 -10,0 -18,-2 -26,-2 -2,0 -5,-2 -8,-2 -55,-10 -106,-34 -150,-71 2,0 3,2 3,2 -45,-37 -82,-89 -108,-148 0,2 2,5 2,6 -26,-58 -40,-124 -40,-195 0,-71 15,-140 42,-198 -90,-23 -150,-50 -174,-63 -44,76 -94,131 -142,173 42,47 76,108 98,177 40,124 34,248 -10,335 -5,10 -11,19 -18,27 -8,13 -16,23 -26,32 -5,5 -8,8 -13,13 8,5 16,10 26,15 18,8 37,16 55,24 10,3 18,6 27,8 8,3 18,6 27,8 69,18 142,23 216,13 0,0 2,-2 3,-2 6,0 15,-2 23,-3 6,-2 13,-2 21,-3 0,0 2,-2 3,-2 19,-3 39,-10 58,-16 37,-11 73,-26 105,-44 0,0 2,-2 3,-2 5,-3 11,-6 18,-10 6,-5 11,-8 18,-11 2,0 2,-2 3,-2 40,-27 77,-58 108,-92 2,0 2,-2 3,-2 -3,0 -6,2 -8,3 -39,19 -82,29 -127,29zm-294 50c0,2 -2,2 -2,3 -2,3 -5,6 -6,10 -2,0 -2,2 -3,2 -6,6 -15,10 -24,13 -29,6 -52,-6 -68,-26 -13,-15 -23,-32 -29,-48 -11,-24 -16,-44 -16,-44 0,0 10,21 26,44 6,6 11,15 18,21 18,19 40,34 61,27 53,-15 40,-127 40,-127 0,0 27,81 3,126z" class="fil7"/><path d="M432 886c15,-45 32,-89 56,-129 0,-2 0,-2 0,-2 -34,-26 -77,-58 -123,-95l-53 -47c-85,-73 -174,-147 -221,-108 -18,13 -26,31 -26,55 0,0 0,2 0,3 0,63 56,158 147,242 16,15 34,27 52,40 50,32 106,58 158,74 3,-11 6,-23 10,-34z" class="fil7"/><path d="M1966 793c-71,6 -134,60 -181,111 0,31 -3,61 -10,94 37,-13 85,-23 132,-23 45,0 77,10 105,19 29,10 48,16 76,8 26,-8 48,-31 56,-58 2,-6 3,-13 3,-23 0,-15 -5,-34 -19,-53 -52,-56 -106,-82 -163,-76z" class="fil7"/><path d="M1519 1265c-2,2 -3,2 -5,2 -6,2 -13,3 -21,5l0 0c-2,0 -3,2 -5,2 -6,2 -13,2 -19,3 -16,2 -34,3 -52,5 -248,5 -456,-203 -463,-464 -2,-60 8,-116 26,-169 -42,15 -81,31 -106,50l-13 10 -8 -13c-3,-8 -29,-53 -47,-94 -3,-6 -6,-15 -10,-21 -10,16 -18,31 -26,45 -39,76 -44,139 -44,139l-2 6 -3 3c-2,2 -32,26 -74,63 77,65 144,161 182,274 0,3 2,5 2,8 13,31 24,66 31,103 18,87 11,171 -11,232 -6,26 -16,50 -26,71 137,40 297,32 450,-29 0,0 2,0 3,-2 18,-6 37,-15 55,-24 5,-2 10,-5 15,-6 19,-11 37,-21 55,-34 5,-2 10,-5 13,-6 3,-3 8,-6 11,-8 3,-3 6,-5 11,-8 3,-2 6,-5 11,-8 27,-21 55,-44 81,-69l2 -2c6,-6 11,-11 18,-18 5,-5 10,-11 16,-18l2 -2c18,-21 35,-44 50,-66 -31,18 -63,31 -97,40 -2,0 -2,0 -2,0zm-329 169c-5,23 -19,39 -44,47 -27,8 -77,8 -118,-8 -68,-29 -116,-92 -121,-123l-2 -3 3 0c2,0 60,15 110,-16 31,-19 52,-50 63,-95l0 -3 3 3c76,68 116,147 105,198z" class="fil7"/><path d="M1385 2042c-34,6 -65,26 -92,52 -8,48 -24,95 -42,129 0,3 -2,6 -2,10 29,-13 66,-24 103,-27 37,-5 66,2 89,6 26,6 44,10 66,0 23,-8 39,-31 44,-53 2,-5 2,-10 2,-15 0,-15 -5,-32 -23,-50 -48,-45 -97,-63 -145,-52z" class="fil7"/><path d="M553 2828c-13,18 -24,35 -31,55 -5,13 -6,27 -6,40 0,35 13,73 42,111 21,26 45,29 61,27 24,-3 47,-18 60,-37 6,-13 8,-24 8,-37 0,-10 0,-18 -2,-29 -2,-13 -3,-26 -3,-42 0,-15 2,-31 5,-48 5,-18 10,-35 16,-52 -50,10 -102,15 -150,11z" class="fil7"/><path d="M1117 2447c-24,18 -52,32 -79,44 -2,0 -3,2 -5,2 -11,3 -23,6 -34,10 -10,2 -19,5 -29,6 -2,0 -2,0 -3,0 -16,2 -31,3 -47,3 -124,0 -248,-79 -305,-194 -5,8 -8,13 -10,15 -29,26 -68,-60 -68,-60 0,0 34,40 53,32 10,-5 56,-135 94,-245 -44,21 -90,47 -140,76 -37,-35 -166,-97 -166,-97 0,0 -29,163 -18,237 -26,18 -56,42 -87,69 81,13 181,31 197,31 27,0 8,-65 8,-65 31,50 31,89 18,94 -2,2 -8,2 -18,0 53,47 82,113 82,182 0,69 -31,135 -82,182 19,5 40,8 63,10 10,0 19,2 29,2 11,0 23,0 34,-2 42,-2 85,-8 127,-21 11,-3 23,-6 34,-10 10,-3 21,-8 32,-13 58,-23 114,-56 168,-100 2,0 2,-2 3,-2 0,-2 2,-2 3,-3 3,-3 6,-6 11,-10 5,-3 10,-8 15,-13l2 -2c52,-47 94,-100 126,-156 0,0 0,-2 2,-2 2,-5 3,-10 6,-13 -5,3 -10,6 -13,10 -2,2 -3,2 -3,2zm-377 190c-55,48 -139,-48 -139,-48 0,0 85,66 123,32 37,-34 -21,-119 -21,-119 0,0 94,89 37,135z" class="fil7"/><path d="M1169 2471c-34,60 -77,116 -132,168 -2,0 -2,2 -3,2 18,16 35,32 53,50 0,0 2,0 3,-2 26,-6 73,-23 119,-71 45,-42 60,-76 66,-95 0,-2 0,-2 0,-3 -39,-21 -74,-37 -105,-52 0,2 -2,2 -2,3z" class="fil8"/><path d="M1472 2641c-24,-18 -50,-35 -76,-52 0,2 0,2 -2,3 -11,21 -35,58 -79,103 11,2 21,5 31,10 2,0 3,2 5,2 3,2 6,3 10,5 3,2 5,3 8,5 2,0 5,2 6,3 5,3 10,6 15,10l0 0c8,6 16,11 23,19 37,-29 61,-73 73,-95l2 -2c-6,-5 -15,-11 -15,-11z" class="fil8"/><path d="M1054 2470c18,-8 34,-18 48,-27 2,-2 2,-2 3,-2 6,-5 11,-10 18,-15 5,-5 11,-10 16,-15 0,0 2,0 2,-2 3,-2 5,-5 8,-8 18,-37 31,-77 39,-116 2,-8 3,-16 5,-23 2,-8 3,-16 3,-24 0,-5 2,-10 2,-13 0,-2 0,-3 0,-5 2,-11 2,-24 2,-35 0,-3 0,-6 0,-8 0,-13 -2,-24 -2,-35 -2,-13 -3,-24 -6,-37 -23,-39 -55,-71 -94,-95 -45,-29 -98,-45 -156,-45 -18,0 -34,2 -50,5 -35,13 -76,29 -119,48 -15,10 -29,23 -42,35 0,2 -2,2 -3,3 -23,53 -45,110 -66,158 0,2 -2,3 -2,6 -3,3 -5,8 -6,13 0,0 -2,2 -2,3 0,2 0,5 0,6 0,2 0,3 0,3 0,65 21,123 56,169 60,52 135,82 213,82 19,0 39,-2 58,-6 2,0 3,0 5,0 10,-2 21,-5 31,-8 11,-3 24,-8 35,-13 2,0 3,-2 5,-2zm-42 -18c-24,8 -48,11 -73,11 -123,0 -223,-95 -223,-214 0,-119 100,-216 223,-216 108,0 198,76 218,176 3,13 3,26 3,40 0,5 0,11 0,18 -5,48 -26,94 -58,127 0,2 -2,2 -2,2 -5,6 -10,11 -16,15 -8,8 -18,15 -29,21 -11,8 -26,15 -39,19 -2,0 -3,2 -5,2z" class="fil8"/><path d="M184 2428c2,16 3,32 6,48 6,42 21,81 42,116 -5,-23 -6,-44 -5,-66 3,-56 24,-108 60,-140 -18,-2 -35,-5 -52,-8 -16,16 -34,32 -52,50z" class="fil8"/><path d="M3467 1891c-31,13 -81,31 -132,29 -2,23 -6,44 -16,65 0,19 -2,42 -3,66 -2,27 -3,55 -3,79 29,13 56,21 81,23 27,2 55,-5 76,-13 5,-37 8,-77 8,-118 0,-44 -3,-89 -10,-131z" class="fil9"/><path d="M3211 1759c-23,-13 -47,-16 -69,-11 -2,0 -2,0 -2,0 -2,0 -2,0 -3,2 -8,2 -16,5 -23,10 -13,8 -23,19 -31,34l0 0c-5,6 -6,11 -10,18 -2,6 -5,13 -5,19 -2,5 -3,8 -3,13l2 0c27,11 66,8 87,3 2,0 3,0 3,0 11,-2 29,-6 48,-13 2,-2 3,-2 5,-3 16,-6 32,-16 42,-31 -11,-16 -26,-31 -42,-40z" class="fil9"/><path d="M3314 2168c0,0 0,6 0,13 0,10 0,24 2,39 2,6 3,15 5,21 5,23 16,40 35,44 42,6 65,-58 69,-85 0,-5 0,-10 0,-11 -74,15 -111,-19 -111,-19z" class="fil9"/><path d="M3201 1876c0,0 0,-2 -2,-3l0 -2c0,0 -2,0 -5,2 0,0 -3,2 -5,2 -19,10 -73,29 -118,6 0,3 0,8 0,11 0,16 2,34 8,50 8,23 19,42 37,53 8,5 18,8 29,8 35,-2 82,-55 58,-119 -2,-3 -2,-5 -3,-8z" class="fil9"/><path d="M3128 757c-31,-5 -60,-10 -85,-16 -27,56 -44,123 -44,192 0,6 0,11 0,16 18,-79 65,-148 129,-192z" class="fil9"/><path d="M3475 759c-3,2 -5,2 -6,2 2,2 5,3 6,5 0,-2 0,-3 0,-6z" class="fil9"/><path d="M2730 1091c-11,-8 -26,-13 -40,-13 -5,0 -10,2 -15,2 -31,6 -56,35 -65,71 -2,8 -2,15 -2,23 0,11 2,23 5,32 10,34 35,58 68,63 3,0 5,0 8,0 15,0 27,-3 39,-11 26,-16 44,-47 44,-84 0,-35 -16,-66 -42,-82z" class="fil9"/><path d="M3324 1164c56,0 102,-47 102,-103 0,-56 -45,-103 -102,-103 -56,0 -102,47 -102,103 0,56 45,103 102,103z" class="fil9"/><path d="M2150 1888c-35,-76 -90,-158 -152,-226 -21,31 -56,77 -105,106 13,23 21,45 26,68 11,19 24,40 37,63 16,26 31,52 45,74 34,-5 65,-16 87,-29 26,-15 47,-37 61,-56z" class="fil9"/><path d="M1025 1002c-15,-37 -21,-77 -21,-118 0,-113 55,-213 140,-281 -37,6 -85,18 -132,32 -21,56 -32,116 -31,181 2,66 16,129 44,185z" class="fil9"/><path d="M1206 564c5,-3 11,-6 18,-10 8,-3 16,-8 24,-11 -24,-23 -50,-40 -74,-55 -16,-8 -32,-15 -47,-21 0,2 -2,2 -2,2 0,2 -2,2 -2,2 6,8 16,18 24,27 19,23 42,48 58,66z" class="fil9"/><path d="M808 1131c-3,-6 -6,-10 -6,-10 -16,-21 -32,-32 -56,-32 -50,0 -90,58 -90,131 0,73 40,131 90,131 40,0 77,-40 90,-92 2,-5 3,-10 3,-15 0,0 -2,-34 -11,-68 -5,-21 -13,-35 -19,-45z" class="fil9"/><path d="M1540 960c0,-69 -58,-126 -129,-126 -71,0 -129,56 -129,126 0,69 58,126 129,126 71,0 129,-56 129,-126z" class="fil9"/><path d="M1596 1847c3,11 10,23 16,34 26,-2 55,-6 76,-23 2,-2 5,-5 8,-6 0,-2 2,-2 2,-3 3,-3 6,-6 10,-10 3,-5 6,-10 10,-15 2,-2 3,-3 3,-5 6,-11 11,-21 16,-32l0 0c3,-10 5,-19 6,-29 0,0 0,-2 2,-3 2,-16 3,-32 2,-47 -40,-16 -82,-15 -113,5 -3,2 -8,5 -11,8 -3,2 -6,5 -10,8 0,2 0,2 -2,2 -6,8 -11,16 -16,26 0,2 0,2 0,3 -5,10 -6,19 -6,31 -2,15 0,31 5,45 0,5 2,8 3,11z" class="fil9"/><path d="M2161 1960c0,-2 0,-3 -2,-5 0,-3 -2,-6 -2,-8 -2,-2 -2,-2 -3,-3 -2,2 -3,5 -5,6 -10,8 -18,15 -27,21 -48,34 -95,37 -95,37 0,0 2,2 3,5 2,2 3,3 5,6 18,26 61,87 100,68 35,-16 35,-77 29,-114 0,-5 -2,-8 -3,-13z" class="fil9"/><path d="M1774 1831c-2,0 -3,-2 -5,-3 0,0 -13,26 -39,50 -3,3 -6,6 -10,10 -3,3 -6,6 -11,8 -13,10 -29,18 -47,23 2,2 3,5 5,6 21,24 56,42 87,47 3,0 6,0 10,0l0 0 0 0c0,0 0,0 2,0 2,0 3,0 5,0 5,0 10,0 15,-2 6,-2 13,-5 18,-10 29,-27 5,-100 -29,-129z" class="fil9"/><path d="M1661 2857c-34,-61 -87,-126 -145,-177 -15,27 -40,69 -77,98 2,3 5,8 6,11 10,15 16,29 19,44 11,15 24,32 37,50 13,19 27,39 44,58 27,-8 52,-19 71,-32 21,-15 35,-35 45,-52z" class="fil9"/><path d="M1279 2863c6,-8 11,-16 16,-24 2,-2 2,-3 3,-5 3,-10 6,-19 10,-29l0 0c2,-6 3,-15 3,-23 0,-2 0,-3 0,-5 2,-13 0,-26 -2,-39 -13,-3 -24,-5 -37,-5 -3,0 -6,0 -10,0 -2,2 -5,2 -6,2 -2,0 -5,0 -6,2 -18,3 -34,11 -45,24 -2,2 -5,5 -6,6 0,2 0,2 0,2 -2,3 -3,5 -5,8 -3,5 -5,10 -6,15 0,0 0,2 0,3 -3,8 -3,16 -3,24 0,13 3,26 8,39 0,3 2,6 3,10 5,8 10,18 16,26 24,-3 52,-11 68,-31z" class="fil9"/><path d="M1671 2904c-45,55 -102,63 -102,63 0,0 3,5 8,10 16,21 58,68 89,50 34,-21 21,-89 10,-115 -2,-3 -3,-6 -5,-8z" class="fil9"/><path d="M1343 2841c-2,-2 -3,-2 -5,-3 0,0 -24,65 -82,84 2,2 3,3 5,5 21,21 56,34 84,32l2 0c13,-2 24,-5 31,-13 23,-26 -3,-84 -34,-105z" class="fil9"/><path d="M651 2244c0,-2 0,-5 0,-6 0,-2 2,-3 2,-3 2,-5 3,-10 6,-13 0,-3 2,-5 2,-6 -15,35 -29,66 -39,85 0,2 0,3 2,3 19,44 48,82 84,113 -35,-47 -56,-105 -56,-169 0,0 0,-2 0,-3z" class="fil9"/><path d="M1116 1941c-6,-8 -15,-16 -21,-23l0 0c-2,-2 -3,-2 -5,-3 -35,5 -102,19 -198,55 16,-3 32,-5 50,-5 58,0 111,16 156,45 39,24 71,56 94,95 -11,-60 -35,-116 -76,-164z" class="fil9"/><path d="M735 2034c-2,8 -5,16 -8,23 2,-2 3,-2 3,-3 13,-13 27,-26 42,-35 -11,5 -23,10 -34,15 0,2 -2,2 -3,2z" class="fil9"/><path d="M958 2162c-44,0 -77,35 -77,77 0,42 34,76 77,76 44,0 77,-34 77,-76 0,-42 -34,-77 -77,-77z" class="fil9"/><path d="M376 2468c-34,15 -48,61 -32,105 18,45 60,69 94,56 35,-13 50,-60 32,-105 -16,-44 -58,-69 -94,-56z" class="fil9"/></g></svg>