<svg xmlns="http://www.w3.org/2000/svg" xmlns:xlink="http://www.w3.org/1999/xlink" width="60" height="60" version="1.1" viewBox="0 0 2681 2681" xml:space="preserve" style="shape-rendering:geometricPrecision;text-rendering:geometricPrecision;image-rendering:optimizeQuality;fill-rule:evenodd;clip-rule:evenodd"><defs><style type="text/css">.fil6{fill:#00ace6}.fil1{fill:#373435}.fil8{fill:#70c176}.fil2{fill:#ee3050}.fil4{fill:#f48884}.fil3{fill:#f79633}.fil5{fill:#fbcfc0}.fil0{fill:#fefefe}.fil7{fill:#ffdd21}</style></defs><g id="Layer_x0020_1"><metadata id="CorelCorpID_0Corel-Layer"/><polygon points="0 2681 2677 2681 2677 3 0 3" class="fil0"/><path d="M2473 1533c0,0 58,-140 3,-277 -55,-137 -204,-221 -333,-232 -128,-11 -196,30 -214,42 0,0 -42,14 -81,-53 0,0 -40,78 -43,121 0,0 -34,-95 -134,-163 0,0 54,-86 55,-206 1,-120 -31,-200 -54,-214 0,0 -25,-18 -94,65 -69,83 -92,198 -92,198 0,0 -55,-10 -128,-1 0,0 -27,-109 -80,-179 -53,-70 -78,-86 -102,-85 0,0 -23,2 -40,72 -17,69 -44,191 36,350 0,0 -47,22 -104,103 0,0 -10,-72 -92,-106 -82,-34 -144,10 -156,54 0,0 -141,-35 -288,50 -146,85 -234,236 -215,384 0,0 -115,-60 -180,48 -44,73 0,143 58,171 58,28 123,73 126,123 0,0 77,-51 82,-185 0,0 72,59 163,65 91,6 158,-12 206,-34 0,0 22,58 14,118 0,0 -28,-63 -66,-53 -39,9 -73,37 -60,103 13,65 69,119 137,116 68,-3 94,-64 123,-151 0,0 19,-3 31,-3 0,0 25,45 37,91 12,47 28,138 70,161 41,23 81,22 93,-16 12,-38 9,-92 -20,-159 -29,-67 -132,-178 -132,-178 0,0 87,33 122,18 0,0 6,114 140,191 0,0 -28,120 64,145 38,10 78,-16 97,-76 0,0 15,72 81,77 66,5 89,-72 78,-147 0,0 115,-53 141,-188 0,0 16,6 45,0 29,-6 68,-22 68,-22 0,0 -78,88 -121,156 -43,68 -62,177 -23,202 39,25 85,13 115,-48 30,-61 33,-123 76,-203 0,0 18,-2 29,0 0,0 22,96 59,123 37,28 117,51 173,-22 56,-73 33,-142 -7,-159 -40,-17 -74,-8 -89,44 0,0 -12,-49 11,-114 0,0 153,49 228,23 0,0 169,47 275,-119 0,0 -40,7 -86,-23zm-1330 142l3 -7c0,0 26,-3 46,-14 0,0 -11,44 -49,21zm-6 -149c-62,-9 -110,-6 -114,-2 0,0 -67,-9 -83,-9 0,0 85,-109 87,-221 0,0 36,158 211,226 0,0 -40,16 -102,7zm507 130c16,7 35,9 35,9l7 15c-38,11 -42,-24 -42,-24zm169 -131c0,0 -21,-3 -50,-3 -29,0 -68,6 -104,6 -36,0 -56,-9 -56,-9 0,0 100,-43 141,-101 41,-58 59,-84 67,-121 0,0 -3,124 72,219 0,0 -53,5 -70,9z" class="fil1"/><path d="M1204 953c0,0 -54,-50 -57,-175 -3,-124 27,-190 35,-198 0,0 3,-3 15,5 12,9 71,56 107,154 36,98 31,163 32,166 0,0 -80,14 -132,46z" class="fil2"/><path d="M1473 903c0,0 -56,-10 -106,-1 0,0 -3,-46 -4,-55 0,0 50,-23 115,-1 0,0 -7,43 -5,56z" class="fil2"/><path d="M1504 907c0,0 85,12 136,48 0,0 37,-44 48,-111 12,-68 15,-192 -27,-263 0,0 -45,10 -98,106 -53,96 -60,196 -59,220z" class="fil2"/><path d="M1140 1125l-61 3c0,0 45,-94 134,-141 46,-24 114,-51 213,-52 99,-1 166,35 220,64 54,29 93,94 115,129l-61 -3c0,0 -95,-119 -123,-130l63 123 -167 -8 -53 -99 -55 100 -166 7 65 -126c0,0 -41,30 -126,132z" class="fil3"/><path d="M1129 1396c0,0 40,18 104,8l-120 -86 -23 -127 2 -48 -18 0c0,0 -23,63 -12,119 11,56 42,112 68,134z" class="fil0"/><path d="M1125 1142l-44 0c0,0 -30,50 -11,118 19,68 54,138 157,144 0,0 31,-2 64,-19 33,-17 70,-62 87,-105 17,-43 13,-108 -14,-156l-42 2c0,0 37,43 30,99 -7,56 -32,126 -111,134 -79,8 -119,-55 -128,-96 -10,-42 -8,-85 14,-120z" class="fil4"/><polygon points="1194 1081 1209 1079 1221 1052" class="fil4"/><path d="M1272 1228c0,31 -22,55 -48,55 -27,0 -48,-25 -48,-55 0,-31 22,-55 48,-55 27,0 48,25 48,55z" class="fil0"/><path d="M1743 1146c0,0 -1,-5 25,-5 0,0 23,68 14,108 -9,40 -11,76 -68,148 0,0 -60,22 -124,3l121 -65 46 -102 -14 -87z" class="fil0"/><path d="M1716 1142l36 1c0,0 21,41 20,86 -1,45 -24,116 -80,145 -56,29 -92,29 -92,29 0,0 -40,0 -85,-43 -45,-43 -65,-91 -63,-146 2,-55 25,-90 25,-90l43 4c0,0 -31,29 -31,87 0,57 33,123 87,140 54,17 128,-8 151,-80 23,-73 -7,-123 -11,-132z" class="fil4"/><polygon points="1635 1080 1647 1082 1620 1049" class="fil4"/><path d="M1662 1228c0,30 -21,55 -48,55 -26,0 -48,-25 -48,-55 0,-30 21,-55 48,-55 26,0 48,25 48,55z" class="fil0"/><path d="M1699 1413c0,0 -96,108 -289,108 -193,0 -271,-108 -271,-108 0,0 119,29 196,-47 77,-76 77,-171 39,-246l47 -89 45 89c0,0 -41,73 -14,153 28,80 93,163 247,139z" class="fil5"/><path d="M1375 1371c0,0 -3,86 42,88 46,2 47,-89 47,-89 0,0 16,108 -48,103 -65,-5 -39,-87 -41,-102z" class="fil1"/><path d="M1322 1629l13 -79c0,0 92,14 171,0l11 81c0,0 -166,-5 -196,-2z" class="fil4"/><polygon points="1298 1794 1307 1741 1531 1741 1539 1795" class="fil4"/><path d="M1155 1639c0,0 68,-11 149,-95l-23 -10c0,0 -82,32 -183,18 0,0 52,19 56,87z" class="fil5"/><path d="M1674 1637c0,0 -4,-53 51,-81 0,0 -90,5 -168,-22l-26 7c0,0 73,87 143,95z" class="fil5"/><path d="M1946 1588c0,0 -35,-32 -39,-39 0,0 -82,2 -130,17 -48,15 -89,58 -67,84 23,26 51,23 104,-1 52,-24 112,-55 132,-62z" class="fil5"/><path d="M877 1585c0,0 80,38 110,50 30,12 98,54 131,16 33,-38 -60,-88 -85,-90 -26,-2 -89,-16 -118,-14 0,0 -29,32 -38,38z" class="fil5"/><path d="M1220 1644c-4,26 -22,50 -46,56 -25,6 -35,-7 -35,-7 8,42 30,77 53,103l33 -39c0,0 -10,27 -25,48 31,33 61,51 61,51l39 -272c-42,37 -80,59 -80,59z" class="fil3"/><path d="M1609 1758l34 38c23,-26 45,-61 55,-102 0,0 -21,15 -44,5 -24,-10 -31,-30 -39,-52 0,0 -58,-40 -78,-61l36 271c0,0 31,-19 63,-53 -23,-27 -28,-45 -28,-45z" class="fil3"/><polygon points="1437 1814 1435 1913 1553 1915 1540 1814" class="fil0"/><path d="M1398 1815l0 103 -117 -3 14 -100c0,0 79,-3 103,0z" class="fil0"/><path d="M1456 1927l97 1c0,0 3,50 -47,45 -50,-5 -49,-34 -50,-46z" class="fil0"/><path d="M1382 1928l-100 -1c0,0 -5,47 41,45 46,-2 56,-29 58,-44z" class="fil0"/><path d="M1117 1897c0,0 -15,-4 -34,2 0,0 2,49 44,61 0,0 3,-24 -10,-63z" class="fil0"/><path d="M1028 1898c0,0 37,-16 84,-14 0,0 -21,-61 -57,-94 0,0 -33,-13 -77,-10 0,0 45,101 50,119z" class="fil0"/><path d="M888 1780c0,0 -141,-13 -184,83 0,0 42,53 97,40 55,-13 67,-57 86,-123z" class="fil0"/><path d="M695 1854c0,0 11,-19 23,-32 0,0 -18,-27 -36,-36 0,0 -11,22 13,68z" class="fil0"/><path d="M812 1769c0,0 160,-17 227,-2 0,0 -68,-84 -78,-93l-145 42c0,0 3,32 -4,53z" class="fil6"/><path d="M876 1618l-25 -13c0,0 -36,24 -50,30 0,0 72,-17 75,-16z" class="fil6"/><path d="M583 1643c0,0 162,23 296,-113 92,-93 97,-185 108,-224 0,0 -112,69 -229,-10 -57,-39 -74,-120 -70,-162 0,0 -66,4 -122,-9 0,0 -4,73 -19,110 0,0 92,20 133,94 41,75 52,153 7,229 -45,76 -91,83 -105,85z" class="fil5"/><path d="M745 1409c0,0 62,69 91,46 15,-12 -7,-70 -26,-98 0,0 66,72 38,109 -17,23 -71,11 -104,-56z" class="fil1"/><path d="M492 1336c-31,48 -75,106 -126,144 0,0 13,49 48,86 0,0 -32,-83 22,-133 53,-50 138,-44 192,10 53,54 43,110 40,124 0,0 19,-26 30,-67 -1,-34 -8,-92 -37,-120 -39,-37 -93,-66 -168,-44z" class="fil6"/><path d="M687 1366c-46,-114 -145,-118 -145,-118 0,0 -19,39 -50,87 75,-22 129,7 168,44 29,28 36,86 37,120 9,-35 11,-81 -10,-133z" class="fil0"/><path d="M598 1540c-16,21 -48,23 -72,4 -24,-18 -31,-50 -16,-71 16,-21 48,-23 72,-4 24,18 31,50 16,71z" class="fil0"/><path d="M885 1271c-16,21 -48,23 -72,4 -24,-18 -31,-50 -16,-71 16,-21 48,-23 72,-4 24,18 31,50 16,71z" class="fil0"/><path d="M965 1299c0,0 16,-8 21,-13 0,0 4,-125 -116,-193 0,0 -71,38 -168,41 0,0 -6,50 21,94 0,0 -11,-54 25,-82 36,-28 94,-34 150,4 55,38 81,81 69,149z" class="fil6"/><path d="M852 1081c0,0 -80,-40 -190,-18 -110,22 -198,100 -237,149 -39,49 -86,137 -66,251 0,0 77,-64 124,-140 47,-76 54,-103 71,-212 0,0 192,32 297,-30z" class="fil7"/><path d="M1022 1195c0,0 5,-53 22,-84 0,0 -13,-84 -73,-106 -60,-22 -105,-9 -111,31 0,0 116,43 154,160l8 -1z" class="fil7"/><path d="M331 1744c0,0 43,-73 33,-133 -10,-61 -49,-136 -118,-128 -69,8 -84,56 -86,88 -2,32 22,70 69,87 47,17 96,51 103,86z" class="fil7"/><path d="M1848 1779c0,0 -38,-3 -76,10 0,0 -38,34 -58,93 0,0 45,-1 83,17 0,0 19,-56 51,-119z" class="fil0"/><path d="M1741 1900c0,0 -13,-9 -30,-5 0,0 -17,43 -15,62 0,0 36,1 45,-57z" class="fil0"/><path d="M1941 1780c0,0 72,1 98,11 26,10 63,27 81,71 0,0 -40,53 -95,41 -55,-12 -69,-65 -84,-123z" class="fil0"/><path d="M2132 1851c0,0 -19,-28 -23,-29 0,0 21,-27 37,-37 0,0 12,34 -14,66z" class="fil0"/><path d="M2015 1771c0,0 -8,-38 -3,-53l-143 -41c0,0 -57,56 -80,90 0,0 118,-10 225,4z" class="fil8"/><path d="M1972 1609c0,0 17,11 32,21l-52 -11 20 -10z" class="fil8"/><path d="M2302 1541c-22,22 -55,25 -73,6 -18,-18 -15,-51 7,-73 22,-22 55,-25 73,-6 18,18 15,51 -7,73z" class="fil0"/><path d="M2015 1275c-23,21 -56,22 -74,3 -18,-19 -14,-52 9,-73 23,-21 56,-23 74,-3 18,19 14,52 -9,73z" class="fil0"/><path d="M2238 1644c0,0 -124,10 -218,-51 -94,-60 -177,-180 -171,-281 0,0 47,23 76,25 29,3 140,-6 184,-84 44,-78 30,-111 30,-111 0,0 22,10 29,16 0,0 75,-42 128,-52 0,0 -38,94 -41,109l17 16c0,0 -63,20 -107,65 -44,45 -69,139 -51,216 18,77 86,135 124,133z" class="fil5"/><path d="M2011 1355c0,0 -61,71 -41,104 20,33 58,10 73,1 15,-10 37,-50 37,-50 0,0 -65,69 -91,45 -26,-24 29,-91 23,-100z" class="fil1"/><path d="M2354 1338c-19,-8 -59,-20 -112,2 -73,30 -125,75 -96,211 3,6 7,12 10,18 0,0 -17,-88 51,-135 68,-46 149,-62 208,37 0,0 -4,-45 -61,-132z" class="fil8"/><path d="M2242 1340c53,-22 93,-10 112,-2 -18,-27 -41,-59 -71,-94 0,0 -97,16 -138,107 -37,82 -29,145 1,200 -29,-135 23,-181 96,-211z" class="fil0"/><path d="M2105 1228c0,0 21,-37 19,-91 0,0 -82,-46 -180,-35 0,0 -87,38 -97,191l11 6c0,0 -13,-64 21,-104 34,-40 80,-72 137,-73 58,-1 98,49 88,106z" class="fil8"/></g></svg>