<svg xmlns="http://www.w3.org/2000/svg" xmlns:xlink="http://www.w3.org/1999/xlink" width="60" height="60" version="1.1" viewBox="0 0 2681 2681" xml:space="preserve" style="shape-rendering:geometricPrecision;text-rendering:geometricPrecision;image-rendering:optimizeQuality;fill-rule:evenodd;clip-rule:evenodd"><defs><style type="text/css">.fil7{fill:#0ba0dc}.fil1{fill:#373435}.fil6{fill:#409c6a}.fil9{fill:#606062}.fil8{fill:#742c4c}.fil4{fill:#ab6c2b}.fil2{fill:#c48846}.fil5{fill:#daa788}.fil3{fill:#fcd2b6}.fil0{fill:#fefefe}</style></defs><g id="Layer_x0020_1"><metadata id="CorelCorpID_0Corel-Layer"/><polygon points="0 2681 2677 2681 2677 3 0 3" class="fil0"/><path d="M1982 1849c-18,-12 -42,9 -69,33 -28,24 -73,61 -85,14 -12,-47 5,-153 4,-213 -1,-60 -5,-96 -72,-143 -67,-47 -98,-70 -151,-70 0,0 -7,-48 18,-46 26,2 93,82 133,61 18,-10 -15,-133 3,-228 0,0 23,-1 43,-26 0,0 60,-1 57,-72 0,0 35,-12 -1,-63 0,0 109,-86 -27,-120 0,0 -14,-34 -51,-34 0,0 -31,-54 -87,-6 0,0 -36,-20 -60,4 -23,24 -16,78 -10,90 0,0 -36,20 -52,50 -16,30 -30,80 -30,80 0,0 -24,-26 -42,-30l4 -20c0,0 35,2 50,-3 0,0 3,-14 -4,-40l9 -15c0,0 35,1 45,-33 10,-34 0,-49 1,-62 1,-13 -4,-17 33,-52 37,-35 55,-74 55,-85 0,-11 -24,-44 -51,-62 0,0 -12,-50 3,-69 15,-19 78,-55 27,-107 0,0 2,-82 -69,-76 0,0 -75,-39 -84,21 0,0 -35,-89 -213,-64 0,0 -2,-29 0,-38 0,0 34,6 52,-4 18,-11 18,-35 37,-50 0,0 24,9 44,4 19,-4 47,-17 45,-29 -2,-12 -14,-16 -28,-13 -14,3 -19,14 -38,-12 -19,-26 -44,-29 -64,-11 -20,18 -35,20 -35,20 0,0 -4,-54 -75,-66 0,0 21,-10 43,-16 21,-6 47,-16 35,-83 0,0 13,-49 -5,-45 -18,4 -21,12 -24,32 -3,20 -17,24 -17,24 0,0 -45,-28 -60,-23 -15,4 -52,17 -67,113 0,0 -147,54 -178,83 -31,29 -86,116 -140,235 0,0 -38,5 -48,14l-32 66c0,0 0,16 19,36 0,0 -68,111 -86,166 -18,55 -17,133 -4,211 13,78 52,195 116,289 0,0 -46,-21 -52,7 -6,29 4,11 27,30 22,19 10,29 10,35 0,6 7,17 43,47 35,30 45,53 56,66 12,13 30,54 103,12 0,0 55,45 85,61 0,0 -42,27 -49,40 -7,14 -7,33 -7,33 0,0 -173,112 -198,171 0,0 -9,64 -3,106 5,43 17,303 44,373 0,0 -10,41 -22,69 0,0 -111,1 -78,132 0,0 54,22 134,6 80,-16 107,-29 131,-60 23,-31 14,-46 14,-46l35 -18c0,0 1,31 4,35 0,0 60,-12 93,-38l-4 -23 6 -7c0,0 -3,-68 -26,-135 -22,-67 -67,-146 -146,-232 0,0 6,-17 19,-42 13,-24 20,-53 -14,-53 0,0 14,-48 182,-166 0,0 11,9 22,1 0,0 -43,87 -37,113 5,26 9,34 71,84 63,50 121,121 121,121 0,0 23,106 -6,256 0,0 -112,9 -76,132 0,0 104,29 228,11 0,0 10,14 42,-26 0,0 12,-29 46,-20l-6 33 121 4 -2 -28 10 -6c0,0 13,1 -18,-127 -31,-128 -65,-250 -90,-281 -26,-31 -103,-67 -158,-86 0,0 -5,-54 -38,-66 -33,-12 -70,-19 -70,-19 0,0 7,-49 78,-107l30 19c0,0 7,1 20,-18 13,-19 34,-55 10,-126 0,0 5,-12 21,-13 16,-1 30,-19 16,-36 0,0 69,-47 114,-37 45,10 106,66 121,87 15,21 20,52 13,143 -7,90 -6,192 37,213 44,21 68,28 121,-9 53,-36 112,-100 57,-135zm-704 -1149c0,0 -19,-40 -39,-27 -20,13 -34,36 -34,36l-35 -27 0 -9c0,0 61,-12 77,-26 0,0 9,22 34,36 0,0 -1,10 -3,16z" class="fil1"/><path d="M1337 621c0,0 -38,1 -67,-26 0,0 -5,-35 -18,-64 0,0 53,-34 53,-49 0,0 65,-16 109,-5 44,10 77,16 111,74 0,0 39,-12 53,30 0,0 -31,-19 -41,-9 0,0 45,41 53,82 0,0 -29,-38 -43,-41 0,0 52,72 -3,117 0,0 -14,-26 -27,-13 0,0 20,-52 -8,-66 0,0 -3,-42 -21,-61 -18,-19 -28,-28 -18,-12 11,16 36,57 26,99 0,0 -5,-3 -6,-8 -1,-5 -4,-20 -7,-26 -3,-6 -8,-11 -5,3 3,14 5,47 -11,62 0,0 -5,-24 -12,-34 -7,-10 -16,-19 -18,-24 -2,-5 -5,-1 3,13 0,0 -28,-28 -38,-56 -9,-28 -7,-41 -7,-47 0,-6 -5,-24 -7,11 0,0 -33,-4 -51,-37 0,0 -32,11 -1,74 0,0 -23,-17 -31,-34 -8,-18 -11,-14 1,7 12,21 20,33 32,40z" class="fil2"/><path d="M1299 624c0,0 3,26 -12,78 -16,53 -38,81 -38,97 1,16 18,63 68,65 50,1 103,-24 119,-50 16,-26 26,-74 26,-85 0,0 1,-7 5,1 4,8 22,8 28,-1 6,-9 31,-53 13,-70 0,0 -6,24 -10,27l-10 -6c0,0 -5,28 -24,37 0,0 -4,-8 -7,-18 -3,-9 -12,-28 -12,-28l-1 2c0,0 -21,-13 -28,-24 -7,-11 -20,-17 -29,-71 0,0 -24,3 -52,-28 0,0 -10,37 16,68 0,0 3,5 -5,5 -8,0 -33,1 -47,-1z" class="fil3"/><path d="M1160 678c0,0 4,73 -78,54 0,0 -47,-37 -71,-47 0,0 -7,-20 -5,-29 0,0 37,-8 49,-15 0,0 11,15 18,15 6,0 4,-7 4,-7 0,0 18,24 44,27 26,3 39,-6 40,2z" class="fil4"/><path d="M1093 577c0,0 -31,33 -9,59 22,26 27,28 64,26 37,-2 96,-27 102,-37 0,0 3,-47 -13,-103 -16,-56 -23,-74 -20,-75 3,-1 25,53 30,68 0,0 44,-28 48,-45 0,0 1,-81 13,-92 11,-10 39,-26 71,-21 32,5 46,13 61,9 15,-3 41,-17 38,-21 -3,-4 -8,-2 -27,2 -19,4 -34,-14 -42,-22 -7,-8 -19,-20 -46,-5 -27,15 -40,19 -40,19 0,0 1,8 -2,8 -3,0 -13,-25 -25,-39 -13,-14 -33,-41 -95,-33 0,0 -10,0 10,-7 21,-7 58,-25 78,-35 20,-10 24,-19 26,-41 2,-22 0,-34 3,-45 3,-10 0,-29 -8,-14 -8,16 -5,38 -20,49 -15,11 -47,21 -61,31 -14,10 -31,26 -31,26 0,0 3,10 -1,6 -4,-4 -11,-40 -4,-55 0,0 -23,27 -32,81 0,0 1,6 -24,13 -25,6 -127,56 -149,72 -22,16 -81,112 -137,224 0,0 82,8 122,41 0,0 -28,-72 -22,-103 6,-31 4,-46 34,-67 30,-21 51,-39 51,-39 0,0 9,-56 22,-76 13,-20 25,-25 15,-10 -10,15 -20,57 -23,72 0,0 8,-7 18,-18 9,-10 15,-13 7,1 -7,14 -24,35 -53,58 -29,23 -51,39 -53,74 -2,35 13,111 30,122 18,11 68,-15 68,-15 0,0 -4,-34 20,-51 0,0 -28,-69 -22,-92 6,-23 15,-34 42,-33 27,1 56,1 91,35 34,34 38,59 6,76 -31,17 -92,34 -111,19z" class="fil4"/><path d="M1309 412c0,0 0,-29 6,-33 6,-4 46,-14 46,-14 0,0 23,0 25,5 2,5 -8,5 -11,15 -3,9 -7,21 -29,26 -22,5 -37,1 -37,1z" class="fil5"/><path d="M1201 232c0,0 6,-20 30,-31 24,-11 41,-19 41,-19 0,0 -9,-1 -28,-9 -19,-8 -46,-8 -43,59z" class="fil5"/><path d="M1289 620c0,0 -14,-8 -18,-11 0,0 1,24 -14,33 0,0 11,22 26,33 0,0 11,-24 6,-55z" class="fil2"/><path d="M1486 747c0,0 -14,-1 -18,-6 0,0 -3,31 -9,55 0,0 14,-24 27,-49z" class="fil2"/><path d="M1337 641c-1,-10 -6,-20 -14,-17 -7,3 -23,16 -20,31 3,15 20,18 24,13 4,-5 9,-17 9,-28z" class="fil0"/><path d="M1333 934c0,0 -61,24 -76,31 0,0 8,34 14,34 5,0 44,-37 63,-66z" class="fil3"/><path d="M1494 1107c0,0 -52,-2 -73,-25 0,0 -14,81 -13,97 0,0 11,26 18,42 0,0 14,-27 20,-50 6,-23 6,-54 45,-45 0,0 2,-8 3,-19z" class="fil3"/><path d="M1428 1632c0,0 20,-41 28,-43 8,-2 40,-1 49,8 9,9 10,17 -2,18 -13,1 -28,-3 -48,29 -20,32 -17,27 -32,30 -16,3 -74,8 -81,4 -7,-4 -18,-19 -29,-22 -11,-3 -20,1 -23,-13 -3,-14 -5,-33 -7,-48 -2,-15 -1,-38 -3,-49 -2,-11 -9,-33 7,-32 0,0 10,5 11,17 1,11 -1,43 0,57 1,15 6,40 14,43 0,0 2,-1 -2,-20 -4,-19 -3,-48 -4,-69 -1,-21 -7,-53 1,-63 8,-9 20,6 20,6 0,0 2,20 0,43 -2,23 -4,16 0,43 4,27 2,57 7,56 5,-1 4,-18 2,-33 -2,-16 -8,-40 -6,-48 2,-8 2,-63 7,-71 5,-8 17,-18 22,0 5,18 3,38 3,61 0,23 -1,31 5,57 6,26 18,46 18,46 0,0 1,-27 4,-49 3,-22 10,-42 7,-54 -3,-13 -7,-40 2,-43 9,-3 17,5 19,18 2,13 0,43 0,43 0,0 0,26 3,41 3,15 5,30 8,37z" class="fil3"/><path d="M978 1559l-20 -19c0,0 -7,6 -7,-5 0,-11 -3,-41 -25,-62 0,0 21,-28 22,-37 1,-8 4,-24 11,-34 7,-10 31,-54 4,-58 0,0 -27,42 -28,47 -1,5 -9,32 -23,48 -14,16 -18,17 -6,1 11,-16 19,-48 20,-55 1,-7 14,-15 21,-30 7,-16 20,-46 2,-62 0,0 -4,-9 -14,16 -9,25 -18,49 -25,59 -7,10 -16,37 -27,52 -11,16 -13,16 -6,1 6,-15 18,-50 27,-67 9,-17 31,-53 29,-72 -2,-19 -5,-30 -18,-30 -13,0 -4,9 -11,25 -7,16 -19,48 -23,58 -4,10 -14,34 -18,45 -4,10 -10,31 -16,33 -5,2 4,-18 8,-37 4,-19 24,-68 30,-76 0,0 7,-21 -9,-26 0,0 -7,-15 -11,5 -4,20 -3,32 -8,45 -5,13 -9,30 -16,43 -6,13 -17,44 -21,51 -4,7 -8,6 0,-19l-11 -21c0,0 -33,-8 -44,-7 -10,1 -22,9 -1,18 21,8 35,21 34,30 -1,9 -13,20 0,28 13,8 44,34 64,58 20,24 40,62 55,64 16,2 61,-11 61,-11z" class="fil3"/><path d="M1237 809c0,0 -1,-28 14,-51 15,-23 22,-47 22,-47 0,0 -16,-33 -28,-28 -25,9 -71,97 -78,114l17 17 21 -3 6 -16c0,0 2,-42 4,-47 2,-5 5,-5 6,19 0,0 17,-43 22,-41 5,2 -15,49 -26,87l21 -3z" class="fil6"/><path d="M1474 800c0,0 41,0 74,-10 0,0 -8,-64 -25,-64 -17,0 -38,48 -49,74z" class="fil6"/><path d="M1402 975l-23 49c0,0 8,-1 27,22 19,23 32,35 58,42 26,6 84,13 84,13 0,0 0,-20 -4,-29 0,0 -64,23 -80,-20 0,0 -50,-6 -45,-59l-17 -17z" class="fil6"/><path d="M1407 911c0,0 -13,20 -8,47 0,0 -30,41 -30,68 0,0 23,19 43,48 0,0 -17,66 -15,92 0,0 -51,-77 -96,-95 -45,-18 -80,-44 -115,19 -34,63 -44,114 -44,114 0,0 -35,-18 -44,-35 0,0 9,-11 30,-27 21,-16 72,-83 68,-144 0,0 38,-21 49,-25 0,0 14,35 23,37 9,1 63,-48 79,-80 0,0 41,-16 59,-17z" class="fil6"/><path d="M1082 1632c0,0 -62,35 -51,48 0,0 13,-24 46,-5 33,19 59,40 80,58 22,19 40,37 61,16 0,0 8,-45 76,-53 67,-8 118,42 159,73 0,0 40,-42 16,-119 0,0 -19,29 -31,33 -12,4 -58,7 -71,7 -13,0 -28,2 -41,-8 -13,-10 -15,-16 -23,-17 -8,-1 -17,-3 -19,-11 0,0 -44,14 -111,3 -67,-11 -92,-25 -92,-25z" class="fil6"/><path d="M999 676c0,0 -5,-15 -4,-27l-16 -13c0,0 -124,-68 -186,-25 0,0 -29,44 -30,54 0,0 57,-39 158,-7 0,0 46,-10 79,19z" class="fil7"/><path d="M789 675l-10 12c0,0 -10,-14 10,-12z" class="fil7"/><path d="M897 662l9 -2c0,0 -43,-15 -93,-6 -50,8 -52,17 -45,25 0,0 2,-35 130,-18z" class="fil7"/><path d="M1171 699c0,0 17,9 26,21 0,0 -32,53 -41,70 0,0 -31,-32 -50,-42 0,0 56,9 65,-49z" class="fil4"/><path d="M1212 318c-12,-7 -39,-11 -59,1 -20,12 -31,28 -21,47 9,18 35,25 53,18 18,-7 45,-27 40,-47 -4,-20 -13,-18 -13,-18z" class="fil0"/><path d="M1247 363c-14,-5 -36,0 -41,8 -5,8 -16,14 -7,36 9,22 34,46 51,34 18,-12 27,-42 18,-58 -9,-17 -21,-19 -21,-19z" class="fil0"/><path d="M1114 371c0,0 1,13 12,17 10,4 18,8 27,6 8,-2 12,-3 14,-2 1,2 -21,9 -27,6 -6,-2 -24,-8 -27,-20 -3,-12 1,-8 1,-8z" class="fil1"/><path d="M1227 448c-2,0 4,12 13,16 9,4 20,6 28,4 7,-2 5,-4 -1,-3 -7,1 -22,-1 -27,-5 -5,-5 -10,-12 -12,-12z" class="fil1"/><path d="M1270 381c-13,-17 -31,-32 -48,-20 0,0 15,-22 3,-35 -12,-13 -33,-27 -65,-15 -32,11 -40,39 -30,54 9,16 27,31 66,18 0,0 -4,20 6,36 11,16 31,36 54,25 23,-11 28,-46 14,-63zm-90 -21c-14,5 -8,21 -6,22 0,0 -35,4 -41,-20 -5,-24 15,-41 37,-47 22,-5 46,6 52,21 6,15 -19,37 -27,40 0,0 -1,-21 -15,-16zm59 80c-28,1 -35,-26 -35,-26 4,3 19,1 15,-16 -3,-17 -19,-1 -19,-1 -3,-12 3,-21 20,-32 17,-10 38,9 47,24 9,15 0,51 -28,51z" class="fil1"/><path d="M1228 325c2,3 26,-6 28,-17 1,-10 -14,-24 -40,-25 -26,-1 -27,-3 -32,3 -5,7 -1,16 15,15 16,-1 31,9 33,14 1,5 -4,8 -3,10z" class="fil1"/><path d="M1270 355c4,11 1,27 6,31 4,4 10,6 12,6 2,0 8,-15 6,-35 -3,-21 -9,-38 -17,-37 -8,1 -30,7 -29,13 1,6 6,4 12,3 6,-1 8,13 10,19z" class="fil1"/><path d="M1017 552c-5,2 -6,11 0,11 6,0 10,-4 7,-8 -3,-3 -7,-3 -7,-3z" class="fil1"/><path d="M1012 607c-4,0 -5,8 1,7 6,-1 3,-7 -1,-7z" class="fil1"/><path d="M1040 578c-4,2 -5,9 0,9 5,0 6,-3 4,-6 -2,-3 -4,-3 -4,-3z" class="fil1"/><path d="M1152 608c-5,1 -3,9 3,8 6,-1 0,-9 -3,-8z" class="fil1"/><path d="M1182 630c-5,-3 -10,6 -3,8 7,1 8,-5 3,-8z" class="fil1"/><path d="M1171 645c-3,-4 -13,4 -8,7 6,3 11,-3 8,-7z" class="fil1"/><path d="M1117 699c-5,0 -6,9 0,8 6,-1 3,-8 0,-8z" class="fil1"/><path d="M1101 710c-3,1 -1,8 3,6 4,-2 1,-7 -3,-6z" class="fil1"/><path d="M1111 721c-1,1 4,9 12,16 8,7 22,29 26,26 4,-3 -8,-15 -13,-21 -5,-6 -22,-24 -25,-21z" class="fil1"/><path d="M1131 716c-1,3 10,8 22,10 12,2 20,8 22,4 1,-4 -14,-6 -21,-10 -7,-3 -21,-8 -22,-5z" class="fil1"/><path d="M1100 688c-2,-2 -19,12 -33,9 -14,-3 -33,-10 -34,-23 -1,-13 -2,-19 -6,-19 -3,0 -4,31 9,38 13,6 29,13 38,13 10,-1 29,-14 26,-17z" class="fil1"/><path d="M1645 779c0,0 38,29 36,46 -2,17 -37,57 -50,75 -13,18 -33,30 -33,53 0,24 6,43 1,56 -5,13 -8,24 -30,30 0,0 6,-30 5,-40 -1,-10 -2,-18 -4,-5 -1,13 -5,45 -26,58 -21,13 -45,24 -64,1 0,0 29,-3 46,-21 17,-18 30,-42 26,-47 -4,-5 -2,5 -14,21 -12,16 -44,40 -79,28 -35,-12 -28,-33 -28,-36 0,0 18,10 44,7 25,-3 44,-18 52,-31 8,-13 8,-20 1,-11 -7,9 -25,25 -48,29 -23,4 -61,-8 -65,-36 -4,-28 2,-46 10,-51 0,0 45,-15 99,-21 53,-6 107,-15 112,-24 5,-8 15,-45 10,-82z" class="fil4"/><path d="M1451 818c0,0 31,-2 58,-7 27,-5 47,-12 55,-23 8,-12 11,-21 7,-22 -4,-1 -5,11 -8,13 0,0 -6,-29 -12,-39 0,0 47,-31 28,-85 0,0 13,2 16,28 0,0 26,-38 -25,-95 0,0 16,1 22,15 0,0 6,-35 -19,-54 -25,-19 -43,-5 -43,-5 0,0 -1,-35 27,-35 28,1 59,16 70,44 10,29 4,35 -2,49 -5,13 -21,44 -13,48 0,0 1,-1 8,-16 7,-15 27,-51 22,-72 -5,-21 -24,-43 -24,-43 0,0 19,-10 37,33 18,43 -2,58 -9,71 -7,13 -29,37 -25,39 4,2 21,-16 34,-33 13,-18 19,-32 19,-32 0,0 16,13 8,30 -8,17 -36,46 -42,58 -6,13 -10,22 -8,58 2,36 2,99 -5,107 -7,8 -20,10 -67,17 -47,7 -138,24 -187,39 -49,15 -204,76 -234,96 0,0 -48,-29 -122,-39 -75,-10 -93,-16 -113,-1 0,0 -4,7 2,5 5,-2 27,-5 64,3 0,0 -13,16 -41,25 -28,8 -41,8 -26,12 15,4 69,-7 86,-34 0,0 33,0 82,21 50,21 61,24 75,24 14,-1 35,-13 35,-13 0,0 2,41 -25,77 -27,36 -59,75 -69,89 -9,15 -7,20 -4,20 2,0 1,-5 10,-14 0,0 12,33 44,38 0,0 -5,17 -24,46 -19,29 -30,44 -27,96 4,52 7,62 19,86 12,24 22,28 24,27 2,-2 -6,-5 -14,-32 -8,-27 -24,-107 -4,-138 20,-31 35,-61 44,-82 8,-21 32,-103 56,-131 24,-28 29,-28 47,-21 18,8 73,38 106,80 33,42 77,143 101,144 0,0 -7,7 -13,12 -5,5 -3,8 14,-2 17,-10 54,-47 76,-98 22,-52 36,-100 53,-123 16,-23 45,-34 45,-34 0,0 13,15 35,0 0,0 17,16 33,7 0,0 29,26 52,10 0,0 13,29 64,18 0,0 61,41 39,66 0,0 -12,-32 -40,-40 -28,-9 -15,-1 -7,2 8,4 76,52 1,110 0,0 12,-47 -4,-69 -16,-22 -33,-31 -37,-29 -4,2 4,4 17,15 13,12 25,52 12,75 -14,23 -41,36 -55,27 0,0 25,-19 23,-45 -2,-26 -13,-48 -30,-58 -17,-10 -19,-10 -9,-1 10,8 33,40 27,59 -5,19 -30,53 -73,39 -42,-14 -40,-33 -40,-50 0,-18 -2,-38 -7,-39 -4,-1 -4,13 -2,25 2,12 1,34 1,34 0,0 -35,16 -55,55 -20,38 -46,100 -50,132 -4,32 -20,59 -21,61 -1,2 -50,0 -76,-22 -26,-22 -91,-61 -102,-60 -12,1 4,7 16,13 13,7 48,35 70,51 22,16 46,32 55,33 0,0 30,38 35,58 4,20 -4,36 -8,39 -4,3 6,3 11,0 5,-3 20,-20 3,-58 0,0 76,-33 136,-10 59,22 143,88 157,123 14,35 11,95 8,139 -3,45 -21,167 28,175 0,0 -8,5 -12,4 -4,-1 -2,7 12,5 13,-2 42,-19 67,-38 25,-19 52,-53 66,-41 14,13 20,47 -15,74 -35,27 -95,84 -142,53 -47,-32 -46,-134 -44,-174 2,-40 12,-138 -1,-160 -12,-22 -43,-72 -96,-93 -53,-21 -81,-48 -179,19 0,0 -28,-6 -45,1 -18,7 -24,27 -24,27 0,0 -8,-46 -7,-60 1,-14 8,-68 -22,-64 -30,4 -18,49 -18,62 1,13 -9,44 -7,57 0,0 -10,-15 -9,-59 1,-44 4,-82 -16,-85 -20,-2 -25,10 -25,19 0,0 -4,-10 -18,-7 -13,3 -18,15 -16,41 0,0 -3,-12 -17,-1 -14,10 -11,24 -8,41 3,18 3,64 7,86 0,0 -66,20 -129,-2 -62,-22 -107,-39 -187,-115 0,0 -7,-32 -21,-44 0,0 15,-22 16,-31 1,-9 3,-16 8,-26 5,-10 31,-57 20,-70 -11,-13 -18,-13 -18,-13 0,0 7,-27 -2,-39 -9,-13 -17,-17 -21,-12 0,0 0,-38 -22,-41 -22,-2 -19,12 -22,22 -4,11 -4,15 -4,15 0,0 -7,-17 -19,-18 -12,-1 -19,4 -21,27 0,0 -11,-37 -23,-58 -12,-21 -31,-59 -107,-62 0,0 -36,-105 -36,-184 0,-79 4,-96 39,-164 35,-68 80,-152 80,-152 0,0 46,-7 66,-2 0,0 -32,10 -53,29 -21,19 -19,16 15,1 33,-16 96,-35 143,-14 47,21 154,107 203,139l61 -1c0,0 8,53 89,55 81,2 121,-59 121,-59z" class="fil4"/><path d="M1382 629c7,8 14,26 8,34 -5,8 -31,17 -35,-15 -2,-16 11,-36 27,-19z" class="fil0"/><path d="M1368 723c-3,-5 -6,-5 -4,-1 2,5 5,7 -7,17 -12,9 -31,-1 -42,-7 -11,-6 -16,-25 -12,-30 4,-5 24,-23 31,-34 18,-30 -7,-45 -9,-47 -3,-1 -20,7 -23,28 -3,21 20,23 20,23 -3,6 -9,11 -9,11 -9,3 -15,-1 -13,1 2,2 9,4 9,4 -9,9 -14,16 -14,16 -5,18 14,35 18,37 4,2 4,7 4,7 -9,17 -7,13 -3,18 4,5 7,8 0,9 -7,1 -2,5 -2,5 22,14 19,-2 14,-6 -5,-4 -9,-12 -9,-12l7 -13c0,0 11,3 27,1 16,-3 22,-21 18,-26zm-61 -63c-5,-11 3,-30 13,-32 9,-3 19,16 12,22 0,0 -25,-2 -9,17 0,0 -11,5 -16,-6z" class="fil1"/><path d="M1386 618c5,-2 -3,-16 -13,-20 -9,-4 -18,-11 -22,9 0,0 3,3 5,1 2,-2 0,-7 13,-1 13,6 13,12 17,11z" class="fil1"/><path d="M1368 685c2,-1 1,8 18,8 17,0 17,-3 17,-3 0,0 -1,11 -18,8 -17,-3 -17,-13 -17,-13z" class="fil1"/><path d="M1360 660c0,0 9,18 24,6 15,-12 -3,-42 -14,-42 -11,0 -10,10 -10,10 0,0 15,1 13,11 -1,11 -18,13 -20,6 0,0 -1,-27 13,-30 13,-3 24,11 28,24 4,13 -3,27 -18,26 -15,-1 -21,-8 -18,-12z" class="fil1"/><path d="M1335 825c-2,4 33,20 36,16 3,-4 -34,-20 -36,-16z" class="fil1"/><path d="M1337 841c-2,1 23,25 27,22 4,-3 -24,-24 -27,-22z" class="fil1"/><path d="M1335 849c-3,0 8,30 11,30 3,0 -7,-30 -11,-30z" class="fil1"/><path d="M1324 854c-3,-1 -4,34 3,34 7,1 0,-34 -3,-34z" class="fil1"/><path d="M1315 856c-2,1 -11,33 -6,34 5,1 8,-34 6,-34z" class="fil1"/><path d="M1309 852c-2,0 -25,31 -22,33 3,2 24,-33 22,-33z" class="fil1"/><path d="M1299 848c-2,0 -22,20 -20,24 3,4 21,-24 20,-24z" class="fil1"/><path d="M1295 838c-2,-2 -31,24 -28,28 3,3 30,-25 28,-28z" class="fil1"/><path d="M1294 826c-1,-4 -32,14 -30,17 2,3 30,-14 30,-17z" class="fil1"/><path d="M1292 812c0,-4 -30,5 -29,9 1,4 29,-7 29,-9z" class="fil1"/><path d="M1304 780c-3,-2 -7,13 -3,14 4,1 5,-12 3,-14z" class="fil1"/><path d="M1054 1393c5,18 5,43 26,67 20,24 45,42 58,42 13,1 23,11 -7,3 -30,-8 -58,-28 -69,-59 -11,-31 -17,-68 -10,-67 7,1 1,5 3,14z" class="fil1"/><path d="M1530 1332c-3,-1 -13,19 -25,39 -11,19 -30,53 -36,52 -6,-1 -34,-23 -39,-30 -5,-6 -8,-3 -1,5 8,8 36,36 44,32 8,-4 40,-63 45,-73 5,-11 15,-23 11,-25z" class="fil1"/><path d="M1015 760c-2,-13 -26,-18 -61,-21 -36,-3 -97,-5 -97,20 0,25 37,71 108,94 0,0 60,-25 51,-93z" class="fil1"/><path d="M1076 905c-10,1 -23,-21 -22,-34 1,-13 -8,-22 23,-27 30,-5 52,-2 54,7 2,8 -35,52 -55,54z" class="fil1"/><path d="M1838 1078l14 10c0,0 39,-35 33,-56 -6,-21 -31,-45 -51,-43 -21,2 -77,37 -63,67 15,30 59,12 66,10 7,-2 30,-18 31,-16 2,2 -12,20 -30,28z" class="fil4"/><path d="M1819 981c0,0 -15,-34 -48,-26 -33,8 -68,46 -58,76 10,31 33,24 42,21 0,0 -2,-47 63,-72z" class="fil4"/><path d="M1765 944c0,0 -13,-16 -36,-10 -22,5 -43,36 -46,58 -2,22 -14,54 18,52 0,0 -16,-71 63,-100z" class="fil4"/><path d="M1687 948c0,0 -27,-14 -39,1 -13,15 -17,43 -10,71 7,28 21,24 31,17 0,0 -8,-45 19,-90z" class="fil4"/><path d="M1435 1235c0,0 21,41 35,43 0,0 32,-32 45,-51 13,-19 22,-49 22,-49 0,0 -30,-27 -49,-33 -19,-6 -24,4 -30,29 -6,25 -16,54 -23,62z" class="fil4"/><path d="M1494 1470l14 21c0,0 41,-22 86,-21 0,0 -5,-46 24,-57 29,-11 57,30 81,41 24,10 49,25 52,21 3,-4 -8,-35 -6,-92 2,-56 6,-126 6,-126 0,0 -13,-5 -18,-9 0,0 -24,4 -33,1 0,0 -13,34 -30,50 -18,16 -16,5 -6,-6 0,0 -25,-38 -53,-55 0,0 -24,26 -44,88 -20,62 -22,82 -27,101 -5,19 -8,31 -20,39 -11,7 -25,6 -25,6z" class="fil4"/><path d="M1669 1392c-5,4 32,31 39,31 6,0 18,-56 23,-83 5,-27 17,-98 3,-41 -14,57 -23,111 -26,115 -3,4 -34,-25 -39,-22z" class="fil1"/><path d="M1168 1763c0,0 -45,-33 -61,-50 -17,-17 -47,-31 -47,-31 0,0 -153,97 -198,150 -45,53 -39,50 -33,159 6,109 22,292 35,338 0,0 11,-29 13,-45 1,-15 13,-40 6,7 -7,47 -32,124 -32,124l22 4c0,0 25,-24 72,-26 47,-3 138,45 210,6 0,0 -4,-104 -45,-175 -16,-28 -38,-67 -57,-96 -29,-46 -59,-84 -64,-96 -8,-19 13,-36 18,-60 6,-24 3,-17 -13,-25 -15,-8 -25,-47 -18,-50 7,-3 3,21 15,31 0,0 60,-92 177,-164z" class="fil8"/><path d="M1379 2114c0,0 15,92 8,139 -7,47 -14,92 -14,92 0,0 57,4 74,19 0,0 53,-26 102,8 49,35 115,71 157,67 0,0 -29,-181 -77,-299 -47,-118 -43,-104 -78,-122 -35,-18 -104,-50 -107,-58 -3,-8 -22,-53 -42,-61 -19,-8 -67,-18 -70,-29 -3,-11 6,-61 70,-115 0,0 -43,-46 -93,-42 -50,4 -67,22 -67,22 0,0 -75,134 -58,157 17,24 67,64 117,114 50,50 99,114 109,134 10,19 10,28 -31,-25z" class="fil8"/><path d="M1449 2259c0,0 28,-18 53,-8 25,10 42,24 56,40 14,17 47,40 47,40 0,0 -43,-45 -57,-61 -14,-17 -72,-56 -99,-11z" class="fil1"/><path d="M1504 2476c0,0 -7,-81 -60,-102 -53,-21 -136,-24 -152,36 -15,60 -7,58 14,60 21,1 154,11 198,6z" class="fil9"/><path d="M1696 2455c0,0 -70,-13 -99,-31 -29,-18 -71,-65 -141,-53 0,0 64,45 54,106 0,0 24,-8 35,-26 11,-18 40,-21 56,-14 15,7 1,32 1,32l89 -1 4 -13z" class="fil9"/><path d="M1084 2432l1 21 67 -28 -3 -13c0,0 -49,21 -65,19z" class="fil9"/><path d="M1043 2430c0,0 -35,-6 -51,-13 -17,-7 -47,-20 -110,4 0,0 57,10 58,21 1,11 -10,-4 -32,-7 0,0 60,32 92,67 0,0 19,-14 21,-26 1,-13 -7,-33 22,-46z" class="fil9"/><path d="M990 2510c0,0 -81,-86 -131,-81 -50,6 -103,15 -93,109 0,0 109,35 224,-28z" class="fil9"/></g></svg>