<svg xmlns="http://www.w3.org/2000/svg" xmlns:xlink="http://www.w3.org/1999/xlink" width="60" height="60" version="1.1" viewBox="0 0 2694 2694" xml:space="preserve" style="shape-rendering:geometricPrecision;text-rendering:geometricPrecision;image-rendering:optimizeQuality;fill-rule:evenodd;clip-rule:evenodd"><defs><style type="text/css">.fil1{fill:#373435}.fil2{fill:#91d8f7}.fil4{fill:#cb7246}.fil0{fill:#fefefe}.fil3{fill:#ffcc29}</style></defs><g id="Layer_x0020_1"><metadata id="CorelCorpID_0Corel-Layer"/><polygon points="9 2686 2686 2686 2686 9 9 9" class="fil0"/><path d="M1150 259l-12 32 0 0 -3 8 0 0 0 0 -1 1 -1 2 -1 2 -1 2 -1 3 -1 3 -1 3 -1 3 -1 3 0 4 0 4 0 4 0 4 0 4 0 4 1 4 1 4 1 5 2 5 2 5 2 5 3 5 3 5 3 5 4 4 4 4 4 4 8 7 7 6 6 6 5 5 4 4 3 3 2 3 2 2 1 2 0 1 0 0 0 0 0 1 0 1 0 2 -1 2 0 1 0 2 -1 3 -1 3 -1 4 -1 4 -1 4 -1 5 -1 5 -1 6 -1 6 -1 6 -1 6 -1 7 -1 7 -1 7 -1 7 -1 8 -1 8 -1 8 -1 8 -1 8 -1 8 -1 8 -1 8 -1 8 0 8 0 8 0 8 0 8 0 8 0 7 1 7 0 6 0 6 0 6 0 5 0 5 0 5 0 5 1 5 1 5 1 5 1 5 1 5 1 5 1 5 1 6 1 6 2 6 2 7 2 7 2 8 2 8 3 9 3 10 3 11 3 11 4 12 4 13 4 14 5 16 5 17 5 18 1 3 1 2 1 3 1 3 1 3 1 3 1 3 1 3 1 3 0 1 0 0 -5 0 -6 0 -6 1 -6 2 -6 4 -5 6 -2 7 0 7 0 5 0 4 0 3 0 2 0 2 0 1 0 2 1 2 1 2 1 3 1 4 1 5 2 5 2 6 2 6 2 6 2 6 2 6 2 6 2 5 1 5 1 4 1 3 1 3 1 3 1 3 0 2 -6 7 -1 1 -1 1 -1 1 -1 2 -1 2 -1 2 -1 2 -2 2 -2 3 -2 3 -2 3 -2 3 -2 4 -2 4 -2 4 -2 4 -2 5 -2 5 -2 5 -3 6 -3 6 -3 6 -3 7 -3 7 -3 7 -3 8 -3 8 -3 8 -3 9 -3 9 -3 9 -4 11 -3 11 -3 10 -3 10 -3 9 -3 9 -3 9 -2 8 -2 8 -2 7 -2 7 -2 7 -2 6 -2 6 -2 6 -2 6 -1 5 -1 5 -1 5 -1 4 -1 4 -1 4 -1 4 -1 4 -1 3 -1 3 -1 3 -1 3 -1 3 -1 3 -1 3 -1 2 -2 3 -2 3 -2 3 -2 3 -2 3 -2 4 -3 4 -3 4 -3 4 -3 4 -3 4 -3 4 -3 4 -3 4 -3 4 -3 4 -3 5 -3 5 -3 5 -3 5 -3 5 -3 5 -3 5 -3 5 -3 5 -3 5 -3 5 -3 4 -2 4 -2 4 -2 4 -2 4 -3 7 -3 6 -3 5 -2 4 -2 4 -2 4 -2 4 -2 4 -2 4 -1 4 -1 4 -1 5 -1 6c-19,73 -32,156 -46,252l-1 7 -1 7 -1 6 -1 5 -1 4 -1 3 -1 2 -1 2 -1 2 -1 2 -1 3 -1 3 0 1 0 -2 -1 -4 -1 -4 -1 -3 -1 -3 -1 -3 -1 -3 -1 -3 -1 -3 -1 -3 -1 -3 -1 -3 -1 -3 -1 -3 -2 -5 -2 -5 -1 -4 -1 -3 -1 -3 -1 -2 -1 -2 -1 -2 0 -1 0 -1 0 -1 0 0 0 0 0 -1 -1 -1 -1 -1 -1 -2 -1 -2 -2 -2 -2 -2 -3 -2 -3 -2 -4 -2 -4 -2 -5 -1 -5 -1 -5 0 -5 1 -6 2 -5 2 -5 2 -4 2 -4 2 -8 4 -4 2 -4 2 -4 2 -4 2 -4 2 -4 2 -3 2 -3 3 -3 3 -3 3 -3 3 -2 3 -2 3 -2 3 -2 3 -2 3 -2 3 -2 3 -2 3 -1 4 -1 4 -1 4 -1 4 -1 4 -1 4 0 5 0 5 0 4 0 4 -1 4 -1 4 -1 4 -1 4 -1 4 -1 5 -1 5 -2 5 -2 5 -2 5 -2 5 -2 5 -2 4 -1 3 -2 -4 -3 -6 -3 -6 -3 -6 -3 -6 -2 -6 -2 -6 -2 -5 -2 -5 -2 -5 -2 -5 -2 -5 -2 -5 -1 -5 -1 -5 -1 -5 -1 -5 -1 -5 -1 -5 -1 -4 -1 -4 -1 -4 -1 -4 -1 -4 -1 -4 -1 -4 0 -4 0 -4 0 -4 0 -4 0 -4 0 -4 0 -4 0 -5 0 -5 1 -5 1 -5 1 -5 1 -6 1 -6 2 -6 2 -6 2 -6 2 -6 2 -6 2 -6 2 -6 2 -6 2 -6 2 -6 2 -6 3 -6 3 -6 3 -6 3 -6 3 -6 3 -5 3 -5 2 -5 2 -5 2 -5 2 -5 2 -4 2 -4 2 -4 2 -4 2 -4 2 -4 2 -4 2 -4 2 -4 2 -4 2 -4 2 -4 2 -4 2 -4 2 -4 2 -4 2 -4 2 -5 2 -5 2 -5 2 -5 2 -5 2 -5 2 -6 2 -6 2 -6 3 -6 3 -6 3 -7 3 -7 3 -7 3 -8 3 -8 3 -8 3 -8 2 -7 2 -7 2 -7 2 -7 1 -6 1 -6 1 -6 1 -6 1 -6 1 -6 0 -6 0 -6 0 -5 0 -5 0 -5 0 -5 0 -5 0 -5 0 -5 -1 -6 -1 -6 -1 -6 -1 -6 -1 -6 -1 -6 -1 -6 -1 -7 -1 -7 -1 -7 -1 -8 -4 -15 -4 -13 -5 -11 -5 -9 -6 -8 -6 -7 -7 -5 -7 -4 -7 -2 -7 0 -7 1 -6 2 -6 3 -5 3 -5 3 -5 4 -3 5 -2 4 -2 4 -2 4 -2 4 -1 4 -1 4 -1 4 -1 4 -1 4 0 4 0 4 0 4 0 4 0 4 0 4 0 4 0 4 0 5 0 5 0 5 0 5 0 5 0 5 0 5 0 5 0 5 0 6 0 6 0 6 0 6 0 6 0 7 0 7 0 7 -1 7 -1 7 -1 7 -1 7 -1 7 -1 7 -2 6 -2 6 -2 6 -2 6 -2 6 -2 6 -2 6 -2 6 -2 6 -2 6 -3 6 -3 6 -3 6 -3 6 -3 6 -3 6 -3 6 -3 6 -3 6 -3 6 -3 6 -3 6 -3 6 -3 6 -3 5 -2 5 -2 5 -2 4 -2 4 -2 4 -2 4 -2 4 -2 4 -2 4 -2 4 -2 4 -2 3 -2 4 -2 4 -2 4 -2 4 -2 4 -2 4 -2 4 -2 4 -2 5 -2 5 -2 5 -3 5 -3 6 -3 6 -3 6 -3 7 -3 7 -4 8 -4 8 -3 9 -3 9 -2 9 -2 9 -2 9 -1 9 -1 9 -1 9 0 9 0 9 0 9 1 9 1 9 1 9 1 9 1 8 2 8 2 8 2 8 2 8 2 8 2 8 2 8 2 8 2 7 2 7 2 7 2 7 2 7 2 6 2 6 2 5 2 5 2 5 2 5 2 5 2 5 2 4 2 4 2 4 2 4 2 4 2 4 2 4 2 4 2 4 2 4 2 4 2 4 2 3 2 3 2 3 2 3 2 3 2 3 2 3 1 3 1 2 1 2 1 2 1 2 1 2 7 11 -1 4 -1 5 -1 5 -1 5 -1 6 -1 6 0 3 0 3 0 4 0 4 0 4 0 4 0 4 0 4 0 4 0 4 0 4 0 4 0 4 0 4 1 4 1 4 1 4 1 4 1 4 1 4 1 4 1 4 2 4 2 4 2 4 2 4 2 4 2 4 3 4 3 4 3 4 3 3 5 5 5 5 4 4 4 4 3 3 3 3 3 3 3 3 3 3 3 2 3 2 3 2 4 2 4 2 4 2 5 3 5 3 3 2 -6 2 -7 5 -4 6 0 0 -4 -2 -5 -2 -5 -2 -5 -2 -5 -1 -5 -1 -6 0 -6 0 -6 1 -6 1 -3 1 -8 -6 -3 -2 -3 -2 -3 -2 -4 -2 -4 -2 -4 -2 -5 -1 -5 -1 -5 -1 -5 0 -6 0 -6 1 -3 1 -4 -5 -3 -3 -4 -3 -5 -3 -5 -2 -6 -2 -7 -1 -7 0 -5 0 -4 0 -4 0 -4 0 -5 1 -1 0 -17 -5 -3 -1 -3 -1 -3 -1 -3 0 -3 0 -3 0 -3 0 -4 1 -4 1 -4 1 -4 2 -3 3 -3 3 -3 4 -2 4 -1 3 -1 2 -1 3 -1 3 -1 3 -1 3 -1 3 -1 3 -1 3 -1 4 -1 4 -1 4 -1 4 -1 4 -1 4 -1 4 0 4 0 4 0 4 0 4 0 1c0,4 -3,49 22,49l0 1 1 3c1,16 14,39 36,36 6,15 18,22 35,17l0 1 2 4 3 4 5 5 4 4 4 4 4 3 4 3 4 3 4 2 4 2 4 2 4 1 4 1 4 1 4 1 4 0 4 0 3 0 3 0 3 0 3 0 3 0 3 0 3 0 3 0 3 0 3 -1 3 -1 3 -1 3 -1 3 -1 3 -1 4 -1 4 -1 4 -1 4 -1 4 -1 4 -1 3 -1 3 -1 3 -1 3 -1 3 -1 2 -1 2 -1 3 -1 1 0 1 0 2 0 2 -1 3 -1 3 -1 3 -1 3 -1 4 -1 4 -1 4 -1 4 -1 4 -2 4 -2 4 -2 1 -1 2 -1 2 -1 3 -1 3 -1 4 -1 4 -1 4 -1 5 -1 5 -1 5 -1 5 -1 6 -1 6 -1 6 -1 6 -1 6 -1 6 -1 6 -1 6 -1 6 -1 6 -1 6 -1 6 -1 6 -1 6 -1 6 0 6 0 5 0 5 0 5 0 5 0 9 -1 8 -1 7 -1 7 -1 6 -1 5 -1 5 -1 4 -1 4 -1 4 -1 3 -1 3 -1 3 -1 2 -1 2 -2 2 -2 1 -1 1 2 3 4 3 3 7 6 0 0 2 6 2 6 3 6 4 5 5 5 6 4 7 4 14 6 2 5 3 5 4 5 5 4 6 4 6 4 7 4 6 2 0 2 1 4 1 4 2 4 2 4 2 4 3 3 3 3 3 3 4 2 3 2 3 2 4 2 4 2 4 1 4 1 4 1 4 1 5 1 5 1 5 0 5 0 5 0 6 0 6 -1 6 -1 6 -1 7 -1 7 -2 7 -2 8 -2 8 -3 8 -3 9 -3 9 -4 9 -4 10 -4 10 -5 11 -5 11 -6 12 -6 12 -7 15 -9 1 0 1 -1 2 -1 2 -2 3 -2 3 -3 3 -3 3 -3 3 -4 3 -4 3 -5 3 -5 2 -6 2 -6 1 -7 0 -7 0 -6 0 -5 0 -4 0 -3 1 0 3 0 3 0 3 0 4 0 4 0 4 0 4 0 4 0 4 0 4 0 5 0 5 0 5 0 5 0 5 0 5 0 5 0 5 0 5 0 5 0 5 0 5 0 5 0 4 0 4 0 4 -1 4 -1 4 -1 4 -1 4 -1 3 -1 7 -1 7 -1 6 -1 5 -1 5 0 5 0 4 0 4 0 3 0 3 1 3 1 3 1 2 1 2 1 3 2 3 2 3 3 3 2 3 2 3 2 3 2 3 2 3 2 3 2 4 1 4 1 4 1 4 1 4 1 5 0 5 0 5 0 6 0 6 0 6 0 6 0 6 0 6 0 6 0 6 -1 6 -1 5 -1 5 -1 5 -2 5 -2 5 -2 5 -3 4 -3 3 -3 3 -2 1 -1 3 3 7 2 5 0 6 0 1 0 1 0 2 -1 2 -1 3 -1 3 -1 3 -2 4 -2 4 -3 4 -3 4 -4 3 -4 3 -5 3 -5 2 -6 1 -6 0 -4 0 -4 0 -4 0 0 7 1 8 -5 4 -7 2 -7 1 -9 0 -2 0 -1 0 -1 0 -2 0 -2 0 -3 0 -3 -1 -3 -1 -3 -1 -4 -1 -4 -1 -4 -1 -4 -2 -5 -2 -5 -2 -5 -2 -5 -3 -5 -3 -5 -3 -5 -3 -5 -4 -5 -4 -5 -5 -5 -5 -4 -5 -4 -6 -4 -6 -4 -7 -3 -7 -3 -7 -3 -5 -1 -2 -4 -3 -3 -2 -2 -2 -2 -3 -2 -3 -2 -3 -2 -4 -2 -4 -1 -1 0 -2 -1 -3 -1 -4 -1 -4 -1 -5 0 -6 0 -6 0 -7 1 -7 2 -8 2 -8 3 -8 4 -9 5 -9 6 -9 7 -8 7 -7 6 -6 6 -5 5 -5 4 -4 4 -3 3 -3 3 -3 2 -2 2 -2 1 -1 1 -1 1 -1 0 -1 0 -2 0 -2 1 -3 1 -3 1 -3 1 -4 1 -4 1 -4 1 -4 1 -4 1 -4 1 -4 0 -4 0 -3 0 1 -1 3 -3 3 -3 4 -4 2 -2 2 -2 2 -2 2 -3 3 -3 3 -3 3 -3 3 -4 3 -4 3 -4 4 -4 4 -4 4 -4 4 -4 4 -4 4 -4 4 -4 4 -4 4 -4 4 -4 4 -4 4 -4 3 -4 3 -4 3 -4 3 -3 3 -3 3 -3 3 -3 2 -3 2 -2 3 -3 3 -6 2 -5 2 -5 1 -5 1 -5 1 -5 0 -4 0 -4 0 -4 0 -4 0 -3 0 -3 0 -3 0 -2 0 -2 0 -2 0 -2 0 -2 0 -2 0 -2 0 -2 0 -1 0 -1 0 -1 0 -1 0 -1 0 -1 0 -1 1 -2 1 -2 1 -2 2 -3 2 -3 2 -4 3 -4 3 -4 3 -4 3 -4 3 -5 3 -5 3 -5 3 -5 3 -5 3 -5 3 -5 2 -5 2 -4 2 -4 1 -3 1 -3 1 -3 1 -3 1 -4 1 -4 1 -4 0 -4 0 -4 0 -4 0 -4 -1 -4 -1 -4 -1 -4 -2 -4 -2 -4 -3 -4 -3 -4 -4 -4 -4 -3 -5 -3 -5 -2 -6 -2 -6 -1 -7 -1 -7 0 -7 0 -8 1 -9 1 -9 2 -10 2 -10 3 -8 3 -8 3 -8 3 -7 3 -7 3 -7 3 -7 3 -7 3 -7 3 -6 4 -6 4 -6 4 -6 4 -6 4 -5 4 -5 4 -5 4 -5 4 -5 4 -4 4 -4 4 -4 3 -4 3 -3 3c-10,0 -11,-11 -9,-20 9,-24 18,-47 25,-61l1 -1 2 -3 2 -4 2 -4 2 -4 2 -4 0 0 0 -1 1 -2 1 -2 1 -3 1 -4 2 -4 2 -4 2 -5 2 -5 3 -5 3 -6 3 -6 3 -6 3 -6 4 -6 2 -3 2 -3 2 -3 2 -4 2 -4 2 -4 2 -4 2 -4 3 -4 3 -4 3 -4 3 -4 3 -4 3 -4 3 -4 3 -4 3 -4 3 -4 3 -4 3 -4 3 -3 3 -3 3 -3 2 -3 2 -3 2 -3 2 -2 2 -2 2 -2 2 -2 2 -1 1 -1 2 -1 2 -2 3 -2 3 -2 3 -2 3 -2 4 -3 4 -3 4 -3 4 -3 5 -3 5 -4 5 -4 5 -4 5 -4 5 -5 5 -5 6 -5 6 -5 6 -6 6 -6 6 -6 6 -7 6 -7 6 -7 6 -8 6 -8 6 -8 6 -9 6 -9 6 -9 6 -10 5 -10 5 -9 5 -9 4 -9 4 -9 4 -9 4 -9 3 -8 3 -8 3 -8 3 -8 2 -8 2 -8 2 -8 2 -8 2 -8 1 -8 1 -8 1 -8 1 -8 1 -8 0 -7 4 2 4 1 5 1 5 0 6 0 3 0 3 0 3 0 4 0 4 0 4 0 4 0 4 0 4 0 5 0 5 0 5 0 5 0 5 0 5 0 5 0 5 0 5 0 5 0 5 0 5 0 5 0 5 0 5 0 5 0 5 0 5 0 4 0 4 1 4 1 4 1 4 1 4 1 4 1 4 1 5 1 5 1 5 1 5 1 5 1 5 1 5 1 5 1 5 1 5 1 5 1 5 1 5 1 5 1 5 1 5 0 5 0 5 0 5 0 5 0 4 0 4 0 4 0 4 0 4 0 4 0 3 0 3 -1 3 -1 5 -1 4 -1 4 -1 4 -1 4 -1 3 -1 3 -1 3 -2 3 -2 3 -2 3 -2 2 -2 2 -2 2 -3 2 -3 1 -3 1 -2 1 -2 1 -3 1 -3 1 -3 1 -3 0 -3 0 -4 0 -4 0 -4 0 -4 -1 -5 -1 -5 -1 -5 -1 -5 -2 -6 -1 -3 -1 -3 -1 -3 -1 -3 -1 -3 -1 -3 -1 -3 -1 -3 -1 -3 -1 -4 -1 -4 -1 -4 -1 -4 -1 -4 -1 -4 -2 -4 -2 -4 -2 -4 -2 -4 -2 -4 -2 -4 -2 -4 -2 -4 -2 -4 -2 -4 -2 -4 -2 -4 -2 -4 -2 -4 -2 -4 -2 -4 -2 -4 -2 -4 -2 -4 -2 -4 -2 -4 -2 -4 -2 -4 -2 -4 -2 -4 -2 -4 -2 -4 -2 -4 -2 -4 -2 -4 -2 -4 -2 -4 -2 -4 -2 -4 -1 -4 -1 -4 -1 -4 -1 -4 -1 -4 -1 -4 -1 -4 -1 -4 -1 -4 -1 -4 -1 -4 -1 -4 -1 -4 -1 -4 -1 -4 -2 -8 -2 -8 -2 -7 -2 -7 -2 -6 -2 -6 -2 -5 -2 -5 -2 -4 -1 -4 -1 -3 -1 -3 -1 -2 0 -2 0 -1 0 -1 0 -3 0 -3 0 -3 0 -3 -1 -4 -1 -4 -1 -5 -1 -5 -1 -3 -1 -3 0 -3 0 -3 0 -3 0 -3 0 -3 0 -3 0 -3 0 -4 0 -4 0 -4 0 -4 0 -4 0 -4 0 -3 0 -2 0 -7 0 -3 0 -3 0 -3 0 -3 0 -3 0 -3 0 -3 0 -3 0 -3 0 -3 0 -3 0 -3 0 -3 0 -3 0 -3 0 -3 0 -3 0 -3 0 -3 0 -3 0 -3 0 -3 0 -3 0 -3 0 -2 0 -2 0 -2 0 -2 1 -4 0 -4 0 -4 0 -4 0 -4 0 -5 0 -5 -1 -5 -1 -5 -1 -5 -2 -5 -2 -5 -3 -5 -4 -5 -4 -5 -4 -5 -4 -4 -4 -4 -3 -3 -3 -3 -3 -3 -2 -3 -2 -2 -2 -2 -2 -2 -2 -2 -2 -2 -2 -2 -2 -2 -3 -1 -3 -1 -2 0 -1 0 -1 0 -2 0 -2 0 -3 0 -3 0 -3 0 -4 0 -4 0 -4 1 -4 1 -4 2 -4 3 -4 3 -3 4 -3 4 -2 4 -2 4 -2 3 -2 3 -2 3 -1 1 -3 -4 -3 -3 -4 -2 -4 -2 -5 -1 -6 -1 -5 0 -5 1 -5 1 -4 2 -4 2 -3 2 -3 2 -2 2 -2 2 -2 2 -1 2 0 1 0 -1 -2 -3 -3 -3 -3 -3 -4 -3 -5 -2 -5 -1 -3 0 -2 0 -3 0 -3 0 -3 0 -3 0 -4 1 -4 1 -4 2 -3 3 -3 3 -3 4 -3 4 -3 5 -3 6 -3 7 -2 7 -2 6 -2 6 -2 6 -2 6 -2 6 -2 6 -2 6 -1 6 -1 6 -1 6 0 6 0 6 1 6 1 6 2 5 1 3 1 3 1 3 1 3 1 3 1 3 1 3 1 3 2 3 2 3 2 3 2 3 2 3 3 3 2 2 -5 2 0 0 -1 0 -1 0 -1 0 -2 0 -2 0 -2 0 -2 0 -2 0 -3 0 -3 0 -3 -1 -3 -1 -4 -1 -5 -2 -6 -1 -6 -1 -6 -1 -7 0 -7 0 -7 1 -7 2 -7 2 -7 4 -6 5 -5 6 -4 7 -2 8 -1 9 1 10 1 5 1 5 1 5 2 5 2 5 2 4 2 4 3 4 3 4 3 4 3 3 3 3 4 3 4 3 4 2 4 2 4 2 4 2 4 1 4 1 4 1 4 1 5 0 5 0 5 0 5 -1 5 -1 5 -1 5 -1 5 -2 4 -2 4 -2 7 -4 7 -4 6 -3 6 -3 5 -2 4 -2 4 -1 3 -1 2 0 2 0 1 0 1 0 1 1 1 1 1 2 1 3 1 3 1 4 1 4 1 4 1 4 2 4 2 4 3 4 3 3 4 3 5 2 5 1 6 0 6 -1 6 -1 7 -2 7 -2 6 -2 6 -2 5 -2 4 -2 4 -2 3 -1 1 0 0 0 1 3 1 7 1 5 1 4 2 4 2 2 1 2 1 1 1 2 1 2 1 2 1 2 1 2 1 2 1 2 1 2 1 3 1 3 1 3 1 3 1 4 1 4 1 4 1 4 1 5 1 5 1 5 1 6 1 6 1 6 0 7 0 7 0 8 0 8 0 9 0 9 0 9 -1 10 -1 6 -13 -6 -1 0 0 0 -1 0 -1 0 -2 0 -2 -1 -3 -1 -3 -1 -4 -1 -4 -2 -5 -2 -5 -2 -6 -3 -6 -3 -7 -3 -7 -4 -4 -2 -4 -2 -4 -2 -4 -2 -4 -3 -4 -3 -4 -3 -5 -3 -5 -3 -5 -3 -5 -3 -5 -3 -5 -3 -5 -3 -5 -3 -5 -3 -5 -3 -5 -3 -5 -3 -5 -3 -5 -3 -5 -2 -5 -2 -5 -2 -5 -2 -5 -2 -5 -2 -5 -1 -5 -1 -5 -1 -5 -1 -5 0 -7 -1 -7 0 -6 1 -3 2 0 0 -6 -5 -6 -5 -6 -5 -6 -4 -6 -4 -7 -4 1 -1 1 -4 1 -4 1 -4 0 -4 0 -3 0 -3 0 -3 -1 -3 -1 -2 -1 -2 -1 -2 -1 -1 -1 -1 0 0 -1 -1 -1 -1 -1 -1 -1 -2 -2 -4 -1 -3 -1 -3 -2 -3 -2 -3 -2 -3 -2 -4 -2 -4 -2 -3 -1 -3 -1 -3 -1 -3 -1 -3 0 -3 0 -3 0 -3 0 -3 -1 -3 -1 -3 -1 -3 -2 -3 -3 -3 -3 -2 -4 -2 -3 -1 -3 -1 -3 0 -3 0 -3 0 -3 0 -3 0 -3 0 -3 0 -3 0 -3 0 -3 0 -2 0 -2 0 -2 0 -4 1 -1 -2 -2 -4 -2 -4 -2 -4 -2 -4 -2 -3 -1 -3 -1 -3 -1 -3 -1 -3 -1 -2 -1 -2 -1 -2 -1 -1 0 -1 0 -1 0 -1 0 0 0 -1 -1 -3 -3 -4 -5 -4 -3 -1 2 -2 2 -3 2 -2 26 -1c0,0 13,6 17,15 4,8 11,-5 4,-13 -7,-8 -24,-11 -42,-7l1 -1 1 -3 1 -2 1 -3 1 -3 0 -1c9,-4 30,-4 30,-4l13 7c0,0 11,-2 4,-10 -6,-6 -28,-11 -46,-4l-2 -8 -4 -4 4 -2 5 -3 5 -3 5 -3 5 -4 5 -4 5 -5 5 -5 5 -6 4 -6 4 -7 3 -8 3 -8 2 -8 2 -7 1 -6 1 -5 0 -5 -1 -5 -2 -4 -3 -4 -3 -3 -3 -2 -3 -2 -3 -1 -2 -1 -2 -1 -2 -2 -2 -2 -3 -3 -3 -2 -2 -2 -2 -2 -1 -1 -1 -1 -1 -1 0 0 0 0 0 0 0 -1 0 -1 0 -1 1 -2 1 -2 1 -3 1 -3 1 -3 1 -3 1 -3 0 -3 0 -3 0 -3 -1 -3 -1 -3 -1 -3 -1 -2 -1 -2 -2 -2 0 0 1 -1 6 -4 6 -4 5 -3 1 3 4 5 5 3 5 2 6 1 6 0 6 0 6 -1 5 -1 5 -1 5 -1 5 -1 5 -2 4 -2 4 -2 3 -2 4 -2 3 -3 3 -3 2 -3 2 -4 1 -4 1 -4 0 -3 0 -3 -1 -3 -1 -3 -1 -3 -1 -3 -1 -2 -1 -2 -1 -2 -1 -2 0 0 0 0 1 -1 1 -2 2 -2 4 -3 3 -2 3 -3 3 -3 3 -4 3 -4 3 -4 4 -5 4 -5 4 -5 4 -5 4 -5 4 -5 4 -6 4 -6 3 -5 3 -5 2 -3 2 -3 2 -3 2 -3 1 -4 1 -4 1 -4 1 -4 1 -4 1 -4 1 -4 1 -4 1 -4 0 -4 0 -4 0 -4 0 -4 0 -4 0 -4 0 -4 0 -3 -1 -3 -1 -3 -1 -3 -1 -3 -1 -3 -1 -3 -2 -3 -2 -3 -2 -2 -2 -2 -3 -2 -5 -2 -5 -1 -8 3c0,-59 -100,-49 -106,-48l-32 -5 0 0 0 0 -1 0 -1 0 -1 0 -2 0 -2 0 -2 0 -2 0 -3 0 -3 0 -3 0 -3 1 -3 1 -3 1 -4 1 -4 1 -4 1 -4 1 -4 1 -4 2 -4 2 -4 2 -3 -11 -2 -2 -1 -2 -2 -3 -3 -3 -3 -4 -3 -4 -3 -4 -2 -4 -2 -4 -2 -3 -2 -3 -2 -3 -2 -3 -2 -3 -2 -3 -2 -3 -2 -4 -3 -4 6 -3 3 -4 2 -3 1 -3 1 -3 1 -2 0 -1 0 0 0 -1 0 -1 1 -2 1 -2 1 -3 1 -3 1 -3 1 -4 1 -4 3 -8 1 -4 1 -4 1 -4 1 -4 1 -5 1 -4 1 -4 2 -5 2 -5 1 -5 1 -5 1 -5 1 -5 0 -5 0 -5 -1 -5 -2 -5 -3 -5 -4 -4 -4 -3 -3 -3 -3 -3 -3 -3 -3 -3 -3 -2 -3 -2 -2 -2 -2 -2 -2 -1 -1 -1 -1 -1 -1 -1 -1 -1 -1 -1 0 -2 0 -1 1 -5 1 -5 1 -5 0 -4 0 -4 -1 -5 -2 -4 -3 -3 -2 -2 -2 -1 -3 -1 -3 -1 -3 -1 -3 0 -3 0 -3 1 -3 1 -3 1 -3 2 -3 2 -3 3 -3 3 -3 3 -3 4 -2 3 -3 3 -3 3 -3 4 -3 4 -3 4 -3 4 -3 4 -2 4 -2 4 -2 4 -2 4 -1 4 0 5 0 5 1 5 3 4 2 3 2 3 2 3 2 2 1 2 1 2 1 1 0 0 -1 1 -2 1 -4 2 0 0 -1 1 -1 1 -2 1 -2 2 -2 2 -2 2 -2 3 -2 3 -2 4 -2 4 -2 5 -1 5 -1 6 0 6 -4 -1 -5 -1 -5 0 -5 1 -5 1 -5 2 -6 4 -3 -3 -9 -2 -9 2 -8 5 -4 3 -4 3 -4 3 -5 4 -5 4 -5 4 -5 5 -5 5 -5 6 -1 1 -1 -2 -5 -4 -6 -2 -8 0 0 0 0 -3 0 -3 -1 -3 -1 -3 0 -2 0 0 0 0 0 -2 0 -3 0 -4 0 -4 0 -4 0 -4 0 -2 0 -2 0 -2 0 -2 0 -3 0 -3 0 -3 0 -3 -1 -3 -1 -3 -1 -3 -1 -3 -2 -3 -2 -3 -2 -2 -3 -2 -4 -3 -3 -3 -3 -2 -3 -2 -3 -2 -3 -2 -3 -2 -3 -3 -3 -2 -2 -2 -1 -1 0 -1 0 -1 0 -2 0 -3 1 -4 0 -2 0 -2 0 -2 0 -2 1 -2 1 -2 1 -2 1 -2 1 -2 0 -2 0 -2 0 -2 0 -3 0 -3 0 -3 0 -3 0 -4 0 -4 -1 -4 -1 -4 -1 -3 -1 -3 -2 -3 -2 -3 -3 -3 -3 -2 -4 -2 -4 -1 -4 0 -4 1 -4 2 -4 3 -7 8 -1 1 -1 1 -2 2 -2 2 -2 3 -2 3 -3 4 -3 4 -3 4 -1 3c-1,2 -7,12 -18,37 -9,22 -15,31 -20,49z" class="fil1"/><path d="M1609 986c9,-2 26,-6 36,-2 13,5 5,21 16,42 11,21 18,33 18,33 0,0 9,9 -1,31 -10,22 -19,30 -19,29 2,-28 -25,-66 -33,-65 0,0 0,-1 -1,-1l0 -1 0 0c26,-21 10,-55 9,-42 -1,8 -5,16 -8,21l-1 -4 -2 -5 -2 -5 -2 -5 -2 -6 -2 -6 -2 -6 -2 -6 -2 -4zm-367 -46c-9,-1 -28,-1 -28,12 -1,16 -1,22 -1,22 0,0 19,58 23,74 4,15 5,26 16,36 11,10 37,31 47,35 9,4 157,81 298,27l2 -4 2 -3 2 -2 2 -2 2 -2 2 -1 2 -1 2 -1 7 -1c-1,-26 -13,-50 -46,-50l-10 2c0,0 -14,4 -32,6l0 0 -13 1 -4 0 -4 0 -4 0 -4 0 -4 0 -4 0 -4 0 -4 0 -4 0 -4 0 -4 0 -4 0 -4 0 -4 0 -4 0 -3 0 -4 0 -4 0 -3 0 -4 0 -4 -1 -4 -1 -4 -1 -4 -1 -4 -1 -4 -1 -4 -1 -4 -1 -4 -1 -4 -1 -4 -1 -11 -3 -10 -3 -10 -3 -9 -3 -9 -3 -8 -3 -8 -3 -7 -3 -7 -3 -6 -3 -6 -3 -6 -3 -5 -3 -5 -3 -5 -3 -4 -3 -4 -3 -4 -3 -3 -3 -3 -2 -3 -2 -3 -2 -2 -2 -1 -1c-16,-10 -22,-16 -25,-23 -3,-9 -5,-10 -3,-24 1,-6 1,-13 1,-18l0 -1 -1 -3 0 -1z" class="fil2"/><path d="M1628 1142c-2,6 -5,15 -11,23 -11,16 5,19 13,15 4,5 20,-37 19,-45 6,-31 -21,-98 -97,-80l-3 1c-10,5 -14,9 -15,20l1 0 3 0 3 0 3 0 3 0 3 0 2 0 2 0 2 0 2 0 1 0 2 -1 1 0 0 0 12 -3 8 0 7 1 6 2 6 2 5 3 5 4 4 4 4 5 3 5 3 5 2 5 2 6 1 6 1 6 0 6 -3 14z" class="fil3"/><path d="M1546 1170c2,9 7,21 27,23l1 -2 2 -5 2 -5 2 -5 0 -1c-4,-3 -8,-7 -11,-11l-1 0 -14 3 -8 1z" class="fil3"/><path d="M1607 1147l-12 20c0,0 -23,54 -24,64 -1,10 -5,18 19,26 24,9 55,31 64,38 9,8 20,4 26,-12 7,-16 15,-42 22,-53 7,-11 12,-29 3,-36 -6,-5 -32,-26 -48,-39l-1 3 -1 4 -1 3 -1 3 -2 3 -2 3 -2 3 -2 2 -2 2 -2 2 -2 2 -2 2 -6 5 -7 2 -8 -1 -7 -4 -5 -7 -2 -8 1 -8 4 -8 2 -3 2 -3 1 -3 1 -3 1 -3 1 -2 1 -2 0 -2c-4,1 -8,3 -12,8zm22 54l-17 -2c0,0 -19,19 -19,28 0,9 40,7 37,11 -2,4 -15,19 -15,19l13 9 19 -29c1,-1 4,-11 -9,-13 -13,-2 -24,-3 -24,-3l15 -19zm27 -13l-5 5 19 54c0,0 17,-19 21,-29 4,-10 -1,-38 -35,-30zm14 11l-5 2 8 24c0,0 10,-10 10,-15 0,-6 -3,-11 -13,-10z" class="fil3"/><path d="M1233 1074c-6,7 -30,40 -64,140 2,7 7,15 19,4 19,-17 39,-19 40,4 1,23 7,51 -4,91 -11,40 -11,47 -15,61 -4,14 -17,41 -33,41 -17,0 -40,3 -37,-37 2,-29 -5,-27 -14,-17 -6,20 -10,33 -17,45 -12,21 -40,57 -62,91 -15,38 -31,95 -26,154 8,106 12,127 12,127 0,0 3,66 -37,95 -13,9 -30,9 -47,2 -1,3 -1,6 -2,7 -6,20 -22,75 17,103 39,28 26,12 47,37 20,25 53,54 67,109 -4,15 -7,18 -11,8 0,0 -17,-56 -54,-93 -37,-37 -36,-33 -48,-42 -12,-9 -31,-22 -36,-50 -5,-28 -12,-73 -23,-103 -11,-30 -11,-30 -11,-30 0,0 -9,-20 -33,-8 -23,12 -44,19 -54,33 -11,14 -19,26 -19,50 0,23 -11,51 -20,75 -9,23 -19,34 -37,76 -19,42 -22,51 -26,84 -5,33 -3,90 26,120 30,30 31,33 58,47 26,14 44,28 65,28l-5 14c0,0 -51,-30 -65,-5l28 33 -11 5c0,0 -44,-68 -96,-31 -53,37 -106,103 -84,126 22,23 34,26 51,26 17,0 25,-2 45,-8 20,-6 39,-14 39,-14 0,0 23,-5 42,-14 19,-9 114,-16 163,-20 50,-5 62,-9 67,-14 5,-5 3,-12 3,-12 0,0 -4,-31 24,-72 28,-40 54,-56 54,-56 0,0 39,-20 86,6 47,26 59,33 59,33 0,0 14,8 47,-6 33,-14 37,-31 47,-45 9,-14 14,-40 9,-79 -5,-39 -28,-180 -37,-243 -9,-62 -47,-257 -47,-257 0,0 -8,-19 2,-56 9,-37 17,-61 17,-61 12,-25 14,-14 16,3 0,0 -8,17 -14,51 -6,34 -11,19 -2,79 9,61 34,174 48,267 14,93 31,219 31,219 0,0 8,51 -9,79 -17,28 -26,39 -45,50 -19,11 -50,17 -65,9 -16,-8 -64,-36 -79,-40 -15,-5 -57,-12 -84,23 -26,35 -61,86 -31,113 1,-20 15,-52 37,-74 17,-16 32,-34 87,-33l3 9c0,0 -38,4 -45,8 -38,19 -114,107 -44,133 -7,-32 15,-80 39,-100 32,-28 56,-26 95,-27l13 10c3,0 -50,1 -73,8 -13,8 -46,30 -58,76 -8,32 -11,51 24,67 0,-13 1,-31 13,-55 10,-13 19,-28 33,-37 14,-9 33,-17 81,-11 14,7 3,10 -4,10l-19 -1c2,0 -45,-5 -69,28 -17,34 -37,84 -8,102 29,17 74,26 204,-46l15 -9c0,0 32,-17 29,-47 -2,-29 -2,-26 -12,-39 -10,-13 -12,-31 3,-39 15,-9 27,-14 35,-26 8,-12 14,-15 14,-51 0,-36 -5,-144 -2,-223 3,-79 6,-183 17,-241 11,-58 20,-81 34,-114 14,-33 34,-76 33,-134 -1,-54 1,-78 -38,-161 -3,-6 -12,-20 -15,-26 -2,-11 1,-12 9,-5 0,0 10,14 15,24 16,29 48,94 45,143 -3,65 -11,106 -23,137 -12,31 -53,90 -54,208 1,42 9,27 17,5 0,0 12,-34 33,-68 20,-34 59,-93 79,-107 20,-14 92,-56 149,-157 58,-101 64,-165 53,-252 -10,-81 -59,-177 -122,-211l-3 6 -4 6 -3 4 -3 3 -1 1 -7 5 0 2 0 3 0 3 -1 5 -1 4 7 5 3 3 4 3 4 3 4 3 4 3 4 3 4 3 3 3 3 3 3 3 3 2 3 2 2 2 2 2 2 2 2 3 2 3 2 3 1 3 1 3 0 3 0 3 0 3 -1 3 -1 3 -1 3 -1 3 -1 3 -1 3 -1 3 -1 2 -1 2 -1 2 -1 3 -1 3 -1 3 -1 3 -1 3 -1 4 -1 4 -1 4 -1 4 -1 4 -1 4 -1 4 -1 3 -1 4 -3 7 -4 6 -5 5 -6 3 -6 2 -7 0 -6 -2 -5 -3 -2 -2 -2 -2 -3 -2 -3 -2 -3 -2 -4 -3 -4 -3 -4 -3 -4 -3 -4 -3 -5 -3 -5 -3 -5 -2 -5 -2 -4 -2 -5 -2 -9 -4 -7 -4 -5 -5 -4 -6 -2 -6 0 -5 1 -4 1 -4 1 -3 1 -4 1 -4 2 -5 2 -5 2 -5 -6 -1 -7 -3 -6 -4 -5 -4 -4 -5 -3 -5 -2 -5 -1 -5 -11 1 -14 1 -14 1 -14 0 -14 0 -13 -1 -13 -1 -13 -2 -12 -2 -12 -2 -11 -3 -11 -3 -11 -3 -10 -3 -10 -3 -9 -3 -8 -3 -8 -3 -7 -3 -6 -3 -6 -2 -5 -2 -4 -2 -3 -1 -2 -1 -1 -1 -2 -1 -3 -2 -3 -2 -3 -2 -3 -2 -3 -2 -3 -3 -4 -3 -4 -3 -3 -3 -3 -3 -3 -3 -3 -3 -3 -2 -3 -2 -2 -2 -2 -2 -2 -2 -2 -2 -2 -3 -2 -3 -1 -3 -1 -1zm106 271c0,0 -55,37 -61,62 -6,25 -5,34 20,52 25,18 44,13 55,-10 11,-23 17,-58 17,-70 2,-34 -3,-45 -30,-33zm125 889c0,-57 0,-114 0,-171 -2,-9 2,-27 15,-43 27,-26 75,-63 143,-85 109,-35 96,38 87,59 -9,21 -29,51 -41,69 -12,17 -7,23 -7,35 0,13 9,32 -6,56 -17,20 -82,92 -98,112 -19,20 -24,21 -36,24 -11,3 -43,9 -58,17l0 -3 0 -6 0 -6 0 -7 0 -4 0 -4 0 -4 0 -5 0 -5 0 -5 0 -6 0 -6 0 -6 0 -5zm-43 176c26,-1 99,-5 132,-11 40,-8 57,-8 74,7 17,14 24,20 53,20 29,0 61,0 78,-14 15,-13 23,-21 24,-53 -3,-25 -5,-52 -48,-71 -42,-20 -89,14 -89,14l-4 -4c0,0 11,-8 28,-16 17,-5 60,-19 101,19 25,22 22,69 17,95 -7,10 -8,13 6,12 0,0 31,-7 34,-34 3,-27 -17,-132 -132,-109l0 -7c0,0 112,-32 141,83 4,15 13,15 15,-6 0,0 -3,-84 -80,-103 -15,-2 -48,2 -81,18l0 -9c0,0 35,-24 75,-18 -3,-4 -7,-8 -16,-11 0,0 -38,-14 -81,26 -43,40 -47,46 -60,49 -10,2 -43,12 -61,6l-2 1 -2 1 -2 1 -2 1 -2 1 -2 1 -2 1 -3 1 -3 1 -3 1 -3 1 -3 1 -4 1 -4 1 -4 1 -4 1 -4 1 -4 1 -4 1 -4 1 -4 1 -3 1 -3 1 -11 5 -1 3 -1 3 -1 3 -2 3 -2 2 -1 2 -1 2 -1 2 -1 2 -2 3 -2 3 -2 3 -2 2 -2 2 -2 2 -3 2 -3 2 -3 2 -3 2 -3 2 -3 2 -3 2 -3 2 -3 2 -2 1 -2 1 -1 1 -1 1 0 1 0 1 0 1 0 1 0 1 0 1 0 1 0 2 1 2 1 2 1 2 1 2 1 2 2 2 2 2 1 2 1 2 1 2 1 2 1 3 1 3zm317 -1271c0,0 93,101 85,220l-3 11c0,0 -4,18 25,16 30,-2 103,-1 144,6 40,7 120,19 143,12 24,-7 36,-13 40,-24 4,-11 9,-25 -1,-54 -10,-29 -25,-75 -50,-121 -25,-46 -39,-78 -53,-122 -13,-44 -24,-65 -24,-73 0,-8 -1,-13 -4,-29 -4,-16 -4,-37 -4,-55 0,-18 0,-73 3,-93 3,-20 5,-43 -18,-66 -24,-23 -26,-33 -34,-33 -8,0 -25,-10 -39,12 -13,22 -17,28 -25,42 -8,14 -28,42 -10,60 18,18 40,41 66,25 25,-17 31,-22 31,-35 0,-13 6,-15 -4,-28 -11,-13 -23,-26 -17,-32 6,-5 6,-3 14,8 8,11 15,18 15,18 0,0 8,18 3,38 -5,20 -5,19 -13,29 -8,10 -26,18 -26,18 0,0 -17,9 -20,20 -4,11 -13,10 -13,25 0,15 -12,42 8,42 20,0 32,2 34,7 2,5 -3,11 -3,11 0,0 -25,-6 -32,-1 -6,5 -12,-9 -19,-8 -7,1 -12,-14 -7,-20 5,-6 14,-15 11,-24 -4,-9 -6,-11 -6,-11 0,0 -24,2 -29,1 -5,-1 -6,4 -11,13 -4,10 -36,19 -81,-16l-9 4c0,0 -15,6 -36,-2 -21,-8 -75,-11 -68,39 7,50 56,74 97,51 41,-24 60,-27 67,-6 8,21 7,41 43,29 36,-12 47,-27 50,-3 3,25 2,10 7,22 5,12 32,46 21,160l-4 16c1,2 -9,21 3,34 12,18 52,60 54,60 0,-3 1,12 -12,8 -13,-13 -50,-52 -53,-62 -4,-12 -14,-19 0,-52l-12 -5c0,0 -20,-3 -60,-24 -40,-21 -104,-72 -153,-73 -20,-3 -23,2 -11,13zm138 -366l-5 5c0,0 -30,39 -23,68 7,30 10,44 54,68 7,4 13,6 18,6l1 0 5 0 4 0 3 0 0 0c15,-4 21,-20 19,-32l-2 0 -5 -2 -5 -2 -5 -3 -5 -3 -4 -3 -4 -4 -4 -4 -4 -4 -4 -4 -4 -4 -4 -5 -3 -5 -2 -6 -1 -6 0 -6 1 -5 1 -5 1 -5 2 -5 2 -5 2 -4 2 -4 2 -4 2 -3 2 -3 2 -3 1 -3 1 -2 1 -2 1 -2 1 -2 1 -1c0,-6 -4,-12 -14,-14 -25,-4 -32,16 -32,16zm-15 1c-2,-6 -6,-14 -16,-14 -16,0 -25,-8 -38,29 -13,37 -26,61 -16,85 6,14 11,30 26,45l11 8 7 5 7 4 6 3 6 2 6 2 5 1 5 0 4 0 3 0 3 -1 2 -1 2 -1 1 -1 0 0 0 0 1 -3 1 -3 1 -3 2 -3 2 -2c-1,-2 -2,-4 -3,-7l-1 -1 -7 -4 -7 -4 -6 -4 -5 -4 -5 -4 -4 -4 -3 -5 -3 -5 -2 -5 -2 -5 -2 -5 -1 -5 -1 -5 -1 -5 -1 -6 -1 -7 0 -7 1 -7 1 -7 2 -7 2 -6 2 -6 3 -6 3 -5 3 -5 3 -4 2 -4 2 -3 2 -2 0 0zm-1162 1309c-11,-17 -36,-61 -54,-111 -23,-65 -57,-165 -18,-249 39,-84 41,-88 72,-149 30,-61 65,-124 65,-204 2,-68 -15,-108 9,-140 17,-16 53,-29 70,52 7,81 20,108 -11,192 -30,84 -50,113 -74,160 -23,47 -63,131 -59,181 3,47 11,92 49,164l-1 2 -2 4 -2 4 -2 4 -2 4 -2 4 -2 5 -3 5 -3 5 -3 6 -3 6 -3 7 -3 8 -3 8 -3 7 -3 6 -2 6 -2 5 -2 5 -1 4zm3 242c-11,-8 -35,-23 -60,-10 -34,17 -84,82 -66,113 8,13 16,18 25,20l0 0 1 -5 1 -5 1 -5 2 -5 2 -5 2 -5 3 -5 3 -5 3 -5 3 -5 4 -5 4 -5 4 -5 4 -5 4 -5 4 -5 5 -5 5 -5 5 -5 5 -4 5 -4 5 -4 5 -4 5 -4 5 -4 5 -4 6 -4 1 -1zm-63 -22c-3,-4 -10,-12 -28,-11 -25,1 -41,-1 -55,38 -14,39 -20,73 -10,90 5,9 10,9 15,4l-1 -3 -1 -5 0 -5 0 -5 1 -5 1 -5 1 -5 2 -5 2 -5 2 -5 2 -5 2 -5 3 -5 3 -5 3 -4 3 -4 3 -4 3 -4 3 -4 4 -4 4 -4 4 -4 4 -4 4 -3 4 -3 4 -3 4 -3 4 -3 4 -2 4 -2 2 -1zm-71 -14c-10,-3 -29,-6 -35,8 -8,19 -23,83 -4,86l0 -2 0 -3 0 -3 1 -3 1 -3 1 -3 1 -3 1 -3 1 -3 1 -4 1 -4 1 -4 1 -4 1 -4 1 -4 1 -4 1 -4 3 -7 3 -7 3 -6 3 -5 4 -5 4 -4 3 -3zm653 -2144l-6 7c0,0 -25,23 -25,52 0,29 -6,40 17,69 23,29 12,13 19,20 7,7 11,11 8,26 -3,14 -5,47 -5,61 0,14 -4,30 -19,23 -15,-7 -45,-32 -52,-50 -7,-17 -14,-52 -12,-54 2,-2 -26,50 20,92 46,41 44,42 41,55 -3,13 -32,122 -27,198 6,77 1,58 59,255 10,26 19,70 28,92 4,9 29,41 144,77 39,11 70,12 112,9l1 -11c0,0 5,-18 34,-24 29,-6 30,1 54,8l6 -8c0,0 -17,-48 -27,-69 -10,-21 -16,-37 -16,-37 0,0 -5,-16 -23,0 -18,16 -82,23 -109,12 -27,-11 -49,-22 -63,-39 -14,-17 -37,-71 -50,-95 -13,-24 -46,-100 -46,-100 0,0 4,-17 10,-2 6,15 26,70 35,75l1 -19c0,0 -14,-19 -15,-36 -1,-17 0,-48 0,-48 0,0 -3,-21 6,-21 9,0 5,17 5,33 0,16 -4,37 7,58l3 -12c0,0 7,-28 17,-34 10,-6 11,-1 6,7 -5,8 -19,42 -20,60 -1,18 -3,17 0,26 3,9 37,86 50,97 13,11 29,40 91,44 62,4 95,-34 98,-51 3,-17 -11,-14 -26,-8 -15,6 -40,7 -55,-1 -15,-8 -39,-22 -45,-30 -6,-8 -2,-20 7,-11 9,9 25,22 42,29 17,7 38,11 62,0 24,-11 56,-23 69,-65 13,-42 -1,-31 -17,-46 -16,-15 -20,-16 -13,-32 9,-16 5,-25 -2,-31 -10,5 -19,11 -33,11 0,0 -7,8 -10,32 -3,24 -4,44 10,44 14,0 22,-1 18,10 -4,11 4,19 -9,26 -13,7 -41,16 -66,-2 -25,-18 -58,-45 -73,-69 -15,-24 -8,-5 -14,-31 -6,-26 -20,-68 -24,-77 -4,-9 -8,-12 -10,-24 -2,-12 -10,-26 -20,-33 -10,-7 -13,-11 -13,-22 0,-11 2,-45 -12,-24 -14,21 -23,0 -8,-12 15,-12 35,-34 47,-24 12,10 9,17 -6,13 -15,-4 -16,35 -9,47 7,12 11,17 24,12 13,-5 44,-10 42,4 -2,14 -13,64 7,80 20,16 98,59 144,37 45,-22 54,-37 66,-52 12,-15 35,-34 25,-62l-9 5c0,0 -26,8 -61,-20 -35,-28 -66,-53 -63,-73 3,-20 22,-65 91,-86l-16 -1c0,0 -46,-3 -96,38 -7,10 -26,13 -35,2 -3,-1 -1,2 -15,6 -16,5 -7,-8 -7,-8 0,0 9,-2 17,-6 5,-3 10,-8 6,-14 -7,-14 -16,-1 -20,2 -3,3 -10,3 -18,-14 -8,-17 10,-33 18,-40 9,-8 34,-5 40,6 9,9 10,29 10,29 -11,-22 -20,-36 -44,-26 -14,10 -21,23 -12,37 2,2 4,-1 5,-2 12,-11 20,-6 26,0 6,6 1,17 2,21 1,5 8,9 21,0 1,-4 2,-9 2,-13 0,-5 12,10 27,-12l-3 -9c0,0 -12,-15 -19,-26 -6,-11 -9,-15 -14,-25 -5,-10 -12,-20 -26,-20 -13,0 -21,0 -24,5 -3,5 -3,-2 -3,-12 0,-10 3,-20 16,-11 13,9 10,-15 2,-18 -8,-3 -20,-1 -29,2 -10,3 -26,0 -28,-5 -3,-5 -18,-6 -27,-2 -9,4 4,7 12,10 8,3 5,11 -5,11 -11,0 -16,-3 -29,19 -13,21 -23,33 -23,33 0,0 -12,6 -19,0 -6,-6 -6,-9 2,-17 8,-8 27,-34 40,-39 13,-5 5,-26 -11,-12 -16,14 -59,42 -67,81l-11 0c0,0 14,-37 20,-40 5,-3 -8,-16 -16,-3 -8,13 -15,31 -16,39 -1,8 -13,4 -11,-7 3,-12 8,-17 8,-17 0,0 12,-20 12,-27 0,-7 -3,-19 -3,-19 0,0 2,-12 3,-23 1,-11 2,-23 -10,-32 -12,-9 -15,-11 -25,-19 -10,-8 -11,-13 -8,-27 3,-13 6,-17 6,-33 0,-16 -10,-33 -22,-23zm84 285l-4 3c0,0 -3,14 5,10 8,-4 22,-13 37,-8 16,4 16,6 20,11 4,4 5,5 14,1 9,-4 16,-3 16,-3 0,0 10,2 14,-8 4,-11 8,-15 4,-23 -4,-8 -26,-12 -31,-4 -5,8 -8,16 -4,21 4,6 2,11 -4,8 -6,-2 -13,-6 -13,-6 0,0 -18,-16 -54,-1zm257 169c5,0 9,4 9,9 0,5 -4,9 -9,9 -5,0 -9,-4 -9,-9 0,-5 4,-9 9,-9zm54 -2c5,0 9,4 9,9 0,5 -4,9 -9,9 -5,0 -9,-4 -9,-9 0,-5 4,-9 9,-9zm-59 -38c5,0 9,4 9,9 0,5 -4,9 -9,9 -5,0 -9,-4 -9,-9 0,-5 4,-9 9,-9zm-192 -154c0,0 -7,-19 4,-34 13,-17 28,-31 52,-28 18,5 40,17 20,74 -21,45 -35,39 -35,39 4,-1 18,-7 32,-47 6,-34 2,-49 -8,-54 -44,-18 -58,32 -64,50zm321 170c3,-3 18,-18 30,-34 14,-19 23,-34 28,-49 5,-15 9,-46 26,-36 17,10 14,64 -3,92 -18,28 -40,62 -53,70 -13,8 -15,15 -10,23 5,8 11,24 -5,31 -14,7 -55,21 -62,0l1 -1 4 -3 3 -3 3 -3 3 -3 3 -3 2 -3 2 -3 2 -3 2 -3 2 -3 3 -3 3 -3 3 -4 3 -4 3 -4 3 -4 2 -5 2 -5 2 -5 1 -6 1 -6 0 -6 -1 -6 -2 -7zm28 -9c4,0 7,3 7,7 0,4 -3,7 -7,7 -4,0 -7,-3 -7,-7 0,-4 3,-7 7,-7zm35 -47c4,0 7,3 7,7 0,4 -3,7 -7,7 -4,0 -7,-3 -7,-7 0,-4 3,-7 7,-7zm-304 -276c0,0 -19,8 -18,42l0 0 2 1 3 1 3 0 3 0 3 0 3 -1 4 -1 4 -1 4 -1 4 -1 5 0 5 0 5 1 6 1 6 4 4 6 1 2c3,-1 6,0 8,3 6,7 1,18 1,18 0,0 10,2 12,7 2,5 6,-10 6,-10 0,0 9,-28 15,-47 6,-24 22,-50 2,-64 -17,-19 -30,-18 -32,-37 2,-18 4,-23 -2,-28 -6,-5 -18,-6 -31,12 -13,18 -33,39 -27,54 9,17 25,27 1,38z" class="fil4"/><path d="M1155 273c0,0 -3,30 4,54 7,24 18,36 33,48 14,12 29,27 29,2 0,-26 1,-38 3,-50 2,-12 5,-21 -6,-27 -8,-2 -30,-27 -35,-48 -2,-16 -14,-28 -20,-9 -6,11 -8,28 -8,30z" class="fil0"/><path d="M1440 722l-2 6c0,0 11,20 28,38 17,18 26,27 32,32 6,5 20,3 12,-10 -8,-13 -8,-12 -12,-22 -4,-10 -20,-32 -28,-40 -8,-8 -20,-22 -30,-4z" class="fil0"/><path d="M1496 908c4,0 7,3 7,7 0,4 -3,7 -7,7 -4,0 -7,-3 -7,-7 0,-4 3,-7 7,-7z" class="fil1"/><path d="M1537 898c4,0 7,3 7,7 0,4 -3,7 -7,7 -4,0 -7,-3 -7,-7 0,-4 3,-7 7,-7z" class="fil1"/><path d="M1587 442l-5 5c0,0 -14,11 -6,20 10,7 12,5 21,0 14,-10 47,-39 90,-38 43,1 48,-1 37,-13 -6,-5 -46,-12 -77,-4 -20,8 -39,10 -60,31z" class="fil0"/><path d="M1519 403c0,1 0,2 0,2 -11,-22 -20,-36 -44,-26 -14,10 -21,23 -12,37 2,2 4,-1 5,-2 12,-11 20,-6 26,0 6,6 1,17 2,21 1,5 8,9 21,0 1,-4 2,-9 2,-13 0,-1 0,-1 1,-1 0,-7 0,-13 -1,-18z" class="fil0"/><path d="M1390 411l-4 3c0,0 -3,8 1,12 4,4 10,8 14,0 5,-6 6,-18 -12,-15z" class="fil0"/><path d="M1365 404c0,6 3,13 10,15 1,-3 3,-7 5,-10 5,-8 27,-5 31,4 4,8 0,13 -4,23 0,1 -1,1 -1,2 5,5 9,10 11,13 6,-6 13,-18 21,-40 6,-34 2,-49 -8,-54 -44,-18 -58,32 -64,50 0,0 0,-1 -1,-2z" class="fil0"/><path d="M877 2332l-7 -1 -3 14c0,0 27,8 70,2l-4 -8c0,0 -30,6 -55,-6z" class="fil1"/></g></svg>