<svg xmlns="http://www.w3.org/2000/svg" xmlns:xlink="http://www.w3.org/1999/xlink" width="60" height="60" version="1.1" viewBox="0 0 2681 2681" xml:space="preserve" style="shape-rendering:geometricPrecision;text-rendering:geometricPrecision;image-rendering:optimizeQuality;fill-rule:evenodd;clip-rule:evenodd"><defs><style type="text/css">.fil8{fill:#00bbf1}.fil6{fill:#0ba0dc}.fil1{fill:#373435}.fil9{fill:#7f4e30}.fil7{fill:#ab6c2b}.fil10{fill:#daa788}.fil3{fill:#ee3050}.fil5{fill:#f8a058}.fil4{fill:#fcd2b6}.fil0{fill:#fefefe}.fil2{fill:#fff212}</style></defs><g id="Layer_x0020_1"><metadata id="CorelCorpID_0Corel-Layer"/><polygon points="0 2681 2677 2681 2677 3 0 3" class="fil0"/><path d="M2494 491l65 -12 -1 -6c-69,-62 -156,-178 -156,-178l-59 36 -36 15c-20,-29 -66,-44 -66,-44 13,33 20,62 20,62l-138 234 169 120 -4 2c-40,2 -78,11 -85,25 -6,13 20,36 20,36 4,27 6,102 4,142 -2,40 -6,74 -6,74 -31,0 -45,11 -85,38 -39,27 -45,27 -92,31 -47,4 -70,38 -70,38l1 -17c13,-11 54,-26 66,-38 12,-12 16,-40 16,-40 0,0 28,-5 48,-15 20,-10 21,-32 21,-32 13,-2 51,-7 55,-55 4,-48 -47,-59 -62,-65 -16,-6 -58,-48 -82,-64 -25,-16 -65,-4 -127,23 -62,27 -60,51 -66,74 -6,22 -9,44 -20,58 -11,13 2,45 2,45l-4 0c-17,-25 -36,-43 -36,-43l-71 29c-1,-17 12,-44 7,-82 -5,-38 -33,-38 -33,-38 -31,-65 -83,-12 -83,-12 -77,1 -85,59 -88,70 -4,11 -15,36 -15,36 -20,-10 -36,-26 -36,-26l-4 -15c0,0 9,-13 13,-29 5,-16 -24,-22 -24,-22 17,-5 27,-4 32,-21 5,-17 -9,-40 -21,-44 -12,-4 -16,12 -28,38 -12,26 -10,-2 -37,16 -27,18 -20,61 -20,61 -32,15 -49,51 -49,51 -2,-10 -10,-25 -10,-25 50,-124 152,-181 178,-198 26,-17 34,-23 37,-33 2,-10 -20,-12 -20,-12 16,-22 38,-28 56,-25 18,4 21,26 -4,49 -25,23 -9,49 32,51 40,2 62,-33 62,-33 25,25 33,28 66,-9 33,-37 0,-76 0,-76 0,0 55,16 58,-38 2,-54 -44,-59 -44,-59 -6,-29 -28,-43 -48,-39 -20,4 -47,64 -64,76 -17,12 -26,0 -61,-29 -36,-29 -43,21 -81,66 -38,45 -119,130 -152,159 -33,29 -100,87 -100,87 -7,-15 -12,-34 -29,-22 -17,12 -7,54 -7,54l-25 25c0,0 -44,1 -55,0 -11,-1 -12,4 -12,4 -48,-17 -61,-1 -78,2 -17,4 -42,0 -42,0 -6,-2 -18,-9 -18,-9 -26,-21 -23,-16 -48,-15 -25,1 -34,0 -37,12 -2,12 21,9 36,10 15,1 13,10 13,10 -18,1 -55,0 -71,-5 -16,-5 -11,15 -11,15 0,0 -13,10 1,21 15,11 43,13 56,16 13,2 31,6 31,6 0,0 -33,7 -56,7 -23,0 -23,4 -23,4 -7,16 16,22 36,26 20,4 48,-7 63,-11 15,-4 38,-4 53,-1 15,2 16,12 7,37 -9,25 6,34 20,36 13,1 9,-17 6,-27 -2,-10 -2,-16 11,-26 13,-10 5,-21 1,-33 -4,-12 7,-18 18,-20 11,-1 40,12 40,12 -15,16 -42,61 -53,74 -11,12 1,16 1,42 0,26 -20,80 -20,80 0,0 -12,7 -34,17 -22,10 -38,22 -49,38 -11,16 -26,39 -26,39 -205,87 -261,183 -311,249 -50,66 -72,153 -72,153 -25,-53 -44,-75 -44,-75 -12,-2 -59,36 -59,36 -34,-42 -40,-80 -34,-109 6,-29 72,-48 100,-59 28,-11 81,-29 86,-64 5,-34 -18,-51 -69,-72 -50,-21 -183,-10 -217,15 -34,25 -9,47 17,53 26,6 137,-17 162,-16 24,1 18,21 -4,29 -22,9 -61,22 -104,42 -43,20 -62,60 -49,121 13,61 60,108 60,108 -25,23 -49,92 -70,141 -21,49 -65,81 -65,81 4,-43 21,-99 53,-134 32,-34 49,-38 59,-75 10,-37 -48,-82 -48,-82 -28,-91 -82,-49 -82,-49 -22,-23 -49,9 -49,9 -23,-23 -64,15 -76,72 -12,58 49,47 49,47 18,22 18,81 15,119 -4,38 -27,135 -31,157 -4,22 -13,69 7,74 21,5 103,-36 167,-75 64,-39 97,-43 97,-43 136,208 338,190 338,190 0,0 -29,28 -44,39 -15,11 -10,13 21,26 31,12 111,37 176,51 65,15 80,0 80,0 31,15 58,-2 58,-2 21,9 36,-5 36,-5 32,7 54,-7 64,-44 10,-37 -37,-48 -37,-48 -20,-60 -93,1 -93,1 -22,-7 -40,4 -40,4 -9,-6 -27,2 -60,10 -33,7 -36,-10 -36,-10 0,0 34,-15 69,-17 34,-2 44,-4 58,-6 13,-2 40,-31 66,-65 26,-34 38,-62 38,-62 13,7 32,32 32,32 0,0 10,18 24,59 15,40 50,148 50,148l18 1 -10 7c-33,1 -108,22 -120,28 -12,6 -2,22 -2,22l5 11c0,0 21,9 81,24 60,16 86,17 92,15 6,-2 32,-26 59,-37 27,-11 59,-15 80,-17 21,-2 32,-16 32,-16l-9 -21c0,-7 -20,-36 -20,-36l5 -4c-5,-27 -61,-140 -111,-196 -50,-56 -142,-118 -142,-118 27,-7 94,-32 152,-60 58,-28 93,-32 93,-32 67,9 207,58 279,87 72,29 131,48 131,48 0,0 33,28 93,113 60,85 118,140 161,172 43,32 44,26 44,26 58,48 82,62 107,48 25,-15 26,-72 29,-97 4,-25 18,-50 18,-50 0,0 11,-21 -15,-96 -26,-75 -54,-119 -70,-127 -16,-9 -15,-7 -38,7 -23,15 -11,82 -11,82 -31,-18 -119,-71 -154,-92 -36,-21 -18,-10 -20,-44 -1,-34 -115,-86 -163,-110 -48,-24 -141,-61 -141,-61l11 -24c13,4 27,0 27,0 9,-28 37,-83 96,-151 59,-67 109,-136 109,-136l6 2c28,28 56,22 72,13 16,-9 20,-45 20,-45 0,0 36,-36 71,-64 36,-28 50,-38 53,-50 2,-12 -15,-37 -15,-37 127,-54 222,-135 229,-149 7,-15 -7,-74 -27,-152 -20,-78 -43,-137 -43,-137 0,0 22,-11 39,-6 17,5 29,6 34,5 5,-1 11,-18 11,-18 15,4 31,6 29,-6 -1,-12 -21,-16 -21,-16 11,-31 12,-40 12,-40l104 -202zm-1115 1097c0,0 -13,32 -53,55 -41,23 -142,58 -176,85 -34,27 -77,58 -122,130 0,0 -106,-13 -146,-19 0,0 39,-66 81,-87 42,-21 123,-36 176,-46 53,-10 168,-48 198,-102 30,-54 35,-89 37,-139 0,0 17,-23 35,-26 0,0 -31,106 -34,142l5 8zm378 -580c0,0 -31,-10 -40,-11l-3 -5c0,0 31,-4 43,5 0,0 -5,7 0,11z" class="fil1"/><path d="M2214 596l104 67c0,0 3,7 2,14 -1,6 -16,26 -17,34l-1 2 -161 -112 73 -6z" class="fil2"/><path d="M2217 591l99 63c0,0 -9,-37 19,-34 0,0 6,-15 17,-4 0,0 11,-8 14,1 3,9 7,33 8,41 1,8 4,28 4,28l4 4 102 -200 -138 -155c0,0 -118,215 -130,256z" class="fil2"/><path d="M2132 597l78 -7 130 -253 -73 29c0,0 -131,225 -134,231z" class="fil2"/><polygon points="2216 587 2447 573 2448 569 2219 582" class="fil1"/><polygon points="2243 528 2481 506 2482 502 2246 522" class="fil1"/><path d="M2414 584c-7,0 -20,5 -19,15 1,10 5,18 1,20 -4,2 -13,-2 -13,-2l-1 -26 24 -9c0,0 2,-10 -2,-14l-15 4 4 -11 -11 -10 -3 4c0,0 -8,-14 -24,-10 0,0 6,-20 0,-21 -6,-1 -21,16 -21,16l2 -17c0,0 -11,-7 -15,-3l-8 14 -2 -14 -6 0 -11 20c0,0 -1,-9 -4,-14 -3,-5 -2,-12 10,-8 0,0 9,-7 9,-16 0,0 -10,-7 -24,-5 -14,2 -19,11 -15,17 5,6 8,16 5,18 -3,3 -11,4 -15,-7l-7 18c0,0 15,18 32,6l-5 13 17 7 10 -13 1 12 -10 9 14 12 12 -10 1 1 -4 16 14 6 4 -7c0,0 5,4 10,4l-4 13 17 11 4 -7 4 16 7 -1c0,0 6,10 16,9 10,0 16,-9 17,-20 1,-11 -3,-20 8,-14l9 -15c0,0 -6,-9 -13,-8zm-54 -4c0,0 -7,5 -3,-8 4,-14 8,1 8,1l-5 7z" class="fil1"/><path d="M1454 1187c0,0 -13,-16 -13,-27 0,0 10,-37 30,-23 19,14 27,41 24,63 -3,22 -15,41 -9,44 6,3 27,-51 13,-89 0,0 25,-8 38,15 13,23 18,78 -30,120 -48,42 -127,62 -139,30 -13,-32 31,-51 60,-88 30,-36 37,-42 37,-55 0,-13 -3,-9 -5,0 -1,9 -6,10 -6,10z" class="fil3"/><path d="M1798 1132c0,0 7,-21 -9,-19 -16,1 -22,6 -23,11 0,0 16,-6 32,8z" class="fil3"/><path d="M1817 1127c0,0 16,3 29,13 0,0 23,-19 29,-25 0,0 -17,-11 -57,13z" class="fil3"/><path d="M1793 1001c0,0 19,19 -13,103l-3 1c0,0 5,-62 -13,-81 0,0 18,-23 29,-23z" class="fil3"/><path d="M1760 1112c0,0 6,-5 10,-5 0,0 7,-63 -9,-80 0,0 -44,26 -1,84z" class="fil4"/><path d="M1822 1162c0,0 -10,-19 -16,-24l2 -6c0,0 19,3 31,11l-17 18z" class="fil4"/><path d="M1812 1118c0,0 40,-25 72,-16l11 -11c0,0 16,3 27,5l6 -8c0,0 -38,-18 -52,-33 -15,-15 -16,-29 -15,-88 0,0 -33,16 -55,32 0,0 16,38 -14,101 0,0 17,10 19,18z" class="fil4"/><path d="M2170 1943c0,0 -13,-5 -11,39 2,44 22,111 -2,144 0,0 5,21 13,33 0,0 -12,26 -17,39 0,0 -12,-13 -18,-29 0,0 -5,29 -1,67 0,0 15,12 30,23 0,0 3,-52 11,-85 8,-33 4,-80 -1,-113 -5,-33 -12,-87 -3,-118z" class="fil5"/><path d="M2157 2095c0,0 -13,21 6,65l-11 26c0,0 -37,-57 5,-91l1 1z" class="fil5"/><path d="M2199 2281c0,0 -21,-9 -26,-17 0,0 -1,-38 6,-73 7,-35 9,-85 3,-119 -5,-34 -18,-107 -7,-131l3 -4c0,0 -6,19 3,75 9,57 18,117 13,158 -6,42 -6,90 6,110z" class="fil5"/><path d="M2276 2135c-2,-41 -24,-122 -49,-162 -26,-41 -44,-62 -46,-23 -1,39 11,93 15,118 4,25 7,67 4,101 -2,35 -9,102 8,114 17,11 33,2 39,-19 6,-21 7,-72 20,-93 0,0 -12,5 -19,26 -7,21 -10,7 -3,-5 7,-12 14,-35 26,-49l6 -7z" class="fil5"/><path d="M2259 2135c-5,6 -19,25 -26,41 -7,15 -23,49 -4,18 19,-31 22,-43 28,-50 6,-7 6,-15 2,-9z" class="fil1"/><path d="M1317 2219c0,0 74,-9 105,-9 0,0 10,13 10,23 0,0 -14,4 -37,7 -23,4 -65,20 -86,40 -21,19 -20,22 -77,16 -57,-6 -122,-14 -118,-19 3,-6 41,-22 76,-27 35,-5 45,-7 45,-7 0,0 9,-12 12,-14 0,0 46,13 60,39l28 -23c0,0 -2,-7 -19,-26z" class="fil5"/><path d="M1257 2225c0,0 30,7 51,35 0,0 15,-10 19,-14 4,-4 -3,-10 -26,-27 0,0 -46,1 -44,6z" class="fil5"/><path d="M1444 2264c0,0 -5,-14 -8,-22 0,0 -40,4 -76,19 -36,14 -57,36 -68,43 -11,6 -41,7 -91,-1 -50,-7 -86,-15 -86,-15l6 9c0,0 69,17 101,24 31,7 48,13 66,1 18,-12 49,-38 105,-46 56,-8 51,-11 51,-11z" class="fil5"/><path d="M1162 2030c0,0 27,58 41,103 14,45 27,83 27,83 0,0 7,-7 59,-9 52,-1 105,-8 134,-7 0,0 -23,-48 -49,-97 -27,-49 -83,-107 -151,-164 -68,-57 -64,-48 -64,-48 0,0 -71,-22 -60,-37 7,-9 22,0 22,4 1,4 -12,-2 -11,2 1,4 49,25 56,28 0,0 123,-58 223,-89 0,0 -15,-4 -33,-3 -17,1 -29,-1 -6,-5 23,-4 86,-7 147,10 61,17 133,44 174,58 48,17 133,59 157,67 0,0 -17,-21 -28,-30 -11,-9 -15,-18 6,-2 21,15 60,58 107,115 47,57 140,176 211,222 0,0 -17,-106 38,-154 0,0 -1,-24 -7,-52 0,0 -39,-16 -74,-41 -35,-25 -112,-58 -112,-75 0,-17 13,-32 -28,-57 -41,-25 -150,-89 -272,-136 0,0 -73,20 -94,35 -21,15 -22,19 -4,12 18,-7 29,-10 30,-7 1,3 -57,25 -60,17 -3,-8 44,-45 97,-57 0,0 -49,0 -64,1 -15,1 -31,-1 0,-7 31,-6 59,-7 88,-4 0,0 11,-20 13,-25 0,0 -112,-28 -195,-56 0,0 -12,33 -18,64 -6,31 -7,43 -6,55 1,12 -4,31 -4,-1 0,-33 3,-70 20,-120 0,0 -25,-6 -81,-31 0,0 -9,19 -39,48 0,0 14,28 25,55 10,27 14,44 0,15 -14,-30 -23,-49 -33,-64 0,0 -34,22 -76,39 -42,17 -138,67 -181,117 -43,51 -52,65 -52,72 0,7 14,35 59,73 46,38 71,72 84,87 13,15 27,36 12,22 -15,-14 -27,-25 -27,-25z" class="fil6"/><path d="M1782 946c0,-4 -58,24 -73,33 0,0 0,5 1,7 0,0 41,-4 52,3 0,0 19,-33 20,-43z" class="fil6"/><path d="M1790 947c0,0 19,19 25,32l-3 5c0,0 -18,-15 -46,26 0,0 -5,-8 3,-19 8,-12 19,-32 21,-44z" class="fil6"/><path d="M1756 1022c0,0 -6,-12 -11,-8 0,0 -34,36 -31,65 4,29 1,29 6,36 0,0 19,1 36,9 0,0 -1,-2 1,-7 0,0 -54,-44 -1,-95z" class="fil6"/><path d="M1895 1104c0,0 8,12 9,32 2,21 0,26 0,26 0,0 -33,19 -73,19 0,0 -3,-9 -6,-13 0,0 22,-21 40,-35 18,-15 27,-25 30,-29z" class="fil6"/><path d="M1939 1090l-4 6c0,0 17,3 26,-5 0,0 -16,7 -23,-1z" class="fil6"/><path d="M1964 1096c0,0 -3,36 -51,103 0,0 8,-76 -9,-96 0,0 -7,-6 6,-1 13,5 41,1 54,-6z" class="fil6"/><path d="M1792 1135c0,0 19,11 25,36 6,25 4,42 -15,85 -19,44 -23,66 -23,77 0,0 -6,5 -21,-24 -16,-28 -30,-49 -25,-74 0,0 53,-14 59,-101z" class="fil3"/><path d="M1776 1131c0,0 7,-2 8,2 0,0 -2,80 -53,86 -51,7 -50,-9 -82,-19 -32,-10 -58,-14 -67,-9 0,0 18,-37 68,-52 50,-15 95,-14 118,-7 0,0 -7,10 -26,18 -19,8 -30,15 -34,11 -4,-4 11,-8 11,-11 0,-3 -27,6 -21,13 6,8 31,2 53,-11 22,-13 25,-16 26,-21z" class="fil3"/><path d="M2115 1220c0,0 16,25 9,34 -7,9 -51,40 -65,55 -14,16 -36,34 -44,49 0,0 -3,-10 4,-20 7,-10 -2,-17 -6,-2 -4,15 -8,35 -10,45 -1,10 -35,48 -67,8 0,0 25,-11 35,-29 10,-18 16,-47 7,-30 -9,17 -30,54 -56,49 -26,-5 -34,-32 -29,-51 0,0 26,-5 51,-15 26,-10 44,-24 29,-17 -15,7 -72,24 -85,22 -13,-3 -22,-13 -15,-32 7,-19 19,-34 38,-31 0,0 12,20 29,20 17,1 45,-3 45,-7 0,-4 -19,5 -37,0 -18,-4 -39,-24 -18,-48 21,-24 40,-35 61,-10 22,24 50,44 71,42 20,-2 6,-3 -4,-4 0,0 22,-19 56,-29z" class="fil7"/><path d="M1450 1342c0,0 -58,179 -67,235 0,0 190,75 320,94 0,0 24,-59 72,-118 47,-59 105,-129 129,-168 0,0 -30,-22 -19,-58 0,0 -28,-14 -25,-35 3,-21 14,-47 49,-46 0,0 -2,-36 40,-54 42,-18 44,6 57,16 12,10 24,26 37,32 0,0 57,-30 93,-46 37,-16 170,-93 198,-132 0,0 8,-7 4,-24 -4,-17 -16,-81 -28,-136 -12,-55 -28,-107 -28,-107 0,0 -22,-7 -50,22 0,0 5,123 0,170 0,0 30,-11 39,-4 0,0 7,-1 7,-8 0,-7 12,-7 5,3 -7,11 -20,27 -45,28 -24,1 -35,-4 -49,9 -14,13 -60,41 -87,50 -26,9 -65,12 -75,12 -10,1 -43,31 -64,53 0,0 -40,66 -58,89 0,0 -2,-2 -4,-44 0,0 -41,14 -70,13 0,0 -1,30 -16,57 -15,27 -34,85 -34,92 0,7 -3,13 -22,-6 -19,-18 -39,-48 -39,-93 0,0 -23,-1 -60,-19 -37,-18 -65,-22 -82,-20 0,0 -15,7 -5,-13 11,-20 64,-73 135,-70 0,0 -26,-29 23,-102 0,0 -11,-7 -18,-7 0,0 9,34 -7,39 -16,5 -23,3 -45,-9 0,0 -11,22 -30,42 -18,20 -25,30 -66,14 0,0 -39,34 -43,56 0,0 43,30 26,87 -17,57 -70,88 -103,107z" class="fil0"/><path d="M1166 925c0,0 -40,-5 -52,-2 0,0 -24,20 -18,49 0,0 20,6 25,8 0,0 51,-54 45,-54z" class="fil0"/><path d="M1910 902c-6,6 -12,18 -12,21 0,3 -3,-2 -3,-2 0,0 -10,4 -17,22 -7,18 -14,67 -5,90 10,23 43,35 55,42 12,7 17,15 38,5 22,-10 69,-32 74,-47 6,-15 4,-34 16,-45 13,-11 30,-19 38,-38 0,0 -4,-8 -2,-11 0,0 -17,-5 -18,-25 0,0 -39,-3 -80,-58 0,0 -4,8 -21,8 -17,0 -22,1 -22,1 0,0 0,14 -9,19 -10,5 -23,9 -32,18z" class="fil4"/><path d="M2047 944c1,-3 -16,-4 -24,6 -8,10 -7,15 -6,23 1,8 -8,16 -14,16 -6,0 -5,3 -1,4 4,0 17,-6 19,-11 2,-5 -2,-14 2,-22 4,-8 8,-12 16,-13 8,-1 8,0 8,-2z" class="fil1"/><path d="M1998 978c0,0 0,-5 -4,-6 -4,-1 -6,-2 -10,-4 -4,-2 -5,4 -2,4 3,1 12,0 16,5z" class="fil1"/><path d="M2041 920c3,3 16,-8 9,-12 -7,-5 -14,-12 -28,-14 -15,-2 -17,-4 -14,-9 0,0 -5,-5 -7,0 -2,5 4,11 19,16 16,5 22,10 22,13 1,2 -3,4 -1,6z" class="fil1"/><path d="M2070 940c-3,3 -1,5 1,10 2,6 1,9 1,13 0,4 1,9 6,8 5,-1 4,-13 4,-20 -1,-6 -8,-15 -11,-12z" class="fil1"/><path d="M2061 969c-2,7 -8,21 -23,14 -16,-8 -8,-25 -2,-27 6,-1 19,-4 23,0 4,4 4,10 3,13z" class="fil0"/><path d="M2014 915c1,-5 -3,-14 -18,-16 -14,-3 -29,6 -22,19 3,6 6,9 12,11 7,2 16,0 19,-4 7,-6 8,-8 9,-10z" class="fil0"/><path d="M2042 971c1,-7 -5,-14 -11,-12 -6,2 -6,14 0,16 6,2 11,1 11,-4z" class="fil1"/><path d="M2045 954c0,2 4,0 10,2 6,2 6,14 0,20 -7,6 -7,6 -10,6 -3,0 -6,3 0,3 7,0 19,-10 19,-17 0,-7 1,-14 -6,-17 -7,-2 -13,-1 -12,1z" class="fil1"/><path d="M2002 926c0,1 17,-6 15,-13 -2,-7 -12,-17 -20,-18 -8,-1 -26,0 -27,11 -1,12 -1,13 3,17 4,4 14,6 16,-5 1,-11 -14,-9 -14,-9 0,0 -1,-7 9,-9 10,-2 19,2 24,6 6,5 7,9 1,12 -6,3 -7,5 -7,7z" class="fil1"/><path d="M1955 959c-4,-4 -12,-8 -13,-4 -1,3 4,5 4,5 0,0 -18,4 -21,21 -3,18 -3,24 15,33 18,9 35,14 40,18 5,5 2,11 -2,13 -4,2 -6,3 -4,5 3,2 25,-9 8,-23l4 -5c0,0 8,3 16,0 7,-3 5,-6 2,-6 -4,0 -12,3 -17,0 0,0 2,-8 -9,-14 -11,-6 -39,-5 -27,-36 0,0 3,-1 5,1 2,2 6,0 -1,-8z" class="fil1"/><path d="M1947 964c0,0 -21,12 -19,29 2,17 34,20 49,31l5 -5c0,0 -4,-12 -13,-17 -9,-5 -32,-2 -23,-39z" class="fil0"/><path d="M1885 890c0,0 1,15 6,24 0,0 -14,9 -17,19 0,0 -9,-1 -9,-11 0,-10 3,-36 20,-32z" class="fil4"/><path d="M1884 881c0,0 -16,2 -19,13 -3,11 -4,15 -6,23 -2,7 -3,16 10,23 0,0 -4,6 -4,9 0,0 -21,18 -28,20 0,0 -10,-19 -6,-33 4,-15 7,-13 13,-26 6,-14 14,-54 30,-67 16,-13 43,-41 95,-54 52,-13 55,-7 63,-3 8,4 48,34 60,45 0,0 -15,-1 -33,-9 -19,-8 -23,-5 -12,0 11,5 50,17 73,28 22,10 48,20 52,49 4,28 -15,46 -26,48 -11,2 -40,9 -46,-5 0,0 0,-2 9,-4 8,-3 15,-11 15,-13 0,-2 0,-6 -6,0 -6,6 -34,19 -35,-8 0,0 13,1 24,-3 12,-4 16,-7 9,-6 -7,1 -34,7 -54,-4 -20,-11 -43,-19 -59,-53 -15,-34 -14,-22 -13,-16 0,6 3,20 -7,22 -11,2 -34,1 -42,0 -8,-1 -7,1 0,4 6,3 11,12 3,17 -8,5 -21,9 -26,13 -6,4 -17,18 -17,22 0,0 -6,-18 -5,-34 1,-16 -3,-24 14,-36 17,-12 24,-19 30,-21 5,-2 4,-6 -5,-1 -9,4 -26,11 -35,20 -9,9 -15,12 -12,43z" class="fil2"/><path d="M2102 956c0,0 6,1 17,2 0,0 -8,21 -17,27 -10,6 -39,11 -45,16 0,0 3,-13 17,-19 14,-6 25,-21 28,-26z" class="fil2"/><path d="M2370 753c0,0 11,1 17,2 6,1 11,-13 -12,-16l-4 13z" class="fil4"/><path d="M2351 333c0,0 117,133 140,154 0,0 41,-13 53,-13 0,0 -53,-49 -145,-168 0,0 -42,18 -49,27z" class="fil2"/><path d="M2254 313c0,0 40,28 46,33l-33 12c0,0 -7,-32 -14,-45z" class="fil2"/><polygon points="2273 369 2324 353 2303 392 2261 394" class="fil1"/><path d="M2275 372c-1,2 -6,12 -8,18 8,0 31,-1 34,-2 1,-3 11,-20 16,-29 -11,4 -39,12 -41,13z" class="fil8"/><polygon points="2147 587 2205 585 2227 541 2171 544" class="fil1"/><path d="M2173 548c-2,3 -16,28 -20,36 9,0 46,-2 50,-2 1,-3 14,-29 18,-37 -9,0 -45,2 -48,3z" class="fil8"/><polygon points="2258 401 2299 400 2297 403 2257 405" class="fil1"/><polygon points="2251 415 2289 415 2285 418 2248 419" class="fil1"/><polygon points="2240 431 2282 430 2277 435 2236 435" class="fil1"/><polygon points="2234 447 2273 447 2269 453 2231 451" class="fil1"/><polygon points="2222 462 2266 461 2262 466 2218 467" class="fil1"/><path d="M2466 514l-13 1 4 -9c0,0 -7,-12 -13,-9 0,0 -2,-8 -23,-14 0,0 -6,-28 -34,-15 0,0 -6,-18 -25,-11 0,0 -5,-13 -23,-5 0,0 -3,-7 -7,-13 -4,-5 -3,-25 12,-2l14 -8c0,0 0,-16 -12,-22 -12,-6 -34,5 -34,10 0,5 -1,20 4,27 5,7 3,15 0,16 -3,1 -6,5 -13,-8l-14 13c0,0 4,15 24,22 0,0 2,18 15,23l15 -13c0,0 -14,-28 1,-22 0,0 2,34 30,25 0,0 2,14 19,16 0,0 -8,10 -9,14 -1,3 16,16 28,19 0,0 0,10 1,12 1,1 16,7 20,3 4,-3 20,-26 19,-34l15 1c0,0 4,-11 -1,-18zm-103 -33c-1,-2 2,-4 3,-2 1,1 -2,5 -3,2zm30 13c-2,-3 3,-7 4,-4 1,2 -2,7 -4,4zm15 32l4 -3c0,0 6,8 -4,3zm16 -19l2 -2c2,3 -2,2 -2,2z" class="fil1"/><path d="M2346 431l7 -4c0,0 -1,-14 -11,-17 -10,-3 -27,8 -25,16 1,8 8,20 7,29 -1,8 -10,19 -21,5l-8 6c0,0 13,17 23,14 11,-4 17,-21 16,-26 -1,-5 -14,-17 -10,-25 4,-8 15,-10 22,2z" class="fil8"/><path d="M2335 496l-7 8c0,0 -12,-8 -10,-17 0,0 17,-11 19,-26 0,0 15,-10 20,-2 0,0 0,9 -4,12 0,0 -35,-13 -18,26z" class="fil8"/><path d="M2419 551l-2 6 13 3c0,0 16,-24 17,-33l17 -2 -1 -8 -14 1 3 -13 -5 -2c0,0 0,13 -12,16 0,0 9,26 -16,31z" class="fil8"/><path d="M2363 464c0,0 -5,10 -6,11 -1,1 -6,0 -6,0 0,0 -5,16 9,19 14,3 22,-8 24,-16 1,-8 -11,-22 -20,-14zm10 17c-1,5 -13,7 -14,3 -2,-6 1,-10 7,-11 6,-1 8,3 7,8z" class="fil8"/><path d="M2416 483c-6,-9 -17,-17 -27,-8 0,0 0,13 -11,21 0,0 0,15 15,15 15,0 28,-19 22,-28zm-13 10c-1,4 -8,9 -13,5 0,0 -2,0 -3,-7 0,-6 6,-8 11,-7 5,1 6,5 5,9z" class="fil8"/><path d="M2440 501c-4,-6 -13,-10 -18,-10 0,0 -2,19 -22,24 0,0 -8,13 -7,16 0,0 18,15 27,14 9,0 13,-11 12,-17 -1,-7 -5,-12 1,-14 6,-2 12,-7 8,-13zm-20 30c-9,9 -19,-4 -19,-4l10 -11c0,0 18,7 10,16zm10 -23c-5,4 -12,-1 -12,-1l5 -8c0,0 12,5 7,10z" class="fil8"/><path d="M2280 785c0,0 -2,-12 -3,-17 -1,-4 2,-9 5,-1 0,0 21,-7 33,-6 12,1 31,7 38,5 7,-2 28,-59 29,-65 1,-5 -4,-8 -4,-8 0,0 -13,29 -16,34 0,0 0,6 -2,11 -2,5 -6,7 -9,7 -3,0 -4,-1 0,-4 4,-3 5,-9 4,-14 0,0 13,-24 15,-34 2,-10 1,-12 -1,-34 -2,-23 -6,-37 -7,-41 0,-3 -8,-3 -9,0 0,3 0,24 2,30 2,6 11,28 10,32 -1,4 -12,20 -13,26 -1,6 -4,9 -4,9 0,0 -3,9 -5,8 -1,-1 0,-4 1,-9 1,-5 10,-26 13,-32 3,-6 0,-14 -3,-22 -3,-8 -6,-34 -6,-39 0,-5 -10,-7 -11,2 0,9 1,21 4,30 3,9 7,18 1,31 -6,13 -11,23 -12,27 0,4 -4,4 -3,-4 1,-8 12,-28 12,-32 0,-3 -3,-22 -6,-34 -3,-12 0,-17 -3,-17 -2,0 -11,0 -10,12 0,12 7,29 7,32 0,2 -2,14 -5,19 -3,5 -15,22 -16,26 -1,4 -6,5 -13,8 -7,3 -47,8 -62,13 -16,5 -29,15 -16,26 13,11 11,16 11,16l4 27c0,0 30,-23 48,-21z" class="fil4"/><path d="M2351 612l3 1 6 -1 7 -11 2 19 3 0c0,0 3,-8 6,-6l0 -28 24 -9 -1 -7 -21 8 8 -16 -7 -6 0 3 1 2 -11 9 -6 9c0,0 7,8 -1,17l-9 4 -4 11z" class="fil8"/><path d="M2416 602l6 -9c0,0 -14,-10 -19,-1 -5,9 -1,12 -1,18 0,6 -1,21 -21,9l-5 7c0,0 12,13 20,11 8,-2 11,-11 11,-22 0,-11 3,-15 10,-13z" class="fil8"/><path d="M2370 567l8 -4c0,0 -6,-14 -14,-14 -8,0 -16,10 -16,10l-7 32c0,0 12,6 20,4 0,0 1,-6 -1,-10 0,0 -15,1 -11,-11 4,-12 10,-24 20,-7z" class="fil8"/><path d="M2324 524l-11 18 -6 -14 -19 32 8 5 12 -21c0,0 3,1 5,19 0,0 -2,8 6,-10 9,-18 11,-26 11,-26l-5 -3z" class="fil8"/><path d="M2262 535l-3 7c0,0 14,11 24,4 11,-6 -2,-28 2,-34 5,-6 15,-1 15,-1l1 -9c0,0 -24,-5 -25,4 -1,9 8,23 5,28 -3,5 -13,8 -19,0z" class="fil8"/><path d="M2327 551l-13 25 -6 -1 -2 5 5 4 15 -14 7 4c0,0 -8,18 -6,18 1,0 8,3 8,3l17 -64 -24 19zm3 7l9 -7 -5 11 -4 -4z" class="fil8"/><path d="M1063 2221c0,0 39,-5 42,-42 3,-37 0,-64 -33,-58 -33,6 -41,16 -41,16 0,0 35,7 40,33 4,26 -2,42 -7,50z" class="fil7"/><path d="M1119 2151c0,0 7,31 -21,67 0,0 31,0 40,-26 8,-26 -5,-45 -19,-40z" class="fil7"/><path d="M1001 2146c0,0 30,18 28,43 -2,25 -18,40 -18,40 0,0 45,-2 49,-35 4,-34 -36,-58 -59,-47z" class="fil7"/><path d="M878 2143c0,0 2,15 27,14 25,-1 60,-15 72,-11 12,4 45,19 42,46 -3,27 -40,38 -71,33 -31,-5 -111,-21 -148,-32 -36,-11 -74,-21 -77,-25 -2,-3 35,-27 63,-50 0,0 80,-20 125,-39 45,-19 94,-49 112,-64 18,-15 28,-27 -6,-6 -34,21 -140,77 -244,85 -104,8 -232,-27 -339,-167 0,0 2,-6 11,-6 8,0 26,-2 5,-7 -21,-4 -54,2 -83,17 -30,14 -74,38 -104,54 -30,16 -96,51 -104,51 -8,0 -3,-39 3,-63 7,-24 30,-153 30,-195 0,-42 -12,-85 -12,-85l-2 -4c0,0 14,-2 14,-6 0,-4 -12,3 -35,-2 -24,-5 -31,-18 -24,-38 7,-20 34,-82 54,-64 0,0 -31,31 -30,42 1,11 9,31 27,45 18,14 26,13 15,3 -11,-10 -38,-30 -26,-49 12,-20 44,-60 58,-49 0,0 -16,29 -16,54 0,26 7,51 18,59 11,7 2,0 -4,-10 -7,-10 -12,-82 24,-101 36,-18 66,32 61,39 0,0 -25,-12 -35,2 -10,13 -17,28 -20,48 -2,20 3,44 7,43 4,-1 -1,-12 0,-27 1,-16 10,-49 26,-55 16,-6 44,20 56,43 12,23 12,50 0,60 -12,10 -46,35 -59,54 -12,20 -35,59 -40,106 -4,47 1,58 3,57 2,-1 4,-24 4,-24 0,0 30,-23 59,-56 28,-33 50,-104 69,-131 19,-27 57,-92 113,-118 0,0 27,43 53,97 26,54 35,72 42,101 7,29 20,82 21,88 2,6 5,4 2,-17 -3,-21 -10,-76 -10,-76 0,0 28,54 32,68 4,15 9,12 1,-16 -8,-27 -21,-63 -39,-82 0,0 -26,-58 -45,-88 0,0 45,-121 78,-153 0,0 -4,46 38,59 42,13 59,-8 83,-56 24,-48 69,-189 69,-189l94 -59c0,0 -11,16 -13,19 -2,2 -12,15 7,-1 19,-16 42,-47 56,-67 14,-20 37,-31 64,-44 0,0 -10,22 -21,47 -12,25 -23,45 -20,46 3,2 24,-34 36,-58 12,-24 40,-83 45,-114 5,-31 0,-54 0,-54 0,0 30,-52 63,-87 34,-35 104,-109 158,-157 54,-48 136,-131 171,-173 35,-42 73,-100 81,-101 8,-2 33,20 43,28 10,8 16,16 31,11 14,-5 30,-21 44,-43 14,-21 42,-60 66,-7 0,0 -36,13 -48,27 -12,14 -21,25 -19,27 2,2 8,-12 22,-20 14,-7 46,-32 64,-19 17,13 35,43 19,60 -17,17 -52,13 -59,12 -7,-2 -32,-7 -31,-3 1,3 8,2 23,9 15,7 39,31 21,64 -17,34 -39,34 -56,15 0,0 6,-30 -4,-40 -10,-10 -25,-21 -25,-21 0,0 6,-7 14,-5 8,2 4,-7 -3,-7 -7,1 -24,5 -28,12 -4,7 -4,11 7,2 0,0 34,14 31,40 -2,26 -28,45 -49,48 -21,3 -52,-5 -34,-31 18,-26 29,-53 5,-63 -24,-10 -49,-12 -76,29 0,0 -16,11 -14,14 2,3 7,-7 21,-6 13,1 17,12 8,16 -8,4 -40,21 -78,49 -39,27 -87,78 -117,131 -30,54 -56,119 -62,173 -6,54 -7,96 -7,96 0,0 -60,52 -87,96 -26,45 -60,94 -59,99 2,5 21,-31 49,-62 0,0 32,102 73,143 0,0 -8,43 17,57 0,0 -7,26 -10,32 -2,7 -1,16 12,23 13,7 54,29 59,27 5,-2 13,-20 18,-33 5,-13 16,-34 12,-39 -3,-5 -35,-31 -35,-31 0,0 14,-35 2,-55 0,0 40,-31 14,-90 0,0 45,-49 63,-66 0,0 26,-18 29,-23 0,0 -61,53 -62,75 -1,22 2,49 80,45l-21 76c0,0 -25,5 -39,19 0,0 -2,-49 -7,-71 -4,-22 -16,-51 -11,-21 5,30 8,83 5,124 -3,40 -22,124 -67,153 -45,30 -131,54 -209,73 -78,19 -142,35 -180,65 -38,31 -14,13 28,-4 0,0 -56,44 -78,87 -22,44 -31,87 -30,105 2,17 3,32 7,9 3,-23 15,-76 35,-103 0,0 128,2 155,9 0,0 -8,12 13,37 21,25 66,73 66,73 0,0 -47,88 -86,118 0,0 -9,9 -35,13 -26,4 -67,8 -91,20 -24,12 -52,26 -48,31 4,4 10,-8 35,-16z" class="fil7"/><path d="M188 1991c4,4 75,-19 81,-14 6,5 -85,29 -88,24 -4,-5 17,-72 25,-69 8,2 -25,53 -18,60z" class="fil1"/><path d="M224 1693c-9,1 -30,12 -26,54 4,42 11,72 33,68 23,-4 32,-47 30,-68 -2,-22 -11,-57 -37,-54z" class="fil1"/><path d="M223 1699c-10,1 -17,29 -18,56 -1,27 12,58 27,55 16,-4 24,-45 21,-60 -2,-14 -7,-54 -31,-51z" class="fil9"/><path d="M1087 969c0,0 -10,-3 -18,-1 -9,2 -17,3 -18,16 -1,13 9,28 6,33 -3,5 -16,6 -18,18 -2,12 2,16 2,21 0,5 2,14 0,16 -2,2 -10,3 -15,-3 -4,-6 -6,-11 -1,-24 5,-13 6,-33 2,-36 -3,-3 -2,-7 -16,-7 -14,1 -44,-1 -44,-1 0,0 -32,8 -45,10 -13,2 -53,0 -56,-7 -3,-7 5,-5 5,-5 0,0 28,-2 44,-4 17,-1 36,-9 44,-12 9,-4 13,-4 11,-5 -2,-2 -10,0 -10,0 0,0 -21,-5 -27,-5 -6,0 -29,-2 -45,-5 -16,-3 -38,-10 -32,-21 0,0 5,-3 14,0 9,2 22,2 29,4 7,1 42,4 57,4 0,0 11,-9 20,-9 8,-1 15,-3 18,-2 4,1 1,-5 -10,-3 -11,2 -22,2 -27,10 0,0 -39,-2 -51,-3 -12,-1 -41,-7 -44,-7 0,0 -7,-6 0,-8 7,-3 4,1 25,4 21,3 42,2 49,1 7,-1 37,-8 43,-6 6,1 26,0 34,-1 9,-1 28,-6 49,-9 21,-4 38,7 38,7 0,0 -11,16 -13,43z" class="fil4"/><path d="M942 930l-1 0c0,0 -5,-12 -13,-14 -8,-1 -11,-3 -17,-2 -5,1 -27,4 -21,-5 0,0 2,-4 16,-5 13,-1 23,-1 31,0 8,1 10,0 14,4 4,3 12,12 17,16l-1 2c0,0 -21,1 -26,5z" class="fil4"/><path d="M438 1645c0,0 -25,24 -34,34 0,0 -48,-51 -56,-119 -7,-68 36,-92 68,-104 32,-12 119,-40 106,-62 -14,-22 -70,-14 -114,-6 -45,7 -104,7 -94,-16 10,-24 72,-37 145,-32 73,5 119,27 129,50 10,22 -6,47 -52,63 -46,16 -133,37 -134,82 -1,45 7,83 36,112z" class="fil7"/><path d="M1288 1360l-15 18 3 3c0,0 8,-8 14,-2 0,0 4,-8 -2,-20z" class="fil7"/><path d="M1291 1429c0,0 4,11 -2,20 0,0 -9,-10 -17,-7 -8,3 -13,18 -13,18 0,0 -9,-10 -6,-20 0,0 9,2 16,2l22 -13z" class="fil7"/><path d="M1278 1386l4 7c0,0 3,-4 9,4 6,8 19,63 -11,69 0,0 -3,11 2,11 5,0 30,-18 26,-48 -5,-30 -16,-55 -29,-42z" class="fil2"/><path d="M1247 1435c0,0 -5,19 8,30l-3 12c0,0 -20,-11 -14,-46 0,0 2,-1 9,4z" class="fil2"/><path d="M1283 1459c0,0 4,-1 4,-4 0,0 -8,-10 -13,-8 -5,2 -20,46 -23,56 -3,10 -8,21 2,27 11,6 52,30 57,29 5,-1 14,-26 16,-33 2,-7 13,-26 12,-28 -1,-2 -34,-31 -34,-31l-4 3c0,0 25,23 28,26 3,3 -4,16 -9,27 -5,11 -8,25 -14,25 -6,1 -18,-7 -34,-16 -16,-9 -20,-9 -15,-27 5,-18 16,-48 19,-49 3,-1 6,3 6,3z" class="fil2"/><path d="M1274 1473c0,0 -12,26 -13,36 -1,10 -1,12 14,20 15,8 25,14 30,14 5,0 12,-22 16,-28 4,-7 6,-14 5,-16 -1,-2 -27,-26 -27,-26l-5 3c0,0 0,10 -8,9 -8,-1 -12,-11 -12,-11z" class="fil6"/><path d="M1274 1488c0,0 12,1 17,11 0,0 -8,7 -5,9 2,2 8,1 10,6 2,5 4,24 4,24l-24 -13c0,0 6,-6 3,-8 -3,-1 -20,-3 -4,-28z" class="fil1"/><path d="M1275 1492l11 7c0,0 -11,4 -6,10 6,5 9,3 11,5 2,2 4,20 4,20l-17 -10c0,0 4,-4 1,-7 -3,-3 -12,-6 -9,-16 3,-10 4,-8 4,-8z" class="fil2"/><path d="M1292 1490c0,0 2,24 15,42 0,0 10,-14 12,-24 2,-10 -5,-24 -27,-18z" class="fil1"/><path d="M1315 1499c-4,-6 -19,-9 -19,-7 0,0 3,20 12,33 0,0 11,-21 7,-27zm-8 13c-3,-4 -4,-13 -4,-13 13,1 4,13 4,13z" class="fil2"/><path d="M1307 1394l3 4c0,0 31,-35 10,-75l-4 4c0,0 17,31 -8,67z" class="fil6"/><path d="M1312 1332l-17 18c0,0 7,17 0,31 0,0 6,6 8,10 0,0 20,-30 8,-59z" class="fil6"/><path d="M1197 1234l-3 4c0,0 5,13 10,27 5,14 28,74 40,94 12,20 27,48 45,48l-3 -6c0,0 -11,-1 -31,-34 -20,-32 -50,-101 -59,-133z" class="fil6"/><path d="M1189 1243l-22 28c0,0 11,42 25,71 14,29 43,85 74,92l25 -17 -1 -5c0,0 -22,0 -42,-34 -20,-35 -53,-127 -59,-135z" class="fil6"/><path d="M1302 968c0,0 9,10 14,22 5,12 7,17 9,19 1,3 -4,4 -14,6 -9,2 -19,0 -22,-3 0,0 4,-27 13,-44z" class="fil10"/><path d="M1425 885c0,0 9,3 12,8 0,0 0,-8 6,-8 0,0 2,-10 -9,-22 0,0 -4,2 -8,22z" class="fil10"/><path d="M1588 848c0,0 -25,0 -41,18 -16,18 -26,53 -29,61 -3,8 -14,25 -18,24 -4,-1 -1,-8 -1,-8 0,0 -33,-19 -41,-34 0,0 -14,-18 -17,-7 0,0 -6,6 -2,10 4,4 0,8 -3,2 -3,-6 -5,-21 -17,-19 -13,2 -46,0 -82,64 0,0 2,27 -1,25 -3,-2 -9,-32 -22,-50l-9 29c0,0 17,25 22,45 0,0 2,10 -8,11 -10,2 -33,4 -33,4 0,0 -10,36 -11,76 -1,41 0,49 -3,54 -3,5 -60,56 -68,72 0,0 23,88 60,141 0,0 79,-96 112,-119 0,0 -28,-7 -33,-29 -6,-21 -12,-73 23,-120 35,-47 43,-53 29,-34 -14,19 -89,141 -9,172l22 -16c0,0 -12,-21 -4,-41 8,-20 14,-35 17,-34 3,1 -10,19 -11,37 -1,18 5,34 15,38 0,0 18,-18 25,-27 0,0 -20,-16 -20,-47 0,-31 8,-88 8,-88 0,0 -11,5 -14,10 -2,5 -9,7 9,-18 18,-25 16,-31 25,-35 10,-4 16,0 14,13 0,0 -5,-10 -10,-6 -5,4 -16,17 -10,29 6,12 19,24 32,14 13,-10 19,-36 33,-42 14,-6 14,18 29,30 15,13 37,44 66,26 29,-17 49,-59 51,-78 2,-19 5,-36 -7,-57 0,0 -8,-14 -36,-20 -28,-6 -54,-18 -53,-29 1,-11 9,-39 21,-49z" class="fil7"/><path d="M1553 1080l8 9c0,0 -27,20 -42,58l-7 -1c0,0 20,-42 41,-66z" class="fil7"/><path d="M1436 858c0,0 16,14 14,30l8 3c0,0 11,-18 10,-24 -2,-6 -21,-12 -21,-18 0,0 -6,-2 -10,8z" class="fil7"/><path d="M1391 888c0,0 17,-8 25,-5 0,0 6,-30 19,-39 14,-9 24,-12 32,-13 8,-1 10,-16 7,-25 -2,-10 -11,-23 -17,-14 -6,10 -11,35 -22,41 -10,6 -46,7 -45,55z" class="fil7"/><path d="M1229 866c0,0 -8,-25 -14,-21 -6,4 -10,25 -6,39l20 -18z" class="fil7"/><path d="M1432 928c-5,2 -14,20 -12,30 2,10 7,33 33,21 26,-13 7,-33 7,-33 0,0 -18,-24 -29,-18z" class="fil0"/><path d="M1691 855c0,0 18,3 21,45 3,41 -10,77 -10,84 0,7 12,34 6,48 -6,14 -25,6 -38,0 0,0 14,-67 -7,-91 0,0 32,-52 28,-86z" class="fil7"/><path d="M1690 934c-3,1 -8,16 0,15 8,-1 4,-16 0,-15z" class="fil1"/><path d="M1694 897c-1,-3 -10,16 0,14 10,-2 1,-12 0,-14z" class="fil1"/><path d="M1631 967c-2,-1 -9,10 -1,11 8,1 4,-10 1,-11z" class="fil1"/><path d="M1585 952c-4,-2 -11,13 -1,13 10,0 4,-11 1,-13z" class="fil1"/><path d="M1609 1001c2,5 14,-3 7,-6 -7,-3 -8,4 -7,6z" class="fil1"/><path d="M1569 1011c1,4 -18,-28 -37,-21 -19,6 -24,24 -25,29 -2,5 -7,12 -2,-10 6,-22 18,-29 28,-31 10,-2 33,19 37,34z" class="fil1"/><path d="M1463 985c-2,-1 -18,15 -27,17 -9,2 -14,-14 -14,-14 0,0 -5,29 14,20 19,-9 27,-22 27,-22z" class="fil1"/><path d="M1378 1195c-4,-3 -11,12 -5,14 6,2 8,-11 5,-14z" class="fil1"/><path d="M1393 1215c-4,2 -3,14 3,9 6,-5 -2,-10 -3,-9z" class="fil1"/><path d="M1373 1225c-3,-2 -8,6 -11,14 -3,8 -14,18 -9,19 5,2 8,-10 14,-18 6,-9 6,-15 6,-15z" class="fil1"/><path d="M1356 1218c0,0 -9,3 -15,10 -6,6 -16,13 -14,16 2,3 4,-4 14,-9 10,-5 15,-17 15,-17z" class="fil1"/><path d="M1422 921c0,0 -6,-14 -10,4 -4,18 -6,37 -6,37 0,0 -14,-4 -14,-10 -1,-6 4,-29 11,-38 7,-9 16,-23 18,7z" class="fil1"/><path d="M1471 923c-8,-1 -17,-3 -16,3 1,4 5,13 10,21 3,4 4,8 8,10 11,8 9,5 16,2 7,-3 13,-14 13,-14 0,0 -7,-7 -14,-11 -7,-4 -16,-11 -16,-11z" class="fil0"/><path d="M1479 944c-3,1 0,19 7,18 7,-2 13,-10 9,-13 -4,-3 -13,-6 -16,-5z" class="fil1"/><path d="M1458 950c0,0 -15,4 0,24 0,0 27,-4 0,-24z" class="fil1"/><path d="M1452 936c0,0 -9,-10 -16,-6 -7,3 -15,19 -13,29 2,10 6,25 16,24 0,0 -15,9 -19,-25 -4,-33 17,-46 32,-21z" class="fil1"/><path d="M1483 932c0,0 -20,-11 -24,-6 -4,6 6,21 6,21 0,0 -18,-19 -10,-27 7,-8 25,10 29,12z" class="fil1"/></g></svg>