<svg xmlns="http://www.w3.org/2000/svg" xmlns:xlink="http://www.w3.org/1999/xlink" width="60" height="60" version="1.1" viewBox="0 0 3958 5417" xml:space="preserve" style="shape-rendering:geometricPrecision;text-rendering:geometricPrecision;image-rendering:optimizeQuality;fill-rule:evenodd;clip-rule:evenodd"><defs><style type="text/css">.fil14{fill:#fefefe}.fil0,.fil7{fill:#373435;fill-rule:nonzero}.fil7{fill:#4b4b4d}.fil1{fill:#606062}.fil1,.fil8,.fil9{fill-rule:nonzero}.fil9{fill:#a45e4d}.fil8{fill:#a8518a}.fil11,.fil4,.fil5{fill-rule:nonzero}.fil4{fill:#d2ae6d}.fil5{fill:#e6e7e8}.fil11{fill:#ed3237}.fil10{fill-rule:nonzero}.fil13{fill:#f7adaf}.fil13,.fil3{fill-rule:nonzero}.fil10{fill:#f8ac92}.fil3{fill:#fefefe}.fil12,.fil2,.fil6{fill-rule:nonzero}.fil2{fill:#94989b}.fil6{fill:#d49c11}.fil12{fill:#fdeac0}</style></defs><g id="Layer_x0020_1"><metadata id="CorelCorpID_0Corel-Layer"/><path d="M3224 936c-11,-1 -22,-4 -30,-10 -11,-8 -19,-20 -23,-37 -1,-6 -2,-14 -3,-21 0,-4 0,-7 1,-11 -13,-6 -28,-12 -44,-15 -27,-6 -58,-7 -90,-2 -3,0 -5,1 -6,-4 -1,-5 2,-6 5,-6 33,-5 65,-4 94,2 16,4 32,9 45,15 1,-1 1,-3 2,-4 3,-4 7,-9 11,-12 -15,-15 -31,-28 -48,-39 -27,-17 -55,-28 -85,-35 -3,-1 -5,-1 -4,-6 1,-5 4,-5 6,-4 31,7 61,19 89,36 18,11 35,25 52,42 1,0 1,-1 2,-1 9,-5 21,-9 34,-10 6,-1 12,-1 18,-1 0,-10 1,-19 2,-28 0,-1 0,-1 0,-2 4,-29 11,-54 21,-74 -3,-2 -5,-4 -7,-6 -8,-8 -12,-22 -13,-44 0,-3 0,-5 5,-6 5,0 5,3 6,5 1,19 4,30 10,37 1,1 3,3 4,4 4,-7 9,-14 14,-20 -5,-6 -8,-13 -10,-19 -5,-15 -4,-31 2,-48 1,-3 2,-5 7,-3 5,2 4,4 3,7 -6,14 -6,28 -2,40 2,5 4,10 7,15 23,-23 53,-34 88,-38 -11,-14 -20,-28 -25,-42 -6,-16 -9,-32 -7,-49 1,-9 3,-21 9,-31 7,-10 18,-18 37,-19 8,0 18,2 28,7 6,3 12,7 16,12 8,-9 16,-18 24,-25 38,-34 81,-46 110,-43 60,6 108,24 141,50 24,18 41,39 52,63 11,23 15,49 12,74 -3,27 -13,55 -31,80 0,1 1,1 1,2 10,11 17,24 21,38 15,-1 30,1 43,4 22,5 41,15 56,28 15,12 25,27 28,41 2,7 3,14 4,21 1,1 1,2 1,4 6,40 1,75 -11,104 -13,31 -34,56 -59,73 -25,17 -54,26 -83,27 -27,0 -53,-7 -76,-23 -18,16 -42,29 -70,38 12,5 23,10 34,16 31,18 54,40 61,60 2,4 2,9 2,13 0,28 -14,54 -33,77 -17,21 -38,39 -56,55 7,3 14,3 20,3 7,0 13,0 18,3 8,4 13,10 15,17 1,4 2,7 1,11 0,4 -2,8 -4,11l0 0c-4,7 -11,14 -22,19 2,4 2,7 2,11 -1,4 -4,8 -8,11 -1,1 -3,2 -5,3 6,9 13,19 21,28l0 0c18,24 37,47 39,71 0,1 0,2 0,3 21,0 44,-9 61,-24 16,-14 28,-35 30,-61 3,-41 15,-75 32,-100 13,-19 28,-34 45,-43 17,-10 34,-14 51,-13 12,1 24,5 34,11 4,3 1,11 -4,10 -2,0 -4,-1 -6,-1 -56,-10 -92,30 -108,121 -6,35 -15,76 -36,107 -21,31 -55,52 -112,47 -8,18 -17,38 -27,57 -2,3 -5,10 -8,16l0 0c0,1 -1,2 -1,3 4,-1 8,-1 13,-1 37,-1 67,19 90,50 2,-9 6,-18 11,-24 7,-9 17,-15 29,-15 27,0 53,21 72,53 7,12 13,25 18,39 2,-2 4,-4 7,-6 5,-4 12,-6 19,-6 15,0 26,9 34,21 7,10 11,24 12,39 1,15 -1,30 -6,46 -10,29 -31,56 -68,69 -4,12 -9,23 -14,34 -15,29 -34,53 -54,70 -21,17 -43,26 -63,26 -8,0 -15,-2 -23,-5 -34,36 -75,57 -107,59 -13,0 -27,-1 -41,-7 -11,-4 -21,-11 -30,-20 -21,13 -44,22 -71,26 3,4 5,7 8,11l0 0c10,14 21,28 22,39 0,1 1,1 1,2 1,3 0,5 -1,5 0,0 0,0 0,0l0 0c-67,183 -169,315 -286,396 -123,84 -262,111 -392,77 0,1 1,2 1,3 49,140 85,288 112,430 1,5 -7,8 -10,4 -4,-6 -8,-12 -12,-18 21,72 35,148 43,219 10,92 8,177 -1,237 -32,198 -148,423 -253,626 -26,50 -51,98 -74,145 9,-6 18,-12 28,-18 4,-3 10,3 7,8 -9,13 -17,26 -25,38 28,-20 57,-44 85,-67 12,-10 24,-19 35,-29 16,-13 33,-19 51,-16 17,2 34,12 52,30 58,57 99,137 128,220 38,110 54,228 56,311 2,78 -15,184 -46,259 -12,28 -25,51 -41,68 -16,18 -35,28 -55,29 -6,0 -13,-1 -20,-3 3,17 5,34 4,49 0,6 -1,12 -2,18 -4,24 -15,46 -31,62 -16,16 -37,25 -62,24 -3,0 -6,0 -9,-1 -14,22 -37,43 -65,59 -27,15 -57,25 -85,24 -6,0 -13,-1 -20,-3 -6,-1 -11,-3 -16,-5 -8,11 -19,21 -30,30 -38,30 -88,47 -125,45 -30,-1 -60,-10 -90,-28 -15,-9 -30,-21 -44,-35 -144,17 -254,16 -335,7 -114,-13 -175,-44 -202,-70 0,0 0,0 0,0 -10,-13 7,-60 37,-118 31,-60 74,-133 112,-191 -8,7 -16,15 -25,24 -4,3 -10,0 -9,-5 8,-33 19,-68 33,-103 -13,1 -29,2 -45,6 -17,4 -35,9 -50,15 -3,1 -7,-1 -7,-5 0,-38 -2,-83 -4,-128 -2,-43 -5,-85 -8,-116 -20,23 -38,57 -51,99 -16,49 -27,108 -32,170 0,1 -2,4 -3,4 -30,14 -59,29 -86,46 -27,17 -53,35 -78,56 -2,2 -6,1 -8,-1 -44,-53 -61,-137 -78,-222 -4,-18 -7,-36 -11,-53 -6,-26 -11,-52 -15,-78 0,-1 0,-1 0,-2 -12,-69 -20,-141 -24,-213 -1,-24 -3,-47 -3,-71 -45,54 -106,97 -167,128 -84,43 -169,64 -220,63 -157,-3 -268,-50 -354,-115 -81,-61 -139,-137 -194,-207 5,118 14,236 29,355 15,125 34,251 57,376 23,125 48,250 75,374 1,4 2,8 3,11 6,24 11,44 -13,57 -5,3 -19,7 -35,11 -15,4 -31,7 -41,9 -22,5 -39,1 -51,-13l0 0c-12,-13 -20,-34 -25,-65 -11,-73 -24,-146 -36,-220 -31,-185 -62,-370 -78,-556 -12,-130 -19,-260 -23,-390 -1,-32 -2,-64 -2,-96 -19,-13 -39,-23 -61,-30 -22,-7 -46,-11 -72,-10 -29,0 -56,5 -86,12 -30,7 -62,18 -102,31 -5,2 -9,-4 -6,-8 34,-48 88,-104 153,-148 51,-34 110,-61 171,-70 0,-24 0,-48 0,-71 -16,-7 -26,-16 -26,-27l0 0 2 -96c-12,-5 -22,-14 -29,-26 -7,-13 -12,-28 -12,-43 -28,-5 -49,-23 -66,-46 -5,5 -11,9 -16,12 -8,4 -15,6 -23,6 -31,0 -59,-21 -80,-50 -29,-40 -48,-94 -52,-125 -4,-31 -2,-60 5,-85 7,-25 19,-47 36,-62 17,-16 39,-26 66,-29 21,-2 44,-1 70,6 30,-39 69,-66 112,-69 17,-1 33,1 51,8 16,6 33,17 51,32 18,-7 36,-11 56,-12 5,0 9,0 14,0 46,2 65,29 85,58 7,10 15,21 24,31l0 0c6,7 13,13 19,18 113,-202 219,-409 321,-609 28,-56 56,-111 86,-169 65,-126 111,-239 151,-337 20,-50 39,-95 58,-136 37,-83 73,-149 111,-195 -14,-5 -27,-9 -40,-11l0 0c-15,-3 -30,-4 -46,-5 -31,-2 -63,1 -94,7 -31,6 -62,14 -93,23 -4,1 -8,-3 -6,-7 11,-22 21,-44 34,-63 9,-14 19,-27 31,-40 -26,8 -49,20 -71,37 -27,21 -51,50 -73,88 -2,3 -6,4 -9,1 -23,-26 -35,-70 -38,-121 -3,-50 2,-106 11,-157 -62,3 -118,-10 -169,-34 -53,-25 -100,-63 -144,-111 -71,-76 -107,-203 -144,-338 -40,-142 -81,-292 -169,-398 -3,-4 1,-10 5,-9 0,0 1,0 1,0 124,6 247,20 365,56 2,1 4,1 6,2 5,-9 10,-18 15,-26 -31,-48 -58,-94 -78,-137 -4,-9 -8,-19 -12,-28 0,-1 -1,-1 -1,-2 -13,-34 -20,-66 -22,-97 -5,-111 68,-221 172,-304 114,-91 266,-152 392,-149 81,2 163,44 234,125 55,62 104,148 141,257 13,-3 26,-5 36,-5 40,-108 84,-183 132,-230 49,-48 103,-68 160,-67 4,0 7,4 5,8 -56,106 -20,208 13,304 2,5 3,9 6,17 10,31 17,62 19,95 2,32 0,66 -6,102 11,4 23,10 34,19 4,3 1,10 -4,9 -2,0 -4,-1 -6,-1 1,1 2,2 3,2 8,6 13,14 17,23 2,4 -4,9 -10,5 -5,-3 -9,-5 -14,-8 3,4 5,8 7,11l0 0c1,2 1,4 2,5 0,0 0,0 1,1 53,51 103,118 144,208 8,18 16,36 23,55 0,1 1,1 1,2 20,53 37,114 50,182 24,-8 53,-15 82,-15 4,0 8,0 12,0 9,-26 18,-53 28,-78 36,-97 79,-190 127,-279 1,-2 3,-5 7,-2 5,3 3,5 2,7 -48,89 -90,181 -126,278 -9,25 -18,50 -27,76 18,2 37,8 54,18 4,2 4,7 0,9 -13,7 -26,18 -37,29 -7,8 -14,16 -18,24 22,-1 42,-1 58,-1 33,-42 65,-81 98,-117 77,-84 155,-154 244,-222 2,-2 4,-3 8,1 3,4 1,6 -1,8 -89,68 -166,137 -242,221 -31,34 -62,71 -93,111 8,1 15,1 21,3 25,4 41,12 51,25 3,4 0,9 -5,9 -12,-2 -22,5 -30,14 -9,10 -16,23 -21,35 -23,51 -41,106 -60,161 -19,57 -39,115 -64,171 26,-27 54,-44 81,-44 21,0 40,16 55,42 14,25 24,59 25,93 0,2 0,5 0,7 38,-24 80,5 111,46 26,35 53,72 80,108 108,148 212,289 328,362 56,-33 102,-90 142,-162 40,-73 74,-161 105,-256 -4,-17 -4,-30 0,-42 5,-15 17,-25 33,-31 2,-1 3,-1 5,-1 -7,-10 -10,-20 -11,-29 -1,-10 2,-18 8,-26 6,-7 15,-12 27,-15 16,-4 37,-4 63,1 -20,-15 -33,-30 -43,-44 -13,-19 -19,-37 -20,-53 -1,-15 4,-33 11,-52 8,-20 20,-39 32,-55 -7,-17 -12,-35 -14,-54 -8,-7 -16,-15 -22,-24 -13,-18 -23,-40 -28,-65 -29,-3 -47,-18 -54,-32 -4,-8 -5,-15 -3,-22 2,-7 6,-12 13,-14 -5,-4 -8,-8 -11,-13 -4,-7 -5,-15 -4,-21 1,-7 6,-13 12,-17 10,-6 27,-7 50,3 -13,-8 -28,-20 -42,-33 -15,-15 -26,-34 -25,-55l0 0c0,-17 11,-31 27,-42 15,-10 35,-17 52,-16 1,-4 1,-8 2,-11 4,-12 10,-20 17,-24l0 0c2,-1 3,-2 5,-2 7,-2 14,-1 22,2 3,1 6,3 9,5 0,-8 1,-16 1,-22 0,-4 1,-8 1,-10 0,-9 -10,-17 -22,-27 -10,-9 -21,-19 -28,-31zm-581 3647c-60,51 -116,95 -168,131 -63,42 -121,72 -174,87 -24,28 -46,59 -64,91 -5,9 -11,19 -15,28 33,9 83,16 155,21 9,1 18,1 28,1 -8,-17 -9,-33 -5,-48 3,-13 10,-25 19,-36 9,-11 21,-20 34,-27 30,-17 68,-25 97,-19 2,-1 4,-2 5,-2 14,-6 29,-11 46,-13 23,-40 43,-84 51,-126 6,-32 5,-62 -7,-88zm-1208 -597c12,-99 27,-193 48,-285 30,-132 71,-261 130,-401 16,-39 44,-93 69,-143 34,-68 66,-131 66,-146 0,0 0,-1 0,-1 4,-48 -9,-116 -20,-168 -2,-8 -3,-16 -3,-16 -19,-94 -33,-166 -53,-239 -20,-71 -45,-143 -86,-239 -92,147 -178,297 -261,455 -116,222 -228,458 -349,723 -2,4 -7,4 -9,1 -10,-17 -21,-33 -32,-49 -5,53 -20,87 -40,110 -21,25 -47,37 -69,43 -24,7 -53,6 -83,-12 -22,-13 -44,-36 -65,-72 -8,12 -17,22 -25,30 -35,33 -73,34 -87,32 -3,0 -6,-1 -9,-2 -3,17 -10,30 -19,39 -9,9 -20,14 -31,17l1 84 0 0c2,19 -12,31 -34,38 0,24 -1,48 -1,72 80,21 147,65 218,111 106,69 220,143 398,151 52,2 112,-11 171,-34 64,-25 125,-60 174,-100zm1999 -2213c-7,5 -16,9 -27,11 -7,2 -14,3 -22,4 17,10 34,20 50,32 0,-3 0,-6 0,-9 -1,-12 -1,-25 -1,-38zm13 -164c-11,2 -21,6 -27,11 -5,4 -9,9 -11,13 -2,5 -2,10 1,15 2,4 5,9 11,13 7,5 13,11 18,16 2,2 4,5 6,7 9,-24 25,-42 53,-50 -2,-7 -3,-13 -4,-20 -15,0 -31,-2 -47,-6z" class="fil0"/><path d="M1615 4049c-25,52 -49,106 -69,161 -53,141 -87,286 -92,423 0,0 0,0 0,0 5,27 10,53 15,79 4,18 8,35 11,53 17,82 33,162 73,213 24,-19 49,-37 75,-53 27,-17 55,-31 84,-45 5,-62 16,-121 32,-170 16,-49 37,-88 62,-111 3,-3 9,-1 9,3 4,33 7,80 10,128 2,42 4,84 4,121 14,-5 30,-10 45,-13 18,-4 36,-6 51,-6 2,-5 4,-10 6,-15 17,-41 37,-82 60,-122 -27,-25 -55,-52 -81,-83 -109,-124 -208,-294 -266,-472 -1,-4 -2,-8 -3,-11 -4,-13 -19,-69 -25,-80z" class="fil1"/><path d="M1620 4037c7,12 26,75 30,89 1,4 2,8 3,10 57,177 156,345 264,468 108,123 224,201 317,197 19,-1 39,-4 60,-10 1,-1 3,-2 5,-1 52,-15 108,-44 169,-85 83,-56 175,-134 278,-229 -30,10 -59,18 -70,8 -13,-12 0,-46 69,-126 -33,12 -64,20 -89,24 -35,5 -60,3 -67,-7 -7,-10 -4,-31 9,-62 5,-12 11,-24 19,-39 0,-1 1,-1 1,-2 6,-12 14,-24 22,-37 -7,4 -14,9 -21,13 -1,2 -2,3 -4,3 -66,40 -124,71 -176,93 -65,27 -120,42 -167,46 -3,0 -5,0 -6,-5 0,-5 2,-6 5,-6 30,-3 63,-9 99,-21 -9,-35 -9,-68 -3,-102 7,-35 21,-70 39,-107 1,-2 2,-5 7,-2 5,2 4,5 2,7 -18,36 -31,70 -38,104 -6,32 -6,64 2,97 17,-6 35,-13 54,-21 52,-22 111,-52 176,-93 25,-51 53,-105 82,-161 105,-203 220,-427 252,-623 5,-33 8,-74 8,-119 -6,69 -23,140 -46,208 -35,100 -86,195 -146,277 -57,78 -122,143 -185,188 -63,45 -125,70 -174,67 -86,-5 -163,-42 -224,-106 -61,-63 -106,-151 -128,-256 -8,-39 -14,-117 -10,-204 3,-63 10,-130 24,-192 -24,8 -49,17 -74,26 -6,18 -12,35 -18,53 -49,134 -119,266 -197,377 -56,80 -109,168 -155,261z" class="fil2"/><path d="M2628 4279c-8,14 -14,26 -18,37 -11,27 -14,45 -10,52 5,7 26,8 57,3 29,-5 66,-15 107,-31 5,-2 9,5 6,9 -76,86 -94,119 -84,128 8,7 39,-3 70,-14 3,-1 7,-2 12,-4 5,-2 9,6 5,9 -42,39 -82,75 -121,109 14,29 16,63 9,97 -8,41 -26,84 -48,123 3,0 6,0 10,0 25,1 52,8 78,28 10,-2 21,-3 31,-3 25,0 53,3 83,14 30,11 63,30 97,63 2,2 4,4 0,8 -4,4 -6,2 -8,0 -33,-32 -64,-50 -93,-60 -29,-10 -56,-13 -80,-13 -10,0 -20,1 -30,3 -1,1 -2,1 -3,1 -21,5 -41,14 -57,30 -20,18 -33,45 -36,81 24,0 49,0 75,-1 10,-8 27,-15 44,-19 17,-3 35,-4 49,1l0 0c39,12 68,37 87,66 11,16 18,34 23,53 8,3 16,5 23,4 17,0 33,-10 47,-25 15,-16 28,-39 39,-65 31,-74 47,-178 45,-255 -2,-82 -18,-199 -56,-308 -28,-82 -69,-160 -125,-216 -16,-16 -32,-25 -46,-26 -15,-2 -29,3 -43,14 -11,9 -23,18 -35,29 -35,29 -72,59 -105,81z" class="fil3"/><path d="M2283 4806c-16,4 -32,6 -48,6 -71,3 -154,-39 -236,-111 -22,39 -42,79 -58,119 -15,38 -28,75 -38,110 15,-15 29,-27 41,-36 0,0 1,-1 1,-1 4,-3 8,-6 11,-8 19,-14 34,-19 43,-14 10,5 15,27 14,61 -1,27 -5,61 -14,99 20,-10 41,-25 61,-45 24,-24 48,-55 72,-94 3,-4 9,-3 10,2 3,24 8,44 15,60 6,13 13,23 22,30 12,-34 28,-66 46,-97 17,-28 35,-55 56,-81z" class="fil2"/><path d="M2416 4943c20,1 42,2 65,2 -9,-26 -6,-50 5,-71 11,-22 30,-40 48,-53 -25,-2 -53,6 -77,20 -12,7 -23,15 -31,25 -8,9 -14,20 -17,32 -3,14 -1,29 7,46z" class="fil3"/><path d="M2492 4945c31,1 65,1 101,1 3,-40 18,-69 40,-89 15,-14 33,-24 53,-30 -22,-14 -44,-20 -64,-20 -5,0 -11,0 -16,1 -1,1 -2,1 -5,1 -16,2 -31,7 -44,12 -2,1 -4,2 -6,3 -1,1 -1,1 -2,1 -20,10 -43,30 -55,55 -10,20 -13,42 -3,67z" class="fil3"/><path d="M2791 5201c1,0 3,0 4,0 22,1 41,-7 54,-21 14,-14 24,-34 28,-56 1,-5 2,-11 2,-17 2,-35 -7,-75 -28,-108 -18,-28 -45,-50 -82,-62l0 0c-12,-4 -28,-4 -43,-1 -16,3 -32,10 -40,18 -1,0 -3,1 -4,1 -110,2 -198,1 -269,-2 -1,0 -2,0 -3,0 -12,-1 -24,-1 -35,-2 -74,-5 -126,-12 -159,-22 -10,21 -19,42 -27,64 -1,3 -5,5 -8,3 -13,-8 -24,-21 -32,-39 -6,-14 -11,-30 -14,-49 -22,34 -44,61 -66,83 -25,25 -50,42 -75,52 -4,2 -8,-2 -7,-6 10,-42 15,-79 16,-108 1,-29 -2,-48 -8,-51 -6,-3 -17,2 -33,13 -3,2 -7,5 -11,8 0,0 0,0 0,0 -42,61 -96,151 -133,222 -28,54 -45,97 -38,106 26,25 85,54 195,67 80,9 186,10 325,-6 -7,-8 -15,-17 -21,-27 -2,-2 -3,-4 1,-8 4,-3 6,-1 8,1 9,12 17,23 27,32 1,0 1,1 1,2 14,14 29,26 44,35 28,17 57,25 85,26 35,2 83,-15 118,-43 29,-23 50,-54 50,-88 0,-24 -17,-56 -51,-81 -26,-19 -63,-33 -112,-35 -19,-1 -40,1 -62,6 -23,4 -47,11 -74,19 -3,1 -5,2 -7,-4 -2,-5 1,-6 4,-7 27,-8 52,-15 75,-19 23,-4 45,-6 64,-6 51,2 90,17 118,37 37,27 55,63 55,89 0,21 -6,40 -18,58 4,1 8,3 12,4 6,1 12,2 18,2 26,1 54,-8 79,-23 28,-16 51,-37 63,-59 2,-4 4,-8 5,-12 8,-25 1,-59 -15,-90 -16,-32 -42,-62 -73,-80 -9,-5 -17,-9 -27,-12l0 0c-15,-5 -72,-2 -133,11 -45,9 -92,24 -128,43 -2,1 -5,3 -7,-2 -3,-5 0,-6 2,-7 37,-20 85,-35 131,-44 63,-13 122,-16 139,-11l0 0c10,3 20,7 29,13 33,19 60,50 77,84 17,34 24,70 16,98 -1,3 -2,5 -3,7z" class="fil3"/><path d="M1415 4333c-1,-73 1,-147 7,-218 3,-39 7,-77 11,-114 -48,37 -107,71 -168,95 -60,23 -121,37 -175,34 -181,-8 -296,-83 -403,-153 -1,0 -2,-1 -2,-1 -10,7 -23,11 -36,13 -9,1 -20,1 -30,-1 24,32 41,59 44,75 3,19 -10,26 -46,14 30,39 26,75 16,85l0 0c0,0 -1,1 -1,1l0 0c-7,6 -24,9 -46,-1 -11,-5 -24,-14 -38,-28 0,31 -1,58 -5,79 -4,21 -11,35 -22,40 46,57 96,117 161,166 84,63 193,110 347,113 50,1 133,-20 215,-62 64,-33 127,-78 172,-135z" class="fil2"/><path d="M925 3463c-29,-41 -60,-77 -89,-106 -48,-49 -92,-81 -121,-89 -2,0 -3,-1 -5,-2 -12,-4 -33,-10 -50,-6 -5,1 -11,4 -15,9 -4,4 -8,8 -11,13 5,3 9,6 14,9 14,9 29,15 43,20 0,0 1,0 1,0 21,7 41,19 59,33 31,25 55,59 64,90 1,3 2,5 -4,7 -5,2 -6,-1 -7,-4 -9,-29 -32,-61 -61,-85 -27,-22 -58,-37 -88,-37 -28,0 -71,20 -107,51 -3,3 -7,6 -10,9 0,1 -1,2 -2,4 -1,1 -2,2 -3,2 -23,24 -41,52 -46,81 -6,31 -5,66 12,92 13,21 35,37 71,43 12,2 46,0 77,-29 20,-18 39,-48 52,-93 1,-3 1,-5 7,-4 5,1 4,4 4,7 -7,23 -14,42 -23,57 20,37 42,60 64,73 26,16 52,17 74,11 20,-6 44,-16 64,-40 20,-23 35,-59 38,-117z" class="fil3"/><path d="M690 3180c-13,24 -27,49 -40,73 2,-1 5,-2 8,-3 20,-4 42,2 55,6 2,1 4,1 5,1 30,8 76,41 126,91 30,30 61,67 91,109 1,0 1,1 1,2 12,17 24,34 35,52 14,-32 29,-63 43,-94 -45,-88 -97,-149 -151,-188 -59,-43 -120,-58 -173,-50z" class="fil3"/><path d="M548 3605c-28,-8 -47,-24 -59,-43 -16,-25 -19,-57 -15,-87 -24,39 -57,64 -85,66l0 0c-2,0 -5,0 -7,0 -5,0 -11,-1 -16,-2 -3,10 -8,21 -19,30 -11,10 -29,17 -57,17 -2,0 -5,0 -7,0 1,13 4,25 11,36 6,10 15,19 26,23 1,0 2,1 3,1 27,9 55,14 84,16 31,2 63,-1 94,-7 12,-2 23,-7 31,-15 8,-8 13,-18 16,-34z" class="fil4"/><path d="M501 3405c7,-10 15,-20 24,-29 -4,-4 -8,-8 -13,-12 -2,-2 -5,-3 -7,-5 0,15 -1,31 -4,45z" class="fil4"/><path d="M532 3368c3,-3 6,-6 9,-8 36,-31 79,-52 109,-53 -3,-2 -6,-4 -10,-6 -15,-9 -30,-21 -44,-36l0 0c-9,-10 -17,-21 -25,-32 -18,-26 -36,-52 -77,-53 -5,0 -9,0 -13,0 -119,5 -198,137 -194,248 1,27 10,53 28,73 15,17 37,28 66,30 2,0 4,0 6,0 49,-4 113,-84 106,-179 0,-4 3,-7 7,-6 6,2 12,5 18,10 5,4 9,8 14,13z" class="fil3"/><path d="M356 3537c-19,-5 -35,-16 -47,-29 -20,-21 -30,-51 -31,-80 -4,-93 50,-202 137,-243 -15,-12 -29,-21 -43,-26 -16,-6 -31,-8 -46,-7 -45,3 -86,35 -115,81 -30,47 -47,109 -41,167 3,31 16,88 45,129 19,26 44,45 77,45 25,0 40,-6 50,-14 8,-7 12,-16 15,-24z" class="fil3"/><path d="M201 3529c-27,-42 -39,-97 -42,-127 -6,-61 12,-125 43,-174 2,-3 3,-5 5,-8 -23,-6 -44,-7 -62,-5 -24,3 -44,12 -60,26 -16,14 -27,34 -33,57 -6,23 -8,51 -5,81 4,30 22,82 50,120 20,26 44,46 72,46 6,0 12,-1 18,-5 5,-3 10,-6 15,-11z" class="fil3"/><path d="M497 3666c-30,6 -60,8 -91,6 -28,-2 -56,-6 -82,-15l-2 92c0,13 28,24 62,29 14,2 30,3 44,3 15,0 28,-2 40,-5 18,-5 31,-14 30,-28l0 0 -1 -82z" class="fil4"/><path d="M465 3788c-11,2 -23,4 -35,4 -15,0 -31,-1 -46,-3 -12,-2 -24,-5 -34,-8 -1,129 0,257 4,386 4,130 11,259 23,390 17,186 47,371 78,555 12,73 24,146 36,220 4,29 11,48 22,60l0 0c10,10 23,13 41,10 10,-2 26,-5 40,-9 14,-4 28,-7 32,-10 16,-9 12,-25 7,-45 -1,-4 -2,-8 -3,-11 -27,-123 -53,-248 -75,-374 -23,-126 -42,-252 -57,-377 -16,-133 -25,-265 -30,-396 -5,-130 -5,-260 -3,-391z" class="fil4"/><path d="M475 3869c-1,104 0,207 4,310 0,7 1,14 1,22 11,14 22,28 33,42 9,-2 15,-14 19,-33 4,-22 6,-54 5,-91 0,-5 6,-7 10,-4 16,19 31,30 44,36 17,8 30,7 35,3l0 0c0,0 0,0 0,0 0,0 0,0 0,0l0 0c0,0 0,0 0,0 8,-8 9,-46 -31,-86 -4,-4 1,-11 6,-9 39,16 53,16 51,5 -2,-15 -22,-45 -50,-81 -3,-4 1,-10 6,-9 15,4 28,5 41,3 10,-1 19,-4 27,-9 -64,-42 -127,-81 -200,-101z" class="fil3"/><path d="M340 4058c-1,-66 -2,-133 -2,-199 -59,9 -116,35 -165,68 -58,39 -107,88 -140,131 32,-11 60,-20 87,-26 31,-7 59,-12 89,-12 27,0 52,4 75,11 20,7 39,16 57,27z" class="fil3"/><path d="M2946 3267c-5,-1 -10,-3 -16,-5 -54,-16 -157,-46 -269,-47 -93,-1 -191,6 -300,26 -86,16 -180,40 -286,75 -15,62 -23,132 -26,196 -3,87 2,163 10,201 22,103 66,190 126,251 59,61 134,98 217,102 47,3 106,-22 168,-65 62,-44 127,-109 183,-186 59,-81 110,-175 144,-274 32,-90 50,-184 49,-275z" class="fil5"/><path d="M3218 1163c-14,-2 -21,-9 -25,-16l0 0c0,0 0,-1 -1,-1 -5,-10 -3,-22 3,-33 5,-10 14,-19 25,-25 0,0 0,-1 0,-1 -2,-7 -3,-13 -3,-19 -15,0 -32,6 -46,15 -13,9 -22,20 -22,33 0,0 0,0 0,0l0 0c0,0 0,0 0,0 0,18 9,34 22,48 11,12 25,22 37,30 3,-10 6,-20 10,-30z" class="fil6"/><path d="M3264 1675c-16,-2 -29,-1 -39,2 -10,2 -17,6 -21,12 -4,5 -6,11 -6,18 1,8 4,18 12,28 4,0 9,-1 14,-1 -1,-5 -1,-10 0,-15l0 0c2,-10 6,-19 13,-27 7,-7 16,-13 27,-16z" class="fil6"/><path d="M3199 1309c0,-2 0,-3 -1,-5 0,0 0,0 0,0l0 0c0,0 0,0 0,0 -1,-9 -2,-19 -2,-28 -16,-12 -28,-16 -35,-14 -4,1 -6,3 -7,7 -1,4 0,9 2,14 6,11 19,22 42,26z" class="fil6"/><path d="M3197 1256c1,-13 3,-27 6,-42 -20,-9 -34,-9 -42,-4 -4,2 -6,6 -7,10 -1,4 0,9 3,14 6,10 19,20 41,22z" class="fil6"/><path d="M2168 1138c5,29 10,59 13,90 16,1 29,5 40,12 11,-40 23,-79 35,-117 -3,0 -6,0 -8,0 -29,0 -57,7 -80,15z" class="fil2"/><path d="M2198 1661c37,-70 63,-147 89,-222 19,-56 37,-111 60,-162 6,-13 13,-27 23,-38 7,-8 16,-15 26,-17 -8,-6 -20,-11 -36,-13 -8,-1 -17,-2 -27,-3 -24,30 -47,63 -72,97 4,16 6,34 5,53 0,21 -4,43 -9,64 -10,38 -29,73 -52,92 20,65 4,130 -30,185 -10,16 -21,31 -33,46 -4,18 -13,37 -24,55 -2,3 -4,5 -5,8 2,-1 4,-3 6,-4 14,-10 29,-18 43,-23 4,-42 18,-81 36,-114 0,-1 1,-2 1,-3z" class="fil2"/><path d="M2320 1205c-17,0 -36,0 -58,1 -4,0 -7,-4 -5,-7 4,-12 13,-25 24,-36 9,-10 20,-19 31,-26 -14,-7 -29,-10 -44,-12 -13,40 -26,81 -37,123 12,11 21,25 27,42 21,-30 42,-58 62,-85z" class="fil2"/><path d="M2504 1981c-4,13 -10,25 -17,35 15,4 34,10 54,18l-36 -53z" class="fil7"/><path d="M2480 2026c-11,14 -25,26 -42,33 48,56 94,129 139,220 42,86 83,188 123,310 -1,-54 -3,-107 -8,-160 -6,-58 -15,-115 -30,-172 0,-1 -1,-2 -1,-2 -2,-6 -3,-12 -5,-19 0,0 0,-1 0,-1 -6,-34 -12,-62 -20,-85 -8,-23 -18,-42 -32,-60 -11,-15 -30,-28 -50,-38 0,0 -1,0 -1,-1 -26,-13 -54,-22 -73,-26z" class="fil3"/><path d="M2427 2062c-6,2 -12,3 -19,3 -28,1 -59,-8 -89,-24 -35,-18 -69,-44 -94,-68 -3,4 -6,7 -10,10 -13,11 -28,17 -44,15 -7,-1 -14,-3 -21,-7 0,0 0,0 0,1 -3,37 -8,72 -15,104 57,78 97,182 123,305 23,107 36,229 42,360 60,-29 123,-54 191,-69 69,-15 145,-20 229,-10 -6,-19 -12,-37 -19,-56 0,0 0,-1 0,-1 -44,-136 -88,-249 -133,-342 -45,-92 -92,-165 -140,-221z" class="fil5"/><path d="M2231 1965c25,24 58,49 93,67 28,15 58,24 83,22 28,-1 50,-16 66,-38 0,-1 1,-2 1,-2 1,-1 2,-3 3,-4 20,-30 29,-71 26,-105 -3,-43 -47,-74 -79,-98 -16,-12 -29,-21 -35,-30 -6,-9 -6,-34 -7,-63 0,-3 0,-7 0,-11 -1,-33 -10,-65 -23,-88 -13,-22 -29,-36 -45,-36 -30,0 -64,25 -91,63 -25,35 -44,81 -50,131 4,-1 7,-1 11,-2 0,0 0,0 0,0l0 0c0,0 0,0 0,0 16,-1 31,2 45,11 10,6 18,14 24,25 33,-32 52,-111 42,-124 0,0 0,0 0,0 -3,-2 -8,1 -13,5 -7,6 -13,14 -19,20 -2,2 -4,4 -8,1 -4,-3 -2,-6 -1,-8 6,-7 13,-15 20,-21 9,-7 17,-11 25,-6 1,1 2,2 3,3 12,15 -8,107 -45,140 1,1 1,3 1,4 2,6 4,14 4,21 0,3 0,6 0,9 34,39 129,68 141,58 1,-3 -2,-8 -7,-13 -6,-7 -16,-15 -23,-21 -2,-2 -4,-3 -1,-8 3,-4 6,-2 8,-1 8,7 17,14 24,22 8,9 13,18 8,26l0 0c-1,1 -1,2 -2,3l0 0c-13,11 -106,-13 -149,-51 -1,24 -7,49 -17,71 -4,10 -9,19 -15,27z" class="fil8"/><path d="M2170 1785c0,0 -1,0 -1,0 -15,5 -30,13 -44,23 -12,9 -24,18 -34,29 20,4 36,14 47,35 7,13 11,29 13,50 0,1 0,1 0,1 1,16 2,34 0,55 7,5 14,8 21,9 13,2 25,-3 36,-12 11,-10 21,-25 28,-42 10,-24 16,-52 16,-78 0,-1 0,-2 0,-3 0,-3 0,-6 0,-10 -1,-7 -2,-13 -4,-19 -5,-15 -14,-26 -26,-34 -11,-7 -25,-10 -38,-9l0 0c-5,0 -10,1 -14,3z" class="fil8"/><path d="M2681 2288c10,46 17,92 22,139 6,65 8,130 9,196 0,1 0,1 0,1 0,0 0,1 0,1 16,45 30,91 41,136 12,45 21,90 31,135 31,8 59,21 84,40 12,10 24,20 35,33 2,0 3,2 3,4 5,6 10,12 15,19 -26,-134 -61,-272 -107,-403 -37,-107 -82,-210 -135,-302z" class="fil7"/><path d="M1640 1783c8,4 16,8 25,12 33,16 70,35 123,51 7,-1 14,-2 21,-3 56,-7 124,-10 189,-10 45,-17 95,-52 134,-97 0,-2 1,-3 3,-4 11,-13 22,-28 31,-42 32,-52 47,-112 30,-173 -9,6 -19,9 -30,9 -10,0 -20,-1 -29,-4 -6,-2 -12,-5 -18,-8 -11,59 -45,101 -90,128 -28,17 -60,28 -94,34 -33,6 -68,7 -100,2 -61,-8 -116,-33 -142,-72 -2,2 -4,4 -7,6 -35,28 -81,50 -137,58 8,22 20,42 34,61 16,21 35,39 56,53z" class="fil3"/><path d="M1789 1858c0,0 -1,0 -1,0 -56,8 -95,20 -98,34 -8,34 4,70 32,102 29,33 74,63 130,83 1,0 3,3 3,4 11,49 38,95 69,131 8,9 15,17 23,25 1,0 1,1 1,1 28,27 56,44 74,43 26,-1 51,-32 71,-82 12,-28 22,-63 30,-101 0,-1 0,-1 0,-2 7,-33 12,-68 15,-105 0,-3 0,-5 1,-8 0,-1 0,-1 0,-2 1,-18 2,-34 1,-48 -33,25 -65,63 -92,100 -37,53 -63,104 -60,116 0,0 0,0 0,0 2,0 4,0 6,-1 8,-2 20,-7 27,-12 2,-1 5,-3 7,2 3,5 1,6 -2,7 -8,5 -20,11 -30,13 -4,1 -7,1 -10,1 -4,0 -7,-2 -9,-5l0 0c-1,-1 -1,-2 -1,-3 -4,-15 23,-70 62,-125 28,-40 64,-81 99,-107 0,-1 0,-1 0,-2 -37,19 -92,38 -141,52 -61,17 -115,25 -122,15 0,-1 -1,-1 -1,-2 -5,-11 19,-28 34,-35 2,-1 5,-2 7,3 2,5 0,6 -3,7 -11,5 -30,16 -29,21 5,6 54,-4 111,-19 51,-14 107,-33 142,-53 -2,-12 -6,-22 -10,-30 -10,-20 -27,-28 -47,-30 -1,0 -2,1 -3,0 -2,0 -3,0 -5,0 -1,0 -2,0 -3,0 -23,-1 -46,-2 -70,-2 -1,0 -3,1 -4,0 -64,0 -131,3 -186,10 -7,1 -15,2 -22,3z" class="fil8"/><path d="M1947 2251c-4,19 -17,45 -28,70 -13,27 -24,51 -22,59 0,1 12,7 31,16 82,41 288,143 362,379 -6,-136 -18,-261 -42,-371 -25,-117 -62,-217 -116,-293 -8,35 -18,66 -29,93 -22,54 -51,87 -81,88 -19,1 -47,-15 -75,-40z" class="fil3"/><path d="M1824 2077c-9,35 -18,77 -23,113 -5,37 -5,69 7,82 0,0 0,0 1,1 16,15 73,-24 105,-58 -30,-36 -56,-82 -68,-130 -7,-3 -14,-5 -21,-8z" class="fil3"/><path d="M2024 1834c16,0 31,1 46,2 14,-12 28,-28 39,-45 6,-10 12,-20 16,-30 -31,31 -66,57 -100,73z" class="fil2"/><path d="M1701 1599c24,37 76,61 136,69 31,4 65,3 97,-2 32,-6 63,-16 90,-33 44,-27 77,-68 86,-126 -1,-1 -2,-3 1,-6 0,0 0,-1 1,-1 1,-1 2,-2 5,-2 4,1 5,2 5,4 6,4 12,7 20,10 8,3 17,4 26,4 37,-1 67,-46 81,-100 5,-20 8,-41 9,-61 0,-14 -1,-28 -3,-40 -17,25 -35,51 -53,78 -1,2 -3,5 -7,2 -5,-3 -3,-5 -2,-7 20,-30 39,-59 58,-86 0,-1 0,-2 -1,-2 -5,-15 -12,-28 -22,-39 -7,26 -14,52 -20,79 -1,3 -1,5 -6,4 -5,-1 -5,-4 -4,-6 7,-28 14,-57 21,-84 -11,-8 -25,-13 -43,-13 -27,0 -55,13 -79,32 -22,16 -40,37 -53,55 4,-2 7,-4 11,-6 15,-8 30,-14 44,-17 15,-3 29,-4 41,-1 19,4 33,17 37,42 0,0 0,0 0,0 1,13 -6,39 -16,64 -10,26 -22,50 -31,56 0,0 -1,1 -1,1 -34,14 -143,0 -156,-30 -1,-2 -1,-4 -1,-6 -2,-28 15,-56 40,-79 -53,-10 -106,2 -151,29 0,0 -1,1 -1,1 0,1 -1,3 -4,3 -1,0 -1,0 -2,0 -15,10 -29,22 -42,35 0,1 -1,2 -2,2 -6,6 -11,12 -16,19 0,1 0,2 -1,4 -1,3 -3,4 -4,4 -3,5 -7,10 -10,16 61,9 118,20 173,33 3,1 5,1 4,7 -1,5 -4,5 -7,4 -55,-14 -114,-25 -176,-33 -7,13 -12,27 -16,42 0,1 0,1 -1,2 0,1 -1,2 -1,3 36,-1 71,-1 106,0 3,0 5,0 5,6 0,5 -3,5 -6,5 -36,-1 -72,-1 -110,0 -10,22 -27,46 -50,68z" class="fil3"/><path d="M1745 1420c7,13 11,27 13,40 3,0 6,1 10,1 4,-6 7,-13 11,-19 -13,-7 -24,-14 -34,-22z" class="fil2"/><path d="M1760 1470c0,2 0,3 1,5 1,-1 1,-3 2,-4 -1,0 -2,0 -3,0z" class="fil2"/><path d="M1817 1399c10,-9 20,-17 31,-24 -13,-45 -31,-84 -54,-111 -21,-24 -45,-38 -71,-34 -5,1 -10,4 -15,11 -7,10 -13,26 -14,45 0,1 0,2 0,3 0,0 0,0 0,0 5,-11 13,-19 22,-23 15,-6 33,-1 50,12 16,12 30,32 40,56 6,15 9,30 11,44 1,8 1,15 0,22z" class="fil9"/><path d="M1857 1369c9,-5 19,-10 28,-14 -2,-34 -9,-70 -19,-105 -10,-36 -25,-72 -42,-103 -21,-39 -48,-73 -78,-97 -1,0 -2,-1 -2,-2 0,0 0,0 -1,-1 -6,-5 -12,-9 -18,-13 -35,-22 -71,-30 -106,-19 -2,1 -4,2 -7,4 -9,7 -20,20 -24,44 -5,25 -3,60 13,109 15,45 43,102 89,172 -2,-5 -3,-9 -4,-14 0,-1 -1,-2 -1,-3 -3,-15 -4,-29 -3,-42 1,-21 8,-39 16,-51 6,-8 14,-14 22,-15 30,-4 57,11 80,38 23,27 42,67 55,112z" class="fil3"/><path d="M2112 1248c4,-2 8,-5 13,-7 2,-14 2,-29 0,-45 -4,-29 -14,-60 -29,-84 -14,-23 -32,-40 -51,-43 -4,-1 -8,-1 -12,0l0 0c-1,0 -1,0 -2,0 -16,5 -28,39 -18,71 0,0 0,0 0,0 1,3 3,7 4,10 1,-10 3,-18 7,-23 4,-6 9,-9 16,-9 6,-1 12,1 19,5 17,9 35,33 45,68 4,15 7,26 8,37 1,7 1,14 0,20z" class="fil9"/><path d="M393 705c73,20 173,53 275,108 126,67 255,168 347,319 4,6 8,12 11,19 2,5 -7,10 -9,5 0,0 0,0 0,0l0 0c0,0 0,0 0,0 -3,-6 -7,-12 -10,-18 -15,-23 -35,-39 -59,-50 -25,-11 -55,-16 -90,-17 15,8 29,17 43,26 19,13 37,28 51,48 2,3 0,8 -4,9 -47,7 -81,20 -103,33 -10,6 -18,13 -23,18 -4,5 -6,9 -5,12 0,0 0,1 0,1 2,4 13,8 36,5 17,-2 39,-8 67,-21 0,0 0,0 1,0l0 0c0,0 0,0 0,0 5,-2 9,7 5,10 -23,11 -36,31 -42,56 -6,23 -6,50 -3,79 15,-23 31,-36 46,-41l0 0c12,-4 23,-3 33,4 9,6 17,17 23,33 15,40 17,112 -6,209 -13,58 -21,127 -18,186 3,45 12,84 30,108 21,-36 45,-64 71,-84 29,-22 60,-36 95,-44 5,-1 8,6 5,9 -18,16 -33,33 -45,52 -10,16 -19,33 -28,51 28,-8 55,-15 83,-20 32,-6 64,-9 96,-7 16,1 31,2 47,5l0 0c15,3 30,7 45,13 41,-46 87,-71 143,-71 42,0 73,7 101,18 -10,-10 -20,-20 -28,-31 -15,-20 -28,-42 -36,-66 -4,0 -9,1 -13,1 -31,1 -64,-2 -100,-11 -3,-1 -5,-1 -4,-7 1,-5 4,-5 7,-4 35,9 67,12 96,11 65,-3 117,-27 155,-57 28,-23 48,-49 60,-73 -90,3 -185,11 -282,26 -121,19 -245,50 -366,95 -3,1 -5,2 -7,-3 -2,-5 1,-6 3,-7 121,-45 246,-76 368,-95 99,-16 196,-24 288,-26 2,-4 3,-9 4,-13 2,-7 3,-14 2,-20 0,-6 -1,-11 -2,-17l0 0c0,0 0,-1 0,-1 -39,-5 -80,-9 -122,-13 -117,-9 -243,-11 -378,-7 -3,0 -5,0 -6,-5 0,-5 3,-5 5,-6 135,-4 262,-2 379,7 41,3 80,7 119,12 -5,-22 -15,-45 -34,-65 -1,0 -1,-1 -2,-2 -1,-1 -3,-2 -4,-4 -28,-24 -72,-41 -144,-38 -14,1 -30,2 -47,4 -3,0 -5,1 -6,-5 -1,-5 2,-6 5,-6 17,-2 33,-4 48,-5 58,-3 99,8 129,25 -53,-77 -83,-139 -100,-188 -17,-51 -19,-88 -14,-114 5,-27 18,-43 29,-51 3,-2 7,-4 10,-5 31,-10 64,-6 95,9 -25,-28 -40,-53 -45,-71 -3,-10 -3,-19 1,-25 4,-7 11,-11 21,-11 15,-1 38,6 69,23 -19,-37 -29,-63 -31,-79 -1,-10 1,-17 6,-20 5,-4 12,-4 21,0 17,6 42,25 77,55 -1,-14 1,-26 4,-36 6,-18 18,-30 27,-33 1,0 2,0 2,-1 23,-6 64,11 96,109 1,-17 4,-32 9,-45 6,-15 14,-25 25,-32 14,-8 36,3 58,21 11,10 23,21 33,34 -1,-3 -2,-5 -4,-8 -38,-84 -84,-147 -133,-196 0,1 0,1 0,2 0,5 -7,7 -10,3 -12,-15 -23,-23 -33,-26 -6,-2 -11,-1 -16,2 -5,3 -9,9 -12,17 -8,20 -9,52 -3,96 1,5 -6,8 -9,5 -14,-14 -26,-36 -35,-61 -8,-25 -13,-53 -11,-78 0,-9 4,-17 10,-24 4,-5 10,-10 16,-14 -35,-18 -70,-30 -106,-35 -40,-6 -80,-4 -120,6 0,0 0,0 0,0 -60,54 -161,102 -318,109 -2,0 -3,0 -5,0 -94,8 -168,27 -227,54 -57,26 -101,61 -135,103 34,23 68,48 100,77 2,2 4,4 0,8 -4,4 -6,2 -8,0 -98,-88 -205,-144 -316,-180 -1,0 -2,0 -4,-1 0,0 -1,0 -1,0 -3,-1 -6,-2 -8,-3 -100,-30 -203,-45 -308,-52z" class="fil2"/><path d="M962 1570c1,-7 3,-14 5,-21 22,-95 20,-165 6,-203 -5,-13 -11,-22 -19,-27 -7,-5 -15,-6 -23,-3l0 0c-15,5 -31,21 -48,49 -2,4 -9,3 -10,-2 -5,-36 -6,-70 1,-98 4,-15 10,-29 19,-40 -15,5 -27,8 -37,9 -28,4 -43,-4 -47,-11 -1,-2 -2,-3 -2,-5 -1,-6 2,-13 8,-20 5,-7 14,-14 25,-21 21,-13 54,-26 98,-33 -13,-15 -27,-27 -43,-38 -19,-13 -39,-24 -61,-35 -4,-2 -3,-10 2,-10 46,-1 84,4 116,18 9,4 17,9 25,14 -87,-125 -202,-210 -313,-270 -121,-65 -238,-98 -312,-117 82,107 123,252 161,390 37,134 72,260 142,334 43,46 90,84 141,108 50,24 105,36 167,33z" class="fil10"/><path d="M2170 1228c-4,-30 -8,-59 -13,-87 -1,0 -2,-1 -3,-4 -2,-4 0,-5 2,-6 -13,-69 -30,-129 -50,-183 0,0 0,0 0,0 -12,-23 -36,-53 -59,-73 -18,-15 -36,-25 -46,-19 -9,5 -16,14 -20,26 -8,20 -10,48 -8,80 0,1 1,2 0,4 2,21 5,43 10,66 5,24 11,48 19,71 3,-22 15,-40 28,-44 1,0 2,-1 4,-1l0 0c5,-1 10,-1 15,0 22,4 43,23 58,49 15,25 26,57 30,88 2,14 2,28 1,41 11,-4 23,-7 34,-8z" class="fil3"/><path d="M1897 1350c40,-15 83,-19 126,-9 0,0 0,0 1,0 10,-22 32,-50 59,-72 -17,-10 -35,-34 -52,-64 -3,-5 -6,-11 -8,-17 -1,-1 -1,-2 -1,-3 -6,-12 -11,-25 -16,-39 0,-1 -1,-2 -1,-2 0,0 0,0 0,0 0,0 0,0 0,0 0,0 0,0 0,0 -13,-35 -24,-73 -32,-110 -5,-24 -8,-48 -10,-70 -30,-123 -72,-144 -94,-139 -1,0 -1,0 -2,0 -7,2 -15,11 -20,26 -4,12 -6,27 -2,44 1,5 -5,8 -9,5 -39,-35 -68,-56 -85,-62 -6,-2 -9,-3 -11,-1 -2,1 -2,5 -2,11 2,17 14,47 38,92 2,4 -3,10 -8,7 -37,-22 -63,-31 -79,-31 -6,0 -10,2 -12,6 -2,4 -2,10 0,17 6,23 31,58 74,98 32,25 61,61 84,103 18,33 32,69 43,106 10,34 16,70 19,104z" class="fil5"/><path d="M2897 2979c-11,-13 -23,-24 -36,-33 -25,-19 -53,-32 -83,-39 -2,0 -4,-3 -4,-4 -3,-13 -6,-27 -8,-40 -85,-11 -186,-9 -306,18 -121,28 -260,81 -421,174 1,34 -1,70 -6,106 145,-50 260,-81 361,-98 103,-18 191,-23 281,-23 66,0 119,4 161,9 37,5 66,11 86,16 -7,-29 -15,-58 -24,-86z" class="fil8"/><path d="M2763 2851c-6,-29 -13,-58 -21,-87 -6,-23 -13,-47 -20,-70 -85,-11 -160,-6 -230,10 -69,15 -133,40 -193,70 1,16 1,32 2,48 0,3 0,5 -5,6 0,0 0,0 0,0 -49,28 -95,61 -138,99 -37,32 -72,68 -104,107 153,-86 287,-137 403,-163 120,-27 221,-29 306,-19z" class="fil8"/><path d="M2951 3257c-1,-11 -2,-23 -3,-35 -5,-47 -13,-97 -24,-146 -21,-5 -50,-12 -90,-17 -41,-5 -94,-9 -160,-9 -90,0 -177,5 -279,23 -102,18 -217,48 -364,100 -7,52 -20,106 -37,161 139,-51 258,-84 366,-103 110,-20 208,-27 302,-26 113,1 217,32 272,48 7,2 13,4 18,5z" class="fil8"/><path d="M1581 2335c0,-1 0,-2 2,-3 35,-56 71,-111 109,-166 2,-2 3,-4 7,-1 4,3 3,5 1,8 -37,54 -73,109 -108,164 42,99 69,174 89,247 20,74 35,146 54,240 2,11 3,13 3,16 11,53 25,121 20,171l0 -1c0,18 -32,82 -67,151 -26,51 -53,104 -69,143 -58,140 -99,269 -129,400 -30,131 -48,264 -61,413 -6,71 -8,145 -7,218 0,1 0,1 0,2 1,28 2,56 3,84 3,55 9,110 17,163 10,-123 43,-252 90,-377 58,-156 140,-306 231,-436 77,-110 147,-241 196,-374 43,-118 68,-237 66,-342 -1,-3 -1,-5 1,-6 0,0 0,0 0,0 38,-48 78,-91 123,-130 43,-38 90,-71 139,-99 -60,-261 -282,-371 -367,-413 -22,-11 -35,-17 -37,-23 -3,-11 9,-37 23,-66 13,-27 27,-57 28,-74 -6,-6 -12,-12 -17,-18 -35,36 -98,76 -119,57 0,0 -1,-1 -1,-1 -14,-16 -15,-51 -9,-91 5,-38 15,-80 24,-116 -42,-19 -77,-44 -101,-72 -30,-35 -44,-74 -34,-112 4,-16 37,-29 86,-38 -44,-15 -76,-31 -105,-45 -8,-4 -15,-8 -23,-11 -1,0 -2,-1 -2,-1 -39,-18 -75,-32 -132,-32 -53,0 -96,24 -136,69 -40,46 -77,113 -116,200 -19,41 -37,87 -57,136 -40,98 -87,211 -152,338 -27,53 -56,110 -86,168 -83,163 -169,331 -259,497 54,-6 114,10 173,53 53,39 105,99 150,185 101,-219 197,-419 296,-608 84,-161 171,-313 265,-463z" class="fil7"/><path d="M3273 836c19,4 32,14 31,23 -2,9 -18,12 -37,9 -19,-4 -32,-14 -31,-23 2,-9 18,-12 37,-9z" class="fil3"/><path d="M3318 1027c4,8 12,15 26,15 15,0 33,-13 47,-31 0,-1 1,-1 1,-2 -3,-1 -6,-2 -10,-2 -6,0 -13,1 -16,4 0,0 0,0 0,0 -2,1 -3,3 -5,4 -2,2 -3,4 -5,6 -2,2 -3,4 -8,1 -4,-3 -3,-5 -1,-8 2,-3 4,-5 6,-8 0,0 0,0 0,0 -3,0 -6,0 -9,1 -7,2 -14,6 -20,11 -2,2 -5,5 -7,7z" class="fil11"/><path d="M3430 1063c-1,0 -1,1 -2,1 -33,22 -68,35 -89,36 -7,16 -10,37 -10,56 0,15 2,30 6,41 4,11 9,19 15,21 2,1 3,1 5,1 11,0 20,-5 29,-17 8,-10 15,-25 21,-45 0,-1 0,-2 1,-3 2,-5 3,-10 5,-15 0,-1 2,-3 3,-3 12,-5 22,-15 29,-25 8,-12 13,-24 12,-34 0,0 0,-1 0,-1l0 0c-1,-9 -11,-14 -27,-13z" class="fil11"/><path d="M3328 1099c-9,-1 -16,-4 -22,-7 -2,3 -5,8 -7,15 -2,6 -3,12 -2,18 0,2 1,4 1,6 1,1 1,1 2,2 1,1 1,2 1,2 1,1 2,2 3,3 3,3 8,5 15,6 1,-16 4,-32 9,-46z" class="fil11"/><path d="M3296 1086c-16,-12 -22,-29 -24,-46 -4,-4 -9,-7 -14,-9 -5,-2 -10,-3 -15,-1 -1,0 -1,0 -2,1l0 0c-5,3 -9,9 -12,18 -3,10 -4,22 0,35 2,7 5,14 9,21 1,2 3,5 -2,7 -5,3 -6,0 -7,-2 -2,-4 -4,-8 -6,-12 -8,5 -15,12 -19,20 -4,8 -6,16 -3,23 0,0 0,1 0,1l0 0c3,5 9,11 21,11 0,0 1,0 2,0 13,0 33,-5 62,-20 -1,-2 -1,-5 -2,-8 -1,-8 1,-15 3,-22 2,-7 5,-13 8,-17z" class="fil11"/><path d="M3318 1155c-9,-1 -16,-4 -21,-8 -2,-1 -3,-3 -5,-4 -28,14 -48,20 -63,21 -20,53 -26,100 -20,140l0 0c4,30 15,55 29,76 6,8 12,15 19,21 4,0 4,2 5,4 9,8 20,13 31,18 18,7 39,10 60,7l0 0c6,-1 11,-2 16,-4 29,-9 47,-32 56,-62 9,-31 9,-70 4,-111 -4,-26 -9,-52 -17,-77 -6,14 -12,25 -18,34 -11,15 -24,22 -38,22 -3,0 -7,-1 -10,-2 -9,-4 -16,-14 -20,-28 -4,-13 -7,-28 -7,-45 0,0 0,0 0,0z" class="fil3"/><path d="M3501 1463c-9,-18 -20,-34 -32,-50 -11,-14 -23,-28 -36,-42 -10,31 -30,55 -62,65 -5,2 -11,3 -18,4 0,0 0,0 0,0l0 0c0,0 0,0 0,0 -23,3 -45,0 -65,-8 -9,-3 -17,-8 -25,-13 3,15 7,29 13,43 1,1 1,1 1,2 14,31 35,57 60,79 32,27 71,46 109,55 1,0 3,0 4,1 14,3 28,5 41,5 -3,-23 -4,-45 -2,-68 1,-24 5,-48 11,-72z" class="fil12"/><path d="M3440 1697c-3,-4 -6,-8 -10,-12 -5,-5 -11,-10 -17,-15 -7,-5 -11,-11 -14,-17 -3,-8 -4,-15 -1,-23 2,-7 8,-13 15,-19 4,-3 9,-6 14,-8 -34,-11 -68,-28 -96,-53 -25,-21 -46,-47 -60,-76 -11,14 -20,31 -27,48 -7,17 -12,34 -11,47 1,15 6,31 18,48 12,18 32,37 63,57 4,3 1,11 -4,10 -1,0 -1,0 -2,-1 -15,-2 -27,-2 -37,1 -11,3 -19,8 -25,14 -6,6 -9,14 -11,21l0 0c-1,5 -1,9 0,14 6,0 11,1 17,2 0,0 1,0 1,0 5,-13 14,-23 27,-29 14,-6 32,-7 57,-1 3,1 5,1 4,6 -1,5 -4,5 -6,4 -23,-5 -39,-5 -50,0 -9,4 -16,11 -20,21 30,6 66,20 102,39 15,1 28,-1 39,-3 12,-3 22,-8 29,-14 0,-22 2,-44 7,-62z" class="fil6"/><path d="M3363 1788c0,0 0,0 0,0 -2,0 -4,0 -5,-3 -39,-20 -77,-33 -108,-38 -21,-3 -40,-3 -54,1 -13,4 -22,12 -26,24 -3,9 -3,20 0,33 0,1 0,1 1,2 7,28 25,65 45,100 20,35 44,68 63,87 0,0 1,1 1,1 60,34 113,48 158,48 4,0 8,0 12,0 1,-1 2,-1 5,-1 1,0 2,0 2,0 34,-3 64,-14 89,-31 30,-20 53,-47 70,-77 24,-42 36,-91 36,-132 0,-44 -15,-84 -37,-113 -5,-7 -11,-13 -16,-18 -2,-1 -3,-2 -3,-3 -20,-18 -43,-28 -66,-27 -90,2 -86,89 -83,169 0,6 0,12 1,18 1,1 1,2 0,5 1,33 0,63 -8,84 -1,3 -2,5 -7,3 -5,-2 -4,-5 -3,-7 8,-20 8,-48 8,-80 -24,-18 -49,-33 -73,-46z" class="fil3"/><path d="M3694 1485c-1,10 -5,21 -9,34 50,4 80,-15 99,-43 20,-29 28,-69 34,-103 13,-71 37,-113 74,-127 -8,2 -17,5 -25,10 -15,9 -29,22 -41,40 -16,24 -27,55 -30,94 -2,29 -15,52 -33,68 -19,17 -45,27 -69,27z" class="fil6"/><path d="M3638 1617c-1,1 -2,2 -4,1 -7,3 -12,7 -16,11 -7,9 -10,21 -12,34 6,6 12,12 17,19 24,31 40,73 39,120 0,43 -13,93 -38,137 -18,31 -42,59 -72,80 8,7 16,12 25,15 12,5 25,7 36,6 37,-1 85,-31 121,-81 29,-41 49,-95 48,-158 -1,-47 -14,-96 -37,-133 0,0 0,0 0,0 -1,-1 -2,-3 -3,-4 -21,-32 -51,-52 -86,-52 -7,0 -14,1 -19,3z" class="fil3"/><path d="M2394 1724c1,23 1,42 5,48 4,7 17,16 32,27 34,25 80,58 83,106 2,20 -1,42 -7,63l52 76c21,11 40,25 53,41 14,19 25,39 34,63 8,24 15,52 20,86 2,6 4,13 5,19 59,96 108,204 148,319 129,36 267,10 390,-74 90,-62 171,-155 234,-279 -66,-5 -130,-34 -187,-83 -55,-48 -101,-114 -133,-193 -19,47 -38,90 -60,130 -41,74 -89,133 -148,167 -13,13 -22,30 -26,53 -4,24 -1,56 10,97 1,3 1,5 -4,7 -5,1 -6,-1 -7,-4 -12,-43 -15,-76 -11,-102 3,-17 8,-31 15,-42 -21,11 -38,26 -51,45 -17,25 -26,57 -28,96 0,3 0,5 -6,5 -5,0 -5,-3 -5,-6 2,-41 12,-75 29,-101 16,-24 38,-42 66,-54 -115,-76 -218,-215 -325,-361 -26,-35 -52,-71 -80,-108 -29,-38 -68,-65 -100,-41 -1,0 -1,1 -2,1z" class="fil7"/><path d="M3166 1828c-11,34 -23,67 -35,99 31,82 79,151 134,200 56,49 120,78 185,81 15,-30 28,-62 41,-95 -17,2 -34,1 -51,-2 -1,1 -3,1 -5,-1 0,0 0,0 -1,0 -16,-3 -32,-9 -48,-17 -38,-18 -75,-48 -112,-89 0,0 0,0 0,0 -20,-20 -45,-54 -67,-90 -17,-29 -32,-60 -41,-86z" class="fil3"/><path d="M3461 2053c-1,0 -2,0 -2,0 -1,8 -3,16 -5,25 -2,8 -5,15 -9,23 16,2 32,3 47,1 -2,-8 -11,-20 -19,-32l0 0c-4,-5 -8,-11 -12,-16z" class="fil2"/><path d="M3756 1666c23,38 37,88 38,136 1,66 -20,122 -50,165 -4,6 -9,12 -14,18 5,2 10,2 15,3 18,0 37,-8 56,-24 19,-16 37,-38 51,-66 5,-11 10,-22 14,-35 0,-1 0,-2 1,-2 8,-24 12,-50 12,-77 0,-40 -11,-81 -29,-111 -17,-29 -39,-48 -63,-47 -8,0 -16,4 -21,11 -6,7 -10,18 -11,30z" class="fil3"/><path d="M3882 1720c6,20 9,42 8,64 0,25 -4,49 -10,72 28,-12 45,-35 53,-59 5,-14 6,-28 5,-42 -1,-13 -4,-25 -10,-34 -6,-10 -15,-16 -26,-16 -5,0 -9,1 -13,4 -4,3 -7,7 -9,11z" class="fil3"/><path d="M3400 884c-4,-5 -8,-10 -13,-14 -1,0 -2,-1 -3,-2 -2,-2 -5,-3 -7,-5 -6,-3 -12,-5 -19,-7 4,4 8,8 12,12 2,2 4,4 0,8 -4,4 -6,2 -8,0 -4,-4 -8,-9 -12,-12 -4,-4 -8,-7 -13,-10 0,0 0,0 0,0 -40,-26 -76,-33 -105,-30 -12,1 -22,4 -30,9 6,7 12,14 18,21 2,2 3,4 -1,8 -4,3 -6,1 -8,-1 -6,-8 -12,-15 -19,-22 -4,3 -7,7 -10,10 -1,1 -1,2 -2,3 8,4 15,9 21,15 2,2 4,3 1,8 -3,4 -6,2 -8,1 -5,-4 -11,-8 -17,-12 0,2 0,3 0,5 0,0 0,0 0,0 0,7 1,14 2,19 3,14 10,25 19,31 7,5 16,8 26,8 2,-1 3,0 4,0 1,0 3,0 4,0 5,0 10,-1 15,-2 -2,-6 -3,-11 -4,-17 0,-3 0,-5 5,-6 0,0 1,0 1,0 -6,-4 -13,-11 -18,-20 -6,-10 -10,-22 -9,-31 2,-13 13,-19 27,-20 5,0 11,0 17,1 6,1 12,3 17,5 15,6 26,16 24,28 -1,9 -10,18 -20,26 -12,9 -26,15 -34,13 0,0 0,0 -1,0 1,1 1,2 1,4 0,12 6,24 16,34 7,7 15,13 25,18 0,0 1,0 1,1 3,1 5,2 8,3 13,5 29,8 44,8 21,-1 44,-8 63,-25 -3,-4 -6,-7 -8,-11 -25,-1 -49,0 -68,3 -3,0 -5,1 -6,-5 -1,-5 2,-6 5,-6 18,-2 40,-3 63,-3 -2,-6 -4,-12 -4,-17 0,-2 0,-5 0,-7 -28,5 -51,14 -72,25 -2,1 -5,3 -7,-2 -3,-5 0,-6 2,-7 22,-13 49,-22 80,-27 0,-1 1,-2 1,-3z" class="fil12"/><path d="M3254 934c-6,1 -12,2 -17,2 6,8 15,16 22,23 13,12 25,22 25,35 0,3 0,7 -1,11 -1,8 -2,20 -1,31 1,1 2,3 1,5 3,22 14,43 49,48 0,0 0,0 1,0 1,0 2,0 3,0 19,0 52,-12 85,-34 0,0 1,-1 1,-1 1,-1 2,-2 3,-2 25,-17 50,-40 67,-66 -25,-6 -44,-14 -58,-23 -3,-2 -7,-4 -9,-7 -2,18 -10,37 -20,52 0,1 -1,2 -2,2 -1,2 -3,4 -4,6 -16,21 -37,36 -56,35 -40,-1 -41,-33 -42,-53 0,-1 0,-2 0,-4 0,-3 -3,-8 -5,-13 -3,-5 -5,-11 -6,-16 -10,-5 -18,-12 -25,-19 -4,-4 -8,-9 -11,-14z" class="fil6"/><path d="M3260 812c3,0 7,1 11,2 -1,-15 1,-28 4,-38 6,-14 15,-23 25,-23 2,0 3,0 5,1 3,1 7,4 10,8 2,4 4,8 5,14 9,-15 15,-28 19,-39 4,-11 5,-20 4,-27 -1,-6 -3,-10 -6,-11l0 0c-2,-1 -4,-1 -6,-1 -15,0 -30,13 -39,24 -13,16 -24,39 -29,62 -1,9 -2,19 -3,29z" class="fil3"/><path d="M3282 816c3,1 5,1 8,2 6,-8 12,-15 17,-23 3,-7 3,-13 3,-18 0,-2 -1,-4 -1,-6 0,1 0,2 0,4 0,4 -1,7 -4,9 -2,3 -5,4 -9,4 -4,0 -7,-2 -9,-4 -1,-1 -2,-2 -2,-4 -3,9 -5,21 -3,35z" class="fil3"/><path d="M3301 822c13,5 27,12 41,21 0,0 1,0 1,0 3,0 6,0 9,1 -1,-7 -2,-15 -2,-22 0,-26 9,-49 20,-65 8,-11 18,-20 28,-25 -15,-10 -28,-23 -26,-64 0,-3 0,-5 6,-5 5,0 5,3 5,6 -2,41 13,50 27,58 0,0 1,0 1,1 2,0 4,-1 5,-1 -3,-5 -6,-12 -7,-18 -2,-11 -1,-24 4,-37 1,-3 2,-5 7,-3 5,2 4,4 3,7 -4,11 -5,22 -3,31 2,10 6,18 13,23 2,1 5,2 7,4 6,4 12,10 16,18 4,8 6,17 6,29 0,17 -6,39 -20,66 18,-9 44,-17 78,-21 3,0 5,-1 6,5 1,5 -2,6 -5,6 -40,5 -67,14 -84,25 -3,2 -5,4 -8,5 -1,1 -1,2 -2,2 -1,0 -1,1 -2,1 -1,1 -1,2 -2,2 -4,4 -7,7 -9,11 0,0 0,1 0,1 2,0 5,-1 7,-1 39,-5 85,-5 136,1 3,0 5,1 5,6 -1,5 -3,5 -6,5 -51,-5 -95,-5 -134,-1 -5,1 -9,1 -14,2 -1,3 -1,6 -1,9 0,5 2,12 5,18 18,1 36,2 53,4 37,5 71,13 90,26 2,2 4,3 1,8 -3,4 -5,3 -7,1 -17,-12 -49,-20 -85,-24 -15,-2 -30,-3 -44,-4 2,2 4,4 6,7 1,0 1,1 1,1 4,4 9,8 15,12 14,9 33,17 59,22 1,0 2,0 3,1 8,2 16,3 25,4 3,0 5,1 5,6 -1,5 -3,5 -6,5 -8,-1 -16,-2 -23,-3 -16,25 -37,47 -60,64 13,3 22,11 23,22l0 0c0,0 0,0 0,0 0,1 0,1 0,1 0,12 -5,27 -14,40 -8,11 -19,22 -32,28 -1,5 -3,9 -4,13 9,30 17,62 21,93 5,39 6,77 -2,108 15,16 29,31 42,48 10,13 19,27 27,41 2,-5 3,-11 5,-17 1,-3 2,-5 7,-4 5,2 4,4 4,7 -3,9 -6,19 -8,28 0,1 0,2 -1,3 -6,24 -10,47 -11,71 -2,32 0,64 8,96 6,-1 13,-2 21,-2 23,-1 47,9 68,25 2,-12 6,-24 13,-33 5,-6 12,-11 21,-15 2,-3 3,-7 5,-11l0 0c3,-5 5,-11 8,-16 10,-20 21,-42 28,-61 7,-19 12,-36 11,-48 -1,-20 -19,-43 -36,-65l0 0c-8,-10 -16,-21 -23,-31 -19,4 -46,2 -68,-13 -4,1 -8,2 -12,2 -12,0 -25,-4 -37,-12 -12,-8 -22,-19 -29,-33 -4,-9 -7,-19 -8,-30 -1,-19 10,-51 33,-77 13,-16 30,-30 51,-40 -5,0 -10,-1 -16,-1 -13,0 -26,1 -40,3 -3,0 -5,1 -6,-5 -1,-5 2,-6 5,-6 15,-2 29,-3 42,-3 13,0 26,1 38,4 5,1 5,9 0,10 -28,8 -50,25 -66,44 -21,25 -31,53 -30,70 0,9 3,18 7,26 6,12 15,22 25,29 10,7 21,11 31,10 1,0 1,0 2,0 -3,-3 -6,-7 -8,-10 -5,-7 -9,-14 -11,-21 -1,-3 -2,-5 3,-7 5,-2 6,1 7,4 2,6 5,12 9,18 4,6 9,11 13,15 0,0 0,0 0,0 0,0 0,0 0,0 20,15 46,17 63,13 1,0 1,0 2,-1 1,-1 2,-1 3,-1 2,-1 5,-2 6,-3 2,-2 3,-3 4,-5 0,-1 0,-3 -2,-5 -13,2 -29,1 -45,-7 -13,-7 -26,-18 -37,-36 -1,-2 -3,-5 2,-7 5,-3 6,0 7,2 10,16 21,26 33,32 14,7 29,8 40,5 12,-4 20,-10 23,-17l0 0c1,-2 2,-5 2,-7 0,-2 0,-4 -1,-7 -1,-4 -5,-8 -10,-11 -3,-2 -8,-2 -13,-1 -10,0 -21,0 -33,-8 -3,-2 -3,-6 0,-9 19,-16 43,-37 61,-59 18,-22 31,-46 31,-70 0,-3 -1,-6 -2,-9 -6,-17 -27,-38 -56,-54 -14,-8 -30,-15 -47,-20 -1,0 -2,0 -3,-1 -17,-5 -35,-8 -53,-8 -17,0 -35,3 -52,9 -3,1 -5,2 -7,-3 -2,-5 1,-6 3,-7 18,-7 37,-9 55,-10 19,0 39,3 57,8 36,-9 65,-25 86,-45l0 0c20,-20 32,-44 33,-70 -4,-3 -8,-7 -11,-11 -7,-11 -12,-26 -11,-48 0,-19 12,-38 30,-54 18,-16 42,-28 68,-34 25,-5 51,-5 73,3 12,4 22,11 31,20 -4,-11 -12,-21 -24,-31 -14,-11 -31,-20 -52,-25 -20,-5 -43,-6 -66,0 -25,6 -51,20 -75,46 0,2 -1,3 -3,3 -2,2 -4,4 -5,6 -2,2 -3,4 -8,1 -4,-3 -2,-6 -1,-8 2,-3 4,-5 6,-7 1,-19 -15,-48 -49,-71 -25,-17 -59,-30 -102,-35 3,6 6,12 7,19 2,11 2,25 -2,40 -1,5 -10,5 -11,0 -3,-16 -6,-31 -11,-41 -4,-10 -10,-17 -16,-20 -5,-2 -11,-2 -17,0 -8,2 -17,7 -26,14 -4,3 -10,-1 -8,-6 1,-3 5,-9 10,-14 3,-3 7,-7 10,-10 -14,-6 -24,-12 -32,-17 -9,-6 -16,-12 -22,-19 -36,2 -67,13 -90,36 3,3 7,7 11,10 5,-2 9,-2 14,-2 4,0 7,1 11,3l0 0c7,4 11,10 12,20 1,8 -1,19 -5,31 -6,17 -16,38 -32,61 0,1 -1,1 -1,2 -4,6 -9,13 -14,19z" class="fil6"/><path d="M3362 846c6,2 12,4 17,7 0,-3 -1,-6 -1,-9 0,-11 3,-21 7,-28 5,-8 11,-13 16,-15 2,-1 4,-1 5,-1 3,0 7,1 11,3 4,2 8,6 11,11 3,5 5,11 5,19 11,-21 15,-38 15,-52 0,-10 -2,-18 -5,-24 -3,-6 -7,-11 -12,-14 -1,-1 -3,-2 -5,-3 -1,0 -1,0 -2,-1 -3,-1 -6,-2 -9,-2 -2,0 -3,0 -5,1 0,0 0,0 0,0 -1,1 -2,1 -3,1 -10,3 -21,12 -30,25 -10,15 -18,35 -18,59 0,8 1,16 2,24z" class="fil3"/><path d="M3393 861c5,4 9,8 13,13 2,-3 5,-7 9,-10 7,-12 10,-22 10,-30 0,-6 -1,-10 -3,-14 -2,-3 -5,-6 -7,-7 -2,-1 -4,-2 -6,-2 0,0 0,0 -1,0 3,1 5,2 7,4 2,2 4,6 4,9 0,4 -1,7 -4,9 -2,3 -5,4 -9,4 -4,0 -7,-2 -9,-4 -1,-2 -3,-4 -3,-6 -2,5 -3,11 -3,17 0,5 1,11 3,17z" class="fil3"/><path d="M3299 686c-4,5 -8,10 -11,15 2,0 5,0 7,0 4,-3 7,-6 11,-8 -3,-2 -5,-5 -7,-7z" class="fil2"/><path d="M3282 711c-2,3 -3,6 -4,9 2,-2 3,-5 5,-7 1,-1 1,-1 2,-2 -1,0 -2,0 -3,0z" class="fil2"/><path d="M3401 631c2,0 3,1 3,4 6,6 12,12 20,17 6,4 13,8 23,12 43,21 64,20 92,21 17,1 32,2 46,4 23,3 42,9 58,18 16,9 28,19 38,30 9,10 17,21 25,32 14,-8 28,-14 42,-18 6,-1 11,-2 17,-3 -4,-12 -10,-22 -18,-32 -1,-1 -2,-3 -4,-4 -1,-1 -2,-2 -2,-2 -10,-10 -22,-19 -35,-26 -32,-18 -87,-20 -138,-22 -42,-2 -81,-4 -105,-13 -28,-11 -46,-25 -59,-39 -21,-23 -25,-46 -25,-55 0,-3 1,-9 3,-15 2,-4 5,-8 9,-11 4,-3 9,-5 16,-5 6,0 14,2 23,6 3,-4 5,-8 8,-12 -4,-5 -9,-8 -15,-11 -8,-4 -17,-6 -23,-6 -15,1 -24,7 -29,14 -5,8 -7,18 -8,26 -2,15 1,29 7,44 6,16 16,31 29,46z" class="fil7"/><path d="M3425 541c-7,-3 -13,-4 -17,-4 -4,0 -8,1 -10,3 -2,2 -4,4 -5,6 -2,4 -2,8 -2,10 0,6 2,20 13,36 6,-19 13,-36 22,-51z" class="fil7"/><path d="M3412 602c0,0 1,1 1,1 12,13 29,26 55,36 22,9 61,11 102,13 53,2 109,5 143,24 12,7 24,15 34,25 2,-3 5,-7 7,-10 -35,-40 -77,-78 -126,-108 -50,-29 -109,-50 -179,-56 -14,20 -26,45 -35,75z" class="fil3"/><path d="M3758 680c9,-17 14,-35 16,-53 2,-23 -2,-47 -11,-68 -10,-22 -26,-42 -48,-58 -32,-24 -78,-42 -136,-47 -27,-3 -67,9 -102,40 -8,7 -15,15 -22,24 69,7 127,27 177,57 50,29 91,67 127,107z" class="fil7"/><path d="M3498 694c0,0 0,0 0,0 0,0 0,0 0,0 0,0 0,0 0,0z" class="fil2"/><path d="M3721 948c-3,26 -15,50 -34,70 20,14 44,20 68,20 27,0 53,-9 77,-25 23,-16 43,-39 55,-68 12,-28 16,-62 10,-100 -9,-18 -23,-29 -41,-36 -20,-8 -44,-8 -67,-3 -24,5 -47,17 -64,32 -16,14 -26,30 -26,46 0,19 3,32 9,41 3,4 6,7 10,10 1,0 2,1 2,1 2,1 5,2 7,3 8,2 16,2 25,-1 13,-4 26,-12 35,-24 2,-2 3,-4 8,-1 4,3 3,5 1,8 -10,13 -25,23 -40,28 -10,3 -21,3 -30,1 -1,0 -3,-1 -4,-1z" class="fil13"/><path d="M721 752c53,17 106,39 156,67 110,-121 233,-125 368,-129 17,-1 35,-1 53,-2 1,0 2,0 3,0 1,0 2,0 3,0 240,-12 348,-119 370,-191 0,-1 0,-2 1,-2 3,-10 4,-20 4,-28 0,-2 0,-4 -1,-6 -2,-14 -7,-35 -24,-50 -17,-15 -46,-23 -96,-12 3,8 5,17 8,25 15,-2 29,-1 40,3 13,5 22,14 24,26 4,21 -3,48 -27,75 -19,21 -47,42 -87,58 -31,12 -70,20 -115,26 -10,1 -20,2 -30,3 -1,1 -3,1 -4,0 -37,3 -77,4 -120,4 -72,0 -132,-6 -183,-11 -64,-6 -114,-11 -160,-3 -35,6 -68,20 -99,44 -24,18 -46,43 -67,76 0,1 -1,2 -1,2 -5,8 -10,17 -15,26z" class="fil7"/><path d="M1687 488c27,-12 53,-21 77,-26 28,-6 54,-7 74,-3 5,1 6,8 1,10 -43,19 -82,38 -117,58 -27,15 -52,31 -76,46 32,-5 64,-5 96,0 39,6 79,19 117,40 10,-4 22,-6 35,-5 5,0 9,1 14,2 6,-35 8,-68 6,-99 -2,-32 -8,-62 -18,-92 -1,-3 -4,-11 -6,-17 -33,-96 -68,-198 -16,-305 -52,1 -100,20 -144,64 -46,45 -89,117 -128,222 27,0 46,8 59,19 20,17 26,41 28,56 0,2 1,5 1,7 0,7 0,14 -2,23z" class="fil2"/><path d="M644 549c107,23 251,0 396,-49 165,-56 332,-144 448,-236 -26,-49 -54,-91 -85,-126 -69,-79 -148,-120 -226,-122 -124,-3 -273,57 -385,147 -102,82 -173,188 -168,295 1,29 8,59 20,91z" class="fil7"/><path d="M1494 274c-117,92 -284,181 -450,237 -144,49 -287,72 -395,50 3,7 5,13 9,20 19,42 44,86 74,132 21,-32 43,-56 66,-74 33,-25 67,-39 104,-46 47,-9 98,-4 163,3 51,5 110,11 182,11 44,0 84,-1 121,-4 44,-24 86,-49 121,-74 34,-24 60,-48 77,-72 -20,-69 -44,-131 -70,-184z" class="fil8"/><path d="M1393 601c2,0 4,0 5,-1 45,-5 82,-13 112,-25 39,-15 66,-35 83,-55 21,-24 28,-48 24,-66 -2,-8 -8,-15 -17,-18 -9,-3 -20,-4 -33,-3 2,8 5,15 7,23 0,1 0,4 -1,4 -17,25 -45,51 -81,76 -29,21 -64,42 -100,63z" class="fil7"/><path d="M1749 1251c12,0 22,9 22,21 0,11 -10,21 -22,21 -12,0 -22,-9 -22,-21 0,-11 10,-21 22,-21z" class="fil14"/><path d="M2059 1105c12,0 22,9 22,21 0,11 -10,21 -22,21 -12,0 -22,-9 -22,-21 0,-11 10,-21 22,-21z" class="fil14"/><path d="M2056 1332c40,-23 80,-28 90,-11 9,16 -16,48 -56,71 -40,23 -80,28 -90,11 -9,-16 16,-48 56,-71z" class="fil14"/><path d="M3300 1304c7,0 14,3 19,7 5,5 8,11 8,18 0,7 -3,14 -8,18 -5,4 -12,7 -19,7 -7,0 -14,-3 -19,-7 -5,-5 -8,-11 -8,-18 0,-7 3,-14 8,-18 5,-5 12,-7 19,-7z" class="fil0"/><path d="M3294 1196c7,0 14,3 19,7 5,5 8,11 8,18 0,7 -3,14 -8,18 -5,5 -12,7 -19,7 -7,0 -14,-3 -19,-7 -5,-5 -8,-11 -8,-18 0,-7 3,-14 8,-18 5,-5 12,-7 19,-7z" class="fil0"/><path d="M3300 1314c-5,0 -9,2 -12,4 -3,3 -5,6 -5,10 0,4 2,8 5,10 3,3 7,4 12,4 5,0 9,-2 12,-4 3,-3 5,-6 5,-10 0,-4 -2,-8 -5,-10 -3,-3 -7,-4 -12,-4z" class="fil5"/><path d="M3294 1207c-5,0 -9,2 -12,4 -3,3 -5,6 -5,10 0,4 2,8 5,10 3,3 7,4 12,4 5,0 9,-2 12,-4 3,-3 5,-6 5,-10 0,-4 -2,-8 -5,-10 -3,-3 -7,-4 -12,-4z" class="fil5"/></g></svg>