<svg xmlns="http://www.w3.org/2000/svg" xmlns:xlink="http://www.w3.org/1999/xlink" width="80" height="80" version="1.1" viewBox="0 0 7306 6847" xml:space="preserve" style="shape-rendering:geometricPrecision;text-rendering:geometricPrecision;image-rendering:optimizeQuality;fill-rule:evenodd;clip-rule:evenodd"><defs><style type="text/css">.fil3{fill:#b25d28}.fil0,.fil3{fill-rule:nonzero}.fil1{fill:#e7a3ae}.fil1,.fil2{fill-rule:nonzero}.fil0{fill:#000}.fil2{fill:#fff}</style></defs><g id="Layer_x0020_1"><metadata id="CorelCorpID_0Corel-Layer"/><path d="M5536 470c-27,-27 -60,-38 -103,-27 -98,33 -222,87 -369,168l-282 146c-266,-206 -548,-315 -851,-320 -304,-5 -548,49 -737,157 -407,-277 -797,-456 -1160,-542l-683 -54c-304,0 -602,43 -895,141 -81,38 -108,81 -70,136 130,130 358,201 672,206 315,11 591,-5 835,-54l168 -27c98,0 244,27 439,76 201,54 363,130 493,244 -152,103 -266,255 -342,455l-33 119c-54,33 -146,60 -277,81 76,22 157,16 244,0 -98,125 -163,315 -195,575l-325 211c-206,141 -401,358 -596,651 -125,16 -233,49 -336,103 -65,65 -76,125 -33,184l-260 60c-157,49 -277,146 -352,298l-488 16 466 22c-22,22 -11,114 33,277 -16,-16 -125,71 -325,255 49,-43 168,-119 347,-217 239,206 488,277 759,217 266,-65 434,-125 499,-174 130,114 277,184 439,206l152 -49c174,222 369,352 586,374 222,27 407,5 559,-65 81,174 119,293 119,363 11,-136 -11,-266 -76,-380l136 -81c103,152 163,260 179,309 -114,163 -184,336 -206,531 -136,-65 -260,-60 -385,22 -11,0 -27,43 -27,125 0,87 98,222 298,407 -184,5 -363,38 -548,98 5,-11 -11,-49 -49,-98 -87,-60 -146,-43 -190,43 -5,54 11,103 65,136 -163,81 -201,146 -119,195 38,38 108,22 211,-43 27,92 76,119 141,81 54,-38 70,-98 43,-179l694 -22c81,92 190,163 336,217l-11 108c-103,-38 -163,-16 -179,54 -27,60 16,98 119,119 -81,146 -87,222 -16,233 54,38 98,0 136,-119 11,33 60,38 141,22 71,-54 43,-125 -71,-211l43 -152c38,22 125,43 266,70l-5 33c-92,-27 -146,-16 -152,43 -5,76 22,125 87,146 -54,22 -76,92 -49,206 22,27 49,38 76,38 65,-11 108,-60 125,-141l157 0c70,-54 38,-130 -98,-233l33 -76 515 -16c217,-33 407,-98 575,-190 -136,136 -271,282 -401,434l-5 -5c-146,-38 -228,-11 -239,76 -16,49 22,92 114,119 -103,141 -87,222 38,244 87,-16 141,-65 168,-152 27,33 65,54 103,54 108,-22 108,-103 5,-239 157,-190 363,-418 618,-678 114,-76 201,-260 266,-553l325 -27 217 277c22,-108 27,-217 27,-325l244 22c-22,-60 -136,-168 -331,-331 33,-87 60,-184 87,-282 -163,98 -255,174 -298,239l-228 54c81,-1106 -206,-1844 -851,-2202 -11,-260 -119,-472 -325,-634 27,-114 16,-271 -22,-483 -38,-206 -168,-434 -390,-683l282 -130c114,-49 179,-65 206,-43 212,304 499,521 846,645 125,38 249,54 374,38 136,-16 255,-70 352,-163l54 -87c16,-49 -5,-92 -70,-119 -472,-76 -824,-179 -1063,-314 -233,-130 -369,-222 -396,-260zm-244 1567l-352 -16 396 130c168,136 266,336 293,607 71,33 174,114 315,244 -43,130 -38,211 22,249 60,43 114,49 163,38l98 206c-98,-5 -168,22 -206,87 -49,168 -5,309 130,434 76,76 168,130 277,163 43,277 54,553 33,840 -5,282 -87,531 -255,737 -146,152 -298,309 -439,483l-228 277c70,33 103,76 98,130 -16,54 -60,43 -136,-38 -70,130 -125,190 -163,179 -33,-16 -49,-38 -43,-65 11,-65 38,-114 92,-163 -70,16 -119,-5 -136,-71 16,-70 76,-76 184,-16l38 -38 477 -504c-358,-81 -537,-206 -531,-380 54,-92 163,-114 320,-71 157,49 244,76 266,92 -60,-60 -157,-108 -298,-157 -146,-43 -260,-22 -342,81 -43,222 98,374 423,445 -217,119 -559,179 -1025,179 98,-222 136,-472 125,-748 -65,363 -141,667 -228,911 49,11 87,43 114,92 11,33 5,60 -22,81 -16,22 -60,16 -125,-22 -27,92 -65,141 -119,141 -65,-11 -49,-76 49,-195 -49,-11 -81,-43 -98,-98 -5,-54 38,-60 136,-27 60,-190 108,-380 152,-575 11,-168 11,-249 -11,-249 -49,309 -98,531 -146,672 -92,-16 -184,-38 -277,-70 49,-201 43,-396 -16,-575 11,282 -16,553 -92,808 49,16 81,43 103,92 0,81 -43,87 -130,11 -11,60 -38,103 -76,136 -60,38 -54,-33 11,-206 -49,0 -87,-16 -114,-54 60,-76 119,-87 168,-33 71,-293 76,-575 16,-846 11,119 0,320 -38,602 -146,-38 -271,-152 -363,-336 -103,-331 -60,-678 136,-1036l54 54c-33,-136 -103,-293 -211,-483 130,-141 157,-271 81,-380 33,22 201,-54 510,-217 304,-163 575,-542 808,-1128 -38,71 -190,271 -445,607 -293,369 -629,569 -1025,607 114,146 130,271 60,374 -76,103 -152,168 -233,195 -27,-49 -54,-65 -87,-60 -11,27 5,54 33,81 -54,38 -190,60 -407,54 -212,0 -418,-108 -607,-320 60,-38 130,-71 195,-108 271,-152 499,-347 694,-580 38,-54 43,-108 5,-163 -228,-157 -521,-260 -868,-309 -352,-54 -651,-60 -906,-27 222,-309 493,-564 819,-765 0,277 114,434 347,483 -16,38 -108,27 -282,-22 5,27 54,60 146,92 92,38 222,-5 396,-136l81 -87c125,-119 217,-271 260,-445 98,-293 54,-564 -108,-819l43 -54c-54,-33 -98,-87 -125,-157 -98,163 -244,282 -439,369 92,-293 277,-504 569,-629 212,-103 456,-136 727,-108 266,27 499,119 700,271 -49,22 -87,54 -125,92 -5,43 0,81 33,108 81,16 174,-5 271,-60 255,320 390,575 407,765 22,184 22,298 5,342zm683 -1215c255,141 569,228 949,260 49,11 76,27 76,60 -168,60 -385,49 -656,-38 -266,-87 -526,-260 -775,-531 27,27 163,108 407,249zm249 2820c27,0 49,5 65,22l54 141c-114,-27 -168,-76 -157,-141 11,-16 22,-22 38,-22zm315 1339l277 -92c27,-33 81,-92 174,-179l-76 195c108,76 206,163 304,266l-211 -11 5 260 -157 -228 -222 11c-43,-65 -81,-141 -92,-222zm-2874 455c16,136 49,244 108,331 -163,-16 -314,-16 -466,5l-255 43c33,114 22,174 -22,168 -49,11 -81,-27 -98,-108 -81,70 -146,92 -195,65 -27,-49 27,-87 174,-125 -65,-33 -92,-87 -81,-146 43,-60 92,-22 152,98l678 -114c-222,-228 -336,-396 -331,-499 33,-76 141,-87 325,-33 -5,76 0,184 11,315zm-2397 -5162c-179,16 -418,-16 -721,-103l466 -87c287,-43 645,-33 1068,43 -228,65 -499,114 -813,146zm-157 2879l195 266c119,146 255,277 418,396 -374,146 -651,184 -840,108 -195,-71 -287,-119 -293,-141 54,-16 87,-38 98,-70 -33,-16 -70,-11 -119,16 -43,-60 -49,-130 -27,-206 65,27 108,38 136,27 43,-11 5,-43 -119,-87 0,-92 184,-195 553,-309zm49 -179l33 -27c542,-130 1079,-125 1605,27 92,22 195,60 314,114 114,49 179,98 179,141 -390,130 -765,174 -1122,119 -358,-54 -553,-92 -575,-108 249,38 466,43 640,11 174,-38 266,-60 271,-71 -277,-5 -727,-76 -1345,-206zm2006 -1838l38 49c174,352 146,694 -76,1025 -70,98 -163,168 -271,201l-33 16c11,-33 22,-76 22,-130 0,-119 -33,-190 -98,-201 -65,11 -103,76 -108,195l11 108 -27 -16c-146,-130 -201,-298 -157,-515 54,-233 119,-396 190,-488 141,-16 309,-98 510,-244zm-352 1074c-5,43 -16,65 -33,60 -33,-11 -43,-33 -38,-60 -5,-38 11,-65 33,-70 27,0 38,27 38,70z" class="fil0"/><path d="M4940 2021l352 16c16,-43 16,-157 -5,-342 -16,-190 -152,-445 -407,-765 -98,54 -190,76 -271,60 -33,-27 -38,-65 -33,-108 38,-38 76,-70 125,-92 -201,-152 -434,-244 -700,-271 -271,-27 -515,5 -727,108 -293,125 -477,336 -569,629 195,-87 342,-206 439,-369 27,70 71,125 125,157l-43 54c163,255 206,526 108,819 -43,173 -136,325 -260,445l-81 87c-174,130 -304,174 -396,136 -92,-33 -141,-65 -146,-92 174,49 266,60 282,22 -233,-49 -347,-206 -347,-483 -325,201 -596,455 -819,765 255,-33 553,-27 906,27 347,49 640,152 868,309 38,54 33,108 -5,163 -195,233 -423,428 -694,580 -65,38 -136,70 -195,108 190,211 396,320 607,320 217,5 352,-16 407,-54 -27,-27 -43,-54 -33,-81 33,-5 60,11 87,60 81,-27 157,-92 233,-195 70,-103 54,-228 -60,-374 396,-38 732,-239 1025,-607 255,-336 407,-537 445,-607 -76,-38 -195,-54 -342,-49 33,-43 108,-65 228,-70 125,0 217,54 271,168 33,81 33,163 16,233 -27,-33 -43,-65 -49,-103 0,-81 -38,-141 -125,-179 -233,586 -504,965 -808,1128 -309,163 -477,239 -510,217 76,108 49,239 -81,380 108,190 179,347 211,483l-54 -54c-195,358 -239,705 -136,1036 92,184 217,298 363,336 38,-282 49,-483 38,-602 60,271 54,553 -16,846 -49,-54 -108,-43 -168,33 27,38 65,54 114,54 -65,174 -70,244 -11,206 38,-33 65,-76 76,-136 87,76 130,70 130,-11 -22,-49 -54,-76 -103,-92 76,-255 103,-526 92,-808 60,179 65,374 16,575 92,33 184,54 277,70 49,-141 98,-363 146,-672 22,0 22,81 11,249 -43,195 -92,385 -152,575 -98,-33 -141,-27 -136,27 16,54 49,87 98,98 -98,119 -114,184 -49,195 54,0 92,-49 119,-141 65,38 108,43 125,22 27,-22 33,-49 22,-81 -27,-49 -65,-81 -114,-92 87,-244 163,-548 228,-911 11,277 -27,526 -125,748 466,0 808,-60 1025,-179 -325,-70 -466,-222 -423,-445 81,-103 195,-125 342,-81 141,49 239,98 298,157 -22,-16 -108,-43 -266,-92 -157,-43 -266,-22 -320,71 -5,174 174,298 531,380l-477 504 -38 38c-108,-60 -168,-54 -184,16 16,65 65,87 136,71 -54,49 -81,98 -92,163 -5,27 11,49 43,65 38,11 92,-49 163,-179 76,81 119,92 136,38 5,-54 -27,-98 -98,-130l228 -277c141,-174 293,-331 439,-483 168,-206 249,-455 255,-737 22,-287 11,-564 -33,-840 -108,-33 -201,-87 -277,-163 -136,-125 -179,-266 -130,-434 38,-65 108,-92 206,-87l-98 -206c-49,11 -103,5 -163,-38 -60,-38 -65,-119 -22,-249 -141,-130 -244,-211 -315,-244 -27,-271 -125,-472 -293,-607l-396 -130zm-575 -662l314 33 0 0 -190 43c136,504 54,889 -255,1155 -136,98 -266,114 -385,54 60,87 146,136 249,136l190 -27c-11,27 -76,54 -206,76 -125,22 -244,-60 -352,-249 -43,-71 -81,-152 -119,-239 -92,-277 -87,-542 16,-813 49,-119 130,-228 244,-325 -60,-65 -103,-136 -136,-211 65,-22 125,-54 174,-98 114,277 266,428 455,466zm-938 2662c-11,38 -27,54 -54,49 -22,-5 -38,-22 -33,-60 11,-33 22,-49 49,-49 27,5 38,27 38,60zm-217 -249c11,-33 27,-49 49,-49 22,5 38,27 38,60 -11,38 -27,54 -54,49 -22,-5 -33,-22 -33,-60zm-174 255c27,5 43,27 38,60 -11,38 -22,54 -49,49 -27,-5 -38,-22 -33,-60 5,-33 22,-49 43,-49z" class="fil1"/><path d="M4680 1392l-314 -33c-190,-38 -342,-190 -455,-466 -49,43 -108,76 -174,98 33,76 76,146 136,211 -114,98 -195,206 -244,325 -103,271 -108,537 -16,813 38,87 76,168 119,239 108,190 228,271 352,249 130,-22 195,-49 206,-76l-190 27c-103,0 -190,-49 -249,-136 119,60 249,43 385,-54 309,-266 390,-651 255,-1155l190 -43 0 0zm-759 -152c11,60 179,130 510,206 92,266 92,504 11,710 -87,211 -184,347 -304,407l-146 22c16,-33 27,-81 27,-141 0,-125 -33,-190 -98,-206 -65,11 -103,76 -108,201l11 92c-27,-22 -54,-49 -71,-81 -119,-174 -163,-380 -136,-607 33,-266 136,-466 304,-602zm27 1041c22,5 33,27 33,76 -5,38 -16,60 -33,60 -27,-11 -38,-33 -38,-65 0,-38 11,-60 38,-71z" class="fil0"/><path d="M4430 1446c-331,-76 -499,-146 -510,-206 -168,136 -271,336 -304,602 -27,228 16,434 136,607 16,33 43,60 71,81l-11 -92c5,-125 43,-190 108,-201 65,16 98,81 98,206 0,60 -11,108 -27,141l146 -22c119,-60 217,-195 304,-407 81,-206 81,-445 -11,-710z" class="fil2"/><path d="M3980 2357c0,-49 -11,-71 -33,-76 -27,11 -38,33 -38,71 0,33 11,54 38,65 16,0 27,-22 33,-60z" class="fil2"/><path d="M3373 4071c27,5 43,-11 54,-49 0,-33 -11,-54 -38,-60 -27,0 -38,16 -49,49 -5,38 11,54 33,60z" class="fil0"/><path d="M3259 3724c-22,0 -38,16 -49,49 0,38 11,54 33,60 27,5 43,-11 54,-49 0,-33 -16,-54 -38,-60z" class="fil0"/><path d="M3075 4087c5,-33 -11,-54 -38,-60 -22,0 -38,16 -43,49 -5,38 5,54 33,60 27,5 38,-11 49,-49z" class="fil0"/><path d="M4815 2395c146,-5 266,11 342,49 87,38 125,98 125,179 5,38 22,70 49,103 16,-70 16,-152 -16,-233 -54,-114 -146,-168 -271,-168 -119,5 -195,27 -228,70z" class="fil0"/><path d="M6924 1083c-380,-33 -694,-119 -949,-260 -244,-141 -380,-222 -407,-249 249,271 510,445 775,531 271,87 488,98 656,38 0,-33 -27,-49 -76,-60z" class="fil3"/><path d="M6290 3664c-16,-16 -38,-22 -65,-22 -16,0 -27,5 -38,22 -11,65 43,114 157,141l-54 -141z" class="fil2"/><path d="M6816 4890l-277 92c11,81 49,157 92,222l222 -11 157 228 -5 -260 211 11c-98,-103 -195,-190 -304,-266l76 -195c-92,87 -146,146 -174,179z" class="fil1"/><path d="M3774 5768c-60,-87 -92,-195 -108,-331 -11,-130 -16,-239 -11,-315 -184,-54 -293,-43 -325,33 -5,103 108,271 331,499l-678 114c-60,-119 -108,-157 -152,-98 -11,60 16,114 81,146 -146,38 -201,76 -174,125 49,27 114,5 195,-65 16,81 49,119 98,108 43,5 54,-54 22,-168l255 -43c152,-22 304,-22 466,-5z" class="fil1"/><path d="M548 172c304,87 542,119 721,103 314,-33 586,-81 813,-146 -423,-76 -781,-87 -1068,-43l-466 87z" class="fil3"/><path d="M1307 3420l-195 -266c-369,114 -553,217 -553,309 125,43 163,76 119,87 -27,11 -71,0 -136,-27 -22,76 -16,146 27,206 49,-27 87,-33 119,-16 -11,33 -43,54 -98,70 5,22 98,70 293,141 190,76 466,38 840,-108 -163,-119 -298,-249 -418,-396zm-374 168c5,-33 22,-49 49,-49 22,5 38,27 33,60 -5,38 -22,54 -49,49 -27,-5 -38,-22 -33,-60z" class="fil1"/><path d="M981 3540c-27,0 -43,16 -49,49 -5,38 5,54 33,60 27,5 43,-11 49,-49 5,-33 -11,-54 -33,-60z" class="fil0"/><path d="M1193 2948l-33 27c618,130 1068,201 1345,206 -5,11 -98,33 -271,71 -174,33 -390,27 -640,-11 22,16 217,54 575,108 358,54 732,11 1122,-119 0,-43 -65,-92 -179,-141 -119,-54 -222,-92 -314,-114 -526,-152 -1063,-157 -1605,-27z" class="fil3"/><path d="M3205 1186l-38 -49c-201,146 -369,228 -510,244 -71,92 -136,255 -190,488 -43,217 11,385 157,515l27 16 -11 -108c5,-119 43,-184 108,-195 65,11 98,81 98,201 0,54 -11,98 -22,130l33 -16c108,-33 201,-103 271,-201 222,-331 249,-672 76,-1025z" class="fil2"/><path d="M2782 2271c16,5 27,-16 33,-60 0,-43 -11,-70 -38,-70 -22,5 -38,33 -33,70 -5,27 5,49 38,60z" class="fil2"/></g></svg>