<svg xmlns="http://www.w3.org/2000/svg" xmlns:xlink="http://www.w3.org/1999/xlink" width="80" height="80" version="1.1" viewBox="0 0 7389 9917" xml:space="preserve" style="shape-rendering:geometricPrecision;text-rendering:geometricPrecision;image-rendering:optimizeQuality;fill-rule:evenodd;clip-rule:evenodd"><defs><style type="text/css">.str0{stroke:#ca2918;stroke-linecap:round;stroke-linejoin:round}.str0,.str1{stroke-width:27.7795}.str1,.str2{stroke-linecap:round;stroke-linejoin:round}.str1,.str2{stroke:#000}.str2{stroke-width:55.5551}.fil0{fill:none}.fil0,.fil3,.fil4,.fil5{fill-rule:nonzero}.fil5{fill:#625473}.fil4{fill:#89b2c7}.fil3{fill:#fbdac3}.fil1{fill-rule:nonzero}.fil2{fill:#ff8700}.fil2,.fil6{fill-rule:nonzero}.fil1{fill:#000}.fil6{fill:#fff}</style></defs><g id="Layer_x0020_1"><metadata id="CorelCorpID_0Corel-Layer"/><line x1="3902" x2="3774" y1="5136" y2="1446" class="fil0 str0"/><line x1="3582" x2="3649" y1="1646" y2="4901" class="fil0 str0"/><path d="M2231 7946l-29 67 -61 12 -253 497c-102,192 -235,355 -404,491 -52,38 -108,73 -169,99 -64,29 -122,67 -174,110l0 6 -17 0 -15 15c-6,58 23,87 93,87l1906 -76c-58,99 -125,189 -198,276 -102,110 -215,206 -343,288l-20 20 -3 0c-17,12 -23,29 -17,52l3 15 35 12 206 -3 3 3 2177 -119 151 -26 17 -9 15 0 12 -9 41 -267c9,-58 20,-116 38,-174 35,-87 81,-171 142,-247 44,-58 99,-73 166,-41l44 23c47,49 78,105 102,169 49,142 78,291 90,439l0 3 6 78c218,9 439,6 657,-12 20,0 35,-9 49,-17 23,3 41,-6 52,-32l-9 -610c0,-201 3,-389 9,-567l15 -509 -9 0c-3,-20 -15,-41 -26,-58 -44,-55 -99,-93 -169,-116 -131,-41 -267,-64 -410,-70l-511 -35c-157,3 -314,3 -474,9l-590 26 -596 47c-198,17 -395,38 -590,70 -195,35 -389,58 -584,76 -52,3 -102,12 -151,26 -58,17 -113,38 -163,67l-20 12 12 -93 -20 -9 -15 6zm2859 1755l-3 -6 3 0 0 6z" class="fil1"/><path d="M6930 2213c-87,-23 -174,-47 -259,-64l-99 -3 -55 -70c-198,-244 -416,-465 -660,-663l-346 -270c-212,-160 -436,-299 -671,-421l-253 -134c-250,-139 -459,-238 -636,-296 -174,-61 -389,-125 -648,-192 -259,-70 -535,-108 -831,-113l-2 0 -152 0c-237,7 -457,47 -660,119 -244,84 -418,221 -526,413 -105,189 -137,381 -90,575 44,195 128,337 253,427 125,93 203,145 238,154 -26,26 -46,58 -61,93 -113,247 -238,485 -372,721l-163 259 -23 55 -910 -87 -3 96c-1,10 -2,20 -2,29l0 203c15,230 83,453 203,671 81,145 157,259 224,340 -44,140 -90,296 -137,465 -49,171 -67,360 -52,572 15,209 131,439 352,683 206,212 439,430 697,654l154 134c328,276 692,564 1098,857l15 -3 32 -44 3688 -1781 32 -15 32 -29 15 3 46 -29 20 -846c241,76 416,-6 520,-244 99,-221 49,-404 -151,-543 -70,-49 -145,-78 -221,-90l-35 0 20 -38c49,-105 93,-209 131,-317l-6 -12 6 -12 -15 -32 -9 -15 -154 -17 0 -26c0,-337 20,-674 64,-1008l58 70 90 96c116,128 224,262 325,404 12,-78 -9,-151 -67,-221 -110,-134 -218,-270 -320,-410l-38 -52 119 15c110,3 215,26 320,67l244 96c-113,-78 -235,-139 -372,-174zm-1555 -401c9,29 12,58 9,87l-81 102 -70 52 -9 6 -20 -3c-145,-84 -212,-201 -195,-355 0,-20 6,-35 15,-49 38,-23 81,-32 125,-29 93,6 163,47 212,125l6 9 9 55zm81 -6c-6,-93 -49,-166 -131,-215 -96,-61 -201,-70 -311,-35 -64,23 -93,67 -93,134 0,171 73,302 221,398 -212,44 -430,73 -651,93 -360,29 -695,-49 -994,-235l-116 -73c145,-64 256,-166 334,-308 67,-125 44,-230 -76,-317 -93,-67 -192,-70 -291,-12l-58 38c-122,105 -174,235 -154,392 6,58 23,108 55,160 -375,49 -747,32 -1116,-47 -139,-32 -270,-81 -389,-145 -9,-12 -20,-20 -41,-26l-15 -6c-64,-38 -125,-81 -183,-128 -119,-99 -201,-224 -244,-372 -23,-73 -32,-148 -29,-227 3,-67 17,-134 49,-198 46,-102 116,-186 209,-253 163,-119 346,-195 546,-224l244 -29 328 -17c270,3 538,38 799,108 259,67 511,145 761,235 253,96 500,209 738,343 238,131 459,282 668,456l613 520c131,113 244,241 343,386 -273,23 -549,23 -822,-3 -119,-12 -235,-44 -346,-93 108,-73 157,-174 148,-302zm-235 340c105,52 215,93 331,122 253,67 509,78 773,41l105 -17 9 0 44 -12c-52,346 -76,695 -73,1046l0 9 -5289 -526 23 -47c122,-241 247,-482 378,-718l67 -116c35,-55 64,-113 84,-174 174,90 392,160 648,206 259,46 459,55 602,26l331 -76c102,90 285,189 543,299 259,113 517,142 782,96 262,-49 474,-102 642,-160zm-1764 -866l76 -6c49,15 93,44 125,90l9 12c15,131 -35,238 -148,331 -64,49 -134,78 -215,90 -96,-125 -105,-256 -23,-392 15,-26 32,-49 49,-73l122 -49 6 -3zm-3034 1991l-46 -177 2456 247 -17 90c-29,139 -67,276 -113,410 -20,-9 -41,-15 -64,-17l-520 -73c-49,6 -67,29 -52,73l38 84c52,87 113,166 186,235l17 23c-3,0 -3,0 -6,3 -102,58 -215,96 -334,113 -183,26 -369,23 -552,-12 -61,-12 -122,-26 -180,-49 -113,-58 -221,-131 -320,-212 -102,-87 -189,-186 -262,-294l-6 -9c-102,-128 -177,-276 -224,-436zm1813 971l3 0 -3 3 0 -3zm1177 -831l-3 -9 2647 282 -116 198c-142,180 -323,325 -538,430 -398,198 -799,212 -1209,41 -325,-134 -552,-346 -689,-634l-105 -299 12 -9zm-389 564l20 12c3,-3 9,-6 15,-9l9 0c6,0 15,-6 20,-17l0 0 6 -6c9,-58 20,-119 32,-177 154,357 392,654 715,895 302,224 645,320 1026,285 340,-32 654,-142 939,-325 215,-139 392,-311 541,-520l90 -137 38 -64 0 0c201,-26 334,67 404,276 17,55 17,110 3,166 -17,64 -47,122 -81,174 -125,90 -262,108 -413,46l-6 3 -41 26c0,6 -3,12 0,17l0 6 -38 758 6 23 0 32 -9 -3 9 -29 -6 -23c-1244,613 -2490,1252 -3734,1924 -625,-462 -1183,-927 -1671,-1395 -189,-154 -325,-302 -413,-445 -90,-145 -131,-328 -128,-558 3,-227 67,-474 189,-741 232,201 436,337 619,416 331,125 674,131 1026,15 -76,96 -125,160 -148,198l0 9 -9 9c-35,61 -64,128 -90,201l0 9c-15,20 -17,38 -9,55l6 15 3 9 9 3 3 0 23 6 23 -9c378,-67 726,6 1052,218 160,108 296,244 407,401 32,47 61,93 87,142l29 12 6 0 26 -12 17 -17 3 -17c-99,-174 -224,-334 -378,-471 -169,-157 -363,-264 -584,-331l-157 -41c-177,-38 -340,-20 -494,44l186 -262c102,-148 238,-256 401,-325l-3 -12 23 -20c-9,-58 -35,-110 -84,-154l-323 -366c270,41 540,70 808,84zm-907 -195l9 0 -9 3 0 -3z" class="fil1"/><path d="M5384 1899c3,-29 0,-58 -9,-87l-9 -55 -6 -9c-49,-78 -119,-119 -212,-125 -44,-3 -87,6 -125,29 -9,15 -15,29 -15,49 -17,154 49,270 195,355l20 3 9 -6 70 -52 81 -102z" class="fil2"/><path d="M5326 1591c81,49 125,122 131,215 9,128 -41,230 -148,302 110,49 227,81 346,93 273,26 549,26 822,3 -99,-145 -212,-273 -343,-386l-613 -520c-209,-174 -430,-325 -668,-456 -238,-134 -485,-247 -738,-343 -250,-90 -503,-169 -761,-235 -262,-70 -529,-105 -799,-108l-328 17 -244 29c-201,29 -384,105 -546,224 -93,67 -163,151 -209,253 -32,64 -47,131 -49,198 -3,78 6,154 29,227 44,148 125,273 244,372 58,47 119,90 183,128l15 6c20,6 32,15 41,26 119,64 250,113 389,145 369,78 741,96 1116,47 -32,-52 -49,-102 -55,-160 -20,-157 32,-288 154,-392l58 -38c99,-58 198,-55 291,12 119,87 142,192 76,317 -78,142 -189,244 -334,308l116 73c299,186 634,264 994,235 221,-20 439,-49 651,-93 -148,-96 -221,-227 -221,-398 0,-67 29,-110 93,-134 110,-35 215,-26 311,35z" class="fil2"/><path d="M5553 2268c-116,-29 -227,-70 -331,-122 -169,58 -381,110 -642,160 -264,47 -523,17 -782,-96 -259,-110 -442,-209 -543,-299l-331 76c-142,29 -343,20 -602,-26 -256,-47 -474,-116 -648,-206 -20,61 -49,119 -84,174l-67 116c-131,235 -256,477 -378,718l-23 47 5289 526 0 -9c-3,-352 20,-700 73,-1046l-44 12 -9 0 -105 17c-264,38 -520,26 -773,-41z" class="fil3"/><path d="M3533 1274l-76 6 -6 3 -122 49c-17,23 -35,47 -49,73 -81,137 -73,267 23,392 81,-12 151,-41 215,-90 113,-93 163,-201 148,-331l-9 -12c-32,-47 -76,-76 -125,-90z" class="fil2"/><path d="M377 3093l46 177c47,160 122,308 224,436l6 9c73,108 160,206 262,294 99,81 206,154 320,212 58,23 119,38 180,49 183,35 369,38 552,12 119,-17 232,-55 334,-113l-12 -26c-73,-70 -134,-148 -186,-235l-38 -84c-15,-44 3,-67 52,-73l520 73c23,3 44,9 64,17 47,-134 84,-270 113,-410l17 -90 -2456 -247z" class="fil4"/><path d="M3411 3401l3 9 -12 9 105 299c137,288 363,500 689,634 410,171 811,157 1209,-41 215,-105 395,-250 538,-430l116 -198 -2647 -282z" class="fil4"/><polygon points="6308 5407 6299 5436 6308 5439" class="fil3"/><path d="M3045 3986l-20 -12c-267,-15 -538,-44 -808,-84l323 366c49,44 76,96 84,154l-23 20 3 12c-163,70 -299,177 -401,325l-186 262c154,-64 317,-81 494,-44l157 41c221,67 416,174 584,331 154,137 279,296 378,471l-3 17 -17 17 -26 12 -6 0 -29 -12c-26,-49 -55,-96 -87,-142 -110,-157 -247,-294 -407,-401 -325,-212 -674,-285 -1052,-218l-23 9 -23 -6 -3 0 -9 -3 -3 -9 -6 -15c-9,-17 -6,-35 9,-55l0 -9c26,-73 55,-139 90,-201l9 -9 0 -9c23,-38 73,-102 148,-198 -352,116 -695,110 -1026,-15 -183,-78 -386,-215 -619,-416 -122,267 -186,514 -189,741 -3,230 38,413 128,558 87,142 224,291 413,445 488,468 1046,933 1671,1395 1244,-671 2490,-1311 3734,-1924l38 -758 0 -6c-3,-6 0,-12 0,-17l41 -26 6 -3c151,61 288,44 413,-46 35,-52 64,-110 81,-174 15,-55 15,-110 -3,-166 -70,-209 -203,-302 -404,-276l0 0 -38 64 -90 137c-148,209 -325,381 -541,520 -285,183 -599,294 -939,325 -381,35 -724,-61 -1026,-285 -323,-241 -561,-538 -715,-895 -12,58 -23,119 -32,177l-6 6 0 0c-6,12 -15,17 -20,17l-9 0c-6,3 -12,6 -15,9z" class="fil3"/><path d="M6628 2393l-58 -70c-44,334 -64,671 -64,1008" class="fil0 str1"/><path d="M6410 3326c-3,-352 20,-700 73,-1046l-44 12 -9 0" class="fil0 str1"/><path d="M6552 3762l-20 38 35 0c76,12 151,41 221,90 201,139 250,323 151,543 -105,238 -279,320 -520,244l-20 846 -46 29 -15 -3 -32 29" class="fil0 str2"/><path d="M6436 3974l38 -64 0 0c201,-26 334,67 404,276 17,55 17,110 3,166 -17,64 -47,122 -81,174 -125,90 -262,108 -413,46l-6 3 -41 26c0,6 -3,12 0,17l0 6 -38 758 6 23 0 32 -9 -3" class="fil0 str2"/><path d="M6360 5340c-6,3 -9,12 -6,17l0 3 15 6 12 32 0 3 29 105c3,-58 -9,-110 -38,-163l-3 -3 -9 0z" class="fil1"/><path d="M6305 5523l-3 3 -849 398 -6 -6 -352 174 -596 273 -15 -12 -17 0 -122 87 0 15c-677,276 -1273,549 -1781,811 -381,-253 -549,-357 -503,-311l-628 -526 -35 -49 -41 -20 41 58 -47 -58 -23 -20 -20 93 -3 0 -15 6 -3 9 12 9 -58 171 -674 1674 3618 -70c352,-6 703,-6 1055,0l224 -12 29 -6c67,67 154,125 256,171 366,174 729,102 1090,-218l0 -3 99 -32c137,-52 209,-145 218,-282 3,-67 -3,-122 -20,-174l70 -41c106,-65 169,-136 188,-214l0 -102c-11,-48 -37,-97 -78,-149 -55,-73 -131,-116 -218,-134l-76 -15c-235,26 -456,93 -663,206 64,-58 128,-128 189,-209 125,-166 259,-325 401,-477 15,-17 23,-41 23,-61l-3 -20 -15 -20 -26 -12 -3 -3c-177,3 -366,6 -564,17 20,-6 32,-15 32,-23l15 -915 -29 -105c6,32 12,64 12,99l-20 -9 -67 32zm520 1020c-96,73 -180,157 -256,253 -108,137 -206,282 -294,433 -9,17 -12,32 -6,49l-9 9 -12 15 26 -12 3 3 12 -9c221,-81 456,-128 706,-134 137,-3 235,55 291,174 12,29 9,58 -15,87 -61,81 -134,148 -218,198l-15 6c-76,41 -160,70 -250,84 -276,46 -552,46 -825,0l-26 23c384,160 750,160 1101,3 35,195 -64,320 -299,372 -398,84 -767,17 -1101,-206l-47 0 -6 41 0 20c340,241 697,328 1078,256 -387,250 -750,221 -1096,-87 -78,-70 -128,-160 -148,-264 -61,-363 -41,-724 64,-1081l41 -125 1104 -105c64,-6 131,-6 195,-3zm-6027 1619l-64 -3 657 -1648c378,331 767,634 1165,907l1831 -892c-44,535 -67,1043 -67,1529l0 32 -3522 76zm4897 -2153l-6 6c-90,102 -160,224 -206,366 -125,384 -198,779 -218,1186 -9,189 26,355 105,491l-142 -15 0 -3 -819 41c0,-514 20,-1046 58,-1598 610,-308 1223,-619 1837,-930 3,-41 3,12 0,163l-44 747c-230,23 -459,55 -686,102l-20 3c58,-169 122,-334 198,-497l-6 -20 -23 -35 -26 -3 0 -3z" class="fil1"/><path d="M6570 6796c76,-96 160,-180 256,-253 -64,-3 -131,-3 -195,3l-1104 105 -41 125c-105,357 -125,718 -64,1081 20,105 70,195 148,264 346,308 709,337 1096,87 -381,73 -738,-15 -1078,-256l0 -20 6 -41 47 0c334,224 703,291 1101,206 235,-52 334,-177 299,-372 -352,157 -718,157 -1101,-3l26 -23c273,46 549,46 825,0 90,-15 174,-44 250,-84l15 -6c84,-49 157,-116 218,-198 23,-29 26,-58 15,-87 -55,-119 -154,-177 -291,-174 -250,6 -485,52 -706,134l-12 9 -3 -3 -26 12 12 -15 9 -9c-6,-17 -3,-32 6,-49 87,-151 186,-296 294,-433z" class="fil5"/><path d="M734 8159l64 3 3522 -76 0 -32c0,-485 23,-994 67,-1529l-1831 892c-398,-273 -788,-575 -1165,-907l-657 1648zm3322 -1142l0 3c9,61 0,119 -20,180l-29 12c-29,3 -55,-6 -70,-20 -99,-108 -99,-215 -3,-323l61 -9 0 6 32 29 29 122zm-238 773c-6,-131 15,-206 61,-221l6 -17 44 -20 12 3c38,3 55,17 58,44l26 201c12,105 -17,169 -90,183 -70,17 -108,-41 -116,-171z" class="fil6"/><path d="M4056 7019l0 -3 -29 -122 -32 -29 0 -6 -61 9c-96,108 -96,215 3,323 15,15 41,23 70,20l29 -12c20,-61 29,-119 20,-180z" class="fil1"/><path d="M3879 7569c-47,15 -67,90 -61,221 9,131 47,189 116,171 73,-15 102,-78 90,-183l-26 -201c-3,-26 -20,-41 -58,-44l-12 -3 -44 20 -6 17z" class="fil1"/><path d="M5689 6014l6 -6 0 3 26 3 23 35 6 20c-76,163 -139,328 -198,497l20 -3c227,-47 456,-78 686,-102l44 -747c3,-151 3,-203 0,-163 -613,311 -1226,622 -1837,930 -38,552 -58,1084 -58,1598l819 -41 0 3 142 15c-78,-137 -113,-302 -105,-491 20,-407 93,-802 218,-1186 47,-142 116,-264 206,-366z" class="fil6"/><path d="M6305 5523l67 -32 20 9c0,-35 -6,-67 -12,-99" class="fil0 str2"/><line x1="6381" x2="6410" y1="5401" y2="5505" class="fil0 str2"/><line x1="6410" x2="6395" y1="5505" y2="6421" class="fil0 str2"/><path d="M6410 5505c3,-58 -9,-110 -38,-163l-3 -3 -9 0c-6,3 -9,12 -6,17l0 3 15 6 12 32 0 3" class="fil0 str2"/><path d="M5021 3390c-9,-9 -23,-15 -38,-20l0 0 -12 6 -23 -6 -20 6c0,0 -3,3 -6,6l3 3c-84,-52 -171,-87 -262,-99 -218,-20 -401,38 -549,174 -12,9 -17,20 -26,35 -58,145 -17,262 122,349 209,134 433,154 671,61 90,-32 154,-90 201,-169 32,-61 41,-125 23,-192l-41 -105c-32,-70 -87,-113 -166,-134l17 15c44,15 78,38 105,70zm-700 436l0 6 0 -6zm744 -337l0 -3 -3 -23 3 26z" class="fil1"/><path d="M2716 3245c-122,-139 -276,-201 -465,-189 -230,-6 -395,87 -494,282 -20,41 -29,87 -20,139 20,105 78,180 177,224 273,125 529,102 764,-70 29,-17 52,-44 70,-73 67,-108 55,-212 -32,-314z" class="fil1"/></g></svg>