<svg xmlns="http://www.w3.org/2000/svg" id="master-artboard" width="80" height="80" x="0" y="0" version="1.1" viewBox="0 0 80 80" style="enable-background:new 0 0 1400 980"><rect id="ee-background" width="80" height="80" x="0" y="0" style="fill:#fff;fill-opacity:0;pointer-events:none"/><g transform="matrix(0.27376788854599, 0, 0, 0.23401659727096558, -63.53483963012695, -25.443241119384766)"><metadata id="metadata76"/><path id="path4" d="m 231.8986,219.7001 c -0.5903,6.808 0.0717,12.91 3.8844,19.0115 2.5599,4.8378 7.7208,10.0239 20.0836,13.6762 3.3686,0.995 2.6586,0.0944 4.4452,3.3412 l 16.4805,32.1184 c 1.2175,2.0661 1.8962,3.7009 2.9851,5.5825 1.1386,1.9672 2.0855,2.848 3.4649,5.0992 1.4678,2.3958 1.301,2.803 3.1658,5.3495 l 13.5425,18.8695 c 2.4715,4.1862 -0.1196,31.1926 9.6669,55.2409 1.7066,4.1944 0.4632,9.8791 0.6002,15.4053 0.0966,3.8991 1.1456,12.0431 2.5115,14.267 -3.4083,1.3583 -5.7181,1.3298 -9.4621,3.2826 -19.6728,12.509 -12.8713,25.192 0.823,33.0026 13.8037,5.7402 32.0983,6.7117 48.8842,5.7941 2.0831,-0.9212 26.4705,-1.6103 37.8341,-13.5531 7.0404,-7.3994 8.8897,-20.0185 1.303,-26.2682 -5.6835,-4.6821 -6.7493,1.621 -6.9141,-7.3417 9.8653,-0.005 20.5084,-0.0685 26.3877,5.8219 5.6564,5.6673 11.4357,9.238 20.9058,11.5452 20.6633,5.0341 36.8216,-1.3591 45.6968,-15.058 2.1181,-3.2696 4.0601,-5.7355 5.7241,-9.6352 1.4976,-3.5089 2.8831,-8.2172 4.1867,-12.0181 2.2975,-6.6976 4.2547,-20.7886 4.0083,-28.2807 -0.9592,-29.1817 -25.3861,-33.9345 -27.5694,-35.8568 l 7.0818,-9.6093 c 3.5664,-4.9215 14.4498,-19.0375 16.1545,-23.8622 33.2872,-0.0644 33.5959,-22.2801 36.1545,-27.0637 l 0,-8.3971 c -0.9202,-2.07 -0.5046,-5.5349 -4.9881,-12.3492 -8.5624,-13.0144 -23.038,-18.2063 -37.9541,-12.7315 4.146,-14.8503 2.3553,-34.1799 -2.5284,-47.461 -10.5436,-28.6719 -30.3912,-47.5012 -58.1702,-59.7318 l -15.9071,-5.486 c -3.5912,-1.0323 -7.3834,-1.5075 -11.2539,-2.3781 -2.9206,-0.6569 -11.4271,-1.2981 -12.3844,-1.84 l -16.3681,0 c -1.3611,0.6261 -21.9958,1.8572 -37.6971,9.3701 -10.1357,4.8501 -13.6367,6.5752 -22.4717,13.3881 -2.9556,2.2791 -3.5094,2.0414 -6.3174,4.8332 -5.9272,5.8931 -3.8328,3.0904 -8.3641,9.4986 -2.8681,4.0557 -4.429,5.4097 -7.0446,10.9117 -1.6241,3.417 -1.1158,5.4456 -3.782,7.3744 l -4.9067,2.7512 c -0.1424,0.1072 -0.3355,0.2686 -0.4735,0.38 l -1.7918,1.611 c -7.7378,8.1035 -7.4367,17.6346 -7.1094,26.2546 -29.2451,-0.0143 -31.6975,23.7593 -32.5169,25.1412 z" style="fill:#221f20;fill-rule:evenodd;stroke:#000;stroke-width:.21600001;stroke-linecap:butt;stroke-linejoin:miter;stroke-dasharray:none"/><path id="path6" d="m 365.8994,153.3901 c 4.069,5.0169 6.4142,10.3933 3.9173,18.4546 -1.0573,3.4136 -2.959,5.6785 -5.2297,7.5461 -3.112,2.5599 -4.8327,2.4333 -8.6089,3.978 l -6.2218,27.9683 36.4741,-0.9549 c -8.2759,-3.066 -7.039,-0.1425 -8.4523,-4.3033 6.0862,-1.8076 12.5934,4.2087 29.1664,3.9243 l 26.8982,1.0577 c 9.3183,1.5249 8.0821,3.1994 6.6824,11.787 -9.19,56.3739 -52.7575,87.5442 -101.5616,53.2258 -6.6842,-4.7003 -12.6407,-9.0322 -18.1969,-15.1325 -1.9039,-2.0903 -3.3223,-2.9423 -5.128,-5.0791 -1.8434,-2.1811 -3.0423,-3.5765 -5.0363,-6.0817 -6.1477,-7.7244 -13.076,-16.6864 -17.9729,-25.6247 -2.5713,-4.6936 -4.0264,-6.833 -5.3354,-7.8566 -2.1647,-0.9118 -5.4429,-0.002 -11.2661,-2.139 0.3459,8.1923 3.8263,15.0933 5.2999,22.1427 7.2914,21.6997 15.3288,38.0994 29.1438,54.6019 3.5085,4.1838 7.3967,3.203 13.9284,3.7793 21.8341,1.926 53.1987,0.6041 74.0745,-1.0626 20.2049,-1.613 24.9742,3.5881 40.2488,-19.606 13.0579,-19.828 21.297,-37.4447 21.3633,-64.217 0.0733,-29.5336 -21.6158,-43.6819 -44.5318,-54.3291 -3.0522,7.7177 -14.7658,15.8517 -26.3214,14.6351 -19.3475,-2.0368 -19.362,-16.0426 -21.3749,-19.7137 l -1.9591,2.9994 z" style="fill:#fefefe;fill-rule:evenodd;stroke:#000;stroke-width:.21600001;stroke-linecap:butt;stroke-linejoin:miter;stroke-dasharray:none"/><path id="path8" d="m 305.0353,339.5892 c 0.022,29.2485 21.0651,51.6289 49.7851,54.0268 13.961,1.1657 32.7289,-4.107 40.9969,-10.515 24.119,-18.6925 17.4901,-75.4486 -15.7129,-72.1389 -6.9676,0.6947 -13.5387,0.6056 -20.4537,1.1137 4.4696,9.9324 -4.2893,29.6541 -21.888,28.8045 -11.4365,-0.5521 -20.1766,-10.0897 -21.002,-20.9227 -0.5085,-6.6752 -0.493,-6.0038 2.1078,-10.3066 -10.4015,1.8293 -13.8417,18.6782 -13.8332,29.9382 z" style="fill:#fefefe;fill-rule:evenodd;stroke:#000;stroke-width:.21600001;stroke-linecap:butt;stroke-linejoin:miter;stroke-dasharray:none"/><path id="path10" d="m 445.755,322.4335 c -28.0886,6.5856 -41.5752,51.7636 -37.8312,71.6594 1.0243,5.4436 3.0396,8.6948 6.5157,12.3013 1.0132,1.0512 0.6356,0.7251 1.689,1.7429 11.418,11.034 44.6111,19.2851 61.3288,-8.2983 10.0605,-16.5993 17.9161,-50.1351 2.0359,-67.906 -6.5808,-7.3645 -20.6476,-12.5685 -33.7382,-9.4993 z" style="fill:#fefefe;fill-rule:evenodd;stroke:#000;stroke-width:.21600001;stroke-linecap:butt;stroke-linejoin:miter;stroke-dasharray:none"/><path id="path12" d="m 292.4389,215.8636 c 3.3751,14.618 41.1685,58.746 59.004,63.2771 3.7805,-2.8639 3.3453,-6.6698 12.8396,-15.5178 13.4147,-12.5018 33.4264,-19.6661 52.9107,-17.1493 4.0536,0.5235 7.9689,2.6906 11.8947,2.6468 2.8065,-6.4174 9.3691,-25.1944 9.0729,-33.3446 -4.7507,-2.5502 -16.4486,-2.0373 -22.8045,-1.9033 4.2574,3.7007 16.9421,5.1433 20.02,9.5882 -0.1956,0.1194 -0.532,0.009 -0.6373,0.2573 -0.5265,1.2422 -5.4672,-0.7532 -6.4138,-1.1366 l -21.371,-7.5369 c -10.6457,-3.1807 -60.7715,0.1499 -76.0047,0.1484 -12.8703,-0.001 -26.0014,-0.0179 -38.5106,0.6707 z" style="fill:#eb1d23;fill-rule:evenodd;stroke:#000;stroke-width:.21600001;stroke-linecap:butt;stroke-linejoin:miter;stroke-dasharray:none"/><path id="path14" d="m 289.8749,163.9698 c 3.7631,0.8846 9.3425,5.629 8.8889,8.4198 -4.1857,2.169 -4.92,-5.4632 -13.1017,-6.5021 -14.6872,-1.8655 -25.7799,25.4476 -11.4939,40.1173 l 47.4875,-2.8784 c 3.5147,0.1036 3.5336,-0.633 4.6502,2.0678 -2.4619,1.8185 -37.9145,2.9009 -44.9929,3.2129 -2.1078,0.7313 -2.6652,-0.3626 -3.859,0.7126 11.2542,4.4622 18.4573,3.1883 32.148,2.9133 11.923,-0.2396 24.9751,0.3919 36.6817,-0.4795 l 5.8718,-28.2454 c -12.9498,-2.0744 -17.5232,-9.0131 -15.7045,-24.2761 -11.8283,-1.9475 -8.4869,-8.5443 -12.3325,-13.9116 -11.6185,2.0242 -28.9382,7.2062 -34.2436,18.8494 z" style="fill:#fefefe;fill-rule:evenodd;stroke:#000;stroke-width:.21600001;stroke-linecap:butt;stroke-linejoin:miter;stroke-dasharray:none"/><path id="path16" d="m 398.6992,342.2302 c -14.6352,1.042 -30.0235,3.7835 -44.6921,3.7556 -10.0514,-0.0189 -24.917,0.8786 -34.0843,-1.2698 -4.047,-0.9483 -7.1244,-1.6575 -10.5554,-2.7005 -0.0394,6.8524 2.0289,13.8584 4.3348,18.983 3.0135,6.6967 4.9129,8.7415 9.5502,13.6026 15.9763,16.7465 56.8472,18.2239 71.3886,-2.9281 0.3991,-0.5804 0.7341,-1.1223 1.368,-2.0368 2.3617,-3.4078 2.4803,-4.0717 3.9123,-8.0643 2.8534,-7.9563 1.4329,-13.2532 -1.2221,-19.3417 z" style="fill:#221f20;fill-rule:evenodd;stroke:#000;stroke-width:.21600001;stroke-linecap:butt;stroke-linejoin:miter;stroke-dasharray:none"/><path id="path18" d="m 417.5006,152.3215 c 13.2845,7.8815 17.5656,7.1292 30.4348,19.8856 20.3002,20.1221 18.0789,52.4363 7.7648,77.8575 -5.3499,13.1855 -11.3423,21.8563 -18.5565,32.1779 l 11.5258,-10.2276 c 4.3728,-3.7021 8.2383,-7.5308 12.903,-10.2924 -0.4688,-11.6782 -1.027,-13.245 3.7031,-22.6127 5.4477,-10.7888 11.5841,-7.866 12.7396,-16.4836 4.6568,-34.7337 -3.8132,-60.5207 -29.6846,-83.2496 -8.5721,-7.5308 -24.392,-17.9541 -37.2173,-20.9397 1.9593,3.1909 3.0836,3.0689 4.8399,6.3542 5.1561,9.6456 4.6151,17.3373 1.5474,27.5304 z" style="fill:#02aded;fill-rule:evenodd;stroke:#000;stroke-width:.21600001;stroke-linecap:butt;stroke-linejoin:miter;stroke-dasharray:none"/><path id="path20" d="m 310.7795,412.052 c -20.4072,5.2524 -22.9182,26.7544 6.7483,32.3728 17.7592,3.3632 47.0958,2.5747 61.7974,-4.3677 19.783,-9.3421 16.1814,-29.1584 6.3521,-28.8326 -4.7485,0.1573 -21.5494,7.7687 -47.0689,6.0131 -5.3391,-0.3672 -10.12,-0.4853 -15.051,-1.9245 -11.0475,-3.2241 -6.8865,-4.7773 -12.7779,-3.2611 z" style="fill:#fefefe;fill-rule:evenodd;stroke:#000;stroke-width:.21600001;stroke-linecap:butt;stroke-linejoin:miter;stroke-dasharray:none"/><path id="path22" d="m 418.8999,309.5527 c -4.4004,-0.2929 -1.1894,-2.4338 -11.5548,-1.0282 -4.5934,0.623 -8.2918,0.8283 -13.088,1.3136 7.7065,7.7827 18.2334,7.9212 19.005,37.4124 2.7344,-1.5135 13.2436,-28.4746 37.1859,-29.0993 12.381,-0.3229 7.96,3.3097 20.1011,-13.1321 5.2078,-7.053 9.6053,-12.6319 13.7768,-20.0787 -6.0393,-3.3202 -7.9154,-2.8714 -12.9076,-7.2977 -5.0874,-4.5108 -5.4647,-8.8187 -8.9701,-12.2127 -3.3797,1.7488 -9.3011,7.1602 -11.8542,9.3466 -16.3205,13.9775 -26.2568,29.6343 -31.6941,34.7761 z" style="fill:#02aded;fill-rule:evenodd;stroke:#000;stroke-width:.21600001;stroke-linecap:butt;stroke-linejoin:miter;stroke-dasharray:none"/><path id="path24" d="m 484.8768,227.5845 c -36.1684,11.1748 -18.886,64.1949 15.7078,53.6993 8.2248,-2.4955 14.7671,-8.5121 17.828,-16.342 0.6819,-1.7445 1.0568,-3.25 1.4966,-5.3074 3.8647,-18.0802 -13.5951,-38.6735 -35.0324,-32.0499 z" style="fill:#fefefe;fill-rule:evenodd;stroke:#000;stroke-width:.21600001;stroke-linecap:butt;stroke-linejoin:miter;stroke-dasharray:none"/><path id="path26" d="m 313.4541,346.8131 c 0.3667,6.9506 1.9664,9.8794 4.6035,15.0561 1.0549,2.07 1.6682,3.5515 3.4688,5.9265 0.9411,1.2412 1.6007,1.9427 2.4023,2.7368 0.4599,0.4558 1.0067,0.9493 1.3308,1.2366 0.1309,0.116 0.3236,0.2798 0.456,0.3936 l 0.9232,0.767 c 7.3204,6.0265 16.4379,9.9983 29.065,10.4908 12.3151,0.4805 23.652,-1.2254 31.1141,-8.4856 7.6772,-7.4696 13.0788,-15.9512 10.491,-28.4761 -10.5501,-1.8025 -49.8718,7.8251 -83.8547,0.3543 z" style="fill:#fefefe;fill-rule:evenodd;stroke:#000;stroke-width:.21600001;stroke-linecap:butt;stroke-linejoin:miter;stroke-dasharray:none"/><path id="path28" d="m 391.9487,116.6264 c -6.4968,1.567 -10.8715,4.571 -14.3846,9.9583 -15.2685,23.4156 -0.8038,44.2819 18.4508,39.7223 11.9948,-2.8405 20.6487,-13.4656 20.443,-27.3944 -0.2285,-15.4833 -13.6548,-24.904 -24.5092,-22.2862 z" style="fill:#fefefe;fill-rule:evenodd;stroke:#000;stroke-width:.21600001;stroke-linecap:butt;stroke-linejoin:miter;stroke-dasharray:none"/><path id="path30" d="m 355.6533,281.5818 c 15.4932,5.4751 28.9846,7.8536 45.0125,0.4707 9.8656,-4.5444 23.5194,-19.6179 26.0798,-28.7057 -4.6696,-3.9239 -14.8379,-4.4808 -22.0265,-3.9529 -8.5873,0.6303 -14.7632,2.7584 -21.5209,5.8423 -9.1302,4.1666 -24.4675,14.9248 -27.5449,26.3456 z" style="fill:#f26e32;fill-rule:evenodd;stroke:#000;stroke-width:.21600001;stroke-linecap:butt;stroke-linejoin:miter;stroke-dasharray:none"/><path id="path32" d="m 278.6592,242.2462 c -4.785,-17.4227 -4.7751,-14.9129 -8.1333,-33.4683 -1.1594,-6.4067 -1.415,-1.5583 -4.5306,-10.0735 -9.245,-0.5262 -18.1039,0.3527 -24.6283,8.6496 -22.1971,28.228 18.8143,56.3979 37.2922,34.8922 z" style="fill:#fefefe;fill-rule:evenodd;stroke:#000;stroke-width:.21600001;stroke-linecap:butt;stroke-linejoin:miter;stroke-dasharray:none"/><path id="path34" d="m 316.5487,385.6783 c -3.2265,3.7987 -2.0533,-0.8517 -2.9423,4.2903 -0.0203,21.5928 4.5301,22.6742 25.0141,23.9288 9.3529,0.5729 37.7685,-1.3279 43.2416,-5.9972 l 0.0569,-3.4155 c -3.0883,-2.5827 -1.9003,1.1727 -4.5536,-2.5616 4.086,-6.1521 21.639,-1.6239 28.9328,-1.25 -3.8766,-16.8244 -1.1599,-7.4581 -2.3394,-20.4839 -16.5603,18.5422 -58.9522,25.3796 -83.5695,2.4156 -1.6711,-1.5587 -3.0159,-2.6383 -4.3336,-4.207 -1.5792,-1.88 -1.9768,-3.1814 -4.1686,-4.7286 l 4.6616,12.0091 z" style="fill:#02aded;fill-rule:evenodd;stroke:#000;stroke-width:.21600001;stroke-linecap:butt;stroke-linejoin:miter;stroke-dasharray:none"/><path id="path36" d="m 338.8403,156.323 c 1.4084,-3.2347 0.8498,-2.8903 3.7902,-4.8479 1.8284,-1.2171 3.6169,-2.2046 5.7251,-2.6802 7.105,-1.6029 9.7789,0.1897 14.8769,1.8746 10.6126,-11.7862 11.8918,-47.7836 -15.3092,-35.7053 -19.2231,8.5358 -28.7782,37.5541 -9.083,41.3588 z" style="fill:#fefefe;fill-rule:evenodd;stroke:#000;stroke-width:.21600001;stroke-linecap:butt;stroke-linejoin:miter;stroke-dasharray:none"/><path id="path38" d="m 263.5124,253.3468 c 0.798,6.7935 20.8586,41.1106 26.4027,49.5738 3.7154,5.6716 9.5708,14.0731 13.0574,19.3272 0.5093,-3.3085 6.7045,-11.2837 9.5817,-13.3985 -2.3996,-1.3787 -6.2545,-0.937 -7.4768,-5.4795 -1.6012,-5.9504 0.3684,-7.6903 1.6454,-11.4464 -9.1111,-7.8912 -21.2277,-33.3417 -26.1527,-45.254 -3.567,0.4023 -4.7942,2.3087 -7.979,3.8004 -3.2996,1.545 -5.8309,1.391 -9.0787,2.877 z" style="fill:#02aded;fill-rule:evenodd;stroke:#000;stroke-width:.21600001;stroke-linecap:butt;stroke-linejoin:miter;stroke-dasharray:none"/><path id="path40" d="m 348.4444,299.1134 c 4.1811,2.1477 7.9743,5.9227 9.8296,9.2061 2.3936,0.85 48.3028,-2.6977 56.6592,-3.594 4.2555,-0.4562 4.5067,-1.0986 6.5058,-3.5934 1.6868,-2.1048 2.921,-3.4963 4.2801,-5.9541 -23.8181,1.637 -53.3195,3.18 -77.2747,3.9354 z" style="fill:#eb1d23;fill-rule:evenodd;stroke:#000;stroke-width:.21600001;stroke-linecap:butt;stroke-linejoin:miter;stroke-dasharray:none"/><path id="path42" d="m 322.6127,311.992 c 7.7407,4.4767 24.9195,3.7774 33.3645,1.4618 -2.7371,-7.2857 -7.2583,-12.1978 -16.4628,-12.5894 -7.7949,-0.3318 -17.2084,5.2411 -16.9017,11.1276 z" style="fill:#fdcb0a;fill-rule:evenodd;stroke:#000;stroke-width:.21600001;stroke-linecap:butt;stroke-linejoin:miter;stroke-dasharray:none"/><path id="path44" d="m 391.2141,157.3224 c 4.1586,2.3977 8.4474,3.2013 11.5478,-1.2143 1.9308,-2.7494 4.3126,-8.8171 1.9901,-13.2211 -4.4335,-8.4085 -17.452,-0.2474 -13.5379,14.4354 z" style="fill:#221f20;fill-rule:evenodd;stroke:#000;stroke-width:.21600001;stroke-linecap:butt;stroke-linejoin:miter;stroke-dasharray:none"/><path id="path46" d="m 335.8188,322.3424 c 5.1299,7.6112 -1.5946,4.4113 0.8709,14.9578 10.954,0.4427 20.0373,-7.3974 19.8447,-16.4485 -7.2602,1.71 -12.455,2.0189 -20.7156,1.4907 z" style="fill:#fdcb0a;fill-rule:evenodd;stroke:#000;stroke-width:.21600001;stroke-linecap:butt;stroke-linejoin:miter;stroke-dasharray:none"/><path id="path48" d="m 331.3615,298.556 c -2.9535,-0.3343 -21.5911,-2.3115 -23.0736,-2.1477 -0.3057,3.1212 -0.7675,6.4319 1.6849,7.8315 0.4044,0.2309 7.8614,1.9221 8.3533,1.9383 4.0221,0.1338 3.5007,-1.1938 6.2774,-3.6661 0.8167,-0.7271 6.7469,-3.9366 6.758,-3.956 z" style="fill:#eb1d23;fill-rule:evenodd;stroke:#000;stroke-width:.21600001;stroke-linecap:butt;stroke-linejoin:miter;stroke-dasharray:none"/><path id="path50" d="m 374.6005,125.3541 c 1.1233,-2.4205 3.6087,-5.1445 6.2751,-7.3851 3.0773,-2.5863 6.3505,-3.1541 9.4231,-5.0017 -5.9786,-1.6846 -16.365,-1.8637 -23.3529,-1.1015 6.4377,7.1958 4.1148,5.3161 6.6935,11.5938 l 0.6158,1.2686 c 0.0726,0.1517 0.1985,0.4383 0.3454,0.6259 z" style="fill:#02aded;fill-rule:evenodd;stroke:#000;stroke-width:.21600001;stroke-linecap:butt;stroke-linejoin:miter;stroke-dasharray:none"/><path id="path52" d="m 332.1392,335.5642 c -0.4635,-6.4103 -1.8004,-2.1246 -3.5373,-6.5802 -1.6975,-4.354 1.0091,-4.5154 2.0794,-6.9272 -3.6583,-0.9026 -7.2413,-2.5052 -10.4377,-2.8288 0.2079,6.8141 4.8348,14.8235 11.8956,16.3362 z" style="fill:#fdcb0a;fill-rule:evenodd;stroke:#000;stroke-width:.21600001;stroke-linecap:butt;stroke-linejoin:miter;stroke-dasharray:none"/><path id="path54" d="m 278.1442,182.2031 c 17.2262,-0.138 33.5205,3.8209 49.4277,9.4808" style="fill:none;stroke:#1b1918;stroke-width:2.9999001;stroke-linecap:butt;stroke-linejoin:miter;stroke-dasharray:none"/><path id="path56" d="m 297.3959,162.2483 c 16.7834,3.8834 22.3124,7.0504 36.4611,16.2642" style="fill:none;stroke:#1b1918;stroke-width:2.9999001;stroke-linecap:butt;stroke-linejoin:miter;stroke-dasharray:none"/><path id="path58" d="m 379.9306,192.9609 c 16.4117,1.2247 40.2665,6.6932 56.8995,12.4693" style="fill:none;stroke:#1b1918;stroke-width:2.9999001;stroke-linecap:butt;stroke-linejoin:miter;stroke-dasharray:none"/><path id="path60" d="m 380.2102,184.5752 c 17.1518,-4.1305 41.6257,-5.2625 58.221,-1.8301" style="fill:none;stroke:#1b1918;stroke-width:2.9999001;stroke-linecap:butt;stroke-linejoin:miter;stroke-dasharray:none"/><path id="path62" d="m 353.797,151.1555 a 14.6822,14.4103 0 0 1 14.6823,14.4104 14.6822,14.4103 0 1 1 -14.6823,-14.4104 z" style="fill:#e30016;fill-rule:evenodd;stroke:#1b1918;stroke-width:.21600001;stroke-linecap:butt;stroke-linejoin:miter;stroke-dasharray:none"/><path id="path64" d="m 284.4506,162.2723 c 7.0395,-1.6525 5.5332,-13.7047 34.9226,-19.5346 9.5414,-1.8929 2.9841,-2.6134 9.8142,-14.9871 2.5318,-4.5868 5.4509,-6.5396 7.6165,-10.0067 -15.6202,2.1683 -51.0973,27.5021 -52.3533,44.5284 z" style="fill:#02aded;fill-rule:evenodd;stroke:#000;stroke-width:.21600001;stroke-linecap:butt;stroke-linejoin:miter;stroke-dasharray:none"/><path id="path66" d="m 347.0928,153.3567 0,0 z" style="fill:#eb1d23;fill-rule:evenodd;stroke:#000;stroke-width:.21600001;stroke-linecap:butt;stroke-linejoin:miter;stroke-dasharray:none"/><path id="path68" d="m 341.2242,143.6226 c 2.8257,-4.071 5.7477,-9.4043 10.518,-11.7075 3.8481,3.0161 5.9501,6.9057 7.798,10.9224" style="fill:none;stroke:#1b1918;stroke-width:2.9999001;stroke-linecap:butt;stroke-linejoin:miter;stroke-dasharray:none"/><path id="path70" d="m 348.2466,155.7452 a 5.7637,5.657 0 0 1 5.7637,5.657 5.7637,5.657 0 1 1 -5.7637,-5.657 z" style="fill:#fff;fill-rule:evenodd;stroke:#1b1918;stroke-width:.21600001;stroke-linecap:butt;stroke-linejoin:miter;stroke-dasharray:none"/></g></svg>