<svg xmlns="http://www.w3.org/2000/svg" xmlns:xlink="http://www.w3.org/1999/xlink" width="80" height="80" version="1.1" viewBox="0 0 3958 4944" xml:space="preserve" style="shape-rendering:geometricPrecision;text-rendering:geometricPrecision;image-rendering:optimizeQuality;fill-rule:evenodd;clip-rule:evenodd"><defs><style type="text/css">.str0{stroke:#000;stroke-width:3}.str0,.str1,.str2{stroke-linecap:round;stroke-linejoin:round}.str2{stroke:#000}.str1,.str2{stroke-width:11.811}.str1{stroke:gray}.fil10,.fil2{fill:none}.fil2{fill-rule:nonzero}.fil12{fill:#3c9}.fil9{fill:#9cc}.fil11{fill:#ff0}.fil0{fill:#000;fill-rule:nonzero}.fil3{fill:#0cf}.fil3,.fil6,.fil7,.fil8{fill-rule:nonzero}.fil7{fill:#0ff}.fil8{fill:#d5f0ff}.fil6{fill:#e9dac7}.fil1,.fil4,.fil5{fill-rule:nonzero}.fil5{fill:red}.fil4{fill:#fc9}.fil1{fill:#fff}</style></defs><g id="Layer_x0020_1"><metadata id="CorelCorpID_0Corel-Layer"/><path d="M1431 1648l6 4c1,1 1,2 1,3 0,1 -1,1 -2,1 109,215 227,431 354,645 129,218 268,433 417,644 150,211 316,406 486,605l12 14c50,59 210,186 401,327 200,147 435,309 618,422 8,5 28,9 52,13 14,2 29,5 45,9 41,9 83,20 108,31 8,3 14,7 17,10 4,4 6,8 4,12 -1,2 -2,3 -5,5 -39,26 -92,40 -143,54 -48,12 -92,24 -118,44 -19,15 -41,23 -65,27 -23,4 -48,4 -74,3 1,7 -4,13 -12,20 -2,2 -4,3 -6,5 -4,3 -9,7 -14,12 -6,6 -12,11 -18,18 -33,32 -71,69 -122,82 -12,3 -23,5 -34,7 -11,1 -23,2 -35,2 -27,-1 -60,0 -91,2 -38,2 -74,5 -89,8 -29,5 -54,19 -80,33 -3,1 -5,3 -8,4 -26,14 -54,27 -82,37 -28,10 -58,16 -87,16 -12,0 -24,-4 -36,-8 -12,-4 -25,-8 -37,-8 -43,-1 -68,11 -91,22 -20,10 -39,19 -69,20 -65,1 -125,-9 -185,-18 -61,-10 -121,-19 -187,-18 -37,1 -70,2 -104,8 -34,6 -68,16 -108,35 9,26 16,48 20,64 4,16 1,27 -7,34 -8,7 -20,11 -38,12 -41,2 -99,-2 -155,-13 -46,-9 -91,-22 -124,-40 -38,17 -64,15 -92,13 -25,-3 -38,-3 -62,2 2,8 4,14 5,21 0,1 0,2 -1,2l0 0c-6,5 -13,10 -21,15 -8,5 -18,9 -29,11 -23,6 -51,8 -81,8 -30,0 -61,-2 -92,-4 -21,-1 -41,-2 -58,-2 -53,-1 -92,-2 -123,-23 -6,-4 -10,-15 -15,-27 -5,-14 -11,-28 -18,-28 -8,0 -20,0 -33,2 -13,2 -27,8 -38,18 -6,6 -8,15 -10,23 -2,9 -3,16 -10,19 -19,7 -41,13 -63,18 -23,5 -47,8 -71,9 -19,0 -38,-3 -55,-10 -20,-7 -38,-18 -55,-31 -40,-31 -78,-54 -108,-74 -46,-29 -76,-48 -74,-66 5,-53 9,-102 12,-149 -12,-7 -30,-13 -53,-15 -22,-3 -48,-3 -78,0 -3,15 -6,28 -8,40 -1,5 -5,9 -10,11 -7,4 -16,6 -19,6 -44,-2 -81,1 -117,3 -30,2 -58,4 -88,4 -23,-1 -43,-4 -57,-9 -7,-3 -13,-6 -17,-10 -4,-4 -7,-9 -6,-15 0,-2 1,-5 1,-7 43,-117 74,-241 100,-367 26,-126 46,-256 65,-386 28,-186 41,-374 55,-562 5,-76 11,-151 17,-227 10,-116 24,-223 38,-333 11,-83 22,-168 31,-259 7,-66 21,-131 35,-196 10,-47 20,-94 28,-142 4,-26 7,-53 10,-80 2,-22 5,-44 8,-66 5,-36 11,-73 17,-109 9,-56 19,-112 25,-169 3,-26 0,-55 -2,-82l-1 -8c-12,24 -26,43 -41,56 -20,18 -41,27 -58,27 -18,1 -37,-16 -55,-41 -22,-31 -42,-75 -53,-108 -24,-73 -33,-150 -42,-227 -4,-35 -8,-71 -14,-106 -1,-6 -2,-12 -3,-17 -5,-29 -9,-54 -16,-93l0 0c0,0 0,0 0,-1l0 0c-23,-9 -49,-27 -74,-46 -27,-20 -51,-42 -66,-56 -6,-3 -12,-6 -18,-11 -2,-2 -3,-4 -5,-6 0,0 -1,0 -1,0 -6,-3 -14,-7 -21,-12 0,0 -1,0 -1,0 -6,-3 -15,-6 -22,-12 -8,-5 -14,-12 -18,-21l0 -1c-22,1 -59,-28 -89,-53l0 0c-5,-4 -10,-8 -15,-12 -2,-1 -3,-3 -3,-4 0,-2 1,-4 3,-6 2,-1 4,-3 6,-4 8,-3 21,-5 27,-4 5,1 11,5 16,9l1 1c-2,-2 -3,-5 -5,-7l0 0 0 0c-1,-2 -1,-3 -1,-5 1,-2 2,-3 5,-4 2,-1 4,-1 7,-1 9,-1 21,2 27,6 2,1 4,3 6,5 7,1 13,3 17,5 3,2 6,4 8,7 3,2 5,5 8,7 0,0 0,1 1,1 6,1 12,3 15,5 14,10 24,24 35,38l1 1 0 0c10,1 23,4 36,7 10,2 19,4 28,6l0 -1 0 0 0 0c1,-4 1,-8 0,-12 -1,-6 -10,-12 -19,-18 -3,-2 -6,-4 -8,-6 -5,-4 -10,-7 -15,-10 -10,-6 -20,-12 -27,-21 -3,-5 -8,-11 -10,-18 -3,-7 -3,-14 2,-19 4,-4 11,-5 17,-5 8,1 16,5 23,9 11,7 19,16 28,25 7,7 13,14 21,20 13,10 27,19 41,27 9,5 17,11 26,16 2,2 5,3 7,4 13,9 26,17 36,30 8,10 11,23 14,35l0 0 1 4 0 0c1,4 1,8 2,12 0,5 1,9 2,13 4,11 13,28 19,39 0,-1 1,-1 2,-2 1,0 3,0 3,1 9,25 16,43 23,60 5,13 10,26 15,40 7,20 14,41 21,61 10,31 20,63 33,93 7,16 16,30 25,44 4,6 8,13 12,19 3,-3 5,-6 8,-10 2,-4 4,-8 6,-13 -6,-22 -8,-46 -8,-70 0,-15 35,-54 67,-89 0,-1 0,-1 0,-2 9,-21 8,-39 12,-59 9,-42 20,-81 66,-127 35,-34 80,-47 120,-54 27,-5 49,-9 58,-18 11,-11 18,-28 22,-45 6,-25 5,-51 4,-68 -3,0 -6,0 -8,0 -18,-1 -37,-11 -58,-26 -21,-15 -43,-36 -66,-58 -11,-11 -22,-20 -32,-29 -28,-26 -50,-45 -55,-70 -2,-9 -1,-20 0,-31 1,-12 2,-25 -1,-35l-5 -18c0,0 -1,0 -1,0 -21,-8 -36,-19 -47,-32 -13,-16 -20,-35 -22,-54 0,-3 0,-5 0,-8 -11,-20 -7,-37 -4,-54 2,-11 4,-22 2,-33 -1,-3 -6,-7 -13,-11 -16,-10 -39,-24 -39,-61 0,-17 4,-35 11,-52 8,-18 18,-35 29,-46 -1,-4 -2,-8 -2,-13 0,-2 0,-4 0,-6 1,-11 3,-25 8,-36 5,-12 12,-21 22,-21 0,0 1,0 1,0l0 0c4,-5 9,-9 16,-11 1,0 1,0 2,0 5,-13 12,-23 24,-30 3,-2 7,-4 11,-5 9,-22 26,-39 51,-51 25,-13 58,-21 99,-26 21,-2 46,1 72,7 0,0 0,0 0,0 2,-1 4,-3 6,-4l0 0c19,-10 45,-12 70,-7 25,5 49,18 63,39 1,2 3,4 4,7 4,0 7,0 11,0l0 0c1,0 2,0 3,0 6,-1 11,-3 14,-6 3,-3 4,-7 4,-12l0 0c0,-1 0,-1 0,-2l0 0c0,-1 0,-1 1,-2 1,-1 3,-1 4,0 8,8 6,18 4,26 0,1 0,1 0,2l0 0c-1,8 -5,13 -11,16 15,5 27,13 38,24 13,13 23,28 31,46 0,0 0,0 0,1 12,6 22,13 31,22 7,7 13,16 17,25 2,-6 0,-13 -2,-20 -1,-4 -2,-8 -3,-12 0,-1 1,-3 2,-3 1,0 1,0 2,0 9,4 16,10 20,16 7,8 10,16 11,22 0,0 0,0 1,0 15,12 17,28 18,40 0,1 0,2 0,3l0 0c1,8 0,14 -1,20 -2,5 -4,10 -8,14 11,12 19,24 25,37 2,4 4,8 5,12l0 0c17,1 28,7 35,14 5,5 7,11 8,17 1,6 0,12 -3,18 -1,3 -3,6 -6,9 2,4 2,8 3,11 1,8 -2,14 -6,19 -3,4 -7,7 -12,9 4,7 6,17 6,27 1,15 -2,31 -5,39 0,0 0,1 -1,1 13,21 24,46 30,76 9,42 9,91 -4,147 0,1 0,1 0,2l0 1c10,19 13,53 8,86 -4,28 -15,55 -33,74 1,1 1,2 1,3 3,8 4,18 2,27 -2,9 -6,18 -13,22 0,0 -1,1 -1,1 0,2 1,5 1,7 1,10 -2,20 -7,28 -5,8 -13,14 -23,16 -2,0 -3,1 -5,1 -6,11 -12,20 -20,28l3 1c29,10 65,21 75,68 3,0 6,-1 10,-1 1,0 2,1 2,1l0 0c17,39 29,78 38,118 9,40 14,80 17,121 17,55 32,110 44,164 12,54 21,107 27,160 0,0 0,1 0,1l0 1 1 2z" class="fil0"/><path d="M684 567c1,-1 2,-2 3,-3 7,-7 21,-23 50,-23 -4,2 -8,6 -11,9 -5,7 -9,15 -9,24 0,7 2,13 5,19 2,4 5,7 9,10 -23,1 -42,-4 -47,-36z" class="fil1"/><path d="M684 567c1,-1 2,-2 3,-3 7,-7 21,-23 50,-23 -4,2 -8,6 -11,9 -5,7 -9,15 -9,24 0,7 2,13 5,19 2,4 5,7 9,10 -23,1 -42,-4 -47,-36z" class="fil2 str0"/><path d="M3179 4424c38,3 68,9 94,13 20,4 37,7 53,8 32,3 55,3 72,4 12,0 20,1 25,1 21,4 41,10 60,19 18,10 35,22 49,39 12,13 8,20 -3,29 -2,1 -4,3 -6,5 -4,3 -9,7 -14,12 -6,5 -12,11 -18,18 -33,31 -70,68 -120,81 -11,3 -22,5 -34,6 -11,1 -22,2 -34,2 -27,-1 -60,0 -92,2 -39,2 -74,5 -89,8 -30,5 -56,19 -82,33 -2,1 -7,3 -9,5 -158,-43 -330,-194 -493,-345 -44,-41 -88,-81 -133,-121 -46,-40 -98,-83 -151,-125 -105,-85 -210,-170 -260,-235 -87,-114 -140,-248 -193,-382 -27,-67 -53,-135 -84,-199l0 0 -258 -630 0 0c3,-36 6,-78 -3,-111 0,0 0,0 0,-1 1,-2 1,-4 2,-6 4,-14 5,-29 4,-43 7,18 14,36 21,54 25,64 50,128 80,190 22,44 42,89 63,133 41,89 82,177 132,261 33,55 69,108 107,159 38,51 78,101 120,150 47,55 95,109 145,163 49,53 99,106 150,158 31,33 72,73 110,109 44,42 83,79 101,93 25,21 92,61 166,104 51,30 107,60 152,90 8,5 15,11 22,16 48,34 169,122 254,178 91,61 181,118 270,172l0 0 0 0c11,7 22,10 33,8 10,-1 20,-7 29,-17 1,-1 1,-3 0,-4 -1,-1 -3,-1 -3,0 -8,9 -17,14 -26,16 -9,1 -19,-1 -29,-7l0 0c-59,-35 -117,-72 -177,-110z" class="fil3"/><path d="M3179 4424c38,3 68,9 94,13 20,4 37,7 53,8 32,3 55,3 72,4 12,0 20,1 25,1 21,4 41,10 60,19 18,10 35,22 49,39 12,13 8,20 -3,29 -2,1 -4,3 -6,5 -4,3 -9,7 -14,12 -6,5 -12,11 -18,18 -33,31 -70,68 -120,81 -11,3 -22,5 -34,6 -11,1 -22,2 -34,2 -27,-1 -60,0 -92,2 -39,2 -74,5 -89,8 -30,5 -56,19 -82,33 -2,1 -7,3 -9,5 -158,-43 -330,-194 -493,-345 -44,-41 -88,-81 -133,-121 -46,-40 -98,-83 -151,-125 -105,-85 -210,-170 -260,-235 -87,-114 -140,-248 -193,-382 -27,-67 -53,-135 -84,-199l0 0 -258 -630 0 0c3,-36 6,-78 -3,-111 0,0 0,0 0,-1 1,-2 1,-4 2,-6 4,-14 5,-29 4,-43 7,18 14,36 21,54 25,64 50,128 80,190 22,44 42,89 63,133 41,89 82,177 132,261 33,55 69,108 107,159 38,51 78,101 120,150 47,55 95,109 145,163 49,53 99,106 150,158 31,33 72,73 110,109 44,42 83,79 101,93 25,21 92,61 166,104 51,30 107,60 152,90 8,5 15,11 22,16 48,34 169,122 254,178 91,61 181,118 270,172l0 0 0 0c11,7 22,10 33,8 10,-1 20,-7 29,-17 1,-1 1,-3 0,-4 -1,-1 -3,-1 -3,0 -8,9 -17,14 -26,16 -9,1 -19,-1 -29,-7l0 0c-59,-35 -117,-72 -177,-110z" class="fil2 str0"/><path d="M1460 1759c-1,0 -2,0 -3,0l-20 -19 -39 103 80 124c0,-21 0,-41 0,-62l-47 -70c0,-1 -1,-1 0,-2l14 -42c0,0 0,-1 1,-1 1,-1 3,-1 4,0l26 23c-3,-17 -8,-35 -15,-54z" class="fil3"/><path d="M1414 1569l-11 19c-1,1 -2,1 -3,1l0 0 -71 -29 59 56c1,1 1,1 1,2l0 0 -6 80 28 -60c1,-1 2,-2 3,-1 0,0 0,0 1,0l10 7c-3,-25 -6,-50 -11,-75z" class="fil3"/><path d="M1477 2086c0,17 -1,34 -1,50l-43 44 24 -70c0,-1 0,-1 0,-2l-26 -82 46 60z" class="fil3"/><path d="M2807 4168l-23 -15c-39,-25 -86,-52 -125,-75 -73,-43 -140,-83 -165,-104 -17,-15 -57,-51 -101,-93 -38,-36 -79,-76 -110,-109 -50,-52 -100,-105 -150,-158 -49,-53 -98,-107 -144,-162 -42,-49 -82,-98 -120,-149 -38,-51 -74,-104 -107,-159 -50,-84 -91,-172 -132,-261 -20,-44 -41,-89 -63,-133 -30,-61 -55,-125 -80,-189 -10,-26 -20,-52 -31,-78 -2,-28 3,-66 8,-105 4,-28 8,-57 9,-81 3,-68 6,-136 7,-204 12,23 26,48 39,73 43,78 89,164 123,238 38,84 77,165 118,246 42,81 86,162 135,247 38,65 66,132 94,200 28,67 56,135 93,199 48,82 99,166 152,248 54,82 111,161 172,234 90,108 200,208 308,306 24,22 48,43 71,65l20 19z" class="fil3"/><path d="M2807 4168l-23 -15c-39,-25 -86,-52 -125,-75 -73,-43 -140,-83 -165,-104 -17,-15 -57,-51 -101,-93 -38,-36 -79,-76 -110,-109 -50,-52 -100,-105 -150,-158 -49,-53 -98,-107 -144,-162 -42,-49 -82,-98 -120,-149 -38,-51 -74,-104 -107,-159 -50,-84 -91,-172 -132,-261 -20,-44 -41,-89 -63,-133 -30,-61 -55,-125 -80,-189 -10,-26 -20,-52 -31,-78 -2,-28 3,-66 8,-105 4,-28 8,-57 9,-81 3,-68 6,-136 7,-204 12,23 26,48 39,73 43,78 89,164 123,238 38,84 77,165 118,246 42,81 86,162 135,247 38,65 66,132 94,200 28,67 56,135 93,199 48,82 99,166 152,248 54,82 111,161 172,234 90,108 200,208 308,306 24,22 48,43 71,65l20 19z" class="fil2 str0"/><path d="M1089 1272c17,7 33,12 48,13 29,60 56,132 81,209 25,78 48,160 70,240 11,40 9,84 7,128 -1,30 -3,61 0,89 5,54 15,106 25,159 4,20 8,40 11,59 -22,-60 -43,-121 -63,-182 -23,-70 -44,-141 -64,-211 -35,-123 -65,-265 -92,-395 -8,-38 -16,-75 -23,-109z" class="fil3"/><path d="M1089 1272c17,7 33,12 48,13 29,60 56,132 81,209 25,78 48,160 70,240 11,40 9,84 7,128 -1,30 -3,61 0,89 5,54 15,106 25,159 4,20 8,40 11,59 -22,-60 -43,-121 -63,-182 -23,-70 -44,-141 -64,-211 -35,-123 -65,-265 -92,-395 -8,-38 -16,-75 -23,-109z" class="fil2 str0"/><path d="M1344 2480c13,15 25,24 36,32 22,17 40,30 54,83 0,1 2,2 3,2 1,0 1,-1 1,-1 6,-9 11,-18 15,-29 9,39 3,88 -1,125 -2,16 -3,30 -3,40 0,2 -1,8 -3,15l-1 4 -1 -7c-1,-12 -3,-24 -3,-36 0,-1 -1,-3 -2,-3 -1,0 -2,1 -2,3 0,12 1,24 3,36 2,14 3,28 2,36 -1,7 -7,15 -14,25 -4,5 -9,12 -13,19 3,-8 5,-16 6,-21 1,-7 0,-17 -2,-29 -2,-17 -5,-40 -3,-65 0,-1 -1,-3 -2,-3 -1,0 -3,1 -3,2 -3,26 0,48 3,66 2,12 3,22 2,28 -1,6 -5,17 -9,29 -8,23 -18,51 -17,72 0,2 -1,4 -3,5 -1,1 -3,1 -5,1 -2,0 -4,-1 -6,-2 -8,-4 -16,-13 -16,-28 -1,-12 4,-26 9,-42 1,-2 1,-3 2,-6 0,0 0,-1 0,-2 -2,-5 -2,-14 -2,-21 0,-9 1,-17 2,-18 1,-1 1,-1 1,-2 -1,-11 -4,-21 -7,-31 -2,-8 -4,-16 -6,-25 -2,-9 -3,-18 -4,-27 -1,-9 -2,-18 -2,-27l0 0c0,0 0,-1 0,-1 -2,-4 -5,-9 -8,-14 -3,-5 -5,-11 -7,-16 0,-1 -1,-1 -1,-1 -1,-1 -3,0 -3,1 -6,11 -7,26 -9,43 -2,22 -4,46 -17,63 -1,2 -3,3 -6,3 -2,0 -5,0 -8,-1l0 0 0 0c-3,-1 -5,-3 -7,-6 -2,-4 -4,-8 -3,-15 1,-13 2,-26 4,-38 4,-32 7,-66 6,-99 0,-9 0,-19 2,-28 2,-10 4,-20 7,-30 8,-25 19,-35 28,-43 5,-5 10,-9 13,-16z" class="fil4"/><path d="M1344 2480c13,15 25,24 36,32 22,17 40,30 54,83 0,1 2,2 3,2 1,0 1,-1 1,-1 6,-9 11,-18 15,-29 9,39 3,88 -1,125 -2,16 -3,30 -3,40 0,2 -1,8 -3,15l-1 4 -1 -7c-1,-12 -3,-24 -3,-36 0,-1 -1,-3 -2,-3 -1,0 -2,1 -2,3 0,12 1,24 3,36 2,14 3,28 2,36 -1,7 -7,15 -14,25 -4,5 -9,12 -13,19 3,-8 5,-16 6,-21 1,-7 0,-17 -2,-29 -2,-17 -5,-40 -3,-65 0,-1 -1,-3 -2,-3 -1,0 -3,1 -3,2 -3,26 0,48 3,66 2,12 3,22 2,28 -1,6 -5,17 -9,29 -8,23 -18,51 -17,72 0,2 -1,4 -3,5 -1,1 -3,1 -5,1 -2,0 -4,-1 -6,-2 -8,-4 -16,-13 -16,-28 -1,-12 4,-26 9,-42 1,-2 1,-3 2,-6 0,0 0,-1 0,-2 -2,-5 -2,-14 -2,-21 0,-9 1,-17 2,-18 1,-1 1,-1 1,-2 -1,-11 -4,-21 -7,-31 -2,-8 -4,-16 -6,-25 -2,-9 -3,-18 -4,-27 -1,-9 -2,-18 -2,-27l0 0c0,0 0,-1 0,-1 -2,-4 -5,-9 -8,-14 -3,-5 -5,-11 -7,-16 0,-1 -1,-1 -1,-1 -1,-1 -3,0 -3,1 -6,11 -7,26 -9,43 -2,22 -4,46 -17,63 -1,2 -3,3 -6,3 -2,0 -5,0 -8,-1l0 0 0 0c-3,-1 -5,-3 -7,-6 -2,-4 -4,-8 -3,-15 1,-13 2,-26 4,-38 4,-32 7,-66 6,-99 0,-9 0,-19 2,-28 2,-10 4,-20 7,-30 8,-25 19,-35 28,-43 5,-5 10,-9 13,-16z" class="fil2 str0"/><path d="M957 1202c11,-4 23,-10 33,-16 18,-11 35,-24 47,-41 0,0 1,0 1,0 41,-4 86,-17 131,-31 46,-14 92,-27 130,-30 17,38 28,76 36,115 8,37 13,74 16,112 -25,7 -48,-3 -75,-15 -37,-16 -80,-35 -140,-17 -28,-1 -61,-18 -99,-38 -25,-13 -52,-27 -81,-39z" class="fil3"/><path d="M957 1202c11,-4 23,-10 33,-16 18,-11 35,-24 47,-41 0,0 1,0 1,0 41,-4 86,-17 131,-31 46,-14 92,-27 130,-30 17,38 28,76 36,115 8,37 13,74 16,112 -25,7 -48,-3 -75,-15 -37,-16 -80,-35 -140,-17 -28,-1 -61,-18 -99,-38 -25,-13 -52,-27 -81,-39z" class="fil2 str0"/><path d="M672 1159c8,-9 15,-20 11,-32 0,-1 -2,-2 -3,-2 -1,0 -2,2 -2,3 4,13 -6,24 -15,34 -2,2 -4,4 -5,6 -8,10 -19,21 -30,33 6,-18 5,-33 9,-51 9,-41 19,-79 64,-123 3,4 6,9 8,14 3,6 5,12 7,19 4,16 2,32 -1,47 -2,15 -4,29 1,39 0,1 1,1 2,1l0 0c26,7 49,11 72,13 22,3 43,3 63,3 1,5 2,10 4,15 -4,0 -7,-1 -11,-1 -5,0 -9,0 -14,0 -17,0 -37,4 -56,11 -19,7 -38,16 -53,27 -1,-2 -3,-4 -4,-6l0 0 0 0c-11,-16 -27,-40 -47,-49z" class="fil3"/><path d="M672 1159c8,-9 15,-20 11,-32 0,-1 -2,-2 -3,-2 -1,0 -2,2 -2,3 4,13 -6,24 -15,34 -2,2 -4,4 -5,6 -8,10 -19,21 -30,33 6,-18 5,-33 9,-51 9,-41 19,-79 64,-123 3,4 6,9 8,14 3,6 5,12 7,19 4,16 2,32 -1,47 -2,15 -4,29 1,39 0,1 1,1 2,1l0 0c26,7 49,11 72,13 22,3 43,3 63,3 1,5 2,10 4,15 -4,0 -7,-1 -11,-1 -5,0 -9,0 -14,0 -17,0 -37,4 -56,11 -19,7 -38,16 -53,27 -1,-2 -3,-4 -4,-6l0 0 0 0c-11,-16 -27,-40 -47,-49z" class="fil2 str0"/><path d="M274 949c-4,1 -9,1 -16,0l0 -1 0 0c1,-5 2,-9 0,-14 -2,-8 -12,-15 -21,-21 -3,-2 -6,-4 -8,-6 -5,-4 -10,-7 -16,-10 -10,-6 -19,-11 -25,-20 -3,-5 -7,-11 -9,-16 -2,-5 -2,-10 1,-13 3,-3 8,-4 13,-3 7,1 15,4 21,8 10,6 18,15 27,24 7,7 14,15 22,21 13,10 27,19 42,28 9,5 17,11 26,16 2,1 4,3 7,5 13,8 26,17 35,29 7,9 10,21 13,33l0 0 1 4 0 0c1,4 1,7 2,11 0,5 1,10 2,14 4,11 13,29 20,41l2 4 0 0c-3,10 -8,18 -16,24 -9,6 -22,9 -41,8 0,0 -1,-1 -1,-1 -23,-8 -52,-28 -79,-48 -27,-20 -51,-42 -66,-56l0 0c0,0 0,0 -1,0 -6,-2 -12,-6 -17,-10 -5,-5 -9,-11 -12,-19l0 0c0,0 0,0 0,0 -9,-15 -20,-29 -31,-43 -9,-11 -18,-23 -25,-34 -3,-4 -2,-5 5,-6 8,0 19,1 23,5 13,10 24,23 34,37 10,13 20,27 33,37 7,5 15,9 23,13 9,4 19,6 28,7 34,5 54,9 67,17 13,7 21,17 31,34 1,1 2,2 3,1 1,-1 2,-2 1,-3 -11,-17 -19,-28 -33,-36 -14,-8 -34,-12 -69,-17 -9,-1 -18,-4 -27,-7 -8,-3 -15,-7 -22,-12 -10,-8 -19,-18 -28,-29 9,1 20,4 30,6 20,5 41,9 51,6 1,0 2,-2 2,-3 0,-1 -2,-2 -3,-2z" class="fil4"/><path d="M274 949c-4,1 -9,1 -16,0l0 -1 0 0c1,-5 2,-9 0,-14 -2,-8 -12,-15 -21,-21 -3,-2 -6,-4 -8,-6 -5,-4 -10,-7 -16,-10 -10,-6 -19,-11 -25,-20 -3,-5 -7,-11 -9,-16 -2,-5 -2,-10 1,-13 3,-3 8,-4 13,-3 7,1 15,4 21,8 10,6 18,15 27,24 7,7 14,15 22,21 13,10 27,19 42,28 9,5 17,11 26,16 2,1 4,3 7,5 13,8 26,17 35,29 7,9 10,21 13,33l0 0 1 4 0 0c1,4 1,7 2,11 0,5 1,10 2,14 4,11 13,29 20,41l2 4 0 0c-3,10 -8,18 -16,24 -9,6 -22,9 -41,8 0,0 -1,-1 -1,-1 -23,-8 -52,-28 -79,-48 -27,-20 -51,-42 -66,-56l0 0c0,0 0,0 -1,0 -6,-2 -12,-6 -17,-10 -5,-5 -9,-11 -12,-19l0 0c0,0 0,0 0,0 -9,-15 -20,-29 -31,-43 -9,-11 -18,-23 -25,-34 -3,-4 -2,-5 5,-6 8,0 19,1 23,5 13,10 24,23 34,37 10,13 20,27 33,37 7,5 15,9 23,13 9,4 19,6 28,7 34,5 54,9 67,17 13,7 21,17 31,34 1,1 2,2 3,1 1,-1 2,-2 1,-3 -11,-17 -19,-28 -33,-36 -14,-8 -34,-12 -69,-17 -9,-1 -18,-4 -27,-7 -8,-3 -15,-7 -22,-12 -10,-8 -19,-18 -28,-29 9,1 20,4 30,6 20,5 41,9 51,6 1,0 2,-2 2,-3 0,-1 -2,-2 -3,-2z" class="fil2 str0"/><path d="M178 990c-6,-3 -12,-7 -18,-12 -6,-5 -10,-11 -13,-18l0 0c0,0 0,0 0,0 -9,-15 -20,-29 -31,-43 -9,-11 -18,-22 -25,-34 -3,-4 1,-5 5,-6 6,0 18,1 23,5 3,2 5,4 8,6 1,1 3,3 4,4 -1,0 -3,0 -4,0 -3,0 -5,1 -7,1 -2,1 -4,2 -5,4 0,2 0,3 1,5l0 0 0 0c8,13 18,25 27,37 11,14 22,27 30,42 1,3 2,6 4,8z" class="fil4"/><path d="M178 990c-6,-3 -12,-7 -18,-12 -6,-5 -10,-11 -13,-18l0 0c0,0 0,0 0,0 -9,-15 -20,-29 -31,-43 -9,-11 -18,-22 -25,-34 -3,-4 1,-5 5,-6 6,0 18,1 23,5 3,2 5,4 8,6 1,1 3,3 4,4 -1,0 -3,0 -4,0 -3,0 -5,1 -7,1 -2,1 -4,2 -5,4 0,2 0,3 1,5l0 0 0 0c8,13 18,25 27,37 11,14 22,27 30,42 1,3 2,6 4,8z" class="fil2 str0"/><path d="M151 975c-4,-2 -7,-4 -11,-6 -7,-5 -13,-11 -16,-19l0 0c0,0 0,0 0,0 0,-1 -1,-2 -1,-2l0 0 0 0 0 0c-8,-14 -19,-27 -29,-40 -9,-11 -18,-22 -25,-34 -2,-3 -3,-6 5,-6 8,0 19,1 23,5l0 0 -1 0c-3,0 -5,1 -7,1 -2,1 -4,2 -5,4 0,2 0,3 1,5l0 0 0 0c8,13 18,25 27,37 11,14 22,27 30,42 2,5 5,10 8,14z" class="fil4"/><path d="M151 975c-4,-2 -7,-4 -11,-6 -7,-5 -13,-11 -16,-19l0 0c0,0 0,0 0,0 0,-1 -1,-2 -1,-2l0 0 0 0 0 0c-8,-14 -19,-27 -29,-40 -9,-11 -18,-22 -25,-34 -2,-3 -3,-6 5,-6 8,0 19,1 23,5l0 0 -1 0c-3,0 -5,1 -7,1 -2,1 -4,2 -5,4 0,2 0,3 1,5l0 0 0 0c8,13 18,25 27,37 11,14 22,27 30,42 2,5 5,10 8,14z" class="fil2 str0"/><path d="M116 946c-20,-1 -54,-28 -83,-51l0 0 0 0c-4,-3 -8,-6 -12,-9 -2,-2 -6,-4 2,-7 7,-3 18,-5 24,-3 4,1 10,5 15,8 4,2 8,5 12,7 5,7 10,13 15,20 9,12 19,24 27,36z" class="fil4"/><path d="M116 946c-20,-1 -54,-28 -83,-51l0 0 0 0c-4,-3 -8,-6 -12,-9 -2,-2 -6,-4 2,-7 7,-3 18,-5 24,-3 4,1 10,5 15,8 4,2 8,5 12,7 5,7 10,13 15,20 9,12 19,24 27,36z" class="fil2 str0"/><path d="M644 1540c4,18 8,37 12,56 8,39 14,80 16,121 5,82 2,160 0,211 -1,15 -1,27 -1,37 0,24 -13,76 -27,136 -14,59 -30,125 -38,179 -12,86 -18,163 -19,243 -1,80 4,162 13,258 5,58 10,118 15,178 5,56 9,111 15,169 8,93 8,187 8,281 0,53 0,107 1,160 2,67 5,133 8,199 5,113 11,226 9,337 -1,50 2,99 4,148 3,55 5,109 4,162 -2,59 -5,113 -8,167 0,5 -1,11 -1,16 -13,-7 -30,-12 -52,-15 -22,-3 -48,-3 -77,0 11,-61 20,-151 28,-248 14,-167 23,-356 25,-465 0,-1 -1,-2 -2,-3 -1,0 -3,1 -3,2 -2,109 -11,298 -25,465 -10,124 -23,236 -38,292 -1,3 -4,6 -8,8 -6,3 -14,5 -17,5 -44,-2 -82,1 -118,4 -30,2 -58,4 -88,4 -22,-1 -42,-3 -56,-8 -7,-2 -12,-5 -16,-9 -3,-3 -5,-7 -5,-11 0,-2 0,-4 1,-6 43,-117 75,-241 100,-368 26,-127 46,-256 65,-387 28,-186 41,-374 55,-562 5,-75 11,-151 17,-227 10,-116 24,-223 38,-333 11,-83 22,-168 31,-259 7,-66 21,-131 35,-196 10,-47 20,-94 28,-142 4,-27 7,-53 10,-80 2,-22 5,-44 8,-66 5,-36 11,-72 17,-109 9,-56 19,-112 25,-169 3,-26 0,-56 -2,-83 0,-6 -1,-11 -1,-16 0,0 0,0 0,-1 6,-13 9,-28 10,-45 1,-10 1,-20 1,-31z" class="fil3"/><path d="M644 1540c4,18 8,37 12,56 8,39 14,80 16,121 5,82 2,160 0,211 -1,15 -1,27 -1,37 0,24 -13,76 -27,136 -14,59 -30,125 -38,179 -12,86 -18,163 -19,243 -1,80 4,162 13,258 5,58 10,118 15,178 5,56 9,111 15,169 8,93 8,187 8,281 0,53 0,107 1,160 2,67 5,133 8,199 5,113 11,226 9,337 -1,50 2,99 4,148 3,55 5,109 4,162 -2,59 -5,113 -8,167 0,5 -1,11 -1,16 -13,-7 -30,-12 -52,-15 -22,-3 -48,-3 -77,0 11,-61 20,-151 28,-248 14,-167 23,-356 25,-465 0,-1 -1,-2 -2,-3 -1,0 -3,1 -3,2 -2,109 -11,298 -25,465 -10,124 -23,236 -38,292 -1,3 -4,6 -8,8 -6,3 -14,5 -17,5 -44,-2 -82,1 -118,4 -30,2 -58,4 -88,4 -22,-1 -42,-3 -56,-8 -7,-2 -12,-5 -16,-9 -3,-3 -5,-7 -5,-11 0,-2 0,-4 1,-6 43,-117 75,-241 100,-368 26,-127 46,-256 65,-387 28,-186 41,-374 55,-562 5,-75 11,-151 17,-227 10,-116 24,-223 38,-333 11,-83 22,-168 31,-259 7,-66 21,-131 35,-196 10,-47 20,-94 28,-142 4,-27 7,-53 10,-80 2,-22 5,-44 8,-66 5,-36 11,-72 17,-109 9,-56 19,-112 25,-169 3,-26 0,-56 -2,-83 0,-6 -1,-11 -1,-16 0,0 0,0 0,-1 6,-13 9,-28 10,-45 1,-10 1,-20 1,-31z" class="fil2 str0"/><path d="M1041 1140c2,-4 5,-8 7,-12 21,-16 40,-32 54,-48 13,-14 21,-28 25,-41 14,1 27,1 39,-2 15,-3 28,-9 40,-18 1,-1 3,-2 4,-3 0,0 1,1 1,1l5 1c28,9 62,20 72,64 -36,4 -77,16 -119,29 -44,13 -88,26 -127,30z" class="fil4"/><path d="M1041 1140c2,-4 5,-8 7,-12 21,-16 40,-32 54,-48 13,-14 21,-28 25,-41 14,1 27,1 39,-2 15,-3 28,-9 40,-18 1,-1 3,-2 4,-3 0,0 1,1 1,1l5 1c28,9 62,20 72,64 -36,4 -77,16 -119,29 -44,13 -88,26 -127,30z" class="fil2 str0"/><path d="M1090 1066c-11,10 -23,17 -36,23 -14,6 -29,9 -46,10 -1,0 -2,1 -2,3 0,1 1,2 3,2 17,-1 33,-5 47,-11 14,-6 27,-14 38,-24 1,-1 1,-2 0,-4 -1,-1 -2,-1 -4,0z" class="fil5"/><path d="M1090 1066c-11,10 -23,17 -36,23 -14,6 -29,9 -46,10 -1,0 -2,1 -2,3 0,1 1,2 3,2 17,-1 33,-5 47,-11 14,-6 27,-14 38,-24 1,-1 1,-2 0,-4 -1,-1 -2,-1 -4,0z" class="fil2 str0"/><path d="M1274 876c-3,-2 -6,-4 -10,-6 -1,0 -2,-1 -3,-1 7,-30 3,-59 -6,-84 0,-1 -1,-2 -1,-2 0,0 0,0 0,0 12,-11 22,-20 29,-30 7,-8 12,-17 17,-27 8,19 10,49 6,80 -4,27 -14,54 -32,71zm-99 -12c-28,7 -57,25 -80,57 -7,9 -13,20 -19,32 -16,5 -30,11 -40,19 -7,-15 -12,-28 -14,-42 -2,-13 -2,-26 1,-38 5,-24 16,-43 30,-58 14,-15 33,-27 53,-38 0,0 0,0 1,0 6,13 18,29 32,42 11,11 23,20 36,26zm20 48c12,-5 25,-6 36,-3 11,3 21,11 30,22 1,3 1,5 1,8 1,9 -1,18 -6,25 -4,7 -11,12 -20,14 -2,0 -3,1 -5,1 -23,-23 -58,-32 -93,-33 -20,-1 -39,2 -56,6 5,-10 11,-19 16,-27 25,-34 55,-51 84,-57 1,0 1,0 2,0l0 0c27,-5 52,-1 71,6 0,1 1,1 1,1 0,0 1,0 1,0 1,0 2,1 3,1 4,2 8,4 11,6 0,0 0,0 1,0 0,1 1,2 1,3 3,7 4,16 2,24 -1,8 -5,15 -11,19 0,0 -1,0 -1,0 -9,-12 -20,-20 -32,-23 -13,-4 -26,-3 -40,3 -1,1 -2,2 -1,3 1,1 2,2 3,1zm-86 -122c-2,-10 -3,-23 -4,-36l0 -2c14,10 23,25 30,38 5,9 9,17 15,22 1,1 3,1 4,0 1,-1 1,-3 0,-4 -5,-5 -9,-12 -14,-21 -8,-14 -17,-31 -34,-42 0,0 0,0 0,0 0,-13 0,-26 2,-41 8,5 23,9 39,12 18,3 37,3 50,2 23,17 42,41 53,69 9,24 13,52 6,80 -19,-7 -45,-11 -72,-6l-1 0c-14,-5 -28,-15 -41,-27 -14,-14 -26,-30 -32,-43 0,-1 -1,-1 -1,-1zm2 -90c20,-20 28,-52 34,-79 3,-14 6,-26 11,-36 16,22 26,43 32,64 6,22 9,43 9,62 0,0 0,1 0,1 -13,2 -31,1 -48,-2 -15,-2 -29,-6 -37,-11zm50 -115c5,1 10,1 16,1 6,0 12,-1 17,-3 22,-8 40,-30 49,-58 18,21 28,40 32,59 5,19 4,38 2,59 0,1 1,3 2,3 1,0 3,-1 3,-2 2,-21 2,-40 -3,-60 -5,-20 -15,-40 -35,-62 0,0 0,0 -1,-1 5,-17 6,-35 4,-54 25,23 45,58 54,103 9,42 9,92 -5,148 0,0 0,0 0,1 -5,12 -11,21 -18,30 -8,10 -17,19 -28,29 -11,-26 -30,-48 -51,-64 0,0 1,-1 1,-2 0,-20 -2,-41 -9,-63 -6,-21 -16,-42 -31,-64zm-565 -362c0,1 1,1 1,2 3,7 8,13 13,18 26,25 55,47 84,69 -21,2 -40,6 -55,11 -17,6 -30,15 -38,28 -1,1 0,3 1,3 1,1 3,0 3,-1 7,-12 19,-20 35,-26 16,-6 36,-9 59,-12 0,0 0,0 0,0 5,4 10,7 14,10 -21,2 -39,5 -53,10 -16,5 -28,12 -35,21 -1,1 -1,3 0,3 1,1 3,1 3,0 3,-3 6,-6 10,-9 0,2 0,5 0,7 0,9 0,18 2,27 -11,10 -21,24 -27,41l0 0c-4,11 -7,23 -8,35 -5,-14 -2,-28 1,-41 2,-11 5,-22 2,-34 -1,-6 -7,-9 -15,-14 -15,-9 -37,-23 -37,-57 0,-16 4,-34 11,-50 7,-17 17,-32 26,-42zm308 -195c1,0 1,-1 2,-1l0 0 0 0c18,-9 43,-12 67,-7 24,5 47,17 60,37 1,1 1,2 2,3 -21,-2 -48,-10 -77,-18 -18,-5 -36,-10 -54,-15zm228 123c-10,-4 -20,-5 -32,-7 -14,-2 -31,-4 -55,-12l0 0c-12,-11 -25,-23 -37,-33 7,-5 19,-6 30,-7 9,-1 18,-2 25,-4 16,4 30,13 42,24 11,11 20,25 28,40zm-78 -11c19,6 33,8 46,9 13,2 24,3 36,9 12,6 22,13 30,21 8,8 13,17 17,27 -2,3 -6,5 -12,8 0,-1 -1,-1 -2,-1 -37,-4 -76,-37 -116,-74zm-50 -45c-12,-10 -26,-18 -40,-23 -16,-6 -32,-8 -49,-8 -13,0 -29,3 -45,8 -14,5 -29,12 -43,21l0 0c-46,1 -67,17 -75,42 -8,24 -2,57 5,93 0,1 1,1 1,2 -1,12 -1,24 0,36 0,1 1,2 3,2 1,0 2,-1 2,-2 22,-43 44,-73 67,-93 23,-20 48,-30 75,-32 42,-4 81,18 121,41 47,27 94,53 146,37 7,-2 13,-5 16,-8 0,0 1,0 1,0 1,0 2,-2 2,-3 5,-8 3,-18 0,-29 -1,-2 -1,-4 -2,-7 6,4 11,8 14,12 7,8 9,17 11,22 1,4 0,8 -3,12 -3,5 -9,9 -16,13 -7,4 -16,8 -26,10 -33,8 -80,5 -125,-26 -31,-21 -62,-32 -92,-36 -31,-4 -61,0 -91,9 -1,0 -2,2 -2,3 0,1 2,2 3,2 29,-9 59,-13 89,-9 30,4 60,15 90,35 46,31 95,35 129,27 11,-3 20,-6 28,-11 8,-4 14,-10 17,-15 2,-3 4,-7 4,-10 11,10 12,24 13,33 0,1 0,2 0,3l0 0c1,7 0,13 -1,18 -2,5 -4,10 -8,13 -12,11 -34,15 -57,14 -28,-1 -57,-9 -73,-20 -1,-1 -3,0 -3,1 -1,1 0,3 1,3 17,11 47,19 76,20 20,1 40,-2 53,-10 -13,21 -34,34 -58,41 -40,12 -86,10 -110,4 -17,-4 -33,-18 -50,-33 -27,-24 -57,-50 -98,-45 -7,-21 -18,-37 -48,-36 -12,1 -23,4 -33,11 -9,6 -18,15 -25,26 -3,5 -6,12 -9,20 -4,12 -9,25 -19,32 -1,1 -1,2 -1,3 1,1 2,1 3,1 11,-8 16,-21 20,-34 3,-7 5,-14 8,-19 7,-11 15,-19 23,-25 9,-6 19,-9 30,-10 36,-2 42,25 49,54 3,13 6,27 12,39 7,14 16,24 30,31 11,5 25,7 42,5 -6,4 -12,8 -18,10 -10,4 -21,5 -32,5 -31,0 -49,-27 -64,-50 -18,-27 -33,-51 -64,-29 -1,1 -1,2 -1,3 1,1 2,1 3,1 9,-7 17,-8 24,-7 -4,4 -8,8 -12,12 -10,10 -20,20 -32,27 -13,8 -26,11 -39,11 -13,0 -25,-4 -36,-12 -6,-4 -10,-8 -15,-11 -31,-23 -62,-45 -89,-72 -5,-5 -9,-10 -12,-16 -3,-6 -4,-12 -5,-18 0,-2 0,-3 0,-5 1,-10 3,-23 8,-34 4,-9 9,-16 15,-18 -1,1 -1,3 -2,4 -5,12 -4,28 -2,39 2,10 7,21 16,31 8,10 19,20 34,31 1,1 3,1 3,-1 1,-1 1,-3 -1,-3 -4,-3 -8,-6 -12,-9 0,-1 0,-1 0,-2 -3,-5 -6,-11 -8,-18 -6,-18 -10,-41 -7,-63 2,-21 10,-41 27,-51 2,-1 4,-2 6,-3 -5,14 -6,30 -5,48 2,20 7,42 16,66 0,1 2,2 3,1 1,0 2,-2 1,-3 -9,-23 -14,-45 -16,-64 -2,-19 1,-37 7,-52 8,-21 25,-37 48,-49 24,-12 57,-21 97,-26 36,-4 85,10 130,23 38,11 73,21 96,19l0 0c1,0 2,0 3,0 7,-1 13,-3 17,-7 2,-2 4,-5 5,-8 1,5 0,10 -1,13 0,1 0,2 0,2l0 0 0 0c-1,8 -6,12 -13,15l0 0c-1,0 -2,0 -3,1 -7,2 -14,3 -22,4 -13,1 -25,3 -33,9zm197 220c10,-8 19,-17 25,-29 10,11 17,22 23,34 6,12 9,24 11,37 -19,-1 -29,-12 -39,-24 -6,-7 -12,-14 -20,-19zm-77 88c-3,-2 -6,-4 -9,-6 -21,-13 -48,-29 -61,-58 26,5 70,7 108,-5 12,-4 24,-9 34,-16 0,0 0,1 1,1 8,5 14,11 20,18 11,13 22,26 45,26 0,0 1,0 1,0 0,0 1,0 1,0 2,0 5,0 7,-1 1,0 2,-1 2,-3 0,-1 -1,-2 -3,-2 -2,0 -4,1 -6,1 -1,-7 -3,-15 -5,-22 14,2 24,6 30,12 4,4 6,9 7,14 1,5 0,10 -3,15 -4,8 -12,16 -23,20 -1,0 -2,2 -1,3 1,1 2,2 3,1 6,-2 12,-6 16,-10 1,3 1,5 2,8 0,6 -1,11 -5,15 -3,4 -9,7 -14,10 -10,4 -22,6 -32,7 -13,1 -30,1 -49,-2 -19,-4 -41,-11 -64,-25l0 0 0 0c0,0 -1,0 -1,-1zm123 57c-1,-8 -4,-16 -6,-23 10,-1 22,-3 31,-7 4,7 5,16 5,25 0,13 -2,27 -4,35 -8,-12 -17,-21 -27,-30zm-122 -50c19,12 38,19 55,23 -2,11 -2,22 -2,33 0,20 0,39 -12,59 2,-29 -9,-45 -21,-61 -10,-15 -20,-29 -20,-53zm-83 -273c41,37 80,73 119,81 -47,10 -90,-14 -134,-39 -40,-23 -80,-45 -124,-41 -28,3 -53,13 -77,33 -22,19 -44,47 -64,86 -1,-32 5,-62 16,-88 13,-32 32,-57 51,-71 0,0 1,0 1,-1l0 0c14,-9 28,-16 42,-21 16,-5 30,-8 43,-8 16,0 32,2 47,8 15,5 29,13 41,24 13,11 26,23 39,35 0,0 1,1 1,1zm-283 81c-6,-31 -10,-60 -3,-81 7,-21 25,-35 63,-38 -18,15 -35,39 -46,68 -6,15 -11,32 -14,50zm-112 16c-4,-4 -8,-8 -12,-13 -8,-10 -13,-19 -15,-29 -2,-11 -3,-25 2,-37 3,-8 8,-14 17,-17 -2,6 -3,13 -4,20 -2,22 1,47 8,65 1,4 3,7 4,11zm581 749c-7,14 -16,24 -26,33 -11,9 -23,14 -38,17 -13,3 -28,3 -43,1 -16,-2 -33,-6 -52,-13 -13,-4 -27,-7 -41,-7 7,-5 17,-10 29,-14 15,-5 33,-8 56,-7 1,0 3,-1 3,-2 0,-1 -1,-3 -2,-3 -23,-1 -42,2 -57,7 -13,5 -24,11 -32,17 -1,-7 0,-13 2,-18 3,-6 7,-12 13,-16 20,-17 61,-28 102,-27 33,1 67,10 89,32zm-210 31c-13,0 -25,2 -38,5 0,0 0,-1 0,-1 -1,-6 -2,-17 1,-28l0 0c2,-8 5,-15 11,-22 1,-1 1,-3 0,-4 -1,-1 -3,-1 -4,0 -7,8 -11,16 -13,24l0 0c-3,12 -2,24 -1,30 0,1 0,1 1,1 -5,1 -10,3 -15,5 -12,4 -23,10 -33,17 -10,-21 -10,-38 -5,-53 3,-9 9,-18 16,-24 7,-7 16,-13 24,-17 21,-11 44,-14 54,-10 0,0 1,0 1,0 2,12 7,25 13,38 -5,4 -9,10 -12,16 -3,6 -4,14 -2,22zm-122 74c11,-27 37,-47 67,-58 34,-13 73,-15 105,-4 19,7 37,11 53,13l1 0c-3,12 -12,25 -24,38 -13,15 -31,31 -51,46 0,0 -1,-1 -2,-1 -17,0 -33,-1 -48,-3 -38,-4 -71,-7 -96,19 -3,-6 -4,-13 -5,-21 -1,-10 -1,-20 0,-28 0,0 0,-1 0,-1zm53 112c-20,7 -40,12 -58,15 -3,-16 -4,-29 -2,-42 2,-12 7,-23 14,-31 23,-26 56,-22 93,-18 15,2 30,3 46,3 -12,24 -32,42 -55,55 -12,7 -25,13 -38,18 0,0 -1,0 -1,0zm-52 -58c-7,9 -11,19 -13,31 -2,12 -1,25 1,39 -2,-2 -4,-5 -6,-7 -7,-8 -13,-18 -17,-28 -5,-13 -7,-27 -5,-40 2,-13 8,-25 18,-34 4,-4 9,-7 15,-10 -1,7 -1,16 0,24 1,9 3,18 7,25zm22 115c-2,27 -24,41 -46,56 -24,16 -48,32 -48,64 0,40 30,58 58,75 24,14 45,27 44,52 -1,13 -1,26 -7,37 -4,7 -10,14 -20,20 4,-3 7,-6 9,-10 7,-9 9,-19 9,-31 0,-14 -18,-28 -40,-47 -36,-29 -82,-68 -80,-121 1,-29 11,-64 29,-90 14,-20 34,-36 59,-41 2,3 5,5 7,8 8,9 17,18 25,27 0,0 0,1 0,1zm5 4c17,21 31,41 31,60 0,30 -20,49 -37,64 -11,10 -21,19 -22,29 -1,12 11,23 23,35 13,12 27,26 26,41 -1,36 -13,56 -27,67 -6,5 -12,8 -19,10 13,-7 21,-15 26,-24 6,-12 7,-25 7,-39 1,-28 -22,-42 -47,-57 -27,-16 -56,-33 -56,-71 0,-29 23,-45 46,-60 22,-15 44,-29 48,-56zm-269 -734c1,3 2,6 3,9 3,9 7,18 12,24 -16,-7 -28,-17 -37,-27 -13,-15 -19,-33 -21,-51 -2,-18 1,-37 7,-53l0 0c6,-15 14,-29 24,-38 2,4 4,8 7,11 4,5 7,10 8,15 1,16 -1,32 -3,48 -1,9 -2,17 -3,26 -2,8 -1,20 2,32 0,1 0,2 1,2zm13 -38l17 -15 72 3 4 17 -67 -17c-1,0 -1,0 -2,0l-25 11z" class="fil6"/><path d="M1274 876c-3,-2 -6,-4 -10,-6 -1,0 -2,-1 -3,-1 7,-30 3,-59 -6,-84 0,-1 -1,-2 -1,-2 0,0 0,0 0,0 12,-11 22,-20 29,-30 7,-8 12,-17 17,-27 8,19 10,49 6,80 -4,27 -14,54 -32,71zm-99 -12c-28,7 -57,25 -80,57 -7,9 -13,20 -19,32 -16,5 -30,11 -40,19 -7,-15 -12,-28 -14,-42 -2,-13 -2,-26 1,-38 5,-24 16,-43 30,-58 14,-15 33,-27 53,-38 0,0 0,0 1,0 6,13 18,29 32,42 11,11 23,20 36,26zm20 48c12,-5 25,-6 36,-3 11,3 21,11 30,22 1,3 1,5 1,8 1,9 -1,18 -6,25 -4,7 -11,12 -20,14 -2,0 -3,1 -5,1 -23,-23 -58,-32 -93,-33 -20,-1 -39,2 -56,6 5,-10 11,-19 16,-27 25,-34 55,-51 84,-57 1,0 1,0 2,0l0 0c27,-5 52,-1 71,6 0,1 1,1 1,1 0,0 1,0 1,0 1,0 2,1 3,1 4,2 8,4 11,6 0,0 0,0 1,0 0,1 1,2 1,3 3,7 4,16 2,24 -1,8 -5,15 -11,19 0,0 -1,0 -1,0 -9,-12 -20,-20 -32,-23 -13,-4 -26,-3 -40,3 -1,1 -2,2 -1,3 1,1 2,2 3,1zm-86 -122c-2,-10 -3,-23 -4,-36l0 -2c14,10 23,25 30,38 5,9 9,17 15,22 1,1 3,1 4,0 1,-1 1,-3 0,-4 -5,-5 -9,-12 -14,-21 -8,-14 -17,-31 -34,-42 0,0 0,0 0,0 0,-13 0,-26 2,-41 8,5 23,9 39,12 18,3 37,3 50,2 23,17 42,41 53,69 9,24 13,52 6,80 -19,-7 -45,-11 -72,-6l-1 0c-14,-5 -28,-15 -41,-27 -14,-14 -26,-30 -32,-43 0,-1 -1,-1 -1,-1zm2 -90c20,-20 28,-52 34,-79 3,-14 6,-26 11,-36 16,22 26,43 32,64 6,22 9,43 9,62 0,0 0,1 0,1 -13,2 -31,1 -48,-2 -15,-2 -29,-6 -37,-11zm50 -115c5,1 10,1 16,1 6,0 12,-1 17,-3 22,-8 40,-30 49,-58 18,21 28,40 32,59 5,19 4,38 2,59 0,1 1,3 2,3 1,0 3,-1 3,-2 2,-21 2,-40 -3,-60 -5,-20 -15,-40 -35,-62 0,0 0,0 -1,-1 5,-17 6,-35 4,-54 25,23 45,58 54,103 9,42 9,92 -5,148 0,0 0,0 0,1 -5,12 -11,21 -18,30 -8,10 -17,19 -28,29 -11,-26 -30,-48 -51,-64 0,0 1,-1 1,-2 0,-20 -2,-41 -9,-63 -6,-21 -16,-42 -31,-64zm-565 -362c0,1 1,1 1,2 3,7 8,13 13,18 26,25 55,47 84,69 -21,2 -40,6 -55,11 -17,6 -30,15 -38,28 -1,1 0,3 1,3 1,1 3,0 3,-1 7,-12 19,-20 35,-26 16,-6 36,-9 59,-12 0,0 0,0 0,0 5,4 10,7 14,10 -21,2 -39,5 -53,10 -16,5 -28,12 -35,21 -1,1 -1,3 0,3 1,1 3,1 3,0 3,-3 6,-6 10,-9 0,2 0,5 0,7 0,9 0,18 2,27 -11,10 -21,24 -27,41l0 0c-4,11 -7,23 -8,35 -5,-14 -2,-28 1,-41 2,-11 5,-22 2,-34 -1,-6 -7,-9 -15,-14 -15,-9 -37,-23 -37,-57 0,-16 4,-34 11,-50 7,-17 17,-32 26,-42zm308 -195c1,0 1,-1 2,-1l0 0 0 0c18,-9 43,-12 67,-7 24,5 47,17 60,37 1,1 1,2 2,3 -21,-2 -48,-10 -77,-18 -18,-5 -36,-10 -54,-15zm228 123c-10,-4 -20,-5 -32,-7 -14,-2 -31,-4 -55,-12l0 0c-12,-11 -25,-23 -37,-33 7,-5 19,-6 30,-7 9,-1 18,-2 25,-4 16,4 30,13 42,24 11,11 20,25 28,40zm-78 -11c19,6 33,8 46,9 13,2 24,3 36,9 12,6 22,13 30,21 8,8 13,17 17,27 -2,3 -6,5 -12,8 0,-1 -1,-1 -2,-1 -37,-4 -76,-37 -116,-74zm-50 -45c-12,-10 -26,-18 -40,-23 -16,-6 -32,-8 -49,-8 -13,0 -29,3 -45,8 -14,5 -29,12 -43,21l0 0c-46,1 -67,17 -75,42 -8,24 -2,57 5,93 0,1 1,1 1,2 -1,12 -1,24 0,36 0,1 1,2 3,2 1,0 2,-1 2,-2 22,-43 44,-73 67,-93 23,-20 48,-30 75,-32 42,-4 81,18 121,41 47,27 94,53 146,37 7,-2 13,-5 16,-8 0,0 1,0 1,0 1,0 2,-2 2,-3 5,-8 3,-18 0,-29 -1,-2 -1,-4 -2,-7 6,4 11,8 14,12 7,8 9,17 11,22 1,4 0,8 -3,12 -3,5 -9,9 -16,13 -7,4 -16,8 -26,10 -33,8 -80,5 -125,-26 -31,-21 -62,-32 -92,-36 -31,-4 -61,0 -91,9 -1,0 -2,2 -2,3 0,1 2,2 3,2 29,-9 59,-13 89,-9 30,4 60,15 90,35 46,31 95,35 129,27 11,-3 20,-6 28,-11 8,-4 14,-10 17,-15 2,-3 4,-7 4,-10 11,10 12,24 13,33 0,1 0,2 0,3l0 0c1,7 0,13 -1,18 -2,5 -4,10 -8,13 -12,11 -34,15 -57,14 -28,-1 -57,-9 -73,-20 -1,-1 -3,0 -3,1 -1,1 0,3 1,3 17,11 47,19 76,20 20,1 40,-2 53,-10 -13,21 -34,34 -58,41 -40,12 -86,10 -110,4 -17,-4 -33,-18 -50,-33 -27,-24 -57,-50 -98,-45 -7,-21 -18,-37 -48,-36 -12,1 -23,4 -33,11 -9,6 -18,15 -25,26 -3,5 -6,12 -9,20 -4,12 -9,25 -19,32 -1,1 -1,2 -1,3 1,1 2,1 3,1 11,-8 16,-21 20,-34 3,-7 5,-14 8,-19 7,-11 15,-19 23,-25 9,-6 19,-9 30,-10 36,-2 42,25 49,54 3,13 6,27 12,39 7,14 16,24 30,31 11,5 25,7 42,5 -6,4 -12,8 -18,10 -10,4 -21,5 -32,5 -31,0 -49,-27 -64,-50 -18,-27 -33,-51 -64,-29 -1,1 -1,2 -1,3 1,1 2,1 3,1 9,-7 17,-8 24,-7 -4,4 -8,8 -12,12 -10,10 -20,20 -32,27 -13,8 -26,11 -39,11 -13,0 -25,-4 -36,-12 -6,-4 -10,-8 -15,-11 -31,-23 -62,-45 -89,-72 -5,-5 -9,-10 -12,-16 -3,-6 -4,-12 -5,-18 0,-2 0,-3 0,-5 1,-10 3,-23 8,-34 4,-9 9,-16 15,-18 -1,1 -1,3 -2,4 -5,12 -4,28 -2,39 2,10 7,21 16,31 8,10 19,20 34,31 1,1 3,1 3,-1 1,-1 1,-3 -1,-3 -4,-3 -8,-6 -12,-9 0,-1 0,-1 0,-2 -3,-5 -6,-11 -8,-18 -6,-18 -10,-41 -7,-63 2,-21 10,-41 27,-51 2,-1 4,-2 6,-3 -5,14 -6,30 -5,48 2,20 7,42 16,66 0,1 2,2 3,1 1,0 2,-2 1,-3 -9,-23 -14,-45 -16,-64 -2,-19 1,-37 7,-52 8,-21 25,-37 48,-49 24,-12 57,-21 97,-26 36,-4 85,10 130,23 38,11 73,21 96,19l0 0c1,0 2,0 3,0 7,-1 13,-3 17,-7 2,-2 4,-5 5,-8 1,5 0,10 -1,13 0,1 0,2 0,2l0 0 0 0c-1,8 -6,12 -13,15l0 0c-1,0 -2,0 -3,1 -7,2 -14,3 -22,4 -13,1 -25,3 -33,9zm197 220c10,-8 19,-17 25,-29 10,11 17,22 23,34 6,12 9,24 11,37 -19,-1 -29,-12 -39,-24 -6,-7 -12,-14 -20,-19zm-77 88c-3,-2 -6,-4 -9,-6 -21,-13 -48,-29 -61,-58 26,5 70,7 108,-5 12,-4 24,-9 34,-16 0,0 0,1 1,1 8,5 14,11 20,18 11,13 22,26 45,26 0,0 1,0 1,0 0,0 1,0 1,0 2,0 5,0 7,-1 1,0 2,-1 2,-3 0,-1 -1,-2 -3,-2 -2,0 -4,1 -6,1 -1,-7 -3,-15 -5,-22 14,2 24,6 30,12 4,4 6,9 7,14 1,5 0,10 -3,15 -4,8 -12,16 -23,20 -1,0 -2,2 -1,3 1,1 2,2 3,1 6,-2 12,-6 16,-10 1,3 1,5 2,8 0,6 -1,11 -5,15 -3,4 -9,7 -14,10 -10,4 -22,6 -32,7 -13,1 -30,1 -49,-2 -19,-4 -41,-11 -64,-25l0 0 0 0c0,0 -1,0 -1,-1zm123 57c-1,-8 -4,-16 -6,-23 10,-1 22,-3 31,-7 4,7 5,16 5,25 0,13 -2,27 -4,35 -8,-12 -17,-21 -27,-30zm-122 -50c19,12 38,19 55,23 -2,11 -2,22 -2,33 0,20 0,39 -12,59 2,-29 -9,-45 -21,-61 -10,-15 -20,-29 -20,-53zm-83 -273c41,37 80,73 119,81 -47,10 -90,-14 -134,-39 -40,-23 -80,-45 -124,-41 -28,3 -53,13 -77,33 -22,19 -44,47 -64,86 -1,-32 5,-62 16,-88 13,-32 32,-57 51,-71 0,0 1,0 1,-1l0 0c14,-9 28,-16 42,-21 16,-5 30,-8 43,-8 16,0 32,2 47,8 15,5 29,13 41,24 13,11 26,23 39,35 0,0 1,1 1,1zm-283 81c-6,-31 -10,-60 -3,-81 7,-21 25,-35 63,-38 -18,15 -35,39 -46,68 -6,15 -11,32 -14,50zm-112 16c-4,-4 -8,-8 -12,-13 -8,-10 -13,-19 -15,-29 -2,-11 -3,-25 2,-37 3,-8 8,-14 17,-17 -2,6 -3,13 -4,20 -2,22 1,47 8,65 1,4 3,7 4,11zm581 749c-7,14 -16,24 -26,33 -11,9 -23,14 -38,17 -13,3 -28,3 -43,1 -16,-2 -33,-6 -52,-13 -13,-4 -27,-7 -41,-7 7,-5 17,-10 29,-14 15,-5 33,-8 56,-7 1,0 3,-1 3,-2 0,-1 -1,-3 -2,-3 -23,-1 -42,2 -57,7 -13,5 -24,11 -32,17 -1,-7 0,-13 2,-18 3,-6 7,-12 13,-16 20,-17 61,-28 102,-27 33,1 67,10 89,32zm-210 31c-13,0 -25,2 -38,5 0,0 0,-1 0,-1 -1,-6 -2,-17 1,-28l0 0c2,-8 5,-15 11,-22 1,-1 1,-3 0,-4 -1,-1 -3,-1 -4,0 -7,8 -11,16 -13,24l0 0c-3,12 -2,24 -1,30 0,1 0,1 1,1 -5,1 -10,3 -15,5 -12,4 -23,10 -33,17 -10,-21 -10,-38 -5,-53 3,-9 9,-18 16,-24 7,-7 16,-13 24,-17 21,-11 44,-14 54,-10 0,0 1,0 1,0 2,12 7,25 13,38 -5,4 -9,10 -12,16 -3,6 -4,14 -2,22zm-122 74c11,-27 37,-47 67,-58 34,-13 73,-15 105,-4 19,7 37,11 53,13l1 0c-3,12 -12,25 -24,38 -13,15 -31,31 -51,46 0,0 -1,-1 -2,-1 -17,0 -33,-1 -48,-3 -38,-4 -71,-7 -96,19 -3,-6 -4,-13 -5,-21 -1,-10 -1,-20 0,-28 0,0 0,-1 0,-1zm53 112c-20,7 -40,12 -58,15 -3,-16 -4,-29 -2,-42 2,-12 7,-23 14,-31 23,-26 56,-22 93,-18 15,2 30,3 46,3 -12,24 -32,42 -55,55 -12,7 -25,13 -38,18 0,0 -1,0 -1,0zm-52 -58c-7,9 -11,19 -13,31 -2,12 -1,25 1,39 -2,-2 -4,-5 -6,-7 -7,-8 -13,-18 -17,-28 -5,-13 -7,-27 -5,-40 2,-13 8,-25 18,-34 4,-4 9,-7 15,-10 -1,7 -1,16 0,24 1,9 3,18 7,25zm22 115c-2,27 -24,41 -46,56 -24,16 -48,32 -48,64 0,40 30,58 58,75 24,14 45,27 44,52 -1,13 -1,26 -7,37 -4,7 -10,14 -20,20 4,-3 7,-6 9,-10 7,-9 9,-19 9,-31 0,-14 -18,-28 -40,-47 -36,-29 -82,-68 -80,-121 1,-29 11,-64 29,-90 14,-20 34,-36 59,-41 2,3 5,5 7,8 8,9 17,18 25,27 0,0 0,1 0,1zm5 4c17,21 31,41 31,60 0,30 -20,49 -37,64 -11,10 -21,19 -22,29 -1,12 11,23 23,35 13,12 27,26 26,41 -1,36 -13,56 -27,67 -6,5 -12,8 -19,10 13,-7 21,-15 26,-24 6,-12 7,-25 7,-39 1,-28 -22,-42 -47,-57 -27,-16 -56,-33 -56,-71 0,-29 23,-45 46,-60 22,-15 44,-29 48,-56zm-269 -734c1,3 2,6 3,9 3,9 7,18 12,24 -16,-7 -28,-17 -37,-27 -13,-15 -19,-33 -21,-51 -2,-18 1,-37 7,-53l0 0c6,-15 14,-29 24,-38 2,4 4,8 7,11 4,5 7,10 8,15 1,16 -1,32 -3,48 -1,9 -2,17 -3,26 -2,8 -1,20 2,32 0,1 0,2 1,2zm13 -38l17 -15 72 3 4 17 -67 -17c-1,0 -1,0 -2,0l-25 11z" class="fil2 str0"/><path d="M659 524c-2,-9 -3,-17 -3,-24l38 -17 70 17c1,0 3,0 3,-2 0,0 0,-1 0,-1l0 0 -5 -23c0,-1 -1,-2 -3,-2l-75 -3c-1,0 -1,0 -2,1l-25 22c1,-8 2,-16 3,-25 2,-16 4,-33 3,-49 -1,-7 -5,-12 -9,-18 -3,-4 -6,-8 -7,-13 -2,-9 -3,-18 -3,-28 0,-3 0,-7 0,-10 5,-3 11,-5 17,-7 15,-5 34,-8 57,-10 0,0 1,0 1,0 10,6 21,9 33,9 14,0 28,-4 41,-12 12,-7 23,-17 33,-27 5,-5 9,-9 14,-13 10,5 19,18 28,32 16,25 34,52 68,52 11,0 23,-2 33,-6 10,-4 19,-9 27,-17l0 0c1,-1 1,-1 1,-2 0,-1 -2,-2 -3,-2 -20,5 -35,3 -48,-2 -12,-6 -21,-16 -27,-28 -6,-11 -9,-25 -12,-38 -1,-6 -3,-12 -4,-18 38,-4 67,21 93,44 17,15 33,29 51,34 13,33 42,50 64,64 3,2 6,3 8,5 -2,28 9,43 20,59 12,17 24,34 19,68 0,1 1,3 2,3 1,0 2,0 2,-1l0 0c18,-23 18,-46 19,-70 0,-2 0,-5 0,-7 2,-2 4,-4 6,-5 2,-1 4,-2 7,-2 8,1 15,4 19,10 5,6 8,15 8,25 0,2 0,4 0,6l0 0c0,8 0,9 -5,19 -2,4 -3,7 -4,11 -2,9 -4,18 -21,18 -1,0 -1,0 -2,0 -2,-1 -4,-2 -5,-4 -1,-2 -2,-4 -2,-7 0,-1 0,-2 0,-3 0,-1 0,-3 -2,-3 -1,0 -3,0 -3,2 0,1 -1,3 -1,4 0,4 1,7 3,10 2,3 5,5 8,6 1,0 2,1 4,1 20,0 23,-11 26,-21 1,-4 2,-7 3,-10 6,-11 6,-12 6,-22l0 0c0,-2 0,-3 0,-6 0,-11 -3,-21 -9,-28 -5,-7 -13,-11 -23,-12 -3,0 -7,1 -10,2 -1,1 -2,1 -3,2 0,-6 1,-12 2,-18 1,0 2,0 3,1 18,3 35,3 48,3 0,0 0,0 0,1 11,30 11,60 3,86 -8,27 -25,49 -46,57 -5,2 -10,2 -16,2 -8,0 -15,-1 -21,-3l0 0c-1,0 -2,0 -3,1 -6,10 -9,24 -13,41 -6,27 -14,58 -34,77 -34,33 -80,70 -123,97 -35,22 -68,37 -89,36 -17,-1 -35,-10 -56,-25 -20,-15 -42,-36 -65,-58 -11,-11 -22,-21 -32,-30 -28,-25 -49,-44 -54,-67 -2,-9 -1,-19 0,-30 1,-9 2,-18 1,-27 14,17 38,14 62,11 16,-2 31,-4 43,0 1,0 3,0 3,-2 0,0 0,-1 0,-1l0 0c-3,-17 -9,-31 -16,-43 -1,-2 -2,-3 -3,-5 -3,-5 -7,-9 -10,-13 -17,-18 -39,-28 -56,-29 -4,0 -8,0 -12,1 -7,2 -13,6 -18,12 0,1 -1,1 -1,2 -9,0 -17,-1 -23,-5z" class="fil4"/><path d="M659 524c-2,-9 -3,-17 -3,-24l38 -17 70 17c1,0 3,0 3,-2 0,0 0,-1 0,-1l0 0 -5 -23c0,-1 -1,-2 -3,-2l-75 -3c-1,0 -1,0 -2,1l-25 22c1,-8 2,-16 3,-25 2,-16 4,-33 3,-49 -1,-7 -5,-12 -9,-18 -3,-4 -6,-8 -7,-13 -2,-9 -3,-18 -3,-28 0,-3 0,-7 0,-10 5,-3 11,-5 17,-7 15,-5 34,-8 57,-10 0,0 1,0 1,0 10,6 21,9 33,9 14,0 28,-4 41,-12 12,-7 23,-17 33,-27 5,-5 9,-9 14,-13 10,5 19,18 28,32 16,25 34,52 68,52 11,0 23,-2 33,-6 10,-4 19,-9 27,-17l0 0c1,-1 1,-1 1,-2 0,-1 -2,-2 -3,-2 -20,5 -35,3 -48,-2 -12,-6 -21,-16 -27,-28 -6,-11 -9,-25 -12,-38 -1,-6 -3,-12 -4,-18 38,-4 67,21 93,44 17,15 33,29 51,34 13,33 42,50 64,64 3,2 6,3 8,5 -2,28 9,43 20,59 12,17 24,34 19,68 0,1 1,3 2,3 1,0 2,0 2,-1l0 0c18,-23 18,-46 19,-70 0,-2 0,-5 0,-7 2,-2 4,-4 6,-5 2,-1 4,-2 7,-2 8,1 15,4 19,10 5,6 8,15 8,25 0,2 0,4 0,6l0 0c0,8 0,9 -5,19 -2,4 -3,7 -4,11 -2,9 -4,18 -21,18 -1,0 -1,0 -2,0 -2,-1 -4,-2 -5,-4 -1,-2 -2,-4 -2,-7 0,-1 0,-2 0,-3 0,-1 0,-3 -2,-3 -1,0 -3,0 -3,2 0,1 -1,3 -1,4 0,4 1,7 3,10 2,3 5,5 8,6 1,0 2,1 4,1 20,0 23,-11 26,-21 1,-4 2,-7 3,-10 6,-11 6,-12 6,-22l0 0c0,-2 0,-3 0,-6 0,-11 -3,-21 -9,-28 -5,-7 -13,-11 -23,-12 -3,0 -7,1 -10,2 -1,1 -2,1 -3,2 0,-6 1,-12 2,-18 1,0 2,0 3,1 18,3 35,3 48,3 0,0 0,0 0,1 11,30 11,60 3,86 -8,27 -25,49 -46,57 -5,2 -10,2 -16,2 -8,0 -15,-1 -21,-3l0 0c-1,0 -2,0 -3,1 -6,10 -9,24 -13,41 -6,27 -14,58 -34,77 -34,33 -80,70 -123,97 -35,22 -68,37 -89,36 -17,-1 -35,-10 -56,-25 -20,-15 -42,-36 -65,-58 -11,-11 -22,-21 -32,-30 -28,-25 -49,-44 -54,-67 -2,-9 -1,-19 0,-30 1,-9 2,-18 1,-27 14,17 38,14 62,11 16,-2 31,-4 43,0 1,0 3,0 3,-2 0,0 0,-1 0,-1l0 0c-3,-17 -9,-31 -16,-43 -1,-2 -2,-3 -3,-5 -3,-5 -7,-9 -10,-13 -17,-18 -39,-28 -56,-29 -4,0 -8,0 -12,1 -7,2 -13,6 -18,12 0,1 -1,1 -1,2 -9,0 -17,-1 -23,-5z" class="fil2 str0"/><path d="M984 702c-5,-1 -10,-3 -14,-5 -4,-2 -8,-5 -12,-8 -1,-1 -3,-1 -4,0 -1,1 -1,3 0,4 3,2 6,5 10,7 -3,2 -5,4 -7,6 -4,3 -8,6 -13,8 -8,4 -16,7 -26,9 -4,1 -8,0 -13,-1 -7,-1 -14,-2 -21,0 -7,2 -11,6 -14,10 -2,2 -3,3 -5,4 -2,1 -6,0 -11,-1 -6,-1 -14,-3 -18,-1l0 0c-5,2 -8,5 -12,9 -2,1 -3,3 -5,4 -1,1 -1,2 0,3 1,1 2,1 3,0 1,0 1,-1 2,-1 7,7 14,13 22,17 8,4 17,6 26,6 38,-1 54,-22 71,-42 6,-7 11,-14 18,-20 3,-2 6,-5 9,-8l0 0c4,2 9,4 13,5 1,0 3,0 3,-2 0,-1 0,-3 -2,-3z" class="fil0"/><path d="M984 702c-5,-1 -10,-3 -14,-5 -4,-2 -8,-5 -12,-8 -1,-1 -3,-1 -4,0 -1,1 -1,3 0,4 3,2 6,5 10,7 -3,2 -5,4 -7,6 -4,3 -8,6 -13,8 -8,4 -16,7 -26,9 -4,1 -8,0 -13,-1 -7,-1 -14,-2 -21,0 -7,2 -11,6 -14,10 -2,2 -3,3 -5,4 -2,1 -6,0 -11,-1 -6,-1 -14,-3 -18,-1l0 0c-5,2 -8,5 -12,9 -2,1 -3,3 -5,4 -1,1 -1,2 0,3 1,1 2,1 3,0 1,0 1,-1 2,-1 7,7 14,13 22,17 8,4 17,6 26,6 38,-1 54,-22 71,-42 6,-7 11,-14 18,-20 3,-2 6,-5 9,-8l0 0c4,2 9,4 13,5 1,0 3,0 3,-2 0,-1 0,-3 -2,-3z" class="fil2 str0"/><path d="M688 529c4,-5 8,-8 14,-9 3,-1 6,-1 10,-1 11,1 23,5 35,13 -14,-5 -30,-4 -46,-3 -5,0 -9,1 -13,1z" class="fil4"/><path d="M688 529c4,-5 8,-8 14,-9 3,-1 6,-1 10,-1 11,1 23,5 35,13 -14,-5 -30,-4 -46,-3 -5,0 -9,1 -13,1z" class="fil2 str0"/><path d="M927 726c6,-2 12,-4 18,-7 -2,2 -4,5 -6,7 -16,20 -32,40 -67,41 -8,0 -16,-2 -23,-5 -7,-4 -14,-9 -20,-15l0 0c1,-1 3,-2 4,-3 14,9 31,12 48,10 16,-3 32,-11 47,-26 0,0 0,0 0,-1z" class="fil5"/><path d="M927 726c6,-2 12,-4 18,-7 -2,2 -4,5 -6,7 -16,20 -32,40 -67,41 -8,0 -16,-2 -23,-5 -7,-4 -14,-9 -20,-15l0 0c1,-1 3,-2 4,-3 14,9 31,12 48,10 16,-3 32,-11 47,-26 0,0 0,0 0,-1z" class="fil2 str0"/><path d="M836 740c1,0 2,-1 2,-1l0 0c3,-1 9,0 15,1 5,1 10,2 13,1 3,-1 5,-3 7,-5 3,-3 6,-6 12,-8 6,-2 12,-1 19,0 5,1 10,1 14,1 -12,11 -26,18 -39,20 -15,3 -30,0 -43,-8z" class="fil5"/><path d="M836 740c1,0 2,-1 2,-1l0 0c3,-1 9,0 15,1 5,1 10,2 13,1 3,-1 5,-3 7,-5 3,-3 6,-6 12,-8 6,-2 12,-1 19,0 5,1 10,1 14,1 -12,11 -26,18 -39,20 -15,3 -30,0 -43,-8z" class="fil2 str0"/><path d="M935 569c21,-4 42,-10 61,-18 4,-1 8,-3 11,-5 5,-2 10,-5 14,-8 23,-14 38,-33 34,-56 6,-6 10,-13 12,-21 2,-8 3,-17 1,-26 0,-1 -2,-2 -3,-2 0,0 -1,0 -1,0l0 0c-8,6 -23,11 -39,16 -14,4 -29,9 -42,16 0,0 -1,0 -1,0 -21,2 -37,8 -49,15 -9,6 -15,13 -19,21 -4,8 -5,17 -4,26 1,13 7,26 15,39 0,0 1,1 1,1l0 0c0,1 2,2 3,1l0 0c2,0 3,-1 5,-1z" class="fil0"/><path d="M935 569c21,-4 42,-10 61,-18 4,-1 8,-3 11,-5 5,-2 10,-5 14,-8 23,-14 38,-33 34,-56 6,-6 10,-13 12,-21 2,-8 3,-17 1,-26 0,-1 -2,-2 -3,-2 0,0 -1,0 -1,0l0 0c-8,6 -23,11 -39,16 -14,4 -29,9 -42,16 0,0 -1,0 -1,0 -21,2 -37,8 -49,15 -9,6 -15,13 -19,21 -4,8 -5,17 -4,26 1,13 7,26 15,39 0,0 1,1 1,1l0 0c0,1 2,2 3,1l0 0c2,0 3,-1 5,-1z" class="fil2 str0"/><path d="M932 565c-6,-15 -6,-28 0,-40 3,-7 8,-15 14,-22 -1,3 -1,6 -1,10 0,11 5,21 12,28 6,6 14,10 23,11 -14,5 -30,9 -45,12l-3 1z" class="fil1"/><path d="M932 565c-6,-15 -6,-28 0,-40 3,-7 8,-15 14,-22 -1,3 -1,6 -1,10 0,11 5,21 12,28 6,6 14,10 23,11 -14,5 -30,9 -45,12l-3 1z" class="fil2 str0"/><path d="M995 547c-3,1 -6,1 -10,1 -10,0 -19,-4 -25,-10 -6,-6 -10,-15 -10,-25 0,-8 3,-16 8,-22 2,-2 4,-3 5,-5 1,-1 1,-1 2,-2 6,-4 13,-6 20,-6 3,0 5,0 8,1 2,1 5,2 8,3 4,2 7,4 10,7 6,6 10,15 10,25 0,10 -4,18 -10,25 -2,2 -3,3 -5,4 -3,2 -7,3 -10,5z" class="fil1"/><path d="M995 547c-3,1 -6,1 -10,1 -10,0 -19,-4 -25,-10 -6,-6 -10,-15 -10,-25 0,-8 3,-16 8,-22 2,-2 4,-3 5,-5 1,-1 1,-1 2,-2 6,-4 13,-6 20,-6 3,0 5,0 8,1 2,1 5,2 8,3 4,2 7,4 10,7 6,6 10,15 10,25 0,10 -4,18 -10,25 -2,2 -3,3 -5,4 -3,2 -7,3 -10,5z" class="fil2 str0"/><path d="M1020 534c4,-6 6,-13 6,-21 0,-11 -5,-21 -12,-28l-1 -1c13,2 27,1 37,0 3,20 -10,37 -30,50z" class="fil1"/><path d="M1020 534c4,-6 6,-13 6,-21 0,-11 -5,-21 -12,-28l-1 -1c13,2 27,1 37,0 3,20 -10,37 -30,50z" class="fil2 str0"/><path d="M739 603c-5,-3 -9,-7 -12,-12 -3,-5 -4,-10 -4,-16 0,-8 3,-15 8,-21 5,-6 11,-10 19,-12 5,1 10,2 16,3l1 1c0,0 1,1 1,1 -2,0 -3,-1 -5,-1 -7,0 -13,3 -17,7 -4,4 -7,10 -7,17 0,6 3,12 7,17l0 0c4,4 10,7 17,7 7,0 13,-2 17,-6 3,-3 6,-8 7,-12 3,8 6,16 8,25 -12,-3 -27,-1 -42,1 -4,1 -8,1 -12,1z" class="fil1"/><path d="M739 603c-5,-3 -9,-7 -12,-12 -3,-5 -4,-10 -4,-16 0,-8 3,-15 8,-21 5,-6 11,-10 19,-12 5,1 10,2 16,3l1 1c0,0 1,1 1,1 -2,0 -3,-1 -5,-1 -7,0 -13,3 -17,7 -4,4 -7,10 -7,17 0,6 3,12 7,17l0 0c4,4 10,7 17,7 7,0 13,-2 17,-6 3,-3 6,-8 7,-12 3,8 6,16 8,25 -12,-3 -27,-1 -42,1 -4,1 -8,1 -12,1z" class="fil2 str0"/><path d="M751 554c1,1 1,2 1,4 0,2 -1,4 -2,5 -1,1 -3,2 -6,2 -2,0 -4,-1 -5,-2 -1,-1 -2,-3 -2,-5 0,-2 1,-4 2,-5 1,-1 3,-2 5,-2 2,0 4,1 5,2 0,0 0,0 0,0 0,1 1,1 1,2z" class="fil1"/><path d="M751 554c1,1 1,2 1,4 0,2 -1,4 -2,5 -1,1 -3,2 -6,2 -2,0 -4,-1 -5,-2 -1,-1 -2,-3 -2,-5 0,-2 1,-4 2,-5 1,-1 3,-2 5,-2 2,0 4,1 5,2 0,0 0,0 0,0 0,1 1,1 1,2z" class="fil2 str0"/><path d="M874 693c5,2 13,1 20,-2 3,-1 6,-3 9,-6l0 0c2,-3 4,-6 4,-9 0,-4 -2,-8 -6,-12 -1,-1 -2,-1 -4,0 -1,1 -1,2 0,4 3,4 5,7 5,9 0,2 -1,4 -2,6l0 0c-2,2 -4,4 -7,5 -6,3 -13,3 -17,2 -1,0 -3,0 -3,2 0,1 0,3 2,3z" class="fil0"/><path d="M874 693c5,2 13,1 20,-2 3,-1 6,-3 9,-6l0 0c2,-3 4,-6 4,-9 0,-4 -2,-8 -6,-12 -1,-1 -2,-1 -4,0 -1,1 -1,2 0,4 3,4 5,7 5,9 0,2 -1,4 -2,6l0 0c-2,2 -4,4 -7,5 -6,3 -13,3 -17,2 -1,0 -3,0 -3,2 0,1 0,3 2,3z" class="fil2 str0"/><path d="M821 696c2,4 4,7 6,10 -2,0 -5,0 -6,0 -1,0 -3,-1 -4,-2 -1,-1 -2,-2 -2,-3 -1,-2 -1,-5 0,-9 0,-1 0,-3 -2,-3 -1,0 -3,0 -3,2 -1,5 -1,9 0,12 1,2 2,4 4,5 2,1 4,2 6,3 4,1 8,1 13,-1 1,0 2,1 3,1 7,2 15,1 23,-2 1,0 2,-2 2,-3 0,-1 -2,-2 -3,-2 -7,3 -14,3 -20,2 -1,0 -1,0 -2,-1 0,-1 -1,-1 -2,-1 -3,-2 -6,-5 -8,-10 -1,-1 -2,-2 -3,-1 -1,1 -2,2 -1,3z" class="fil0"/><path d="M821 696c2,4 4,7 6,10 -2,0 -5,0 -6,0 -1,0 -3,-1 -4,-2 -1,-1 -2,-2 -2,-3 -1,-2 -1,-5 0,-9 0,-1 0,-3 -2,-3 -1,0 -3,0 -3,2 -1,5 -1,9 0,12 1,2 2,4 4,5 2,1 4,2 6,3 4,1 8,1 13,-1 1,0 2,1 3,1 7,2 15,1 23,-2 1,0 2,-2 2,-3 0,-1 -2,-2 -3,-2 -7,3 -14,3 -20,2 -1,0 -1,0 -2,-1 0,-1 -1,-1 -2,-1 -3,-2 -6,-5 -8,-10 -1,-1 -2,-2 -3,-1 -1,1 -2,2 -1,3z" class="fil2 str0"/><path d="M774 518c2,3 3,5 5,7 20,29 38,55 41,109 0,1 1,2 3,2 1,0 2,-1 2,-3 -2,-55 -21,-82 -42,-111 -2,-3 -4,-5 -5,-7 -1,-1 -2,-1 -3,-1 -1,1 -1,2 -1,3z" class="fil0"/><path d="M774 518c2,3 3,5 5,7 20,29 38,55 41,109 0,1 1,2 3,2 1,0 2,-1 2,-3 -2,-55 -21,-82 -42,-111 -2,-3 -4,-5 -5,-7 -1,-1 -2,-1 -3,-1 -1,1 -1,2 -1,3z" class="fil2 str0"/><path d="M1032 423c1,0 2,-1 2,-2 0,-1 -1,-3 -2,-3 -10,-2 -19,-3 -29,-4 -10,-1 -20,-1 -30,1l0 0 0 0c0,0 0,0 -1,0l-119 38c0,0 -1,0 -1,0 -1,1 -1,2 -1,3l13 19 0 0c1,1 2,1 3,1 19,-6 38,-13 56,-20 18,-8 36,-16 54,-27l54 -7z" class="fil0"/><path d="M1032 423c1,0 2,-1 2,-2 0,-1 -1,-3 -2,-3 -10,-2 -19,-3 -29,-4 -10,-1 -20,-1 -30,1l0 0 0 0c0,0 0,0 -1,0l-119 38c0,0 -1,0 -1,0 -1,1 -1,2 -1,3l13 19 0 0c1,1 2,1 3,1 19,-6 38,-13 56,-20 18,-8 36,-16 54,-27l54 -7z" class="fil2 str0"/><path d="M1046 1955c0,0 0,0 1,0l0 0c0,0 0,0 0,1l0 40c0,0 0,0 0,1l0 0c0,0 0,0 0,0l-8 0c0,0 0,0 -1,0 0,0 0,0 0,-1l0 -40c0,0 0,0 0,-1l0 0c0,0 0,0 1,0l8 0z" class="fil7"/><path d="M1046 1955c0,0 0,0 1,0l0 0c0,0 0,0 0,1l0 40c0,0 0,0 0,1l0 0c0,0 0,0 0,0l-8 0c0,0 0,0 -1,0 0,0 0,0 0,-1l0 -40c0,0 0,0 0,-1l0 0c0,0 0,0 1,0l8 0z" class="fil2 str0"/><path d="M1048 1934c1,1 2,3 2,5 0,2 -1,4 -2,5 -1,1 -3,2 -5,2 -2,0 -4,-1 -5,-2 -1,-1 -2,-3 -2,-5 0,-2 1,-4 2,-5 1,-1 3,-2 5,-2 2,0 4,1 5,2z" class="fil7"/><path d="M1048 1934c1,1 2,3 2,5 0,2 -1,4 -2,5 -1,1 -3,2 -5,2 -2,0 -4,-1 -5,-2 -1,-1 -2,-3 -2,-5 0,-2 1,-4 2,-5 1,-1 3,-2 5,-2 2,0 4,1 5,2z" class="fil2 str0"/><path d="M1013 2013c-2,0 -4,-1 -6,-2 -1,-2 -2,-4 -2,-6 0,-2 1,-4 2,-6 1,-2 4,-2 6,-2 2,0 4,1 6,2 1,2 2,4 2,6 0,2 -1,4 -2,6 -2,2 -4,2 -6,2z" class="fil7"/><path d="M1013 2013c-2,0 -4,-1 -6,-2 -1,-2 -2,-4 -2,-6 0,-2 1,-4 2,-6 1,-2 4,-2 6,-2 2,0 4,1 6,2 1,2 2,4 2,6 0,2 -1,4 -2,6 -2,2 -4,2 -6,2z" class="fil2 str0"/><path d="M988 1979c0,0 1,0 1,0l0 0c0,0 0,1 0,1l0 47c0,0 0,1 0,1 0,0 -1,0 -1,0l-9 0c0,0 -1,0 -1,0 0,0 0,-1 0,-1l0 -47c0,0 0,-1 0,-1l0 0c0,0 1,0 1,0l9 0z" class="fil7"/><path d="M988 1979c0,0 1,0 1,0l0 0c0,0 0,1 0,1l0 47c0,0 0,1 0,1 0,0 -1,0 -1,0l-9 0c0,0 -1,0 -1,0 0,0 0,-1 0,-1l0 -47c0,0 0,-1 0,-1l0 0c0,0 1,0 1,0l9 0z" class="fil2 str0"/><path d="M990 1955c2,2 3,4 3,6 0,2 -1,5 -3,6 -2,2 -4,3 -6,3 -2,0 -5,-1 -6,-3 -2,-2 -3,-4 -3,-6 0,-2 1,-5 3,-6 2,-2 4,-3 6,-3 2,0 5,1 6,3z" class="fil7"/><path d="M990 1955c2,2 3,4 3,6 0,2 -1,5 -3,6 -2,2 -4,3 -6,3 -2,0 -5,-1 -6,-3 -2,-2 -3,-4 -3,-6 0,-2 1,-5 3,-6 2,-2 4,-3 6,-3 2,0 5,1 6,3z" class="fil2 str0"/><path d="M952 2045c-3,0 -5,-1 -7,-3 -2,-2 -3,-4 -3,-7 0,-3 1,-5 3,-7 2,-2 4,-3 7,-3 3,0 5,1 7,3 2,2 3,4 3,7 0,3 -1,5 -3,7 -2,2 -4,3 -7,3z" class="fil7"/><path d="M952 2045c-3,0 -5,-1 -7,-3 -2,-2 -3,-4 -3,-7 0,-3 1,-5 3,-7 2,-2 4,-3 7,-3 3,0 5,1 7,3 2,2 3,4 3,7 0,3 -1,5 -3,7 -2,2 -4,3 -7,3z" class="fil2 str0"/><path d="M922 2006c1,0 1,0 1,1l0 0c0,0 1,1 1,1l0 56c0,1 0,1 -1,2l0 0c0,0 -1,1 -1,1l-11 0c-1,0 -1,0 -1,-1l0 0c0,0 -1,-1 -1,-2l0 -56c0,-1 0,-1 1,-2l0 0c0,0 1,-1 1,-1l11 0z" class="fil7"/><path d="M922 2006c1,0 1,0 1,1l0 0c0,0 1,1 1,1l0 56c0,1 0,1 -1,2l0 0c0,0 -1,1 -1,1l-11 0c-1,0 -1,0 -1,-1l0 0c0,0 -1,-1 -1,-2l0 -56c0,-1 0,-1 1,-2l0 0c0,0 1,-1 1,-1l11 0z" class="fil2 str0"/><path d="M925 1977c2,2 3,5 3,8 0,3 -1,6 -3,8 -2,2 -5,3 -8,3 -3,0 -6,-1 -8,-3 -2,-2 -3,-5 -3,-8 0,-3 1,-6 3,-8 2,-2 5,-3 8,-3 3,0 6,1 8,3z" class="fil7"/><path d="M925 1977c2,2 3,5 3,8 0,3 -1,6 -3,8 -2,2 -5,3 -8,3 -3,0 -6,-1 -8,-3 -2,-2 -3,-5 -3,-8 0,-3 1,-6 3,-8 2,-2 5,-3 8,-3 3,0 6,1 8,3z" class="fil2 str0"/><path d="M694 2035c1,0 1,0 2,1l0 0c1,1 1,1 1,2l0 66c0,1 0,2 -1,2 -1,1 -1,1 -2,1l-13 0c-1,0 -1,0 -2,-1 -1,-1 -1,-1 -1,-2l0 -66c0,-1 0,-2 1,-2l0 0c1,0 1,-1 2,-1l13 0z" class="fil7"/><path d="M694 2035c1,0 1,0 2,1l0 0c1,1 1,1 1,2l0 66c0,1 0,2 -1,2 -1,1 -1,1 -2,1l-13 0c-1,0 -1,0 -2,-1 -1,-1 -1,-1 -1,-2l0 -66c0,-1 0,-2 1,-2l0 0c1,0 1,-1 2,-1l13 0z" class="fil2 str0"/><path d="M681 2031c-2,0 -4,1 -5,2l0 0c-1,1 -2,3 -2,6l0 66c0,2 1,4 2,6 1,1 3,2 5,2l13 0c2,0 4,-1 5,-2 1,-1 2,-3 2,-6l0 -66c0,-2 -1,-4 -2,-6l0 0 0 0 0 0c-1,-1 -3,-2 -5,-2l-13 0z" class="fil7"/><path d="M681 2031c-2,0 -4,1 -5,2l0 0c-1,1 -2,3 -2,6l0 66c0,2 1,4 2,6 1,1 3,2 5,2l13 0c2,0 4,-1 5,-2 1,-1 2,-3 2,-6l0 -66c0,-2 -1,-4 -2,-6l0 0 0 0 0 0c-1,-1 -3,-2 -5,-2l-13 0z" class="fil2 str0"/><path d="M697 2002c2,2 4,6 4,9 0,4 -1,7 -4,9 -2,2 -6,4 -9,4 -4,0 -7,-1 -9,-4 -2,-2 -4,-6 -4,-9 0,-4 1,-7 4,-9 2,-2 6,-4 9,-4 4,0 7,1 9,4z" class="fil7"/><path d="M697 2002c2,2 4,6 4,9 0,4 -1,7 -4,9 -2,2 -6,4 -9,4 -4,0 -7,-1 -9,-4 -2,-2 -4,-6 -4,-9 0,-4 1,-7 4,-9 2,-2 6,-4 9,-4 4,0 7,1 9,4z" class="fil2 str0"/><path d="M877 2058c-1,0 -1,0 -2,-1 -1,-1 -1,-1 -1,-2l0 -66c0,-1 0,-2 1,-2 1,-1 1,-1 2,-1l13 0c1,0 1,0 2,1 1,1 1,1 1,2l0 66c0,1 0,1 -1,2l0 0c-1,1 -1,1 -2,1l-13 0z" class="fil7"/><path d="M877 2058c-1,0 -1,0 -2,-1 -1,-1 -1,-1 -1,-2l0 -66c0,-1 0,-2 1,-2 1,-1 1,-1 2,-1l13 0c1,0 1,0 2,1 1,1 1,1 1,2l0 66c0,1 0,1 -1,2l0 0c-1,1 -1,1 -2,1l-13 0z" class="fil2 str0"/><path d="M897 2095c3,-3 5,-8 5,-13 0,-5 -2,-10 -5,-13 -3,-3 -8,-5 -13,-5 -5,0 -9,2 -13,5 -3,3 -5,8 -5,13 0,5 2,10 5,13 3,3 8,5 13,5 5,0 9,-2 13,-5z" class="fil7"/><path d="M897 2095c3,-3 5,-8 5,-13 0,-5 -2,-10 -5,-13 -3,-3 -8,-5 -13,-5 -5,0 -9,2 -13,5 -3,3 -5,8 -5,13 0,5 2,10 5,13 3,3 8,5 13,5 5,0 9,-2 13,-5z" class="fil2 str0"/><path d="M884 2095c-4,0 -7,-1 -9,-4 -2,-2 -4,-6 -4,-9 0,-4 1,-7 4,-9 2,-2 6,-4 9,-4 4,0 7,1 9,4 2,2 4,6 4,9 0,4 -1,7 -4,9 -2,2 -6,4 -9,4z" class="fil7"/><path d="M884 2095c-4,0 -7,-1 -9,-4 -2,-2 -4,-6 -4,-9 0,-4 1,-7 4,-9 2,-2 6,-4 9,-4 4,0 7,1 9,4 2,2 4,6 4,9 0,4 -1,7 -4,9 -2,2 -6,4 -9,4z" class="fil2 str0"/><path d="M853 2038c1,0 2,0 2,1l0 0c1,1 1,1 1,2l0 71c0,1 0,2 -1,2l0 0c-1,1 -1,1 -2,1l-14 0c-1,0 -2,0 -2,-1l0 0c-1,-1 -1,-1 -1,-2l0 -71c0,-1 0,-2 1,-2l0 0c1,-1 1,-1 2,-1l14 0z" class="fil7"/><path d="M853 2038c1,0 2,0 2,1l0 0c1,1 1,1 1,2l0 71c0,1 0,2 -1,2l0 0c-1,1 -1,1 -2,1l-14 0c-1,0 -2,0 -2,-1l0 0c-1,-1 -1,-1 -1,-2l0 -71c0,-1 0,-2 1,-2l0 0c1,-1 1,-1 2,-1l14 0z" class="fil2 str0"/><path d="M857 2002c3,3 4,6 4,10 0,4 -2,8 -4,10 -3,3 -6,4 -10,4 -4,0 -8,-2 -10,-4 -3,-3 -4,-6 -4,-10 0,-4 2,-8 4,-10 3,-3 6,-4 10,-4 4,0 8,2 10,4z" class="fil7"/><path d="M857 2002c3,3 4,6 4,10 0,4 -2,8 -4,10 -3,3 -6,4 -10,4 -4,0 -8,-2 -10,-4 -3,-3 -4,-6 -4,-10 0,-4 2,-8 4,-10 3,-3 6,-4 10,-4 4,0 8,2 10,4z" class="fil2 str0"/><path d="M717 2096c-1,0 -2,0 -2,-1 -1,-1 -1,-1 -1,-2l0 -67c0,-1 0,-2 1,-2l0 0 0 0c1,-1 1,-1 2,-1l13 0c1,0 2,0 2,1 1,1 1,1 1,2l0 67c0,1 0,2 -1,2 -1,1 -1,1 -2,1l-13 0z" class="fil7"/><path d="M717 2096c-1,0 -2,0 -2,-1 -1,-1 -1,-1 -1,-2l0 -67c0,-1 0,-2 1,-2l0 0 0 0c1,-1 1,-1 2,-1l13 0c1,0 2,0 2,1 1,1 1,1 1,2l0 67c0,1 0,2 -1,2 -1,1 -1,1 -2,1l-13 0z" class="fil2 str0"/><path d="M737 2134c3,-3 5,-8 5,-13 0,-5 -2,-10 -5,-13 -3,-3 -8,-5 -13,-5 -5,0 -10,2 -13,5 -3,3 -5,8 -5,13 0,5 2,10 5,13 3,3 8,5 13,5 5,0 10,-2 13,-5z" class="fil7"/><path d="M737 2134c3,-3 5,-8 5,-13 0,-5 -2,-10 -5,-13 -3,-3 -8,-5 -13,-5 -5,0 -10,2 -13,5 -3,3 -5,8 -5,13 0,5 2,10 5,13 3,3 8,5 13,5 5,0 10,-2 13,-5z" class="fil2 str0"/><path d="M724 2134c-4,0 -7,-2 -10,-4 -2,-2 -4,-6 -4,-10 0,-4 2,-7 4,-10 2,-2 6,-4 10,-4 4,0 7,2 10,4 2,2 4,6 4,10 0,4 -2,7 -4,10 -2,2 -6,4 -10,4z" class="fil7"/><path d="M724 2134c-4,0 -7,-2 -10,-4 -2,-2 -4,-6 -4,-10 0,-4 2,-7 4,-10 2,-2 6,-4 10,-4 4,0 7,2 10,4 2,2 4,6 4,10 0,4 -2,7 -4,10 -2,2 -6,4 -10,4z" class="fil2 str0"/><path d="M821 2141c4,-4 6,-9 6,-15 0,-6 -2,-11 -6,-15 -4,-4 -9,-6 -15,-6 -6,0 -11,2 -15,6 -4,4 -6,9 -6,15 0,6 2,11 6,15 4,4 9,6 15,6 6,0 11,-2 15,-6z" class="fil7"/><path d="M821 2141c4,-4 6,-9 6,-15 0,-6 -2,-11 -6,-15 -4,-4 -9,-6 -15,-6 -6,0 -11,2 -15,6 -4,4 -6,9 -6,15 0,6 2,11 6,15 4,4 9,6 15,6 6,0 11,-2 15,-6z" class="fil2 str0"/><path d="M806 2142c-4,0 -9,-2 -11,-5 -3,-3 -5,-7 -5,-12 0,-5 2,-9 5,-12 3,-3 7,-5 11,-5 4,0 9,2 11,5 3,3 5,7 5,12 0,5 -2,9 -5,12 -3,3 -7,5 -11,5z" class="fil7"/><path d="M806 2142c-4,0 -9,-2 -11,-5 -3,-3 -5,-7 -5,-12 0,-5 2,-9 5,-12 3,-3 7,-5 11,-5 4,0 9,2 11,5 3,3 5,7 5,12 0,5 -2,9 -5,12 -3,3 -7,5 -11,5z" class="fil2 str0"/><path d="M773 2071l0 77c0,1 0,2 -1,3l0 0c-1,1 -2,1 -3,1l-15 0c-1,0 -2,0 -3,-1 -1,-1 -1,-2 -1,-3l0 -76c0,-1 0,-1 0,-2l0 -1c0,-1 0,-2 1,-3l0 0c1,-1 2,-1 3,-1l15 0c1,0 2,0 3,1 1,1 1,2 1,3l0 1c0,0 0,1 0,1z" class="fil7"/><path d="M773 2071l0 77c0,1 0,2 -1,3l0 0c-1,1 -2,1 -3,1l-15 0c-1,0 -2,0 -3,-1 -1,-1 -1,-2 -1,-3l0 -76c0,-1 0,-1 0,-2l0 -1c0,-1 0,-2 1,-3l0 0c1,-1 2,-1 3,-1l15 0c1,0 2,0 3,1 1,1 1,2 1,3l0 1c0,0 0,1 0,1z" class="fil2 str0"/><path d="M691 1993c-1,0 -2,0 -3,0 -3,0 -5,1 -8,2l-3 -4 -3 -4 1 -12c4,4 8,9 12,14 1,2 3,3 4,5z" class="fil7"/><path d="M691 1993c-1,0 -2,0 -3,0 -3,0 -5,1 -8,2l-3 -4 -3 -4 1 -12c4,4 8,9 12,14 1,2 3,3 4,5z" class="fil2 str0"/><path d="M719 2018l-2 0c-2,0 -4,1 -6,2l0 0c-1,1 -2,3 -2,6l0 5c-1,-1 -2,-2 -3,-3 -2,-2 -3,-4 -5,-5 2,-3 4,-7 4,-11 0,-1 0,-1 0,-2 4,4 9,7 14,9z" class="fil7"/><path d="M719 2018l-2 0c-2,0 -4,1 -6,2l0 0c-1,1 -2,3 -2,6l0 5c-1,-1 -2,-2 -3,-3 -2,-2 -3,-4 -5,-5 2,-3 4,-7 4,-11 0,-1 0,-1 0,-2 4,4 9,7 14,9z" class="fil2 str0"/><path d="M761 2021c0,0 1,0 1,0 5,0 9,2 11,5 3,3 5,7 5,12 0,5 -2,9 -5,12 -3,3 -7,5 -11,5 -4,0 -9,-2 -11,-5 -3,-3 -5,-7 -5,-12 0,-5 2,-9 5,-12 2,-2 4,-3 6,-4 1,0 3,0 4,-1z" class="fil7"/><path d="M761 2021c0,0 1,0 1,0 5,0 9,2 11,5 3,3 5,7 5,12 0,5 -2,9 -5,12 -3,3 -7,5 -11,5 -4,0 -9,-2 -11,-5 -3,-3 -5,-7 -5,-12 0,-5 2,-9 5,-12 2,-2 4,-3 6,-4 1,0 3,0 4,-1z" class="fil2 str0"/><path d="M789 2014c0,0 0,1 0,1l0 47 -7 3 0 0 -4 2c0,-2 -1,-3 -2,-4 -2,-2 -4,-3 -6,-3l-15 0c-2,0 -4,1 -6,2l0 0c-1,1 -2,2 -2,3 -1,-1 -2,-1 -3,-2 -2,-2 -4,-3 -5,-4l0 -33c0,-1 0,-2 -1,-3 3,0 6,0 9,0 -3,4 -5,9 -5,14 0,6 2,11 6,15 4,4 9,6 15,6 6,0 11,-2 15,-6 4,-4 6,-9 6,-15 0,-6 -2,-11 -6,-15 -2,-2 -3,-3 -5,-4 3,-1 6,-2 8,-2 3,-1 6,-2 9,-2z" class="fil7"/><path d="M789 2014c0,0 0,1 0,1l0 47 -7 3 0 0 -4 2c0,-2 -1,-3 -2,-4 -2,-2 -4,-3 -6,-3l-15 0c-2,0 -4,1 -6,2l0 0c-1,1 -2,2 -2,3 -1,-1 -2,-1 -3,-2 -2,-2 -4,-3 -5,-4l0 -33c0,-1 0,-2 -1,-3 3,0 6,0 9,0 -3,4 -5,9 -5,14 0,6 2,11 6,15 4,4 9,6 15,6 6,0 11,-2 15,-6 4,-4 6,-9 6,-15 0,-6 -2,-11 -6,-15 -2,-2 -3,-3 -5,-4 3,-1 6,-2 8,-2 3,-1 6,-2 9,-2z" class="fil2 str0"/><path d="M798 2011l15 0c1,0 2,0 3,1 1,1 1,2 1,3l0 78c0,1 0,2 -1,3l0 0c-1,1 -2,1 -3,1l-15 0c-1,0 -2,0 -3,-1 -1,-1 -1,-2 -1,-3l0 -78c0,-1 0,-2 1,-3l0 0c0,0 0,0 0,0l3 -1z" class="fil7"/><path d="M798 2011l15 0c1,0 2,0 3,1 1,1 1,2 1,3l0 78c0,1 0,2 -1,3l0 0c-1,1 -2,1 -3,1l-15 0c-1,0 -2,0 -3,-1 -1,-1 -1,-2 -1,-3l0 -78c0,-1 0,-2 1,-3l0 0c0,0 0,0 0,0l3 -1z" class="fil2 str0"/><path d="M869 1989c0,0 0,0 0,1l0 35 -8 4 -9 4c0,0 -1,0 -1,1l-13 0c-2,0 -4,1 -6,2l0 0 0 0 0 0c-1,2 -2,4 -2,6l0 2 -6 3 0 0 -4 2 0 -32c0,-2 -1,-5 -3,-6 -1,-1 -3,-2 -5,-3 6,-2 11,-3 17,-5 -2,3 -3,7 -3,11 0,5 2,10 6,14 3,4 8,6 14,6 5,0 10,-2 14,-6 3,-4 6,-8 6,-14 0,-5 -2,-10 -6,-14 -2,-2 -4,-3 -7,-4 5,-2 11,-3 16,-5z" class="fil7"/><path d="M869 1989c0,0 0,0 0,1l0 35 -8 4 -9 4c0,0 -1,0 -1,1l-13 0c-2,0 -4,1 -6,2l0 0 0 0 0 0c-1,2 -2,4 -2,6l0 2 -6 3 0 0 -4 2 0 -32c0,-2 -1,-5 -3,-6 -1,-1 -3,-2 -5,-3 6,-2 11,-3 17,-5 -2,3 -3,7 -3,11 0,5 2,10 6,14 3,4 8,6 14,6 5,0 10,-2 14,-6 3,-4 6,-8 6,-14 0,-5 -2,-10 -6,-14 -2,-2 -4,-3 -7,-4 5,-2 11,-3 16,-5z" class="fil2 str0"/><path d="M903 1977c-1,2 -2,5 -2,7 0,4 2,8 5,11 3,3 7,5 11,5 0,0 1,0 1,0l0 0 -7 0c-2,0 -4,1 -5,2l0 0c-1,1 -2,3 -2,4l-7 3 0 -21c0,-2 -1,-4 -2,-6 -1,-1 -3,-2 -4,-2 4,-1 8,-3 12,-4z" class="fil7"/><path d="M903 1977c-1,2 -2,5 -2,7 0,4 2,8 5,11 3,3 7,5 11,5 0,0 1,0 1,0l0 0 -7 0c-2,0 -4,1 -5,2l0 0c-1,1 -2,3 -2,4l-7 3 0 -21c0,-2 -1,-4 -2,-6 -1,-1 -3,-2 -4,-2 4,-1 8,-3 12,-4z" class="fil2 str0"/><path d="M940 1965l0 24 -10 5 0 0 0 0c2,-3 3,-6 3,-10 0,-4 -2,-8 -5,-11 -1,-1 -3,-2 -4,-3 5,-2 11,-4 16,-6z" class="fil7"/><path d="M940 1965l0 24 -10 5 0 0 0 0c2,-3 3,-6 3,-10 0,-4 -2,-8 -5,-11 -1,-1 -3,-2 -4,-3 5,-2 11,-4 16,-6z" class="fil2 str0"/><path d="M946 1963c0,0 0,0 0,0l10 0c0,0 1,0 1,0l0 0c0,0 0,1 0,1l0 50c0,0 0,1 0,1l0 0c0,0 -1,0 -1,0l-10 0c0,0 -1,0 -1,0l0 0c0,0 0,-1 0,-1l0 -50c0,0 0,-1 0,-1l0 0c0,0 0,0 0,0l0 0z" class="fil7"/><path d="M946 1963c0,0 0,0 0,0l10 0c0,0 1,0 1,0l0 0c0,0 0,1 0,1l0 50c0,0 0,1 0,1l0 0c0,0 -1,0 -1,0l-10 0c0,0 -1,0 -1,0l0 0c0,0 0,-1 0,-1l0 -50c0,0 0,-1 0,-1l0 0c0,0 0,0 0,0l0 0z" class="fil2 str0"/><path d="M973 1953c-2,2 -2,5 -2,8 0,4 2,7 4,10 0,0 0,0 0,0l-12 6 0 -14c0,-2 -1,-3 -2,-5l0 0c-1,-1 -1,-1 -2,-1l7 -2 7 -2z" class="fil7"/><path d="M973 1953c-2,2 -2,5 -2,8 0,4 2,7 4,10 0,0 0,0 0,0l-12 6 0 -14c0,-2 -1,-3 -2,-5l0 0c-1,-1 -1,-1 -2,-1l7 -2 7 -2z" class="fil2 str0"/><path d="M1002 1944l0 15 -4 2c0,-3 -2,-6 -4,-9 -2,-2 -3,-3 -6,-3l14 -5z" class="fil7"/><path d="M1002 1944l0 15 -4 2c0,-3 -2,-6 -4,-9 -2,-2 -3,-3 -6,-3l14 -5z" class="fil2 str0"/><path d="M1012 1940l5 0c0,0 1,0 1,0l0 0c0,0 0,1 0,1l0 45c0,0 0,1 0,1l0 0c0,0 -1,0 -1,0l-9 0c0,0 -1,0 -1,0l0 0 0 0c0,0 0,-1 0,-1l0 -45 5 -2z" class="fil7"/><path d="M1012 1940l5 0c0,0 1,0 1,0l0 0c0,0 0,1 0,1l0 45c0,0 0,1 0,1l0 0c0,0 -1,0 -1,0l-9 0c0,0 -1,0 -1,0l0 0 0 0c0,0 0,-1 0,-1l0 -45 5 -2z" class="fil2 str0"/><path d="M1032 1943l-5 2 -4 2 0 -6c0,-2 -1,-3 -2,-4l11 -4c-1,2 -2,4 -2,6 0,1 0,3 1,4z" class="fil7"/><path d="M1032 1943l-5 2 -4 2 0 -6c0,-2 -1,-3 -2,-4l11 -4c-1,2 -2,4 -2,6 0,1 0,3 1,4z" class="fil2 str0"/><path d="M637 1570l-25 22 20 5c2,-9 4,-18 5,-28z" class="fil3"/><path d="M637 1570l-25 22 20 5c2,-9 4,-18 5,-28z" class="fil2 str0"/><path d="M407 1484c5,2 14,10 27,18l-28 -76c0,0 0,-1 0,-1l10 -92 -28 35c5,40 10,77 18,117z" class="fil3"/><path d="M407 1484c5,2 14,10 27,18l-28 -76c0,0 0,-1 0,-1l10 -92 -28 35c5,40 10,77 18,117z" class="fil2 str0"/><path d="M596 1664l-62 -50 -85 0c6,12 12,23 19,34 0,0 0,0 1,0l61 2c1,0 1,0 2,1l42 34c0,0 0,0 1,1 3,-2 7,-5 10,-8 4,-4 9,-8 13,-13z" class="fil3"/><path d="M596 1664l-62 -50 -85 0c6,12 12,23 19,34 0,0 0,0 1,0l61 2c1,0 1,0 2,1l42 34c0,0 0,0 1,1 3,-2 7,-5 10,-8 4,-4 9,-8 13,-13z" class="fil2 str0"/><path d="M569 1688l-41 -33 -57 -1c2,4 5,8 8,11 16,23 34,39 51,39 11,0 26,-5 40,-15z" class="fil8"/><path d="M569 1688l-41 -33 -57 -1c2,4 5,8 8,11 16,23 34,39 51,39 11,0 26,-5 40,-15z" class="fil2 str0"/><path d="M637 1564c0,0 0,0 1,0 1,-14 1,-30 0,-46 -3,-11 -5,-21 -8,-31 -27,-26 -47,-54 -59,-86 -3,-8 -6,-16 -9,-24 -1,3 -3,5 -4,8 -3,4 -6,8 -9,12l0 0c7,12 12,24 16,37 5,19 8,38 9,58 1,19 0,37 -4,55 0,1 -2,2 -3,2 -1,0 -2,-2 -2,-3 3,-17 5,-36 4,-54 -1,-19 -4,-39 -9,-57 -6,-22 -18,-41 -30,-60 -9,-14 -18,-29 -25,-45 -13,-30 -23,-62 -33,-93 -7,-20 -13,-41 -21,-61 -5,-15 -10,-27 -15,-40 -6,-15 -12,-30 -20,-52 -3,11 -9,20 -18,26 -11,7 -26,11 -47,9 7,37 11,62 16,90 1,6 2,11 3,17 6,35 10,70 14,106 1,9 2,19 3,28l30 -38c1,-1 2,-1 3,0 1,1 1,1 1,2l0 0 -11 100 30 82c0,1 0,3 -1,3 -1,0 -2,0 -2,0 -13,-8 -24,-15 -30,-19 5,23 11,46 18,68 5,16 12,34 21,52 0,0 1,0 1,0l88 0c1,0 1,0 2,1l62 50c10,-12 20,-28 28,-46 2,-4 3,-7 4,-12l-24 -7 0 0c0,0 -1,0 -1,-1 -1,-1 -1,-3 0,-4l31 -28z" class="fil8"/><path d="M637 1564c0,0 0,0 1,0 1,-14 1,-30 0,-46 -3,-11 -5,-21 -8,-31 -27,-26 -47,-54 -59,-86 -3,-8 -6,-16 -9,-24 -1,3 -3,5 -4,8 -3,4 -6,8 -9,12l0 0c7,12 12,24 16,37 5,19 8,38 9,58 1,19 0,37 -4,55 0,1 -2,2 -3,2 -1,0 -2,-2 -2,-3 3,-17 5,-36 4,-54 -1,-19 -4,-39 -9,-57 -6,-22 -18,-41 -30,-60 -9,-14 -18,-29 -25,-45 -13,-30 -23,-62 -33,-93 -7,-20 -13,-41 -21,-61 -5,-15 -10,-27 -15,-40 -6,-15 -12,-30 -20,-52 -3,11 -9,20 -18,26 -11,7 -26,11 -47,9 7,37 11,62 16,90 1,6 2,11 3,17 6,35 10,70 14,106 1,9 2,19 3,28l30 -38c1,-1 2,-1 3,0 1,1 1,1 1,2l0 0 -11 100 30 82c0,1 0,3 -1,3 -1,0 -2,0 -2,0 -13,-8 -24,-15 -30,-19 5,23 11,46 18,68 5,16 12,34 21,52 0,0 1,0 1,0l88 0c1,0 1,0 2,1l62 50c10,-12 20,-28 28,-46 2,-4 3,-7 4,-12l-24 -7 0 0c0,0 -1,0 -1,-1 -1,-1 -1,-3 0,-4l31 -28z" class="fil2 str0"/><path d="M704 1023c33,-31 76,-44 115,-51 27,-5 50,-9 61,-20 12,-12 19,-29 23,-47 6,-25 5,-53 4,-70 21,-4 49,-17 79,-36 40,-25 83,-59 116,-90 -2,17 -2,32 -1,46 1,14 2,27 4,38 -21,12 -39,24 -54,39 -15,16 -26,35 -31,60 -3,12 -3,26 -1,40l0 1c-12,-3 -35,0 -57,11 -9,5 -18,11 -26,18 -8,7 -14,16 -17,26 -6,16 -5,35 6,57 -15,12 -27,26 -34,43 -7,3 -14,7 -19,12 -11,10 -17,23 -20,37 -1,7 -1,15 0,22 -20,0 -40,-1 -62,-3 -22,-3 -45,-7 -70,-13 -4,-8 -2,-21 0,-35 2,-15 5,-32 1,-49 -2,-8 -5,-14 -8,-20 -3,-6 -6,-11 -9,-15z" class="fil4"/><path d="M704 1023c33,-31 76,-44 115,-51 27,-5 50,-9 61,-20 12,-12 19,-29 23,-47 6,-25 5,-53 4,-70 21,-4 49,-17 79,-36 40,-25 83,-59 116,-90 -2,17 -2,32 -1,46 1,14 2,27 4,38 -21,12 -39,24 -54,39 -15,16 -26,35 -31,60 -3,12 -3,26 -1,40l0 1c-12,-3 -35,0 -57,11 -9,5 -18,11 -26,18 -8,7 -14,16 -17,26 -6,16 -5,35 6,57 -15,12 -27,26 -34,43 -7,3 -14,7 -19,12 -11,10 -17,23 -20,37 -1,7 -1,15 0,22 -20,0 -40,-1 -62,-3 -22,-3 -45,-7 -70,-13 -4,-8 -2,-21 0,-35 2,-15 5,-32 1,-49 -2,-8 -5,-14 -8,-20 -3,-6 -6,-11 -9,-15z" class="fil2 str0"/><path d="M675 1968c0,-1 0,-3 0,-4 0,-9 1,-22 1,-36 2,-50 5,-129 0,-211 -2,-41 -9,-82 -16,-122 -5,-27 -11,-53 -17,-78l0 -1c0,-1 0,-1 -1,-2 -2,-10 -5,-20 -7,-29 0,0 0,-1 -1,-1 -27,-25 -46,-54 -59,-84 -13,-31 -19,-64 -18,-100 0,-14 40,-58 73,-94 11,-13 22,-24 31,-34 2,-2 3,-4 5,-5l2 -2c20,8 36,32 47,48l0 0c2,3 4,6 6,8 1,1 2,1 3,1 15,-11 34,-21 54,-27 19,-7 38,-11 54,-11 5,0 9,0 14,0 4,0 9,1 13,1 4,9 10,18 16,25 2,3 5,6 8,9 -25,6 -45,22 -59,43 -19,27 -29,63 -30,93 -2,56 45,95 82,125 21,17 38,31 38,43 0,11 -2,20 -8,28 -6,8 -16,16 -32,24 -1,1 -2,2 -1,3 0,1 1,1 2,1l0 0c13,-1 30,-3 45,-15 15,-12 27,-33 29,-71 1,-17 -14,-32 -28,-45 -12,-11 -22,-21 -22,-31 1,-8 10,-16 20,-26 18,-16 39,-36 39,-68 0,-31 -32,-65 -61,-96l-5 -6c18,-3 37,-8 57,-15l1 0c14,29 16,74 18,114 1,19 2,36 4,50 14,93 27,179 39,260 11,81 21,157 27,229 2,19 7,40 15,63 -14,5 -28,9 -43,14l-3 0c-2,0 -3,1 -4,2l0 0c0,0 0,1 -1,1 -13,4 -26,9 -39,13l-19 7c0,0 -1,0 -1,0 -49,17 -97,33 -146,48 -2,0 -3,0 -5,1 -5,1 -9,3 -14,4 -6,2 -12,3 -18,5 -2,0 -3,0 -4,1 -2,0 -4,1 -5,1 -9,1 -19,1 -27,-3 -14,-6 -24,-18 -34,-30 -5,-6 -10,-12 -15,-17z" class="fil8"/><path d="M675 1968c0,-1 0,-3 0,-4 0,-9 1,-22 1,-36 2,-50 5,-129 0,-211 -2,-41 -9,-82 -16,-122 -5,-27 -11,-53 -17,-78l0 -1c0,-1 0,-1 -1,-2 -2,-10 -5,-20 -7,-29 0,0 0,-1 -1,-1 -27,-25 -46,-54 -59,-84 -13,-31 -19,-64 -18,-100 0,-14 40,-58 73,-94 11,-13 22,-24 31,-34 2,-2 3,-4 5,-5l2 -2c20,8 36,32 47,48l0 0c2,3 4,6 6,8 1,1 2,1 3,1 15,-11 34,-21 54,-27 19,-7 38,-11 54,-11 5,0 9,0 14,0 4,0 9,1 13,1 4,9 10,18 16,25 2,3 5,6 8,9 -25,6 -45,22 -59,43 -19,27 -29,63 -30,93 -2,56 45,95 82,125 21,17 38,31 38,43 0,11 -2,20 -8,28 -6,8 -16,16 -32,24 -1,1 -2,2 -1,3 0,1 1,1 2,1l0 0c13,-1 30,-3 45,-15 15,-12 27,-33 29,-71 1,-17 -14,-32 -28,-45 -12,-11 -22,-21 -22,-31 1,-8 10,-16 20,-26 18,-16 39,-36 39,-68 0,-31 -32,-65 -61,-96l-5 -6c18,-3 37,-8 57,-15l1 0c14,29 16,74 18,114 1,19 2,36 4,50 14,93 27,179 39,260 11,81 21,157 27,229 2,19 7,40 15,63 -14,5 -28,9 -43,14l-3 0c-2,0 -3,1 -4,2l0 0c0,0 0,1 -1,1 -13,4 -26,9 -39,13l-19 7c0,0 -1,0 -1,0 -49,17 -97,33 -146,48 -2,0 -3,0 -5,1 -5,1 -9,3 -14,4 -6,2 -12,3 -18,5 -2,0 -3,0 -4,1 -2,0 -4,1 -5,1 -9,1 -19,1 -27,-3 -14,-6 -24,-18 -34,-30 -5,-6 -10,-12 -15,-17z" class="fil2 str0"/><path d="M1055 1938l4 -2c3,10 7,21 11,31 9,27 19,55 27,84 6,23 20,79 37,147 21,85 46,187 66,264 25,96 47,191 67,288 20,97 38,196 54,301 13,87 28,175 44,262 16,87 34,173 54,259 5,20 9,39 14,59 39,166 78,330 103,503 10,66 25,130 44,194 19,64 40,127 63,189 19,53 33,97 48,147 15,50 31,108 52,189 -36,16 -61,14 -88,12 -29,-2 -40,-2 -64,2 -3,-10 -6,-21 -10,-33 -7,-23 -16,-49 -26,-78 -14,-40 -35,-85 -56,-132 -20,-44 -41,-90 -58,-135 -18,-47 -33,-89 -46,-134 -13,-44 -24,-90 -32,-143 0,-1 -2,-2 -3,-2 -1,0 -2,2 -2,3 9,53 19,99 32,143 13,44 28,87 46,134 17,45 38,91 58,135 22,47 42,92 56,132 10,28 19,55 26,77 7,22 12,41 16,57 -6,4 -12,9 -19,13 -8,4 -17,8 -27,11 -23,6 -51,8 -80,8 -29,0 -61,-2 -92,-4 -21,-1 -41,-2 -58,-2 -53,-1 -90,-2 -120,-22 -5,-3 -9,-13 -13,-24 -6,-15 -12,-31 -22,-31 -8,0 -21,-1 -34,2 -14,3 -28,8 -41,20 -8,7 -10,17 -11,25 -1,7 -3,13 -7,15 -19,7 -40,13 -63,18 -22,5 -46,8 -70,9 -19,0 -37,-3 -54,-10 -19,-7 -37,-18 -54,-31 -40,-31 -78,-55 -109,-74 -44,-28 -73,-46 -72,-61 5,-54 9,-102 12,-150l0 0c0,-1 1,-2 0,-2 0,-6 1,-13 1,-19 3,-54 6,-108 8,-167 2,-54 -1,-108 -4,-163 -2,-49 -5,-98 -4,-148 2,-111 -4,-224 -9,-337 -3,-66 -6,-132 -8,-198 -1,-53 -1,-106 -1,-159 0,-94 1,-189 -8,-281 -5,-56 -10,-113 -15,-169 -5,-59 -10,-118 -15,-178 -9,-96 -13,-178 -13,-258 1,-80 7,-156 19,-242 8,-54 23,-120 37,-179 10,-42 19,-81 24,-109l1 2 3 4c0,0 -1,1 -1,1 -3,3 -5,8 -5,13 0,5 2,10 5,13 3,3 8,5 13,5 4,0 8,-1 11,-4 2,2 3,4 5,5 2,2 4,4 6,6 0,0 1,0 1,1l0 55c0,2 1,4 2,6l0 0c1,1 3,2 6,2l13 0c2,0 4,-1 6,-2 1,-1 2,-3 2,-6l0 -27 2 2c2,1 3,3 5,4l0 76c0,2 1,5 3,6l0 0c2,2 4,3 6,3l15 0c2,0 5,-1 6,-3l0 0 0 0c2,-2 3,-4 3,-6l0 -76 6 -3 0 0 5 -2 0 26c0,2 1,5 3,6l0 0c2,2 4,3 6,3l15 0c2,0 5,-1 6,-3l0 0c1,-2 2,-4 2,-6l0 -41 6 -3 0 0 4 -2 0 64c0,2 1,4 2,6l0 0 0 0 0 0c1,2 4,2 6,2l14 0c2,0 4,-1 6,-2l0 0 0 0 0 0c1,-2 2,-4 2,-6l0 -71c0,-2 -1,-4 -2,-6l0 0 0 0 0 0 0 0 5 -2 6 -3 0 25c0,2 1,4 2,6 1,1 3,2 5,2l13 0c2,0 4,-1 5,-2l0 0c1,-1 2,-3 2,-5l0 -39 7 -3 0 51c0,2 1,4 2,5l0 0c1,1 3,2 5,2l11 0c2,0 4,-1 5,-2l0 0 0 0c1,-1 2,-3 2,-5l0 -56c0,-2 -1,-4 -2,-5l0 0c0,0 -1,-1 -1,-1l6 -3 0 0 8 -4 0 20c0,2 1,3 2,5l0 0c1,1 3,2 5,2l2 0c-2,1 -5,2 -6,4 -3,3 -4,6 -4,10 0,4 2,8 4,10 3,3 6,4 10,4 4,0 8,-2 10,-4 3,-3 4,-6 4,-10 0,-4 -2,-8 -4,-10 -2,-2 -4,-3 -6,-4l1 0c2,0 3,-1 5,-2l0 0c1,-1 2,-3 2,-5l0 -31 11 -6c0,1 -1,2 -1,3l0 47c0,2 1,3 2,5 1,1 3,2 4,2l9 0c2,0 3,-1 4,-2 1,-1 2,-3 2,-5l0 -47c0,-2 -1,-3 -2,-5l0 0c-1,-1 -3,-2 -4,-2 2,-1 4,-2 5,-3 1,-1 2,-3 3,-5l5 -3 0 23c0,2 1,3 2,4l0 0c1,1 3,2 4,2 -2,1 -3,2 -4,3 -2,2 -4,6 -4,9 0,4 1,7 4,9 2,2 6,4 9,4 4,0 7,-1 9,-4 2,-2 4,-6 4,-9 0,-4 -1,-7 -4,-9 -1,-1 -3,-2 -5,-3 1,0 3,-1 4,-2l0 0c1,-1 2,-3 2,-4l0 -33 6 -3 5 -3 0 0c1,1 2,2 3,2 -1,0 -2,1 -3,2l0 0c-1,1 -2,2 -2,4l0 40c0,2 1,3 2,4 1,1 2,2 4,2l8 0c1,0 3,-1 4,-2l0 0c1,-1 2,-3 2,-4l0 -40c0,-2 -1,-3 -2,-4l0 0c-1,-1 -1,-1 -2,-1 1,-1 2,-1 3,-2 2,-2 4,-5 4,-9 0,-1 0,-1 0,-2z" class="fil8"/><path d="M1055 1938l4 -2c3,10 7,21 11,31 9,27 19,55 27,84 6,23 20,79 37,147 21,85 46,187 66,264 25,96 47,191 67,288 20,97 38,196 54,301 13,87 28,175 44,262 16,87 34,173 54,259 5,20 9,39 14,59 39,166 78,330 103,503 10,66 25,130 44,194 19,64 40,127 63,189 19,53 33,97 48,147 15,50 31,108 52,189 -36,16 -61,14 -88,12 -29,-2 -40,-2 -64,2 -3,-10 -6,-21 -10,-33 -7,-23 -16,-49 -26,-78 -14,-40 -35,-85 -56,-132 -20,-44 -41,-90 -58,-135 -18,-47 -33,-89 -46,-134 -13,-44 -24,-90 -32,-143 0,-1 -2,-2 -3,-2 -1,0 -2,2 -2,3 9,53 19,99 32,143 13,44 28,87 46,134 17,45 38,91 58,135 22,47 42,92 56,132 10,28 19,55 26,77 7,22 12,41 16,57 -6,4 -12,9 -19,13 -8,4 -17,8 -27,11 -23,6 -51,8 -80,8 -29,0 -61,-2 -92,-4 -21,-1 -41,-2 -58,-2 -53,-1 -90,-2 -120,-22 -5,-3 -9,-13 -13,-24 -6,-15 -12,-31 -22,-31 -8,0 -21,-1 -34,2 -14,3 -28,8 -41,20 -8,7 -10,17 -11,25 -1,7 -3,13 -7,15 -19,7 -40,13 -63,18 -22,5 -46,8 -70,9 -19,0 -37,-3 -54,-10 -19,-7 -37,-18 -54,-31 -40,-31 -78,-55 -109,-74 -44,-28 -73,-46 -72,-61 5,-54 9,-102 12,-150l0 0c0,-1 1,-2 0,-2 0,-6 1,-13 1,-19 3,-54 6,-108 8,-167 2,-54 -1,-108 -4,-163 -2,-49 -5,-98 -4,-148 2,-111 -4,-224 -9,-337 -3,-66 -6,-132 -8,-198 -1,-53 -1,-106 -1,-159 0,-94 1,-189 -8,-281 -5,-56 -10,-113 -15,-169 -5,-59 -10,-118 -15,-178 -9,-96 -13,-178 -13,-258 1,-80 7,-156 19,-242 8,-54 23,-120 37,-179 10,-42 19,-81 24,-109l1 2 3 4c0,0 -1,1 -1,1 -3,3 -5,8 -5,13 0,5 2,10 5,13 3,3 8,5 13,5 4,0 8,-1 11,-4 2,2 3,4 5,5 2,2 4,4 6,6 0,0 1,0 1,1l0 55c0,2 1,4 2,6l0 0c1,1 3,2 6,2l13 0c2,0 4,-1 6,-2 1,-1 2,-3 2,-6l0 -27 2 2c2,1 3,3 5,4l0 76c0,2 1,5 3,6l0 0c2,2 4,3 6,3l15 0c2,0 5,-1 6,-3l0 0 0 0c2,-2 3,-4 3,-6l0 -76 6 -3 0 0 5 -2 0 26c0,2 1,5 3,6l0 0c2,2 4,3 6,3l15 0c2,0 5,-1 6,-3l0 0c1,-2 2,-4 2,-6l0 -41 6 -3 0 0 4 -2 0 64c0,2 1,4 2,6l0 0 0 0 0 0c1,2 4,2 6,2l14 0c2,0 4,-1 6,-2l0 0 0 0 0 0c1,-2 2,-4 2,-6l0 -71c0,-2 -1,-4 -2,-6l0 0 0 0 0 0 0 0 5 -2 6 -3 0 25c0,2 1,4 2,6 1,1 3,2 5,2l13 0c2,0 4,-1 5,-2l0 0c1,-1 2,-3 2,-5l0 -39 7 -3 0 51c0,2 1,4 2,5l0 0c1,1 3,2 5,2l11 0c2,0 4,-1 5,-2l0 0 0 0c1,-1 2,-3 2,-5l0 -56c0,-2 -1,-4 -2,-5l0 0c0,0 -1,-1 -1,-1l6 -3 0 0 8 -4 0 20c0,2 1,3 2,5l0 0c1,1 3,2 5,2l2 0c-2,1 -5,2 -6,4 -3,3 -4,6 -4,10 0,4 2,8 4,10 3,3 6,4 10,4 4,0 8,-2 10,-4 3,-3 4,-6 4,-10 0,-4 -2,-8 -4,-10 -2,-2 -4,-3 -6,-4l1 0c2,0 3,-1 5,-2l0 0c1,-1 2,-3 2,-5l0 -31 11 -6c0,1 -1,2 -1,3l0 47c0,2 1,3 2,5 1,1 3,2 4,2l9 0c2,0 3,-1 4,-2 1,-1 2,-3 2,-5l0 -47c0,-2 -1,-3 -2,-5l0 0c-1,-1 -3,-2 -4,-2 2,-1 4,-2 5,-3 1,-1 2,-3 3,-5l5 -3 0 23c0,2 1,3 2,4l0 0c1,1 3,2 4,2 -2,1 -3,2 -4,3 -2,2 -4,6 -4,9 0,4 1,7 4,9 2,2 6,4 9,4 4,0 7,-1 9,-4 2,-2 4,-6 4,-9 0,-4 -1,-7 -4,-9 -1,-1 -3,-2 -5,-3 1,0 3,-1 4,-2l0 0c1,-1 2,-3 2,-4l0 -33 6 -3 5 -3 0 0c1,1 2,2 3,2 -1,0 -2,1 -3,2l0 0c-1,1 -2,2 -2,4l0 40c0,2 1,3 2,4 1,1 2,2 4,2l8 0c1,0 3,-1 4,-2l0 0c1,-1 2,-3 2,-4l0 -40c0,-2 -1,-3 -2,-4l0 0c-1,-1 -1,-1 -2,-1 1,-1 2,-1 3,-2 2,-2 4,-5 4,-9 0,-1 0,-1 0,-2z" class="fil2 str0"/><path d="M1048 1928l8 -3c1,2 1,4 2,5l-4 2c-1,-1 -1,-2 -2,-2 -1,-1 -2,-2 -4,-2z" class="fil7"/><path d="M1048 1928l8 -3c1,2 1,4 2,5l-4 2c-1,-1 -1,-2 -2,-2 -1,-1 -2,-2 -4,-2z" class="fil2 str0"/><path d="M985 490c-6,0 -12,3 -17,7 -4,4 -7,10 -7,16 0,6 3,12 7,16 4,4 10,7 17,7 6,0 12,-3 17,-7 4,-4 7,-10 7,-16 0,-6 -3,-12 -7,-16 -4,-4 -10,-7 -17,-7z" class="fil0"/><path d="M985 490c-6,0 -12,3 -17,7 -4,4 -7,10 -7,16 0,6 3,12 7,16 4,4 10,7 17,7 6,0 12,-3 17,-7 4,-4 7,-10 7,-16 0,-6 -3,-12 -7,-16 -4,-4 -10,-7 -17,-7z" class="fil2 str0"/><path d="M1476 1820c0,0 0,0 0,0l-27 -24 -13 38 42 63c0,-22 -1,-45 -2,-67 0,-3 0,-6 -1,-9z" class="fil8"/><path d="M1476 1820c0,0 0,0 0,0l-27 -24 -13 38 42 63c0,-22 -1,-45 -2,-67 0,-3 0,-6 -1,-9z" class="fil2 str0"/><path d="M1484 1975l4 6c1,1 0,3 -1,3 -1,1 -3,0 -3,-1 0,27 0,53 -1,80 0,7 0,14 0,21l1 2c0,0 0,0 0,0 13,24 27,51 42,77 43,79 89,164 123,238 38,84 77,165 118,246 42,81 86,162 135,247 38,65 66,133 94,200 28,67 56,134 93,199 48,82 98,166 152,248 54,81 111,161 172,234 89,108 200,208 307,306 26,24 52,47 77,70 12,11 22,22 35,31 86,66 171,124 254,180 24,16 47,31 70,47 5,3 9,6 14,9 43,3 76,9 104,14 20,4 37,7 53,8 32,3 55,3 71,4 12,0 21,1 26,1 22,4 42,10 61,20 19,10 36,23 51,40 4,4 6,8 7,11 37,1 58,0 74,-3 23,-4 44,-12 62,-26 26,-21 71,-33 119,-45 50,-13 103,-27 141,-53 1,-1 2,-2 3,-3 1,-2 0,-4 -3,-6 -3,-3 -9,-6 -16,-9 -24,-11 -66,-22 -107,-31 -15,-3 -31,-6 -45,-9 -25,-4 -45,-8 -54,-14 -182,-113 -418,-275 -618,-422 -192,-141 -352,-269 -402,-328l-12 -14c-170,-199 -336,-394 -486,-605 -149,-210 -288,-426 -417,-644 -126,-212 -243,-426 -351,-639 6,25 15,49 23,71 12,33 23,64 24,93 1,25 1,50 2,75l2 3c1,1 0,3 -1,3 0,0 -1,0 -1,0 0,22 0,43 0,65z" class="fil3"/><path d="M1484 1975l4 6c1,1 0,3 -1,3 -1,1 -3,0 -3,-1 0,27 0,53 -1,80 0,7 0,14 0,21l1 2c0,0 0,0 0,0 13,24 27,51 42,77 43,79 89,164 123,238 38,84 77,165 118,246 42,81 86,162 135,247 38,65 66,133 94,200 28,67 56,134 93,199 48,82 98,166 152,248 54,81 111,161 172,234 89,108 200,208 307,306 26,24 52,47 77,70 12,11 22,22 35,31 86,66 171,124 254,180 24,16 47,31 70,47 5,3 9,6 14,9 43,3 76,9 104,14 20,4 37,7 53,8 32,3 55,3 71,4 12,0 21,1 26,1 22,4 42,10 61,20 19,10 36,23 51,40 4,4 6,8 7,11 37,1 58,0 74,-3 23,-4 44,-12 62,-26 26,-21 71,-33 119,-45 50,-13 103,-27 141,-53 1,-1 2,-2 3,-3 1,-2 0,-4 -3,-6 -3,-3 -9,-6 -16,-9 -24,-11 -66,-22 -107,-31 -15,-3 -31,-6 -45,-9 -25,-4 -45,-8 -54,-14 -182,-113 -418,-275 -618,-422 -192,-141 -352,-269 -402,-328l-12 -14c-170,-199 -336,-394 -486,-605 -149,-210 -288,-426 -417,-644 -126,-212 -243,-426 -351,-639 6,25 15,49 23,71 12,33 23,64 24,93 1,25 1,50 2,75l2 3c1,1 0,3 -1,3 0,0 -1,0 -1,0 0,22 0,43 0,65z" class="fil2 str0"/><path d="M1463 2244c3,0 6,1 8,3l0 0 0 0c1,1 1,1 2,2 1,-14 1,-29 2,-43 -2,1 -4,2 -6,2 -3,0 -6,-1 -8,-3l0 0c-2,-2 -3,-5 -3,-8 0,-3 1,-6 3,-8l0 0c2,-2 5,-3 7,-3 2,0 4,1 6,2 1,-15 1,-29 1,-44l-46 48c-1,1 -3,1 -4,0 -1,-1 -1,-2 -1,-3l0 0 27 -80 -31 -95c0,-1 0,-3 2,-3 1,0 2,0 3,1l51 66c0,-5 0,-10 0,-15 1,-29 1,-58 1,-87l-85 -132 0 0c0,-1 -1,-1 0,-2l40 -107c0,0 0,-1 1,-1 1,-1 3,-1 4,0l20 18c-2,-5 -4,-10 -5,-14 -10,-27 -21,-56 -27,-87l-12 -8 -33 70c0,1 -1,2 -2,2 -1,0 -2,-1 -2,-3l6 -92 -68 -64c-1,-1 -1,-2 -1,-3 1,-1 2,-2 3,-1l81 33 11 -18c1,-1 2,-1 3,-1 -4,-26 -10,-52 -16,-78 -12,-54 -27,-109 -44,-164 0,0 0,0 0,-1l0 -4c-26,7 -50,-4 -78,-16 -36,-15 -77,-33 -133,-18 29,60 56,132 81,209 25,78 48,160 70,240 11,41 9,85 7,129 -1,30 -3,60 0,89 5,53 15,106 25,159 5,26 10,52 14,78 1,7 2,12 3,19 4,28 8,56 10,84 2,30 5,68 4,103 0,34 -3,64 -12,80 14,16 27,26 38,35 22,17 40,30 55,81 7,-11 13,-24 17,-37 4,-14 5,-28 4,-42 -3,-7 -4,-15 -5,-24l0 0c0,-1 0,-1 0,-2 -2,-28 3,-66 9,-105 4,-28 8,-56 9,-81 1,-12 1,-25 2,-37 0,1 -1,1 -1,1l0 0c-2,2 -5,3 -7,3 -3,0 -6,-1 -8,-3l0 0 0 0c-2,-2 -3,-5 -3,-8 0,-3 1,-6 3,-8l0 0c2,-2 5,-3 7,-3z" class="fil8"/><path d="M1463 2244c3,0 6,1 8,3l0 0 0 0c1,1 1,1 2,2 1,-14 1,-29 2,-43 -2,1 -4,2 -6,2 -3,0 -6,-1 -8,-3l0 0c-2,-2 -3,-5 -3,-8 0,-3 1,-6 3,-8l0 0c2,-2 5,-3 7,-3 2,0 4,1 6,2 1,-15 1,-29 1,-44l-46 48c-1,1 -3,1 -4,0 -1,-1 -1,-2 -1,-3l0 0 27 -80 -31 -95c0,-1 0,-3 2,-3 1,0 2,0 3,1l51 66c0,-5 0,-10 0,-15 1,-29 1,-58 1,-87l-85 -132 0 0c0,-1 -1,-1 0,-2l40 -107c0,0 0,-1 1,-1 1,-1 3,-1 4,0l20 18c-2,-5 -4,-10 -5,-14 -10,-27 -21,-56 -27,-87l-12 -8 -33 70c0,1 -1,2 -2,2 -1,0 -2,-1 -2,-3l6 -92 -68 -64c-1,-1 -1,-2 -1,-3 1,-1 2,-2 3,-1l81 33 11 -18c1,-1 2,-1 3,-1 -4,-26 -10,-52 -16,-78 -12,-54 -27,-109 -44,-164 0,0 0,0 0,-1l0 -4c-26,7 -50,-4 -78,-16 -36,-15 -77,-33 -133,-18 29,60 56,132 81,209 25,78 48,160 70,240 11,41 9,85 7,129 -1,30 -3,60 0,89 5,53 15,106 25,159 5,26 10,52 14,78 1,7 2,12 3,19 4,28 8,56 10,84 2,30 5,68 4,103 0,34 -3,64 -12,80 14,16 27,26 38,35 22,17 40,30 55,81 7,-11 13,-24 17,-37 4,-14 5,-28 4,-42 -3,-7 -4,-15 -5,-24l0 0c0,-1 0,-1 0,-2 -2,-28 3,-66 9,-105 4,-28 8,-56 9,-81 1,-12 1,-25 2,-37 0,1 -1,1 -1,1l0 0c-2,2 -5,3 -7,3 -3,0 -6,-1 -8,-3l0 0 0 0c-2,-2 -3,-5 -3,-8 0,-3 1,-6 3,-8l0 0c2,-2 5,-3 7,-3z" class="fil2 str0"/><path d="M434 1419c0,0 -1,-1 -2,-1 -1,0 -1,0 -2,1 0,0 -1,1 -1,2 0,1 0,1 1,2 0,0 1,1 2,1 1,0 1,0 2,-1 0,0 1,-1 1,-2 0,-1 0,-1 -1,-2z" class="fil5"/><path d="M434 1419c0,0 -1,-1 -2,-1 -1,0 -1,0 -2,1 0,0 -1,1 -1,2 0,1 0,1 1,2 0,0 1,1 2,1 1,0 1,0 2,-1 0,0 1,-1 1,-2 0,-1 0,-1 -1,-2z" class="fil2 str0"/><path d="M433 1413c2,0 4,1 5,2 1,1 2,3 2,5 0,2 -1,4 -2,5 -1,1 -3,2 -5,2 -2,0 -4,-1 -5,-2 -1,-1 -2,-3 -2,-5 0,-2 1,-4 2,-5 1,-1 3,-2 5,-2z" class="fil3"/><path d="M433 1413c2,0 4,1 5,2 1,1 2,3 2,5 0,2 -1,4 -2,5 -1,1 -3,2 -5,2 -2,0 -4,-1 -5,-2 -1,-1 -2,-3 -2,-5 0,-2 1,-4 2,-5 1,-1 3,-2 5,-2z" class="fil2 str0"/><path d="M977 425c0,0 -1,0 -1,0l0 0c-17,10 -35,19 -53,27 -18,7 -36,14 -54,20l-10 -15 116 -37c10,-1 20,-1 29,-1 4,0 8,1 12,1l-38 5z" class="fil6"/><path d="M977 425c0,0 -1,0 -1,0l0 0c-17,10 -35,19 -53,27 -18,7 -36,14 -54,20l-10 -15 116 -37c10,-1 20,-1 29,-1 4,0 8,1 12,1l-38 5z" class="fil2 str0"/><path d="M618 426c-1,0 -3,0 -3,1" class="fil2 str0"/><line x1="1222" x2="1222" y1="492" y2="492" class="fil2 str0"/><path d="M699 2036c1,-1 1,-3 0,-3" class="fil2 str0"/><path d="M224 592l-23 9 8 -31 -20 15 16 -62 -14 4 -4 -17 -39 47 -4 -22 -29 23 5 -28 -24 -7 29 -15 -18 -10 61 -13 -16 -11 19 -11 -65 -12 15 -14 -24 -11 26 -8 1 -31 18 28 7 -24 41 50 3 -24 16 9 -27 -61 34 23 -15 -44 24 16 23 -16 -12 44 31 -23 -27 61 16 -9 3 24 41 -50 7 24 18 -28 1 31 26 8 -24 11 15 14 -65 12 19 11 -16 11 61 13 -18 10 29 15 -24 7 5 28 -29 -23 -4 22 -39 -47 -4 17 -14 -4 16 62 -20 -15 8 31 -22 -9zm-75 250c6,0 10,4 10,8 0,5 -5,8 -10,8 -6,0 -10,-4 -10,-8 0,-5 5,-8 10,-8zm-8 -77c6,0 10,4 10,8 0,5 -5,8 -10,8 -6,0 -10,-4 -10,-8 0,-5 5,-8 10,-8zm51 -105c6,0 10,4 10,8 0,5 -5,8 -10,8 -6,0 -10,-4 -10,-8 0,-5 5,-8 10,-8zm120 -17c6,0 10,4 10,8 0,5 -5,8 -10,8 -6,0 -10,-4 -10,-8 0,-5 5,-8 10,-8zm-178 159c10,0 18,5 18,12 0,6 -8,12 -18,12 -10,0 -18,-5 -18,-12 0,-6 8,-12 18,-12zm347 -408c1,10 -3,18 -9,19 -6,1 -13,-6 -14,-16 -1,-10 3,-12 9,-13 6,-1 12,0 14,10zm-317 -151c8,6 10,15 6,20 -4,5 -14,4 -21,-2 -8,-6 -6,-11 -2,-16 4,-5 9,-8 17,-2zm137 10c-8,6 -10,15 -6,20 4,5 14,4 21,-2 8,-6 6,-11 2,-16 -4,-5 -9,-8 -17,-2zm-143 342c-8,6 -10,15 -6,20 4,5 14,4 21,-2 8,-6 10,-15 6,-20 -4,-5 -14,-4 -21,2zm-50 175c8,6 10,15 6,20 -4,5 -14,4 -21,-2 -8,-6 -10,-15 -6,-20 4,-5 14,-4 21,2zm48 -102c10,0 18,5 18,12 0,6 -8,12 -18,12 -10,0 -18,-5 -18,-12 0,-6 8,-12 18,-12zm115 -16c13,0 23,5 23,12 0,6 -11,12 -23,12 -13,0 -23,-5 -23,-12 0,-6 11,-12 23,-12zm-75 -468c10,1 28,-7 34,2 4,7 6,26 1,31 -8,8 -22,12 -34,11 -7,0 -26,-25 -28,-32 0,-1 22,-12 28,-12zm209 127c10,1 28,3 34,13 4,7 6,17 1,23 -8,9 -22,12 -34,11 -7,0 -18,-18 -19,-24 0,-1 13,-22 19,-22zm34 103c10,1 18,12 23,21 4,7 6,17 1,23 -8,8 -22,12 -34,11 -7,0 -13,-8 -14,-14 -2,-7 3,-15 7,-22 4,-7 9,-19 18,-18zm-257 280c10,1 18,12 23,21 4,7 6,17 1,23 -8,8 -22,12 -34,11 -7,0 -13,-8 -14,-14 -2,-7 3,-15 7,-22 4,-7 9,-19 18,-18zm156 -286l4 -20 35 -1 -19 30 -19 -9zm-228 130l-19 -8 -20 29 35 0 3 -21zm8 -132l-3 -20 -35 -2 18 30 20 -8zm220 131l19 -7 18 30 -35 -2 -2 -21zm-115 -192l16 -13 -16 -31 -17 31 17 13zm1 256l16 13 -16 31 -17 -31 17 -13z" class="fil2 str1"/><path d="M971 505c1,1 1,2 1,4 0,2 -1,4 -2,5 -1,1 -3,2 -6,2 -2,0 -4,-1 -5,-2 -1,-1 -2,-3 -2,-5 0,-2 1,-4 2,-5 1,-1 3,-2 5,-2 2,0 4,1 5,2 0,0 0,0 0,0 0,1 1,1 1,2z" class="fil1"/><path d="M971 505c1,1 1,2 1,4 0,2 -1,4 -2,5 -1,1 -3,2 -6,2 -2,0 -4,-1 -5,-2 -1,-1 -2,-3 -2,-5 0,-2 1,-4 2,-5 1,-1 3,-2 5,-2 2,0 4,1 5,2 0,0 0,0 0,0 0,1 1,1 1,2z" class="fil2 str0"/><path d="M1083 1270c8,37 16,74 24,112 28,131 57,272 92,396 20,71 41,141 64,212 22,69 46,138 72,206 5,32 9,63 12,95 2,30 5,68 4,102 0,3 0,7 0,10l-230 -563c-1,-1 -2,-2 -3,-1 -1,1 -2,2 -1,3l234 572c1,13 -5,48 -11,58 -1,1 0,2 0,3l1 1c-3,6 -8,11 -13,16 -9,9 -21,20 -29,45 -3,10 -6,20 -7,30 -1,10 -2,19 -2,29 1,33 -2,66 -6,98 -1,13 -3,26 -4,39 -1,8 1,14 4,18 2,3 6,6 9,7l0 0c3,1 7,2 10,1 4,-1 7,-2 9,-5 14,-18 16,-43 18,-66 1,-14 2,-26 6,-36 1,4 3,7 5,11 3,5 5,10 8,14 0,9 1,18 2,27 1,9 3,18 4,27 2,9 4,17 6,25 3,10 5,20 7,30 -1,4 -3,12 -3,20 0,8 0,16 2,22l-2 6c-5,16 -10,31 -9,44 1,17 10,28 19,33 3,1 5,2 8,2 3,0 5,0 7,-1 4,-2 6,-5 6,-10 -1,-15 5,-35 11,-53 0,0 0,0 1,-1 8,-18 18,-31 26,-41 8,-10 14,-18 15,-27 1,-5 1,-11 0,-18 1,0 1,-1 1,-2 1,-5 2,-10 3,-15 2,-7 3,-13 3,-16 0,-9 1,-23 3,-39 0,-4 1,-8 1,-11l254 622 0 0 0 0c31,65 58,132 84,199 53,135 107,269 194,384 50,65 155,151 260,236 53,43 105,85 151,125 44,39 89,80 133,120 162,150 332,300 490,344 -24,13 -49,24 -75,33 -28,9 -57,15 -85,16 -11,0 -23,-4 -35,-7 -12,-4 -25,-8 -38,-8 -45,-1 -70,11 -93,23 -20,10 -38,19 -67,19 -65,1 -124,-9 -184,-18 -61,-10 -121,-19 -188,-18 -37,1 -71,2 -105,8 -34,6 -69,16 -109,35 -5,-15 -11,-31 -17,-47 -25,-69 -55,-151 -71,-221 -7,-31 -16,-61 -26,-92 -6,-20 -12,-39 -18,-60 -7,-26 -14,-50 -20,-75 -38,-139 -76,-282 -124,-418 -26,-74 -48,-147 -70,-221 -33,-109 -66,-220 -113,-338 -1,-1 -2,-2 -3,-1 -1,1 -2,2 -1,3 47,118 81,229 113,338 22,74 44,147 70,221 48,136 86,279 124,418 7,26 14,51 20,75 5,20 12,40 18,60 9,30 19,60 26,91 16,71 46,153 71,222 17,48 32,89 39,116 3,14 1,23 -5,29 -7,6 -18,9 -34,10 -41,2 -98,-2 -154,-13 -46,-9 -91,-22 -123,-40 -22,-81 -38,-140 -52,-190 -15,-51 -29,-94 -48,-148 -22,-63 -44,-125 -63,-189 -19,-64 -34,-128 -44,-194 -25,-173 -64,-337 -103,-503 -5,-19 -9,-39 -14,-59 -20,-86 -38,-172 -54,-259 -16,-87 -30,-174 -44,-262 -16,-104 -34,-204 -54,-301 -20,-97 -42,-192 -67,-288 -20,-76 -45,-179 -66,-264 -17,-68 -31,-124 -37,-147 -8,-29 -18,-57 -27,-84 -14,-41 -27,-79 -30,-108 -7,-72 -16,-148 -27,-229 -11,-81 -24,-168 -39,-260 -2,-13 -3,-31 -4,-50 -2,-38 -5,-81 -17,-111 29,12 55,25 79,38 4,2 47,24 47,24z" class="fil3"/><path d="M1083 1270c8,37 16,74 24,112 28,131 57,272 92,396 20,71 41,141 64,212 22,69 46,138 72,206 5,32 9,63 12,95 2,30 5,68 4,102 0,3 0,7 0,10l-230 -563c-1,-1 -2,-2 -3,-1 -1,1 -2,2 -1,3l234 572c1,13 -5,48 -11,58 -1,1 0,2 0,3l1 1c-3,6 -8,11 -13,16 -9,9 -21,20 -29,45 -3,10 -6,20 -7,30 -1,10 -2,19 -2,29 1,33 -2,66 -6,98 -1,13 -3,26 -4,39 -1,8 1,14 4,18 2,3 6,6 9,7l0 0c3,1 7,2 10,1 4,-1 7,-2 9,-5 14,-18 16,-43 18,-66 1,-14 2,-26 6,-36 1,4 3,7 5,11 3,5 5,10 8,14 0,9 1,18 2,27 1,9 3,18 4,27 2,9 4,17 6,25 3,10 5,20 7,30 -1,4 -3,12 -3,20 0,8 0,16 2,22l-2 6c-5,16 -10,31 -9,44 1,17 10,28 19,33 3,1 5,2 8,2 3,0 5,0 7,-1 4,-2 6,-5 6,-10 -1,-15 5,-35 11,-53 0,0 0,0 1,-1 8,-18 18,-31 26,-41 8,-10 14,-18 15,-27 1,-5 1,-11 0,-18 1,0 1,-1 1,-2 1,-5 2,-10 3,-15 2,-7 3,-13 3,-16 0,-9 1,-23 3,-39 0,-4 1,-8 1,-11l254 622 0 0 0 0c31,65 58,132 84,199 53,135 107,269 194,384 50,65 155,151 260,236 53,43 105,85 151,125 44,39 89,80 133,120 162,150 332,300 490,344 -24,13 -49,24 -75,33 -28,9 -57,15 -85,16 -11,0 -23,-4 -35,-7 -12,-4 -25,-8 -38,-8 -45,-1 -70,11 -93,23 -20,10 -38,19 -67,19 -65,1 -124,-9 -184,-18 -61,-10 -121,-19 -188,-18 -37,1 -71,2 -105,8 -34,6 -69,16 -109,35 -5,-15 -11,-31 -17,-47 -25,-69 -55,-151 -71,-221 -7,-31 -16,-61 -26,-92 -6,-20 -12,-39 -18,-60 -7,-26 -14,-50 -20,-75 -38,-139 -76,-282 -124,-418 -26,-74 -48,-147 -70,-221 -33,-109 -66,-220 -113,-338 -1,-1 -2,-2 -3,-1 -1,1 -2,2 -1,3 47,118 81,229 113,338 22,74 44,147 70,221 48,136 86,279 124,418 7,26 14,51 20,75 5,20 12,40 18,60 9,30 19,60 26,91 16,71 46,153 71,222 17,48 32,89 39,116 3,14 1,23 -5,29 -7,6 -18,9 -34,10 -41,2 -98,-2 -154,-13 -46,-9 -91,-22 -123,-40 -22,-81 -38,-140 -52,-190 -15,-51 -29,-94 -48,-148 -22,-63 -44,-125 -63,-189 -19,-64 -34,-128 -44,-194 -25,-173 -64,-337 -103,-503 -5,-19 -9,-39 -14,-59 -20,-86 -38,-172 -54,-259 -16,-87 -30,-174 -44,-262 -16,-104 -34,-204 -54,-301 -20,-97 -42,-192 -67,-288 -20,-76 -45,-179 -66,-264 -17,-68 -31,-124 -37,-147 -8,-29 -18,-57 -27,-84 -14,-41 -27,-79 -30,-108 -7,-72 -16,-148 -27,-229 -11,-81 -24,-168 -39,-260 -2,-13 -3,-31 -4,-50 -2,-38 -5,-81 -17,-111 29,12 55,25 79,38 4,2 47,24 47,24z" class="fil2 str0"/><path d="M1330 1642c3,0 6,1 8,3l0 0 0 0c2,2 3,5 3,8 0,3 -1,6 -3,8l0 0c-2,2 -5,3 -7,3 -3,0 -6,-1 -8,-3l0 0 0 0c-2,-2 -3,-5 -3,-8 0,-3 1,-6 3,-8l0 0c2,-2 5,-3 7,-3z" class="fil0"/><path d="M1330 1642c3,0 6,1 8,3l0 0 0 0c2,2 3,5 3,8 0,3 -1,6 -3,8l0 0c-2,2 -5,3 -7,3 -3,0 -6,-1 -8,-3l0 0 0 0c-2,-2 -3,-5 -3,-8 0,-3 1,-6 3,-8l0 0c2,-2 5,-3 7,-3z" class="fil2 str0"/><path d="M1326 1594l38 31c1,1 1,1 1,2l0 0 -6 53c0,1 -1,2 -3,2 -1,0 -2,-1 -2,-2 -2,-15 -5,-29 -10,-43 -5,-14 -13,-27 -21,-40 -1,-1 -1,-3 1,-3 1,-1 2,-1 3,0z" class="fil0"/><path d="M1326 1594l38 31c1,1 1,1 1,2l0 0 -6 53c0,1 -1,2 -3,2 -1,0 -2,-1 -2,-2 -2,-15 -5,-29 -10,-43 -5,-14 -13,-27 -21,-40 -1,-1 -1,-3 1,-3 1,-1 2,-1 3,0z" class="fil2 str0"/><path d="M1363 1479l41 45c1,1 1,2 0,3l-16 33c-1,1 -2,2 -3,1l0 0 0 0 -36 -22c-1,-1 -1,-2 -1,-3l11 -56c0,-1 2,-2 3,-2 1,0 1,0 1,1z" class="fil0"/><path d="M1363 1479l41 45c1,1 1,2 0,3l-16 33c-1,1 -2,2 -3,1l0 0 0 0 -36 -22c-1,-1 -1,-2 -1,-3l11 -56c0,-1 2,-2 3,-2 1,0 1,0 1,1z" class="fil2 str0"/><polygon points="1399 1526 1363 1486 1353 1536 1385 1555" class="fil3"/><path d="M1334 1649c-1,-1 -2,-2 -4,-2 -2,0 -3,1 -4,2l0 0c-1,1 -2,2 -2,4 0,2 1,3 2,4l0 0c1,1 2,2 4,2 2,0 3,-1 4,-2l0 0c1,-1 2,-2 2,-4 0,-2 -1,-3 -2,-4l0 0z" class="fil3"/><path d="M1360 1628l-26 -21c5,9 10,18 14,28 3,9 6,18 8,27l4 -34z" class="fil3"/><path d="M1429 2093c3,0 6,1 8,3l0 0 0 0c2,2 3,5 3,8 0,3 -1,6 -3,8l0 0c-2,2 -5,3 -7,3 -3,0 -6,-1 -8,-3l0 0 0 0c-2,-2 -3,-5 -3,-8 0,-3 1,-6 3,-8l0 0c2,-2 5,-3 7,-3z" class="fil0"/><path d="M1429 2093c3,0 6,1 8,3l0 0 0 0c2,2 3,5 3,8 0,3 -1,6 -3,8l0 0c-2,2 -5,3 -7,3 -3,0 -6,-1 -8,-3l0 0 0 0c-2,-2 -3,-5 -3,-8 0,-3 1,-6 3,-8l0 0c2,-2 5,-3 7,-3z" class="fil2 str0"/><path d="M1433 2100c-1,-1 -2,-2 -4,-2 -2,0 -3,1 -4,2l0 0c-1,1 -2,2 -2,4 0,2 1,3 2,4l0 0c1,1 2,2 4,2 2,0 3,-1 4,-2l0 0c1,-1 2,-2 2,-4 0,-2 -1,-3 -2,-4l0 0z" class="fil3"/><path d="M1472 2193c-1,-1 -2,-2 -4,-2 -2,0 -3,1 -4,2l0 0c-1,1 -2,2 -2,4 0,2 1,3 2,4l0 0c1,1 2,2 4,2 2,0 3,-1 4,-2l0 0c1,-1 2,-2 2,-4 0,-2 -1,-3 -2,-4l0 0z" class="fil3"/><path d="M1467 2250c-1,-1 -2,-2 -4,-2 -2,0 -3,1 -4,2l0 0c-1,1 -2,2 -2,4 0,2 1,3 2,4l0 0c1,1 2,2 4,2 2,0 3,-1 4,-2l0 0c1,-1 2,-2 2,-4 0,-2 -1,-3 -2,-4l0 0z" class="fil3"/><path d="M1233 668c6,-9 23,-22 29,-14 6,9 -8,19 -16,26 10,1 24,7 24,16 0,8 -17,5 -24,1 2,8 6,23 -2,24 -9,1 -16,-15 -17,-23 -5,5 -16,16 -22,10 -6,-6 5,-16 11,-22 -9,0 -30,-1 -27,-10 3,-10 21,-6 29,-3 -5,-10 -12,-28 -2,-31 10,-3 15,13 19,25z" class="fil9"/><path d="M1233 668c6,-9 23,-22 29,-14 6,9 -8,19 -16,26 10,1 24,7 24,16 0,8 -17,5 -24,1 2,8 6,23 -2,24 -9,1 -16,-15 -17,-23 -5,5 -16,16 -22,10 -6,-6 5,-16 11,-22 -9,0 -30,-1 -27,-10 3,-10 21,-6 29,-3 -5,-10 -12,-28 -2,-31 10,-3 15,13 19,25z" class="fil10 str2"/><path d="M1229 677c4,0 7,3 7,6 0,3 -3,6 -7,6 -4,0 -7,-3 -7,-6 0,-3 3,-6 7,-6z" class="fil11"/><path d="M1229 677c4,0 7,3 7,6 0,3 -3,6 -7,6 -4,0 -7,-3 -7,-6 0,-3 3,-6 7,-6z" class="fil10 str2"/><path d="M1155 847c8,-8 27,-17 31,-8 4,10 -11,17 -21,22 9,2 22,12 20,21 -2,8 -17,2 -24,-4 1,8 1,24 -7,23 -9,0 -13,-18 -12,-26 -6,4 -19,12 -23,5 -4,-7 8,-15 15,-19 -8,-2 -29,-7 -25,-15 5,-9 22,-2 30,3 -3,-10 -6,-29 4,-30 11,-1 12,16 14,28z" class="fil9"/><path d="M1155 847c8,-8 27,-17 31,-8 4,10 -11,17 -21,22 9,2 22,12 20,21 -2,8 -17,2 -24,-4 1,8 1,24 -7,23 -9,0 -13,-18 -12,-26 -6,4 -19,12 -23,5 -4,-7 8,-15 15,-19 -8,-2 -29,-7 -25,-15 5,-9 22,-2 30,3 -3,-10 -6,-29 4,-30 11,-1 12,16 14,28z" class="fil10 str2"/><path d="M1149 855c4,1 6,4 5,8 -1,3 -4,6 -8,5 -4,-1 -6,-4 -5,-8 1,-3 4,-6 8,-5z" class="fil11"/><path d="M1149 855c4,1 6,4 5,8 -1,3 -4,6 -8,5 -4,-1 -6,-4 -5,-8 1,-3 4,-6 8,-5z" class="fil10 str2"/><path d="M1096 903c8,-8 27,-17 31,-8 4,10 -11,17 -21,22 9,2 22,12 20,21 -2,8 -17,2 -24,-4 1,8 1,24 -7,23 -9,0 -13,-18 -12,-26 -6,4 -19,12 -23,5 -4,-7 8,-15 15,-19 -8,-2 -29,-7 -25,-15 5,-9 22,-2 30,3 -3,-10 -6,-29 4,-30 11,-1 12,16 14,28z" class="fil9"/><path d="M1096 903c8,-8 27,-17 31,-8 4,10 -11,17 -21,22 9,2 22,12 20,21 -2,8 -17,2 -24,-4 1,8 1,24 -7,23 -9,0 -13,-18 -12,-26 -6,4 -19,12 -23,5 -4,-7 8,-15 15,-19 -8,-2 -29,-7 -25,-15 5,-9 22,-2 30,3 -3,-10 -6,-29 4,-30 11,-1 12,16 14,28z" class="fil10 str2"/><path d="M1090 911c4,1 6,4 5,8 -1,3 -4,6 -8,5 -4,-1 -6,-4 -5,-8 1,-3 4,-6 8,-5z" class="fil11"/><path d="M1090 911c4,1 6,4 5,8 -1,3 -4,6 -8,5 -4,-1 -6,-4 -5,-8 1,-3 4,-6 8,-5z" class="fil10 str2"/><path d="M964 1073c8,-8 27,-17 31,-8 4,10 -11,17 -21,22 9,2 22,12 20,21 -2,8 -17,2 -24,-4 1,8 1,24 -7,23 -9,0 -13,-18 -12,-26 -6,4 -19,12 -23,5 -4,-7 8,-15 15,-19 -8,-2 -29,-7 -25,-15 5,-9 22,-2 30,3 -3,-10 -6,-29 4,-30 11,-1 12,16 14,28z" class="fil9"/><path d="M964 1073c8,-8 27,-17 31,-8 4,10 -11,17 -21,22 9,2 22,12 20,21 -2,8 -17,2 -24,-4 1,8 1,24 -7,23 -9,0 -13,-18 -12,-26 -6,4 -19,12 -23,5 -4,-7 8,-15 15,-19 -8,-2 -29,-7 -25,-15 5,-9 22,-2 30,3 -3,-10 -6,-29 4,-30 11,-1 12,16 14,28z" class="fil10 str2"/><path d="M959 1081c4,1 6,4 5,8 -1,3 -4,6 -8,5 -4,-1 -6,-4 -5,-8 1,-3 4,-6 8,-5z" class="fil11"/><path d="M959 1081c4,1 6,4 5,8 -1,3 -4,6 -8,5 -4,-1 -6,-4 -5,-8 1,-3 4,-6 8,-5z" class="fil10 str2"/><path d="M900 1205c-10,-10 -33,-21 -38,-10 -5,12 14,22 26,27 -11,3 -27,14 -25,26 2,10 21,2 30,-5 -1,10 -1,29 9,29 11,0 16,-22 15,-32 8,5 24,15 29,6 5,-9 -10,-18 -19,-24 10,-2 36,-8 31,-18 -6,-11 -27,-2 -37,3 4,-13 8,-37 -5,-38 -13,-1 -15,19 -17,35z" class="fil9"/><path d="M900 1205c-10,-10 -33,-21 -38,-10 -5,12 14,22 26,27 -11,3 -27,14 -25,26 2,10 21,2 30,-5 -1,10 -1,29 9,29 11,0 16,-22 15,-32 8,5 24,15 29,6 5,-9 -10,-18 -19,-24 10,-2 36,-8 31,-18 -6,-11 -27,-2 -37,3 4,-13 8,-37 -5,-38 -13,-1 -15,19 -17,35z" class="fil10 str2"/><path d="M907 1215c-5,1 -7,5 -7,9 1,4 5,7 10,6 5,-1 7,-5 7,-9 -1,-4 -5,-7 -10,-6z" class="fil11"/><path d="M907 1215c-5,1 -7,5 -7,9 1,4 5,7 10,6 5,-1 7,-5 7,-9 -1,-4 -5,-7 -10,-6z" class="fil10 str2"/><path d="M719 1214c10,0 18,8 18,18 0,10 -8,18 -18,18 -10,0 -18,-8 -18,-18 0,-10 8,-18 18,-18z" class="fil10 str2"/><polygon points="685 1285 716 1245 747 1285 716 1324" class="fil12"/><polygon points="685 1285 716 1245 747 1285 716 1324" class="fil10 str2"/></g></svg>