<svg xmlns="http://www.w3.org/2000/svg" xmlns:xlink="http://www.w3.org/1999/xlink" width="80" height="80" version="1.1" viewBox="0 0 3958 5194" xml:space="preserve" style="shape-rendering:geometricPrecision;text-rendering:geometricPrecision;image-rendering:optimizeQuality;fill-rule:evenodd;clip-rule:evenodd"><defs><style type="text/css">.str0{stroke:#373435;stroke-width:3}.fil0{fill-rule:nonzero}.fil1{fill:none}.fil1,.fil2{fill-rule:nonzero}.fil0{fill:#373435}.fil2{fill:#db9b5c}.fil3,.fil4,.fil5{fill-rule:nonzero}.fil5{fill:#f5886c}.fil4{fill:#fefefe}.fil3{fill:#cdcabb}</style></defs><g id="Layer_x0020_1"><metadata id="CorelCorpID_0Corel-Layer"/><path d="M2475 3973c5,145 19,289 48,434 25,125 61,251 114,376 22,13 60,25 103,38 93,29 213,66 277,146 28,34 40,63 42,87 1,20 -5,37 -16,50 -11,13 -27,22 -46,27 -33,10 -74,9 -109,-1 -100,109 -294,45 -428,1 -42,-14 -77,-25 -102,-29 -55,-8 -93,-39 -116,-74 -11,-17 -19,-36 -23,-54 -4,-18 -5,-36 -3,-51l0 0c2,-16 8,-29 17,-38 -49,-78 -130,-164 -218,-243 -106,-95 -222,-179 -305,-224 -113,36 -215,86 -307,147 -125,83 -232,188 -327,310 12,11 21,29 24,49l0 0c2,13 2,27 -1,41 -3,14 -8,28 -17,41 -19,29 -51,53 -103,61 -24,4 -64,19 -112,38 -154,60 -392,154 -521,14 -23,1 -47,-5 -67,-18 -16,-10 -30,-24 -39,-41 -9,-17 -12,-38 -7,-60 5,-26 22,-54 54,-84 81,-75 171,-91 259,-106 94,-16 186,-32 261,-124 85,-176 121,-392 159,-618 5,-31 10,-63 16,-94 -38,-1 -78,-7 -119,-15 -49,-9 -98,-23 -145,-38 -57,-19 -112,-44 -166,-69 -78,-36 -155,-72 -237,-88 -44,-9 -91,-10 -137,-7 -54,4 -108,14 -153,27 -8,2 -14,-9 -8,-14 36,-32 81,-53 130,-66 56,-15 115,-19 170,-14 77,6 149,38 220,69 61,27 121,53 185,64 48,8 96,13 144,14 48,1 96,-1 143,-7 19,-69 60,-140 110,-211 -7,3 -15,6 -23,8 -27,6 -61,4 -90,-13 -7,-4 -28,-18 -54,-34 -45,-28 -103,-65 -121,-75 -15,-8 -34,-12 -55,-11 -22,1 -46,7 -71,18 -38,16 -84,27 -130,32 -46,5 -90,3 -125,-7 -23,-6 -41,-17 -52,-28 -7,-7 -11,-15 -12,-23 -1,-8 1,-17 7,-25 7,-9 20,-18 40,-25 20,-7 62,-24 102,-40 15,-6 30,-13 43,-18 -54,3 -138,6 -195,-15 -46,-17 -83,-66 -68,-105 1,-2 1,-3 2,-5l-1 1c2,-8 67,-13 143,-18 27,-2 56,-4 83,-6 54,-43 97,-72 147,-94 49,-22 103,-36 179,-51 66,-125 259,-412 470,-622 130,-129 267,-230 386,-249 -62,-34 -122,-76 -176,-125 -60,-54 -113,-116 -157,-182 -25,8 -52,12 -79,12 -146,-1 -315,-116 -463,-284 -148,-167 -276,-385 -342,-594 -31,-98 -48,-194 -48,-281 1,-152 38,-341 119,-478 63,-108 153,-183 273,-183 242,1 452,185 636,346 8,7 15,13 23,20 0,0 0,0 1,0 103,-30 204,-71 302,-125 98,-54 193,-121 285,-205 6,-5 17,3 13,10 -23,45 -54,89 -95,134 -29,32 -64,64 -103,97 88,-33 176,-55 264,-66 3,-10 6,-17 8,-24 46,-131 99,-285 220,-281 73,3 171,91 240,226 54,107 89,244 78,392 21,12 42,24 62,37 35,23 69,49 100,77 0,-36 -9,-72 -29,-110 -2,-4 -4,-7 3,-11 7,-4 9,0 11,3 24,45 33,89 30,133 26,25 51,52 73,82 25,-34 48,-77 67,-128 1,-4 3,-8 11,-5 8,3 6,7 5,11 -21,54 -45,100 -73,136 71,99 115,222 115,372 0,63 -27,134 -52,199 -21,55 -40,104 -37,136 3,28 19,53 40,75 28,-11 57,-20 85,-28 78,-21 157,-31 235,-28 4,0 8,0 8,9 0,8 -5,8 -9,8 -77,-4 -153,6 -230,27 -25,7 -51,15 -76,25 20,18 43,34 65,51 7,5 15,10 22,16 57,-4 113,-6 169,-5 141,2 281,18 420,45 4,1 8,2 7,10 -2,8 -6,7 -10,7 -138,-27 -276,-43 -417,-45 -49,-1 -99,1 -148,4 44,35 76,71 60,119 90,25 175,59 255,103 4,2 7,4 3,11 -4,7 -8,5 -11,3 -79,-43 -163,-77 -253,-102 -42,99 -109,180 -193,248 -87,70 -194,125 -312,172 0,0 0,0 0,0 81,52 144,136 205,215 7,9 14,18 20,27 35,46 86,139 145,248 78,143 170,313 259,433 27,36 72,55 117,73 20,8 41,16 59,26 8,4 18,10 27,15 29,16 59,33 90,40 73,16 163,9 223,3 44,-4 74,-6 77,7 3,9 4,18 4,27 1,26 -11,47 -29,62 -17,15 -40,25 -64,32 -25,7 -51,11 -72,13 6,5 11,11 16,17 8,10 14,20 20,30 3,0 5,0 8,1 17,1 38,3 52,7 15,4 24,11 20,24l0 0c-19,73 -94,97 -172,100 -76,4 -155,-11 -189,-17 -13,-2 -26,-5 -39,-8 -38,-8 -77,-16 -101,-15 -22,1 -76,43 -114,73 -17,13 -32,25 -40,29 -31,18 -66,17 -94,7 -10,-4 -20,-9 -27,-15 -8,-6 -15,-13 -19,-21 -7,-12 -9,-25 -4,-37 3,-8 15,-23 30,-41 28,-34 66,-80 63,-104 -2,-22 -7,-41 -15,-57 -8,-16 -20,-30 -37,-43 -106,-83 -211,-168 -316,-254 -47,-38 -94,-76 -141,-115 1,9 1,17 1,26 10,191 -6,368 -47,526 -33,128 -90,253 -163,362zm-1324 -398c64,-83 140,-165 213,-243 139,-151 266,-287 268,-384 -71,35 -146,74 -218,114 -140,78 -272,161 -357,228 -27,21 36,153 71,228 12,26 21,45 23,52 1,2 1,4 1,6zm1001 -3194c-67,14 -133,31 -198,52 45,1 99,5 158,12 8,-7 15,-17 23,-29 6,-10 11,-22 17,-34z" class="fil0"/><path d="M2475 3973c5,145 19,289 48,434 25,125 61,251 114,376 22,13 60,25 103,38 93,29 213,66 277,146 28,34 40,63 42,87 1,20 -5,37 -16,50 -11,13 -27,22 -46,27 -33,10 -74,9 -109,-1 -100,109 -294,45 -428,1 -42,-14 -77,-25 -102,-29 -55,-8 -93,-39 -116,-74 -11,-17 -19,-36 -23,-54 -4,-18 -5,-36 -3,-51l0 0c2,-16 8,-29 17,-38 -49,-78 -130,-164 -218,-243 -106,-95 -222,-179 -305,-224 -113,36 -215,86 -307,147 -125,83 -232,188 -327,310 12,11 21,29 24,49l0 0c2,13 2,27 -1,41 -3,14 -8,28 -17,41 -19,29 -51,53 -103,61 -24,4 -64,19 -112,38 -154,60 -392,154 -521,14 -23,1 -47,-5 -67,-18 -16,-10 -30,-24 -39,-41 -9,-17 -12,-38 -7,-60 5,-26 22,-54 54,-84 81,-75 171,-91 259,-106 94,-16 186,-32 261,-124 85,-176 121,-392 159,-618 5,-31 10,-63 16,-94 -38,-1 -78,-7 -119,-15 -49,-9 -98,-23 -145,-38 -57,-19 -112,-44 -166,-69 -78,-36 -155,-72 -237,-88 -44,-9 -91,-10 -137,-7 -54,4 -108,14 -153,27 -8,2 -14,-9 -8,-14 36,-32 81,-53 130,-66 56,-15 115,-19 170,-14 77,6 149,38 220,69 61,27 121,53 185,64 48,8 96,13 144,14 48,1 96,-1 143,-7 19,-69 60,-140 110,-211 -7,3 -15,6 -23,8 -27,6 -61,4 -90,-13 -7,-4 -28,-18 -54,-34 -45,-28 -103,-65 -121,-75 -15,-8 -34,-12 -55,-11 -22,1 -46,7 -71,18 -38,16 -84,27 -130,32 -46,5 -90,3 -125,-7 -23,-6 -41,-17 -52,-28 -7,-7 -11,-15 -12,-23 -1,-8 1,-17 7,-25 7,-9 20,-18 40,-25 20,-7 62,-24 102,-40 15,-6 30,-13 43,-18 -54,3 -138,6 -195,-15 -46,-17 -83,-66 -68,-105 1,-2 1,-3 2,-5l-1 1c2,-8 67,-13 143,-18 27,-2 56,-4 83,-6 54,-43 97,-72 147,-94 49,-22 103,-36 179,-51 66,-125 259,-412 470,-622 130,-129 267,-230 386,-249 -62,-34 -122,-76 -176,-125 -60,-54 -113,-116 -157,-182 -25,8 -52,12 -79,12 -146,-1 -315,-116 -463,-284 -148,-167 -276,-385 -342,-594 -31,-98 -48,-194 -48,-281 1,-152 38,-341 119,-478 63,-108 153,-183 273,-183 242,1 452,185 636,346 8,7 15,13 23,20 0,0 0,0 1,0 103,-30 204,-71 302,-125 98,-54 193,-121 285,-205 6,-5 17,3 13,10 -23,45 -54,89 -95,134 -29,32 -64,64 -103,97 88,-33 176,-55 264,-66 3,-10 6,-17 8,-24 46,-131 99,-285 220,-281 73,3 171,91 240,226 54,107 89,244 78,392 21,12 42,24 62,37 35,23 69,49 100,77 0,-36 -9,-72 -29,-110 -2,-4 -4,-7 3,-11 7,-4 9,0 11,3 24,45 33,89 30,133 26,25 51,52 73,82 25,-34 48,-77 67,-128 1,-4 3,-8 11,-5 8,3 6,7 5,11 -21,54 -45,100 -73,136 71,99 115,222 115,372 0,63 -27,134 -52,199 -21,55 -40,104 -37,136 3,28 19,53 40,75 28,-11 57,-20 85,-28 78,-21 157,-31 235,-28 4,0 8,0 8,9 0,8 -5,8 -9,8 -77,-4 -153,6 -230,27 -25,7 -51,15 -76,25 20,18 43,34 65,51 7,5 15,10 22,16 57,-4 113,-6 169,-5 141,2 281,18 420,45 4,1 8,2 7,10 -2,8 -6,7 -10,7 -138,-27 -276,-43 -417,-45 -49,-1 -99,1 -148,4 44,35 76,71 60,119 90,25 175,59 255,103 4,2 7,4 3,11 -4,7 -8,5 -11,3 -79,-43 -163,-77 -253,-102 -42,99 -109,180 -193,248 -87,70 -194,125 -312,172 0,0 0,0 0,0 81,52 144,136 205,215 7,9 14,18 20,27 35,46 86,139 145,248 78,143 170,313 259,433 27,36 72,55 117,73 20,8 41,16 59,26 8,4 18,10 27,15 29,16 59,33 90,40 73,16 163,9 223,3 44,-4 74,-6 77,7 3,9 4,18 4,27 1,26 -11,47 -29,62 -17,15 -40,25 -64,32 -25,7 -51,11 -72,13 6,5 11,11 16,17 8,10 14,20 20,30 3,0 5,0 8,1 17,1 38,3 52,7 15,4 24,11 20,24l0 0c-19,73 -94,97 -172,100 -76,4 -155,-11 -189,-17 -13,-2 -26,-5 -39,-8 -38,-8 -77,-16 -101,-15 -22,1 -76,43 -114,73 -17,13 -32,25 -40,29 -31,18 -66,17 -94,7 -10,-4 -20,-9 -27,-15 -8,-6 -15,-13 -19,-21 -7,-12 -9,-25 -4,-37 3,-8 15,-23 30,-41 28,-34 66,-80 63,-104 -2,-22 -7,-41 -15,-57 -8,-16 -20,-30 -37,-43 -106,-83 -211,-168 -316,-254 -47,-38 -94,-76 -141,-115 1,9 1,17 1,26 10,191 -6,368 -47,526 -33,128 -90,253 -163,362m-1324 -398c64,-83 140,-165 213,-243 139,-151 266,-287 268,-384 -71,35 -146,74 -218,114 -140,78 -272,161 -357,228 -27,21 36,153 71,228 12,26 21,45 23,52 1,2 1,4 1,6m1001 -3194c-67,14 -133,31 -198,52 45,1 99,5 158,12 8,-7 15,-17 23,-29 6,-10 11,-22 17,-34" class="fil1 str0"/><path d="M983 3957c6,-32 11,-64 17,-96 1,-5 2,-10 3,-15 -46,5 -93,7 -139,6 -49,-1 -98,-6 -147,-14 -66,-11 -127,-38 -189,-65 -70,-31 -140,-62 -215,-68 -53,-4 -111,-1 -165,14 -32,9 -63,21 -89,37 36,-8 75,-14 115,-17 48,-3 96,-2 142,7 84,17 163,53 241,89 54,25 109,50 164,69 46,15 94,28 143,38 41,8 81,13 119,14z" class="fil2"/><path d="M983 3957c6,-32 11,-64 17,-96 1,-5 2,-10 3,-15 -46,5 -93,7 -139,6 -49,-1 -98,-6 -147,-14 -66,-11 -127,-38 -189,-65 -70,-31 -140,-62 -215,-68 -53,-4 -111,-1 -165,14 -32,9 -63,21 -89,37 36,-8 75,-14 115,-17 48,-3 96,-2 142,7 84,17 163,53 241,89 54,25 109,50 164,69 46,15 94,28 143,38 41,8 81,13 119,14z" class="fil1 str0"/><path d="M2666 3045c-2,-2 -3,-4 -1,-8 -7,-99 -21,-202 -42,-308 -1,-1 -1,-3 -2,-4 -5,-16 -12,-28 -20,-36 -9,-9 -19,-13 -27,-13 -32,1 -71,60 -107,117 -36,55 -70,108 -103,109 -40,1 -59,-50 -79,-104 -22,-60 -47,-125 -100,-125 -58,0 -109,124 -171,274 -44,107 -94,228 -157,327 -44,69 -89,131 -133,189 -105,142 -196,264 -212,438 -1,16 -2,32 -2,46 0,115 41,201 106,260 66,59 157,92 258,101 19,2 38,2 57,2 148,0 290,-78 409,-199 42,-43 81,-91 116,-143 0,-2 1,-5 4,-6 72,-107 128,-230 160,-356 41,-156 56,-331 46,-521 -1,-14 -2,-27 -3,-41z" class="fil3"/><path d="M2666 3045c-2,-2 -3,-4 -1,-8 -7,-99 -21,-202 -42,-308 -1,-1 -1,-3 -2,-4 -5,-16 -12,-28 -20,-36 -9,-9 -19,-13 -27,-13 -32,1 -71,60 -107,117 -36,55 -70,108 -103,109 -40,1 -59,-50 -79,-104 -22,-60 -47,-125 -100,-125 -58,0 -109,124 -171,274 -44,107 -94,228 -157,327 -44,69 -89,131 -133,189 -105,142 -196,264 -212,438 -1,16 -2,32 -2,46 0,115 41,201 106,260 66,59 157,92 258,101 19,2 38,2 57,2 148,0 290,-78 409,-199 42,-43 81,-91 116,-143 0,-2 1,-5 4,-6 72,-107 128,-230 160,-356 41,-156 56,-331 46,-521 -1,-14 -2,-27 -3,-41z" class="fil1 str0"/><path d="M2497 2350c-17,14 -34,29 -50,44 -56,50 -107,96 -155,96 -43,0 -86,-20 -127,-51 -22,-17 -43,-37 -63,-58 -3,-1 -7,-4 -11,-6 -3,-2 -6,-3 -9,-5l0 0c-38,-20 -71,-43 -100,-68 21,30 39,69 54,120 1,4 2,8 -6,10 -8,2 -9,-2 -10,-6 -30,-103 -74,-154 -122,-180 -48,-25 -101,-24 -148,-21 -120,7 -264,111 -400,246 -212,211 -406,499 -469,622 -1,1 -4,4 -6,4 -76,15 -130,29 -179,50 -42,19 -80,42 -124,76 42,-3 78,-6 93,-9 4,-1 8,-2 10,7 2,8 -3,9 -7,10 -19,4 -66,8 -120,12 -1,1 -3,1 -5,0 -27,2 -56,4 -84,6 -69,5 -127,2 -127,5 0,0 -1,1 -1,1 -1,1 -1,2 -1,3 -11,31 20,69 58,84 56,21 141,17 194,14 15,-1 28,-1 36,-1 8,0 11,12 4,16 -13,7 -46,22 -81,36 -39,17 -82,34 -103,41 -17,6 -27,13 -32,20 -3,4 -5,8 -4,13 1,4 3,9 7,14 9,10 24,18 44,23 32,9 75,11 118,6 44,-4 89,-15 125,-31 26,-11 52,-18 77,-19 24,-1 46,3 64,13 18,10 76,47 121,75 24,15 44,28 54,34 24,15 53,17 77,11 9,-2 18,-6 24,-10 6,-4 11,-8 14,-13 3,-4 4,-9 3,-14 -1,-6 -10,-24 -22,-49 -38,-79 -104,-219 -66,-248 86,-67 218,-151 359,-229 143,-79 294,-154 414,-201 4,-2 8,-3 11,5 3,8 -1,9 -5,11 -54,21 -114,48 -177,78 5,104 -127,247 -272,404 -156,168 -327,353 -358,521 -13,69 -25,138 -36,207 -38,227 -73,442 -158,620 0,2 -1,4 -3,5 -17,35 -36,69 -57,100 -2,3 -5,7 -12,2 -7,-5 -5,-8 -2,-12 10,-15 20,-31 29,-47 -70,60 -149,74 -230,88 -85,15 -173,29 -250,101 -29,27 -44,52 -49,75 -4,18 -1,35 6,49 7,14 19,26 32,35 14,9 31,14 48,15 -5,-10 -7,-22 -5,-35 1,-10 4,-21 11,-31 6,-10 15,-20 28,-28 35,-24 100,-40 210,-28 4,0 8,1 7,9 -1,8 -5,8 -9,7 -105,-11 -166,3 -199,25 -10,7 -18,15 -23,23 -5,8 -8,16 -8,24 -1,13 2,24 8,33 1,1 2,2 2,4 121,135 354,43 505,-16 49,-19 90,-35 116,-39 46,-7 76,-28 92,-53 7,-11 12,-23 14,-36 2,-12 3,-24 1,-35l0 0c-3,-19 -12,-36 -24,-43 -4,-2 -5,-9 -2,-12 97,-126 208,-234 336,-320 129,-86 275,-149 445,-184 4,-1 8,-2 10,7 2,8 -2,9 -7,10 -38,8 -74,17 -110,27 83,47 193,128 294,218 91,82 175,172 225,253 2,3 1,9 -3,11 -9,6 -14,17 -16,31l0 0c-2,13 -1,29 3,45 4,16 11,33 21,49 21,32 55,59 105,67 26,4 62,16 104,30 129,43 316,104 409,5 0,-2 2,-4 3,-5 1,-1 3,-4 3,-9l0 0c1,-7 1,-17 -4,-28l0 0c-4,-11 -12,-24 -26,-37 -30,-28 -87,-57 -188,-74 -4,-1 -8,-1 -7,-10 1,-8 6,-8 10,-7 105,18 165,48 197,78 16,15 25,30 31,44l0 0c5,14 6,27 4,36l0 0c0,2 -1,4 -1,6 31,8 67,9 96,0 16,-5 29,-12 38,-22 9,-10 13,-22 12,-38 -1,-21 -13,-46 -38,-78 -61,-76 -178,-112 -269,-141 -34,-11 -65,-20 -88,-30 5,12 11,24 16,37 2,4 4,8 -4,11 -8,3 -9,0 -11,-4 -67,-147 -112,-293 -141,-440 -27,-138 -41,-276 -47,-414 -32,46 -68,88 -105,127 -122,124 -268,203 -421,204 -20,0 -39,-1 -58,-2 -104,-9 -199,-43 -268,-105 -69,-62 -112,-152 -112,-272 0,-16 1,-32 2,-48 15,-178 108,-303 215,-447 43,-58 88,-119 132,-188 62,-98 112,-218 156,-325 64,-156 118,-285 186,-285 64,0 91,71 115,136 18,49 35,94 63,94 24,0 56,-50 89,-101 39,-60 79,-123 121,-124 12,0 26,5 38,17 -14,-64 -30,-128 -48,-194 -1,-4 -2,-8 6,-10 8,-2 9,2 10,6 55,195 89,383 102,560 51,41 102,83 154,125 104,85 209,170 316,254 19,15 32,30 41,48 9,18 14,39 17,63 3,31 -37,80 -67,116 -14,17 -25,30 -27,36 -3,7 -1,15 3,22 3,6 9,11 15,16 7,5 14,9 23,13 24,9 54,10 80,-5 7,-4 21,-15 38,-28 40,-31 97,-75 123,-76 26,-2 66,7 105,15 13,3 27,6 39,8 33,6 111,21 185,17 72,-4 140,-25 157,-88l0 0c0,0 -4,-2 -9,-3 -13,-4 -33,-5 -49,-6 -3,0 -5,0 -7,-1 0,0 0,0 0,0 0,0 0,0 0,0 0,0 0,0 0,0 0,0 0,0 -1,0 -39,-3 -79,-9 -119,-18 -39,-9 -79,-21 -118,-35 -4,-1 -8,-3 -5,-11 3,-8 7,-7 11,-5 39,13 78,25 116,34 32,7 64,13 96,16 -4,-6 -8,-12 -12,-18 -7,-9 -16,-18 -26,-25 -1,0 -3,-1 -4,-2 -26,-18 -49,-32 -72,-44 -23,-12 -44,-21 -65,-29 -4,-2 -8,-3 -5,-11 3,-8 7,-6 11,-5 22,8 44,18 67,30 22,11 45,25 70,42 22,-1 56,-4 88,-13 22,-7 43,-16 58,-29 14,-12 23,-29 23,-49 0,-7 -1,-14 -4,-22 0,0 0,-2 0,-2 0,-2 -24,4 -59,7 -61,5 -152,13 -228,-4 -34,-8 -65,-25 -95,-41 -9,-5 -17,-9 -27,-14 -18,-10 -38,-18 -58,-25 -47,-19 -94,-38 -124,-78 -90,-121 -182,-291 -261,-435 -59,-108 -109,-201 -144,-246 -7,-9 -14,-18 -20,-27 -61,-80 -125,-164 -206,-215 -54,36 -119,56 -197,60 -2,0 -6,0 -10,0 -1,0 -1,0 -2,0z" class="fil2"/><path d="M2497 2350c-17,14 -34,29 -50,44 -56,50 -107,96 -155,96 -43,0 -86,-20 -127,-51 -22,-17 -43,-37 -63,-58 -3,-1 -7,-4 -11,-6 -3,-2 -6,-3 -9,-5l0 0c-38,-20 -71,-43 -100,-68 21,30 39,69 54,120 1,4 2,8 -6,10 -8,2 -9,-2 -10,-6 -30,-103 -74,-154 -122,-180 -48,-25 -101,-24 -148,-21 -120,7 -264,111 -400,246 -212,211 -406,499 -469,622 -1,1 -4,4 -6,4 -76,15 -130,29 -179,50 -42,19 -80,42 -124,76 42,-3 78,-6 93,-9 4,-1 8,-2 10,7 2,8 -3,9 -7,10 -19,4 -66,8 -120,12 -1,1 -3,1 -5,0 -27,2 -56,4 -84,6 -69,5 -127,2 -127,5 0,0 -1,1 -1,1 -1,1 -1,2 -1,3 -11,31 20,69 58,84 56,21 141,17 194,14 15,-1 28,-1 36,-1 8,0 11,12 4,16 -13,7 -46,22 -81,36 -39,17 -82,34 -103,41 -17,6 -27,13 -32,20 -3,4 -5,8 -4,13 1,4 3,9 7,14 9,10 24,18 44,23 32,9 75,11 118,6 44,-4 89,-15 125,-31 26,-11 52,-18 77,-19 24,-1 46,3 64,13 18,10 76,47 121,75 24,15 44,28 54,34 24,15 53,17 77,11 9,-2 18,-6 24,-10 6,-4 11,-8 14,-13 3,-4 4,-9 3,-14 -1,-6 -10,-24 -22,-49 -38,-79 -104,-219 -66,-248 86,-67 218,-151 359,-229 143,-79 294,-154 414,-201 4,-2 8,-3 11,5 3,8 -1,9 -5,11 -54,21 -114,48 -177,78 5,104 -127,247 -272,404 -156,168 -327,353 -358,521 -13,69 -25,138 -36,207 -38,227 -73,442 -158,620 0,2 -1,4 -3,5 -17,35 -36,69 -57,100 -2,3 -5,7 -12,2 -7,-5 -5,-8 -2,-12 10,-15 20,-31 29,-47 -70,60 -149,74 -230,88 -85,15 -173,29 -250,101 -29,27 -44,52 -49,75 -4,18 -1,35 6,49 7,14 19,26 32,35 14,9 31,14 48,15 -5,-10 -7,-22 -5,-35 1,-10 4,-21 11,-31 6,-10 15,-20 28,-28 35,-24 100,-40 210,-28 4,0 8,1 7,9 -1,8 -5,8 -9,7 -105,-11 -166,3 -199,25 -10,7 -18,15 -23,23 -5,8 -8,16 -8,24 -1,13 2,24 8,33 1,1 2,2 2,4 121,135 354,43 505,-16 49,-19 90,-35 116,-39 46,-7 76,-28 92,-53 7,-11 12,-23 14,-36 2,-12 3,-24 1,-35l0 0c-3,-19 -12,-36 -24,-43 -4,-2 -5,-9 -2,-12 97,-126 208,-234 336,-320 129,-86 275,-149 445,-184 4,-1 8,-2 10,7 2,8 -2,9 -7,10 -38,8 -74,17 -110,27 83,47 193,128 294,218 91,82 175,172 225,253 2,3 1,9 -3,11 -9,6 -14,17 -16,31l0 0c-2,13 -1,29 3,45 4,16 11,33 21,49 21,32 55,59 105,67 26,4 62,16 104,30 129,43 316,104 409,5 0,-2 2,-4 3,-5 1,-1 3,-4 3,-9l0 0c1,-7 1,-17 -4,-28l0 0c-4,-11 -12,-24 -26,-37 -30,-28 -87,-57 -188,-74 -4,-1 -8,-1 -7,-10 1,-8 6,-8 10,-7 105,18 165,48 197,78 16,15 25,30 31,44l0 0c5,14 6,27 4,36l0 0c0,2 -1,4 -1,6 31,8 67,9 96,0 16,-5 29,-12 38,-22 9,-10 13,-22 12,-38 -1,-21 -13,-46 -38,-78 -61,-76 -178,-112 -269,-141 -34,-11 -65,-20 -88,-30 5,12 11,24 16,37 2,4 4,8 -4,11 -8,3 -9,0 -11,-4 -67,-147 -112,-293 -141,-440 -27,-138 -41,-276 -47,-414 -32,46 -68,88 -105,127 -122,124 -268,203 -421,204 -20,0 -39,-1 -58,-2 -104,-9 -199,-43 -268,-105 -69,-62 -112,-152 -112,-272 0,-16 1,-32 2,-48 15,-178 108,-303 215,-447 43,-58 88,-119 132,-188 62,-98 112,-218 156,-325 64,-156 118,-285 186,-285 64,0 91,71 115,136 18,49 35,94 63,94 24,0 56,-50 89,-101 39,-60 79,-123 121,-124 12,0 26,5 38,17 -14,-64 -30,-128 -48,-194 -1,-4 -2,-8 6,-10 8,-2 9,2 10,6 55,195 89,383 102,560 51,41 102,83 154,125 104,85 209,170 316,254 19,15 32,30 41,48 9,18 14,39 17,63 3,31 -37,80 -67,116 -14,17 -25,30 -27,36 -3,7 -1,15 3,22 3,6 9,11 15,16 7,5 14,9 23,13 24,9 54,10 80,-5 7,-4 21,-15 38,-28 40,-31 97,-75 123,-76 26,-2 66,7 105,15 13,3 27,6 39,8 33,6 111,21 185,17 72,-4 140,-25 157,-88l0 0c0,0 -4,-2 -9,-3 -13,-4 -33,-5 -49,-6 -3,0 -5,0 -7,-1 0,0 0,0 0,0 0,0 0,0 0,0 0,0 0,0 0,0 0,0 0,0 -1,0 -39,-3 -79,-9 -119,-18 -39,-9 -79,-21 -118,-35 -4,-1 -8,-3 -5,-11 3,-8 7,-7 11,-5 39,13 78,25 116,34 32,7 64,13 96,16 -4,-6 -8,-12 -12,-18 -7,-9 -16,-18 -26,-25 -1,0 -3,-1 -4,-2 -26,-18 -49,-32 -72,-44 -23,-12 -44,-21 -65,-29 -4,-2 -8,-3 -5,-11 3,-8 7,-6 11,-5 22,8 44,18 67,30 22,11 45,25 70,42 22,-1 56,-4 88,-13 22,-7 43,-16 58,-29 14,-12 23,-29 23,-49 0,-7 -1,-14 -4,-22 0,0 0,-2 0,-2 0,-2 -24,4 -59,7 -61,5 -152,13 -228,-4 -34,-8 -65,-25 -95,-41 -9,-5 -17,-9 -27,-14 -18,-10 -38,-18 -58,-25 -47,-19 -94,-38 -124,-78 -90,-121 -182,-291 -261,-435 -59,-108 -109,-201 -144,-246 -7,-9 -14,-18 -20,-27 -61,-80 -125,-164 -206,-215 -54,36 -119,56 -197,60 -2,0 -6,0 -10,0 -1,0 -1,0 -2,0" class="fil1 str0"/><path d="M2731 1398c6,-15 12,-28 19,-38 12,-16 26,-26 41,-28 3,0 6,0 8,0 49,2 84,84 79,188 -1,23 -4,46 -9,67 -4,18 -9,36 -15,51 3,0 6,0 9,0 9,0 17,1 25,4 108,-221 62,-620 -52,-678 -3,-2 -6,-3 -9,-4 -8,-2 -15,-4 -21,-5 0,0 -1,0 -1,0 -1,0 -3,0 -4,-1 -22,-2 -39,5 -52,19 -18,19 -29,52 -35,91 -14,94 -8,193 8,292 2,14 5,28 7,42z" class="fil4"/><path d="M2731 1398c6,-15 12,-28 19,-38 12,-16 26,-26 41,-28 3,0 6,0 8,0 49,2 84,84 79,188 -1,23 -4,46 -9,67 -4,18 -9,36 -15,51 3,0 6,0 9,0 9,0 17,1 25,4 108,-221 62,-620 -52,-678 -3,-2 -6,-3 -9,-4 -8,-2 -15,-4 -21,-5 0,0 -1,0 -1,0 -1,0 -3,0 -4,-1 -22,-2 -39,5 -52,19 -18,19 -29,52 -35,91 -14,94 -8,193 8,292 2,14 5,28 7,42z" class="fil1 str0"/><path d="M2215 1610c7,6 14,12 20,19 14,0 27,0 41,0 -7,-16 -14,-33 -20,-51 -7,-21 -12,-43 -15,-66 -5,-35 -6,-67 -3,-94 3,-26 10,-48 19,-64 10,-17 24,-28 40,-31 4,-1 8,-1 13,0 27,3 55,29 77,67l0 0c12,21 23,46 32,73 -1,-103 -19,-202 -49,-289 -52,-149 -139,-260 -231,-287 -11,-3 -21,-5 -31,-5 -22,-1 -41,6 -56,18 -15,12 -27,30 -33,52 -3,12 -5,25 -6,38 -2,75 48,203 103,344 35,90 72,185 100,276z" class="fil4"/><path d="M2215 1610c7,6 14,12 20,19 14,0 27,0 41,0 -7,-16 -14,-33 -20,-51 -7,-21 -12,-43 -15,-66 -5,-35 -6,-67 -3,-94 3,-26 10,-48 19,-64 10,-17 24,-28 40,-31 4,-1 8,-1 13,0 27,3 55,29 77,67l0 0c12,21 23,46 32,73 -1,-103 -19,-202 -49,-289 -52,-149 -139,-260 -231,-287 -11,-3 -21,-5 -31,-5 -22,-1 -41,6 -56,18 -15,12 -27,30 -33,52 -3,12 -5,25 -6,38 -2,75 48,203 103,344 35,90 72,185 100,276z" class="fil1 str0"/><path d="M1383 1891c-63,-98 -105,-206 -115,-311 -9,-91 5,-181 49,-262 -50,13 -98,14 -143,-4 -51,-20 -97,-63 -137,-138 -4,-7 7,-16 13,-10 47,41 93,59 135,59 26,0 49,-6 71,-17 22,-11 42,-27 58,-46 37,-42 59,-98 59,-151 0,-172 -73,-378 -194,-530 -103,-130 -242,-220 -399,-216 -48,1 -95,19 -137,47 -46,31 -85,73 -112,120 0,0 0,1 -1,1 -36,108 -53,226 -53,327 -1,86 17,179 47,276 65,206 193,423 339,588 146,164 310,277 451,278 24,0 47,-3 69,-9z" class="fil3"/><path d="M1383 1891c-63,-98 -105,-206 -115,-311 -9,-91 5,-181 49,-262 -50,13 -98,14 -143,-4 -51,-20 -97,-63 -137,-138 -4,-7 7,-16 13,-10 47,41 93,59 135,59 26,0 49,-6 71,-17 22,-11 42,-27 58,-46 37,-42 59,-98 59,-151 0,-172 -73,-378 -194,-530 -103,-130 -242,-220 -399,-216 -48,1 -95,19 -137,47 -46,31 -85,73 -112,120 0,0 0,1 -1,1 -36,108 -53,226 -53,327 -1,86 17,179 47,276 65,206 193,423 339,588 146,164 310,277 451,278 24,0 47,-3 69,-9z" class="fil1 str0"/><path d="M2197 307c5,-1 10,-1 15,-2 117,-12 234,-6 351,16 8,2 7,17 -1,17 -112,1 -223,11 -332,29 -20,3 -39,7 -59,11 -7,18 -15,33 -22,47 -5,9 -11,17 -16,23 174,21 392,68 576,166 9,-142 -25,-273 -77,-376 -65,-130 -158,-215 -225,-217 -109,-4 -160,144 -204,269 -2,6 -4,11 -6,16z" class="fil2"/><path d="M2197 307c5,-1 10,-1 15,-2 117,-12 234,-6 351,16 8,2 7,17 -1,17 -112,1 -223,11 -332,29 -20,3 -39,7 -59,11 -7,18 -15,33 -22,47 -5,9 -11,17 -16,23 174,21 392,68 576,166 9,-142 -25,-273 -77,-376 -65,-130 -158,-215 -225,-217 -109,-4 -160,144 -204,269 -2,6 -4,11 -6,16z" class="fil1 str0"/><path d="M2976 861c-7,9 -15,17 -22,24 -32,31 -69,52 -109,63 0,0 1,0 1,0 120,61 170,471 60,699 14,7 27,17 38,30 31,-15 61,-29 92,-41 -22,-23 -37,-50 -40,-80 -3,-36 16,-87 38,-144 24,-63 51,-132 51,-193 0,-145 -42,-262 -109,-358z" class="fil2"/><path d="M2976 861c-7,9 -15,17 -22,24 -32,31 -69,52 -109,63 0,0 1,0 1,0 120,61 170,471 60,699 14,7 27,17 38,30 31,-15 61,-29 92,-41 -22,-23 -37,-50 -40,-80 -3,-36 16,-87 38,-144 24,-63 51,-132 51,-193 0,-145 -42,-262 -109,-358z" class="fil1 str0"/><path d="M2901 773c-1,6 -2,12 -3,18 -11,49 -37,97 -73,144 44,-8 83,-29 117,-62 8,-8 16,-17 24,-26 -20,-26 -41,-51 -65,-74z" class="fil2"/><path d="M2901 773c-1,6 -2,12 -3,18 -11,49 -37,97 -73,144 44,-8 83,-29 117,-62 8,-8 16,-17 24,-26 -20,-26 -41,-51 -65,-74z" class="fil1 str0"/><path d="M1527 478c46,40 90,77 132,109 3,3 7,5 2,12 -5,7 -8,4 -12,2 -54,-40 -111,-90 -171,-143 -182,-159 -390,-341 -625,-342 -113,0 -198,72 -259,174 -15,25 -28,52 -40,80 23,-28 50,-52 80,-72 44,-30 95,-48 146,-50 163,-4 306,89 412,223 123,155 198,365 198,540 0,57 -24,118 -63,162 -18,21 -39,38 -63,50 -24,12 -51,19 -79,19 -35,0 -73,-11 -111,-36 32,49 68,79 106,94 47,18 98,15 152,-2 7,-2 14,6 10,12 -51,82 -67,174 -58,269 11,105 54,213 118,311 44,67 98,131 159,186 60,54 126,100 195,135 47,-3 100,-2 150,24 6,3 12,7 18,11 -22,-27 -41,-55 -57,-84 -49,-92 -64,-194 -53,-289 -13,1 -27,3 -40,5 -12,2 -24,4 -35,5 -4,0 -8,1 -9,-8 -1,-8 4,-9 8,-9 12,-1 23,-3 34,-4 23,-4 47,-7 71,-4 40,6 78,19 117,33 58,20 116,41 175,31 23,-4 46,-17 66,-35 -2,-2 -2,-5 3,-9 4,-3 6,-4 8,-2 14,-17 24,-36 27,-56 -74,-11 -148,-17 -223,-17 -94,0 -189,10 -286,34 -4,1 -8,2 -10,-6 -2,-8 2,-9 6,-10 99,-24 195,-34 290,-34 75,0 150,6 224,17 -2,-22 -5,-45 -10,-68 -102,-39 -208,-72 -318,-98 -144,-34 -295,-57 -453,-68 -4,0 -8,-1 -8,-9 1,-8 5,-8 9,-8 159,12 311,34 456,69 107,25 211,57 310,95 -5,-22 -10,-43 -16,-66 -2,-1 -3,-3 -3,-7 0,-2 0,-3 0,-4 -1,-5 -3,-10 -4,-15 -13,-11 -27,-22 -41,-33 -46,-33 -99,-62 -158,-87 -4,-2 -8,-3 -5,-11 3,-8 7,-6 11,-5 61,25 115,55 162,89 8,6 15,11 22,17 -26,-83 -60,-169 -92,-250 -56,-143 -107,-273 -104,-351 1,-15 3,-29 7,-43 7,-26 21,-46 39,-61 13,-11 29,-18 47,-20 23,-49 35,-98 29,-149 -5,-52 -29,-106 -77,-161 -3,-3 -6,-6 1,-12 6,-5 9,-2 12,1 51,59 75,115 81,171 5,50 -5,100 -26,148 51,-9 89,-37 113,-85 27,-53 37,-130 31,-232 0,-4 -1,-8 8,-9 8,0 9,4 9,8 6,105 -4,185 -33,241 -21,42 -52,70 -92,85 97,28 188,143 242,297 37,106 57,230 49,358 0,1 0,3 1,4 0,3 1,6 -1,8 -3,34 -7,68 -14,102 54,7 103,16 143,24l0 0c21,4 40,8 55,10 20,-5 42,-7 65,-7 7,0 13,0 19,1 6,-1 12,-3 19,-5 16,-4 34,-9 52,-13 -23,-94 -48,-192 -64,-291 -16,-101 -23,-202 -8,-298 6,-42 18,-78 39,-100 16,-17 37,-26 64,-24 39,-49 68,-99 79,-150 2,-10 4,-19 5,-29 -33,-31 -70,-59 -108,-84 -21,-14 -42,-26 -64,-38 -3,0 -4,-1 -5,-3 -190,-103 -416,-150 -593,-170 -1,0 -2,0 -3,0 -83,-9 -156,-12 -208,-12 -8,0 -10,-14 -3,-16 85,-30 171,-53 258,-71 1,-3 4,-4 9,-2 19,-4 39,-7 58,-11 80,-13 160,-22 241,-26 -85,-10 -170,-11 -255,-2 -115,12 -231,41 -346,91 -8,3 -15,-9 -8,-14 58,-44 106,-87 146,-131 26,-29 49,-58 67,-86 -81,69 -164,126 -249,173 -96,53 -195,93 -296,123z" class="fil2"/><path d="M1527 478c46,40 90,77 132,109 3,3 7,5 2,12 -5,7 -8,4 -12,2 -54,-40 -111,-90 -171,-143 -182,-159 -390,-341 -625,-342 -113,0 -198,72 -259,174 -15,25 -28,52 -40,80 23,-28 50,-52 80,-72 44,-30 95,-48 146,-50 163,-4 306,89 412,223 123,155 198,365 198,540 0,57 -24,118 -63,162 -18,21 -39,38 -63,50 -24,12 -51,19 -79,19 -35,0 -73,-11 -111,-36 32,49 68,79 106,94 47,18 98,15 152,-2 7,-2 14,6 10,12 -51,82 -67,174 -58,269 11,105 54,213 118,311 44,67 98,131 159,186 60,54 126,100 195,135 47,-3 100,-2 150,24 6,3 12,7 18,11 -22,-27 -41,-55 -57,-84 -49,-92 -64,-194 -53,-289 -13,1 -27,3 -40,5 -12,2 -24,4 -35,5 -4,0 -8,1 -9,-8 -1,-8 4,-9 8,-9 12,-1 23,-3 34,-4 23,-4 47,-7 71,-4 40,6 78,19 117,33 58,20 116,41 175,31 23,-4 46,-17 66,-35 -2,-2 -2,-5 3,-9 4,-3 6,-4 8,-2 14,-17 24,-36 27,-56 -74,-11 -148,-17 -223,-17 -94,0 -189,10 -286,34 -4,1 -8,2 -10,-6 -2,-8 2,-9 6,-10 99,-24 195,-34 290,-34 75,0 150,6 224,17 -2,-22 -5,-45 -10,-68 -102,-39 -208,-72 -318,-98 -144,-34 -295,-57 -453,-68 -4,0 -8,-1 -8,-9 1,-8 5,-8 9,-8 159,12 311,34 456,69 107,25 211,57 310,95 -5,-22 -10,-43 -16,-66 -2,-1 -3,-3 -3,-7 0,-2 0,-3 0,-4 -1,-5 -3,-10 -4,-15 -13,-11 -27,-22 -41,-33 -46,-33 -99,-62 -158,-87 -4,-2 -8,-3 -5,-11 3,-8 7,-6 11,-5 61,25 115,55 162,89 8,6 15,11 22,17 -26,-83 -60,-169 -92,-250 -56,-143 -107,-273 -104,-351 1,-15 3,-29 7,-43 7,-26 21,-46 39,-61 13,-11 29,-18 47,-20 23,-49 35,-98 29,-149 -5,-52 -29,-106 -77,-161 -3,-3 -6,-6 1,-12 6,-5 9,-2 12,1 51,59 75,115 81,171 5,50 -5,100 -26,148 51,-9 89,-37 113,-85 27,-53 37,-130 31,-232 0,-4 -1,-8 8,-9 8,0 9,4 9,8 6,105 -4,185 -33,241 -21,42 -52,70 -92,85 97,28 188,143 242,297 37,106 57,230 49,358 0,1 0,3 1,4 0,3 1,6 -1,8 -3,34 -7,68 -14,102 54,7 103,16 143,24l0 0c21,4 40,8 55,10 20,-5 42,-7 65,-7 7,0 13,0 19,1 6,-1 12,-3 19,-5 16,-4 34,-9 52,-13 -23,-94 -48,-192 -64,-291 -16,-101 -23,-202 -8,-298 6,-42 18,-78 39,-100 16,-17 37,-26 64,-24 39,-49 68,-99 79,-150 2,-10 4,-19 5,-29 -33,-31 -70,-59 -108,-84 -21,-14 -42,-26 -64,-38 -3,0 -4,-1 -5,-3 -190,-103 -416,-150 -593,-170 -1,0 -2,0 -3,0 -83,-9 -156,-12 -208,-12 -8,0 -10,-14 -3,-16 85,-30 171,-53 258,-71 1,-3 4,-4 9,-2 19,-4 39,-7 58,-11 80,-13 160,-22 241,-26 -85,-10 -170,-11 -255,-2 -115,12 -231,41 -346,91 -8,3 -15,-9 -8,-14 58,-44 106,-87 146,-131 26,-29 49,-58 67,-86 -81,69 -164,126 -249,173 -96,53 -195,93 -296,123z" class="fil1 str0"/><path d="M2362 2332c1,-10 1,-21 1,-31 -1,-74 -30,-133 -74,-175 -29,-27 -64,-47 -102,-59 10,11 20,24 29,39 14,23 24,49 30,77 1,4 2,8 -7,10 -8,2 -9,-3 -10,-7 -5,-26 -15,-51 -28,-72 -14,-24 -31,-43 -48,-56 -11,-2 -21,-4 -32,-5 -8,-1 -16,-1 -25,-1 35,128 101,278 266,280z" class="fil5"/><path d="M2362 2332c1,-10 1,-21 1,-31 -1,-74 -30,-133 -74,-175 -29,-27 -64,-47 -102,-59 10,11 20,24 29,39 14,23 24,49 30,77 1,4 2,8 -7,10 -8,2 -9,-3 -10,-7 -5,-26 -15,-51 -28,-72 -14,-24 -31,-43 -48,-56 -11,-2 -21,-4 -32,-5 -8,-1 -16,-1 -25,-1 35,128 101,278 266,280z" class="fil1 str0"/><path d="M2223 1884c51,53 110,89 177,101 64,11 135,1 210,-39 1,-1 5,-1 7,-1 26,10 55,15 83,17 56,3 113,-8 159,-31 2,-1 4,-2 6,-3 1,-2 2,-4 7,-4 40,-22 71,-54 84,-92 2,-6 4,-12 5,-19 -12,-1 -24,-2 -37,-2 -4,0 -8,0 -8,-9 0,-8 5,-8 9,-8 13,1 26,1 38,2 0,-1 0,-1 0,-2 1,-16 0,-32 -3,-47 -21,4 -42,8 -64,12 -4,1 -8,2 -10,-7 -2,-8 2,-9 7,-10 21,-4 42,-8 63,-12 -4,-13 -10,-24 -17,-34 -9,5 -18,10 -28,15 -4,2 -7,4 -11,-3 -4,-7 0,-9 3,-11 8,-4 17,-9 25,-13 -17,-19 -39,-30 -64,-30 -36,-1 -80,9 -120,19 19,4 36,11 50,19 29,17 46,41 46,71 0,47 -47,72 -104,101 -17,9 -36,19 -53,29 -2,1 -7,1 -9,-1 -16,-12 -37,-24 -59,-35 -48,-26 -97,-52 -97,-94 0,-30 18,-54 47,-71 5,-3 11,-6 17,-8 -8,-1 -15,-3 -24,-4l0 0c-78,-15 -192,-36 -307,-35 13,14 25,28 37,43 3,3 5,7 -2,12 -7,5 -9,2 -12,-2 -14,-18 -30,-36 -46,-53 -1,0 -2,0 -3,0 7,25 13,49 18,73 28,11 57,23 85,35 4,2 8,3 4,11 -3,8 -7,6 -11,4 -24,-11 -49,-21 -74,-31 4,21 7,41 8,61 0,1 0,2 0,3 13,2 27,4 40,7 4,1 8,1 7,10 -1,8 -6,8 -10,7 -13,-2 -25,-4 -38,-6 -3,23 -15,46 -32,65z" class="fil3"/><path d="M2223 1884c51,53 110,89 177,101 64,11 135,1 210,-39 1,-1 5,-1 7,-1 26,10 55,15 83,17 56,3 113,-8 159,-31 2,-1 4,-2 6,-3 1,-2 2,-4 7,-4 40,-22 71,-54 84,-92 2,-6 4,-12 5,-19 -12,-1 -24,-2 -37,-2 -4,0 -8,0 -8,-9 0,-8 5,-8 9,-8 13,1 26,1 38,2 0,-1 0,-1 0,-2 1,-16 0,-32 -3,-47 -21,4 -42,8 -64,12 -4,1 -8,2 -10,-7 -2,-8 2,-9 7,-10 21,-4 42,-8 63,-12 -4,-13 -10,-24 -17,-34 -9,5 -18,10 -28,15 -4,2 -7,4 -11,-3 -4,-7 0,-9 3,-11 8,-4 17,-9 25,-13 -17,-19 -39,-30 -64,-30 -36,-1 -80,9 -120,19 19,4 36,11 50,19 29,17 46,41 46,71 0,47 -47,72 -104,101 -17,9 -36,19 -53,29 -2,1 -7,1 -9,-1 -16,-12 -37,-24 -59,-35 -48,-26 -97,-52 -97,-94 0,-30 18,-54 47,-71 5,-3 11,-6 17,-8 -8,-1 -15,-3 -24,-4l0 0c-78,-15 -192,-36 -307,-35 13,14 25,28 37,43 3,3 5,7 -2,12 -7,5 -9,2 -12,-2 -14,-18 -30,-36 -46,-53 -1,0 -2,0 -3,0 7,25 13,49 18,73 28,11 57,23 85,35 4,2 8,3 4,11 -3,8 -7,6 -11,4 -24,-11 -49,-21 -74,-31 4,21 7,41 8,61 0,1 0,2 0,3 13,2 27,4 40,7 4,1 8,1 7,10 -1,8 -6,8 -10,7 -13,-2 -25,-4 -38,-6 -3,23 -15,46 -32,65z" class="fil1 str0"/><path d="M2710 2266c1,-1 2,-2 3,-2 13,-10 24,-21 36,-33 57,-62 95,-154 114,-282 -48,23 -106,34 -163,30 -2,0 -4,0 -7,0 -1,0 -1,0 -2,1 -70,25 -148,140 -212,235 -41,60 -76,112 -102,130 -1,1 -1,1 -3,2 -2,1 -3,2 -5,3 0,0 -3,1 -4,1 -182,0 -252,-162 -288,-298 -2,-1 -3,-3 -3,-7 0,-1 0,-2 0,-2 -7,-28 -13,-55 -18,-79 -2,-11 -5,-21 -7,-30 -32,-7 -64,-18 -96,-29 -38,-13 -76,-26 -114,-32 -3,0 -6,-1 -9,-1 -11,93 4,192 51,282 39,74 101,141 188,192 -15,-17 -28,-35 -41,-53 -2,-3 -5,-7 2,-12 7,-5 9,-1 12,2 20,28 44,58 69,85 2,1 4,2 4,4 19,20 39,38 59,54 38,29 77,47 116,47 42,0 91,-44 144,-92 16,-15 33,-30 50,-44 1,-2 2,-3 4,-4 35,-29 72,-55 111,-69 4,-1 8,-3 11,5 3,8 -1,9 -5,11 -30,11 -59,30 -88,51 70,-6 129,-24 178,-57 0,0 0,-1 0,-1 3,-5 5,-5 8,-5 1,-1 3,-2 4,-3z" class="fil3"/><path d="M2710 2266c1,-1 2,-2 3,-2 13,-10 24,-21 36,-33 57,-62 95,-154 114,-282 -48,23 -106,34 -163,30 -2,0 -4,0 -7,0 -1,0 -1,0 -2,1 -70,25 -148,140 -212,235 -41,60 -76,112 -102,130 -1,1 -1,1 -3,2 -2,1 -3,2 -5,3 0,0 -3,1 -4,1 -182,0 -252,-162 -288,-298 -2,-1 -3,-3 -3,-7 0,-1 0,-2 0,-2 -7,-28 -13,-55 -18,-79 -2,-11 -5,-21 -7,-30 -32,-7 -64,-18 -96,-29 -38,-13 -76,-26 -114,-32 -3,0 -6,-1 -9,-1 -11,93 4,192 51,282 39,74 101,141 188,192 -15,-17 -28,-35 -41,-53 -2,-3 -5,-7 2,-12 7,-5 9,-1 12,2 20,28 44,58 69,85 2,1 4,2 4,4 19,20 39,38 59,54 38,29 77,47 116,47 42,0 91,-44 144,-92 16,-15 33,-30 50,-44 1,-2 2,-3 4,-4 35,-29 72,-55 111,-69 4,-1 8,-3 11,5 3,8 -1,9 -5,11 -30,11 -59,30 -88,51 70,-6 129,-24 178,-57 0,0 0,-1 0,-1 3,-5 5,-5 8,-5 1,-1 3,-2 4,-3z" class="fil1 str0"/><path d="M3211 1854c-74,-19 -151,-32 -232,-39 -1,8 -4,15 -6,23 -15,42 -49,77 -92,101 -19,138 -59,237 -119,303 -1,1 -2,2 -3,3 100,-42 190,-92 265,-152 82,-66 147,-144 188,-239z" class="fil2"/><path d="M3211 1854c-74,-19 -151,-32 -232,-39 -1,8 -4,15 -6,23 -15,42 -49,77 -92,101 -19,138 -59,237 -119,303 -1,1 -2,2 -3,3 100,-42 190,-92 265,-152 82,-66 147,-144 188,-239z" class="fil1 str0"/><path d="M3148 1726c-57,4 -114,11 -171,20 3,16 5,33 4,50 0,1 0,2 0,3 82,7 161,20 237,40 15,-43 -22,-78 -69,-113z" class="fil2"/><path d="M3148 1726c-57,4 -114,11 -171,20 3,16 5,33 4,50 0,1 0,2 0,3 82,7 161,20 237,40 15,-43 -22,-78 -69,-113z" class="fil1 str0"/><path d="M3049 1649c-31,12 -63,26 -94,42 8,12 14,25 18,39 52,-8 103,-15 155,-19 -2,-1 -4,-3 -6,-4 -25,-18 -51,-37 -73,-58z" class="fil2"/><path d="M3049 1649c-31,12 -63,26 -94,42 8,12 14,25 18,39 52,-8 103,-15 155,-19 -2,-1 -4,-3 -6,-4 -25,-18 -51,-37 -73,-58z" class="fil1 str0"/><path d="M2692 1705c23,0 44,3 59,8 18,6 29,15 29,25 0,11 -11,20 -29,25 -15,5 -36,8 -59,8 -23,0 -44,-3 -59,-8 -18,-6 -29,-15 -29,-25 0,-11 11,-20 29,-25 15,-5 36,-8 59,-8z" class="fil4"/><path d="M2692 1705c23,0 44,3 59,8 18,6 29,15 29,25 0,11 -11,20 -29,25 -15,5 -36,8 -59,8 -23,0 -44,-3 -59,-8 -18,-6 -29,-15 -29,-25 0,-11 11,-20 29,-25 15,-5 36,-8 59,-8z" class="fil1 str0"/></g></svg>