<svg xmlns="http://www.w3.org/2000/svg" xmlns:svg="http://www.w3.org/2000/svg" id="svg2" width="80" height="80" version="1.1" viewBox="0 0 595.276 841.89"><metadata id="metadata104"/><g id="g4"><path id="path6" d="m 438.7368,314.5017 c 2.5611,-54.9274 -15.9572,-95.0118 -47.5326,-120.6273 -53.7475,-43.6018 -130.6816,-43.1111 -184.7326,-0.2048 -32.5803,25.8622 -53.1973,66.4612 -47.1932,121.7056 -12.2328,-14.8054 -24.4652,-29.6104 -36.6981,-44.4158 4.7331,-4.9999 9.4658,-9.9997 14.1988,-14.9996 -12.9851,-4.6597 -25.9699,-9.3197 -38.955,-13.9795 15.3942,-30.1688 1.1123,-50.6082 -18.2036,-40.6302 -8.6226,-14.2295 -9.4838,-46.8465 -23.3388,-54.5731 -10.5066,-5.8588 -20.791,3.3146 -22.7441,13.6875 -2.9193,15.5032 9.8488,34.8514 16.9576,46.5647 -10.5621,-0.71 -15.5052,4.6911 -14.9996,16.0191 -7.513,-4.3454 -14.6908,-18.0791 -25.5389,-18.8793 -9.6988,-0.7146 -17.1395,7.5156 -14.3308,17.1541 4.2608,14.6171 30.8442,25.6621 37.3939,31.5797 -1.917,17.6933 7.3542,25.7043 25.6307,25.9223 3.1555,16.6749 6.3109,33.3494 9.4664,50.0243 5.4853,-6.0193 10.9706,-12.0386 16.4559,-18.0579 20.0483,17.0388 40.097,34.0773 60.1453,51.1161 -23.1526,25.351 -32.9627,56.8316 -27.3784,95.3857 46.0199,-45.3439 72.7183,-43.8324 87.6693,-13.8345 9.9142,-8.3224 20.255,-11.0938 30.9459,-9.3201 -24.7014,40.5738 -35.2509,82.8464 -21.1159,128.0806 -4.7605,6.1653 -6.5494,15.631 -5.097,28.3971 -11.429,23.0572 -15.3661,45.9221 -11.6503,68.5905 -7.9954,11.1133 -11.5657,21.2653 -10.6301,30.4364 29.7663,10.473 56.8818,9.2362 81.9884,-0.8738 -8.4466,-7.33 -16.8928,-14.6597 -25.3394,-21.9898 7.8033,-13.564 15.5177,-26.3985 23.1549,-38.5914 18.8789,9.9218 39.9064,9.4951 63.057,-1.1644 10.1546,11.8989 18.0477,24.7024 24.3196,38.1545 -9.2715,7.7669 -18.543,15.5335 -27.8146,23.3005 26.3104,8.9519 54.2217,9.009 84.027,-1.4564 -0.7998,-11.7301 -4.055,-21.6182 -11.0677,-28.6884 5.6825,-20.9195 0.9696,-45.0017 -11.2124,-71.3576 0.8385,-13.104 -2.3906,-22.3798 -8.1536,-29.2713 12.7919,-42.8571 4.5646,-83.3778 -14.49,-123.1279 9.3339,1.7433 17.2009,6.0384 23.8097,11.285 19.6032,-36.2454 49.5221,-31.2273 88.5418,10.1942 0.3206,-39.6088 -8.7174,-70.6552 -26.6479,-93.5657 19.7333,-16.844 39.4669,-33.6883 59.2001,-50.5323 5.631,5.2426 11.2616,10.4852 16.8925,15.7278 3.5921,-16.4074 5.983,-32.8145 9.5751,-49.2219 16.1319,0.8884 26.307,-6.7131 25.7403,-25.631 9.0483,-6.4466 32.299,-15.697 36.492,-30.8535 2.8477,-10.292 -2.9672,-20.4941 -14.7165,-16.9605 -7.2105,2.1687 -15.4025,9.1652 -23.9597,17.9608 0.0327,-11.7678 -5.1779,-16.8235 -14.8539,-16.1646 12.6575,-18.5474 20.9122,-35.6292 15.8426,-48.8748 -2.7254,-7.12 -10.0344,-14.5663 -18.3046,-12.6641 -13.7704,3.168 -19.3815,32.7857 -27.1013,55.5681 -26.1677,-5.1069 -29.7541,10.543 -17.4754,40.7756 -13.1063,4.8542 -26.2129,9.7088 -39.3192,14.563 4.8057,5.1455 9.6114,10.291 14.417,15.4365 -11.7754,14.2938 -23.5511,28.588 -35.3266,42.8818 z" style="fill:#000200;fill-rule:evenodd;stroke:#000200;stroke-width:.21600001;stroke-linecap:butt;stroke-linejoin:miter;stroke-dasharray:none"/><path id="path8" d="m 209.279,383.9406 c -0.3398,6.1165 -0.6796,12.2329 -1.0194,18.3493 -16.281,-13.1938 -29.5907,-30.3492 -38.8824,-52.8628 -31.7606,24.5386 -49.1611,55.6044 -46.747,95.6766 32.8498,-31.9806 61.9342,-44.7963 84.6829,-9.1744 9.4122,-6.2198 19.6705,-8.6302 29.9143,-7.2871 3.2073,0.4204 6.4129,1.209 9.5912,2.3638 1.5442,2.7916 2.2955,5.6343 2.4593,8.5146 0.2186,3.8431 -0.6077,7.7538 -1.9897,11.7002 22.1034,-1.2791 36.0029,11.3273 42.9608,35.6793 -10.4168,-19.9803 -24.4736,-34.2121 -49.6591,-30.8727 0.5584,-6.6745 1.1165,-13.3487 1.675,-20.0232 -30.165,43.9496 -33.646,91.2699 -20.2419,140.3851 -1.7476,-1.1063 -3.4949,-3.2625 -5.2426,-7.2812 -4.1778,11.1543 -4.3179,23.3606 0.4366,36.8437 -2.4018,-1.5914 -4.1026,-4.2336 -5.5338,-7.2814 -3.1317,6.5245 -5.5563,13.6687 -7.1356,21.5528 13.6126,11.5502 29.1772,19.3489 47.8385,21.1897 3.4464,-4.9999 6.8931,-9.9998 10.3395,-14.9996 -18.3469,-9.1837 -26.6178,-22.0621 -33.2751,-35.5327 35.8101,47.4567 94.9646,55.3581 136.5995,-4.8047 -6.2875,14.6363 -15.4599,27.4504 -29.1257,37.4263 3.495,5.3882 6.9903,10.7765 10.4852,16.1647 15.1053,-0.9287 30.8627,-9.6784 46.7467,-19.9509 -2.0108,-8.2379 -4.6389,-16.0339 -8.0097,-23.3005 -1.3936,2.6449 -2.8777,4.833 -4.66,5.5338 3.3661,-17.3905 2.6046,-30.5698 -3.9319,-37.8632 -1.7777,5.1977 -4.8242,8.4433 -7.5728,10.9221 18.0233,-49.7724 11.2775,-95.5389 -9.5377,-139.8748 -2.7747,-0.3299 -5.4291,-0.2044 -7.7184,1.3107 -0.7011,6.9764 -0.0271,13.7995 2.7668,20.3878 -20.4089,-2.525 -36.3372,7.476 -48.2027,28.8341 6.8654,-24.3438 21.1443,-34.7315 41.2128,-34.2223 -0.928,-6.5583 -1.1598,-12.9564 0.4369,-18.9318 15.4018,-5.4599 27.6574,-2.166 38.5914,4.806 22.7173,-34.0291 52.7422,-25.9583 85.5563,6.8086 -1.4382,-38.5785 -15.2839,-70.776 -44.7794,-94.7674 -6.4034,18.5272 -19.6854,35.1608 -35.0234,50.9698 -0.8739,-7.4757 -1.8567,-14.9877 -2.7305,-22.4634 -16.446,25.3117 -37.4484,40.7439 -62.4381,50.1327 -9.223,16.019 -18.4463,32.038 -27.6693,48.0571 -5.1329,-15.0462 -14.7697,-30.6805 -28.8341,-46.8924 -26.3186,-7.2765 -46.5003,-23.1889 -62.3334,-45.2223 z" style="fill:#fff;fill-rule:evenodd"/><path id="path10" d="m 209.817,299.4893 c -0.5284,24.8325 -1.0565,49.665 -1.5849,74.4975 37.5624,59.7863 129.9045,72.9091 181.8126,-3.6931 -1.1397,-22.9699 -1.3391,-46.3566 -0.5046,-70.2011 -59.9078,-0.2011 -119.8153,-0.4022 -179.7231,-0.6033 z" style="fill:#ffc780;fill-rule:evenodd;stroke:#000200;stroke-width:.21600001;stroke-linecap:butt;stroke-linejoin:miter;stroke-dasharray:none"/><path id="path12" d="m 203.5721,390.9243 c 0.4369,-32.1289 0.8738,-64.2575 1.3107,-96.3863 63.7486,-0.0549 127.4974,-0.11 191.2459,-0.1648 0.4188,31.0731 1.2203,63.6752 1.639,94.7483 84.2328,-103.8158 2.5723,-222.9557 -98.2994,-221.3342 -124.7319,2.6541 -174.1694,140.0967 -95.8962,223.137 z" style="fill:#fff;fill-rule:evenodd;stroke:#ececed;stroke-width:.2516;stroke-linecap:round;stroke-linejoin:miter;stroke-dasharray:none"/><path id="path14" d="m 283.3932,168.9038 c 14.1511,-2.1482 27.1868,-1.706 39.2003,0.6417 22.3557,34.3656 23.4802,79.3458 23.5175,124.8699 -28.8341,0.0248 -57.6685,0.0499 -86.5025,0.0747 -2.1836,-49.381 3.2466,-93.1007 23.7847,-125.5863 z" style="fill:#ea0001;fill-rule:evenodd;stroke:#ea0001;stroke-width:.2516;stroke-linecap:round;stroke-linejoin:miter;stroke-dasharray:none"/><path id="path16" d="m 268.0673,203.3751 c 5.6894,-1.1704 12.9082,-4.2393 19.0837,-7.9063 10.1542,-6.0302 22.1229,-18.3806 2.3179,-20.8885 -2.5114,-0.3176 -5.5777,-0.4081 -9.3253,-0.2212 -5.4787,9.4799 -9.1949,19.1926 -12.0763,29.016 z" style="fill:#f68285;fill-rule:evenodd;stroke:#f68285;stroke-width:.21600001;stroke-linecap:butt;stroke-linejoin:miter;stroke-dasharray:none"/><path id="path18" d="m 89.4205,305.318 8.9561,-9.393 54.7201,55.9218 -5.2971,5.5157 -58.3791,-52.0445 z" style="fill:#ea0001;fill-rule:evenodd;stroke:#e30016;stroke-width:.21600001;stroke-linecap:butt;stroke-linejoin:miter;stroke-dasharray:none"/><path id="path20" d="m 98.3766,295.925 c 6.3165,-6.6072 12.6334,-13.2143 18.9499,-19.8214 14.6426,16.9413 29.2849,33.8824 43.9275,50.8238 1.0465,4.4124 2.4688,9.0113 4.1838,13.9246 -4.1138,3.6651 -8.2273,7.3298 -12.3411,10.9948 -18.24,-18.6405 -36.4802,-37.2813 -54.7201,-55.9218 z" style="fill:#fff;fill-rule:evenodd;stroke:#fff;stroke-width:.21600001;stroke-linecap:butt;stroke-linejoin:miter;stroke-dasharray:none"/><path id="path22" d="m 507.226,306.175 -8.9562,-9.393 -54.72,55.9218 5.297,5.5156 58.3792,-52.0444 z" style="fill:#ea0001;fill-rule:evenodd;stroke:#e30016;stroke-width:.21600001;stroke-linecap:butt;stroke-linejoin:miter;stroke-dasharray:none"/><path id="path24" d="m 498.2698,296.782 c -6.3165,-6.6072 -12.6334,-13.2143 -18.9499,-19.8215 -14.6426,16.9414 -28.7991,33.5608 -43.4416,50.5022 -1.0466,4.4124 -2.9547,9.333 -4.6697,14.2463 4.1139,3.665 8.2273,7.3297 12.3412,10.9948 18.2399,-18.6405 36.4801,-37.2814 54.72,-55.9218 z" style="fill:#fff;fill-rule:evenodd;stroke:#fff;stroke-width:.21600001;stroke-linecap:butt;stroke-linejoin:miter;stroke-dasharray:none"/><path id="path26" d="m 209.8467,299.4893 c -0.2256,10.8147 -0.4508,21.6292 -0.6763,32.4439 l 16.3806,0.002 c -7.4407,-4.6739 -11.1222,-14.4438 -10.9601,-29.4242 -0.5191,-0.6463 -1.0382,-1.2925 -1.5574,-1.9388 0.001,-0.3577 0.002,-0.715 0.004,-1.0727 l -3.1905,-0.0105 z m 71.1053,32.4535 31.836,0.004 c -2.8827,-2.6258 -5.0498,-5.7687 -6.0927,-9.7233 -1.5471,0.2368 -3.0947,0.4732 -4.6418,0.71 -0.0975,-6.664 2.1178,-11.7223 7.263,-14.745 -1.4267,2.1625 -2.9352,4.2575 -2.7305,7.7548 18.0028,-5.0204 36.2797,-10.9271 54.2825,-15.9471 l -128.2028,-0.4306 2.0224,0.007 c 18.0032,5.0204 36.0063,10.0404 54.0094,15.0607 0.2047,-3.4973 -1.3038,-5.5923 -2.7304,-7.7547 5.1451,3.0227 7.3604,8.081 7.263,14.7449 -1.5472,-0.2368 -3.0947,-0.4732 -4.6419,-0.71 -1.2216,4.6323 -3.986,8.1507 -7.6362,11.0291 z m 67.2844,0.009 14.8001,0.002 c 4.7535,-5.9608 13.1892,-5.9556 18.1419,0.002 l 7.8141,10e-4 c 0.1926,-10.6215 0.3848,-21.2431 0.5773,-31.8647 l -7.0583,-0.0237 c -0.0462,0.4715 -0.2628,1.495 -0.2615,1.8136 -0.5191,0.6463 -1.5297,0.965 -2.0488,1.6113 0.067,6.1884 -0.0307,11.816 -1.2691,16.234 -0.216,0.3484 4.8918,-0.1146 7.05,0.4029 l -0.1087,2.2034 -3.8146,0.0178 c -5.3602,0.2226 -9.1418,0.4904 -14.4428,1.7579 -8.1632,1.952 -14.4114,4.8175 -19.3796,7.8422 z m 17.1894,0.002 4.6924,4e-4 c 0.0572,-0.363 0.1113,-0.7289 0.1595,-1.0997 -1.7773,0.006 -3.3995,0.4494 -4.8519,1.0993 z m 7.7567,7e-4 5.7073,0.001 c -2.0198,-0.855 -3.92,-1.2685 -5.4995,-1.2371 -0.0648,0.4174 -0.1348,0.8283 -0.2078,1.2361 z" style="fill:#99764c;fill-rule:evenodd"/><path id="path28" d="m 118.3311,254.4258 8.1917,3.1674 -54.5011,57.1229 -2.7308,-9.83 49.0402,-50.4603 z" style="fill:#fee502;fill-rule:evenodd"/><path id="path30" d="m 89.6424,245.0328 c 8.6285,3.2766 17.2571,6.5533 25.8856,9.8299 -15.3275,15.7645 -30.6546,31.5285 -45.9821,47.293 -2.4762,-9.8294 -4.9523,-19.659 -7.4285,-29.4883 C 46.6647,274.2928 37.3767,268.2402 38.5256,249.1856 21.5317,240.451 5.5982,231.6583 2.0359,222.1847 c -2.4138,-6.4193 1.2542,-14.4656 9.1724,-11.8874 6.8744,2.239 15.6429,11.5132 24.8593,22.4511 5.8037,13.7645 12.5779,22.9456 21.2458,23.18 2.5412,0.0687 5.2449,-0.6311 8.1348,-2.2096 2.6116,-0.003 4.8311,-0.3286 6.7152,-0.93 13.0237,-4.159 10.0373,-21.5043 9.9954,-36.4236 -0.713,21.5459 -6.0804,35.7298 -16.4923,30.6913 -7.1712,-4.1505 -1.9045,-28.17 11.8841,-39.0161 5.837,-4.5913 14.1934,-7.757 18.0516,1.036 3.1291,7.1322 1.356,20.3194 -5.9598,35.9564 z" style="fill:#fee502;fill-rule:evenodd;stroke:#fee502;stroke-width:.21600001;stroke-linecap:butt;stroke-linejoin:miter;stroke-dasharray:none"/><path id="path32" d="m 60.1835,250.3246 c -2.1479,-0.182 -4.4054,0.0181 -6.5533,-0.1638 -26.0729,-22.788 -11.6645,-55.0576 8.1916,-30.2 -6.1547,10.1213 -5.6788,20.2425 -1.6383,30.3638 z" style="fill:#fee502;fill-rule:evenodd;stroke:#fee502;stroke-width:.21600001;stroke-linecap:butt;stroke-linejoin:miter;stroke-dasharray:none"/><path id="path34" d="m 65.0721,213.6281 c 3.1673,-3.4223 5.734,-7.0629 8.9013,-10.4852 -7.4351,-12.8097 -10.142,-37.3767 -16.9176,-48.1393 -4.8014,-7.6259 -12.9339,-6.1857 -16.8044,0.8319 -8.2098,14.887 14.7206,50.3529 24.8207,57.7926 z" style="fill:#fee502;fill-rule:evenodd;stroke:#fee502;stroke-width:.21600001;stroke-linecap:butt;stroke-linejoin:miter;stroke-dasharray:none"/><path id="path36" d="m 477.7351,255.1953 -8.1917,3.1673 54.5011,57.1229 2.7308,-9.8299 -49.0402,-50.4603 z" style="fill:#fee502;fill-rule:evenodd"/><path id="path38" d="m 506.5694,244.9284 c -8.6285,3.2767 -17.2571,6.5533 -25.8856,9.83 15.3275,15.7644 30.6547,31.5285 45.9822,47.2929 2.4761,-9.8293 4.9523,-19.659 7.4284,-29.4883 15.4527,1.6255 24.7407,-4.4272 23.5918,-23.4818 16.9939,-8.7346 32.9274,-17.5272 36.4897,-27.0009 2.4138,-6.4192 -1.2542,-14.4656 -9.1724,-11.8874 -6.8743,2.2391 -15.6429,11.5133 -24.8593,22.4512 -5.8037,13.7645 -12.5779,22.9455 -21.2457,23.18 -2.5413,0.0687 -5.2449,-0.6311 -8.1349,-2.2097 -2.6115,-0.003 -4.8311,-0.3286 -6.7151,-0.9299 -13.0238,-4.1591 -10.0374,-21.5044 -9.9954,-36.4237 0.7129,21.546 6.0804,35.7298 16.4922,30.6913 7.1712,-4.1504 1.9045,-28.1699 -11.8841,-39.016 -5.837,-4.5914 -14.1934,-7.7571 -18.0516,1.0359 -3.1291,7.1323 -1.356,20.3195 5.9598,35.9564 z" style="fill:#fee502;fill-rule:evenodd;stroke:#fee502;stroke-width:.21600001;stroke-linecap:butt;stroke-linejoin:miter;stroke-dasharray:none"/><path id="path40" d="m 535.3005,251.3853 c 2.1479,-0.182 4.4054,0.0182 6.5533,-0.1638 26.0729,-22.788 11.6644,-55.0576 -8.1917,-30.1999 6.1548,10.1212 5.6789,20.2425 1.6384,30.3637 z" style="fill:#fee502;fill-rule:evenodd;stroke:#fee502;stroke-width:.21600001;stroke-linecap:butt;stroke-linejoin:miter;stroke-dasharray:none"/><path id="path42" d="m 530.9944,214.9801 c -3.1673,-3.4223 -5.7339,-7.0629 -8.9013,-10.4852 7.4351,-12.8097 10.1421,-37.3767 16.9176,-48.1393 4.8014,-7.6259 12.9339,-6.1857 16.8044,0.8319 8.2098,14.887 -14.7205,50.3529 -24.8207,57.7926 z" style="fill:#fee502;fill-rule:evenodd;stroke:#fee502;stroke-width:.21600001;stroke-linecap:butt;stroke-linejoin:miter;stroke-dasharray:none"/><path id="path44" d="m 283.6167,319.6043 c -3.6052,-0.887 -7.2105,-1.7741 -10.8157,-2.6611 -3.3995,13.8893 -24.1724,9.0341 -21.5413,-5.6943 -10.5945,-2.6578 -21.189,-5.3153 -31.7835,-7.9731 -0.6555,5.1409 -1.0528,8.1319 0.5505,15.2103 5.2188,12.4485 15.1776,20.8617 33.9664,21.7537 14.4071,0.6842 27.9995,-4.0442 29.6236,-20.6355 z" style="fill:#fff;fill-rule:evenodd;stroke:#fff;stroke-width:.21600001;stroke-linecap:butt;stroke-linejoin:miter;stroke-dasharray:none"/><path id="path46" d="m 321.7927,337.8984 c -5.6317,-6.5058 -9.7402,-12.4366 -10.1854,-16.984 3.6053,-0.8871 7.2105,-1.7741 10.8158,-2.6611 3.3995,13.8893 24.1724,9.0341 21.5413,-5.6944 10.5945,-2.6578 21.189,-5.3152 31.7835,-7.973 0.5244,5.1422 0.2883,10.2071 -0.5505,15.2103 -14.2906,-0.8603 -35.4465,9.2289 -42.6299,21.6493 -4.2149,-0.006 -7.8707,-1.0657 -10.7748,-3.5471 z" style="fill:#fff;fill-rule:evenodd;stroke:#fff;stroke-width:.21600001;stroke-linecap:butt;stroke-linejoin:miter;stroke-dasharray:none"/><path id="path48" d="m 336.0911,364.3586 c 14.1327,-4.5368 31.4592,-12.526 34.1866,-33.5036 -3.6145,0.0119 -6.5883,1.8325 -8.7926,3.5227 4.5903,-9.047 15.9767,-9.1847 21.0796,-0.437 -3.3295,-2.1937 -6.6587,-3.272 -9.1744,-3.2218 -3.5112,22.648 -19.2095,31.1101 -37.2992,33.6397 z" style="fill:#000200;fill-rule:evenodd;stroke:#000200;stroke-width:.21600001;stroke-linecap:butt;stroke-linejoin:miter;stroke-dasharray:none"/><path id="path50" d="m 360.8692,299.9962 c -18.0032,5.0203 -36.2801,10.927 -54.2832,15.9474 -0.2047,-3.4973 1.3038,-5.5923 2.7305,-7.7548 -5.1452,3.0227 -7.3605,8.081 -7.263,14.745 1.5471,-0.2368 3.0947,-0.4732 4.6418,-0.71 1.9643,7.4479 7.9153,12.0165 15.1271,15.6746 -4.4903,-5.809 -10.0209,-12.1797 -10.1853,-16.984 l 10.8157,-2.6611 c 1.644,6.4433 5.4794,7.8875 10.6193,8.0675 8.9607,-0.6163 11.4273,-7.1012 10.922,-13.7619 10.5945,-2.6578 21.189,-5.3152 31.7835,-7.973 0.3533,4.9649 0.5261,9.9238 -0.5505,15.2103 -17.1607,-1.1017 -40.3179,12.7305 -44.2296,25.2014 6.5675,-3.8028 14.6845,-15.6432 36.6185,-20.8878 5.301,-1.2675 9.0826,-1.5353 14.4428,-1.7579 l 3.8146,-0.0178 0.1087,-2.2034 c -2.1582,-0.5175 -7.266,-0.0545 -7.05,-0.4029 1.2384,-4.418 1.3361,-10.0456 1.2691,-16.234 0.5191,-0.6463 1.5297,-0.965 2.0488,-1.6113 -0.001,-0.3576 0.2714,-1.6016 0.2701,-1.9593 -7.2171,0.0245 -14.4338,0.0486 -21.6509,0.073 z" style="fill:#000200;fill-rule:evenodd"/><path id="path52" d="m 234.6881,299.309 c 18.0032,5.0203 36.0063,10.3042 54.0094,15.3245 0.2047,-3.4973 -1.3038,-5.5923 -2.7304,-7.7547 5.1451,3.0227 7.3604,8.081 7.263,14.7449 -1.5472,-0.2368 -3.0947,-0.4732 -4.6419,-0.71 -1.9643,7.4479 -7.9152,12.0165 -15.1271,15.6746 l 0.1285,-0.1661 c 5.1561,-3.0125 8.862,-7.9863 9.9135,-15.6171 0.0809,-0.4099 0.1301,-0.8105 0.1433,-1.2008 -3.6052,-0.887 -7.2104,-1.7741 -10.8157,-2.6611 -0.0393,0.1605 -0.0835,0.3157 -0.1271,0.4709 l -0.0839,0.2873 c -0.9059,2.961 -2.6479,4.9847 -4.7664,6.1739 -1.6162,0.7701 -3.5174,1.0611 -5.6418,1.1354 -2.499,-0.1717 -4.4927,-0.8009 -6.0577,-1.7619 -0.7232,-0.4676 -1.3972,-1.0161 -2.0035,-1.6416 -2.4359,-2.636 -3.1562,-6.4671 -2.8609,-10.3583 -10.5945,-2.6578 -21.189,-5.3153 -31.7835,-7.9731 -1.0713,5.4503 -0.9402,10.5311 0.5469,15.1944 l 0.004,0.0159 0.006,0.0149 c 1.4785,4.6164 4.2899,8.822 8.5833,12.5719 1.3567,1.2391 2.8408,2.3695 4.4642,3.3814 0.1959,0.1294 0.394,0.2582 0.5941,0.3864 -12.8936,-1.9353 -19.3267,-12.6272 -19.1134,-32.3294 -0.5191,-0.6463 -1.0382,-1.2925 -1.5574,-1.9388 0.001,-0.3577 0.002,-0.9789 0.004,-1.3365 7.2171,0.0244 14.4338,0.0485 21.6509,0.073 z" style="fill:#000200;fill-rule:evenodd"/><path id="path54" d="m 330.7538,315.7398 c -0.0918,5.9506 10.5317,2.6139 8.1371,-2.3483 -2.7123,0.7826 -5.4249,1.5656 -8.1371,2.3483 z" style="fill:#fff;fill-rule:evenodd;stroke:#fff;stroke-width:.2516;stroke-linecap:round;stroke-linejoin:miter;stroke-dasharray:none"/><path id="path56" d="m 268.2479,315.6771 c 0.0918,5.9506 -10.5317,2.6138 -8.1371,-2.3484 2.7123,0.7827 5.4249,1.5657 8.1371,2.3484 z" style="fill:#fff;fill-rule:evenodd;stroke:#fff;stroke-width:.2516;stroke-linecap:round;stroke-linejoin:miter;stroke-dasharray:none"/><path id="path58" d="m 279.0264,429.0645 c 8.4241,10.5096 15.4308,23.0443 21.8157,36.4673 6.8357,-12.4508 13.6717,-24.9019 20.5074,-37.3526 -14.2463,3.3304 -28.3641,3.8526 -42.3231,0.8853 z" style="fill:#f7c57c;fill-rule:evenodd;stroke:#f7c57c;stroke-width:.21600001;stroke-linecap:butt;stroke-linejoin:miter;stroke-dasharray:none"/><path id="path60" d="m 279.0264,429.0645 c 3.6049,5.2327 7.2098,10.4651 10.8147,15.6977 7.8585,3.2826 15.3371,3.0085 22.4673,-0.1155 3.0138,-5.4893 6.0273,-10.9783 9.0411,-16.4675 -15.4973,3.6772 -29.4751,3.6564 -42.3231,0.8853 z" style="fill:#9a7852;fill-rule:evenodd;stroke:#9a7852;stroke-width:.21600001;stroke-linecap:butt;stroke-linejoin:miter;stroke-dasharray:none"/><path id="path62" d="m 203.4106,623.1812 c -0.2913,1.9478 -0.5825,3.8955 -0.8738,5.8433 13.103,10.6163 28.2013,16.8156 45.3815,18.4034 0.6552,-1.3471 1.3107,-2.6941 1.9659,-4.0412 -18.4737,-2.808 -33.9706,-9.5347 -46.4736,-20.2055 z" style="fill:#fde900;fill-rule:evenodd;stroke:#fde900;stroke-width:.21600001;stroke-linecap:butt;stroke-linejoin:miter;stroke-dasharray:none"/><path id="path64" d="m 201.4992,630.8263 c 15.5563,12.0707 30.5348,17.2026 45.2176,18.7861 -2.8397,5.6432 -5.6794,11.286 -8.5192,16.9292 7.1359,6.626 14.2717,13.2519 21.4076,19.8779 -20.2914,5.3942 -41.7828,5.7472 -64.9866,-1.0921 0.6225,-8.0381 3.2367,-16.5738 8.5192,-25.7763 -2.804,-9.8756 -3.203,-19.4311 -1.6386,-28.7248 z" style="fill:#fde900;fill-rule:evenodd;stroke:#fde900;stroke-width:.21600001;stroke-linecap:butt;stroke-linejoin:miter;stroke-dasharray:none"/><path id="path66" d="m 213.1861,663.1553 c 6.1157,-3.4949 12.778,-4.0801 20.6427,1.7477 0,0 -20.5334,-1.966 -20.6427,-1.7477 z" style="fill:#000200;fill-rule:evenodd;stroke:#000200;stroke-width:.21600001;stroke-linecap:butt;stroke-linejoin:miter;stroke-dasharray:none"/><path id="path68" d="m 394.3002,621.6519 c 0.2912,1.9477 0.5825,3.8955 0.8738,5.8433 -13.103,10.6162 -28.2013,16.8155 -45.3815,18.4033 -0.6552,-1.347 -1.3107,-2.6941 -1.9659,-4.0411 18.4737,-2.8081 33.9706,-9.5348 46.4736,-20.2055 z" style="fill:#fde900;fill-rule:evenodd;stroke:#fde900;stroke-width:.21600001;stroke-linecap:butt;stroke-linejoin:miter;stroke-dasharray:none"/><path id="path70" d="m 396.2116,629.297 c -15.5563,12.0706 -30.5348,17.2026 -45.2177,18.7861 2.8398,5.6432 5.6795,11.286 8.5193,16.9292 -7.1359,6.6259 -14.2717,13.2519 -21.4076,19.8779 20.2914,5.3941 41.7828,5.7472 64.9866,-1.0921 -0.6225,-8.0381 -3.2367,-16.5739 -8.5192,-25.7764 2.804,-9.8755 3.203,-19.4311 1.6386,-28.7247 z" style="fill:#fde900;fill-rule:evenodd;stroke:#fde900;stroke-width:.21600001;stroke-linecap:butt;stroke-linejoin:miter;stroke-dasharray:none"/><path id="path72" d="m 387.3968,660.6956 c -6.88,-3.1873 -14.0792,-3.2037 -21.9797,3.7683 0,0 21.8424,-3.9923 21.9797,-3.7683 z" style="fill:#000200;fill-rule:evenodd;stroke:#000200;stroke-width:.21600001;stroke-linecap:butt;stroke-linejoin:miter;stroke-dasharray:none"/><path id="path74" d="m 257.5108,424.0954 c 10.5866,9.6612 21.2725,19.3759 31.8591,29.0371 -4.9305,-8.5248 -11.0413,-16.4546 -17.7575,-24.0789 -4.6673,-1.635 -9.4343,-3.3232 -14.1016,-4.9582 z" style="fill:#c6c6c6;fill-rule:evenodd"/><path id="path76" d="m 337.425,424.0198 -18.197,19.3056 8.8878,-15.4365 9.3092,-3.8691 z" style="fill:#c6c6c6;fill-rule:evenodd"/><path id="path78" d="m 226.6388,579.7729 c 14.9154,55.047 104.8389,77.8631 143.1528,-0.5828 -36.7479,51.2006 -110.832,50.1762 -143.1528,0.5828 z" style="fill:#cccacd;fill-rule:evenodd"/><path id="path80" d="m 241.4957,610.6694 c 5.841,5.7158 13.1803,10.9125 21.2299,15.6346 -3.2522,4.9998 -7.0556,10.0928 -10.3078,15.0927 -0.9709,-0.1457 -1.9415,-0.2913 -2.9124,-0.4369 -0.2919,-10.8897 -2.4738,-21.1494 -8.0097,-30.2904 z" style="fill:#c7c7c7;fill-rule:evenodd"/><path id="path82" d="m 336.9243,623.3929 c 6.7337,-4.6944 13.0895,-12.0601 19.3575,-19.7379 -4.84,10.7051 -7.0992,23.1285 -7.2789,35.7761 -0.534,0.0849 -1.0594,0.0416 -1.5934,0.1265 -3.4464,-5.5702 -7.0388,-10.5945 -10.4852,-16.1647 z" style="fill:#c7c7c7;fill-rule:evenodd"/><path id="path84" d="m 236.7789,444.4069 c 1.7942,-2.8543 3.6918,-5.6577 5.486,-8.512 0.3622,0.1457 -0.3623,-0.1456 0,0 -0.2494,3.9454 -0.7454,7.4258 -0.9416,11.2566 -1.7473,-1.5366 -2.1168,-1.9841 -4.5444,-2.7446 z" style="fill:#cccbd0;fill-rule:evenodd"/><path id="path86" d="m 352.9665,447.8589 c 0.8685,-4.1772 3.9956,-7.1035 9.5248,-8.3676 -0.6585,-1.5628 -1.3887,-2.9045 -2.0472,-4.4672 -2.5151,-0.3653 -5.4985,-0.1325 -7.7184,1.3107 -0.9379,4.1647 -0.2077,7.902 0.2408,11.5241 z" style="fill:#cccbd0;fill-rule:evenodd"/><path id="path88" d="m 396.3147,306.8652 c 11.2546,14.0036 21.4376,21.0295 32.8491,20.9651 -6.0808,24.4877 -17.087,44.4178 -31.3961,61.2912 -0.4845,-27.4187 -0.9686,-54.8376 -1.453,-82.2563 z" style="fill:#ddd;fill-rule:evenodd"/><path id="path90" d="m 204.4598,308.065 c -11.2546,14.0036 -23.5406,20.6424 -34.9521,20.578 5.5504,24.6522 18.4915,45.8002 34.0644,62.2813 0.4845,-27.4187 0.4032,-55.4407 0.8877,-82.8593 z" style="fill:#ddd;fill-rule:evenodd"/><path id="path92" d="m 98.3766,295.925 -8.9561,9.393 45.4855,40.5501 -15.9468,-28.9084 -20.5826,-21.0347 z" style="fill:#ba0003;fill-rule:evenodd"/><path id="path94" d="m 111.2088,282.5026 c -4.2773,4.4742 -8.5549,8.9483 -12.8322,13.4224 6.8608,7.0117 13.7219,14.023 20.5826,21.0347 -4.1656,-11.1139 -6.8855,-22.5667 -7.7504,-34.4571 z" style="fill:#cbc9cc;fill-rule:evenodd"/><path id="path96" d="m 498.2698,296.782 8.9562,9.393 -45.4855,40.5501 15.9467,-28.9084 20.5826,-21.0347 z" style="fill:#ba0003;fill-rule:evenodd"/><path id="path98" d="m 485.4376,283.3596 c 4.2773,4.4741 8.5549,8.9482 12.8322,13.4224 -6.8608,7.0116 -13.7219,14.023 -20.5826,21.0347 4.1656,-11.114 6.8855,-22.5667 7.7504,-34.4571 z" style="fill:#cbc9cc;fill-rule:evenodd"/></g></svg>