<svg xmlns="http://www.w3.org/2000/svg" xmlns:xlink="http://www.w3.org/1999/xlink" width="80" height="80" version="1.1" viewBox="0 0 7694 7889" xml:space="preserve" style="shape-rendering:geometricPrecision;text-rendering:geometricPrecision;image-rendering:optimizeQuality;fill-rule:evenodd;clip-rule:evenodd"><defs><style type="text/css">.str1{stroke:#fefefe;stroke-width:2.94882}.str8{stroke-width:8.35039}.str10,.str11,.str12,.str8{stroke:#2c2a2c}.str12{stroke-width:9.35433}.str11{stroke-width:9.74016}.str10{stroke-width:10.2992}.str3,.str5,.str7{stroke:#2c2a2c}.str5{stroke-width:16.0354}.str7{stroke-width:17.4961}.str3{stroke-width:18.1693}.str4,.str6,.str9{stroke:#2c2a2c}.str6{stroke-width:24.9961}.str9{stroke-width:27.8307}.str4{stroke-width:41.7441}.str0{stroke-width:127.177}.str0,.str13,.str2{stroke:#fefefe}.str2{stroke-width:145.346}.str13{stroke-width:213.209}.fil1,.fil4{fill:none}.fil4{fill-rule:nonzero}.fil0{fill:#d13580}.fil2{fill:#fefefe}.fil3{fill:#009cd0}.fil3,.fil7,.fil8{fill-rule:nonzero}.fil7{fill:#2c2a2c}.fil8{fill:#bc5b44}.fil5{fill:#d13580}.fil5,.fil6,.fil9{fill-rule:nonzero}.fil6{fill:#fbc5ad}.fil9{fill:#fefefe}</style></defs><g id="Layer_x0020_1"><metadata id="CorelCorpID_0Corel-Layer"/><path d="M2503 625c0,0 -1257,-622 -2091,671 -835,1293 -153,2647 1852,4346 0,0 1299,972 1736,1050 0,0 111,98 809,-442 698,-540 2553,-1913 2799,-3342 245,-1429 -876,-2725 -2127,-2382 0,0 -81,-201 -250,-193 0,0 -103,-471 -456,-184 0,0 -261,-38 -287,44 0,0 -767,-162 -1061,96 0,0 -537,-65 -924,336z" class="fil0"/><path d="M2503 625c0,0 -1257,-622 -2091,671 -835,1293 -153,2647 1852,4346 0,0 1299,972 1736,1050 0,0 111,98 809,-442 698,-540 2553,-1913 2799,-3342 245,-1429 -876,-2725 -2127,-2382 0,0 -81,-201 -250,-193 0,0 -103,-471 -456,-184 0,0 -261,-38 -287,44 0,0 -767,-162 -1061,96 0,0 -537,-65 -924,336" class="fil1 str0"/><path d="M2541 1090c0,0 -967,-754 -1797,264 0,0 -1227,1157 599,3125 0,0 1011,1120 2700,2010 0,0 2287,-1599 2857,-2558 569,-959 599,-2010 -88,-2727 0,0 -1090,-926 -2405,151l-1865 -264z" class="fil2"/><path d="M993 1324c0,59 -49,106 -110,106 -61,0 -110,-48 -110,-106 0,-1 0,-3 0,-4 31,-36 61,-70 92,-101 6,-1 12,-1 18,-1 61,0 110,48 110,106z" class="fil3"/><path d="M993 1324c0,59 -49,106 -110,106 -61,0 -110,-48 -110,-106 0,-1 0,-3 0,-4m92 -101c6,-1 12,-1 18,-1 61,0 110,48 110,106" class="fil4 str1"/><path d="M639 1669c0,59 -49,106 -110,106 -18,0 -36,-4 -51,-12 32,-73 66,-136 99,-190 37,17 62,54 62,96z" class="fil3"/><path d="M639 1669c0,59 -49,106 -110,106 -18,0 -36,-4 -51,-12m99 -190c37,17 62,54 62,96" class="fil4 str1"/><path d="M1853 1000c0,59 -49,106 -110,106 -61,0 -110,-48 -110,-106 0,-59 49,-106 110,-106 61,0 110,48 110,106z" class="fil3"/><path d="M1853 1000c0,59 -49,106 -110,106 -61,0 -110,-48 -110,-106 0,-59 49,-106 110,-106 61,0 110,48 110,106" class="fil4 str1"/><path d="M2207 1324c0,59 -49,106 -110,106 -61,0 -110,-48 -110,-106 0,-59 49,-106 110,-106 61,0 110,48 110,106z" class="fil3"/><path d="M2207 1324c0,59 -49,106 -110,106 -61,0 -110,-48 -110,-106 0,-59 49,-106 110,-106 61,0 110,48 110,106" class="fil4 str1"/><path d="M1488 1324c0,59 -49,106 -110,106 -61,0 -110,-48 -110,-106 0,-59 49,-106 110,-106 61,0 110,48 110,106z" class="fil3"/><path d="M1488 1324c0,59 -49,106 -110,106 -61,0 -110,-48 -110,-106 0,-59 49,-106 110,-106 61,0 110,48 110,106" class="fil4 str1"/><path d="M1853 1669c0,59 -49,106 -110,106 -61,0 -110,-48 -110,-106 0,-59 49,-106 110,-106 61,0 110,48 110,106z" class="fil3"/><path d="M1853 1669c0,59 -49,106 -110,106 -61,0 -110,-48 -110,-106 0,-59 49,-106 110,-106 61,0 110,48 110,106" class="fil4 str1"/><path d="M1247 1748c0,59 -49,106 -110,106 -61,0 -110,-48 -110,-106 0,-59 49,-106 110,-106 61,0 110,48 110,106z" class="fil3"/><path d="M1247 1748c0,59 -49,106 -110,106 -61,0 -110,-48 -110,-106 0,-59 49,-106 110,-106 61,0 110,48 110,106" class="fil4 str1"/><path d="M1601 2071c0,59 -49,106 -110,106 -61,0 -110,-48 -110,-106 0,-59 49,-106 110,-106 61,0 110,48 110,106z" class="fil3"/><path d="M1601 2071c0,59 -49,106 -110,106 -61,0 -110,-48 -110,-106 0,-59 49,-106 110,-106 61,0 110,48 110,106" class="fil4 str1"/><path d="M883 2071c0,59 -49,106 -110,106 -61,0 -110,-48 -110,-106 0,-59 49,-106 110,-106 61,0 110,48 110,106z" class="fil3"/><path d="M883 2071c0,59 -49,106 -110,106 -61,0 -110,-48 -110,-106 0,-59 49,-106 110,-106 61,0 110,48 110,106" class="fil4 str1"/><path d="M1247 2417c0,59 -49,106 -110,106 -61,0 -110,-48 -110,-106 0,-59 49,-106 110,-106 61,0 110,48 110,106z" class="fil3"/><path d="M1247 2417c0,59 -49,106 -110,106 -61,0 -110,-48 -110,-106 0,-59 49,-106 110,-106 61,0 110,48 110,106" class="fil4 str1"/><path d="M2125 2191c0,59 -49,106 -110,106 -61,0 -110,-48 -110,-106 0,-59 49,-106 110,-106 61,0 110,48 110,106z" class="fil3"/><path d="M2125 2191c0,59 -49,106 -110,106 -61,0 -110,-48 -110,-106 0,-59 49,-106 110,-106 61,0 110,48 110,106" class="fil4 str1"/><path d="M2479 2515c0,59 -49,106 -110,106 -61,0 -110,-48 -110,-106 0,-59 49,-106 110,-106 61,0 110,48 110,106z" class="fil3"/><path d="M2479 2515c0,59 -49,106 -110,106 -61,0 -110,-48 -110,-106 0,-59 49,-106 110,-106 61,0 110,48 110,106" class="fil4 str1"/><path d="M1761 2515c0,59 -49,106 -110,106 -61,0 -110,-48 -110,-106 0,-59 49,-106 110,-106 61,0 110,48 110,106z" class="fil3"/><path d="M1761 2515c0,59 -49,106 -110,106 -61,0 -110,-48 -110,-106 0,-59 49,-106 110,-106 61,0 110,48 110,106" class="fil4 str1"/><path d="M2125 2860c0,59 -49,106 -110,106 -61,0 -110,-48 -110,-106 0,-59 49,-106 110,-106 61,0 110,48 110,106z" class="fil3"/><path d="M2125 2860c0,59 -49,106 -110,106 -61,0 -110,-48 -110,-106 0,-59 49,-106 110,-106 61,0 110,48 110,106" class="fil4 str1"/><path d="M2849 1469c0,59 -49,106 -110,106 -61,0 -110,-48 -110,-106 0,-59 49,-106 110,-106 61,0 110,48 110,106z" class="fil3"/><path d="M2849 1469c0,59 -49,106 -110,106 -61,0 -110,-48 -110,-106 0,-59 49,-106 110,-106 61,0 110,48 110,106" class="fil4 str1"/><path d="M3203 1793c0,59 -49,106 -110,106 -61,0 -110,-48 -110,-106 0,-59 49,-106 110,-106 61,0 110,48 110,106z" class="fil3"/><path d="M3203 1793c0,59 -49,106 -110,106 -61,0 -110,-48 -110,-106 0,-59 49,-106 110,-106 61,0 110,48 110,106" class="fil4 str1"/><path d="M2485 1793c0,59 -49,106 -110,106 -61,0 -110,-48 -110,-106 0,-59 49,-106 110,-106 61,0 110,48 110,106z" class="fil3"/><path d="M2485 1793c0,59 -49,106 -110,106 -61,0 -110,-48 -110,-106 0,-59 49,-106 110,-106 61,0 110,48 110,106" class="fil4 str1"/><path d="M2849 2139c0,59 -49,106 -110,106 -61,0 -110,-48 -110,-106 0,-59 49,-106 110,-106 61,0 110,48 110,106z" class="fil3"/><path d="M2849 2139c0,59 -49,106 -110,106 -61,0 -110,-48 -110,-106 0,-59 49,-106 110,-106 61,0 110,48 110,106" class="fil4 str1"/><path d="M1484 3164c0,59 -49,106 -110,106 -61,0 -110,-48 -110,-106 0,-59 49,-106 110,-106 61,0 110,48 110,106z" class="fil3"/><path d="M1484 3164c0,59 -49,106 -110,106 -61,0 -110,-48 -110,-106 0,-59 49,-106 110,-106 61,0 110,48 110,106" class="fil4 str1"/><path d="M1232 3566c0,59 -49,106 -110,106 -61,0 -110,-48 -110,-106 0,-59 49,-106 110,-106 61,0 110,48 110,106z" class="fil3"/><path d="M1232 3566c0,59 -49,106 -110,106 -61,0 -110,-48 -110,-106 0,-59 49,-106 110,-106 61,0 110,48 110,106" class="fil4 str1"/><path d="M1757 3686c0,59 -49,106 -110,106 -61,0 -110,-48 -110,-106 0,-59 49,-106 110,-106 61,0 110,48 110,106z" class="fil3"/><path d="M1757 3686c0,59 -49,106 -110,106 -61,0 -110,-48 -110,-106 0,-59 49,-106 110,-106 61,0 110,48 110,106" class="fil4 str1"/><path d="M2111 4010c0,59 -49,106 -110,106 -61,0 -110,-48 -110,-106 0,-59 49,-106 110,-106 61,0 110,48 110,106z" class="fil3"/><path d="M2111 4010c0,59 -49,106 -110,106 -61,0 -110,-48 -110,-106 0,-59 49,-106 110,-106 61,0 110,48 110,106" class="fil4 str1"/><path d="M1392 4010c0,59 -49,106 -110,106 -61,0 -110,-48 -110,-106 0,-59 49,-106 110,-106 61,0 110,48 110,106z" class="fil3"/><path d="M1392 4010c0,59 -49,106 -110,106 -61,0 -110,-48 -110,-106 0,-59 49,-106 110,-106 61,0 110,48 110,106" class="fil4 str1"/><path d="M1757 4355c0,59 -49,106 -110,106 -61,0 -110,-48 -110,-106 0,-59 49,-106 110,-106 61,0 110,48 110,106z" class="fil3"/><path d="M1757 4355c0,59 -49,106 -110,106 -61,0 -110,-48 -110,-106 0,-59 49,-106 110,-106 61,0 110,48 110,106" class="fil4 str1"/><path d="M2117 3288c0,59 -49,106 -110,106 -61,0 -110,-48 -110,-106 0,-59 49,-106 110,-106 61,0 110,48 110,106z" class="fil3"/><path d="M2117 3288c0,59 -49,106 -110,106 -61,0 -110,-48 -110,-106 0,-59 49,-106 110,-106 61,0 110,48 110,106" class="fil4 str1"/><path d="M2481 3633c0,59 -49,106 -110,106 -61,0 -110,-48 -110,-106 0,-59 49,-106 110,-106 61,0 110,48 110,106z" class="fil3"/><path d="M2481 3633c0,59 -49,106 -110,106 -61,0 -110,-48 -110,-106 0,-59 49,-106 110,-106 61,0 110,48 110,106" class="fil4 str1"/><path d="M2488 4320c0,59 -49,106 -110,106 -61,0 -110,-48 -110,-106 0,-59 49,-106 110,-106 61,0 110,48 110,106z" class="fil3"/><path d="M2488 4320c0,59 -49,106 -110,106 -61,0 -110,-48 -110,-106 0,-59 49,-106 110,-106 61,0 110,48 110,106" class="fil4 str1"/><path d="M2842 4644c0,59 -49,106 -110,106 -61,0 -110,-48 -110,-106 0,-59 49,-106 110,-106 61,0 110,48 110,106z" class="fil3"/><path d="M2842 4644c0,59 -49,106 -110,106 -61,0 -110,-48 -110,-106 0,-59 49,-106 110,-106 61,0 110,48 110,106" class="fil4 str1"/><path d="M2848 3922c0,59 -49,106 -110,106 -61,0 -110,-48 -110,-106 0,-59 49,-106 110,-106 61,0 110,48 110,106z" class="fil3"/><path d="M2848 3922c0,59 -49,106 -110,106 -61,0 -110,-48 -110,-106 0,-59 49,-106 110,-106 61,0 110,48 110,106" class="fil4 str1"/><path d="M3212 4267c0,59 -49,106 -110,106 -61,0 -110,-48 -110,-106 0,-59 49,-106 110,-106 61,0 110,48 110,106z" class="fil3"/><path d="M3212 4267c0,59 -49,106 -110,106 -61,0 -110,-48 -110,-106 0,-59 49,-106 110,-106 61,0 110,48 110,106" class="fil4 str1"/><path d="M5099 1196c0,59 -49,106 -110,106 -61,0 -110,-48 -110,-106 0,-59 49,-106 110,-106 61,0 110,48 110,106z" class="fil3"/><path d="M5099 1196c0,59 -49,106 -110,106 -61,0 -110,-48 -110,-106 0,-59 49,-106 110,-106 61,0 110,48 110,106" class="fil4 str1"/><path d="M5464 852c-14,43 -56,74 -105,74 -33,0 -62,-14 -82,-35 64,-17 126,-29 187,-38z" class="fil3"/><path d="M5464 852c-14,43 -56,74 -105,74 -33,0 -62,-14 -82,-35" class="fil4 str1"/><path d="M3449 1347c0,59 -49,106 -110,106 -61,0 -110,-48 -110,-106 0,-59 49,-106 110,-106 61,0 110,48 110,106z" class="fil3"/><path d="M3449 1347c0,59 -49,106 -110,106 -61,0 -110,-48 -110,-106 0,-59 49,-106 110,-106 61,0 110,48 110,106" class="fil4 str1"/><path d="M3973 1467c0,59 -49,106 -110,106 -61,0 -110,-48 -110,-106 0,-59 49,-106 110,-106 61,0 110,48 110,106z" class="fil3"/><path d="M3973 1467c0,59 -49,106 -110,106 -61,0 -110,-48 -110,-106 0,-59 49,-106 110,-106 61,0 110,48 110,106" class="fil4 str1"/><path d="M4327 1791c0,59 -49,106 -110,106 -61,0 -110,-48 -110,-106 0,-59 49,-106 110,-106 61,0 110,48 110,106z" class="fil3"/><path d="M4327 1791c0,59 -49,106 -110,106 -61,0 -110,-48 -110,-106 0,-59 49,-106 110,-106 61,0 110,48 110,106" class="fil4 str1"/><path d="M3609 1791c0,59 -49,106 -110,106 -61,0 -110,-48 -110,-106 0,-59 49,-106 110,-106 61,0 110,48 110,106z" class="fil3"/><path d="M3609 1791c0,59 -49,106 -110,106 -61,0 -110,-48 -110,-106 0,-59 49,-106 110,-106 61,0 110,48 110,106" class="fil4 str1"/><path d="M3973 2136c0,59 -49,106 -110,106 -61,0 -110,-48 -110,-106 0,-59 49,-106 110,-106 61,0 110,48 110,106z" class="fil3"/><path d="M3973 2136c0,59 -49,106 -110,106 -61,0 -110,-48 -110,-106 0,-59 49,-106 110,-106 61,0 110,48 110,106" class="fil4 str1"/><path d="M4697 1415c0,59 -49,106 -110,106 -61,0 -110,-48 -110,-106 0,-59 49,-106 110,-106 61,0 110,48 110,106z" class="fil3"/><path d="M4697 1415c0,59 -49,106 -110,106 -61,0 -110,-48 -110,-106 0,-59 49,-106 110,-106 61,0 110,48 110,106" class="fil4 str1"/><path d="M3120 2503c0,59 -49,106 -110,106 -61,0 -110,-48 -110,-106 0,-59 49,-106 110,-106 61,0 110,48 110,106z" class="fil3"/><path d="M3120 2503c0,59 -49,106 -110,106 -61,0 -110,-48 -110,-106 0,-59 49,-106 110,-106 61,0 110,48 110,106" class="fil4 str1"/><path d="M2868 2905c0,59 -49,106 -110,106 -61,0 -110,-48 -110,-106 0,-59 49,-106 110,-106 61,0 110,48 110,106z" class="fil3"/><path d="M2868 2905c0,59 -49,106 -110,106 -61,0 -110,-48 -110,-106 0,-59 49,-106 110,-106 61,0 110,48 110,106" class="fil4 str1"/><path d="M3392 3025c0,59 -49,106 -110,106 -61,0 -110,-48 -110,-106 0,-59 49,-106 110,-106 61,0 110,48 110,106z" class="fil3"/><path d="M3392 3025c0,59 -49,106 -110,106 -61,0 -110,-48 -110,-106 0,-59 49,-106 110,-106 61,0 110,48 110,106" class="fil4 str1"/><path d="M3746 3349c0,59 -49,106 -110,106 -61,0 -110,-48 -110,-106 0,-59 49,-106 110,-106 61,0 110,48 110,106z" class="fil3"/><path d="M3746 3349c0,59 -49,106 -110,106 -61,0 -110,-48 -110,-106 0,-59 49,-106 110,-106 61,0 110,48 110,106" class="fil4 str1"/><path d="M3028 3349c0,59 -49,106 -110,106 -61,0 -110,-48 -110,-106 0,-59 49,-106 110,-106 61,0 110,48 110,106z" class="fil3"/><path d="M3028 3349c0,59 -49,106 -110,106 -61,0 -110,-48 -110,-106 0,-59 49,-106 110,-106 61,0 110,48 110,106" class="fil4 str1"/><path d="M3392 3694c0,59 -49,106 -110,106 -61,0 -110,-48 -110,-106 0,-59 49,-106 110,-106 61,0 110,48 110,106z" class="fil3"/><path d="M3392 3694c0,59 -49,106 -110,106 -61,0 -110,-48 -110,-106 0,-59 49,-106 110,-106 61,0 110,48 110,106" class="fil4 str1"/><path d="M3752 2627c0,59 -49,106 -110,106 -61,0 -110,-48 -110,-106 0,-59 49,-106 110,-106 61,0 110,48 110,106z" class="fil3"/><path d="M3752 2627c0,59 -49,106 -110,106 -61,0 -110,-48 -110,-106 0,-59 49,-106 110,-106 61,0 110,48 110,106" class="fil4 str1"/><path d="M4117 2972c0,59 -49,106 -110,106 -61,0 -110,-48 -110,-106 0,-59 49,-106 110,-106 61,0 110,48 110,106z" class="fil3"/><path d="M4117 2972c0,59 -49,106 -110,106 -61,0 -110,-48 -110,-106 0,-59 49,-106 110,-106 61,0 110,48 110,106" class="fil4 str1"/><path d="M4268 3414c0,59 -49,106 -110,106 -61,0 -110,-48 -110,-106 0,-59 49,-106 110,-106 61,0 110,48 110,106z" class="fil3"/><path d="M4268 3414c0,59 -49,106 -110,106 -61,0 -110,-48 -110,-106 0,-59 49,-106 110,-106 61,0 110,48 110,106" class="fil4 str1"/><path d="M4016 3816c0,59 -49,106 -110,106 -61,0 -110,-48 -110,-106 0,-59 49,-106 110,-106 61,0 110,48 110,106z" class="fil3"/><path d="M4016 3816c0,59 -49,106 -110,106 -61,0 -110,-48 -110,-106 0,-59 49,-106 110,-106 61,0 110,48 110,106" class="fil4 str1"/><path d="M4540 3935c0,59 -49,106 -110,106 -61,0 -110,-48 -110,-106 0,-59 49,-106 110,-106 61,0 110,48 110,106z" class="fil3"/><path d="M4540 3935c0,59 -49,106 -110,106 -61,0 -110,-48 -110,-106 0,-59 49,-106 110,-106 61,0 110,48 110,106" class="fil4 str1"/><path d="M4894 4259c0,59 -49,106 -110,106 -61,0 -110,-48 -110,-106 0,-59 49,-106 110,-106 61,0 110,48 110,106z" class="fil3"/><path d="M4894 4259c0,59 -49,106 -110,106 -61,0 -110,-48 -110,-106 0,-59 49,-106 110,-106 61,0 110,48 110,106" class="fil4 str1"/><path d="M4176 4259c0,59 -49,106 -110,106 -61,0 -110,-48 -110,-106 0,-59 49,-106 110,-106 61,0 110,48 110,106z" class="fil3"/><path d="M4176 4259c0,59 -49,106 -110,106 -61,0 -110,-48 -110,-106 0,-59 49,-106 110,-106 61,0 110,48 110,106" class="fil4 str1"/><path d="M4540 4605c0,59 -49,106 -110,106 -61,0 -110,-48 -110,-106 0,-59 49,-106 110,-106 61,0 110,48 110,106z" class="fil3"/><path d="M4540 4605c0,59 -49,106 -110,106 -61,0 -110,-48 -110,-106 0,-59 49,-106 110,-106 61,0 110,48 110,106" class="fil4 str1"/><path d="M4900 3538c0,59 -49,106 -110,106 -61,0 -110,-48 -110,-106 0,-59 49,-106 110,-106 61,0 110,48 110,106z" class="fil3"/><path d="M4900 3538c0,59 -49,106 -110,106 -61,0 -110,-48 -110,-106 0,-59 49,-106 110,-106 61,0 110,48 110,106" class="fil4 str1"/><path d="M5265 3883c0,59 -49,106 -110,106 -61,0 -110,-48 -110,-106 0,-59 49,-106 110,-106 61,0 110,48 110,106z" class="fil3"/><path d="M5265 3883c0,59 -49,106 -110,106 -61,0 -110,-48 -110,-106 0,-59 49,-106 110,-106 61,0 110,48 110,106" class="fil4 str1"/><path d="M4593 2048c0,59 -49,106 -110,106 -61,0 -110,-48 -110,-106 0,-59 49,-106 110,-106 61,0 110,48 110,106z" class="fil3"/><path d="M4593 2048c0,59 -49,106 -110,106 -61,0 -110,-48 -110,-106 0,-59 49,-106 110,-106 61,0 110,48 110,106" class="fil4 str1"/><path d="M4341 2450c0,59 -49,106 -110,106 -61,0 -110,-48 -110,-106 0,-59 49,-106 110,-106 61,0 110,48 110,106z" class="fil3"/><path d="M4341 2450c0,59 -49,106 -110,106 -61,0 -110,-48 -110,-106 0,-59 49,-106 110,-106 61,0 110,48 110,106" class="fil4 str1"/><path d="M4865 2570c0,59 -49,106 -110,106 -61,0 -110,-48 -110,-106 0,-59 49,-106 110,-106 61,0 110,48 110,106z" class="fil3"/><path d="M4865 2570c0,59 -49,106 -110,106 -61,0 -110,-48 -110,-106 0,-59 49,-106 110,-106 61,0 110,48 110,106" class="fil4 str1"/><path d="M5219 2894c0,59 -49,106 -110,106 -61,0 -110,-48 -110,-106 0,-59 49,-106 110,-106 61,0 110,48 110,106z" class="fil3"/><path d="M5219 2894c0,59 -49,106 -110,106 -61,0 -110,-48 -110,-106 0,-59 49,-106 110,-106 61,0 110,48 110,106" class="fil4 str1"/><path d="M4501 2894c0,59 -49,106 -110,106 -61,0 -110,-48 -110,-106 0,-59 49,-106 110,-106 61,0 110,48 110,106z" class="fil3"/><path d="M4501 2894c0,59 -49,106 -110,106 -61,0 -110,-48 -110,-106 0,-59 49,-106 110,-106 61,0 110,48 110,106" class="fil4 str1"/><path d="M4865 3239c0,59 -49,106 -110,106 -61,0 -110,-48 -110,-106 0,-59 49,-106 110,-106 61,0 110,48 110,106z" class="fil3"/><path d="M4865 3239c0,59 -49,106 -110,106 -61,0 -110,-48 -110,-106 0,-59 49,-106 110,-106 61,0 110,48 110,106" class="fil4 str1"/><path d="M5225 2172c0,59 -49,106 -110,106 -61,0 -110,-48 -110,-106 0,-59 49,-106 110,-106 61,0 110,48 110,106z" class="fil3"/><path d="M5225 2172c0,59 -49,106 -110,106 -61,0 -110,-48 -110,-106 0,-59 49,-106 110,-106 61,0 110,48 110,106" class="fil4 str1"/><path d="M5590 2517c0,59 -49,106 -110,106 -61,0 -110,-48 -110,-106 0,-59 49,-106 110,-106 61,0 110,48 110,106z" class="fil3"/><path d="M5590 2517c0,59 -49,106 -110,106 -61,0 -110,-48 -110,-106 0,-59 49,-106 110,-106 61,0 110,48 110,106" class="fil4 str1"/><path d="M2499 1060c-20,27 -53,45 -90,45 -61,0 -110,-48 -110,-106 0,-16 4,-31 10,-45 85,40 151,80 190,106z" class="fil3"/><path d="M2499 1060c-20,27 -53,45 -90,45 -61,0 -110,-48 -110,-106 0,-16 4,-31 10,-45" class="fil4 str1"/><path d="M817 2585c0,59 -49,106 -110,106 -61,0 -110,-48 -110,-106 0,-59 49,-106 110,-106 61,0 110,48 110,106z" class="fil3"/><path d="M817 2585c0,59 -49,106 -110,106 -61,0 -110,-48 -110,-106 0,-59 49,-106 110,-106 61,0 110,48 110,106" class="fil4 str1"/><path d="M1171 2876c0,59 -49,106 -110,106 -61,0 -110,-48 -110,-106 0,-59 49,-106 110,-106 61,0 110,48 110,106z" class="fil3"/><path d="M1171 2876c0,59 -49,106 -110,106 -61,0 -110,-48 -110,-106 0,-59 49,-106 110,-106 61,0 110,48 110,106" class="fil4 str1"/><path d="M817 3221c0,59 -49,106 -110,106 -61,0 -110,-48 -110,-106 0,-59 49,-106 110,-106 61,0 110,48 110,106z" class="fil3"/><path d="M817 3221c0,59 -49,106 -110,106 -61,0 -110,-48 -110,-106 0,-59 49,-106 110,-106 61,0 110,48 110,106" class="fil4 str1"/><path d="M599 2308c0,59 -49,106 -110,106 -61,0 -110,-48 -110,-106 0,-59 49,-106 110,-106 61,0 110,48 110,106z" class="fil3"/><path d="M599 2308c0,59 -49,106 -110,106 -61,0 -110,-48 -110,-106 0,-59 49,-106 110,-106 61,0 110,48 110,106" class="fil4 str1"/><path d="M817 3800c0,4 0,8 -1,12 -25,-38 -49,-75 -71,-112 42,15 72,54 72,100z" class="fil3"/><path d="M817 3800c0,4 0,8 -1,12m-71 -112c42,15 72,54 72,100" class="fil4 str1"/><path d="M3590 4605c0,59 -49,106 -110,106 -61,0 -110,-48 -110,-106 0,-59 49,-106 110,-106 61,0 110,48 110,106z" class="fil3"/><path d="M3590 4605c0,59 -49,106 -110,106 -61,0 -110,-48 -110,-106 0,-59 49,-106 110,-106 61,0 110,48 110,106" class="fil4 str1"/><path d="M3700 4148c0,59 -49,106 -110,106 -61,0 -110,-48 -110,-106 0,-59 49,-106 110,-106 61,0 110,48 110,106z" class="fil3"/><path d="M3700 4148c0,59 -49,106 -110,106 -61,0 -110,-48 -110,-106 0,-59 49,-106 110,-106 61,0 110,48 110,106" class="fil4 str1"/><path d="M5424 3345c0,59 -49,106 -110,106 -61,0 -110,-48 -110,-106 0,-59 49,-106 110,-106 61,0 110,48 110,106z" class="fil3"/><path d="M5424 3345c0,59 -49,106 -110,106 -61,0 -110,-48 -110,-106 0,-59 49,-106 110,-106 61,0 110,48 110,106" class="fil4 str1"/><path d="M5469 4498c0,59 -49,106 -110,106 -61,0 -110,-48 -110,-106 0,-59 49,-106 110,-106 61,0 110,48 110,106z" class="fil3"/><path d="M5469 4498c0,59 -49,106 -110,106 -61,0 -110,-48 -110,-106 0,-59 49,-106 110,-106 61,0 110,48 110,106" class="fil4 str1"/><path d="M5458 1698c0,59 -49,106 -110,106 -61,0 -110,-48 -110,-106 0,-59 49,-106 110,-106 61,0 110,48 110,106z" class="fil3"/><path d="M5458 1698c0,59 -49,106 -110,106 -61,0 -110,-48 -110,-106 0,-59 49,-106 110,-106 61,0 110,48 110,106" class="fil4 str1"/><path d="M4900 1776c0,59 -49,106 -110,106 -61,0 -110,-48 -110,-106 0,-59 49,-106 110,-106 61,0 110,48 110,106z" class="fil3"/><path d="M4900 1776c0,59 -49,106 -110,106 -61,0 -110,-48 -110,-106 0,-59 49,-106 110,-106 61,0 110,48 110,106" class="fil4 str1"/><path d="M3056 1163c-19,17 -45,27 -73,27 -39,0 -74,-20 -93,-50l166 23z" class="fil3"/><path d="M3056 1163c-19,17 -45,27 -73,27 -39,0 -74,-20 -93,-50" class="fil4 str1"/><path d="M4167 5035c0,59 -49,106 -110,106 -61,0 -110,-48 -110,-106 0,-59 49,-106 110,-106 61,0 110,48 110,106z" class="fil3"/><path d="M4167 5035c0,59 -49,106 -110,106 -61,0 -110,-48 -110,-106 0,-59 49,-106 110,-106 61,0 110,48 110,106" class="fil4 str1"/><path d="M4521 5359c0,59 -49,106 -110,106 -61,0 -110,-48 -110,-106 0,-59 49,-106 110,-106 61,0 110,48 110,106z" class="fil3"/><path d="M4521 5359c0,59 -49,106 -110,106 -61,0 -110,-48 -110,-106 0,-59 49,-106 110,-106 61,0 110,48 110,106" class="fil4 str1"/><path d="M4891 4983c0,59 -49,106 -110,106 -61,0 -110,-48 -110,-106 0,-59 49,-106 110,-106 61,0 110,48 110,106z" class="fil3"/><path d="M4891 4983c0,59 -49,106 -110,106 -61,0 -110,-48 -110,-106 0,-59 49,-106 110,-106 61,0 110,48 110,106" class="fil4 str1"/><path d="M5202 5466c0,59 -49,106 -110,106 -61,0 -110,-48 -110,-106 0,-59 49,-106 110,-106 61,0 110,48 110,106z" class="fil3"/><path d="M5202 5466c0,59 -49,106 -110,106 -61,0 -110,-48 -110,-106 0,-59 49,-106 110,-106 61,0 110,48 110,106" class="fil4 str1"/><path d="M5154 4665c0,59 -49,106 -110,106 -61,0 -110,-48 -110,-106 0,-59 49,-106 110,-106 61,0 110,48 110,106z" class="fil3"/><path d="M5154 4665c0,59 -49,106 -110,106 -61,0 -110,-48 -110,-106 0,-59 49,-106 110,-106 61,0 110,48 110,106" class="fil4 str1"/><path d="M3122 5108c0,59 -49,106 -110,106 -61,0 -110,-48 -110,-106 0,-59 49,-106 110,-106 61,0 110,48 110,106z" class="fil3"/><path d="M3122 5108c0,59 -49,106 -110,106 -61,0 -110,-48 -110,-106 0,-59 49,-106 110,-106 61,0 110,48 110,106" class="fil4 str1"/><path d="M2870 5510c0,59 -49,106 -110,106 -61,0 -110,-48 -110,-106 0,-59 49,-106 110,-106 61,0 110,48 110,106z" class="fil3"/><path d="M2870 5510c0,59 -49,106 -110,106 -61,0 -110,-48 -110,-106 0,-59 49,-106 110,-106 61,0 110,48 110,106" class="fil4 str1"/><path d="M3395 5630c0,59 -49,106 -110,106 -61,0 -110,-48 -110,-106 0,-59 49,-106 110,-106 61,0 110,48 110,106z" class="fil3"/><path d="M3395 5630c0,59 -49,106 -110,106 -61,0 -110,-48 -110,-106 0,-59 49,-106 110,-106 61,0 110,48 110,106" class="fil4 str1"/><path d="M3749 5954c0,59 -49,106 -110,106 -61,0 -110,-48 -110,-106 0,-59 49,-106 110,-106 61,0 110,48 110,106z" class="fil3"/><path d="M3749 5954c0,59 -49,106 -110,106 -61,0 -110,-48 -110,-106 0,-59 49,-106 110,-106 61,0 110,48 110,106" class="fil4 str1"/><path d="M3755 5232c0,59 -49,106 -110,106 -61,0 -110,-48 -110,-106 0,-59 49,-106 110,-106 61,0 110,48 110,106z" class="fil3"/><path d="M3755 5232c0,59 -49,106 -110,106 -61,0 -110,-48 -110,-106 0,-59 49,-106 110,-106 61,0 110,48 110,106" class="fil4 str1"/><path d="M4119 5578c0,59 -49,106 -110,106 -61,0 -110,-48 -110,-106 0,-59 49,-106 110,-106 61,0 110,48 110,106z" class="fil3"/><path d="M4119 5578c0,59 -49,106 -110,106 -61,0 -110,-48 -110,-106 0,-59 49,-106 110,-106 61,0 110,48 110,106" class="fil4 str1"/><path d="M4015 6211c0,59 -49,106 -110,106 -61,0 -110,-48 -110,-106 0,-59 49,-106 110,-106 61,0 110,48 110,106z" class="fil3"/><path d="M4015 6211c0,59 -49,106 -110,106 -61,0 -110,-48 -110,-106 0,-59 49,-106 110,-106 61,0 110,48 110,106" class="fil4 str1"/><path d="M2295 4817c0,59 -49,106 -110,106 -61,0 -110,-48 -110,-106 0,-59 49,-106 110,-106 61,0 110,48 110,106z" class="fil3"/><path d="M2295 4817c0,59 -49,106 -110,106 -61,0 -110,-48 -110,-106 0,-59 49,-106 110,-106 61,0 110,48 110,106" class="fil4 str1"/><path d="M4880 5861c0,2 0,5 0,7 -43,34 -86,66 -127,98 -53,-8 -93,-52 -93,-105 0,-59 49,-106 110,-106 61,0 110,48 110,106z" class="fil3"/><path d="M4880 5861c0,2 0,5 0,7m-127 98c-53,-8 -93,-52 -93,-105 0,-59 49,-106 110,-106 61,0 110,48 110,106" class="fil4 str1"/><path d="M4322 5939c0,59 -49,106 -110,106 -61,0 -110,-48 -110,-106 0,-59 49,-106 110,-106 61,0 110,48 110,106z" class="fil3"/><path d="M4322 5939c0,59 -49,106 -110,106 -61,0 -110,-48 -110,-106 0,-59 49,-106 110,-106 61,0 110,48 110,106" class="fil4 str1"/><path d="M3649 4845c0,59 -49,106 -110,106 -61,0 -110,-48 -110,-106 0,-59 49,-106 110,-106 61,0 110,48 110,106z" class="fil3"/><path d="M3649 4845c0,59 -49,106 -110,106 -61,0 -110,-48 -110,-106 0,-59 49,-106 110,-106 61,0 110,48 110,106" class="fil4 str1"/><path d="M2515 5246c0,59 -49,106 -110,106 -61,0 -110,-48 -110,-106 0,-59 49,-106 110,-106 61,0 110,48 110,106z" class="fil3"/><path d="M2515 5246c0,59 -49,106 -110,106 -61,0 -110,-48 -110,-106 0,-59 49,-106 110,-106 61,0 110,48 110,106" class="fil4 str1"/><path d="M6422 977c-20,27 -53,45 -90,45 -61,0 -110,-48 -110,-106 0,-3 0,-7 1,-10 72,21 139,46 200,71z" class="fil3"/><path d="M6422 977c-20,27 -53,45 -90,45 -61,0 -110,-48 -110,-106 0,-3 0,-7 1,-10" class="fil4 str1"/><path d="M6796 1239c0,59 -49,106 -110,106 -61,0 -110,-48 -110,-106 0,-59 49,-106 110,-106 15,0 29,3 42,8 16,11 30,21 42,29 17,19 27,43 27,69z" class="fil3"/><path d="M6796 1239c0,59 -49,106 -110,106 -61,0 -110,-48 -110,-106 0,-59 49,-106 110,-106 15,0 29,3 42,8m42 29c17,19 27,43 27,69" class="fil4 str1"/><path d="M6078 1239c0,59 -49,106 -110,106 -61,0 -110,-48 -110,-106 0,-59 49,-106 110,-106 61,0 110,48 110,106z" class="fil3"/><path d="M6078 1239c0,59 -49,106 -110,106 -61,0 -110,-48 -110,-106 0,-59 49,-106 110,-106 61,0 110,48 110,106" class="fil4 str1"/><path d="M6442 1584c0,59 -49,106 -110,106 -61,0 -110,-48 -110,-106 0,-59 49,-106 110,-106 61,0 110,48 110,106z" class="fil3"/><path d="M6442 1584c0,59 -49,106 -110,106 -61,0 -110,-48 -110,-106 0,-59 49,-106 110,-106 61,0 110,48 110,106" class="fil4 str1"/><path d="M7050 1662c0,59 -49,106 -110,106 -61,0 -110,-48 -110,-106 0,-59 49,-106 110,-106 61,0 110,48 110,106z" class="fil3"/><path d="M7050 1662c0,59 -49,106 -110,106 -61,0 -110,-48 -110,-106 0,-59 49,-106 110,-106 61,0 110,48 110,106" class="fil4 str1"/><path d="M7285 2092c-57,-4 -101,-50 -101,-106 0,-37 19,-69 49,-88 21,64 38,128 52,194z" class="fil3"/><path d="M7285 2092c-57,-4 -101,-50 -101,-106 0,-37 19,-69 49,-88" class="fil4 str1"/><path d="M6686 1986c0,59 -49,106 -110,106 -61,0 -110,-48 -110,-106 0,-59 49,-106 110,-106 61,0 110,48 110,106z" class="fil3"/><path d="M6686 1986c0,59 -49,106 -110,106 -61,0 -110,-48 -110,-106 0,-59 49,-106 110,-106 61,0 110,48 110,106" class="fil4 str1"/><path d="M7050 2332c0,59 -49,106 -110,106 -61,0 -110,-48 -110,-106 0,-59 49,-106 110,-106 61,0 110,48 110,106z" class="fil3"/><path d="M7050 2332c0,59 -49,106 -110,106 -61,0 -110,-48 -110,-106 0,-59 49,-106 110,-106 61,0 110,48 110,106" class="fil4 str1"/><path d="M7231 3171c-16,9 -35,14 -55,14 -61,0 -110,-48 -110,-106 0,-59 49,-106 110,-106 39,0 73,19 93,49 -11,50 -24,100 -38,150z" class="fil3"/><path d="M7231 3171c-16,9 -35,14 -55,14 -61,0 -110,-48 -110,-106 0,-59 49,-106 110,-106 39,0 73,19 93,49" class="fil4 str1"/><path d="M7035 3481c0,59 -49,106 -110,106 -61,0 -110,-48 -110,-106 0,-59 49,-106 110,-106 61,0 110,48 110,106z" class="fil3"/><path d="M7035 3481c0,59 -49,106 -110,106 -61,0 -110,-48 -110,-106 0,-59 49,-106 110,-106 61,0 110,48 110,106" class="fil4 str1"/><path d="M6620 2500c0,59 -49,106 -110,106 -61,0 -110,-48 -110,-106 0,-59 49,-106 110,-106 61,0 110,48 110,106z" class="fil3"/><path d="M6620 2500c0,59 -49,106 -110,106 -61,0 -110,-48 -110,-106 0,-59 49,-106 110,-106 61,0 110,48 110,106" class="fil4 str1"/><path d="M6974 2791c0,59 -49,106 -110,106 -61,0 -110,-48 -110,-106 0,-59 49,-106 110,-106 61,0 110,48 110,106z" class="fil3"/><path d="M6974 2791c0,59 -49,106 -110,106 -61,0 -110,-48 -110,-106 0,-59 49,-106 110,-106 61,0 110,48 110,106" class="fil4 str1"/><path d="M6188 2834c0,59 -49,106 -110,106 -61,0 -110,-48 -110,-106 0,-59 49,-106 110,-106 61,0 110,48 110,106z" class="fil3"/><path d="M6188 2834c0,59 -49,106 -110,106 -61,0 -110,-48 -110,-106 0,-59 49,-106 110,-106 61,0 110,48 110,106" class="fil4 str1"/><path d="M6620 3136c0,59 -49,106 -110,106 -61,0 -110,-48 -110,-106 0,-59 49,-106 110,-106 61,0 110,48 110,106z" class="fil3"/><path d="M6620 3136c0,59 -49,106 -110,106 -61,0 -110,-48 -110,-106 0,-59 49,-106 110,-106 61,0 110,48 110,106" class="fil4 str1"/><path d="M6048 1899c0,59 -49,106 -110,106 -61,0 -110,-48 -110,-106 0,-59 49,-106 110,-106 61,0 110,48 110,106z" class="fil3"/><path d="M6048 1899c0,59 -49,106 -110,106 -61,0 -110,-48 -110,-106 0,-59 49,-106 110,-106 61,0 110,48 110,106" class="fil4 str1"/><path d="M6402 2223c0,59 -49,106 -110,106 -61,0 -110,-48 -110,-106 0,-59 49,-106 110,-106 61,0 110,48 110,106z" class="fil3"/><path d="M6402 2223c0,59 -49,106 -110,106 -61,0 -110,-48 -110,-106 0,-59 49,-106 110,-106 61,0 110,48 110,106" class="fil4 str1"/><path d="M5706 2324c0,59 -49,106 -110,106 -61,0 -110,-48 -110,-106 0,-59 49,-106 110,-106 61,0 110,48 110,106z" class="fil3"/><path d="M5706 2324c0,59 -49,106 -110,106 -61,0 -110,-48 -110,-106 0,-59 49,-106 110,-106 61,0 110,48 110,106" class="fil4 str1"/><path d="M6188 3503c0,59 -49,106 -110,106 -61,0 -110,-48 -110,-106 0,-59 49,-106 110,-106 61,0 110,48 110,106z" class="fil3"/><path d="M6188 3503c0,59 -49,106 -110,106 -61,0 -110,-48 -110,-106 0,-59 49,-106 110,-106 61,0 110,48 110,106" class="fil4 str1"/><path d="M5794 3260c0,59 -49,106 -110,106 -61,0 -110,-48 -110,-106 0,-59 49,-106 110,-106 61,0 110,48 110,106z" class="fil3"/><path d="M5794 3260c0,59 -49,106 -110,106 -61,0 -110,-48 -110,-106 0,-59 49,-106 110,-106 61,0 110,48 110,106" class="fil4 str1"/><path d="M6620 3715c0,59 -49,106 -110,106 -61,0 -110,-48 -110,-106 0,-59 49,-106 110,-106 61,0 110,48 110,106z" class="fil3"/><path d="M6620 3715c0,59 -49,106 -110,106 -61,0 -110,-48 -110,-106 0,-59 49,-106 110,-106 61,0 110,48 110,106" class="fil4 str1"/><path d="M6620 4288c0,8 -1,16 -3,23 -22,25 -44,50 -67,76 -13,5 -26,8 -41,8 -61,0 -110,-48 -110,-106 0,-59 49,-106 110,-106 61,0 110,48 110,106z" class="fil3"/><path d="M6620 4288c0,8 -1,16 -3,23m-67 76c-13,5 -26,8 -41,8 -61,0 -110,-48 -110,-106 0,-59 49,-106 110,-106 61,0 110,48 110,106" class="fil4 str1"/><path d="M6078 3957c0,59 -49,106 -110,106 -61,0 -110,-48 -110,-106 0,-59 49,-106 110,-106 61,0 110,48 110,106z" class="fil3"/><path d="M6078 3957c0,59 -49,106 -110,106 -61,0 -110,-48 -110,-106 0,-59 49,-106 110,-106 61,0 110,48 110,106" class="fil4 str1"/><path d="M5937 4452c0,59 -49,106 -110,106 -61,0 -110,-48 -110,-106 0,-59 49,-106 110,-106 61,0 110,48 110,106z" class="fil3"/><path d="M5937 4452c0,59 -49,106 -110,106 -61,0 -110,-48 -110,-106 0,-59 49,-106 110,-106 61,0 110,48 110,106" class="fil4 str1"/><path d="M5573 4895c0,59 -49,106 -110,106 -61,0 -110,-48 -110,-106 0,-59 49,-106 110,-106 61,0 110,48 110,106z" class="fil3"/><path d="M5573 4895c0,59 -49,106 -110,106 -61,0 -110,-48 -110,-106 0,-59 49,-106 110,-106 61,0 110,48 110,106" class="fil4 str1"/><path d="M6095 4776c0,59 -49,106 -110,106 -61,0 -110,-48 -110,-106 0,-59 49,-106 110,-106 61,0 110,48 110,106z" class="fil3"/><path d="M6095 4776c0,59 -49,106 -110,106 -61,0 -110,-48 -110,-106 0,-59 49,-106 110,-106 61,0 110,48 110,106" class="fil4 str1"/><path d="M2541 1090c0,0 -967,-754 -1797,264 0,0 -1227,1157 599,3125 0,0 1011,1120 2700,2010 0,0 2287,-1599 2857,-2558 569,-959 599,-2010 -88,-2727 0,0 -1090,-926 -2405,151l-1865 -264" class="fil4 str2"/><path d="M4995 4530c0,0 628,202 467,883 0,0 -252,298 -697,291 0,0 10,203 -29,291l-715 602 -1855 -1311c0,0 190,-282 373,-334 183,-52 2456,-422 2456,-422z" class="fil5"/><path d="M4995 4530c0,0 628,202 467,883 0,0 -252,298 -697,291 0,0 10,203 -29,291l-715 602 -1855 -1311c0,0 190,-282 373,-334 183,-52 2456,-422 2456,-422z" class="fil4 str3"/><polygon points="4792 5702 4836 5890 5144 5622" class="fil6"/><polygon points="4792 5702 4836 5890 5144 5622" class="fil4 str4"/><path d="M4754 5288c0,0 11,44 19,113 4,34 8,74 10,117 1,21 2,44 2,66 0,23 0,45 -1,68 -1,23 -2,46 -4,68 -1,22 -4,45 -6,66 -1,11 -3,21 -4,31 -2,10 -3,20 -5,30 -3,19 -6,38 -10,54 -4,17 -7,32 -11,46 -4,13 -7,25 -10,35 -6,19 -10,30 -10,30 0,0 2,-11 4,-31 1,-10 3,-22 5,-35 2,-14 3,-29 5,-46 2,-17 4,-35 6,-55 2,-19 4,-40 5,-61 1,-11 2,-21 2,-32 0,-11 1,-22 2,-33 2,-22 2,-45 3,-67 1,-23 1,-45 2,-67 0,-22 0,-44 0,-65 0,-21 0,-42 -1,-61 0,-19 -1,-38 -1,-55 -1,-34 -2,-62 -2,-82 -1,-20 -1,-31 -1,-31z" class="fil7"/><path d="M3132 5350c0,0 -1,2 -2,7 -1,4 -2,11 -4,19 -1,4 -2,8 -3,13 -1,5 -2,10 -3,16 -2,11 -5,24 -7,37 -2,14 -4,29 -6,45 -3,16 -3,33 -5,50 -2,17 -4,35 -5,53 -1,18 -2,37 -2,55 -1,19 -3,37 -2,55 0,18 0,36 0,54 0,17 -1,34 -1,50 1,16 1,31 2,45 2,56 0,94 0,94 0,0 -8,-37 -16,-93 -2,-14 -4,-29 -6,-45 -1,-16 -2,-33 -3,-51 -1,-18 -2,-36 -2,-54 -1,-19 1,-37 1,-56 1,-19 2,-38 3,-56 2,-19 5,-37 7,-54 3,-18 5,-34 9,-50 4,-16 7,-31 11,-44 4,-14 8,-26 12,-37 2,-5 4,-10 5,-15 2,-5 4,-9 5,-13 6,-15 11,-23 11,-23z" class="fil7"/><path d="M4187 5057c0,0 9,15 22,43 14,27 33,67 54,115 21,48 45,105 67,167 11,31 22,63 33,96 11,33 21,67 30,100 9,34 17,68 25,102 7,34 14,67 19,100 5,33 9,64 12,94 3,30 4,59 5,85 0,13 0,26 0,38 0,12 -1,23 -1,34 0,21 -3,40 -4,55 -2,15 -4,27 -5,35 -1,8 -2,12 -2,12 0,0 1,-17 4,-48 0,-15 2,-34 1,-55 0,-21 -1,-45 -2,-71 -2,-26 -4,-54 -8,-84 -4,-30 -9,-61 -14,-93 -6,-32 -12,-65 -20,-99 -8,-33 -16,-67 -26,-101 -9,-34 -19,-67 -29,-100 -10,-33 -21,-65 -32,-96 -22,-62 -43,-119 -63,-168 -20,-49 -37,-89 -50,-117 -13,-28 -20,-44 -20,-44z" class="fil7"/><path d="M3430 405c0,0 1878,-736 2533,1377 0,0 479,530 66,1104 0,0 71,316 -191,427 -262,111 -160,425 33,281 0,0 0,213 -255,183 0,0 -43,29 -92,3 0,0 85,86 72,177 0,0 461,583 -347,691 0,0 -406,79 -478,-249 -72,-327 0,-20 0,-20 0,0 -1931,723 -2304,553 0,0 -439,131 -789,-173 0,0 -566,-527 101,-691 0,0 -288,131 -43,249 245,118 324,-288 239,-386 0,0 -805,-520 -432,-1240 0,0 170,-272 422,-566 252,-295 265,-733 265,-733 0,0 111,-1033 1198,-988z" class="fil8"/><path d="M3430 405c0,0 1878,-736 2533,1377 0,0 479,530 66,1104 0,0 71,316 -191,427 -262,111 -160,425 33,281 0,0 0,213 -255,183 0,0 -43,29 -92,3 0,0 85,86 72,177 0,0 461,583 -347,691 0,0 -406,79 -478,-249 -72,-327 0,-20 0,-20 0,0 -1931,723 -2304,553 0,0 -439,131 -789,-173 0,0 -566,-527 101,-691 0,0 -288,131 -43,249 245,118 324,-288 239,-386 0,0 -805,-520 -432,-1240 0,0 170,-272 422,-566 252,-295 265,-733 265,-733 0,0 111,-1033 1198,-988" class="fil4 str4"/><path d="M3208 4450c0,0 4,170 -340,303 -344,133 -496,309 -496,309 0,0 1135,680 2546,-458 0,0 -80,-42 -109,-105l-1601 -49z" class="fil6"/><path d="M3208 4450c0,0 4,170 -340,303 -344,133 -496,309 -496,309 0,0 1135,680 2546,-458 0,0 -80,-42 -109,-105l-1601 -49z" class="fil4 str4"/><path d="M2314 2554c0,0 -260,147 -39,471 0,0 98,157 123,216 25,59 133,64 133,64 0,0 44,638 707,1168 663,530 834,290 1075,182 241,-108 574,-44 805,-471 231,-427 79,-334 349,-722 0,0 101,-142 127,-334 2,-16 4,-32 5,-48 0,0 -908,98 -1075,-481 -167,-579 -539,-599 -702,-599 -162,0 -501,-64 -585,-290 0,0 113,191 -398,736 0,0 -358,496 -79,697 0,0 -83,187 -209,98 0,0 -189,-152 -238,-687z" class="fil6"/><path d="M2314 2554c0,0 -260,147 -39,471 0,0 98,157 123,216 25,59 133,64 133,64 0,0 44,638 707,1168 663,530 834,290 1075,182 241,-108 574,-44 805,-471 231,-427 79,-334 349,-722 0,0 101,-142 127,-334 2,-16 4,-32 5,-48 0,0 -908,98 -1075,-481 -167,-579 -539,-599 -702,-599 -162,0 -501,-64 -585,-290 0,0 113,191 -398,736 0,0 -358,496 -79,697 0,0 -83,187 -209,98 0,0 -189,-152 -238,-687z" class="fil4 str4"/><path d="M4850 3092c0,0 10,-5 27,-11 18,-6 44,-14 75,-19 32,-6 70,-9 110,-8 20,1 42,2 63,6 21,3 43,9 64,15 10,4 21,7 31,12l15 7 15 8c20,10 37,23 54,36 8,7 16,14 23,20 7,7 13,15 20,22 6,8 11,15 17,22 5,7 9,15 14,22 8,14 15,28 20,40 5,12 9,23 11,32 5,18 7,29 7,29 0,0 -6,-9 -15,-25 -4,-8 -11,-17 -18,-28 -3,-5 -8,-11 -12,-16 -4,-6 -8,-12 -14,-17 -5,-6 -10,-12 -16,-18 -6,-6 -12,-12 -18,-18 -7,-6 -13,-11 -20,-17 -7,-5 -15,-11 -22,-17 -16,-11 -32,-20 -50,-29l-13 -6 -14 -6c-9,-4 -19,-7 -28,-10 -38,-13 -78,-20 -116,-24 -19,-2 -38,-3 -55,-4 -18,-1 -35,-1 -50,-1 -16,0 -30,1 -43,1 -13,1 -24,1 -33,2 -18,1 -29,3 -29,3z" class="fil8"/><path d="M3115 2528c0,0 12,-7 34,-17 11,-5 24,-11 40,-17 16,-6 34,-13 54,-19 20,-6 42,-12 65,-17 23,-5 48,-10 74,-13 26,-3 53,-5 81,-6 28,0 56,0 84,3 28,3 56,8 83,14 14,3 27,7 40,11 13,4 26,9 38,13 12,5 24,10 36,15 11,6 23,11 33,17 10,6 21,12 30,18 10,6 18,13 27,19 17,12 32,25 45,36 12,12 23,22 31,31 16,18 25,29 25,29 0,0 -11,-8 -30,-23 -10,-7 -22,-15 -36,-24 -7,-5 -15,-9 -23,-14 -8,-5 -16,-10 -25,-15 -9,-5 -18,-10 -28,-14 -10,-5 -20,-9 -30,-14 -11,-4 -22,-9 -33,-13 -11,-4 -23,-8 -35,-12 -12,-3 -24,-7 -37,-10 -13,-3 -25,-6 -38,-9 -26,-5 -52,-9 -79,-11 -27,-3 -53,-4 -80,-5 -26,0 -52,0 -78,2 -25,2 -50,4 -73,7 -23,3 -45,6 -65,10 -80,14 -133,30 -133,30z" class="fil8"/><path d="M3963 3945c0,0 -59,31 -34,70" class="fil4 str5"/><path d="M3991 4022c0,0 26,-23 59,0" class="fil4 str5"/><path d="M4222 3961c0,0 28,79 -90,110" class="fil4 str5"/><path d="M4256 4017c0,0 15,23 -23,54" class="fil4 str5"/><path d="M3533 4100c0,0 326,709 836,227 0,0 -125,7 -223,-21 -98,-28 -121,-37 -434,-113 0,0 -91,-31 -179,-93z" class="fil5"/><path d="M3533 4100c0,0 326,709 836,227 0,0 -125,7 -223,-21 -98,-28 -121,-37 -434,-113 0,0 -91,-31 -179,-93z" class="fil4 str3"/><path d="M3025 3086c-1,-6 303,-407 674,31 0,0 108,134 59,320 0,0 -628,326 -733,-351z" class="fil9"/><path d="M3025 3086c-1,-6 303,-407 674,31 0,0 108,134 59,320 0,0 -628,326 -733,-351z" class="fil4 str6"/><path d="M3691 3191c0,140 -122,253 -274,253 -151,0 -274,-113 -274,-253 0,-140 122,-253 274,-253 151,0 274,113 274,253z" class="fil3"/><path d="M3691 3191c0,140 -122,253 -274,253 -151,0 -274,-113 -274,-253 0,-140 122,-253 274,-253 151,0 274,113 274,253z" class="fil4 str7"/><path d="M2969 2934c0,0 65,92 150,65 0,0 236,-217 520,52 0,0 163,159 119,384 0,0 74,-235 -119,-455 0,0 -162,-172 -382,-96 0,0 -92,-48 -99,-64 0,0 29,75 47,79 0,0 -104,-2 -130,-49l60 79c0,0 -79,-1 -109,-39 0,0 47,63 69,64 0,0 -50,27 -125,-25l0 5z" class="fil7"/><path d="M3266 2821c0,0 186,-107 361,56" class="fil4 str8"/><path d="M4935 3322c0,0 118,-66 216,37" class="fil4 str8"/><path d="M4583 3773c0,0 43,-479 460,-363 0,0 242,105 91,393 0,0 -214,242 -551,-29z" class="fil9"/><path d="M4583 3773c0,0 43,-479 460,-363 0,0 242,105 91,393 0,0 -214,242 -551,-29z" class="fil4 str6"/><path d="M5031 3598c0,97 -77,175 -173,175 -95,0 -173,-78 -173,-175 0,-97 77,-175 173,-175 95,0 173,78 173,175zm-415 29c11,124 114,222 239,222 133,0 241,-110 241,-245 0,-87 -45,-164 -113,-207 -227,-24 -325,115 -367,231z" class="fil3"/><path d="M5031 3598c0,97 -77,175 -173,175 -95,0 -173,-78 -173,-175 0,-97 77,-175 173,-175 95,0 173,78 173,175zm-415 29c11,124 114,222 239,222 133,0 241,-110 241,-245 0,-87 -45,-164 -113,-207 -227,-24 -325,115 -367,231z" class="fil4 str7"/><path d="M4685 3598c0,97 77,175 173,175 95,0 173,-78 173,-175 0,-97 -77,-175 -173,-175 -95,0 -173,78 -173,175z" class="fil7"/><path d="M5228 3598c-25,-23 65,-36 77,-36 11,0 -69,-14 -96,-13 17,-4 57,-17 73,-49 0,0 -97,22 -108,-26 0,0 56,4 87,-28 0,0 -95,3 -112,-11 0,0 -139,-125 -309,-77 -36,10 -74,28 -112,57 0,0 -72,54 -116,180 -16,47 -29,105 -31,174l0 3c0,-1 0,-3 1,-7 2,-19 8,-76 32,-139 42,-116 141,-255 367,-231l0 0c0,0 175,23 200,214 0,0 81,43 130,-12 0,0 -60,23 -85,0z" class="fil7"/><path d="M3621 3170c0,104 -86,189 -192,189 -106,0 -192,-85 -192,-189 0,-104 86,-189 192,-189 106,0 192,85 192,189z" class="fil7"/><path d="M3640 3114c0,28 -24,50 -53,50 -29,0 -53,-23 -53,-50 0,-28 24,-50 53,-50 29,0 53,23 53,50z" class="fil9"/><path d="M5001 3505c0,28 -24,50 -53,50 -29,0 -53,-23 -53,-50 0,-28 24,-50 53,-50 29,0 53,23 53,50z" class="fil9"/><path d="M3053 1581c0,0 -2,6 -6,17 -4,11 -11,28 -20,48 -9,20 -21,45 -35,72 -7,14 -15,28 -24,44 -9,15 -18,31 -28,47 -21,32 -43,67 -70,102 -7,9 -13,18 -20,27 -7,9 -14,18 -22,27 -14,18 -31,35 -47,53 -16,18 -34,35 -52,52 -18,17 -37,33 -56,50 -9,8 -19,16 -28,25 -8,9 -17,17 -25,26 -16,19 -32,38 -46,59 -28,41 -52,85 -71,131 -19,45 -36,91 -48,137 -26,91 -39,179 -46,254 -6,76 -5,139 2,183 4,22 7,39 12,50 2,6 4,10 5,12 1,3 2,4 2,4 0,0 -1,-1 -2,-4 -1,-3 -4,-6 -6,-12 -5,-11 -11,-28 -16,-49 -10,-44 -16,-108 -13,-185 3,-77 14,-166 38,-260 12,-47 27,-94 47,-141 20,-47 44,-93 73,-136 15,-22 31,-42 48,-61 8,-10 18,-19 27,-28 10,-9 19,-16 29,-25 19,-16 38,-32 56,-48 17,-17 36,-33 52,-50 8,-9 16,-17 24,-25 8,-8 15,-17 23,-26 7,-9 15,-17 22,-25 7,-9 14,-17 21,-26 27,-34 51,-67 73,-98 21,-32 40,-61 56,-87 16,-27 29,-50 39,-70 21,-39 31,-63 31,-63z" class="fil7"/><path d="M2185 1970c0,0 -2,7 -6,21 -4,14 -10,34 -18,59 -8,25 -18,56 -30,91 -12,35 -25,75 -41,117 -8,21 -16,44 -25,67 -9,23 -18,46 -28,71 -10,24 -20,49 -30,75 -11,25 -22,51 -33,77 -22,53 -47,106 -73,160 -6,13 -13,28 -19,40 -6,14 -13,28 -17,41l-7 20c-2,7 -4,14 -6,21 -4,14 -7,29 -10,43 -12,58 -14,118 -11,177 3,59 11,116 23,172 23,110 58,210 92,294 35,84 68,152 95,197 13,23 24,41 32,52 4,6 7,10 9,13 2,3 3,4 3,4 0,0 -1,-1 -4,-4 -2,-3 -6,-7 -10,-13 -9,-11 -21,-28 -36,-50 -29,-45 -67,-111 -105,-194 -38,-83 -76,-183 -102,-295 -13,-56 -22,-115 -26,-175 -4,-60 -1,-123 11,-184 3,-15 6,-30 11,-45 2,-7 4,-15 7,-22l8 -22c5,-15 12,-28 18,-42 7,-14 13,-27 20,-41 26,-54 52,-106 75,-158 12,-26 23,-51 35,-76 11,-25 21,-50 32,-74 21,-48 40,-93 57,-135 18,-42 33,-81 47,-115 14,-34 25,-64 35,-89 19,-50 30,-78 30,-78z" class="fil7"/><path d="M2328 3114c0,0 -3,6 -7,17 -4,11 -10,28 -15,49 -1,5 -3,11 -4,17 -1,6 -2,12 -3,19 -3,13 -4,27 -5,43 -1,8 -1,16 -1,24 0,8 0,17 0,25 0,17 2,35 2,54 2,19 5,38 7,58 4,20 8,40 13,62 6,21 12,42 19,64 7,21 16,43 24,65 18,43 39,88 63,131 6,11 12,22 18,33 6,11 13,21 20,32 14,21 27,43 41,63 30,42 57,86 80,131 24,45 43,91 58,137 15,46 25,92 30,136 4,44 3,87 -5,125 -8,38 -20,72 -37,99 -3,7 -8,13 -12,19 -4,6 -8,12 -12,17 -9,10 -16,20 -24,28 -8,8 -15,15 -21,21 -7,6 -13,10 -17,14 -9,7 -14,11 -14,11 0,0 5,-4 13,-12 4,-4 10,-9 16,-15 6,-6 12,-14 20,-22 7,-8 14,-19 22,-29 3,-6 7,-12 11,-18 4,-6 8,-12 10,-20 14,-27 24,-60 30,-97 6,-37 6,-78 0,-120 -6,-42 -17,-87 -32,-131 -16,-44 -36,-89 -59,-132 -23,-44 -49,-87 -79,-127 -15,-22 -28,-43 -42,-65 -7,-11 -14,-21 -20,-33 -6,-11 -12,-22 -18,-34 -12,-22 -25,-44 -34,-67 -5,-11 -10,-23 -15,-34 -5,-11 -10,-22 -14,-34 -8,-23 -16,-45 -23,-67 -6,-23 -12,-44 -17,-66 -4,-22 -8,-43 -11,-64 -2,-21 -4,-41 -5,-60 0,-19 -1,-38 0,-55 1,-9 1,-17 2,-26 0,-8 1,-16 3,-24 3,-15 4,-30 8,-43 2,-7 3,-13 4,-19 2,-6 4,-12 5,-17 3,-11 7,-20 10,-28 3,-8 6,-15 9,-20 5,-11 9,-16 9,-16z" class="fil7"/><path d="M2303 4759c0,0 -6,7 -17,16 -6,5 -13,11 -22,16 -9,6 -19,12 -31,18 -6,3 -12,6 -18,9 -6,3 -13,5 -20,8 -14,6 -29,9 -45,14 -8,2 -16,3 -24,5 -8,2 -17,3 -25,4 -17,2 -34,4 -52,4 -17,0 -35,1 -52,-1 -17,-1 -34,-2 -50,-4 -16,-2 -32,-4 -46,-7 -15,-3 -28,-6 -41,-10 -13,-3 -24,-6 -34,-10 -10,-3 -19,-6 -26,-9 -14,-5 -22,-8 -22,-8 0,0 9,1 23,3 7,1 16,2 27,4 10,2 22,3 35,5 13,1 26,3 41,5 14,2 30,2 45,3 16,2 32,1 49,2 17,1 33,0 50,0 17,0 33,-2 50,-3 16,-1 32,-4 48,-6 15,-4 30,-5 44,-10 7,-2 14,-4 20,-5 6,-2 13,-4 19,-6 6,-2 12,-4 17,-6 5,-2 11,-4 15,-6 9,-4 18,-8 24,-11 6,-4 12,-6 15,-9 3,-2 5,-3 5,-3z" class="fil7"/><path d="M2472 4916l-37 -28c-12,-10 -24,-20 -35,-30 -11,-11 -22,-22 -33,-33 -10,-12 -21,-23 -31,-35l-14 -19c-5,-6 -9,-13 -13,-20 -9,-13 -16,-27 -23,-41 -6,-15 -13,-29 -17,-45l-4 -11 -3 -12c-1,-8 -4,-16 -4,-24 -2,-16 -3,-32 -3,-48l2 -24 4 -24 6 -23 7 -23 9 -22c3,-7 7,-15 10,-22 8,-14 16,-28 25,-41 9,-13 19,-26 29,-38 10,-12 21,-24 32,-35 11,-11 23,-22 36,-32l45 -34 -24 51c-6,12 -11,26 -16,39 -5,14 -9,27 -12,41 -4,14 -7,28 -9,42 -2,14 -5,28 -6,42 -1,14 -2,28 -2,43 0,14 1,28 3,42 2,14 5,28 8,42 2,7 4,14 6,20l7 20 9 19c3,6 7,12 10,18 3,6 8,12 12,18l6 9 7 8c9,11 19,21 29,31 5,5 11,9 16,14 5,5 11,9 17,13l18 12 19 11c12,8 26,13 39,20 13,6 27,11 40,17l42 14 -43 -10c-14,-5 -28,-9 -42,-14 -14,-6 -28,-10 -41,-18l-20 -10 -19 -11 -10 -6 -9 -7c-6,-5 -12,-9 -18,-14 -11,-10 -23,-20 -33,-31l-8 -8 -7 -9c-4,-6 -10,-12 -13,-18 -4,-6 -8,-13 -12,-19l-10 -20 -9 -21c-3,-7 -5,-14 -7,-22 -4,-15 -8,-29 -10,-44 -2,-15 -4,-30 -4,-45 -1,-15 0,-30 1,-45 2,-30 7,-60 15,-89 4,-15 8,-29 13,-43 5,-14 10,-28 17,-42l21 17c-11,9 -23,19 -33,29 -11,10 -21,22 -31,33 -10,12 -19,23 -27,36 -9,12 -16,25 -23,38 -4,7 -7,13 -10,20l-9 21 -7 21 -6 22 -4 22 -2 22c-1,15 -1,30 1,44 0,7 2,15 3,22l2 11 3 11c3,15 9,28 14,43 7,14 12,28 20,41 4,7 7,13 12,20l13 19c8,13 18,24 28,37 10,12 20,23 31,34 11,11 22,22 33,32l35 31z" class="fil7"/><path d="M2387 4408c4,20 10,40 17,59 4,9 8,19 13,28 5,9 10,18 15,26 6,8 11,16 18,24 6,8 13,15 20,22l11 10 12 9c8,6 16,11 25,15 4,2 9,4 13,6 4,2 9,4 14,5 9,3 19,6 28,8 10,2 19,4 29,4l15 1 15 0c10,0 20,-1 30,-1 10,-1 20,-2 30,-3l29 -5 29 -7 -2 1c8,-4 18,-10 26,-16 9,-6 16,-13 24,-20 7,-8 15,-15 21,-23 3,-4 7,-8 10,-13l8 -13c6,-9 10,-19 14,-28 5,-9 7,-20 10,-30 4,-10 5,-21 6,-31l3 -16 0 -16c0,-11 1,-22 0,-32l-3 -32c0,-11 -4,-21 -6,-32 -2,-11 -5,-22 -7,-32l-10 -32c-4,-10 -6,-21 -11,-32 -9,-20 -17,-41 -26,-62 11,19 22,39 33,59 5,10 9,21 14,31l13 31c4,11 7,22 10,33 3,11 7,22 9,33l5 34c2,11 1,23 2,34l0 17 -2 17c-2,12 -2,23 -6,34 -3,11 -5,23 -10,34 -5,11 -8,22 -15,32l-9 15c-3,5 -7,9 -11,14 -7,10 -15,18 -23,26 -9,8 -17,16 -27,23 -9,7 -19,13 -31,19l-1 0 -1 0 -31 7 -31 5c-11,1 -21,3 -32,3 -11,0 -21,1 -32,0l-16 -1 -16 -2c-11,-1 -21,-4 -32,-6 -10,-3 -21,-6 -31,-10 -5,-2 -10,-4 -15,-7 -5,-2 -10,-5 -14,-8 -9,-5 -18,-11 -27,-18l-12 -10 -11 -11c-7,-8 -14,-16 -20,-25 -6,-9 -12,-18 -17,-27 -19,-37 -32,-78 -34,-119z" class="fil7"/><path d="M3627 1326c0,0 48,2 131,11 83,10 202,25 342,56 70,16 145,36 224,61 78,25 160,57 240,99 40,20 80,44 118,71 38,27 75,57 109,90 8,9 16,18 24,27 8,9 16,18 23,28l11 14 6 7 5 7 20 30c27,39 52,80 77,122 49,83 91,169 139,249 11,20 25,39 38,58 6,10 14,18 21,27 7,9 14,18 22,26 16,16 31,33 48,46 9,7 17,14 26,21 9,6 18,12 28,18 74,47 156,75 234,97 40,10 78,20 116,30 19,5 37,9 55,15 18,6 35,12 52,18 67,26 127,55 174,91 47,36 80,76 99,114 19,38 24,71 25,94 1,22 -3,34 -3,34 0,0 3,-12 1,-34 -1,-22 -8,-55 -28,-91 -20,-36 -54,-75 -100,-108 -12,-8 -24,-16 -37,-24 -13,-7 -28,-14 -42,-22 -14,-8 -30,-14 -45,-20 -16,-6 -31,-14 -49,-19 -17,-5 -34,-11 -52,-16 -17,-6 -36,-9 -55,-14 -38,-9 -76,-18 -116,-28 -80,-21 -164,-47 -242,-96 -10,-6 -19,-12 -29,-19 -9,-7 -18,-14 -27,-22 -19,-14 -34,-31 -51,-48 -9,-8 -15,-18 -23,-27 -7,-9 -15,-18 -22,-28 -13,-20 -27,-39 -39,-59 -49,-81 -92,-166 -140,-248 -24,-41 -48,-81 -75,-121l-20 -30 -5 -7 -5 -7 -10 -14c-7,-9 -14,-18 -22,-27 -8,-9 -15,-17 -23,-26 -33,-33 -68,-62 -105,-88 -37,-26 -76,-49 -115,-70 -78,-41 -158,-74 -235,-101 -77,-27 -152,-48 -221,-65 -139,-34 -256,-54 -339,-66 -83,-12 -130,-16 -130,-16z" class="fil7"/><path d="M3428 1907c0,0 11,4 33,8 11,2 24,4 40,6 8,1 16,2 25,3 9,1 19,1 29,2 10,1 21,1 32,2 11,0 23,0 35,0 25,0 51,1 79,-1 14,-1 29,-1 44,-2 15,0 31,-1 46,-3 32,-2 65,-5 100,-8 69,-6 148,-6 228,9 80,14 164,44 240,91 76,47 145,112 201,188l21 29c7,9 13,20 19,30l18 30 9 15 8 16c11,21 22,42 32,64l27 66c5,11 9,22 12,33l11 34c7,22 15,44 22,66l6 16 6 15c5,10 8,21 13,30l15 30 17 28c24,37 53,70 86,99 33,29 69,52 106,72 76,39 157,62 234,80 78,19 152,34 220,55 34,11 66,23 95,39 29,16 53,37 72,58 19,21 36,43 48,65 6,11 11,23 13,34 2,12 2,23 -1,34 -6,22 -23,34 -37,41 -14,7 -28,11 -38,13 -22,5 -33,5 -33,5 0,0 12,-1 33,-7 10,-3 23,-7 37,-15 13,-8 28,-20 32,-39 5,-19 -2,-40 -14,-61 -12,-20 -30,-40 -49,-60 -20,-20 -43,-38 -71,-51 -28,-14 -59,-25 -92,-34 -66,-19 -141,-31 -220,-48 -79,-17 -163,-38 -244,-78 -81,-39 -157,-100 -209,-181l-19 -31 -16 -32c-6,-10 -10,-22 -15,-33l-7 -17 -6 -17c-7,-22 -15,-44 -23,-66l-11 -33c-4,-11 -7,-22 -12,-32l-26 -64c-10,-21 -20,-41 -30,-61l-8 -15 -9 -15 -18 -29c-6,-10 -11,-20 -18,-29l-20 -27c-53,-72 -117,-135 -188,-181 -72,-46 -150,-76 -226,-92 -10,-2 -19,-4 -29,-6 -10,-2 -19,-2 -29,-4 -19,-2 -38,-5 -56,-5 -9,0 -18,-1 -27,-1 -9,-1 -18,-1 -27,-1 -18,0 -36,1 -54,1 -35,1 -68,3 -100,4 -16,1 -32,1 -47,0 -15,0 -30,0 -44,0 -29,0 -55,-2 -80,-3 -12,-1 -24,-1 -35,-2 -11,-1 -22,-2 -32,-3 -10,-1 -20,-2 -29,-3 -9,-2 -17,-3 -25,-4 -16,-2 -29,-6 -40,-8 -21,-5 -32,-10 -32,-10z" class="fil7"/><path d="M4749 2604c0,0 2,1 6,3 4,3 8,7 15,13 12,12 31,29 56,47 26,18 59,37 99,55 40,18 87,34 139,48 52,14 110,26 171,35 61,9 127,16 194,22 68,5 138,9 209,10l27 1c9,0 19,1 28,2 19,2 37,6 55,11 36,9 71,24 104,43 32,19 61,44 86,73 6,7 12,14 18,22l15 24c6,8 9,16 13,25l6 12 3 6c1,3 2,5 3,8 5,20 4,40 1,59l-4 14c-1,5 -4,9 -5,13 -3,9 -9,17 -13,25 -21,32 -49,55 -78,74 -59,38 -123,60 -184,76 -7,2 -15,4 -22,6 -7,2 -14,4 -21,7 -14,5 -27,11 -39,18 -24,14 -45,33 -53,56 -8,24 -4,49 6,71 9,22 22,41 36,58 28,34 58,58 83,77 26,18 48,30 64,34 8,2 15,2 19,0 4,-3 3,-6 4,-5 0,0 0,3 -3,6 -4,3 -11,3 -19,1 -17,-4 -40,-14 -67,-31 -27,-17 -58,-41 -88,-74 -15,-17 -30,-36 -40,-60 -11,-23 -17,-52 -8,-81 5,-14 13,-27 23,-38 10,-11 23,-20 36,-28 26,-16 57,-26 86,-35 15,-5 30,-10 45,-14 15,-5 30,-12 45,-17 30,-12 59,-27 87,-45 27,-19 53,-40 70,-68 4,-7 9,-14 11,-21 1,-4 3,-7 4,-11l3 -12c3,-15 3,-32 -1,-47 0,-1 -1,-3 -1,-5l-3 -6 -6 -12c-4,-8 -7,-16 -12,-23l-14 -22c-5,-7 -11,-13 -16,-20 -23,-26 -50,-49 -80,-67 -30,-18 -63,-31 -96,-41 -17,-4 -34,-8 -51,-10 -9,-1 -17,-2 -25,-2l-27 -1c-72,-2 -142,-6 -210,-12 -136,-12 -262,-35 -367,-66 -53,-16 -100,-34 -139,-54 -40,-20 -73,-40 -98,-60 -25,-19 -43,-38 -54,-50 -6,-6 -10,-11 -14,-14 -3,-3 -6,-4 -5,-4z" class="fil7"/><path d="M3912 1361c0,0 7,-2 21,-5 14,-3 34,-6 60,-9 26,-3 58,-5 94,-5 36,-1 78,0 122,6 89,10 193,30 299,72 13,5 26,11 40,16 13,6 26,12 39,18 13,6 26,13 39,19 13,7 26,13 39,21 52,29 102,63 150,99 47,37 93,76 135,118 10,10 21,21 31,31 10,11 20,22 29,32 20,21 38,44 55,65 18,21 34,44 50,66 16,22 30,44 44,65 7,11 14,21 21,32 3,5 6,11 10,16 3,5 6,10 9,15 12,20 25,39 38,57 25,36 50,68 73,95 23,27 46,48 66,64 20,15 37,26 50,32 13,5 19,8 19,8l-1 3c0,0 -7,-3 -20,-7 -13,-5 -31,-15 -52,-30 -21,-15 -45,-36 -70,-62 -25,-26 -51,-57 -78,-93 -13,-18 -27,-37 -40,-57 -7,-10 -13,-20 -20,-31 -7,-10 -14,-20 -21,-31 -15,-21 -29,-43 -46,-63 -16,-21 -32,-43 -51,-64 -18,-21 -36,-43 -55,-64 -10,-10 -19,-21 -29,-32 -10,-10 -21,-20 -31,-30 -41,-41 -87,-79 -133,-115 -47,-35 -96,-69 -147,-97 -51,-28 -102,-54 -153,-75 -51,-21 -102,-38 -151,-50 -49,-13 -96,-22 -140,-28 -88,-12 -162,-12 -214,-9 -52,3 -81,9 -81,9l-1 -3z" class="fil7"/><path d="M5017 2083c0,0 3,4 9,10 6,6 16,15 28,25 13,10 28,22 47,35 9,6 20,12 31,18 11,6 23,13 35,19 12,7 26,12 39,18 14,6 28,11 43,16 15,5 31,9 46,14 16,4 32,8 49,12 17,3 34,7 52,10 9,1 18,2 27,3 9,1 18,3 28,4 18,3 37,6 55,9 19,5 39,9 58,14 18,7 37,13 55,20 18,8 36,15 53,24 34,18 66,38 95,61 7,6 14,11 21,17 7,6 13,12 20,18 6,6 13,12 19,18 6,6 12,12 17,19 23,24 42,49 59,73 17,23 30,46 41,67 6,10 10,20 15,29 5,9 8,17 11,25 7,15 11,28 14,36 3,8 4,13 4,13l-3 1c0,0 -2,-4 -6,-12 -4,-8 -9,-20 -17,-34 -4,-7 -8,-15 -13,-24 -5,-9 -10,-18 -16,-28 -12,-19 -27,-41 -44,-63 -17,-22 -37,-46 -60,-68 -6,-6 -12,-11 -17,-17 -6,-6 -13,-11 -19,-17 -6,-5 -13,-11 -20,-17 -7,-5 -14,-10 -21,-16 -28,-21 -59,-40 -92,-57 -16,-8 -34,-15 -51,-23 -18,-6 -35,-12 -53,-18 -18,-5 -36,-9 -54,-14 -19,-3 -37,-6 -55,-9 -18,-3 -37,-6 -54,-9 -18,-3 -35,-8 -53,-11 -17,-4 -34,-9 -50,-14 -16,-5 -32,-11 -47,-17 -15,-6 -30,-12 -43,-19 -14,-7 -27,-13 -39,-20 -12,-7 -24,-14 -35,-21 -11,-7 -21,-14 -30,-21 -18,-14 -33,-27 -45,-39 -24,-23 -34,-39 -34,-39l2 -2z" class="fil7"/><path d="M3675 1133c0,0 11,-5 33,-12 22,-8 54,-18 95,-29 42,-10 93,-21 152,-29 59,-8 127,-13 201,-11 74,2 154,11 237,31 83,20 168,51 250,96 82,45 160,102 231,170 17,17 35,34 51,53 16,19 34,36 48,56 15,20 31,39 45,59l43 59c57,79 113,160 166,240 13,20 26,40 39,60 13,20 25,40 38,60 25,40 49,79 77,114 7,8 14,17 21,25 8,8 15,16 23,23 17,14 32,29 50,43 17,14 34,27 51,40 17,13 34,26 51,38 67,50 131,98 189,142 15,11 29,22 43,32 14,10 28,22 40,34 25,23 46,47 65,71 37,48 61,95 75,136 8,20 11,39 15,56 2,17 4,31 4,42 0,23 0,35 0,35 0,0 -1,-12 -2,-35 -1,-11 -4,-25 -7,-41 -5,-16 -9,-34 -17,-54 -16,-39 -41,-84 -79,-129 -19,-22 -41,-45 -66,-66 -13,-11 -25,-21 -40,-31 -14,-10 -29,-20 -44,-31 -60,-42 -125,-87 -194,-136 -17,-12 -34,-25 -52,-37 -18,-13 -35,-26 -53,-40 -18,-13 -35,-28 -52,-43 -8,-8 -17,-16 -25,-24 -8,-8 -16,-18 -24,-27 -30,-37 -55,-76 -81,-116 -26,-39 -52,-79 -78,-119 -54,-80 -109,-159 -167,-238l-43 -59c-14,-20 -29,-38 -44,-57 -14,-19 -31,-36 -46,-54 -15,-18 -33,-34 -49,-51 -68,-66 -142,-123 -220,-167 -78,-44 -160,-76 -240,-98 -80,-21 -158,-33 -230,-37 -145,-9 -267,7 -350,24 -42,9 -74,17 -96,23 -22,6 -34,10 -34,10z" class="fil7"/><path d="M5017 1547c0,0 7,2 19,5 12,4 30,8 53,16 23,7 50,17 81,28 16,6 32,12 49,18 17,7 35,14 54,22 37,16 78,34 120,54 21,10 42,21 64,32 22,11 44,24 66,36 44,26 90,53 134,84 11,8 22,15 33,23 11,8 22,16 33,24 22,16 43,34 65,51 21,18 41,36 61,55 10,10 19,19 29,29l15 14 14 15c9,10 18,20 27,30 9,10 17,21 25,31 8,11 17,21 24,31 7,11 15,22 22,32 7,11 15,21 21,32 6,11 13,22 19,33 7,11 11,22 16,33 5,11 10,22 15,33 9,22 16,44 24,65 5,22 11,43 16,63 3,21 6,40 8,59 2,19 1,37 2,53 0,8 1,16 0,24 -1,8 -1,15 -2,22 -1,14 -3,28 -4,39 -4,24 -9,42 -11,54 -3,12 -4,19 -4,19l-3 -1c0,0 1,-7 3,-19 2,-13 5,-31 8,-54 1,-12 1,-25 2,-39 0,-7 1,-14 1,-22 0,-8 -1,-16 -1,-24 -1,-16 -1,-34 -4,-52 -3,-18 -7,-37 -10,-57 -6,-19 -11,-40 -17,-61 -8,-20 -16,-41 -25,-63 -5,-10 -10,-21 -16,-32 -5,-11 -10,-22 -17,-32 -13,-21 -24,-43 -40,-63 -7,-10 -15,-21 -22,-31 -8,-10 -16,-20 -24,-30 -8,-10 -16,-21 -25,-30 -9,-10 -18,-19 -27,-29l-14 -15 -14 -14c-10,-9 -19,-19 -29,-28 -20,-18 -40,-36 -61,-53 -42,-34 -84,-68 -128,-98 -43,-31 -88,-58 -131,-85 -44,-26 -86,-50 -127,-71 -41,-22 -81,-41 -117,-58 -73,-34 -136,-60 -180,-77 -44,-17 -70,-25 -70,-25l1 -3z" class="fil7"/><path d="M5229 4654c0,0 328,165 246,719 0,0 -217,297 -715,326" class="fil4 str9"/><path d="M2373 5062c0,0 -112,80 -207,202" class="fil4 str4"/><path d="M4879 804c7,-17 8,-36 2,-55 -5,-15 -19,-21 -33,-13 -30,16 -48,78 -30,107 7,12 19,15 31,8 17,-10 25,-27 30,-47zm-274 -32c28,9 59,-7 68,-34 9,-26 -8,-59 -33,-67 -32,-10 -59,6 -68,35 -9,29 3,56 33,66zm463 141c27,8 59,-8 66,-37 8,-30 -3,-57 -35,-67 -29,-10 -58,8 -66,36 -9,29 8,60 35,67zm-1104 -88c4,-1 9,0 12,-5 -24,-13 -38,-34 -48,-59 -5,-13 -3,-28 -13,-38 0,-4 0,-9 0,-13 5,-2 5,-6 3,-10 -3,-4 -7,-3 -11,-3 -14,3 -25,11 -38,17 -33,16 -59,42 -83,70 -1,2 0,4 1,6 -5,7 -11,15 -16,22 -29,44 -27,79 9,111 41,36 91,44 144,34 9,-2 9,-5 7,-14 -11,-45 -10,-87 32,-118zm1698 464c-7,0 -12,6 -17,9 -25,17 -51,26 -82,22 4,6 7,10 10,15 10,51 -14,88 -49,122 33,41 78,55 129,58 43,2 81,-32 81,-76 0,-16 -1,-32 0,-48 6,-3 3,-5 -1,-7 0,-3 -1,-7 -1,-10 7,-2 3,-8 3,-12 -5,-26 -13,-51 -25,-74 -7,-14 -13,-31 -31,-37 -1,5 -2,9 -2,12 -1,4 -3,8 -4,12 -4,0 -7,0 -4,5 0,4 -3,6 -6,8zm-464 37c3,2 6,4 9,6 43,20 84,44 126,66 17,9 34,19 52,29 -1,-7 -2,-12 -3,-17 -6,-38 -4,-75 22,-106 33,-41 78,-50 127,-44 14,2 29,-6 36,-19 3,-16 -3,-28 -19,-35 -25,-11 -51,-13 -77,-10 -32,3 -62,14 -93,24 -55,18 -106,42 -153,75 -11,8 -23,15 -32,28 3,1 5,2 7,2zm-923 -290c13,-1 4,-9 3,-13 -21,-66 -52,-127 -94,-181 -24,-31 -47,-64 -82,-85 -19,-12 -39,-21 -62,-20 -12,1 -17,6 -18,17 -6,12 -1,29 13,36 16,8 33,14 50,21 17,7 31,16 41,33 21,38 7,74 -9,108 -11,23 -28,42 -52,57 5,2 7,4 10,4 36,0 70,6 105,10 32,4 63,9 95,13zm3 -225c1,3 2,6 8,4 -6,-58 -24,-113 -54,-162 -28,-46 -70,-70 -123,-76 -20,-2 -39,-2 -58,6 -8,3 -8,5 -5,12 0,1 0,2 1,3 69,40 127,95 180,154 18,19 35,40 52,60zm1356 284c8,2 11,0 7,-9 -8,-16 -21,-26 -35,-35 -47,-28 -96,-39 -149,-17 -45,18 -84,46 -119,79 -8,8 -17,16 -22,27 4,3 7,0 9,-2 5,2 10,-1 14,-2 65,-20 132,-33 199,-39 32,-3 65,-2 98,-2zm-1238 -186c-18,48 -39,95 -53,148 49,-6 93,2 136,16 3,1 6,0 9,0 3,0 6,3 11,0 -34,-57 -67,-114 -99,-177 -2,7 -3,10 -4,14zm604 326c45,17 91,33 129,70 13,-54 33,-102 41,-154 1,-3 3,-7 1,-11 -2,1 -5,2 -7,3 -36,21 -74,38 -112,56 -17,8 -33,15 -50,23 -5,2 -14,6 -2,12zm-1011 -348c-2,7 -5,13 -3,21 4,18 15,28 32,30 18,2 31,-8 39,-24 0,-2 0,-5 0,-7 0,-1 0,-2 0,-3 4,-21 -4,-34 -25,-40 -19,-6 -35,3 -43,23zm1528 480c6,-20 -5,-40 -24,-46 -20,-6 -40,6 -46,29 -4,23 7,42 27,46 19,4 38,-9 43,-29zm-553 -1094c-4,1 -5,5 -5,9 -15,27 -21,55 -11,85 5,15 14,30 32,31 28,2 59,-27 63,-56 4,-27 1,-53 -14,-79 5,1 7,2 10,2 12,13 13,30 14,46 7,-37 -6,-70 -29,-76 -21,-6 -53,14 -60,38l0 0zm-35 374l0 -1c3,-21 -4,-37 -18,-40 -14,-4 -30,6 -37,22 0,1 -1,2 -2,2 -3,2 -4,5 -5,9 2,26 8,36 25,39 14,3 25,-5 34,-23 4,-2 4,-5 3,-9zm-1603 447c4,-15 9,-30 13,-45 4,5 5,1 7,-2 17,-24 42,-35 69,-44 50,-17 102,-26 154,-38 26,-6 52,-11 77,-20 -5,-25 -7,-49 -6,-73 2,-51 10,-101 39,-145 26,-40 59,-73 96,-103 32,-26 67,-44 108,-50 19,-3 38,0 40,-27 0,-2 3,-4 4,-7 16,-39 42,-68 81,-83 63,-25 126,-33 190,-2 49,24 86,61 113,108 11,19 20,40 29,60 2,-1 3,-1 5,-2 14,-49 29,-98 43,-147 3,-12 8,-24 14,-34 29,-50 68,-90 121,-115 66,-32 131,-32 197,-3 77,34 109,98 114,180 3,44 -5,86 -15,129 -10,43 -27,83 -55,117 -5,-1 -6,3 -8,5 -27,31 -55,62 -92,80 -31,15 -63,22 -96,4 -25,-14 -39,-36 -48,-63 -3,-8 -1,-18 -11,-23 -1,-3 -2,-6 -1,-10 5,-3 3,-5 -1,-7 1,-56 20,-105 69,-135 43,-26 89,-29 135,-9 6,-4 9,-11 11,-19 6,-24 6,-48 5,-73 8,-5 3,-12 1,-16 -13,-43 -39,-73 -84,-86 -52,-15 -96,3 -129,45 -3,4 -11,6 -7,14 -31,43 -51,90 -58,142 -4,34 -7,68 -1,101 13,75 43,144 75,212 29,62 72,113 116,164 14,16 28,32 45,49 2,-22 14,-34 32,-38 -8,-16 -9,-31 -5,-48 5,-25 20,-41 41,-52 -10,-40 1,-68 33,-93 4,1 8,1 13,-3 -15,-11 -22,-26 -29,-41 -3,-7 0,-17 -8,-22 1,-55 18,-101 66,-131 -25,-46 -5,-113 52,-128 -1,-27 5,-52 30,-67 -15,-37 -27,-74 -37,-112 -13,-45 -24,-91 -12,-139 7,-28 15,-55 39,-72 24,-17 51,-18 79,-16 4,0 8,3 9,-4 31,9 62,18 94,27 -5,4 -2,6 1,7 12,4 22,12 31,19 25,20 48,44 47,79 -1,36 -13,70 -35,100 -9,1 -14,8 -19,14 -21,23 -47,41 -72,60 -24,18 -47,36 -73,48 0,5 3,7 6,8 9,26 2,48 -13,71 28,33 28,69 6,106 -13,9 -27,19 -39,27 -2,-1 0,0 3,2 -3,5 1,8 2,11 15,48 2,91 -23,132 -21,13 -38,33 -68,32 5,5 7,7 9,9 16,42 8,77 -25,99 10,18 11,36 5,56 -6,20 -17,35 -34,46 16,15 12,32 6,49 47,-2 90,-14 133,-27 49,-15 97,-31 141,-59 41,-26 81,-52 121,-81 62,-46 104,-107 129,-180 12,-35 13,-70 12,-106 1,-1 3,-2 3,-3 -1,-29 -7,-56 -26,-78 -48,-54 -117,-58 -173,-15 -4,3 -13,7 -9,16 -4,6 -9,13 -13,19 -1,1 -2,1 -3,2 -12,19 -19,40 -24,62 53,11 91,41 109,92 18,50 10,100 -19,146 -7,-1 -9,6 -13,9 -50,49 -137,53 -176,-24 -14,-28 -21,-58 -25,-89 -1,-7 1,-15 -6,-20 -5,-42 1,-84 14,-124 16,-49 38,-96 71,-136 28,-35 62,-63 104,-75 60,-18 119,-6 171,26 68,43 102,109 112,190 8,63 -16,119 -34,176 -7,22 -15,43 -23,65 8,1 12,-4 17,-6 22,-12 44,-23 67,-33 43,-17 87,-23 132,-15 55,9 99,37 134,81 24,31 45,63 45,105 0,25 -6,49 -13,72 79,55 96,139 105,227 10,94 -36,167 -95,234 5,8 10,15 16,22 40,45 82,87 120,133 23,28 49,56 49,97 0,2 2,5 5,2 -5,16 -9,32 -14,48 -4,-3 -7,-1 -11,2 -18,11 -36,10 -54,1 -20,-10 -38,-24 -54,-39 -55,-50 -106,-105 -161,-155 -46,-42 -95,-80 -146,-115 -61,-41 -124,-79 -187,-115 -68,-38 -137,-74 -207,-108 -40,-20 -81,-39 -123,-55 -55,-21 -112,-31 -171,-33 -38,-2 -77,-4 -114,-12 -41,-9 -76,-34 -111,-54 -43,-25 -84,-53 -132,-67 -41,-12 -82,-23 -125,-30 -62,-11 -125,-19 -187,-27 -78,-10 -156,-17 -234,-20 -62,-2 -124,-5 -185,-1 -83,6 -164,21 -246,35 -30,5 -61,12 -92,11 -31,-1 -59,-6 -74,-38 -1,-2 -3,-5 -6,-3z" class="fil2"/><path d="M4879 804c7,-17 8,-36 2,-55 -5,-15 -19,-21 -33,-13 -30,16 -48,78 -30,107 7,12 19,15 31,8 17,-10 25,-27 30,-47zm-274 -32c28,9 59,-7 68,-34 9,-26 -8,-59 -33,-67 -32,-10 -59,6 -68,35 -9,29 3,56 33,66zm463 141c27,8 59,-8 66,-37 8,-30 -3,-57 -35,-67 -29,-10 -58,8 -66,36 -9,29 8,60 35,67zm-1104 -88c4,-1 9,0 12,-5 -24,-13 -38,-34 -48,-59 -5,-13 -3,-28 -13,-38 0,-4 0,-9 0,-13 5,-2 5,-6 3,-10 -3,-4 -7,-3 -11,-3 -14,3 -25,11 -38,17 -33,16 -59,42 -83,70 -1,2 0,4 1,6 -5,7 -11,15 -16,22 -29,44 -27,79 9,111 41,36 91,44 144,34 9,-2 9,-5 7,-14 -11,-45 -10,-87 32,-118zm1698 464c-7,0 -12,6 -17,9 -25,17 -51,26 -82,22 4,6 7,10 10,15 10,51 -14,88 -49,122 33,41 78,55 129,58 43,2 81,-32 81,-76 0,-16 -1,-32 0,-48 6,-3 3,-5 -1,-7 0,-3 -1,-7 -1,-10 7,-2 3,-8 3,-12 -5,-26 -13,-51 -25,-74 -7,-14 -13,-31 -31,-37 -1,5 -2,9 -2,12 -1,4 -3,8 -4,12 -4,0 -7,0 -4,5 0,4 -3,6 -6,8zm-464 37c3,2 6,4 9,6 43,20 84,44 126,66 17,9 34,19 52,29 -1,-7 -2,-12 -3,-17 -6,-38 -4,-75 22,-106 33,-41 78,-50 127,-44 14,2 29,-6 36,-19 3,-16 -3,-28 -19,-35 -25,-11 -51,-13 -77,-10 -32,3 -62,14 -93,24 -55,18 -106,42 -153,75 -11,8 -23,15 -32,28 3,1 5,2 7,2zm-923 -290c13,-1 4,-9 3,-13 -21,-66 -52,-127 -94,-181 -24,-31 -47,-64 -82,-85 -19,-12 -39,-21 -62,-20 -12,1 -17,6 -18,17 -6,12 -1,29 13,36 16,8 33,14 50,21 17,7 31,16 41,33 21,38 7,74 -9,108 -11,23 -28,42 -52,57 5,2 7,4 10,4 36,0 70,6 105,10 32,4 63,9 95,13zm3 -225c1,3 2,6 8,4 -6,-58 -24,-113 -54,-162 -28,-46 -70,-70 -123,-76 -20,-2 -39,-2 -58,6 -8,3 -8,5 -5,12 0,1 0,2 1,3 69,40 127,95 180,154 18,19 35,40 52,60zm1356 284c8,2 11,0 7,-9 -8,-16 -21,-26 -35,-35 -47,-28 -96,-39 -149,-17 -45,18 -84,46 -119,79 -8,8 -17,16 -22,27 4,3 7,0 9,-2 5,2 10,-1 14,-2 65,-20 132,-33 199,-39 32,-3 65,-2 98,-2zm-1238 -186c-18,48 -39,95 -53,148 49,-6 93,2 136,16 3,1 6,0 9,0 3,0 6,3 11,0 -34,-57 -67,-114 -99,-177 -2,7 -3,10 -4,14zm604 326c45,17 91,33 129,70 13,-54 33,-102 41,-154 1,-3 3,-7 1,-11 -2,1 -5,2 -7,3 -36,21 -74,38 -112,56 -17,8 -33,15 -50,23 -5,2 -14,6 -2,12zm-1011 -348c-2,7 -5,13 -3,21 4,18 15,28 32,30 18,2 31,-8 39,-24 0,-2 0,-5 0,-7 0,-1 0,-2 0,-3 4,-21 -4,-34 -25,-40 -19,-6 -35,3 -43,23zm1528 480c6,-20 -5,-40 -24,-46 -20,-6 -40,6 -46,29 -4,23 7,42 27,46 19,4 38,-9 43,-29zm-553 -1094c-4,1 -5,5 -5,9 -15,27 -21,55 -11,85 5,15 14,30 32,31 28,2 59,-27 63,-56 4,-27 1,-53 -14,-79 5,1 7,2 10,2 12,13 13,30 14,46 7,-37 -6,-70 -29,-76 -21,-6 -53,14 -60,38l0 0zm-35 374l0 -1c3,-21 -4,-37 -18,-40 -14,-4 -30,6 -37,22 0,1 -1,2 -2,2 -3,2 -4,5 -5,9 2,26 8,36 25,39 14,3 25,-5 34,-23 4,-2 4,-5 3,-9zm-1603 447c4,-15 9,-30 13,-45 4,5 5,1 7,-2 17,-24 42,-35 69,-44 50,-17 102,-26 154,-38 26,-6 52,-11 77,-20 -5,-25 -7,-49 -6,-73 2,-51 10,-101 39,-145 26,-40 59,-73 96,-103 32,-26 67,-44 108,-50 19,-3 38,0 40,-27 0,-2 3,-4 4,-7 16,-39 42,-68 81,-83 63,-25 126,-33 190,-2 49,24 86,61 113,108 11,19 20,40 29,60 2,-1 3,-1 5,-2 14,-49 29,-98 43,-147 3,-12 8,-24 14,-34 29,-50 68,-90 121,-115 66,-32 131,-32 197,-3 77,34 109,98 114,180 3,44 -5,86 -15,129 -10,43 -27,83 -55,117 -5,-1 -6,3 -8,5 -27,31 -55,62 -92,80 -31,15 -63,22 -96,4 -25,-14 -39,-36 -48,-63 -3,-8 -1,-18 -11,-23 -1,-3 -2,-6 -1,-10 5,-3 3,-5 -1,-7 1,-56 20,-105 69,-135 43,-26 89,-29 135,-9 6,-4 9,-11 11,-19 6,-24 6,-48 5,-73 8,-5 3,-12 1,-16 -13,-43 -39,-73 -84,-86 -52,-15 -96,3 -129,45 -3,4 -11,6 -7,14 -31,43 -51,90 -58,142 -4,34 -7,68 -1,101 13,75 43,144 75,212 29,62 72,113 116,164 14,16 28,32 45,49 2,-22 14,-34 32,-38 -8,-16 -9,-31 -5,-48 5,-25 20,-41 41,-52 -10,-40 1,-68 33,-93 4,1 8,1 13,-3 -15,-11 -22,-26 -29,-41 -3,-7 0,-17 -8,-22 1,-55 18,-101 66,-131 -25,-46 -5,-113 52,-128 -1,-27 5,-52 30,-67 -15,-37 -27,-74 -37,-112 -13,-45 -24,-91 -12,-139 7,-28 15,-55 39,-72 24,-17 51,-18 79,-16 4,0 8,3 9,-4 31,9 62,18 94,27 -5,4 -2,6 1,7 12,4 22,12 31,19 25,20 48,44 47,79 -1,36 -13,70 -35,100 -9,1 -14,8 -19,14 -21,23 -47,41 -72,60 -24,18 -47,36 -73,48 0,5 3,7 6,8 9,26 2,48 -13,71 28,33 28,69 6,106 -13,9 -27,19 -39,27 -2,-1 0,0 3,2 -3,5 1,8 2,11 15,48 2,91 -23,132 -21,13 -38,33 -68,32 5,5 7,7 9,9 16,42 8,77 -25,99 10,18 11,36 5,56 -6,20 -17,35 -34,46 16,15 12,32 6,49 47,-2 90,-14 133,-27 49,-15 97,-31 141,-59 41,-26 81,-52 121,-81 62,-46 104,-107 129,-180 12,-35 13,-70 12,-106 1,-1 3,-2 3,-3 -1,-29 -7,-56 -26,-78 -48,-54 -117,-58 -173,-15 -4,3 -13,7 -9,16 -4,6 -9,13 -13,19 -1,1 -2,1 -3,2 -12,19 -19,40 -24,62 53,11 91,41 109,92 18,50 10,100 -19,146 -7,-1 -9,6 -13,9 -50,49 -137,53 -176,-24 -14,-28 -21,-58 -25,-89 -1,-7 1,-15 -6,-20 -5,-42 1,-84 14,-124 16,-49 38,-96 71,-136 28,-35 62,-63 104,-75 60,-18 119,-6 171,26 68,43 102,109 112,190 8,63 -16,119 -34,176 -7,22 -15,43 -23,65 8,1 12,-4 17,-6 22,-12 44,-23 67,-33 43,-17 87,-23 132,-15 55,9 99,37 134,81 24,31 45,63 45,105 0,25 -6,49 -13,72 79,55 96,139 105,227 10,94 -36,167 -95,234 5,8 10,15 16,22 40,45 82,87 120,133 23,28 49,56 49,97 0,2 2,5 5,2 -5,16 -9,32 -14,48 -4,-3 -7,-1 -11,2 -18,11 -36,10 -54,1 -20,-10 -38,-24 -54,-39 -55,-50 -106,-105 -161,-155 -46,-42 -95,-80 -146,-115 -61,-41 -124,-79 -187,-115 -68,-38 -137,-74 -207,-108 -40,-20 -81,-39 -123,-55 -55,-21 -112,-31 -171,-33 -38,-2 -77,-4 -114,-12 -41,-9 -76,-34 -111,-54 -43,-25 -84,-53 -132,-67 -41,-12 -82,-23 -125,-30 -62,-11 -125,-19 -187,-27 -78,-10 -156,-17 -234,-20 -62,-2 -124,-5 -185,-1 -83,6 -164,21 -246,35 -30,5 -61,12 -92,11 -31,-1 -59,-6 -74,-38 -1,-2 -3,-5 -6,-3z" class="fil1 str10"/><path d="M5036 265c-2,-1 -5,-1 -10,-2 15,26 17,52 14,79 -4,29 -35,58 -63,56 -18,-2 -27,-16 -32,-31 -10,-30 -4,-58 11,-85 4,-1 4,-5 5,-9l0 0c10,-7 18,-18 30,-23 20,-8 37,-3 45,16z" class="fil0"/><path d="M5036 265c-2,-1 -5,-1 -10,-2 15,26 17,52 14,79 -4,29 -35,58 -63,56 -18,-2 -27,-16 -32,-31 -10,-30 -4,-58 11,-85 4,-1 4,-5 5,-9l0 0c10,-7 18,-18 30,-23 20,-8 37,-3 45,16z" class="fil1 str10"/><path d="M5068 913c-28,-8 -44,-39 -35,-67 8,-28 37,-46 66,-36 32,11 43,37 35,67 -7,28 -39,45 -66,37z" class="fil0"/><path d="M5068 913c-28,-8 -44,-39 -35,-67 8,-28 37,-46 66,-36 32,11 43,37 35,67 -7,28 -39,45 -66,37z" class="fil1 str10"/><path d="M4605 771c-30,-11 -42,-38 -33,-66 9,-29 36,-45 68,-35 26,8 42,41 33,67 -9,27 -40,43 -68,34z" class="fil0"/><path d="M4605 771c-30,-11 -42,-38 -33,-66 9,-29 36,-45 68,-35 26,8 42,41 33,67 -9,27 -40,43 -68,34z" class="fil1 str10"/><path d="M4879 804c-5,20 -13,37 -30,47 -12,7 -24,4 -31,-8 -18,-29 0,-91 30,-107 14,-7 28,-2 33,13 6,19 5,38 -2,55z" class="fil0"/><path d="M4879 804c-5,20 -13,37 -30,47 -12,7 -24,4 -31,-8 -18,-29 0,-91 30,-107 14,-7 28,-2 33,13 6,19 5,38 -2,55z" class="fil1 str10"/><path d="M5565 1240c-21,-37 -56,-36 -91,-34 -60,5 -115,27 -169,51 -35,15 -67,35 -98,58 -4,3 -7,6 -10,9 -2,-1 -4,-1 -7,-2 9,-13 21,-20 32,-28 47,-33 99,-58 153,-75 31,-10 61,-21 93,-24 26,-3 52,-1 77,10 16,7 23,19 19,35z" class="fil2"/><path d="M5565 1240c-21,-37 -56,-36 -91,-34 -60,5 -115,27 -169,51 -35,15 -67,35 -98,58 -4,3 -7,6 -10,9 -2,-1 -4,-1 -7,-2 9,-13 21,-20 32,-28 47,-33 99,-58 153,-75 31,-10 61,-21 93,-24 26,-3 52,-1 77,10 16,7 23,19 19,35z" class="fil1 str10"/><path d="M4274 1035c-27,-90 -76,-166 -137,-234 -22,-25 -50,-45 -84,-52 -12,-2 -22,0 -32,4 1,-11 6,-16 18,-17 23,-2 43,8 62,20 35,21 57,54 82,85 42,54 74,115 94,181 1,3 10,12 -3,13z" class="fil2"/><path d="M4274 1035c-27,-90 -76,-166 -137,-234 -22,-25 -50,-45 -84,-52 -12,-2 -22,0 -32,4 1,-11 6,-16 18,-17 23,-2 43,8 62,20 35,21 57,54 82,85 42,54 74,115 94,181 1,3 10,12 -3,13z" class="fil1 str10"/><path d="M5633 1094c-11,-21 -30,-34 -50,-43 -45,-21 -93,-26 -140,-4 -38,17 -71,41 -102,69 -7,6 -15,12 -19,21 -2,2 -4,5 -9,2 5,-11 14,-19 22,-27 35,-34 75,-61 119,-79 53,-22 102,-11 149,17 14,9 28,19 35,35 4,8 1,11 -7,9z" class="fil2"/><path d="M5633 1094c-11,-21 -30,-34 -50,-43 -45,-21 -93,-26 -140,-4 -38,17 -71,41 -102,69 -7,6 -15,12 -19,21 -2,2 -4,5 -9,2 5,-11 14,-19 22,-27 35,-34 75,-61 119,-79 53,-22 102,-11 149,17 14,9 28,19 35,35 4,8 1,11 -7,9z" class="fil1 str10"/><path d="M4277 810c1,-21 -5,-41 -12,-61 -11,-33 -22,-66 -43,-94 -29,-37 -65,-60 -112,-66 -22,-3 -44,0 -65,5 -3,-7 -3,-8 5,-12 19,-7 39,-8 58,-6 53,6 96,30 123,76 30,49 47,104 54,162 -6,2 -7,-1 -8,-4z" class="fil2"/><path d="M4277 810c1,-21 -5,-41 -12,-61 -11,-33 -22,-66 -43,-94 -29,-37 -65,-60 -112,-66 -22,-3 -44,0 -65,5 -3,-7 -3,-8 5,-12 19,-7 39,-8 58,-6 53,6 96,30 123,76 30,49 47,104 54,162 -6,2 -7,-1 -8,-4z" class="fil1 str10"/><path d="M4056 903c0,1 0,2 0,3 -2,2 -2,5 0,7 -8,16 -21,26 -39,24 -17,-2 -28,-12 -32,-30 -2,-8 1,-14 3,-21 13,-10 27,-17 44,-10 13,5 19,16 25,27z" class="fil0"/><path d="M4056 903c0,1 0,2 0,3 -2,2 -2,5 0,7 -8,16 -21,26 -39,24 -17,-2 -28,-12 -32,-30 -2,-8 1,-14 3,-21 13,-10 27,-17 44,-10 13,5 19,16 25,27z" class="fil1 str10"/><path d="M5515 1367c-5,20 -24,33 -43,29 -20,-4 -31,-23 -27,-46 22,-31 65,-17 70,17z" class="fil0"/><path d="M5515 1367c-5,20 -24,33 -43,29 -20,-4 -31,-23 -27,-46 22,-31 65,-17 70,17z" class="fil1 str10"/><path d="M5179 948c-26,44 -89,68 -134,52 -39,-14 -60,-47 -72,-86 -9,-29 -13,-59 -14,-89 7,5 5,13 6,20 3,31 11,61 25,89 39,77 126,73 176,24 4,-4 6,-10 13,-9z" class="fil2"/><path d="M5179 948c-26,44 -89,68 -134,52 -39,-14 -60,-47 -72,-86 -9,-29 -13,-59 -14,-89 7,5 5,13 6,20 3,31 11,61 25,89 39,77 126,73 176,24 4,-4 6,-10 13,-9z" class="fil1 str10"/><path d="M4761 748c-32,44 -67,84 -118,104 -65,25 -111,-8 -130,-69 -3,-10 -8,-20 -6,-31 9,5 8,15 11,23 9,26 23,49 48,63 33,18 64,12 96,-4 38,-18 65,-49 92,-80 2,-3 4,-7 8,-5z" class="fil2"/><path d="M4761 748c-32,44 -67,84 -118,104 -65,25 -111,-8 -130,-69 -3,-10 -8,-20 -6,-31 9,5 8,15 11,23 9,26 23,49 48,63 33,18 64,12 96,-4 38,-18 65,-49 92,-80 2,-3 4,-7 8,-5z" class="fil1 str10"/><path d="M4869 630c1,-1 1,-1 2,-2 13,-6 26,-17 41,-5 8,6 9,16 14,23l0 1c-1,3 -2,6 -3,9 -9,18 -20,25 -34,23 -18,-3 -24,-13 -25,-39 4,-2 4,-5 5,-9z" class="fil0"/><path d="M4869 630c1,-1 1,-1 2,-2 13,-6 26,-17 41,-5 8,6 9,16 14,23l0 1c-1,3 -2,6 -3,9 -9,18 -20,25 -34,23 -18,-3 -24,-13 -25,-39 4,-2 4,-5 5,-9z" class="fil1 str10"/><path d="M4726 500c-9,-32 -26,-59 -53,-77 -52,-34 -115,-26 -158,24 -2,3 -4,8 -8,8 -4,-8 4,-10 7,-14 33,-42 77,-60 129,-45 45,13 71,43 84,86 1,5 7,12 -1,16z" class="fil2"/><path d="M4726 500c-9,-32 -26,-59 -53,-77 -52,-34 -115,-26 -158,24 -2,3 -4,8 -8,8 -4,-8 4,-10 7,-14 33,-42 77,-60 129,-45 45,13 71,43 84,86 1,5 7,12 -1,16z" class="fil1 str10"/><path d="M5333 707c-5,-26 -11,-51 -29,-71 -44,-50 -120,-57 -173,-11 -1,1 -3,1 -4,2 -4,-9 5,-12 9,-16 57,-43 126,-39 173,15 19,21 25,49 26,78 0,1 -2,2 -3,3z" class="fil2"/><path d="M5333 707c-5,-26 -11,-51 -29,-71 -44,-50 -120,-57 -173,-11 -1,1 -3,1 -4,2 -4,-9 5,-12 9,-16 57,-43 126,-39 173,15 19,21 25,49 26,78 0,1 -2,2 -3,3z" class="fil1 str10"/><path d="M5168 1151c-20,8 -39,20 -58,30 -35,17 -70,34 -106,49 -2,1 -4,3 -6,5 -11,-6 -3,-10 2,-12 16,-8 33,-15 50,-23 38,-18 76,-35 112,-56 2,-1 4,-2 7,-3 2,5 0,8 -1,11z" class="fil2"/><path d="M5168 1151c-20,8 -39,20 -58,30 -35,17 -70,34 -106,49 -2,1 -4,3 -6,5 -11,-6 -3,-10 2,-12 16,-8 33,-15 50,-23 38,-18 76,-35 112,-56 2,-1 4,-2 7,-3 2,5 0,8 -1,11z" class="fil1 str10"/><path d="M4486 1072c-7,-19 -19,-35 -29,-52 -21,-36 -41,-73 -60,-110 0,-1 -2,-1 -3,-1 1,-3 2,-7 4,-14 32,62 65,120 99,177 -5,4 -8,1 -11,0z" class="fil2"/><path d="M4486 1072c-7,-19 -19,-35 -29,-52 -21,-36 -41,-73 -60,-110 0,-1 -2,-1 -3,-1 1,-3 2,-7 4,-14 32,62 65,120 99,177 -5,4 -8,1 -11,0z" class="fil1 str10"/><path d="M5127 389c-14,22 -34,38 -53,54 -34,27 -68,54 -105,76 -3,-1 -5,-3 -6,-8 26,-12 49,-30 73,-48 25,-19 51,-36 72,-60 5,-6 11,-13 19,-14z" class="fil2"/><path d="M5127 389c-14,22 -34,38 -53,54 -34,27 -68,54 -105,76 -3,-1 -5,-3 -6,-8 26,-12 49,-30 73,-48 25,-19 51,-36 72,-60 5,-6 11,-13 19,-14z" class="fil1 str10"/><path d="M3915 709c-11,-3 -20,1 -30,6 -39,17 -69,43 -97,74 -2,-2 -3,-4 -1,-6 24,-28 49,-54 83,-70 12,-6 24,-14 38,-17 4,-1 8,-2 11,3 2,4 2,8 -3,10z" class="fil2"/><path d="M3915 709c-11,-3 -20,1 -30,6 -39,17 -69,43 -97,74 -2,-2 -3,-4 -1,-6 24,-28 49,-54 83,-70 12,-6 24,-14 38,-17 4,-1 8,-2 11,3 2,4 2,8 -3,10z" class="fil1 str10"/><path d="M5036 265c-8,-18 -25,-24 -45,-16 -12,5 -20,16 -30,23 7,-24 39,-43 60,-38 23,6 36,40 29,76 -1,-17 -2,-33 -14,-46z" class="fil2"/><path d="M5036 265c-8,-18 -25,-24 -45,-16 -12,5 -20,16 -30,23 7,-24 39,-43 60,-38 23,6 36,40 29,76 -1,-17 -2,-33 -14,-46z" class="fil1 str10"/><path d="M5732 1374c-7,-24 -13,-49 -24,-71 -8,-16 -15,-33 -32,-40 1,-4 1,-7 2,-12 18,6 24,23 31,37 12,23 20,48 25,74 1,4 5,9 -3,12z" class="fil2"/><path d="M5732 1374c-7,-24 -13,-49 -24,-71 -8,-16 -15,-33 -32,-40 1,-4 1,-7 2,-12 18,6 24,23 31,37 12,23 20,48 25,74 1,4 5,9 -3,12z" class="fil1 str10"/><path d="M3964 824c-28,-16 -37,-44 -45,-73 -3,-10 -6,-19 -4,-30 10,11 8,26 13,38 10,25 24,46 48,59 -3,5 -8,4 -12,5z" class="fil2"/><path d="M3964 824c-28,-16 -37,-44 -45,-73 -3,-10 -6,-19 -4,-30 10,11 8,26 13,38 10,25 24,46 48,59 -3,5 -8,4 -12,5z" class="fil1 str10"/><path d="M5515 1367c-5,-34 -48,-48 -70,-17 6,-22 26,-35 46,-29 19,6 30,26 24,46z" class="fil2"/><path d="M5515 1367c-5,-34 -48,-48 -70,-17 6,-22 26,-35 46,-29 19,6 30,26 24,46z" class="fil1 str10"/><path d="M4056 903c-6,-11 -11,-22 -25,-27 -17,-6 -30,1 -44,10 8,-20 24,-29 43,-23 21,6 29,19 25,40z" class="fil2"/><path d="M4056 903c-6,-11 -11,-22 -25,-27 -17,-6 -30,1 -44,10 8,-20 24,-29 43,-23 21,6 29,19 25,40z" class="fil1 str10"/><path d="M4926 646c-5,-7 -6,-17 -14,-23 -15,-12 -28,-1 -41,5 7,-16 23,-26 37,-22 14,4 21,19 18,40z" class="fil2"/><path d="M4926 646c-5,-7 -6,-17 -14,-23 -15,-12 -28,-1 -41,5 7,-16 23,-26 37,-22 14,4 21,19 18,40z" class="fil1 str10"/><path d="M4786 892c-18,-18 -25,-40 -24,-66 8,5 4,15 8,22 7,15 14,30 29,41 -5,4 -9,4 -13,3z" class="fil2"/><path d="M4786 892c-18,-18 -25,-40 -24,-66 8,5 4,15 8,22 7,15 14,30 29,41 -5,4 -9,4 -13,3z" class="fil1 str10"/><path d="M4904 868c-14,22 -32,39 -59,42 -2,-2 -4,-4 -9,-9 30,1 47,-20 68,-32z" class="fil2"/><path d="M4904 868c-14,22 -32,39 -59,42 -2,-2 -4,-4 -9,-9 30,1 47,-20 68,-32z" class="fil1 str10"/><path d="M4961 696c-8,15 -20,25 -36,29 -2,-1 -4,-3 -3,-2 12,-8 25,-18 39,-27z" class="fil2"/><path d="M4961 696c-8,15 -20,25 -36,29 -2,-1 -4,-3 -3,-2 12,-8 25,-18 39,-27z" class="fil1 str10"/><path d="M4506 742c-2,-2 -2,-4 -1,-7 4,2 6,4 1,7z" class="fil2"/><path d="M4506 742c-2,-2 -2,-4 -1,-7 4,2 6,4 1,7z" class="fil1 str10"/><path d="M5672 1275c0,3 -2,4 -4,5 -3,-5 1,-5 4,-5z" class="fil2"/><path d="M5672 1275c0,3 -2,4 -4,5 -3,-5 1,-5 4,-5z" class="fil1 str10"/><path d="M5734 1391c-3,-2 -2,-4 -1,-7 4,2 6,4 1,7z" class="fil2"/><path d="M5734 1391c-3,-2 -2,-4 -1,-7 4,2 6,4 1,7z" class="fil1 str10"/><path d="M4923 655c1,-3 2,-6 3,-9 2,4 1,7 -3,9z" class="fil2"/><path d="M4923 655c1,-3 2,-6 3,-9 2,4 1,7 -3,9z" class="fil1 str10"/><path d="M4869 630c0,4 -1,7 -5,9 1,-4 1,-7 5,-9z" class="fil2"/><path d="M4869 630c0,4 -1,7 -5,9 1,-4 1,-7 5,-9z" class="fil1 str10"/><path d="M4961 272c-1,3 -1,7 -5,9 1,-4 1,-7 5,-9z" class="fil2"/><path d="M4961 272c-1,3 -1,7 -5,9 1,-4 1,-7 5,-9z" class="fil1 str10"/><path d="M4055 913c-2,-2 -2,-5 0,-7 0,2 0,5 0,7z" class="fil2"/><path d="M4055 913c-2,-2 -2,-5 0,-7 0,2 0,5 0,7z" class="fil1 str10"/><path d="M5115 646c0,2 -1,3 -3,2 1,-1 2,-1 3,-2z" class="fil2"/><path d="M5115 646c0,2 -1,3 -3,2 1,-1 2,-1 3,-2z" class="fil1 str10"/><path d="M3627 4157c0,0 8,8 24,21 15,13 38,32 66,52 14,10 30,21 46,32 17,11 35,21 54,32 19,10 39,21 60,30 21,9 42,17 64,25 22,7 44,13 67,18 6,1 11,2 17,3 6,1 11,1 17,2 11,2 22,2 33,3 22,1 42,1 62,-1 20,-2 38,-4 55,-8 17,-3 32,-9 46,-12 13,-5 25,-9 34,-13 19,-8 29,-13 29,-13 0,0 -10,6 -28,16 -9,5 -21,9 -34,15 -14,5 -28,11 -46,15 -17,5 -36,8 -56,11 -20,2 -42,4 -64,3 -11,-1 -22,-1 -34,-3 -6,-1 -11,-1 -17,-2 -6,-1 -11,-2 -17,-3 -23,-4 -46,-10 -68,-17 -22,-8 -44,-16 -65,-26 -21,-10 -41,-20 -61,-31 -38,-22 -71,-46 -99,-68 -28,-22 -49,-42 -63,-56 -15,-14 -22,-23 -22,-23z" class="fil7"/><path d="M4898 4649c0,22 -19,40 -43,40 -23,0 -43,-18 -43,-40 0,-22 19,-40 43,-40 23,0 43,18 43,40z" class="fil9"/><path d="M2508 4955c0,22 -19,40 -43,40 -24,0 -43,-18 -43,-40 0,-22 19,-40 43,-40 23,0 43,18 43,40z" class="fil9"/><path d="M2465 5012c0,22 -19,40 -43,40 -24,0 -43,-18 -43,-40 0,-22 19,-40 43,-40 24,0 43,18 43,40z" class="fil9"/><path d="M2483 5063c0,22 -19,40 -43,40 -24,0 -43,-18 -43,-40 0,-22 19,-40 43,-40 23,0 43,18 43,40z" class="fil9"/><path d="M2536 5103c0,22 -19,40 -43,40 -24,0 -43,-18 -43,-40 0,-22 19,-40 43,-40 23,0 43,18 43,40z" class="fil9"/><path d="M2600 5135c0,22 -19,40 -43,40 -24,0 -43,-18 -43,-40 0,-22 19,-40 43,-40 23,0 43,18 43,40z" class="fil9"/><path d="M2678 5172c0,22 -19,40 -43,40 -24,0 -43,-18 -43,-40 0,-22 19,-40 43,-40 23,0 43,18 43,40z" class="fil9"/><path d="M2752 5191c0,22 -19,40 -43,40 -23,0 -43,-18 -43,-40 0,-22 19,-40 43,-40 23,0 43,18 43,40z" class="fil9"/><path d="M2833 5214c0,22 -19,40 -43,40 -24,0 -43,-18 -43,-40 0,-22 19,-40 43,-40 23,0 43,18 43,40z" class="fil9"/><path d="M2914 5235c0,22 -19,40 -43,40 -24,0 -43,-18 -43,-40 0,-22 19,-40 43,-40 23,0 43,18 43,40z" class="fil9"/><path d="M2990 5248c0,22 -19,40 -43,40 -23,0 -43,-18 -43,-40 0,-22 19,-40 43,-40 24,0 43,18 43,40z" class="fil9"/><path d="M3076 5260c0,22 -19,40 -43,40 -24,0 -43,-18 -43,-40 0,-22 19,-40 43,-40 23,0 43,18 43,40z" class="fil9"/><path d="M3158 5275c0,22 -19,40 -43,40 -24,0 -43,-18 -43,-40 0,-22 19,-40 43,-40 24,0 43,18 43,40z" class="fil9"/><path d="M3242 5267c0,22 -19,40 -43,40 -23,0 -43,-18 -43,-40 0,-22 19,-40 43,-40 24,0 43,18 43,40z" class="fil9"/><path d="M3330 5275c0,22 -19,40 -43,40 -23,0 -43,-18 -43,-40 0,-22 19,-40 43,-40 24,0 43,18 43,40z" class="fil9"/><path d="M3416 5265c0,22 -19,40 -43,40 -23,0 -43,-18 -43,-40 0,-22 19,-40 43,-40 24,0 43,18 43,40z" class="fil9"/><path d="M3507 5257c0,22 -19,40 -43,40 -23,0 -43,-18 -43,-40 0,-22 19,-40 43,-40 24,0 43,18 43,40z" class="fil9"/><path d="M3603 5249c0,22 -19,40 -43,40 -24,0 -43,-18 -43,-40 0,-22 19,-40 43,-40 23,0 43,18 43,40z" class="fil9"/><path d="M3699 5227c0,22 -19,40 -43,40 -23,0 -43,-18 -43,-40 0,-22 19,-40 43,-40 24,0 43,18 43,40z" class="fil9"/><path d="M3793 5214c0,22 -19,40 -43,40 -23,0 -43,-18 -43,-40 0,-22 19,-40 43,-40 23,0 43,18 43,40z" class="fil9"/><path d="M3877 5191c0,22 -19,40 -43,40 -24,0 -43,-18 -43,-40 0,-22 19,-40 43,-40 23,0 43,18 43,40z" class="fil9"/><path d="M3964 5168c0,22 -19,40 -43,40 -24,0 -43,-18 -43,-40 0,-22 19,-40 43,-40 23,0 43,18 43,40z" class="fil9"/><path d="M4039 5131c0,22 -19,40 -43,40 -24,0 -43,-18 -43,-40 0,-22 19,-40 43,-40 24,0 43,18 43,40z" class="fil9"/><path d="M4122 5094c0,22 -19,40 -43,40 -24,0 -43,-18 -43,-40 0,-22 19,-40 43,-40 23,0 43,18 43,40z" class="fil9"/><path d="M4202 5062c0,22 -19,40 -43,40 -24,0 -43,-18 -43,-40 0,-22 19,-40 43,-40 23,0 43,18 43,40z" class="fil9"/><path d="M4276 5037c0,22 -19,40 -43,40 -23,0 -43,-18 -43,-40 0,-22 19,-40 43,-40 24,0 43,18 43,40z" class="fil9"/><path d="M4357 5004c0,22 -19,40 -43,40 -24,0 -43,-18 -43,-40 0,-22 19,-40 43,-40 23,0 43,18 43,40z" class="fil9"/><path d="M4427 4961c0,22 -19,40 -43,40 -23,0 -43,-18 -43,-40 0,-22 19,-40 43,-40 24,0 43,18 43,40z" class="fil9"/><path d="M4499 4921c0,22 -19,40 -43,40 -24,0 -43,-18 -43,-40 0,-22 19,-40 43,-40 24,0 43,18 43,40z" class="fil9"/><path d="M4567 4881c0,22 -19,40 -43,40 -24,0 -43,-18 -43,-40 0,-22 19,-40 43,-40 24,0 43,18 43,40z" class="fil9"/><path d="M4632 4834c0,22 -19,40 -43,40 -23,0 -43,-18 -43,-40 0,-22 19,-40 43,-40 23,0 43,18 43,40z" class="fil9"/><path d="M4704 4794c0,22 -19,40 -42,40 -24,0 -43,-18 -43,-40 0,-22 19,-40 43,-40 23,0 42,18 42,40z" class="fil9"/><path d="M4767 4751c0,22 -19,40 -43,40 -24,0 -43,-18 -43,-40 0,-22 19,-40 43,-40 24,0 43,18 43,40z" class="fil9"/><path d="M4835 4702c0,22 -19,40 -43,40 -23,0 -42,-18 -42,-40 0,-22 19,-40 42,-40 24,0 43,18 43,40z" class="fil9"/><path d="M4399 5257c0,46 -38,82 -84,82 -47,0 -84,-37 -84,-82 0,-45 38,-82 84,-82 47,0 84,37 84,82z" class="fil9"/><path d="M4399 5257c0,46 -38,82 -84,82 -47,0 -84,-37 -84,-82 0,-45 38,-82 84,-82 47,0 84,37 84,82z" class="fil4 str11"/><path d="M4519 5587c0,46 -38,82 -84,82 -47,0 -84,-37 -84,-82 0,-45 38,-82 84,-82 47,0 84,37 84,82z" class="fil9"/><path d="M4519 5587c0,46 -38,82 -84,82 -47,0 -84,-37 -84,-82 0,-45 38,-82 84,-82 47,0 84,37 84,82z" class="fil4 str11"/><path d="M4559 5890c0,44 -36,79 -81,79 -45,0 -81,-35 -81,-79 0,-44 36,-79 81,-79 45,0 81,35 81,79z" class="fil9"/><path d="M4559 5890c0,44 -36,79 -81,79 -45,0 -81,-35 -81,-79 0,-44 36,-79 81,-79 45,0 81,35 81,79z" class="fil4 str12"/><path d="M3262 5836c0,46 -38,82 -84,82 -47,0 -84,-37 -84,-82 0,-45 38,-82 84,-82 47,0 84,37 84,82z" class="fil9"/><path d="M3262 5836c0,46 -38,82 -84,82 -47,0 -84,-37 -84,-82 0,-45 38,-82 84,-82 47,0 84,37 84,82z" class="fil4 str11"/><path d="M3212 5499c0,46 -38,82 -84,82 -47,0 -84,-37 -84,-82 0,-46 38,-82 84,-82 47,0 84,37 84,82z" class="fil9"/><path d="M3212 5499c0,46 -38,82 -84,82 -47,0 -84,-37 -84,-82 0,-46 38,-82 84,-82 47,0 84,37 84,82z" class="fil4 str11"/><path d="M3483 4119c0,0 2,-8 8,-17 6,-10 17,-21 31,-28 3,-2 7,-3 11,-4 4,-2 7,-2 11,-3 4,-1 7,-1 10,-1 3,0 6,0 9,0 6,0 10,2 14,3 3,1 5,2 5,2 0,0 -2,0 -5,1 -2,0 -4,1 -6,1 -2,0 -5,1 -7,1 -3,1 -5,1 -8,2 -3,1 -6,1 -9,3 -6,2 -12,4 -18,8 -6,3 -12,7 -17,10 -5,4 -10,7 -14,11 -8,7 -14,12 -14,12z" class="fil7"/><path d="M2013 5592c0,0 202,-213 381,143 0,0 120,98 182,-268 0,0 -309,-403 -754,172 0,0 -431,705 566,846 998,141 946,1031 321,995 0,0 -467,-115 -360,-515 0,0 41,-158 134,-74 0,0 -124,399 199,414 0,0 139,-16 160,-162 0,0 11,-64 -29,-85 -39,-21 -91,71 -100,97 0,0 -72,30 -30,-72 42,-101 142,-176 59,-365 -1,-1 -1,-3 -2,-4 0,0 -230,-263 -517,136 0,0 -312,580 311,919 0,0 485,134 768,-465 0,0 374,-697 -392,-1081 0,0 -391,-119 -680,-125 0,0 -498,-126 -219,-506z" class="fil9"/><path d="M2013 5592c0,0 202,-213 381,143 0,0 120,98 182,-268 0,0 -309,-403 -754,172 0,0 -431,705 566,846 998,141 946,1031 321,995 0,0 -467,-115 -360,-515 0,0 41,-158 134,-74 0,0 -124,399 199,414 0,0 139,-16 160,-162 0,0 11,-64 -29,-85 -39,-21 -91,71 -100,97 0,0 -72,30 -30,-72 42,-101 142,-176 59,-365 -1,-1 -1,-3 -2,-4 0,0 -230,-263 -517,136 0,0 -312,580 311,919 0,0 485,134 768,-465 0,0 374,-697 -392,-1081 0,0 -391,-119 -680,-125 0,0 -498,-126 -219,-506" class="fil4 str13"/><path d="M3374 6073c34,110 81,207 140,291 59,84 142,112 252,85 63,-16 108,-52 135,-110 27,-58 31,-125 11,-201 -29,-110 -76,-206 -143,-287 -67,-82 -151,-110 -252,-85 -68,17 -115,55 -140,112 -25,58 -26,122 -4,195zm194 -422c128,-32 240,-15 334,49 94,64 155,156 184,274 31,125 6,247 -70,366 -76,119 -174,193 -296,224 -115,29 -217,13 -309,-47 -92,-61 -158,-151 -197,-271 -39,-120 -25,-241 46,-363 71,-121 174,-200 308,-233z" class="fil9"/><path d="M3374 6073c34,110 81,207 140,291 59,84 142,112 252,85 63,-16 108,-52 135,-110 27,-58 31,-125 11,-201 -29,-110 -76,-206 -143,-287 -67,-82 -151,-110 -252,-85 -68,17 -115,55 -140,112 -25,58 -26,122 -4,195zm194 -422c128,-32 240,-15 334,49 94,64 155,156 184,274 31,125 6,247 -70,366 -76,119 -174,193 -296,224 -115,29 -217,13 -309,-47 -92,-61 -158,-151 -197,-271 -39,-120 -25,-241 46,-363 71,-121 174,-200 308,-233z" class="fil4 str13"/><path d="M4721 5383c-19,68 -48,117 -87,147 -39,30 -97,52 -174,66 64,286 124,573 181,860 41,208 30,366 -29,474 -59,108 -138,172 -239,193 -74,15 -148,31 -221,48 7,-95 72,-158 195,-187 123,-28 175,-89 156,-184 -80,-389 -167,-777 -260,-1164 -55,11 -110,22 -164,33 31,-49 63,-98 95,-146 13,-3 27,-5 40,-8 -8,-33 -16,-67 -25,-100 -26,-105 -18,-201 26,-290 44,-88 118,-142 222,-160 159,-27 318,-52 478,-73 -30,65 -76,110 -138,135 -62,25 -142,45 -240,61 -80,13 -131,24 -152,31 -21,7 -29,24 -23,50 24,102 47,203 71,305 181,-32 278,-61 288,-91z" class="fil9"/><path d="M4721 5383c-19,68 -48,117 -87,147 -39,30 -97,52 -174,66 64,286 124,573 181,860 41,208 30,366 -29,474 -59,108 -138,172 -239,193 -74,15 -148,31 -221,48 7,-95 72,-158 195,-187 123,-28 175,-89 156,-184 -80,-389 -167,-777 -260,-1164 -55,11 -110,22 -164,33 31,-49 63,-98 95,-146 13,-3 27,-5 40,-8 -8,-33 -16,-67 -25,-100 -26,-105 -18,-201 26,-290 44,-88 118,-142 222,-160 159,-27 318,-52 478,-73 -30,65 -76,110 -138,135 -62,25 -142,45 -240,61 -80,13 -131,24 -152,31 -21,7 -29,24 -23,50 24,102 47,203 71,305 181,-32 278,-61 288,-91z" class="fil4 str13"/><path d="M5027 5375c50,-7 88,6 114,36 26,31 43,69 50,115 33,195 64,390 94,585 12,38 31,56 57,53 18,-2 38,-14 60,-34 22,-21 36,-34 43,-41 -29,61 -60,106 -93,136 -34,30 -74,48 -120,54 -39,5 -73,-6 -102,-33 -29,-27 -47,-62 -54,-103 -34,-204 -70,-408 -108,-611 -5,-26 -18,-38 -41,-35 -30,4 -73,35 -127,91 3,-27 28,-68 77,-122 49,-54 99,-84 151,-91z" class="fil9"/><path d="M5027 5375c50,-7 88,6 114,36 26,31 43,69 50,115 33,195 64,390 94,585 12,38 31,56 57,53 18,-2 38,-14 60,-34 22,-21 36,-34 43,-41 -29,61 -60,106 -93,136 -34,30 -74,48 -120,54 -39,5 -73,-6 -102,-33 -29,-27 -47,-62 -54,-103 -34,-204 -70,-408 -108,-611 -5,-26 -18,-38 -41,-35 -30,4 -73,35 -127,91 3,-27 28,-68 77,-122 49,-54 99,-84 151,-91z" class="fil4 str13"/><path d="M5720 5756c8,68 27,118 56,148 29,30 65,44 109,40 38,-3 77,-16 118,-39 41,-23 82,-53 123,-90 -15,-156 -30,-312 -47,-469 -123,7 -217,52 -281,136 -65,83 -90,175 -77,274zm584 -479c24,260 45,519 63,779 3,18 14,27 32,26 14,-1 30,-6 49,-15 19,-10 49,-26 92,-50 -18,38 -50,76 -95,114 -45,38 -89,58 -132,59 -25,1 -58,-13 -99,-42 -42,-29 -65,-69 -70,-121 -3,-38 -7,-76 -10,-114 -88,91 -161,164 -220,221 -59,56 -112,87 -159,90 -52,4 -101,-19 -149,-71 -48,-52 -78,-124 -91,-218 -26,-189 11,-343 118,-458 106,-115 260,-180 457,-191 71,-4 143,-7 215,-10z" class="fil9"/><path d="M5720 5756c8,68 27,118 56,148 29,30 65,44 109,40 38,-3 77,-16 118,-39 41,-23 82,-53 123,-90 -15,-156 -30,-312 -47,-469 -123,7 -217,52 -281,136 -65,83 -90,175 -77,274zm584 -479c24,260 45,519 63,779 3,18 14,27 32,26 14,-1 30,-6 49,-15 19,-10 49,-26 92,-50 -18,38 -50,76 -95,114 -45,38 -89,58 -132,59 -25,1 -58,-13 -99,-42 -42,-29 -65,-69 -70,-121 -3,-38 -7,-76 -10,-114 -88,91 -161,164 -220,221 -59,56 -112,87 -159,90 -52,4 -101,-19 -149,-71 -48,-52 -78,-124 -91,-218 -26,-189 11,-343 118,-458 106,-115 260,-180 457,-191 71,-4 143,-7 215,-10z" class="fil4 str13"/><path d="M2013 5592c0,0 202,-213 381,143 0,0 120,98 182,-268 0,0 -309,-403 -754,172 0,0 -431,705 566,846 998,141 946,1031 321,995 0,0 -467,-115 -360,-515 0,0 41,-158 134,-74 0,0 -124,399 199,414 0,0 139,-16 160,-162 0,0 11,-64 -29,-85 -39,-21 -91,71 -100,97 0,0 -72,30 -30,-72 42,-101 142,-176 59,-365 -1,-1 -1,-3 -2,-4 0,0 -230,-263 -517,136 0,0 -312,580 311,919 0,0 485,134 768,-465 0,0 374,-697 -392,-1081 0,0 -391,-119 -680,-125 0,0 -498,-126 -219,-506z" class="fil3"/><path d="M3381 6086c35,110 82,206 141,290 59,84 142,111 252,84 63,-16 107,-52 134,-111 27,-58 31,-125 11,-201 -29,-110 -77,-205 -144,-287 -67,-81 -152,-109 -252,-83 -68,18 -114,56 -139,113 -25,58 -25,123 -2,195zm192 -423c128,-32 241,-16 334,48 94,64 155,155 185,274 31,125 7,247 -69,366 -76,119 -173,194 -294,225 -114,30 -215,15 -308,-46 -92,-60 -159,-149 -199,-269 -40,-120 -27,-241 43,-363 70,-122 173,-201 307,-235z" class="fil3"/><path d="M4728 5393c-20,68 -49,116 -88,147 -39,30 -97,52 -174,65 64,286 124,573 180,861 41,208 29,366 -30,474 -59,108 -137,171 -236,192 -73,15 -146,32 -219,48 7,-95 71,-158 192,-187 121,-28 174,-88 154,-183 -79,-389 -166,-777 -259,-1165 -55,11 -110,22 -165,33 31,-49 63,-98 95,-146 13,-3 27,-5 40,-8 -8,-33 -16,-67 -25,-100 -26,-105 -18,-201 26,-290 44,-88 119,-142 224,-160 160,-27 320,-51 481,-72 -30,65 -77,110 -139,134 -63,25 -143,44 -242,61 -81,13 -132,24 -153,31 -21,7 -29,24 -23,50 24,102 48,203 71,305 182,-32 279,-60 290,-90z" class="fil3"/><path d="M5035 5387c50,-6 88,6 114,37 26,31 42,69 50,115 32,195 61,391 90,586 12,38 30,56 56,53 18,-2 38,-13 60,-34 22,-21 37,-34 44,-40 -29,61 -61,106 -94,136 -34,30 -74,48 -120,53 -39,5 -73,-7 -102,-34 -29,-27 -47,-62 -54,-103 -33,-204 -68,-408 -105,-612 -5,-26 -18,-38 -41,-35 -30,4 -73,34 -128,91 3,-27 28,-68 78,-122 49,-54 100,-84 152,-90z" class="fil3"/><path d="M5727 5773c8,69 26,118 54,148 29,30 64,44 108,42 38,-2 77,-15 118,-37 41,-22 83,-52 124,-89 -12,-156 -26,-313 -41,-469 -123,5 -218,50 -284,132 -66,83 -92,174 -80,273zm592 -471c20,260 37,520 51,780 3,18 13,27 32,27 14,0 30,-5 50,-14 19,-9 50,-26 93,-48 -19,38 -51,75 -97,113 -46,37 -90,56 -133,57 -25,1 -57,-14 -99,-44 -41,-30 -64,-70 -68,-122 -3,-38 -6,-76 -8,-114 -89,89 -163,162 -223,218 -60,56 -113,85 -160,89 -52,4 -101,-20 -148,-73 -47,-52 -77,-125 -89,-219 -24,-190 14,-343 122,-457 108,-114 262,-178 461,-186 72,-3 144,-5 216,-7z" class="fil3"/></g></svg>