<svg xmlns="http://www.w3.org/2000/svg" id="master-artboard" width="80" height="80" x="0" y="0" version="1.1" viewBox="0 0 80 80" style="enable-background:new 0 0 1400 980"><rect id="ee-background" width="80" height="80" x="0" y="0" style="fill:#fff;fill-opacity:0;pointer-events:none"/><g transform="matrix(0.03199999779462814, 0, 0, 0.027266530320048332, -95.88277435302734, -110.56747436523438)"><g id="Layer_x0020_1"><metadata id="CorelCorpID_0Corel-Layer"/><path d="M5489 4768l-380 36 2 55c0,0 -25,-61 -107,-65 -40,-2 -326,6 -366,126 0,0 -19,-90 -179,-80 -155,10 -311,52 -366,175 -14,29 -22,60 -27,91 -2,11 -3,22 -4,33 -1,18 -1,36 0,55 2,41 -1,81 1,122 2,35 1,54 2,68 4,72 3,138 7,210 3,62 6,123 9,185 1,16 1,32 2,48 1,20 3,40 5,59 9,78 23,183 83,240 18,17 49,32 73,39 95,28 194,14 288,-11 33,-8 67,-30 88,-56 31,-37 33,-75 37,-123 3,10 3,11 5,19 4,12 9,21 15,33 30,58 102,93 162,94 86,1 229,-6 276,-92 9,-16 26,-48 27,-66l-5 113c1,0 -1,14 0,14 87,-10 167,-18 253,-26 2,-6 52,-332 52,-335 -13,-3 -30,-3 -43,-6 10,-99 21,-200 31,-299 10,-100 21,-200 31,-300 6,-59 13,-121 19,-179 5,-50 11,-101 16,-150 1,-10 3,-20 3,-29 -3,0 -7,0 -11,1z" class="fil0" style="fill:#000;fill-rule:nonzero"/><path d="M4127 5613c-19,0 19,-55 0,-55 0,-7 2,-153 2,-160 4,-51 -12,-105 -8,-156 9,-117 -29,-52 -20,-169 4,-55 7,-110 11,-164 0,-4 1,-7 1,-11 -135,-5 -271,-9 -407,-13 -2,45 1,93 -1,138 -43,0 -86,1 -128,-1 1,-47 2,-94 3,-142 -186,-6 -372,-12 -558,-18 -1,0 -1,1 -1,2 -4,139 -9,277 -13,416 31,-3 63,-7 93,-11 4,-1 9,-1 13,-1 -3,41 -5,83 -8,124 -1,14 -2,27 -3,41 -2,41 -5,83 -8,124 -1,12 -1,25 -3,36 0,1 1,4 -1,5 -27,0 -56,-1 -83,0 -3,98 -6,196 -9,294 8,0 57,-6 65,-6 0,102 -34,347 -34,347l215 -8 0 -28 187 -9 2 21 152 -9 0 -36 349 -25c69,38 156,7 182,-54l36 -4 -21 -40c0,-148 -5,-280 -6,-427z" class="fil0" style="fill:#000;fill-rule:nonzero"/><path d="M4127 5246c1,43 2,86 2,129 0,0 0,1 0,1 0,4 0,8 0,13 0,20 0,40 -1,60 -1,37 1,73 3,109 3,61 5,122 9,183 3,40 4,80 11,120 9,51 13,104 38,151 9,17 24,34 37,47 13,14 31,26 49,35 31,15 67,17 101,17 39,0 79,-7 117,-19 47,-14 85,-41 103,-87 1,-2 2,-5 2,-7l1 -3c1,-7 3,-15 5,-22l0 -1c6,-40 6,-98 5,-145l0 -4c-1,-23 -2,-44 -2,-57l0 -7 -1 -11 61 -14c0,0 15,174 33,216 17,42 55,91 101,97 46,6 139,14 198,-8 58,-22 95,-53 119,-139 0,0 9,-35 13,-77l0 2 0 -8c0,-16 1,-32 1,-46 1,-21 0,-42 0,-63l0 -54c0,-62 1,-124 0,-186 0,-19 -1,-38 -2,-56 -2,-66 -4,-131 -4,-196 0,-57 0,-116 -14,-171 -12,-49 -25,-97 -63,-132 -33,-30 -74,-27 -116,-24 -41,3 -83,7 -122,17 -30,8 -58,21 -82,40 -11,9 -21,19 -30,30 -22,28 -39,60 -48,94 -9,36 -7,74 -7,111 0,60 1,121 1,181 0,33 7,162 5,162 -24,3 -48,5 -72,7 -73,6 -146,13 -219,19 0,10 1,21 2,31 6,74 12,150 18,223l97 -24c0,0 19,125 -60,157 0,0 -2,1 -7,3 -25,9 -112,34 -146,-51 0,0 -20,-49 -28,-185 0,0 -14,-166 17,-339 0,0 12,-85 37,-128 0,0 0,-1 2,-3 0,-1 1,-1 1,-2l1 0c2,-2 6,-4 11,-6 14,-4 84,-18 116,1 0,0 2,3 5,7l1 1c0,0 0,1 0,1 1,2 2,5 3,8 1,8 23,151 26,213 52,-7 103,-13 154,-21 1,-5 0,-99 -1,-142 0,-30 -1,-60 -2,-90 -3,-63 -6,-129 -21,-189 -3,-13 -8,-26 -16,-38 -14,-21 -37,-41 -61,-54l-4 -2c-15,-7 -30,-11 -45,-12 -9,0 -18,-2 -27,-1 -53,2 -107,13 -156,33 -14,6 -28,13 -41,20 -30,18 -50,43 -68,73 -2,3 -3,6 -5,10 -3,7 -6,14 -9,21 -1,4 -3,7 -4,11 -3,7 -6,14 -8,22 -1,4 -2,8 -3,12 -1,4 -2,8 -3,12 -9,40 -9,81 -8,122zm746 -24c22,-19 50,-16 74,-2 24,15 37,40 45,70 15,59 16,119 14,166 -3,78 -3,157 -21,234 -5,21 -11,41 -19,61 -15,37 -46,79 -91,73 -41,-5 -57,-45 -64,-81 -4,-19 -9,-40 -11,-59 -7,-70 -13,-141 -10,-212 1,-19 3,-39 5,-58 9,-66 23,-146 76,-192z" class="fil1" style="fill:#f7ec00;fill-rule:nonzero"/><path d="M5184 4946c-1,44 5,265 7,331 1,46 2,291 4,376 12,1 129,-7 149,-7 2,-8 65,-721 71,-798 0,0 0,-1 -1,-1 -23,6 -232,35 -232,35 0,0 2,58 2,65z" class="fil1" style="fill:#f7ec00;fill-rule:nonzero"/><path d="M5364 5778c-54,-5 -109,-10 -163,-16 -1,0 -1,1 -1,2 -4,81 -8,162 -12,243 48,-3 96,-6 144,-10 11,-73 21,-147 31,-220z" class="fil1" style="fill:#f7ec00;fill-rule:nonzero"/><path d="M3295 5198c75,-7 151,-13 226,-20 1,-30 -2,-61 -2,-91 0,-10 -1,-20 -1,-30 0,-10 0,-20 -1,-31 0,-10 -1,-21 -1,-31 0,-20 -1,-41 -2,-61 -37,-1 -73,-2 -110,-3 -9,0 -18,0 -27,0 -46,0 -93,-2 -138,-3 -56,-1 -110,-3 -164,-3 -1,0 -1,1 -1,2 -2,96 -5,192 -8,290 29,-2 57,-5 84,-7 9,-1 19,-2 28,-2 -12,140 -26,279 -38,419 53,0 104,-2 157,-3 0,-53 -2,-106 -2,-159 0,-36 -2,-72 -2,-107 0,-54 -2,-107 -2,-160z" class="fil2" style="fill:#13b6ea"/><path d="M3414 5211c-32,3 -64,4 -95,8 1,134 3,269 5,402 66,0 132,-2 198,-2 1,-34 -1,-70 -2,-104 -29,0 -61,1 -89,1 -5,0 -9,1 -12,-1 0,-12 -1,-26 1,-38 33,-1 67,-1 100,-1 0,-33 -1,-67 -3,-99 -34,-1 -67,1 -100,0 -1,-10 -1,-23 0,-32 33,-1 67,0 99,-1 -1,-24 0,-46 -2,-71 -1,-11 -1,-25 -1,-35 0,-8 0,-19 -1,-27 0,-2 0,-5 -1,-6 -1,-1 -3,0 -4,0 -30,2 -63,4 -95,7z" class="fil2" style="fill:#13b6ea"/><path d="M3541 5085c0,180 0,357 -1,534 67,-3 134,-6 201,-10 0,-42 -1,-83 -1,-125 -35,0 -71,1 -104,1 -1,-11 -1,-26 0,-37 34,-1 69,-1 103,-1 0,-44 -1,-86 -1,-129 -34,-2 -71,1 -105,-1 1,-14 -2,-27 0,-40 34,-1 70,0 104,-1 0,-64 0,-129 -2,-193 -18,0 -38,0 -58,0 -46,0 -94,0 -138,1z" class="fil2" style="fill:#13b6ea"/><path d="M3765 4993c1,203 3,405 4,607 28,0 56,-1 83,-2 -1,-68 -1,-139 -1,-207 0,-8 -1,-15 -1,-22 0,-2 -1,-5 1,-7 2,2 2,5 3,7 1,3 2,5 3,7 1,4 3,8 4,11l5 15c2,6 4,12 6,19 0,1 1,2 2,3 2,5 4,11 5,15 2,5 4,11 5,15 0,1 1,3 1,4 2,5 4,10 6,15l3 8 10 29 10 29c7,20 13,40 20,59 25,-1 50,-1 75,-2 14,-214 28,-430 42,-645 -45,-2 -92,-3 -138,-5 -1,0 -1,1 -1,2 -3,88 -6,176 -9,263 0,6 -1,12 -1,19 0,6 1,13 -1,19 -3,-7 -4,-15 -6,-23 -1,-3 -1,-5 -2,-8 -1,-5 -2,-11 -3,-16 -1,-3 -1,-5 -2,-8 -5,-24 -10,-47 -16,-71 -4,-18 -8,-37 -12,-55 -1,-3 -1,-5 -2,-8 -1,-5 -2,-11 -3,-16 -1,-2 -1,-5 -2,-8 -2,-8 -3,-16 -5,-24 -1,-5 -2,-11 -4,-16 -26,-1 -52,-2 -78,-3z" class="fil2" style="fill:#13b6ea"/><path d="M3869 5621c-29,2 -57,3 -85,6 0,59 2,120 1,179 -2,-3 -2,-7 -3,-11 -2,-8 -4,-15 -6,-22 -1,-4 -2,-8 -3,-12 -12,-44 -23,-89 -34,-133 -34,2 -69,4 -103,7 0,2 0,4 0,7 1,8 1,15 2,22l9 102c3,35 6,69 9,103 6,78 13,157 20,235 12,0 24,-1 35,-2 11,-1 23,-1 34,-3 0,-47 -1,-97 -1,-144 0,-12 1,-25 0,-36 0,-3 -2,-7 1,-11 2,4 3,10 4,14 1,3 2,6 3,9l6 24c4,16 8,32 12,47 8,31 16,63 24,94 24,-1 47,-2 70,-4 1,-24 0,-49 1,-73 1,-25 0,-49 1,-74 1,-49 1,-98 3,-146 2,0 2,3 3,4 12,23 24,46 35,69 18,9 35,18 53,27 14,7 30,15 43,22 4,2 7,3 10,6 4,29 9,58 13,86 -2,2 -5,2 -8,3l-17 5c-3,1 -6,2 -10,2 -5,-29 -10,-58 -15,-87 -13,4 -25,7 -38,11 -12,4 -25,8 -37,12 6,30 11,60 21,85 2,3 3,7 5,10l3 4c1,2 2,2 3,4 3,3 5,6 8,8 4,4 10,7 16,9 6,2 13,5 20,5 15,1 28,-1 39,-5 7,-2 12,-4 18,-7 6,-3 12,-6 16,-9 0,0 1,-1 1,-1 1,0 2,-1 3,-1 0,0 0,-1 1,-1 0,0 1,0 2,-1 0,0 0,-1 1,-1 0,0 1,0 2,0 0,0 0,-1 1,-1 0,0 1,0 2,-1 1,-1 2,-2 2,-3 0,0 1,0 2,-1 1,-1 2,-2 4,-4 11,-11 21,-24 25,-40 1,-4 2,-9 3,-15 0,-4 1,-9 1,-13 0,-2 -1,-4 -2,-7 -6,-32 -12,-66 -18,-97 -1,-3 -1,-6 -2,-7 -1,-2 -5,-4 -6,-5l-3 -2c-5,-3 -9,-7 -14,-10 -1,-1 -3,-2 -4,-3 -1,-1 -2,-2 -4,-3 -1,0 -1,-1 -2,-1 -2,-1 -4,-3 -5,-4 0,0 -1,0 -2,-1 -1,-1 -2,-2 -4,-3 -1,-1 -3,-2 -4,-3 -5,-3 -10,-7 -14,-10l-3 -2c-5,-3 -9,-6 -14,-10 -1,-1 -3,-2 -4,-3 -1,-1 -2,-2 -4,-3 -1,0 -1,-1 -2,-1 -2,-1 -4,-3 -5,-4 0,0 -1,0 -2,0 -1,-1 -2,-2 -4,-3 -1,-1 -3,-2 -4,-3l-8 -6c-5,-4 -11,-7 -15,-11 0,-6 -1,-12 -2,-18 -2,-18 -4,-36 -7,-54 9,-3 21,-4 30,-6 3,-1 6,-2 10,-2 2,24 3,50 4,75 26,-6 51,-14 77,-20 -3,-30 -7,-58 -14,-81 -4,-12 -9,-23 -17,-31 -4,-4 -8,-8 -13,-11 -4,-2 -8,-4 -12,-6 -1,-1 -3,-2 -4,-2 -28,-10 -63,-3 -84,7 -4,2 -8,4 -12,6 -2,1 -4,3 -5,4l-4 3c-1,0 -1,1 -2,1 -1,1 -2,2 -3,3 -2,2 -4,4 -6,6 -2,2 -6,5 -7,8 0,1 -1,2 -1,2 -1,1 -2,2 -3,3 0,0 -1,1 -1,2 -1,2 -1,3 -3,4 0,0 -1,2 -2,1 0,-21 1,-37 1,-58z" class="fil2" style="fill:#13b6ea"/><path d="M3624 5765c-2,-19 -11,-113 -11,-113l-119 10c-1,20 -1,40 -2,61 -1,20 -2,41 -2,61 0,41 -3,81 -3,122 0,10 0,20 -1,30 0,10 0,21 -1,31 -1,20 -2,41 -2,61 0,41 -3,81 -2,122 18,-1 35,-2 53,-3 2,-42 5,-135 7,-137 13,0 27,-1 39,1 3,33 5,67 8,100 20,-1 61,-4 61,-4l-28 -342zm-66 22c5,-2 10,-3 15,-5 3,0 2,2 2,4 1,4 1,9 2,14 5,43 10,89 15,133 -7,2 -15,2 -22,4 -4,1 -7,1 -11,2 -4,1 -7,1 -11,1 -1,-6 1,-12 1,-19 3,-44 6,-89 10,-133z" class="fil2" style="fill:#13b6ea"/><path d="M3473 5823c0,-5 1,-9 1,-14 0,-1 1,-4 -2,-4 -68,5 -136,9 -203,14 1,24 3,47 4,71 23,-1 47,-3 70,-4 8,0 16,-1 23,-1l0 234c21,-1 43,-2 64,-3 3,-78 4,-157 7,-235 12,-1 24,-1 35,-2 0,-18 1,-38 2,-56z" class="fil2" style="fill:#13b6ea"/><path d="M3337 5953c0,-17 1,-34 1,-50 -25,1 -51,3 -76,4l0 49c25,-1 50,-2 75,-3z" class="fil2" style="fill:#13b6ea"/><path d="M3342 5973c-25,1 -51,3 -77,4l2 149 76 0c0,-25 0,-51 0,-77 0,-24 1,-49 0,-72 0,-1 1,-4 -1,-4z" class="fil2" style="fill:#13b6ea"/><path d="M3240 5802c58,-6 117,-12 175,-18 20,-2 39,-3 59,-6 0,-45 2,-90 2,-135 -14,0 -28,0 -41,1 -58,3 -116,4 -174,6 -25,1 -50,2 -74,3 -26,1 -50,2 -75,3 -17,1 -33,0 -49,2 -2,63 -3,123 -5,185 28,-2 56,-5 83,-8 4,0 8,-1 12,-1 1,6 -1,13 -2,19 -6,60 -13,118 -20,178 -4,40 -10,79 -13,119 37,-2 74,-3 110,-6 3,-85 6,-172 9,-256 1,-29 2,-57 4,-85z" class="fil2" style="fill:#13b6ea"/></g></g></svg>