<svg xmlns="http://www.w3.org/2000/svg" viewBox="0 0 240 136">
  <g id="icon-examples" fill="none" fill-rule="evenodd">
    <polygon stroke="currentColor" stroke-width="2" points="1 1 239 1 239 135 1 135"/>
    <polygon stroke="currentColor" points="0 16 80 16 80 56 0 56"/>
    <polygon stroke="currentColor" points="80 16 160 16 160 56 80 56"/>
    <polygon stroke="currentColor" points="160 16 240 16 240 56 160 56"/>
    <polygon stroke="currentColor" points="0 56 80 56 80 96 0 96"/>
    <polygon stroke="currentColor" points="80 56 160 56 160 96 80 96"/>
    <polygon stroke="currentColor" points="160 56 240 56 240 96 160 96"/>
    <polygon stroke="currentColor" points="0 96 80 96 80 136 0 136"/>
    <polygon stroke="currentColor" points="80 96 160 96 160 136 80 136"/>
    <polygon stroke="currentColor" points="160 96 240 96 240 136 160 136"/>
    <path stroke="currentColor" d="M0 16h240"/>
  </g>
</svg>
