<?xml version="1.0" encoding="iso-8859-1"?>
<!-- Generator: Adobe Illustrator 19.0.0, SVG Export Plug-In . SVG Version: 6.00 Build 0)  -->
<svg version="1.1" id="Capa_1" xmlns="http://www.w3.org/2000/svg" xmlns:xlink="http://www.w3.org/1999/xlink" x="0px" y="0px"
	 viewBox="0 0 512 512" style="enable-background:new 0 0 512 512;" xml:space="preserve">
<path style="fill:#495A79;" d="M256,0C115.3,0,0,115.3,0,256s115.3,256,256,256s256-115.3,256-256S396.7,0,256,0z"/>
<path style="fill:#42516D;" d="M512,256c0,140.7-115.3,256-256,256V0C396.7,0,512,115.3,512,256z"/>
<path style="fill:#25B987;" d="M433.495,271h-92.637L271,340.858v92.637c0,9.023,7.988,16.295,17.49,14.795
	c81.812-13.77,146.03-77.988,159.8-159.8C449.828,279.353,442.761,271,433.495,271z"/>
<path style="fill:#D94158;" d="M78.505,271c-9.265,0-16.333,8.353-14.795,17.49c13.77,81.812,77.988,146.03,159.8,159.8
	c9.553,1.509,17.49-5.836,17.49-14.795v-92.637L171.142,271H78.505z"/>
<path style="fill:#FFCD33;" d="M223.51,63.71c-81.812,13.77-146.03,77.988-159.8,159.8C62.172,232.647,69.24,241,78.505,241h92.637
	L241,171.142V78.505C241,69.439,232.933,62.224,223.51,63.71z"/>
<path style="fill:#4596E6;" d="M433.495,241c9.265,0,16.333-8.353,14.795-17.49c-13.77-81.812-77.988-146.03-159.8-159.8
	C279.212,62.19,271,69.339,271,78.505v92.637L340.858,241H433.495z"/>
<path style="fill:#E0E4EC;" d="M359.801,241c-7.202-50.7-51-90-103.801-90s-96.599,39.3-103.801,90
	c-0.899,4.799-1.199,9.899-1.199,15c0,5.099,0.3,10.199,1.199,15c7.202,50.7,51,90,103.801,90s96.599-39.3,103.801-90
	c0.899-4.801,1.199-9.901,1.199-15C361,250.899,360.7,245.799,359.801,241z"/>
<path style="fill:#D1D7E3;" d="M361,256c0,5.099-0.3,10.199-1.199,15c-7.202,50.7-51,90-103.801,90V151
	c52.8,0,96.599,39.3,103.801,90C360.7,245.799,361,250.899,361,256z"/>
<rect x="181" y="241" style="fill:#8C98B0;" width="150" height="30"/>
<rect x="256" y="241" style="fill:#7D8AA3;" width="75" height="30"/>
<g>
</g>
<g>
</g>
<g>
</g>
<g>
</g>
<g>
</g>
<g>
</g>
<g>
</g>
<g>
</g>
<g>
</g>
<g>
</g>
<g>
</g>
<g>
</g>
<g>
</g>
<g>
</g>
<g>
</g>
</svg>
