<svg xmlns="http://www.w3.org/2000/svg" xmlns:xlink="http://www.w3.org/1999/xlink" data-name="Layer 1" viewBox="0 0 554.6 593.49"><defs><linearGradient id="a" x1="512.91" x2="591.26" y1="114.35" y2="71.54" gradientTransform="rotate(70.05 575.217 80.295)" gradientUnits="userSpaceOnUse"><stop offset="0"/><stop offset="1" stop-opacity="0"/></linearGradient><linearGradient id="e" x1="373.72" x2="305.1" y1="137.44" y2="32.16" gradientTransform="rotate(6.49 318.75 52.794)" xlink:href="#a"/><linearGradient id="c" x1="277.54" x2="337.14" y1="67.91" y2="67.91" gradientUnits="userSpaceOnUse"><stop offset="0" stop-color="#183866"/><stop offset="1" stop-color="#1a7fc1"/></linearGradient><linearGradient id="f" x1="333.39" x2="245.85" y1="116.87" y2="67.19" gradientTransform="rotate(12.07 257.178 73.62)" xlink:href="#a"/><linearGradient id="b" x1="428.42" x2="433.52" y1="448.62" y2="497.32" gradientUnits="userSpaceOnUse"><stop offset="0" stop-color="#68e1fd"/><stop offset=".2" stop-color="#5db4cf"/><stop offset=".46" stop-color="#50819b"/><stop offset=".69" stop-color="#475c76"/><stop offset=".87" stop-color="#41455e"/><stop offset=".99" stop-color="#3f3d56"/></linearGradient><linearGradient id="g" x1="430.1" x2="426.86" y1="462.15" y2="424.22" xlink:href="#b"/><linearGradient id="h" x1="436.53" x2="407.49" y1="417.38" y2="577.07" xlink:href="#a"/><linearGradient id="i" x1="420.74" x2="450.27" y1="428.89" y2="506.4" xlink:href="#a"/><linearGradient id="j" x1="448.66" x2="456.05" y1="502.94" y2="441.64" xlink:href="#a"/><linearGradient id="k" x1="426.96" x2="501.16" y1="467.65" y2="467.65" xlink:href="#c"/><linearGradient id="d" x1="440.83" x2="466.3" y1="431.69" y2="431.69" gradientUnits="userSpaceOnUse"><stop offset="0" stop-color="#ecc4d7"/><stop offset=".42" stop-color="#efd4d1"/><stop offset="1" stop-color="#f2eac9"/></linearGradient><linearGradient id="l" x1="444.3" x2="465.76" y1="428.46" y2="428.46" xlink:href="#c"/><linearGradient id="m" x1="432.43" x2="479.03" y1="399.21" y2="399.21" xlink:href="#d"/><linearGradient id="n" x1="424.4" x2="528.3" y1="471.09" y2="463.7" xlink:href="#a"/><linearGradient id="o" x1="431.93" x2="441.49" y1="531.76" y2="456.98" xlink:href="#a"/><linearGradient id="p" x1="440.75" x2="448.05" y1="483.28" y2="467.56" xlink:href="#d"/><linearGradient id="q" x1="484.71" x2="492.9" y1="479.05" y2="461.43" xlink:href="#d"/><linearGradient id="r" x1="426.63" x2="290.92" y1="197.69" y2="242.12" gradientTransform="rotate(21.31 329.656 229.355)" gradientUnits="userSpaceOnUse"><stop offset="0"/><stop offset=".62" stop-opacity=".26"/><stop offset="1" stop-opacity="0"/></linearGradient><linearGradient id="s" x1="285.12" x2="379.07" y1="220.2" y2="220.2" xlink:href="#c"/><linearGradient id="t" x1="435.71" x2="350.9" y1="120.86" y2="70.77" gradientTransform="rotate(6.49 379.375 87.489)" xlink:href="#a"/><linearGradient id="u" x1="340.2" x2="410.56" y1="99.02" y2="99.02" xlink:href="#c"/><linearGradient id="v" x1="379.84" x2="293.41" y1="228" y2="120.57" gradientTransform="rotate(12.07 310.265 141.511)" xlink:href="#a"/><linearGradient id="w" x1="439.31" x2="341.57" y1="173.44" y2="195.25" gradientTransform="rotate(12.07 366.713 189.63)" xlink:href="#a"/><linearGradient id="x" x1="455.8" x2="523.65" y1="89.82" y2="28.43" gradientTransform="rotate(80.2 497.9 51.753)" xlink:href="#a"/><linearGradient id="y" x1="510.37" x2="409.4" y1="115.1" y2="35.94" gradientTransform="rotate(85.78 433.171 54.572)" xlink:href="#a"/><linearGradient id="z" x1="474.16" x2="452.35" y1="147.79" y2="271.38" gradientTransform="rotate(5.01 461.156 223.156)" xlink:href="#a"/><linearGradient id="A" x1="418.41" x2="500.15" y1="206.46" y2="206.46" xlink:href="#c"/><linearGradient id="B" x1="465.63" x2="590.02" y1="181.29" y2="179.67" gradientTransform="rotate(60 557.576 180.09)" xlink:href="#a"/><linearGradient id="C" x1="424.92" x2="517.01" y1="123.8" y2="83.41" xlink:href="#a"/><linearGradient id="D" x1="463.1" x2="550.83" y1="100.92" y2="100.92" xlink:href="#c"/><linearGradient id="E" x1="492.88" x2="420.18" y1="189.25" y2="120.59" xlink:href="#a"/><linearGradient id="F" x1="434.13" x2="480.55" y1="145.03" y2="145.03" xlink:href="#c"/><linearGradient id="G" x1="411.85" x2="503.93" y1="216.14" y2="175.75" gradientTransform="rotate(85.78 494.03 180.072)" xlink:href="#a"/><linearGradient id="H" x1="434.55" x2="440.04" y1="406.8" y2="406.8" xlink:href="#c"/><linearGradient id="I" x1="503.98" x2="280.69" y1="505.92" y2="539.79" xlink:href="#a"/></defs><path fill="#68e1fd" d="M209.15,202.64c-41.94,45.5-68.09,112.55-45.15,170,15.77,39.51,51.31,67.34,74.61,102.94,18.52,28.3,30.4,62.82,58.28,82C310.65,567,327.08,571.7,343.43,575c27.75,5.67,57.64,7.62,83.46-4C453,559.28,471.4,535.36,495,519.17c30.28-20.75,67.52-27.85,102.1-40.2s69.86-33.42,81.57-68.21c6.69-19.88,4.7-41.51,7.46-62.3,6-45.29,34.54-90.38,19.71-133.59-15.94-46.46-73-63.23-122.1-65s-102.15,3.84-143.5-22.66c-13.16-8.43-24.39-19.77-38.16-27.18-37.17-20-66,6.12-95.87,25.83C271.76,148.67,237.31,172.09,209.15,202.64Z" opacity=".18" transform="translate(-155.47 -2.52)"/><ellipse cx="575.22" cy="80.3" fill="#68e1fd" rx="52.41" ry="40.62" transform="rotate(-70.05 495.678 189.962)"/><ellipse cx="575.22" cy="80.3" fill="url(#a)" rx="52.41" ry="40.62" transform="rotate(-70.05 495.678 189.962)"/><ellipse cx="318.53" cy="52.76" fill="#68e1fd" rx="38.37" ry="49.51" transform="rotate(-6.49 218.819 1422.654)"/><ellipse cx="318.53" cy="52.76" fill="url(#e)" rx="38.37" ry="49.51" transform="rotate(-6.49 218.819 1422.654)"/><path fill="url(#c)" d="M307.54,66.66c0,2.64,0,5.82,2.32,7.15a7.3,7.3,0,0,0,3.47.7c6.41.29,13.07,1.71,18,5.83s7.51,11.51,4.6,17.23-10.25,8-16.66,7.24c-8.27-.94-15.56-5.65-22.51-10.23-4.09-2.7-8.25-5.46-11.29-9.3-9.56-12.09-11-36.78-1.33-49.32C298.83,16.93,307.47,56.75,307.54,66.66Z" opacity=".06" transform="translate(-155.47 -2.52)"/><ellipse cx="257.22" cy="73.64" fill="#68e1fd" rx="38.37" ry="49.51" transform="rotate(-12.07 167.542 807.693)"/><ellipse cx="257.22" cy="73.64" fill="url(#f)" rx="38.37" ry="49.51" transform="rotate(-12.07 167.542 807.693)"/><path fill="#68e1fd" d="M528.05,451V567.4s-2.25,19.92-24.8,21.46c-13.12.88-62.19,3.16-100.89,4.9C374.59,595,352.15,596,352.15,596s-23-4.08-23-23.49l0-112.66h.09l2.48-.12Z" transform="translate(-155.47 -2.52)"/><path fill="url(#b)" d="M523.3,471.3s-128.7,22.06-167.53,12.41c-19.36-4.8-27.26-15.1-26-24.86s11.84-19.11,29.36-21.75c0,0,114.85-20.54,149.64-5,14.66,6.54,19.54,14.54,20.29,21.59C530.08,463.38,523.3,471.3,523.3,471.3Z" transform="translate(-155.47 -2.52)"/><path fill="url(#g)" d="M529.08,453.69c-.75-7.05-5.63-15.05-20.29-21.59-34.79-15.54-149.64,5-149.64,5-17.52,2.64-28.08,11.92-29.36,21.75-1.45-11.19,9.47-22.76,29.36-25.75,0,0,114.85-20.54,149.64-5C526.31,435.92,529.87,445.8,529.08,453.69Z" transform="translate(-155.47 -2.52)"/><path fill="#3f3d56" d="M475.45,391.22a13.82,13.82,0,0,1-1.14,2.95c-5.74,11.12-27.52,25.61-27.52,25.61s-20.07,4.46-36.12,6.51-23.1-3.61-23.1-3.61a55.08,55.08,0,0,0-9.85-6l-.05,0a66.53,66.53,0,0,0-16.32-5.5c-16-3.14-11.24-14.91-5.79-14.31s22.21-14.92,29.64-8.43,19.75-8.18,37.27-24.93,40.63-1.27,40.63-1.27l6-.47a11.69,11.69,0,0,1,12.66,11.58c0,2.93-.56,5.67-1.66,7.32A33.11,33.11,0,0,0,475.45,391.22Z" transform="translate(-155.47 -2.52)"/><path fill="#091240" d="M461.83,373.31s3.3-6.26,8-4.31,6.5,12.79,6.5,12.79Z" transform="translate(-155.47 -2.52)"/><path fill="#25233a" d="M475.45,391.22l-1.14,2.95c-5.74,11.12-27.52,25.61-27.52,25.61s-20.07,4.46-36.12,6.51-23.1-3.61-23.1-3.61a55.08,55.08,0,0,0-9.85-6c1.53.35,24.47-4.39,35.81-8.68s14.58-33.21,26.35-41.76,19.73,6.1,19.73,6.1Z" transform="translate(-155.47 -2.52)"/><path fill="#68e1fd" d="M529.08,453.69a23.08,23.08,0,0,1-.94,4.51,28.36,28.36,0,0,1-4.84,9.1s-128.7,22.06-167.53,12.41c-8-2-14-4.9-18.26-8.32-4.65-3.75-7.16-8.12-7.72-12.54,1.28-9.83,11.84-19.11,29.36-21.75,0,0,114.85-20.54,149.64-5C523.45,438.64,528.33,446.64,529.08,453.69Z" transform="translate(-155.47 -2.52)"/><path fill="url(#h)" d="M529.08,453.69a23.08,23.08,0,0,1-.94,4.51,28.36,28.36,0,0,1-4.84,9.1s-128.7,22.06-167.53,12.41c-8-2-14-4.9-18.26-8.32-4.65-3.75-7.16-8.12-7.72-12.54,1.28-9.83,11.84-19.11,29.36-21.75,0,0,114.85-20.54,149.64-5C523.45,438.64,528.33,446.64,529.08,453.69Z" transform="translate(-155.47 -2.52)"/><path fill="url(#i)" d="M528.59,451l-.45,7.19a28.36,28.36,0,0,1-4.84,9.1s-128.7,22.06-167.53,12.41c-8-2-14-4.9-18.26-8.32.75-.15,34.53-6.47,45.9-7.45s-4.27-18.47,19.53-27.76S489.76,432,489.76,432Z" transform="translate(-155.47 -2.52)"/><path fill="#68e1fd" d="M415.16,434.32s-23.35,17.39-20.36,38.87,46.45,19,69.34,9c0,0,31.13,8.63,41.66,0s5.75-43-16.05-50.19S442.66,420,415.16,434.32Z" transform="translate(-155.47 -2.52)"/><path fill="url(#j)" d="M415.16,434.32s-23.35,17.39-20.36,38.87,46.45,19,69.34,9c0,0,31.13,8.63,41.66,0s5.75-43-16.05-50.19S442.66,420,415.16,434.32Z" transform="translate(-155.47 -2.52)"/><path fill="url(#k)" d="M499,453.11s-17.92,7.31-21.16,8.26-21.12,4.89-24.27,3.44-19.56-5.94-25-2,4.47,19.3,4.47,19.3l42.4.09L501.16,479Z" opacity=".19" transform="translate(-155.47 -2.52)"/><path fill="url(#d)" d="M466.27,441.27c-.27,4.75-2.15,10.05-7.85,10.84-8.52,1.19-12.77-7.49-12.77-7.49s-7.33-12.44-3.91-18.85c.71-1.35-1.1-13.46.5-14.19,6-2.78,19.61,9.26,21.6,9.53.5.07.84.49,1.06,1.16.88,2.69-.11,9.42.84,13A20.66,20.66,0,0,1,466.27,441.27Z" transform="translate(-155.47 -2.52)"/><path fill="url(#l)" d="M452.85,433.55c-4.49-3.17-8.55-13.77-8.55-13.77l20.6,2.49c.88,2.69-.11,9.42.84,13C466.13,436.71,461.06,439.35,452.85,433.55Z" opacity=".19" transform="translate(-155.47 -2.52)"/><path fill="url(#m)" d="M478.17,387.23s2.05,24.86-.17,29.63c-2.65,5.71-4.85,10.25-18.4,9-17.23-1.58-26.8-18.67-27.14-20s1.9-35.13,21.93-33.43S475.79,378.71,478.17,387.23Z" transform="translate(-155.47 -2.52)"/><path fill="#68e1fd" d="M497.53,436.19s22.79,18.28,15.38,46-51.85,4.48-51.85,4.48l18.39-13.36s17.88-2.13,19.41-6.52S497.53,436.19,497.53,436.19Z" transform="translate(-155.47 -2.52)"/><path fill="url(#n)" d="M497.53,436.19s22.79,18.28,15.38,46-51.85,4.48-51.85,4.48l18.39-13.36s17.88-2.13,19.41-6.52S497.53,436.19,497.53,436.19Z" transform="translate(-155.47 -2.52)"/><path fill="#68e1fd" d="M394.8,473.19s13.46,40.23,38.71,31.37,51.73-31.24,51.73-31.24l-3.83-9.38s-37.19,13.43-45.93,7.44S418.93,437,407.67,441.24,393.51,464,394.8,473.19Z" transform="translate(-155.47 -2.52)"/><path fill="url(#o)" d="M394.8,473.19s13.46,40.23,38.71,31.37,51.73-31.24,51.73-31.24l-3.83-9.38s-37.19,13.43-45.93,7.44S418.93,437,407.67,441.24,393.51,464,394.8,473.19Z" transform="translate(-155.47 -2.52)"/><path fill="url(#p)" d="M436.45,466s3-3.49,10.3-1.36a51.76,51.76,0,0,1,12.85,5.79s-11.2,2.1-11.66,2.16-3.74,3.51-5.7,2.93-7.58-.67-7.75-1S432.62,470.17,436.45,466Z" transform="translate(-155.47 -2.52)"/><path fill="url(#q)" d="M482.32,466s11.06-9.83,17-4.62l-.45,5.43s-1.68,4-14.13,5.7Z" transform="translate(-155.47 -2.52)"/><line x1="239.06" x2="203.41" y1="334.98" y2="276.26" fill="none" stroke="#fff" stroke-linecap="round" stroke-miterlimit="10" stroke-width="3.63"/><line x1="294.55" x2="304.13" y1="328.09" y2="273.68" fill="none" stroke="#fff" stroke-linecap="round" stroke-miterlimit="10" stroke-width="3.63"/><line x1="262.21" x2="233.29" y1="328.09" y2="235.87" fill="none" stroke="#fff" stroke-linecap="round" stroke-miterlimit="10" stroke-width="3.63"/><ellipse cx="329.73" cy="229.42" fill="#68e1fd" rx="46.11" ry="59.49" transform="rotate(-21.31 245.233 641.327)"/><ellipse cx="329.73" cy="229.42" fill="url(#r)" rx="46.11" ry="59.49" transform="rotate(-21.31 245.233 641.327)"/><path fill="url(#s)" d="M290.69,189.05s-4.9,10.91-5.56,14,31,11.21,31,11.21,24.76,57.22,57.59,46.49c0,0,3.81-4.84,5.3-14.43s-55.55-68.07-55.55-68.07Z" opacity=".06" transform="translate(-155.47 -2.52)"/><ellipse cx="379.1" cy="87.43" fill="#68e1fd" rx="46.11" ry="59.49" transform="rotate(-6.49 279.403 1457.32)"/><ellipse cx="379.1" cy="87.43" fill="url(#t)" rx="46.11" ry="59.49" transform="rotate(-6.49 279.403 1457.32)"/><path fill="url(#u)" d="M358.71,114.86a4.67,4.67,0,0,0,1.62,1.79,4.83,4.83,0,0,0,1.6.4l14.22,1.76c-.78-9.51,5.4-18.07,11.61-25.31,1.63-1.89,3.34-3.89,3.84-6.34a14.26,14.26,0,0,0,0-4.47c-.6-5.88-1-11.94.58-17.63s5.73-11,11.46-12.5l4.81,18.18a52,52,0,0,1,2.1,11.3A49.8,49.8,0,0,1,409,94.4q-5,23.1-11.78,45.78A8.1,8.1,0,0,1,395,144.3c-1.41,1.16-3.39,1.23-5.21,1.16-11-.42-21.66-4.06-32.1-7.66-3-1.05-6.17-2.17-8.39-4.47a19,19,0,0,1-3.77-7.05c-1.77-5-8.61-20.49-3.42-24.67C348.78,96.24,356.16,110.71,358.71,114.86Z" opacity=".06" transform="translate(-155.47 -2.52)"/><ellipse cx="310.29" cy="141.55" fill="#68e1fd" rx="46.11" ry="59.49" transform="rotate(-12.07 220.623 875.57)"/><ellipse cx="310.29" cy="141.55" fill="url(#v)" rx="46.11" ry="59.49" transform="rotate(-12.07 220.623 875.57)"/><ellipse cx="366.76" cy="189.63" fill="#68e1fd" rx="46.11" ry="59.49" transform="rotate(-12.07 277.085 923.67)"/><ellipse cx="366.76" cy="189.63" fill="url(#w)" rx="46.11" ry="59.49" transform="rotate(-12.07 277.085 923.67)"/><ellipse cx="497.89" cy="51.74" fill="#68e1fd" rx="49.51" ry="38.37" transform="rotate(-80.2 418.671 142.793)"/><ellipse cx="497.89" cy="51.74" fill="url(#x)" rx="49.51" ry="38.37" transform="rotate(-80.2 418.671 142.793)"/><ellipse cx="433.18" cy="54.59" fill="#68e1fd" rx="49.51" ry="38.37" transform="rotate(-85.78 354.073 137.03)"/><ellipse cx="433.18" cy="54.59" fill="url(#y)" rx="49.51" ry="38.37" transform="rotate(-85.78 354.073 137.03)"/><ellipse cx="460.89" cy="223.02" fill="#68e1fd" rx="46.11" ry="59.49" transform="rotate(-5.01 354.674 1998.807)"/><ellipse cx="460.89" cy="223.02" fill="url(#z)" rx="46.11" ry="59.49" transform="rotate(-5.01 354.674 1998.807)"/><path fill="url(#A)" d="M437.65,205.15a52.81,52.81,0,0,0,37.52,37.46,25.49,25.49,0,0,0,11.76.62A17.41,17.41,0,0,0,500.1,228c.42-5.86-2.18-11.45-4.73-16.74-3.1-6.42-6.2-12.84-9.83-19-3.27-5.53-7-10.88-11.84-15.12s-10.86-7.33-17.27-7.8c-8.9-.65-17.36,3.7-24.81,8.61a32.36,32.36,0,0,0-6,4.79c-3.06,3.3-9,13.62-6.68,18.13C421,204.87,438,206.56,437.65,205.15Z" opacity=".06" transform="translate(-155.47 -2.52)"/><ellipse cx="557.58" cy="180.09" fill="#68e1fd" rx="59.49" ry="46.11" transform="rotate(-60 477.665 313.48)"/><ellipse cx="557.58" cy="180.09" fill="url(#B)" rx="59.49" ry="46.11" transform="rotate(-60 477.665 313.48)"/><path fill="#68e1fd" d="M553.29,95.27A75.24,75.24,0,0,1,549,110.43c-9.54,24-30.34,39.23-51.29,35.61-25.09-4.33-40.9-34.08-35.31-66.46a74.8,74.8,0,0,1,6.72-20.68C479.51,38.14,498.68,25.47,518,28.81,543.07,33.15,558.88,62.9,553.29,95.27Z" transform="translate(-155.47 -2.52)"/><path fill="url(#C)" d="M553.29,95.27A75.24,75.24,0,0,1,549,110.43c-9.54,24-30.34,39.23-51.29,35.61-25.09-4.33-40.9-34.08-35.31-66.46a74.8,74.8,0,0,1,6.72-20.68C479.51,38.14,498.68,25.47,518,28.81,543.07,33.15,558.88,62.9,553.29,95.27Z" transform="translate(-155.47 -2.52)"/><path fill="url(#D)" d="M550.83,108.62c-9.54,24-30.34,39.23-51.29,35.61-25.09-4.33-40.9-34.08-35.31-66.46A74.8,74.8,0,0,1,471,57.09c4.94-.31,7.72,8,9.54,11.89a79,79,0,0,1,7.27,39.17,52.21,52.21,0,0,1,38.16-.2,15.14,15.14,0,0,0,5.22,1.45,17.29,17.29,0,0,0,4.51-.91A28.85,28.85,0,0,1,550.83,108.62Z" opacity=".06" transform="translate(-155.47 -2.52)"/><path fill="#68e1fd" d="M478.53,135.67c-2.1,28.38-19.3,51-40.37,55.28a36.6,36.6,0,0,1-10,.65c-25.4-1.88-44-30-41.61-62.72s25-57.8,50.36-55.93c16.14,1.19,29.54,13,36.55,29.78h0a69.49,69.49,0,0,1,5.1,22.22A75.14,75.14,0,0,1,478.53,135.67Z" transform="translate(-155.47 -2.52)"/><path fill="url(#E)" d="M478.53,135.67c-2.1,28.38-19.3,51-40.37,55.28a36.6,36.6,0,0,1-10,.65c-25.4-1.88-44-30-41.61-62.72s25-57.8,50.36-55.93c16.14,1.19,29.54,13,36.55,29.78h0a69.49,69.49,0,0,1,5.1,22.22A75.14,75.14,0,0,1,478.53,135.67Z" transform="translate(-155.47 -2.52)"/><path fill="url(#F)" d="M480.34,133.86c-2.11,28.38-19.3,51-40.37,55.28-24.34-53.25,35.31-88.22,35.31-88.22h0l5.1,22.22A75.14,75.14,0,0,1,480.34,133.86Z" opacity=".06" transform="translate(-155.47 -2.52)"/><ellipse cx="494.04" cy="180.09" fill="#68e1fd" rx="59.49" ry="46.11" transform="rotate(-85.78 414.927 262.526)"/><ellipse cx="494.04" cy="180.09" fill="url(#G)" rx="59.49" ry="46.11" transform="rotate(-85.78 414.927 262.526)"/><path fill="#25233a" d="M436.44,385.56s.69,13.42,2.78,17.93c0,0-5.08-5.74-5.66-2-1.43,9.22,6.47,10.55,6.72,10.47,2-.57,3,8.55,1.51,8.85-3.62.74-10.51,2.08-10.51,2.08l-3.68-11.77Z" transform="translate(-155.47 -2.52)"/><path fill="url(#H)" d="M439.09,408.09s-1.53-.22-1.62-2.39-.81-2.53-1.57-2.65-2.36,1.5-.42,4.31,4.38,3.58,4.55,3S439.09,408.09,439.09,408.09Z" opacity=".19" transform="translate(-155.47 -2.52)"/><line x1="321.23" x2="381.31" y1="338.81" y2="228.76" fill="none" stroke="#fff" stroke-linecap="round" stroke-miterlimit="10" stroke-width="3.63"/><path fill="#68e1fd" d="M402.9,593.76C375.13,595,352.69,596,352.69,596s-23.05-4.08-23-23.49l0-112.66h.09c.16,4.79,3.44,25.39,47.94,26.31l-1,89.92S380.31,590,402.9,593.76Z" transform="translate(-155.47 -2.52)"/><path fill="url(#I)" d="M402.9,593.76C375.13,595,352.69,596,352.69,596s-23.05-4.08-23-23.49l0-112.66h.09c.16,4.79,3.44,25.39,47.94,26.31l-1,89.92S380.31,590,402.9,593.76Z" transform="translate(-155.47 -2.52)"/><path fill="none" stroke="#fff" stroke-linecap="round" stroke-miterlimit="10" stroke-width="3.63" d="M329.69,461.8s-13.52-100.59,64.85-124.3c109.25-33.05,133.51,65.55,131.09,107.12" transform="translate(-155.47 -2.52)"/><path fill="#fff" d="M290.42 90a57.17 57.17 0 00-9.68 9.49 24.38 24.38 0 00-4.57 6.75 23.78 23.78 0 00-1.25 6.66 11.68 11.68 0 00.27 4.79 4.13 4.13 0 003.46 3c1.52.06 2.82-1 4-2l22.9-19.84a5.2 5.2 0 001.84-2.4 5.17 5.17 0 00-.44-3c-.95-2.61-2.21-7.54-5.49-7.73C297.68 85.46 293.35 87.88 290.42 90zM237.54 36a46.13 46.13 0 00-6.68 8.7 19.76 19.76 0 00-2.9 5.92 19.34 19.34 0 00-.25 5.48 9.6 9.6 0 00.76 3.81 3.36 3.36 0 003.11 2 5 5 0 002.95-2l16.1-18.49a4.12 4.12 0 001.2-2.13 4.1 4.1 0 00-.69-2.34c-1-2-2.62-5.79-5.27-5.57C242.84 31.59 239.64 34 237.54 36zM309.4 4.65a37.57 37.57 0 00-7.66 4.61 16.38 16.38 0 00-4 3.63A15.85 15.85 0 00295.94 17a7.65 7.65 0 00-.55 3.12 2.7 2.7 0 001.77 2.42 4.07 4.07 0 002.85-.67l17.73-9.23a3.4 3.4 0 001.55-1.26 3.4 3.4 0 00.18-2c-.21-1.82-.27-5.18-2.34-5.8C314.75 2.86 311.6 3.75 309.4 4.65zM362.86 35.55a53.86 53.86 0 00-9.06 9.11 23 23 0 00-4.24 6.45 22.2 22.2 0 00-1.11 6.33 11.17 11.17 0 00.31 4.54 3.92 3.92 0 003.32 2.75c1.44 0 2.66-1 3.73-1.93l21.46-19.09A4.78 4.78 0 00379 41.42a4.89 4.89 0 00-.46-2.82c-.92-2.46-2.18-7.12-5.29-7.26C369.68 31.18 365.6 33.53 362.86 35.55zM336.28 155a45 45 0 00-4.8 9.59 19.56 19.56 0 00-1.69 6.23 18.8 18.8 0 00.78 5.31 9.33 9.33 0 001.44 3.52 3.27 3.27 0 003.35 1.31 4.81 4.81 0 002.45-2.51l12-20.74a4.08 4.08 0 00.77-2.27 4.16 4.16 0 00-1.11-2.12c-1.37-1.71-3.59-5.07-6.09-4.37C340.55 149.76 337.93 152.69 336.28 155zM408.28 90.45A45.81 45.81 0 00402 99.12a19.24 19.24 0 00-2.68 5.87 18.93 18.93 0 00-.11 5.37 9.48 9.48 0 00.84 3.7 3.29 3.29 0 003.09 1.85 4.94 4.94 0 002.84-2.07l15.27-18.49a4.07 4.07 0 001.12-2.11 4 4 0 00-.73-2.27c-1.08-1.91-2.71-5.6-5.29-5.32C413.36 86 410.29 88.43 408.28 90.45zM513.09 30.88a45.47 45.47 0 00-10.56 1.88 19.54 19.54 0 00-6 2.37 19 19 0 00-3.79 3.8 9.22 9.22 0 00-2 3.25 3.27 3.27 0 00.94 3.47 4.83 4.83 0 003.48.47L519 43.38a4.08 4.08 0 002.28-.74 4.07 4.07 0 001-2.15c.55-2.13 1.92-5.91-.13-7.5C519.85 31.17 515.94 30.82 513.09 30.88zM480.88 129.26A45.27 45.27 0 00472.5 136a19.39 19.39 0 00-4.15 4.94 18.75 18.75 0 00-1.52 5.15 9.17 9.17 0 00-.17 3.79 3.24 3.24 0 002.48 2.6 4.87 4.87 0 003.29-1.24l19.62-13.78a4 4 0 001.65-1.73 4.08 4.08 0 00-.11-2.39c-.53-2.13-1.13-6.11-3.69-6.53C487 126.29 483.35 127.84 480.88 129.26zM573.25 127.64a45.25 45.25 0 00-10.72.16 19.33 19.33 0 00-6.31 1.38 18.77 18.77 0 00-4.35 3.13 9.22 9.22 0 00-2.46 2.9 3.27 3.27 0 00.38 3.58 4.82 4.82 0 003.36 1l24 1.12a3.07 3.07 0 003.74-2.33c.88-2 2.84-5.52 1.07-7.42C579.88 129 576.07 128 573.25 127.64zM286.82 222a45 45 0 002.55 10.42 14.52 14.52 0 006.77 9.39 9.12 9.12 0 003.37 1.74 3.28 3.28 0 003.41-1.16 4.83 4.83 0 00.24-3.5q-2.12-11.81-4.24-23.6a4.1 4.1 0 00-.89-2.22 4 4 0 00-2.21-.91c-2.16-.41-6-1.54-7.47.61C286.68 215.27 286.58 219.2 286.82 222zM585 30.65a45.24 45.24 0 00-10.51 2.15 19.42 19.42 0 00-5.94 2.52 19 19 0 00-3.69 3.9 9.3 9.3 0 00-1.88 3.3A3.25 3.25 0 00564 46a4.93 4.93 0 003.5.39L591.25 43a4.09 4.09 0 002.25-.8 4.06 4.06 0 001-2.18c.49-2.14 1.77-6-.32-7.49C591.76 30.76 587.84 30.51 585 30.65zM423.27 8.39a39.42 39.42 0 00-6.63 6.66 16.88 16.88 0 00-3.11 4.72 16.79 16.79 0 00-.81 4.63 8 8 0 00.24 3.32 2.83 2.83 0 002.42 2 4.22 4.22 0 002.73-1.41l15.7-14a3.58 3.58 0 001.26-1.68 3.56 3.56 0 00-.34-2.06c-.68-1.8-1.6-5.21-3.87-5.31C428.26 5.19 425.27 6.91 423.27 8.39z" opacity=".18" transform="translate(-155.47 -2.52)" style="isolation:isolate"/></svg>